%TF.GenerationSoftware,KiCad,Pcbnew,7.0.8*%
%TF.CreationDate,2023-10-27T12:06:26-04:00*%
%TF.ProjectId,top_plate,746f705f-706c-4617-9465-2e6b69636164,rev?*%
%TF.SameCoordinates,PX2faf080PY5f5e100*%
%TF.FileFunction,Legend,Top*%
%TF.FilePolarity,Positive*%
%FSLAX46Y46*%
G04 Gerber Fmt 4.6, Leading zero omitted, Abs format (unit mm)*
G04 Created by KiCad (PCBNEW 7.0.8) date 2023-10-27 12:06:26*
%MOMM*%
%LPD*%
G01*
G04 APERTURE LIST*
G04 Aperture macros list*
%AMRoundRect*
0 Rectangle with rounded corners*
0 $1 Rounding radius*
0 $2 $3 $4 $5 $6 $7 $8 $9 X,Y pos of 4 corners*
0 Add a 4 corners polygon primitive as box body*
4,1,4,$2,$3,$4,$5,$6,$7,$8,$9,$2,$3,0*
0 Add four circle primitives for the rounded corners*
1,1,$1+$1,$2,$3*
1,1,$1+$1,$4,$5*
1,1,$1+$1,$6,$7*
1,1,$1+$1,$8,$9*
0 Add four rect primitives between the rounded corners*
20,1,$1+$1,$2,$3,$4,$5,0*
20,1,$1+$1,$4,$5,$6,$7,0*
20,1,$1+$1,$6,$7,$8,$9,0*
20,1,$1+$1,$8,$9,$2,$3,0*%
%AMFreePoly0*
4,1,111,-2.563245,3.679731,-2.180727,3.619146,-1.806637,3.518909,-1.445074,3.380118,-1.100000,3.204294,-0.775195,2.993363,-0.474217,2.749636,-0.200364,2.475783,0.043363,2.174805,0.254294,1.850000,0.430118,1.504926,0.568909,1.143363,0.669146,0.769273,0.729731,0.386755,0.750000,0.000000,0.729731,-0.386755,0.669146,-0.769273,0.568909,-1.143363,0.430118,-1.504926,0.254294,-1.850000,
0.043363,-2.174805,-0.200364,-2.475783,-0.474217,-2.749636,-0.775195,-2.993363,-1.100000,-3.204294,-1.445074,-3.380118,-1.806637,-3.518909,-2.180727,-3.619146,-2.563245,-3.679731,-2.950000,-3.700000,-3.336755,-3.679731,-3.719273,-3.619146,-4.093363,-3.518909,-4.454926,-3.380118,-4.800000,-3.204294,-5.124805,-2.993363,-5.425783,-2.749636,-5.699636,-2.475783,-5.943363,-2.174805,-6.154294,-1.850000,
-6.330118,-1.504926,-6.468909,-1.143363,-6.569146,-0.769273,-6.629731,-0.386755,-6.650000,0.000000,-5.154720,0.000000,-5.135858,-0.287774,-5.079596,-0.570624,-4.986896,-0.843710,-4.859344,-1.102360,-4.699122,-1.342148,-4.508972,-1.558972,-4.292148,-1.749122,-4.052360,-1.909344,-3.793710,-2.036896,-3.520624,-2.129596,-3.237774,-2.185858,-2.950000,-2.204720,-2.662226,-2.185858,-2.379376,-2.129596,
-2.106290,-2.036896,-1.847640,-1.909344,-1.607852,-1.749122,-1.391028,-1.558972,-1.200878,-1.342148,-1.040656,-1.102360,-0.913104,-0.843710,-0.820404,-0.570624,-0.764142,-0.287774,-0.745280,0.000000,-0.764142,0.287774,-0.820404,0.570624,-0.913104,0.843710,-1.040656,1.102360,-1.200878,1.342148,-1.391028,1.558972,-1.607852,1.749122,-1.847640,1.909344,-2.106290,2.036896,-2.379376,2.129596,
-2.662226,2.185858,-2.950000,2.204720,-3.237774,2.185858,-3.520624,2.129596,-3.793710,2.036896,-4.052360,1.909344,-4.292148,1.749122,-4.508972,1.558972,-4.699122,1.342148,-4.859344,1.102360,-4.986896,0.843710,-5.079596,0.570624,-5.135858,0.287774,-5.154720,0.000000,-6.650000,0.000000,-6.629731,0.386755,-6.569146,0.769273,-6.468909,1.143363,-6.330118,1.504926,-6.154294,1.850000,
-5.943363,2.174805,-5.699636,2.475783,-5.425783,2.749636,-5.124805,2.993363,-4.800000,3.204294,-4.454926,3.380118,-4.093363,3.518909,-3.719273,3.619146,-3.336755,3.679731,-2.950000,3.700000,-2.563245,3.679731,-2.563245,3.679731,$1*%
G04 Aperture macros list end*
%ADD10C,0.150000*%
%ADD11C,0.200000*%
%ADD12C,0.400000*%
%ADD13C,0.120000*%
%ADD14C,5.600000*%
%ADD15R,0.850000X1.600000*%
%ADD16RoundRect,0.200000X0.200000X0.275000X-0.200000X0.275000X-0.200000X-0.275000X0.200000X-0.275000X0*%
%ADD17RoundRect,0.250000X-0.625000X0.350000X-0.625000X-0.350000X0.625000X-0.350000X0.625000X0.350000X0*%
%ADD18O,1.750000X1.200000*%
%ADD19RoundRect,0.225000X0.250000X-0.225000X0.250000X0.225000X-0.250000X0.225000X-0.250000X-0.225000X0*%
%ADD20C,1.700000*%
%ADD21O,1.700000X1.700000*%
%ADD22R,1.700000X1.700000*%
%ADD23RoundRect,0.150000X0.150000X0.625000X-0.150000X0.625000X-0.150000X-0.625000X0.150000X-0.625000X0*%
%ADD24RoundRect,0.250000X0.350000X0.650000X-0.350000X0.650000X-0.350000X-0.650000X0.350000X-0.650000X0*%
%ADD25C,4.220000*%
%ADD26FreePoly0,0.000000*%
%ADD27R,2.000000X2.000000*%
%ADD28C,2.000000*%
%ADD29R,1.600000X1.600000*%
%ADD30C,1.600000*%
G04 APERTURE END LIST*
D10*
X44450000Y-29210000D02*
X44450000Y-25400000D01*
X36830000Y-29210000D02*
X44450000Y-29210000D01*
X36830000Y-25400000D02*
X36830000Y-29210000D01*
X39835847Y-35814286D02*
X39169180Y-36052381D01*
X39169180Y-36052381D02*
X39835847Y-36290476D01*
X39835847Y-37861905D02*
X39169180Y-37861905D01*
X40216800Y-37623810D02*
X39502514Y-37385715D01*
X39502514Y-37385715D02*
X39502514Y-38004762D01*
X39264419Y-38385715D02*
X39216800Y-38433334D01*
X39216800Y-38433334D02*
X39169180Y-38385715D01*
X39169180Y-38385715D02*
X39216800Y-38338096D01*
X39216800Y-38338096D02*
X39264419Y-38385715D01*
X39264419Y-38385715D02*
X39169180Y-38385715D01*
X40169180Y-39052381D02*
X40169180Y-39147619D01*
X40169180Y-39147619D02*
X40121561Y-39242857D01*
X40121561Y-39242857D02*
X40073942Y-39290476D01*
X40073942Y-39290476D02*
X39978704Y-39338095D01*
X39978704Y-39338095D02*
X39788228Y-39385714D01*
X39788228Y-39385714D02*
X39550133Y-39385714D01*
X39550133Y-39385714D02*
X39359657Y-39338095D01*
X39359657Y-39338095D02*
X39264419Y-39290476D01*
X39264419Y-39290476D02*
X39216800Y-39242857D01*
X39216800Y-39242857D02*
X39169180Y-39147619D01*
X39169180Y-39147619D02*
X39169180Y-39052381D01*
X39169180Y-39052381D02*
X39216800Y-38957143D01*
X39216800Y-38957143D02*
X39264419Y-38909524D01*
X39264419Y-38909524D02*
X39359657Y-38861905D01*
X39359657Y-38861905D02*
X39550133Y-38814286D01*
X39550133Y-38814286D02*
X39788228Y-38814286D01*
X39788228Y-38814286D02*
X39978704Y-38861905D01*
X39978704Y-38861905D02*
X40073942Y-38909524D01*
X40073942Y-38909524D02*
X40121561Y-38957143D01*
X40121561Y-38957143D02*
X40169180Y-39052381D01*
X40073942Y-39766667D02*
X40121561Y-39814286D01*
X40121561Y-39814286D02*
X40169180Y-39909524D01*
X40169180Y-39909524D02*
X40169180Y-40147619D01*
X40169180Y-40147619D02*
X40121561Y-40242857D01*
X40121561Y-40242857D02*
X40073942Y-40290476D01*
X40073942Y-40290476D02*
X39978704Y-40338095D01*
X39978704Y-40338095D02*
X39883466Y-40338095D01*
X39883466Y-40338095D02*
X39740609Y-40290476D01*
X39740609Y-40290476D02*
X39169180Y-39719048D01*
X39169180Y-39719048D02*
X39169180Y-40338095D01*
X40454819Y-22619048D02*
X41169104Y-22619048D01*
X41169104Y-22619048D02*
X41311961Y-22666667D01*
X41311961Y-22666667D02*
X41407200Y-22761905D01*
X41407200Y-22761905D02*
X41454819Y-22904762D01*
X41454819Y-22904762D02*
X41454819Y-23000000D01*
X41454819Y-21666667D02*
X41454819Y-22142857D01*
X41454819Y-22142857D02*
X40454819Y-22142857D01*
X41359580Y-20761905D02*
X41407200Y-20809524D01*
X41407200Y-20809524D02*
X41454819Y-20952381D01*
X41454819Y-20952381D02*
X41454819Y-21047619D01*
X41454819Y-21047619D02*
X41407200Y-21190476D01*
X41407200Y-21190476D02*
X41311961Y-21285714D01*
X41311961Y-21285714D02*
X41216723Y-21333333D01*
X41216723Y-21333333D02*
X41026247Y-21380952D01*
X41026247Y-21380952D02*
X40883390Y-21380952D01*
X40883390Y-21380952D02*
X40692914Y-21333333D01*
X40692914Y-21333333D02*
X40597676Y-21285714D01*
X40597676Y-21285714D02*
X40502438Y-21190476D01*
X40502438Y-21190476D02*
X40454819Y-21047619D01*
X40454819Y-21047619D02*
X40454819Y-20952381D01*
X40454819Y-20952381D02*
X40502438Y-20809524D01*
X40502438Y-20809524D02*
X40550057Y-20761905D01*
X40454819Y-20047619D02*
X41169104Y-20047619D01*
X41169104Y-20047619D02*
X41311961Y-20095238D01*
X41311961Y-20095238D02*
X41407200Y-20190476D01*
X41407200Y-20190476D02*
X41454819Y-20333333D01*
X41454819Y-20333333D02*
X41454819Y-20428571D01*
X41454819Y-19095238D02*
X41454819Y-19571428D01*
X41454819Y-19571428D02*
X40454819Y-19571428D01*
X41359580Y-18190476D02*
X41407200Y-18238095D01*
X41407200Y-18238095D02*
X41454819Y-18380952D01*
X41454819Y-18380952D02*
X41454819Y-18476190D01*
X41454819Y-18476190D02*
X41407200Y-18619047D01*
X41407200Y-18619047D02*
X41311961Y-18714285D01*
X41311961Y-18714285D02*
X41216723Y-18761904D01*
X41216723Y-18761904D02*
X41026247Y-18809523D01*
X41026247Y-18809523D02*
X40883390Y-18809523D01*
X40883390Y-18809523D02*
X40692914Y-18761904D01*
X40692914Y-18761904D02*
X40597676Y-18714285D01*
X40597676Y-18714285D02*
X40502438Y-18619047D01*
X40502438Y-18619047D02*
X40454819Y-18476190D01*
X40454819Y-18476190D02*
X40454819Y-18380952D01*
X40454819Y-18380952D02*
X40502438Y-18238095D01*
X40502438Y-18238095D02*
X40550057Y-18190476D01*
X40454819Y-17476190D02*
X41169104Y-17476190D01*
X41169104Y-17476190D02*
X41311961Y-17523809D01*
X41311961Y-17523809D02*
X41407200Y-17619047D01*
X41407200Y-17619047D02*
X41454819Y-17761904D01*
X41454819Y-17761904D02*
X41454819Y-17857142D01*
X41454819Y-16523809D02*
X41454819Y-16999999D01*
X41454819Y-16999999D02*
X40454819Y-16999999D01*
X41359580Y-15619047D02*
X41407200Y-15666666D01*
X41407200Y-15666666D02*
X41454819Y-15809523D01*
X41454819Y-15809523D02*
X41454819Y-15904761D01*
X41454819Y-15904761D02*
X41407200Y-16047618D01*
X41407200Y-16047618D02*
X41311961Y-16142856D01*
X41311961Y-16142856D02*
X41216723Y-16190475D01*
X41216723Y-16190475D02*
X41026247Y-16238094D01*
X41026247Y-16238094D02*
X40883390Y-16238094D01*
X40883390Y-16238094D02*
X40692914Y-16190475D01*
X40692914Y-16190475D02*
X40597676Y-16142856D01*
X40597676Y-16142856D02*
X40502438Y-16047618D01*
X40502438Y-16047618D02*
X40454819Y-15904761D01*
X40454819Y-15904761D02*
X40454819Y-15809523D01*
X40454819Y-15809523D02*
X40502438Y-15666666D01*
X40502438Y-15666666D02*
X40550057Y-15619047D01*
X40454819Y-14904761D02*
X41169104Y-14904761D01*
X41169104Y-14904761D02*
X41311961Y-14952380D01*
X41311961Y-14952380D02*
X41407200Y-15047618D01*
X41407200Y-15047618D02*
X41454819Y-15190475D01*
X41454819Y-15190475D02*
X41454819Y-15285713D01*
X41454819Y-13952380D02*
X41454819Y-14428570D01*
X41454819Y-14428570D02*
X40454819Y-14428570D01*
X41359580Y-13047618D02*
X41407200Y-13095237D01*
X41407200Y-13095237D02*
X41454819Y-13238094D01*
X41454819Y-13238094D02*
X41454819Y-13333332D01*
X41454819Y-13333332D02*
X41407200Y-13476189D01*
X41407200Y-13476189D02*
X41311961Y-13571427D01*
X41311961Y-13571427D02*
X41216723Y-13619046D01*
X41216723Y-13619046D02*
X41026247Y-13666665D01*
X41026247Y-13666665D02*
X40883390Y-13666665D01*
X40883390Y-13666665D02*
X40692914Y-13619046D01*
X40692914Y-13619046D02*
X40597676Y-13571427D01*
X40597676Y-13571427D02*
X40502438Y-13476189D01*
X40502438Y-13476189D02*
X40454819Y-13333332D01*
X40454819Y-13333332D02*
X40454819Y-13238094D01*
X40454819Y-13238094D02*
X40502438Y-13095237D01*
X40502438Y-13095237D02*
X40550057Y-13047618D01*
D11*
X68316471Y-11892856D02*
X69816471Y-11892856D01*
X69102185Y-11892856D02*
X69102185Y-12749999D01*
X68316471Y-12749999D02*
X69816471Y-12749999D01*
X69816471Y-13464285D02*
X68602185Y-13464285D01*
X68602185Y-13464285D02*
X68459328Y-13535714D01*
X68459328Y-13535714D02*
X68387900Y-13607143D01*
X68387900Y-13607143D02*
X68316471Y-13750000D01*
X68316471Y-13750000D02*
X68316471Y-14035714D01*
X68316471Y-14035714D02*
X68387900Y-14178571D01*
X68387900Y-14178571D02*
X68459328Y-14250000D01*
X68459328Y-14250000D02*
X68602185Y-14321428D01*
X68602185Y-14321428D02*
X69816471Y-14321428D01*
X68387900Y-14964286D02*
X68316471Y-15178572D01*
X68316471Y-15178572D02*
X68316471Y-15535714D01*
X68316471Y-15535714D02*
X68387900Y-15678572D01*
X68387900Y-15678572D02*
X68459328Y-15750000D01*
X68459328Y-15750000D02*
X68602185Y-15821429D01*
X68602185Y-15821429D02*
X68745042Y-15821429D01*
X68745042Y-15821429D02*
X68887900Y-15750000D01*
X68887900Y-15750000D02*
X68959328Y-15678572D01*
X68959328Y-15678572D02*
X69030757Y-15535714D01*
X69030757Y-15535714D02*
X69102185Y-15250000D01*
X69102185Y-15250000D02*
X69173614Y-15107143D01*
X69173614Y-15107143D02*
X69245042Y-15035714D01*
X69245042Y-15035714D02*
X69387900Y-14964286D01*
X69387900Y-14964286D02*
X69530757Y-14964286D01*
X69530757Y-14964286D02*
X69673614Y-15035714D01*
X69673614Y-15035714D02*
X69745042Y-15107143D01*
X69745042Y-15107143D02*
X69816471Y-15250000D01*
X69816471Y-15250000D02*
X69816471Y-15607143D01*
X69816471Y-15607143D02*
X69745042Y-15821429D01*
X68316471Y-16464285D02*
X69816471Y-16464285D01*
X68316471Y-17321428D02*
X69173614Y-16678571D01*
X69816471Y-17321428D02*
X68959328Y-16464285D01*
X69030757Y-18250000D02*
X68316471Y-18250000D01*
X69816471Y-17750000D02*
X69030757Y-18250000D01*
X69030757Y-18250000D02*
X69816471Y-18750000D01*
X68316471Y-19964285D02*
X68316471Y-19249999D01*
X68316471Y-19249999D02*
X69816471Y-19249999D01*
X69102185Y-20464285D02*
X69102185Y-20964285D01*
X68316471Y-21178571D02*
X68316471Y-20464285D01*
X68316471Y-20464285D02*
X69816471Y-20464285D01*
X69816471Y-20464285D02*
X69816471Y-21178571D01*
X68316471Y-21821428D02*
X69816471Y-21821428D01*
X69816471Y-21821428D02*
X68316471Y-22678571D01*
X68316471Y-22678571D02*
X69816471Y-22678571D01*
X68387900Y-23321429D02*
X68316471Y-23535715D01*
X68316471Y-23535715D02*
X68316471Y-23892857D01*
X68316471Y-23892857D02*
X68387900Y-24035715D01*
X68387900Y-24035715D02*
X68459328Y-24107143D01*
X68459328Y-24107143D02*
X68602185Y-24178572D01*
X68602185Y-24178572D02*
X68745042Y-24178572D01*
X68745042Y-24178572D02*
X68887900Y-24107143D01*
X68887900Y-24107143D02*
X68959328Y-24035715D01*
X68959328Y-24035715D02*
X69030757Y-23892857D01*
X69030757Y-23892857D02*
X69102185Y-23607143D01*
X69102185Y-23607143D02*
X69173614Y-23464286D01*
X69173614Y-23464286D02*
X69245042Y-23392857D01*
X69245042Y-23392857D02*
X69387900Y-23321429D01*
X69387900Y-23321429D02*
X69530757Y-23321429D01*
X69530757Y-23321429D02*
X69673614Y-23392857D01*
X69673614Y-23392857D02*
X69745042Y-23464286D01*
X69745042Y-23464286D02*
X69816471Y-23607143D01*
X69816471Y-23607143D02*
X69816471Y-23964286D01*
X69816471Y-23964286D02*
X69745042Y-24178572D01*
D12*
X43241514Y-33782571D02*
X41812942Y-33782571D01*
X44812942Y-32782571D02*
X43241514Y-33782571D01*
X43241514Y-33782571D02*
X44812942Y-34782571D01*
X44812942Y-36354000D02*
X44812942Y-36925428D01*
X44812942Y-36925428D02*
X44670085Y-37211143D01*
X44670085Y-37211143D02*
X44384371Y-37496857D01*
X44384371Y-37496857D02*
X43812942Y-37639714D01*
X43812942Y-37639714D02*
X42812942Y-37639714D01*
X42812942Y-37639714D02*
X42241514Y-37496857D01*
X42241514Y-37496857D02*
X41955800Y-37211143D01*
X41955800Y-37211143D02*
X41812942Y-36925428D01*
X41812942Y-36925428D02*
X41812942Y-36354000D01*
X41812942Y-36354000D02*
X41955800Y-36068286D01*
X41955800Y-36068286D02*
X42241514Y-35782571D01*
X42241514Y-35782571D02*
X42812942Y-35639714D01*
X42812942Y-35639714D02*
X43812942Y-35639714D01*
X43812942Y-35639714D02*
X44384371Y-35782571D01*
X44384371Y-35782571D02*
X44670085Y-36068286D01*
X44670085Y-36068286D02*
X44812942Y-36354000D01*
X44812942Y-38639714D02*
X44812942Y-40639714D01*
X44812942Y-40639714D02*
X41812942Y-38639714D01*
X41812942Y-38639714D02*
X41812942Y-40639714D01*
X41812942Y-41782571D02*
X44812942Y-41782571D01*
X43384371Y-41782571D02*
X43384371Y-43496857D01*
X41812942Y-43496857D02*
X44812942Y-43496857D01*
D10*
X39378095Y-27394819D02*
X39378095Y-28204342D01*
X39378095Y-28204342D02*
X39425714Y-28299580D01*
X39425714Y-28299580D02*
X39473333Y-28347200D01*
X39473333Y-28347200D02*
X39568571Y-28394819D01*
X39568571Y-28394819D02*
X39759047Y-28394819D01*
X39759047Y-28394819D02*
X39854285Y-28347200D01*
X39854285Y-28347200D02*
X39901904Y-28299580D01*
X39901904Y-28299580D02*
X39949523Y-28204342D01*
X39949523Y-28204342D02*
X39949523Y-27394819D01*
X40378095Y-28347200D02*
X40520952Y-28394819D01*
X40520952Y-28394819D02*
X40759047Y-28394819D01*
X40759047Y-28394819D02*
X40854285Y-28347200D01*
X40854285Y-28347200D02*
X40901904Y-28299580D01*
X40901904Y-28299580D02*
X40949523Y-28204342D01*
X40949523Y-28204342D02*
X40949523Y-28109104D01*
X40949523Y-28109104D02*
X40901904Y-28013866D01*
X40901904Y-28013866D02*
X40854285Y-27966247D01*
X40854285Y-27966247D02*
X40759047Y-27918628D01*
X40759047Y-27918628D02*
X40568571Y-27871009D01*
X40568571Y-27871009D02*
X40473333Y-27823390D01*
X40473333Y-27823390D02*
X40425714Y-27775771D01*
X40425714Y-27775771D02*
X40378095Y-27680533D01*
X40378095Y-27680533D02*
X40378095Y-27585295D01*
X40378095Y-27585295D02*
X40425714Y-27490057D01*
X40425714Y-27490057D02*
X40473333Y-27442438D01*
X40473333Y-27442438D02*
X40568571Y-27394819D01*
X40568571Y-27394819D02*
X40806666Y-27394819D01*
X40806666Y-27394819D02*
X40949523Y-27442438D01*
X41711428Y-27871009D02*
X41854285Y-27918628D01*
X41854285Y-27918628D02*
X41901904Y-27966247D01*
X41901904Y-27966247D02*
X41949523Y-28061485D01*
X41949523Y-28061485D02*
X41949523Y-28204342D01*
X41949523Y-28204342D02*
X41901904Y-28299580D01*
X41901904Y-28299580D02*
X41854285Y-28347200D01*
X41854285Y-28347200D02*
X41759047Y-28394819D01*
X41759047Y-28394819D02*
X41378095Y-28394819D01*
X41378095Y-28394819D02*
X41378095Y-27394819D01*
X41378095Y-27394819D02*
X41711428Y-27394819D01*
X41711428Y-27394819D02*
X41806666Y-27442438D01*
X41806666Y-27442438D02*
X41854285Y-27490057D01*
X41854285Y-27490057D02*
X41901904Y-27585295D01*
X41901904Y-27585295D02*
X41901904Y-27680533D01*
X41901904Y-27680533D02*
X41854285Y-27775771D01*
X41854285Y-27775771D02*
X41806666Y-27823390D01*
X41806666Y-27823390D02*
X41711428Y-27871009D01*
X41711428Y-27871009D02*
X41378095Y-27871009D01*
X36629180Y-33687333D02*
X37629180Y-33687333D01*
X37248228Y-33687333D02*
X37295847Y-33782571D01*
X37295847Y-33782571D02*
X37295847Y-33973047D01*
X37295847Y-33973047D02*
X37248228Y-34068285D01*
X37248228Y-34068285D02*
X37200609Y-34115904D01*
X37200609Y-34115904D02*
X37105371Y-34163523D01*
X37105371Y-34163523D02*
X36819657Y-34163523D01*
X36819657Y-34163523D02*
X36724419Y-34115904D01*
X36724419Y-34115904D02*
X36676800Y-34068285D01*
X36676800Y-34068285D02*
X36629180Y-33973047D01*
X36629180Y-33973047D02*
X36629180Y-33782571D01*
X36629180Y-33782571D02*
X36676800Y-33687333D01*
X37295847Y-34496857D02*
X36629180Y-34734952D01*
X37295847Y-34973047D02*
X36629180Y-34734952D01*
X36629180Y-34734952D02*
X36391085Y-34639714D01*
X36391085Y-34639714D02*
X36343466Y-34592095D01*
X36343466Y-34592095D02*
X36295847Y-34496857D01*
X36676800Y-36068286D02*
X36629180Y-36163524D01*
X36629180Y-36163524D02*
X36629180Y-36354000D01*
X36629180Y-36354000D02*
X36676800Y-36449238D01*
X36676800Y-36449238D02*
X36772038Y-36496857D01*
X36772038Y-36496857D02*
X36819657Y-36496857D01*
X36819657Y-36496857D02*
X36914895Y-36449238D01*
X36914895Y-36449238D02*
X36962514Y-36354000D01*
X36962514Y-36354000D02*
X36962514Y-36211143D01*
X36962514Y-36211143D02*
X37010133Y-36115905D01*
X37010133Y-36115905D02*
X37105371Y-36068286D01*
X37105371Y-36068286D02*
X37152990Y-36068286D01*
X37152990Y-36068286D02*
X37248228Y-36115905D01*
X37248228Y-36115905D02*
X37295847Y-36211143D01*
X37295847Y-36211143D02*
X37295847Y-36354000D01*
X37295847Y-36354000D02*
X37248228Y-36449238D01*
X36629180Y-36925429D02*
X37629180Y-36925429D01*
X36629180Y-37354000D02*
X37152990Y-37354000D01*
X37152990Y-37354000D02*
X37248228Y-37306381D01*
X37248228Y-37306381D02*
X37295847Y-37211143D01*
X37295847Y-37211143D02*
X37295847Y-37068286D01*
X37295847Y-37068286D02*
X37248228Y-36973048D01*
X37248228Y-36973048D02*
X37200609Y-36925429D01*
X37295847Y-38258762D02*
X36629180Y-38258762D01*
X37295847Y-37830191D02*
X36772038Y-37830191D01*
X36772038Y-37830191D02*
X36676800Y-37877810D01*
X36676800Y-37877810D02*
X36629180Y-37973048D01*
X36629180Y-37973048D02*
X36629180Y-38115905D01*
X36629180Y-38115905D02*
X36676800Y-38211143D01*
X36676800Y-38211143D02*
X36724419Y-38258762D01*
X36629180Y-38734953D02*
X37295847Y-38734953D01*
X37105371Y-38734953D02*
X37200609Y-38782572D01*
X37200609Y-38782572D02*
X37248228Y-38830191D01*
X37248228Y-38830191D02*
X37295847Y-38925429D01*
X37295847Y-38925429D02*
X37295847Y-39020667D01*
X36629180Y-39354001D02*
X37295847Y-39354001D01*
X37629180Y-39354001D02*
X37581561Y-39306382D01*
X37581561Y-39306382D02*
X37533942Y-39354001D01*
X37533942Y-39354001D02*
X37581561Y-39401620D01*
X37581561Y-39401620D02*
X37629180Y-39354001D01*
X37629180Y-39354001D02*
X37533942Y-39354001D01*
X36629180Y-39830191D02*
X37629180Y-39830191D01*
X37010133Y-39925429D02*
X36629180Y-40211143D01*
X37295847Y-40211143D02*
X36914895Y-39830191D01*
X36629180Y-41163524D02*
X36629180Y-40592096D01*
X36629180Y-40877810D02*
X37629180Y-40877810D01*
X37629180Y-40877810D02*
X37486323Y-40782572D01*
X37486323Y-40782572D02*
X37391085Y-40687334D01*
X37391085Y-40687334D02*
X37343466Y-40592096D01*
X37629180Y-41496858D02*
X37629180Y-42163524D01*
X37629180Y-42163524D02*
X36629180Y-41734953D01*
X36629180Y-42592096D02*
X36629180Y-42782572D01*
X36629180Y-42782572D02*
X36676800Y-42877810D01*
X36676800Y-42877810D02*
X36724419Y-42925429D01*
X36724419Y-42925429D02*
X36867276Y-43020667D01*
X36867276Y-43020667D02*
X37057752Y-43068286D01*
X37057752Y-43068286D02*
X37438704Y-43068286D01*
X37438704Y-43068286D02*
X37533942Y-43020667D01*
X37533942Y-43020667D02*
X37581561Y-42973048D01*
X37581561Y-42973048D02*
X37629180Y-42877810D01*
X37629180Y-42877810D02*
X37629180Y-42687334D01*
X37629180Y-42687334D02*
X37581561Y-42592096D01*
X37581561Y-42592096D02*
X37533942Y-42544477D01*
X37533942Y-42544477D02*
X37438704Y-42496858D01*
X37438704Y-42496858D02*
X37200609Y-42496858D01*
X37200609Y-42496858D02*
X37105371Y-42544477D01*
X37105371Y-42544477D02*
X37057752Y-42592096D01*
X37057752Y-42592096D02*
X37010133Y-42687334D01*
X37010133Y-42687334D02*
X37010133Y-42877810D01*
X37010133Y-42877810D02*
X37057752Y-42973048D01*
X37057752Y-42973048D02*
X37105371Y-43020667D01*
X37105371Y-43020667D02*
X37200609Y-43068286D01*
D13*
%TO.C,D2*%
X7030000Y35970000D02*
X7030000Y30070000D01*
X3130000Y35970000D02*
X3130000Y30070000D01*
X3130000Y30070000D02*
X4205000Y30070000D01*
%TO.C,kibuzzard-653BCCF1*%
G36*
X65611516Y-18726394D02*
G01*
X65670095Y-18792831D01*
X65700099Y-18888557D01*
X65708671Y-19000000D01*
X65705993Y-19063044D01*
X65697956Y-19120729D01*
X65662237Y-19215741D01*
X65596515Y-19278606D01*
X65495788Y-19301466D01*
X65480071Y-19301466D01*
X65464355Y-19300037D01*
X65464355Y-18705677D01*
X65490073Y-18702106D01*
X65515790Y-18701391D01*
X65611516Y-18726394D01*
G37*
G36*
X66502491Y-19759143D02*
G01*
X66204835Y-19759143D01*
X65477214Y-19759143D01*
X65004298Y-19759143D01*
X64182766Y-19759143D01*
X63503723Y-19759143D01*
X63503604Y-19759143D01*
X62997509Y-19000000D01*
X63821293Y-19000000D01*
X63827722Y-19107335D01*
X63847010Y-19200739D01*
X63878085Y-19280035D01*
X63919876Y-19345043D01*
X63971847Y-19395764D01*
X64033462Y-19432197D01*
X64104007Y-19454164D01*
X64182766Y-19461486D01*
X64270099Y-19457914D01*
X64343501Y-19447199D01*
X64441370Y-19421481D01*
X64441370Y-18979997D01*
X64265634Y-18979997D01*
X64265634Y-19302895D01*
X64231344Y-19307181D01*
X64197054Y-19308610D01*
X64111686Y-19289858D01*
X64049893Y-19233601D01*
X64022111Y-19174307D01*
X64005443Y-19096441D01*
X63999886Y-19000000D01*
X64002922Y-18934456D01*
X64012031Y-18874984D01*
X64052036Y-18777829D01*
X64122759Y-18714250D01*
X64228486Y-18691390D01*
X64322784Y-18707106D01*
X64399936Y-18742825D01*
X64445656Y-18602807D01*
X64416367Y-18585662D01*
X64367075Y-18564231D01*
X64344443Y-18558516D01*
X64562814Y-18558516D01*
X64562814Y-19442912D01*
X64721405Y-19442912D01*
X64721405Y-18855696D01*
X64774507Y-18953724D01*
X64825228Y-19051594D01*
X64873567Y-19149304D01*
X64919525Y-19247015D01*
X64963102Y-19344884D01*
X65004298Y-19442912D01*
X65145744Y-19442912D01*
X65145744Y-19432911D01*
X65288619Y-19432911D01*
X65385060Y-19449342D01*
X65477214Y-19454342D01*
X65563475Y-19448092D01*
X65642235Y-19429339D01*
X65712065Y-19397014D01*
X65771536Y-19350044D01*
X65819935Y-19287715D01*
X65856547Y-19209312D01*
X65879586Y-19113764D01*
X65887265Y-19000000D01*
X65880300Y-18888736D01*
X65859405Y-18794974D01*
X65826007Y-18717465D01*
X65781538Y-18654957D01*
X65725995Y-18607272D01*
X65659380Y-18574232D01*
X65583477Y-18554944D01*
X65500074Y-18548515D01*
X65401490Y-18552801D01*
X65288619Y-18569946D01*
X65288619Y-19432911D01*
X65145744Y-19432911D01*
X65145744Y-18558516D01*
X64987153Y-18558516D01*
X64987153Y-19102870D01*
X64961971Y-19047149D01*
X64932146Y-18982855D01*
X64898570Y-18913203D01*
X64862137Y-18841409D01*
X64823739Y-18768364D01*
X64784270Y-18694962D01*
X64744265Y-18624060D01*
X64704260Y-18558516D01*
X64562814Y-18558516D01*
X64344443Y-18558516D01*
X64296352Y-18546372D01*
X64204198Y-18538514D01*
X64126688Y-18545836D01*
X64054179Y-18567803D01*
X63988814Y-18604415D01*
X63932735Y-18655671D01*
X63886658Y-18721215D01*
X63851296Y-18800689D01*
X63828794Y-18893737D01*
X63821293Y-19000000D01*
X62997509Y-19000000D01*
X63503604Y-18240857D01*
X63503723Y-18240857D01*
X66204835Y-18240857D01*
X66502491Y-18240857D01*
X66502491Y-19759143D01*
G37*
%TO.C,R2*%
X60181258Y9891500D02*
X59706742Y9891500D01*
X60181258Y10936500D02*
X59706742Y10936500D01*
%TO.C,J5*%
X63110000Y-12640000D02*
X61860000Y-12640000D01*
X62810000Y-12940000D02*
X58090000Y-12940000D01*
X61500000Y-12940000D02*
X61500000Y-13550000D01*
X60200000Y-12940000D02*
X60200000Y-13550000D01*
X58090000Y-12940000D02*
X58090000Y-23060000D01*
X62200000Y-13550000D02*
X58700000Y-13550000D01*
X58700000Y-13550000D02*
X58700000Y-22450000D01*
X63110000Y-13890000D02*
X63110000Y-12640000D01*
X63010000Y-14400000D02*
X62810000Y-14400000D01*
X63010000Y-14700000D02*
X63010000Y-14400000D01*
X62910000Y-14700000D02*
X62910000Y-14400000D01*
X62810000Y-14700000D02*
X63010000Y-14700000D01*
X62810000Y-15500000D02*
X62200000Y-15500000D01*
X62200000Y-15500000D02*
X62200000Y-13550000D01*
X59200000Y-15900000D02*
X59200000Y-16100000D01*
X58700000Y-15900000D02*
X59200000Y-15900000D01*
X58700000Y-16000000D02*
X59200000Y-16000000D01*
X59200000Y-16100000D02*
X58700000Y-16100000D01*
X59200000Y-17900000D02*
X59200000Y-18100000D01*
X58700000Y-17900000D02*
X59200000Y-17900000D01*
X58700000Y-18000000D02*
X59200000Y-18000000D01*
X59200000Y-18100000D02*
X58700000Y-18100000D01*
X59200000Y-19900000D02*
X59200000Y-20100000D01*
X58700000Y-19900000D02*
X59200000Y-19900000D01*
X58700000Y-20000000D02*
X59200000Y-20000000D01*
X59200000Y-20100000D02*
X58700000Y-20100000D01*
X62200000Y-20500000D02*
X62810000Y-20500000D01*
X62200000Y-22450000D02*
X62200000Y-20500000D01*
X58700000Y-22450000D02*
X62200000Y-22450000D01*
X62810000Y-23060000D02*
X62810000Y-12940000D01*
X61500000Y-23060000D02*
X61500000Y-22450000D01*
X60200000Y-23060000D02*
X60200000Y-22450000D01*
X58090000Y-23060000D02*
X62810000Y-23060000D01*
%TO.C,C1*%
X8380000Y-33160580D02*
X8380000Y-32879420D01*
X9400000Y-33160580D02*
X9400000Y-32879420D01*
%TO.C,R1*%
X59927258Y-9666500D02*
X59452742Y-9666500D01*
X59927258Y-8621500D02*
X59452742Y-8621500D01*
%TO.C,kibuzzard-653BCED5*%
G36*
X66502491Y-17759143D02*
G01*
X66204835Y-17759143D01*
X65868691Y-17759143D01*
X64920001Y-17759143D01*
X64114186Y-17759143D01*
X63503723Y-17759143D01*
X63503604Y-17759143D01*
X63260399Y-17394335D01*
X63839866Y-17394335D01*
X63938450Y-17437912D01*
X64015245Y-17455593D01*
X64114186Y-17461486D01*
X64214437Y-17453946D01*
X64296114Y-17431324D01*
X64359217Y-17393621D01*
X64419760Y-17311646D01*
X64439941Y-17201454D01*
X64433869Y-17134838D01*
X64415653Y-17080724D01*
X64353502Y-17000714D01*
X64352352Y-17000000D01*
X64535668Y-17000000D01*
X64541829Y-17104388D01*
X64560314Y-17196096D01*
X64591121Y-17275124D01*
X64634251Y-17341471D01*
X64709816Y-17408146D01*
X64805066Y-17448151D01*
X64920001Y-17461486D01*
X64998047Y-17456664D01*
X65066448Y-17442198D01*
X65167175Y-17400050D01*
X65122884Y-17261461D01*
X65050732Y-17292894D01*
X64937146Y-17308610D01*
X64835169Y-17288429D01*
X64766411Y-17227886D01*
X64737439Y-17166211D01*
X64720056Y-17088821D01*
X64714261Y-16995714D01*
X64719083Y-16915704D01*
X64733550Y-16849981D01*
X64783556Y-16756398D01*
X64853565Y-16706392D01*
X64934289Y-16691390D01*
X65040731Y-16706392D01*
X65120026Y-16742825D01*
X65165746Y-16602807D01*
X65136457Y-16585662D01*
X65088594Y-16564231D01*
X65067334Y-16558516D01*
X65312908Y-16558516D01*
X65312908Y-17442912D01*
X65868691Y-17442912D01*
X65868691Y-17297180D01*
X65490073Y-17297180D01*
X65490073Y-16558516D01*
X65312908Y-16558516D01*
X65067334Y-16558516D01*
X65022157Y-16546372D01*
X64937146Y-16538514D01*
X64853386Y-16546193D01*
X64776412Y-16569232D01*
X64707832Y-16607094D01*
X64649253Y-16659243D01*
X64601569Y-16725144D01*
X64565671Y-16804261D01*
X64543169Y-16896058D01*
X64535668Y-17000000D01*
X64352352Y-17000000D01*
X64270635Y-16949279D01*
X64184195Y-16914275D01*
X64129188Y-16892844D01*
X64079182Y-16866412D01*
X64042749Y-16832122D01*
X64028461Y-16787116D01*
X64044019Y-16730760D01*
X64090691Y-16696946D01*
X64168479Y-16685675D01*
X64269206Y-16699962D01*
X64348501Y-16734252D01*
X64399936Y-16598521D01*
X64297781Y-16557087D01*
X64231880Y-16543157D01*
X64155620Y-16538514D01*
X64068070Y-16546292D01*
X63994013Y-16569629D01*
X63933450Y-16608522D01*
X63872906Y-16692104D01*
X63852725Y-16802832D01*
X63875585Y-16907846D01*
X63933450Y-16978569D01*
X64011316Y-17025717D01*
X64094184Y-17058579D01*
X64154191Y-17083582D01*
X64208484Y-17113586D01*
X64248489Y-17151447D01*
X64264205Y-17200025D01*
X64257776Y-17242173D01*
X64234201Y-17279321D01*
X64187767Y-17305038D01*
X64114186Y-17314325D01*
X64042928Y-17309324D01*
X63983456Y-17294322D01*
X63891301Y-17251460D01*
X63839866Y-17394335D01*
X63260399Y-17394335D01*
X62997509Y-17000000D01*
X63503604Y-16240857D01*
X63503723Y-16240857D01*
X66204835Y-16240857D01*
X66502491Y-16240857D01*
X66502491Y-17759143D01*
G37*
%TO.C,kibuzzard-653BCCF1*%
G36*
X65377516Y22117606D02*
G01*
X65436095Y22051169D01*
X65466099Y21955443D01*
X65474671Y21844000D01*
X65471993Y21780956D01*
X65463956Y21723271D01*
X65428237Y21628259D01*
X65362515Y21565394D01*
X65261788Y21542534D01*
X65246071Y21542534D01*
X65230355Y21543963D01*
X65230355Y22138323D01*
X65256073Y22141894D01*
X65281790Y22142609D01*
X65377516Y22117606D01*
G37*
G36*
X66268491Y21084857D02*
G01*
X65970835Y21084857D01*
X65243214Y21084857D01*
X64770298Y21084857D01*
X63948766Y21084857D01*
X63269723Y21084857D01*
X63269604Y21084857D01*
X62763509Y21844000D01*
X63587293Y21844000D01*
X63593722Y21736665D01*
X63613010Y21643261D01*
X63644085Y21563965D01*
X63685876Y21498957D01*
X63737847Y21448236D01*
X63799462Y21411803D01*
X63870007Y21389836D01*
X63948766Y21382514D01*
X64036099Y21386086D01*
X64109501Y21396801D01*
X64207370Y21422519D01*
X64207370Y21864003D01*
X64031634Y21864003D01*
X64031634Y21541105D01*
X63997344Y21536819D01*
X63963054Y21535390D01*
X63877686Y21554142D01*
X63815893Y21610399D01*
X63788111Y21669693D01*
X63771443Y21747559D01*
X63765886Y21844000D01*
X63768922Y21909544D01*
X63778031Y21969016D01*
X63818036Y22066171D01*
X63888759Y22129750D01*
X63994486Y22152610D01*
X64088784Y22136894D01*
X64165936Y22101175D01*
X64211656Y22241193D01*
X64182367Y22258338D01*
X64133075Y22279769D01*
X64110443Y22285484D01*
X64328814Y22285484D01*
X64328814Y21401088D01*
X64487405Y21401088D01*
X64487405Y21988304D01*
X64540507Y21890276D01*
X64591228Y21792406D01*
X64639567Y21694696D01*
X64685525Y21596985D01*
X64729102Y21499116D01*
X64770298Y21401088D01*
X64911744Y21401088D01*
X64911744Y21411089D01*
X65054619Y21411089D01*
X65151060Y21394658D01*
X65243214Y21389658D01*
X65329475Y21395908D01*
X65408235Y21414661D01*
X65478065Y21446986D01*
X65537536Y21493956D01*
X65585935Y21556285D01*
X65622547Y21634688D01*
X65645586Y21730236D01*
X65653265Y21844000D01*
X65646300Y21955264D01*
X65625405Y22049026D01*
X65592007Y22126535D01*
X65547538Y22189043D01*
X65491995Y22236728D01*
X65425380Y22269768D01*
X65349477Y22289056D01*
X65266074Y22295485D01*
X65167490Y22291199D01*
X65054619Y22274054D01*
X65054619Y21411089D01*
X64911744Y21411089D01*
X64911744Y22285484D01*
X64753153Y22285484D01*
X64753153Y21741130D01*
X64727971Y21796851D01*
X64698146Y21861145D01*
X64664570Y21930797D01*
X64628137Y22002591D01*
X64589739Y22075636D01*
X64550270Y22149038D01*
X64510265Y22219940D01*
X64470260Y22285484D01*
X64328814Y22285484D01*
X64110443Y22285484D01*
X64062352Y22297628D01*
X63970198Y22305486D01*
X63892688Y22298164D01*
X63820179Y22276197D01*
X63754814Y22239585D01*
X63698735Y22188329D01*
X63652658Y22122785D01*
X63617296Y22043311D01*
X63594794Y21950263D01*
X63587293Y21844000D01*
X62763509Y21844000D01*
X63269604Y22603143D01*
X63269723Y22603143D01*
X65970835Y22603143D01*
X66268491Y22603143D01*
X66268491Y21084857D01*
G37*
%TO.C,J10*%
X57339000Y23164000D02*
X58669000Y23164000D01*
X57339000Y21834000D02*
X57339000Y23164000D01*
X57339000Y20564000D02*
X57339000Y12884000D01*
X57339000Y20564000D02*
X59939000Y20564000D01*
X57339000Y12884000D02*
X62539000Y12884000D01*
X59939000Y23164000D02*
X62539000Y23164000D01*
X59939000Y20564000D02*
X59939000Y23164000D01*
X62539000Y23164000D02*
X62539000Y12884000D01*
%TO.C,kibuzzard-653BCF4B*%
G36*
X91268252Y1538605D02*
G01*
X91326831Y1472168D01*
X91356835Y1376442D01*
X91365407Y1264999D01*
X91362728Y1201956D01*
X91354692Y1144270D01*
X91318973Y1049258D01*
X91253250Y986393D01*
X91152524Y963533D01*
X91136807Y963533D01*
X91121091Y964962D01*
X91121091Y1559322D01*
X91146809Y1562894D01*
X91172526Y1563608D01*
X91268252Y1538605D01*
G37*
G36*
X91996200Y1560751D02*
G01*
X92036205Y1512173D01*
X92057637Y1445736D01*
X92064066Y1373584D01*
X92063352Y1341437D01*
X92061209Y1313577D01*
X92012631Y1297861D01*
X91955481Y1292146D01*
X91891902Y1301075D01*
X91849754Y1327864D01*
X91818321Y1430734D01*
X91824750Y1487884D01*
X91844753Y1535033D01*
X91880472Y1567180D01*
X91934050Y1579324D01*
X91996200Y1560751D01*
G37*
G36*
X93445776Y1270000D02*
G01*
X92941110Y513001D01*
X92940991Y513001D01*
X91706879Y513001D01*
X91133950Y513001D01*
X90239880Y513001D01*
X89942224Y513001D01*
X89942224Y832088D01*
X90945355Y832088D01*
X91041795Y815657D01*
X91133950Y810657D01*
X91220211Y816908D01*
X91298970Y835660D01*
X91368801Y867985D01*
X91428272Y914956D01*
X91476671Y977285D01*
X91513283Y1055687D01*
X91536322Y1151235D01*
X91544001Y1264999D01*
X91537036Y1376263D01*
X91525533Y1427877D01*
X91646871Y1427877D01*
X91662587Y1318577D01*
X91712594Y1229281D01*
X91801176Y1168559D01*
X91861184Y1151950D01*
X91932621Y1146413D01*
X92032634Y1170702D01*
X91982270Y1081584D01*
X91905475Y1019969D01*
X91809391Y983714D01*
X91701164Y970677D01*
X91706879Y819229D01*
X91821357Y827980D01*
X91924763Y854234D01*
X92015489Y897275D01*
X92091927Y956389D01*
X92153184Y1031577D01*
X92198369Y1122839D01*
X92226229Y1229459D01*
X92235516Y1350724D01*
X92226785Y1461056D01*
X92200591Y1553924D01*
X92156935Y1629331D01*
X92096769Y1684893D01*
X92021045Y1718231D01*
X91929764Y1729343D01*
X91862970Y1722378D01*
X91805462Y1701483D01*
X91717594Y1630045D01*
X91664730Y1532890D01*
X91646871Y1427877D01*
X91525533Y1427877D01*
X91516140Y1470025D01*
X91482743Y1547535D01*
X91438274Y1610042D01*
X91382731Y1657727D01*
X91316115Y1690767D01*
X91240213Y1710055D01*
X91156810Y1716484D01*
X91058226Y1712198D01*
X90945355Y1695053D01*
X90945355Y832088D01*
X89942224Y832088D01*
X89942224Y2026999D01*
X90239880Y2026999D01*
X92940991Y2026999D01*
X92941110Y2026999D01*
X93445776Y1270000D01*
G37*
%TO.C,J9*%
X63110007Y5960001D02*
X63110007Y7110001D01*
X63110007Y7110001D02*
X62060007Y7110001D01*
X62060007Y7110001D02*
X62060007Y8100001D01*
X61940007Y3990001D02*
X58060007Y3990001D01*
X56890007Y5960001D02*
X56890007Y7110001D01*
X56890007Y7110001D02*
X57940007Y7110001D01*
%TO.C,kibuzzard-653BCD42*%
G36*
X64304525Y16939736D02*
G01*
X64327385Y16851154D01*
X64346673Y16763286D01*
X64363818Y16671846D01*
X64190940Y16671846D01*
X64208799Y16763286D01*
X64228801Y16851154D01*
X64251661Y16939736D01*
X64278093Y17034748D01*
X64304525Y16939736D01*
G37*
G36*
X66262061Y16024146D02*
G01*
X65964405Y16024146D01*
X65292506Y16024146D01*
X64435256Y16024146D01*
X63263294Y16024146D01*
X63263175Y16024146D01*
X63064738Y16321802D01*
X63935193Y16321802D01*
X64118073Y16321802D01*
X64158078Y16526113D01*
X64393822Y16526113D01*
X64435256Y16321802D01*
X64623851Y16321802D01*
X64600276Y16422072D01*
X64576416Y16519427D01*
X64552270Y16613867D01*
X64527839Y16705393D01*
X64503121Y16794004D01*
X64472001Y16901473D01*
X64440792Y17005995D01*
X64435895Y17021889D01*
X64705290Y17021889D01*
X64762440Y16876157D01*
X64849593Y16911161D01*
X64941033Y16961882D01*
X64941033Y16467534D01*
X64755296Y16467534D01*
X64755296Y16321802D01*
X65292506Y16321802D01*
X65292506Y16467534D01*
X65116770Y16467534D01*
X65116770Y17206198D01*
X64996755Y17206198D01*
X64935318Y17150477D01*
X64859595Y17099042D01*
X64779585Y17054751D01*
X64705290Y17021889D01*
X64435895Y17021889D01*
X64409494Y17107570D01*
X64378106Y17206198D01*
X64186653Y17206198D01*
X64156382Y17108373D01*
X64125574Y17007780D01*
X64094231Y16904419D01*
X64062352Y16798290D01*
X64036692Y16710422D01*
X64011146Y16618839D01*
X63985714Y16523541D01*
X63960396Y16424529D01*
X63935193Y16321802D01*
X63064738Y16321802D01*
X62769939Y16764000D01*
X63263175Y17503854D01*
X63263294Y17503854D01*
X65964405Y17503854D01*
X66262061Y17503854D01*
X66262061Y16024146D01*
G37*
%TO.C,kibuzzard-653BCD2B*%
G36*
X66308823Y18544857D02*
G01*
X66011167Y18544857D01*
X65579685Y18544857D01*
X64903886Y18544857D01*
X64243803Y18544857D01*
X63475136Y18544857D01*
X63229391Y18544857D01*
X63229272Y18544857D01*
X62998449Y18891091D01*
X63229391Y18891091D01*
X63273682Y18875375D01*
X63335833Y18859659D01*
X63405841Y18847514D01*
X63475136Y18842514D01*
X63557646Y18847693D01*
X63628012Y18863231D01*
X63686591Y18888234D01*
X63733740Y18921809D01*
X63769619Y18973959D01*
X64115216Y18973959D01*
X64125931Y18918952D01*
X64154506Y18878947D01*
X64195226Y18853944D01*
X64243803Y18845371D01*
X64332386Y18878233D01*
X64337568Y18891091D01*
X64658141Y18891091D01*
X64702432Y18875375D01*
X64764583Y18859659D01*
X64834591Y18847514D01*
X64903886Y18842514D01*
X64986396Y18847693D01*
X65056762Y18863231D01*
X65115341Y18888234D01*
X65162490Y18921809D01*
X65223926Y19011106D01*
X65243928Y19123978D01*
X65234463Y19195772D01*
X65206066Y19256851D01*
X65160525Y19305786D01*
X65099625Y19341148D01*
X65179635Y19415443D01*
X65209638Y19516884D01*
X65192493Y19615468D01*
X65139630Y19694763D01*
X65051390Y19745484D01*
X65332511Y19745484D01*
X65348941Y19665474D01*
X65372516Y19565461D01*
X65391407Y19490611D01*
X65411886Y19412744D01*
X65433952Y19331861D01*
X65457288Y19249390D01*
X65481577Y19166761D01*
X65506818Y19083973D01*
X65544323Y18966101D01*
X65579685Y18861088D01*
X65761136Y18861088D01*
X65788441Y18937208D01*
X65815111Y19015075D01*
X65841146Y19094688D01*
X65866149Y19174698D01*
X65889723Y19253756D01*
X65911869Y19331861D01*
X65942230Y19445625D01*
X65969019Y19554031D01*
X65992057Y19654758D01*
X66011167Y19745484D01*
X65826858Y19745484D01*
X65814000Y19671189D01*
X65798283Y19585464D01*
X65780424Y19492774D01*
X65761136Y19397583D01*
X65740419Y19301857D01*
X65718273Y19207559D01*
X65695413Y19119155D01*
X65672553Y19041110D01*
X65649515Y19120227D01*
X65626119Y19208988D01*
X65603259Y19303286D01*
X65581828Y19399012D01*
X65562004Y19494024D01*
X65543966Y19586178D01*
X65528964Y19671367D01*
X65518248Y19745484D01*
X65332511Y19745484D01*
X65051390Y19745484D01*
X65048904Y19746913D01*
X64989075Y19760843D01*
X64919602Y19765486D01*
X64843700Y19758878D01*
X64776013Y19739054D01*
X64673857Y19686905D01*
X64736722Y19558318D01*
X64821733Y19599037D01*
X64921031Y19615468D01*
X65001755Y19587607D01*
X65031045Y19511169D01*
X65017471Y19456876D01*
X64982467Y19422586D01*
X64933890Y19404013D01*
X64879597Y19398298D01*
X64813875Y19398298D01*
X64813875Y19252565D01*
X64868167Y19252565D01*
X64946391Y19245600D01*
X65009613Y19224704D01*
X65051404Y19186307D01*
X65065335Y19126835D01*
X65028901Y19031109D01*
X64979074Y19002177D01*
X64902457Y18992533D01*
X64834770Y18996462D01*
X64777441Y19008249D01*
X64692431Y19038253D01*
X64658141Y18891091D01*
X64337568Y18891091D01*
X64370962Y18973959D01*
X64332386Y19066828D01*
X64243803Y19099689D01*
X64195226Y19091116D01*
X64154506Y19066828D01*
X64125931Y19027537D01*
X64115216Y18973959D01*
X63769619Y18973959D01*
X63795176Y19011106D01*
X63815178Y19123978D01*
X63805713Y19195772D01*
X63777316Y19256851D01*
X63731775Y19305786D01*
X63670875Y19341148D01*
X63750885Y19415443D01*
X63780888Y19516884D01*
X63763743Y19615468D01*
X63710880Y19694763D01*
X63620154Y19746913D01*
X63560325Y19760843D01*
X63490852Y19765486D01*
X63414950Y19758878D01*
X63347263Y19739054D01*
X63245107Y19686905D01*
X63307972Y19558318D01*
X63392983Y19599037D01*
X63492281Y19615468D01*
X63573005Y19587607D01*
X63602295Y19511169D01*
X63588721Y19456876D01*
X63553717Y19422586D01*
X63505140Y19404013D01*
X63450847Y19398298D01*
X63385125Y19398298D01*
X63385125Y19252565D01*
X63439417Y19252565D01*
X63517641Y19245600D01*
X63580863Y19224704D01*
X63622654Y19186307D01*
X63636585Y19126835D01*
X63600151Y19031109D01*
X63550324Y19002177D01*
X63473707Y18992533D01*
X63406020Y18996462D01*
X63348691Y19008249D01*
X63263681Y19038253D01*
X63229391Y18891091D01*
X62998449Y18891091D01*
X62723177Y19304000D01*
X63229272Y20063143D01*
X63229391Y20063143D01*
X66011167Y20063143D01*
X66308823Y20063143D01*
X66308823Y18544857D01*
G37*
%TO.C,kibuzzard-653BCEE0*%
G36*
X66502491Y-21759143D02*
G01*
X66204835Y-21759143D01*
X65647235Y-21759143D01*
X64932860Y-21759143D01*
X64061323Y-21759143D01*
X63503723Y-21759143D01*
X63503604Y-21759143D01*
X62997509Y-21000000D01*
X63291831Y-20558516D01*
X63814149Y-20558516D01*
X63830580Y-20638526D01*
X63854154Y-20738539D01*
X63873045Y-20813389D01*
X63893524Y-20891256D01*
X63915590Y-20972139D01*
X63938926Y-21054610D01*
X63963215Y-21137239D01*
X63988456Y-21220027D01*
X64025961Y-21337899D01*
X64061323Y-21442912D01*
X64242774Y-21442912D01*
X64270079Y-21366792D01*
X64296749Y-21288925D01*
X64322784Y-21209312D01*
X64347787Y-21129302D01*
X64371361Y-21050244D01*
X64385607Y-21000000D01*
X64548526Y-21000000D01*
X64554688Y-21104388D01*
X64573172Y-21196096D01*
X64603980Y-21275124D01*
X64647110Y-21341471D01*
X64722675Y-21408146D01*
X64817925Y-21448151D01*
X64932860Y-21461486D01*
X65010906Y-21456664D01*
X65079307Y-21442198D01*
X65180034Y-21400050D01*
X65135743Y-21261461D01*
X65063591Y-21292894D01*
X64950005Y-21308610D01*
X64848028Y-21288429D01*
X64779270Y-21227886D01*
X64750298Y-21166211D01*
X64732915Y-21088821D01*
X64727387Y-21000000D01*
X65262901Y-21000000D01*
X65269063Y-21104388D01*
X65287547Y-21196096D01*
X65318355Y-21275124D01*
X65361485Y-21341471D01*
X65437050Y-21408146D01*
X65532300Y-21448151D01*
X65647235Y-21461486D01*
X65725281Y-21456664D01*
X65793682Y-21442198D01*
X65894409Y-21400050D01*
X65850118Y-21261461D01*
X65777966Y-21292894D01*
X65664380Y-21308610D01*
X65562403Y-21288429D01*
X65493645Y-21227886D01*
X65464673Y-21166211D01*
X65447290Y-21088821D01*
X65441495Y-20995714D01*
X65446317Y-20915704D01*
X65460783Y-20849981D01*
X65510790Y-20756398D01*
X65580798Y-20706392D01*
X65661523Y-20691390D01*
X65767965Y-20706392D01*
X65847260Y-20742825D01*
X65892980Y-20602807D01*
X65863691Y-20585662D01*
X65815828Y-20564231D01*
X65749391Y-20546372D01*
X65664380Y-20538514D01*
X65580620Y-20546193D01*
X65503646Y-20569232D01*
X65435066Y-20607094D01*
X65376487Y-20659243D01*
X65328803Y-20725144D01*
X65292905Y-20804261D01*
X65270402Y-20896058D01*
X65262901Y-21000000D01*
X64727387Y-21000000D01*
X64727120Y-20995714D01*
X64731942Y-20915704D01*
X64746408Y-20849981D01*
X64796415Y-20756398D01*
X64866423Y-20706392D01*
X64947148Y-20691390D01*
X65053590Y-20706392D01*
X65132885Y-20742825D01*
X65178605Y-20602807D01*
X65149316Y-20585662D01*
X65101453Y-20564231D01*
X65035016Y-20546372D01*
X64950005Y-20538514D01*
X64866245Y-20546193D01*
X64789271Y-20569232D01*
X64720691Y-20607094D01*
X64662112Y-20659243D01*
X64614428Y-20725144D01*
X64578530Y-20804261D01*
X64556027Y-20896058D01*
X64548526Y-21000000D01*
X64385607Y-21000000D01*
X64393507Y-20972139D01*
X64423868Y-20858375D01*
X64450657Y-20749969D01*
X64473696Y-20649242D01*
X64492805Y-20558516D01*
X64308496Y-20558516D01*
X64295638Y-20632811D01*
X64279921Y-20718536D01*
X64262062Y-20811226D01*
X64242774Y-20906417D01*
X64222057Y-21002143D01*
X64199911Y-21096441D01*
X64177051Y-21184845D01*
X64154191Y-21262890D01*
X64131153Y-21183773D01*
X64107757Y-21095012D01*
X64084897Y-21000714D01*
X64063466Y-20904988D01*
X64043642Y-20809976D01*
X64025604Y-20717822D01*
X64010602Y-20632633D01*
X63999886Y-20558516D01*
X63814149Y-20558516D01*
X63291831Y-20558516D01*
X63503604Y-20240857D01*
X63503723Y-20240857D01*
X66204835Y-20240857D01*
X66502491Y-20240857D01*
X66502491Y-21759143D01*
G37*
%TO.C,kibuzzard-653BCDC1*%
G36*
X92346959Y4083606D02*
G01*
X92405537Y4017169D01*
X92435541Y3921443D01*
X92444114Y3810000D01*
X92441435Y3746956D01*
X92433398Y3689271D01*
X92397679Y3594259D01*
X92331957Y3531394D01*
X92231230Y3508534D01*
X92215514Y3508534D01*
X92199797Y3509963D01*
X92199797Y4104323D01*
X92225515Y4107894D01*
X92251232Y4108609D01*
X92346959Y4083606D01*
G37*
G36*
X93446491Y3810000D02*
G01*
X92940396Y3050857D01*
X92940277Y3050857D01*
X92212656Y3050857D01*
X91739740Y3050857D01*
X90918209Y3050857D01*
X90239165Y3050857D01*
X89941509Y3050857D01*
X89941509Y3810000D01*
X90556735Y3810000D01*
X90563164Y3702665D01*
X90582452Y3609261D01*
X90613528Y3529965D01*
X90655319Y3464957D01*
X90707289Y3414236D01*
X90768904Y3377803D01*
X90839449Y3355836D01*
X90918209Y3348514D01*
X91005541Y3352086D01*
X91078943Y3362801D01*
X91176812Y3388519D01*
X91176812Y3830003D01*
X91001076Y3830003D01*
X91001076Y3507105D01*
X90966786Y3502819D01*
X90932496Y3501390D01*
X90847128Y3520142D01*
X90785335Y3576399D01*
X90757554Y3635693D01*
X90740885Y3713559D01*
X90735329Y3810000D01*
X90738365Y3875544D01*
X90747473Y3935016D01*
X90787478Y4032171D01*
X90858201Y4095750D01*
X90963929Y4118610D01*
X91058226Y4102894D01*
X91135379Y4067175D01*
X91181099Y4207193D01*
X91151809Y4224338D01*
X91102517Y4245769D01*
X91079885Y4251484D01*
X91298256Y4251484D01*
X91298256Y3367088D01*
X91456847Y3367088D01*
X91456847Y3954304D01*
X91509949Y3856276D01*
X91560670Y3758406D01*
X91609009Y3660696D01*
X91654967Y3562985D01*
X91698544Y3465116D01*
X91739740Y3367088D01*
X91881186Y3367088D01*
X91881186Y3377089D01*
X92024061Y3377089D01*
X92120502Y3360658D01*
X92212656Y3355658D01*
X92298917Y3361908D01*
X92377677Y3380661D01*
X92447507Y3412986D01*
X92506979Y3459956D01*
X92555378Y3522285D01*
X92591989Y3600688D01*
X92615028Y3696236D01*
X92622707Y3810000D01*
X92615742Y3921264D01*
X92594847Y4015026D01*
X92561450Y4092535D01*
X92516980Y4155043D01*
X92461437Y4202728D01*
X92394822Y4235768D01*
X92318919Y4255056D01*
X92235516Y4261485D01*
X92136932Y4257199D01*
X92024061Y4240054D01*
X92024061Y3377089D01*
X91881186Y3377089D01*
X91881186Y4251484D01*
X91722595Y4251484D01*
X91722595Y3707130D01*
X91697413Y3762851D01*
X91667588Y3827145D01*
X91634012Y3896797D01*
X91597579Y3968591D01*
X91559182Y4041636D01*
X91519712Y4115038D01*
X91479707Y4185940D01*
X91439702Y4251484D01*
X91298256Y4251484D01*
X91079885Y4251484D01*
X91031794Y4263628D01*
X90939640Y4271486D01*
X90862130Y4264164D01*
X90789621Y4242197D01*
X90724256Y4205585D01*
X90668177Y4154329D01*
X90622100Y4088785D01*
X90586739Y4009311D01*
X90564236Y3916263D01*
X90556735Y3810000D01*
X89941509Y3810000D01*
X89941509Y4569143D01*
X90239165Y4569143D01*
X92940277Y4569143D01*
X92940396Y4569143D01*
X93446491Y3810000D01*
G37*
%TO.C,kibuzzard-653BCDDF*%
G36*
X57118061Y16764000D02*
G01*
X56624825Y16024146D01*
X56624706Y16024146D01*
X55772784Y16024146D01*
X54995544Y16024146D01*
X53923595Y16024146D01*
X53625939Y16024146D01*
X53625939Y17206198D01*
X54585493Y17206198D01*
X54585493Y17060466D01*
X54818379Y17060466D01*
X54818379Y16321802D01*
X54995544Y16321802D01*
X55279865Y16321802D01*
X55469889Y16321802D01*
X55502750Y16399133D01*
X55541327Y16485394D01*
X55582760Y16574512D01*
X55624194Y16660416D01*
X55666164Y16571833D01*
X55706347Y16483251D01*
X55742602Y16398597D01*
X55772784Y16321802D01*
X55962808Y16321802D01*
X55924232Y16415385D01*
X55897978Y16472535D01*
X55867796Y16533971D01*
X55834399Y16598444D01*
X55798502Y16664702D01*
X55760997Y16730424D01*
X55722778Y16793289D01*
X55948520Y17206198D01*
X55771355Y17206198D01*
X55624194Y16923306D01*
X55484177Y17206198D01*
X55294153Y17206198D01*
X55525610Y16789003D01*
X55490606Y16726317D01*
X55454173Y16661130D01*
X55417918Y16595586D01*
X55383450Y16531828D01*
X55351303Y16471106D01*
X55322014Y16414671D01*
X55279865Y16321802D01*
X54995544Y16321802D01*
X54995544Y17060466D01*
X55228430Y17060466D01*
X55228430Y17206198D01*
X54585493Y17206198D01*
X53625939Y17206198D01*
X53625939Y17503854D01*
X53923595Y17503854D01*
X56624706Y17503854D01*
X56624825Y17503854D01*
X57118061Y16764000D01*
G37*
%TO.C,J8*%
X63110007Y-5040000D02*
X63110007Y-3890000D01*
X63110007Y-3890000D02*
X62060007Y-3890000D01*
X62060007Y-3890000D02*
X62060007Y-2900000D01*
X61940007Y-7010000D02*
X58060007Y-7010000D01*
X56890007Y-5040000D02*
X56890007Y-3890000D01*
X56890007Y-3890000D02*
X57940007Y-3890000D01*
%TO.C,kibuzzard-653BCB65*%
G36*
X65360677Y-3037281D02*
G01*
X65442557Y-3049427D01*
X65522853Y-3069540D01*
X65600790Y-3097427D01*
X65675619Y-3132818D01*
X65746619Y-3175374D01*
X65813105Y-3224684D01*
X65874439Y-3280273D01*
X65930028Y-3341606D01*
X65979338Y-3408093D01*
X66021893Y-3479092D01*
X66057285Y-3553921D01*
X66085171Y-3631859D01*
X66105284Y-3712154D01*
X66117430Y-3794035D01*
X66121492Y-3876711D01*
X66121492Y-3876844D01*
X66121492Y-6123156D01*
X66121492Y-6123289D01*
X66117430Y-6205965D01*
X66105284Y-6287846D01*
X66085171Y-6368141D01*
X66057285Y-6446079D01*
X66021893Y-6520908D01*
X65979338Y-6591907D01*
X65930028Y-6658394D01*
X65874439Y-6719727D01*
X65813105Y-6775316D01*
X65746619Y-6824626D01*
X65675619Y-6867182D01*
X65600790Y-6902573D01*
X65522853Y-6930460D01*
X65442557Y-6950573D01*
X65360677Y-6962719D01*
X65278000Y-6966780D01*
X65195323Y-6962719D01*
X65113443Y-6950573D01*
X65033147Y-6930460D01*
X64955210Y-6902573D01*
X64880381Y-6867182D01*
X64809381Y-6824626D01*
X64742895Y-6775316D01*
X64681561Y-6719727D01*
X64625972Y-6658394D01*
X64576662Y-6591907D01*
X64534107Y-6520908D01*
X64498715Y-6446079D01*
X64470829Y-6368141D01*
X64450716Y-6287846D01*
X64438570Y-6205965D01*
X64434508Y-6123289D01*
X64434508Y-6123156D01*
X64434508Y-5848519D01*
X64765238Y-5848519D01*
X64770595Y-5935236D01*
X64786669Y-6011237D01*
X64833500Y-6123156D01*
X64987488Y-6073944D01*
X64952563Y-5993775D01*
X64935100Y-5867569D01*
X64957523Y-5754261D01*
X65024794Y-5677862D01*
X65093321Y-5645672D01*
X65179310Y-5626357D01*
X65282763Y-5619919D01*
X65371663Y-5625277D01*
X65444688Y-5641350D01*
X65548669Y-5696912D01*
X65604231Y-5774700D01*
X65620900Y-5864394D01*
X65604231Y-5982662D01*
X65563750Y-6070769D01*
X65719325Y-6121569D01*
X65738375Y-6089025D01*
X65762188Y-6035844D01*
X65782031Y-5962025D01*
X65790763Y-5867569D01*
X65782230Y-5774502D01*
X65756631Y-5688975D01*
X65714563Y-5612775D01*
X65656619Y-5547687D01*
X65583395Y-5494705D01*
X65495488Y-5454819D01*
X65393491Y-5429816D01*
X65278000Y-5421481D01*
X65162013Y-5428327D01*
X65060116Y-5448866D01*
X64972307Y-5483096D01*
X64898588Y-5531019D01*
X64824504Y-5614980D01*
X64780054Y-5720813D01*
X64765238Y-5848519D01*
X64434508Y-5848519D01*
X64434508Y-5318294D01*
X64785875Y-5318294D01*
X64947800Y-5318294D01*
X64947800Y-4896019D01*
X65000188Y-4912687D01*
X65056544Y-4953169D01*
X65110519Y-5003969D01*
X65155763Y-5051594D01*
X65235138Y-5132556D01*
X65320863Y-5203994D01*
X65412144Y-5254794D01*
X65509775Y-5273844D01*
X65632806Y-5248444D01*
X65720913Y-5180181D01*
X65773300Y-5081756D01*
X65790763Y-4965869D01*
X65782825Y-4883120D01*
X65759013Y-4799975D01*
X65718531Y-4721592D01*
X65660588Y-4653131D01*
X65524063Y-4749969D01*
X65598675Y-4849981D01*
X65620900Y-4946819D01*
X65588356Y-5038894D01*
X65495488Y-5075406D01*
X65411350Y-5046037D01*
X65325625Y-4971425D01*
X65280183Y-4924594D01*
X65232756Y-4874587D01*
X65182353Y-4824581D01*
X65127981Y-4777750D01*
X65069045Y-4736475D01*
X65004950Y-4703137D01*
X64935100Y-4681111D01*
X64858900Y-4673769D01*
X64825563Y-4672975D01*
X64785875Y-4676944D01*
X64785875Y-5318294D01*
X64434508Y-5318294D01*
X64434508Y-3876844D01*
X64785875Y-3876844D01*
X64785875Y-4500731D01*
X64947800Y-4500731D01*
X64947800Y-4288006D01*
X65606613Y-4288006D01*
X65606613Y-4500731D01*
X65768538Y-4500731D01*
X65768538Y-3876844D01*
X65606613Y-3876844D01*
X65606613Y-4091156D01*
X64947800Y-4091156D01*
X64947800Y-3876844D01*
X64785875Y-3876844D01*
X64434508Y-3876844D01*
X64434508Y-3876711D01*
X64438570Y-3794035D01*
X64450716Y-3712154D01*
X64470829Y-3631859D01*
X64498715Y-3553921D01*
X64534107Y-3479092D01*
X64576662Y-3408093D01*
X64625972Y-3341606D01*
X64681561Y-3280273D01*
X64742895Y-3224684D01*
X64809381Y-3175374D01*
X64880381Y-3132818D01*
X64955210Y-3097427D01*
X65033147Y-3069540D01*
X65113443Y-3049427D01*
X65195323Y-3037281D01*
X65278000Y-3033220D01*
X65360677Y-3037281D01*
G37*
%TO.C,D1*%
X7030000Y-30070000D02*
X7030000Y-35970000D01*
X3130000Y-30070000D02*
X3130000Y-35970000D01*
X3130000Y-35970000D02*
X4205000Y-35970000D01*
%TO.C,kibuzzard-653BCF3B*%
G36*
X93486823Y-3810000D02*
G01*
X92980728Y-4569143D01*
X92980609Y-4569143D01*
X92549127Y-4569143D01*
X91873328Y-4569143D01*
X91213245Y-4569143D01*
X90444578Y-4569143D01*
X90198833Y-4569143D01*
X89901177Y-4569143D01*
X89901177Y-4222909D01*
X90198833Y-4222909D01*
X90243124Y-4238625D01*
X90305275Y-4254341D01*
X90375284Y-4266486D01*
X90444578Y-4271486D01*
X90527088Y-4266307D01*
X90597454Y-4250769D01*
X90656033Y-4225766D01*
X90703182Y-4192191D01*
X90739061Y-4140041D01*
X91084658Y-4140041D01*
X91095374Y-4195048D01*
X91123949Y-4235053D01*
X91164668Y-4260056D01*
X91213245Y-4268629D01*
X91301828Y-4235767D01*
X91307010Y-4222909D01*
X91627583Y-4222909D01*
X91671874Y-4238625D01*
X91734025Y-4254341D01*
X91804034Y-4266486D01*
X91873328Y-4271486D01*
X91955838Y-4266307D01*
X92026204Y-4250769D01*
X92084783Y-4225766D01*
X92131932Y-4192191D01*
X92193368Y-4102894D01*
X92213370Y-3990022D01*
X92203905Y-3918228D01*
X92175509Y-3857149D01*
X92129967Y-3808214D01*
X92069067Y-3772852D01*
X92149077Y-3698557D01*
X92179080Y-3597116D01*
X92161935Y-3498532D01*
X92109072Y-3419237D01*
X92020832Y-3368516D01*
X92301953Y-3368516D01*
X92318384Y-3448526D01*
X92341958Y-3548539D01*
X92360849Y-3623389D01*
X92381328Y-3701256D01*
X92403394Y-3782139D01*
X92426730Y-3864610D01*
X92451019Y-3947239D01*
X92476260Y-4030027D01*
X92513765Y-4147899D01*
X92549127Y-4252912D01*
X92730578Y-4252912D01*
X92757883Y-4176792D01*
X92784553Y-4098925D01*
X92810588Y-4019312D01*
X92835591Y-3939302D01*
X92859165Y-3860244D01*
X92881311Y-3782139D01*
X92911672Y-3668375D01*
X92938461Y-3559969D01*
X92961500Y-3459242D01*
X92980609Y-3368516D01*
X92796300Y-3368516D01*
X92783442Y-3442811D01*
X92767725Y-3528536D01*
X92749866Y-3621226D01*
X92730578Y-3716417D01*
X92709861Y-3812143D01*
X92687715Y-3906441D01*
X92664855Y-3994845D01*
X92641995Y-4072890D01*
X92618957Y-3993773D01*
X92595561Y-3905012D01*
X92572701Y-3810714D01*
X92551270Y-3714988D01*
X92531446Y-3619976D01*
X92513408Y-3527822D01*
X92498406Y-3442633D01*
X92487690Y-3368516D01*
X92301953Y-3368516D01*
X92020832Y-3368516D01*
X92018346Y-3367087D01*
X91958517Y-3353157D01*
X91889044Y-3348514D01*
X91813142Y-3355122D01*
X91745455Y-3374946D01*
X91643299Y-3427095D01*
X91706164Y-3555682D01*
X91791175Y-3514963D01*
X91890473Y-3498532D01*
X91971197Y-3526393D01*
X92000487Y-3602831D01*
X91986914Y-3657124D01*
X91951909Y-3691414D01*
X91903332Y-3709987D01*
X91849039Y-3715702D01*
X91783317Y-3715702D01*
X91783317Y-3861435D01*
X91837609Y-3861435D01*
X91915833Y-3868400D01*
X91979055Y-3889296D01*
X92020846Y-3927693D01*
X92034777Y-3987165D01*
X91998344Y-4082891D01*
X91948516Y-4111823D01*
X91871899Y-4121467D01*
X91804212Y-4117538D01*
X91746884Y-4105751D01*
X91661873Y-4075747D01*
X91627583Y-4222909D01*
X91307010Y-4222909D01*
X91340404Y-4140041D01*
X91301828Y-4047172D01*
X91213245Y-4014311D01*
X91164668Y-4022884D01*
X91123949Y-4047172D01*
X91095374Y-4086463D01*
X91084658Y-4140041D01*
X90739061Y-4140041D01*
X90764618Y-4102894D01*
X90784620Y-3990022D01*
X90775155Y-3918228D01*
X90746759Y-3857149D01*
X90701217Y-3808214D01*
X90640317Y-3772852D01*
X90720327Y-3698557D01*
X90750330Y-3597116D01*
X90733185Y-3498532D01*
X90680322Y-3419237D01*
X90589596Y-3367087D01*
X90529767Y-3353157D01*
X90460294Y-3348514D01*
X90384392Y-3355122D01*
X90316705Y-3374946D01*
X90214549Y-3427095D01*
X90277414Y-3555682D01*
X90362425Y-3514963D01*
X90461723Y-3498532D01*
X90542447Y-3526393D01*
X90571737Y-3602831D01*
X90558164Y-3657124D01*
X90523159Y-3691414D01*
X90474582Y-3709987D01*
X90420289Y-3715702D01*
X90354567Y-3715702D01*
X90354567Y-3861435D01*
X90408859Y-3861435D01*
X90487083Y-3868400D01*
X90550305Y-3889296D01*
X90592096Y-3927693D01*
X90606027Y-3987165D01*
X90569594Y-4082891D01*
X90519766Y-4111823D01*
X90443149Y-4121467D01*
X90375462Y-4117538D01*
X90318134Y-4105751D01*
X90233123Y-4075747D01*
X90198833Y-4222909D01*
X89901177Y-4222909D01*
X89901177Y-3050857D01*
X90198833Y-3050857D01*
X92980609Y-3050857D01*
X92980728Y-3050857D01*
X93486823Y-3810000D01*
G37*
%TO.C,G\u002A\u002A\u002A*%
G36*
X45540463Y33745498D02*
G01*
X45701046Y33666702D01*
X45818174Y33549915D01*
X45885197Y33407032D01*
X45895466Y33249948D01*
X45842333Y33090559D01*
X45776864Y32998324D01*
X45623912Y32875163D01*
X45448844Y32816005D01*
X45266678Y32818617D01*
X45092436Y32880770D01*
X44941138Y33000231D01*
X44846186Y33136572D01*
X44800812Y33258497D01*
X44806370Y33374339D01*
X44856460Y33501334D01*
X44953633Y33622577D01*
X45099643Y33716519D01*
X45268461Y33768552D01*
X45343073Y33774407D01*
X45540463Y33745498D01*
G37*
G36*
X37285444Y46845157D02*
G01*
X37366730Y46786625D01*
X37483339Y46692450D01*
X37625576Y46571135D01*
X37783745Y46431187D01*
X37948152Y46281111D01*
X38109101Y46129411D01*
X38256898Y45984594D01*
X38321486Y45918820D01*
X38563555Y45665144D01*
X38799028Y45412314D01*
X39020224Y45169019D01*
X39219462Y44943949D01*
X39389062Y44745794D01*
X39521343Y44583243D01*
X39608624Y44464988D01*
X39614875Y44455480D01*
X39694200Y44309576D01*
X39769437Y44133037D01*
X39813651Y43999874D01*
X39885361Y43740775D01*
X39994164Y44082479D01*
X40040945Y44237859D01*
X40072187Y44370556D01*
X40090955Y44503990D01*
X40100312Y44661582D01*
X40103323Y44866754D01*
X40103435Y44917755D01*
X40101984Y45150793D01*
X40097691Y45400891D01*
X40091258Y45635009D01*
X40084921Y45790999D01*
X40077074Y45963462D01*
X40075886Y46074374D01*
X40083682Y46137994D01*
X40102789Y46168579D01*
X40135533Y46180390D01*
X40148793Y46182466D01*
X40245825Y46174654D01*
X40361012Y46122038D01*
X40502232Y46019528D01*
X40677363Y45862037D01*
X40741249Y45799794D01*
X40872154Y45665113D01*
X40993280Y45527455D01*
X41110201Y45378152D01*
X41228491Y45208536D01*
X41353725Y45009940D01*
X41491475Y44773695D01*
X41647317Y44491133D01*
X41826824Y44153587D01*
X41943245Y43930610D01*
X42034318Y43758350D01*
X42116679Y43608106D01*
X42182322Y43494103D01*
X42223239Y43430561D01*
X42227955Y43424944D01*
X42244588Y43421252D01*
X42259200Y43452570D01*
X42272687Y43526347D01*
X42285943Y43650032D01*
X42299863Y43831073D01*
X42315341Y44076920D01*
X42323707Y44222253D01*
X42338882Y44480368D01*
X42354354Y44723768D01*
X42369142Y44938440D01*
X42382264Y45110368D01*
X42392741Y45225540D01*
X42395683Y45250467D01*
X42419898Y45431310D01*
X42619792Y45296535D01*
X42812614Y45148071D01*
X43020601Y44951520D01*
X43246040Y44703923D01*
X43491217Y44402318D01*
X43758421Y44043746D01*
X44049938Y43625246D01*
X44368056Y43143856D01*
X44715060Y42596618D01*
X44754263Y42533611D01*
X44856443Y42374399D01*
X44946141Y42244527D01*
X45015435Y42154734D01*
X45056399Y42115755D01*
X45062452Y42115973D01*
X45081857Y42163426D01*
X45115111Y42276275D01*
X45160030Y42445693D01*
X45214435Y42662854D01*
X45276143Y42918929D01*
X45342972Y43205093D01*
X45412742Y43512518D01*
X45457708Y43715337D01*
X45497183Y43919250D01*
X45528563Y44127364D01*
X45547911Y44310791D01*
X45552185Y44408236D01*
X45556199Y44538393D01*
X45566753Y44632367D01*
X45581616Y44670846D01*
X45582546Y44670969D01*
X45616864Y44640265D01*
X45681146Y44556541D01*
X45767112Y44432377D01*
X45866484Y44280356D01*
X45970983Y44113059D01*
X46072330Y43943066D01*
X46139713Y43824233D01*
X46190500Y43723201D01*
X46264751Y43563130D01*
X46357479Y43355385D01*
X46463699Y43111331D01*
X46578424Y42842333D01*
X46696668Y42559753D01*
X46731105Y42476400D01*
X46844231Y42205250D01*
X46950854Y41956279D01*
X47046956Y41738364D01*
X47128519Y41560380D01*
X47191525Y41431205D01*
X47231956Y41359714D01*
X47241517Y41348846D01*
X47304422Y41335533D01*
X47354156Y41379530D01*
X47394271Y41453041D01*
X47452681Y41585889D01*
X47524592Y41765071D01*
X47605211Y41977584D01*
X47689744Y42210425D01*
X47773400Y42450591D01*
X47851384Y42685079D01*
X47918904Y42900887D01*
X47935076Y42955491D01*
X47990188Y43136055D01*
X48041255Y43288367D01*
X48083258Y43398480D01*
X48111178Y43452447D01*
X48114965Y43455412D01*
X48152625Y43432665D01*
X48213323Y43359857D01*
X48276847Y43264007D01*
X48370692Y43093847D01*
X48453200Y42909446D01*
X48525732Y42703712D01*
X48589650Y42469549D01*
X48646316Y42199865D01*
X48697091Y41887566D01*
X48743336Y41525558D01*
X48786414Y41106747D01*
X48827685Y40624040D01*
X48856097Y40246177D01*
X48876726Y39965793D01*
X48896393Y39710830D01*
X48914285Y39490890D01*
X48929589Y39315573D01*
X48941491Y39194481D01*
X48949178Y39137214D01*
X48950316Y39134024D01*
X48986654Y39145765D01*
X49077930Y39186277D01*
X49211691Y39249341D01*
X49375484Y39328734D01*
X49556855Y39418238D01*
X49743351Y39511630D01*
X49922520Y39602692D01*
X50081907Y39685203D01*
X50209060Y39752941D01*
X50291525Y39799687D01*
X50315160Y39815771D01*
X50384408Y39847323D01*
X50403318Y39849145D01*
X50431920Y39832715D01*
X50441519Y39773650D01*
X50433983Y39657284D01*
X50431142Y39630834D01*
X50393076Y39336557D01*
X50343291Y39043240D01*
X50278765Y38738659D01*
X50196474Y38410593D01*
X50093394Y38046820D01*
X49966501Y37635116D01*
X49844101Y37257852D01*
X49769758Y37027025D01*
X49706886Y36820929D01*
X49658446Y36650212D01*
X49627400Y36525524D01*
X49616708Y36457513D01*
X49619048Y36448381D01*
X49665418Y36441448D01*
X49776731Y36433639D01*
X49942010Y36425453D01*
X50150275Y36417391D01*
X50390548Y36409952D01*
X50555047Y36405772D01*
X50867998Y36399566D01*
X51118546Y36397490D01*
X51320134Y36399988D01*
X51486203Y36407505D01*
X51630194Y36420486D01*
X51765551Y36439373D01*
X51812666Y36447337D01*
X51968448Y36472229D01*
X52094463Y36487786D01*
X52173267Y36492095D01*
X52190366Y36488792D01*
X52176317Y36450343D01*
X52102805Y36368617D01*
X51971644Y36245185D01*
X51784646Y36081618D01*
X51543622Y35879489D01*
X51250386Y35640369D01*
X50906749Y35365830D01*
X50782155Y35267379D01*
X50551824Y35084789D01*
X50341949Y34916412D01*
X50159686Y34768146D01*
X50012186Y34645889D01*
X49906604Y34555537D01*
X49850092Y34502988D01*
X49842469Y34492646D01*
X49874319Y34462550D01*
X49960327Y34408180D01*
X50086184Y34338093D01*
X50193665Y34282593D01*
X50486095Y34126727D01*
X50762031Y33962072D01*
X51002401Y33800591D01*
X51169673Y33670347D01*
X51247667Y33600378D01*
X51273418Y33560737D01*
X51253158Y33533309D01*
X51222824Y33515883D01*
X51088082Y33460995D01*
X50889311Y33403560D01*
X50638267Y33345775D01*
X50346707Y33289839D01*
X50026388Y33237950D01*
X49689065Y33192308D01*
X49346495Y33155110D01*
X49244487Y33145928D01*
X49101160Y33131007D01*
X48992303Y33114584D01*
X48935551Y33099516D01*
X48931258Y33095195D01*
X48958025Y33063959D01*
X49033321Y32988657D01*
X49149638Y32876470D01*
X49299470Y32734576D01*
X49475310Y32570156D01*
X49630795Y32426182D01*
X49822348Y32248559D01*
X49994111Y32087390D01*
X50138534Y31949915D01*
X50248064Y31843376D01*
X50315150Y31775013D01*
X50333187Y31752658D01*
X50300903Y31732536D01*
X50208482Y31724938D01*
X50070569Y31729215D01*
X49901810Y31744721D01*
X49716851Y31770807D01*
X49647336Y31782993D01*
X49207833Y31893801D01*
X48815205Y32056477D01*
X48537939Y32219444D01*
X48387757Y32332767D01*
X48207036Y32488464D01*
X48012986Y32669866D01*
X47822815Y32860305D01*
X47653735Y33043112D01*
X47522954Y33201618D01*
X47520492Y33204900D01*
X47421100Y33337785D01*
X47379510Y33184235D01*
X47352793Y33103330D01*
X47301991Y32965306D01*
X47232119Y32783179D01*
X47148191Y32569966D01*
X47055222Y32338686D01*
X47028483Y32273025D01*
X46909713Y31982136D01*
X46816418Y31752334D01*
X46745510Y31574350D01*
X46693900Y31438913D01*
X46658498Y31336755D01*
X46636217Y31258606D01*
X46623965Y31195196D01*
X46618655Y31137256D01*
X46617198Y31075516D01*
X46616931Y31038046D01*
X46639516Y30775190D01*
X46713121Y30565730D01*
X46839637Y30405158D01*
X46904113Y30354549D01*
X47070936Y30200024D01*
X47175724Y30017934D01*
X47221295Y29820219D01*
X47210462Y29618820D01*
X47146041Y29425674D01*
X47030847Y29252724D01*
X46867696Y29111907D01*
X46659402Y29015164D01*
X46583652Y28995460D01*
X46388534Y28979067D01*
X46188266Y29004341D01*
X46016352Y29066271D01*
X45984416Y29085126D01*
X45913788Y29111163D01*
X45787735Y29139416D01*
X45626508Y29165823D01*
X45509827Y29180358D01*
X44998820Y29273609D01*
X44501668Y29438853D01*
X44027419Y29672299D01*
X43585119Y29970157D01*
X43540636Y30005225D01*
X43389663Y30130074D01*
X43252459Y30253995D01*
X43118759Y30388165D01*
X42978299Y30543760D01*
X42820817Y30731956D01*
X42636048Y30963929D01*
X42502471Y31135692D01*
X42292818Y31402979D01*
X42082821Y31663392D01*
X41881415Y31906331D01*
X41697539Y32121194D01*
X41540127Y32297381D01*
X41418116Y32424292D01*
X41407897Y32434161D01*
X41317320Y32508306D01*
X41211360Y32567232D01*
X41080270Y32612836D01*
X40914303Y32647016D01*
X40703712Y32671671D01*
X40438751Y32688698D01*
X40109672Y32699995D01*
X40033667Y32701770D01*
X39242054Y32719121D01*
X39269516Y32629798D01*
X39348190Y32403820D01*
X39441750Y32200755D01*
X39561209Y32002042D01*
X39717580Y31789119D01*
X39896989Y31572314D01*
X40077958Y31333915D01*
X40190171Y31119358D01*
X40235559Y30924757D01*
X40236789Y30888792D01*
X40228472Y30792561D01*
X40195112Y30709677D01*
X40124097Y30615306D01*
X40064561Y30549659D01*
X39896273Y30394071D01*
X39720671Y30287697D01*
X39519580Y30223682D01*
X39274826Y30195170D01*
X39116759Y30192128D01*
X38768532Y30216871D01*
X38451879Y30291504D01*
X38151343Y30422129D01*
X37851465Y30614846D01*
X37660858Y30766689D01*
X37419018Y31008407D01*
X37189533Y31306006D01*
X36984563Y31639434D01*
X36816266Y31988638D01*
X36696802Y32333566D01*
X36686256Y32373993D01*
X36623255Y32625149D01*
X36085553Y32646409D01*
X35394353Y32707770D01*
X34733948Y32835387D01*
X34107336Y33028250D01*
X33517515Y33285349D01*
X32967481Y33605674D01*
X32720734Y33779900D01*
X32434785Y33994213D01*
X32294659Y33727920D01*
X32216830Y33588322D01*
X32140818Y33465799D01*
X32081556Y33384233D01*
X32075672Y33377682D01*
X31936315Y33268685D01*
X31756852Y33180994D01*
X31572254Y33129801D01*
X31488600Y33122638D01*
X31305829Y33146532D01*
X31145492Y33222422D01*
X31000307Y33356622D01*
X30862992Y33555442D01*
X30758571Y33755423D01*
X30653341Y34018725D01*
X30555257Y34344337D01*
X30466267Y34718812D01*
X30388321Y35128705D01*
X30323366Y35560568D01*
X30273353Y36000957D01*
X30240229Y36436423D01*
X30225944Y36853522D01*
X30232447Y37238806D01*
X30238544Y37343316D01*
X30242925Y37402447D01*
X30911765Y37402447D01*
X30914043Y37087415D01*
X30920905Y36761908D01*
X30932000Y36442235D01*
X30946980Y36144699D01*
X30965496Y35885609D01*
X30987197Y35681270D01*
X30988363Y35672763D01*
X31035632Y35367754D01*
X31091718Y35063978D01*
X31153938Y34771593D01*
X31219610Y34500755D01*
X31286051Y34261620D01*
X31350580Y34064345D01*
X31410514Y33919087D01*
X31463171Y33836003D01*
X31476250Y33825261D01*
X31527430Y33834376D01*
X31596196Y33901752D01*
X31673080Y34014702D01*
X31748614Y34160534D01*
X31778249Y34230012D01*
X31812115Y34324110D01*
X31835633Y34419195D01*
X31850670Y34532024D01*
X31859094Y34679356D01*
X31862773Y34877950D01*
X31863394Y34993942D01*
X31865040Y35549052D01*
X32377596Y35025961D01*
X32693058Y34715468D01*
X32981821Y34457666D01*
X33258449Y34241497D01*
X33537503Y34055905D01*
X33833547Y33889833D01*
X33953232Y33829689D01*
X34265115Y33688683D01*
X34572976Y33575097D01*
X34890482Y33486125D01*
X35231295Y33418965D01*
X35609081Y33370811D01*
X36037505Y33338859D01*
X36421094Y33323219D01*
X37218403Y33299818D01*
X37261626Y32971174D01*
X37317720Y32646938D01*
X37399630Y32362275D01*
X37518114Y32082331D01*
X37564525Y31989952D01*
X37763939Y31663312D01*
X37995148Y31385173D01*
X38250884Y31160363D01*
X38523879Y30993709D01*
X38806868Y30890038D01*
X39092581Y30854178D01*
X39256175Y30866276D01*
X39371151Y30885915D01*
X39443533Y30910242D01*
X39472373Y30949039D01*
X39456721Y31012088D01*
X39395630Y31109173D01*
X39288150Y31250077D01*
X39209344Y31349264D01*
X39079076Y31520370D01*
X38956721Y31694978D01*
X38856025Y31852617D01*
X38790779Y31972707D01*
X38686737Y32258898D01*
X38611246Y32585029D01*
X38571035Y32918308D01*
X38566236Y33067006D01*
X38566236Y33349952D01*
X38898448Y33377765D01*
X39071591Y33386674D01*
X39301864Y33390457D01*
X39572325Y33389593D01*
X39866034Y33384558D01*
X40166051Y33375833D01*
X40455432Y33363895D01*
X40717238Y33349221D01*
X40934528Y33332291D01*
X41072066Y33316410D01*
X41226291Y33291292D01*
X41360771Y33261097D01*
X41482377Y33220091D01*
X41597984Y33162539D01*
X41714463Y33082708D01*
X41838687Y32974863D01*
X41977528Y32833271D01*
X42137860Y32652196D01*
X42326555Y32425906D01*
X42550485Y32148665D01*
X42707396Y31951985D01*
X43043988Y31537319D01*
X43347661Y31182510D01*
X43624813Y30882451D01*
X43881843Y30632037D01*
X44125148Y30426159D01*
X44361126Y30259713D01*
X44596175Y30127591D01*
X44836692Y30024687D01*
X45089076Y29945895D01*
X45275034Y29902598D01*
X45436543Y29875069D01*
X45540872Y29875614D01*
X45602993Y29908646D01*
X45637881Y29978581D01*
X45646314Y30012070D01*
X45699308Y30132219D01*
X45795161Y30258367D01*
X45909811Y30360634D01*
X45944484Y30382307D01*
X45981360Y30409971D01*
X45996171Y30452585D01*
X45990641Y30530141D01*
X45967979Y30655080D01*
X45931308Y30950186D01*
X45944804Y31231251D01*
X46011393Y31518707D01*
X46134001Y31832988D01*
X46137875Y31841509D01*
X46396781Y32447611D01*
X46612133Y33033007D01*
X46779751Y33585667D01*
X46862120Y33926275D01*
X46889039Y34064385D01*
X46895875Y34157352D01*
X46881195Y34233643D01*
X46843564Y34321725D01*
X46842025Y34324930D01*
X46685741Y34573017D01*
X46464311Y34812569D01*
X46188516Y35036185D01*
X45869136Y35236467D01*
X45516951Y35406015D01*
X45142742Y35537430D01*
X45032087Y35567239D01*
X44834525Y35606781D01*
X44602639Y35633900D01*
X44330692Y35648518D01*
X44012944Y35650558D01*
X43643658Y35639943D01*
X43217096Y35616595D01*
X42727519Y35580438D01*
X42169188Y35531393D01*
X42135145Y35528205D01*
X41637815Y35481998D01*
X41204518Y35443114D01*
X40823768Y35410919D01*
X40484084Y35384776D01*
X40173980Y35364050D01*
X39881974Y35348104D01*
X39596580Y35336303D01*
X39306317Y35328010D01*
X38999700Y35322589D01*
X38665244Y35319406D01*
X38338433Y35317948D01*
X37898899Y35318061D01*
X37522261Y35321614D01*
X37195526Y35329374D01*
X36905704Y35342105D01*
X36639802Y35360571D01*
X36384829Y35385538D01*
X36127795Y35417771D01*
X35855706Y35458034D01*
X35794637Y35467709D01*
X35204247Y35578414D01*
X34644298Y35715681D01*
X34124006Y35876390D01*
X33652589Y36057419D01*
X33239263Y36255645D01*
X32943169Y36433523D01*
X32574286Y36724694D01*
X32231767Y37079912D01*
X31921768Y37490025D01*
X31650445Y37945883D01*
X31423954Y38438336D01*
X31251250Y38948244D01*
X31205848Y39099770D01*
X31165241Y39217255D01*
X31134837Y39286008D01*
X31122728Y39297415D01*
X31106948Y39254727D01*
X31084207Y39149737D01*
X31056585Y38995538D01*
X31026162Y38805222D01*
X30995019Y38591882D01*
X30965235Y38368609D01*
X30938891Y38148497D01*
X30935920Y38121641D01*
X30922354Y37935867D01*
X30914419Y37690700D01*
X30911765Y37402447D01*
X30242925Y37402447D01*
X30278462Y37882102D01*
X30320936Y38368228D01*
X30368431Y38819334D01*
X30423414Y39253065D01*
X30488350Y39687062D01*
X30565704Y40138968D01*
X30657940Y40626426D01*
X30767526Y41167079D01*
X30783742Y41244906D01*
X30838877Y41530572D01*
X30873926Y41771765D01*
X30892156Y41996267D01*
X30896879Y42207692D01*
X30897386Y42390822D01*
X30900687Y42510506D01*
X30909448Y42579229D01*
X30926335Y42609480D01*
X30954016Y42613745D01*
X30982305Y42607692D01*
X31122728Y42580421D01*
X31182270Y42568858D01*
X31384678Y42555354D01*
X31616910Y42566302D01*
X31768064Y42582525D01*
X31927424Y42602983D01*
X32054155Y42621034D01*
X32132386Y42634310D01*
X32149794Y42639479D01*
X32136210Y42686541D01*
X32100745Y42783574D01*
X32051333Y42910712D01*
X31995903Y43048090D01*
X31942389Y43175842D01*
X31898721Y43274101D01*
X31885826Y43300621D01*
X31821944Y43408624D01*
X31731653Y43541094D01*
X31658914Y43637924D01*
X31504280Y43833550D01*
X31703644Y43888570D01*
X31906952Y43930320D01*
X32173374Y43962284D01*
X32490584Y43983330D01*
X32833064Y43992228D01*
X32989555Y43997513D01*
X33122218Y44009219D01*
X33208486Y44025126D01*
X33222227Y44030534D01*
X33279759Y44097241D01*
X33276455Y44204004D01*
X33211946Y44351799D01*
X33085863Y44541599D01*
X32975070Y44682668D01*
X32899090Y44779497D01*
X32850026Y44850710D01*
X32838602Y44878861D01*
X32880354Y44880061D01*
X32972230Y44868208D01*
X33042051Y44855835D01*
X33296198Y44807592D01*
X33542467Y44762405D01*
X33769727Y44722162D01*
X33966844Y44688751D01*
X34122686Y44664059D01*
X34226120Y44649973D01*
X34265969Y44648330D01*
X34257441Y44686457D01*
X34224742Y44782238D01*
X34172479Y44923060D01*
X34105260Y45096309D01*
X34069567Y45185959D01*
X33996957Y45370270D01*
X33937285Y45528270D01*
X33895127Y45647308D01*
X33875062Y45714729D01*
X33874578Y45725001D01*
X33921596Y45729770D01*
X34023862Y45719861D01*
X34162861Y45698617D01*
X34320074Y45669376D01*
X34476985Y45635481D01*
X34615076Y45600273D01*
X34683940Y45578969D01*
X34901033Y45491060D01*
X35093242Y45388339D01*
X35239580Y45282612D01*
X35278519Y45244411D01*
X35375597Y45178986D01*
X35480438Y45170665D01*
X35566789Y45221446D01*
X35567596Y45222410D01*
X35598602Y45307370D01*
X35605930Y45443872D01*
X35592012Y45612154D01*
X35559278Y45792452D01*
X35510159Y45965005D01*
X35461874Y46081832D01*
X35410821Y46193972D01*
X35383164Y46273706D01*
X35384734Y46303555D01*
X35468349Y46280718D01*
X35600214Y46216780D01*
X35769709Y46118602D01*
X35966214Y45993042D01*
X36179107Y45846961D01*
X36397768Y45687218D01*
X36611576Y45520674D01*
X36667880Y45474784D01*
X36812047Y45358402D01*
X36909389Y45286944D01*
X36969710Y45254742D01*
X37002811Y45256130D01*
X37015063Y45274124D01*
X37038283Y45361291D01*
X37067017Y45507155D01*
X37098676Y45694914D01*
X37130675Y45907762D01*
X37160423Y46128899D01*
X37185333Y46341518D01*
X37196121Y46449685D01*
X37212621Y46614055D01*
X37228701Y46748105D01*
X37242207Y46835198D01*
X37249176Y46859539D01*
X37285444Y46845157D01*
G37*
%TO.C,kibuzzard-653BCDD4*%
G36*
X57164823Y19304000D02*
G01*
X56658728Y18544857D01*
X56658609Y18544857D01*
X56227127Y18544857D01*
X55551328Y18544857D01*
X54891245Y18544857D01*
X54122578Y18544857D01*
X53876833Y18544857D01*
X53579177Y18544857D01*
X53579177Y18891091D01*
X53876833Y18891091D01*
X53921124Y18875375D01*
X53983275Y18859659D01*
X54053284Y18847514D01*
X54122578Y18842514D01*
X54205088Y18847693D01*
X54275454Y18863231D01*
X54334033Y18888234D01*
X54381182Y18921809D01*
X54417061Y18973959D01*
X54762658Y18973959D01*
X54773374Y18918952D01*
X54801949Y18878947D01*
X54842668Y18853944D01*
X54891245Y18845371D01*
X54979828Y18878233D01*
X54985010Y18891091D01*
X55305583Y18891091D01*
X55349874Y18875375D01*
X55412025Y18859659D01*
X55482034Y18847514D01*
X55551328Y18842514D01*
X55633838Y18847693D01*
X55704204Y18863231D01*
X55762783Y18888234D01*
X55809932Y18921809D01*
X55871368Y19011106D01*
X55891370Y19123978D01*
X55881905Y19195772D01*
X55853509Y19256851D01*
X55807967Y19305786D01*
X55747067Y19341148D01*
X55827077Y19415443D01*
X55857080Y19516884D01*
X55839935Y19615468D01*
X55787072Y19694763D01*
X55698832Y19745484D01*
X55979953Y19745484D01*
X55996384Y19665474D01*
X56019958Y19565461D01*
X56038849Y19490611D01*
X56059328Y19412744D01*
X56081394Y19331861D01*
X56104730Y19249390D01*
X56129019Y19166761D01*
X56154260Y19083973D01*
X56191765Y18966101D01*
X56227127Y18861088D01*
X56408578Y18861088D01*
X56435883Y18937208D01*
X56462553Y19015075D01*
X56488588Y19094688D01*
X56513591Y19174698D01*
X56537165Y19253756D01*
X56559311Y19331861D01*
X56589672Y19445625D01*
X56616461Y19554031D01*
X56639500Y19654758D01*
X56658609Y19745484D01*
X56474300Y19745484D01*
X56461442Y19671189D01*
X56445725Y19585464D01*
X56427866Y19492774D01*
X56408578Y19397583D01*
X56387861Y19301857D01*
X56365715Y19207559D01*
X56342855Y19119155D01*
X56319995Y19041110D01*
X56296957Y19120227D01*
X56273561Y19208988D01*
X56250701Y19303286D01*
X56229270Y19399012D01*
X56209446Y19494024D01*
X56191408Y19586178D01*
X56176406Y19671367D01*
X56165690Y19745484D01*
X55979953Y19745484D01*
X55698832Y19745484D01*
X55696346Y19746913D01*
X55636517Y19760843D01*
X55567044Y19765486D01*
X55491142Y19758878D01*
X55423455Y19739054D01*
X55321299Y19686905D01*
X55384164Y19558318D01*
X55469175Y19599037D01*
X55568473Y19615468D01*
X55649197Y19587607D01*
X55678487Y19511169D01*
X55664914Y19456876D01*
X55629909Y19422586D01*
X55581332Y19404013D01*
X55527039Y19398298D01*
X55461317Y19398298D01*
X55461317Y19252565D01*
X55515609Y19252565D01*
X55593833Y19245600D01*
X55657055Y19224704D01*
X55698846Y19186307D01*
X55712777Y19126835D01*
X55676344Y19031109D01*
X55626516Y19002177D01*
X55549899Y18992533D01*
X55482212Y18996462D01*
X55424884Y19008249D01*
X55339873Y19038253D01*
X55305583Y18891091D01*
X54985010Y18891091D01*
X55018404Y18973959D01*
X54979828Y19066828D01*
X54891245Y19099689D01*
X54842668Y19091116D01*
X54801949Y19066828D01*
X54773374Y19027537D01*
X54762658Y18973959D01*
X54417061Y18973959D01*
X54442618Y19011106D01*
X54462620Y19123978D01*
X54453155Y19195772D01*
X54424759Y19256851D01*
X54379217Y19305786D01*
X54318317Y19341148D01*
X54398327Y19415443D01*
X54428330Y19516884D01*
X54411185Y19615468D01*
X54358322Y19694763D01*
X54267596Y19746913D01*
X54207767Y19760843D01*
X54138294Y19765486D01*
X54062392Y19758878D01*
X53994705Y19739054D01*
X53892549Y19686905D01*
X53955414Y19558318D01*
X54040425Y19599037D01*
X54139723Y19615468D01*
X54220447Y19587607D01*
X54249737Y19511169D01*
X54236164Y19456876D01*
X54201159Y19422586D01*
X54152582Y19404013D01*
X54098289Y19398298D01*
X54032567Y19398298D01*
X54032567Y19252565D01*
X54086859Y19252565D01*
X54165083Y19245600D01*
X54228305Y19224704D01*
X54270096Y19186307D01*
X54284027Y19126835D01*
X54247594Y19031109D01*
X54197766Y19002177D01*
X54121149Y18992533D01*
X54053462Y18996462D01*
X53996134Y19008249D01*
X53911123Y19038253D01*
X53876833Y18891091D01*
X53579177Y18891091D01*
X53579177Y20063143D01*
X53876833Y20063143D01*
X56658609Y20063143D01*
X56658728Y20063143D01*
X57164823Y19304000D01*
G37*
%TO.C,kibuzzard-653BCDE7*%
G36*
X54896365Y14510107D02*
G01*
X54946014Y14485461D01*
X54978161Y14443313D01*
X54988877Y14382591D01*
X54948872Y14283293D01*
X54896365Y14257040D01*
X54818855Y14248289D01*
X54780279Y14248289D01*
X54780279Y14514036D01*
X54808854Y14517608D01*
X54833143Y14518322D01*
X54896365Y14510107D01*
G37*
G36*
X57119728Y14224000D02*
G01*
X56623158Y13479145D01*
X56623039Y13479145D01*
X55750400Y13479145D01*
X55226049Y13479145D01*
X53921928Y13479145D01*
X53624272Y13479145D01*
X53624272Y13776801D01*
X54604543Y13776801D01*
X54780279Y13776801D01*
X54780279Y14102556D01*
X54871719Y14102556D01*
X54920118Y14021653D01*
X54965302Y13941822D01*
X55006200Y13860919D01*
X55041740Y13776801D01*
X55226049Y13776801D01*
X55257482Y13776801D01*
X55447505Y13776801D01*
X55480367Y13854132D01*
X55518943Y13940393D01*
X55560377Y14029511D01*
X55601810Y14115415D01*
X55643780Y14026832D01*
X55683964Y13938250D01*
X55720218Y13853597D01*
X55750400Y13776801D01*
X55940424Y13776801D01*
X55901848Y13870384D01*
X55875595Y13927534D01*
X55845412Y13988971D01*
X55812015Y14053443D01*
X55776118Y14119701D01*
X55738613Y14185424D01*
X55700394Y14248289D01*
X55926137Y14661197D01*
X55748972Y14661197D01*
X55601810Y14378305D01*
X55461793Y14661197D01*
X55271769Y14661197D01*
X55503227Y14244002D01*
X55468222Y14181316D01*
X55431789Y14116129D01*
X55395535Y14050585D01*
X55361066Y13986827D01*
X55328919Y13926106D01*
X55299630Y13869670D01*
X55257482Y13776801D01*
X55226049Y13776801D01*
X55185330Y13870384D01*
X55136038Y13968968D01*
X55083174Y14063266D01*
X55031739Y14145419D01*
X55094247Y14185781D01*
X55136038Y14241145D01*
X55159612Y14307582D01*
X55167470Y14381163D01*
X55161577Y14450635D01*
X55143896Y14510464D01*
X55076030Y14601190D01*
X55027453Y14632265D01*
X54970303Y14654054D01*
X54905295Y14666913D01*
X54833143Y14671199D01*
X54783137Y14669770D01*
X54723129Y14666198D01*
X54660979Y14659054D01*
X54604543Y14648339D01*
X54604543Y13776801D01*
X53624272Y13776801D01*
X53624272Y14968855D01*
X53921928Y14968855D01*
X56623039Y14968855D01*
X56623158Y14968855D01*
X57119728Y14224000D01*
G37*
%TO.C,kibuzzard-653BCDC1*%
G36*
X56024959Y22117606D02*
G01*
X56083537Y22051169D01*
X56113541Y21955443D01*
X56122114Y21844000D01*
X56119435Y21780956D01*
X56111398Y21723271D01*
X56075679Y21628259D01*
X56009957Y21565394D01*
X55909230Y21542534D01*
X55893514Y21542534D01*
X55877797Y21543963D01*
X55877797Y22138323D01*
X55903515Y22141894D01*
X55929232Y22142609D01*
X56024959Y22117606D01*
G37*
G36*
X57124491Y21844000D02*
G01*
X56618396Y21084857D01*
X56618277Y21084857D01*
X55890656Y21084857D01*
X55417740Y21084857D01*
X54596209Y21084857D01*
X53917165Y21084857D01*
X53619509Y21084857D01*
X53619509Y21844000D01*
X54234735Y21844000D01*
X54241164Y21736665D01*
X54260452Y21643261D01*
X54291528Y21563965D01*
X54333319Y21498957D01*
X54385289Y21448236D01*
X54446904Y21411803D01*
X54517449Y21389836D01*
X54596209Y21382514D01*
X54683541Y21386086D01*
X54756943Y21396801D01*
X54854812Y21422519D01*
X54854812Y21864003D01*
X54679076Y21864003D01*
X54679076Y21541105D01*
X54644786Y21536819D01*
X54610496Y21535390D01*
X54525128Y21554142D01*
X54463335Y21610399D01*
X54435554Y21669693D01*
X54418885Y21747559D01*
X54413329Y21844000D01*
X54416365Y21909544D01*
X54425473Y21969016D01*
X54465478Y22066171D01*
X54536201Y22129750D01*
X54641929Y22152610D01*
X54736226Y22136894D01*
X54813379Y22101175D01*
X54859099Y22241193D01*
X54829809Y22258338D01*
X54780517Y22279769D01*
X54757885Y22285484D01*
X54976256Y22285484D01*
X54976256Y21401088D01*
X55134847Y21401088D01*
X55134847Y21988304D01*
X55187949Y21890276D01*
X55238670Y21792406D01*
X55287009Y21694696D01*
X55332967Y21596985D01*
X55376544Y21499116D01*
X55417740Y21401088D01*
X55559186Y21401088D01*
X55559186Y21411089D01*
X55702061Y21411089D01*
X55798502Y21394658D01*
X55890656Y21389658D01*
X55976917Y21395908D01*
X56055677Y21414661D01*
X56125507Y21446986D01*
X56184979Y21493956D01*
X56233378Y21556285D01*
X56269989Y21634688D01*
X56293028Y21730236D01*
X56300707Y21844000D01*
X56293742Y21955264D01*
X56272847Y22049026D01*
X56239450Y22126535D01*
X56194980Y22189043D01*
X56139437Y22236728D01*
X56072822Y22269768D01*
X55996919Y22289056D01*
X55913516Y22295485D01*
X55814932Y22291199D01*
X55702061Y22274054D01*
X55702061Y21411089D01*
X55559186Y21411089D01*
X55559186Y22285484D01*
X55400595Y22285484D01*
X55400595Y21741130D01*
X55375413Y21796851D01*
X55345588Y21861145D01*
X55312012Y21930797D01*
X55275579Y22002591D01*
X55237182Y22075636D01*
X55197712Y22149038D01*
X55157707Y22219940D01*
X55117702Y22285484D01*
X54976256Y22285484D01*
X54757885Y22285484D01*
X54709794Y22297628D01*
X54617640Y22305486D01*
X54540130Y22298164D01*
X54467621Y22276197D01*
X54402256Y22239585D01*
X54346177Y22188329D01*
X54300100Y22122785D01*
X54264739Y22043311D01*
X54242236Y21950263D01*
X54234735Y21844000D01*
X53619509Y21844000D01*
X53619509Y22603143D01*
X53917165Y22603143D01*
X56618277Y22603143D01*
X56618396Y22603143D01*
X57124491Y21844000D01*
G37*
%TO.C,kibuzzard-653BCB65*%
G36*
X65360677Y7550719D02*
G01*
X65442557Y7538573D01*
X65522853Y7518460D01*
X65600790Y7490573D01*
X65675619Y7455182D01*
X65746619Y7412626D01*
X65813105Y7363316D01*
X65874439Y7307727D01*
X65930028Y7246394D01*
X65979338Y7179907D01*
X66021893Y7108908D01*
X66057285Y7034079D01*
X66085171Y6956141D01*
X66105284Y6875846D01*
X66117430Y6793965D01*
X66121492Y6711289D01*
X66121492Y6711156D01*
X66121492Y4464844D01*
X66121492Y4464711D01*
X66117430Y4382035D01*
X66105284Y4300154D01*
X66085171Y4219859D01*
X66057285Y4141921D01*
X66021893Y4067092D01*
X65979338Y3996093D01*
X65930028Y3929606D01*
X65874439Y3868273D01*
X65813105Y3812684D01*
X65746619Y3763374D01*
X65675619Y3720818D01*
X65600790Y3685427D01*
X65522853Y3657540D01*
X65442557Y3637427D01*
X65360677Y3625281D01*
X65278000Y3621220D01*
X65195323Y3625281D01*
X65113443Y3637427D01*
X65033147Y3657540D01*
X64955210Y3685427D01*
X64880381Y3720818D01*
X64809381Y3763374D01*
X64742895Y3812684D01*
X64681561Y3868273D01*
X64625972Y3929606D01*
X64576662Y3996093D01*
X64534107Y4067092D01*
X64498715Y4141921D01*
X64470829Y4219859D01*
X64450716Y4300154D01*
X64438570Y4382035D01*
X64434508Y4464711D01*
X64434508Y4464844D01*
X64434508Y4739481D01*
X64765238Y4739481D01*
X64770595Y4652764D01*
X64786669Y4576763D01*
X64833500Y4464844D01*
X64987488Y4514056D01*
X64952563Y4594225D01*
X64935100Y4720431D01*
X64957523Y4833739D01*
X65024794Y4910138D01*
X65093321Y4942328D01*
X65179310Y4961643D01*
X65282763Y4968081D01*
X65371663Y4962723D01*
X65444688Y4946650D01*
X65548669Y4891088D01*
X65604231Y4813300D01*
X65620900Y4723606D01*
X65604231Y4605338D01*
X65563750Y4517231D01*
X65719325Y4466431D01*
X65738375Y4498975D01*
X65762188Y4552156D01*
X65782031Y4625975D01*
X65790763Y4720431D01*
X65782230Y4813498D01*
X65756631Y4899025D01*
X65714563Y4975225D01*
X65656619Y5040313D01*
X65583395Y5093295D01*
X65495488Y5133181D01*
X65393491Y5158184D01*
X65278000Y5166519D01*
X65162013Y5159673D01*
X65060116Y5139134D01*
X64972307Y5104904D01*
X64898588Y5056981D01*
X64824504Y4973020D01*
X64780054Y4867187D01*
X64765238Y4739481D01*
X64434508Y4739481D01*
X64434508Y5269706D01*
X64785875Y5269706D01*
X64947800Y5269706D01*
X64947800Y5691981D01*
X65000188Y5675313D01*
X65056544Y5634831D01*
X65110519Y5584031D01*
X65155763Y5536406D01*
X65235138Y5455444D01*
X65320863Y5384006D01*
X65412144Y5333206D01*
X65509775Y5314156D01*
X65632806Y5339556D01*
X65720913Y5407819D01*
X65773300Y5506244D01*
X65790763Y5622131D01*
X65782825Y5704880D01*
X65759013Y5788025D01*
X65718531Y5866408D01*
X65660588Y5934869D01*
X65524063Y5838031D01*
X65598675Y5738019D01*
X65620900Y5641181D01*
X65588356Y5549106D01*
X65495488Y5512594D01*
X65411350Y5541963D01*
X65325625Y5616575D01*
X65280183Y5663406D01*
X65232756Y5713413D01*
X65182353Y5763419D01*
X65127981Y5810250D01*
X65069045Y5851525D01*
X65004950Y5884863D01*
X64935100Y5906889D01*
X64858900Y5914231D01*
X64825563Y5915025D01*
X64785875Y5911056D01*
X64785875Y5269706D01*
X64434508Y5269706D01*
X64434508Y6711156D01*
X64785875Y6711156D01*
X64785875Y6087269D01*
X64947800Y6087269D01*
X64947800Y6299994D01*
X65606613Y6299994D01*
X65606613Y6087269D01*
X65768538Y6087269D01*
X65768538Y6711156D01*
X65606613Y6711156D01*
X65606613Y6496844D01*
X64947800Y6496844D01*
X64947800Y6711156D01*
X64785875Y6711156D01*
X64434508Y6711156D01*
X64434508Y6711289D01*
X64438570Y6793965D01*
X64450716Y6875846D01*
X64470829Y6956141D01*
X64498715Y7034079D01*
X64534107Y7108908D01*
X64576662Y7179907D01*
X64625972Y7246394D01*
X64681561Y7307727D01*
X64742895Y7363316D01*
X64809381Y7412626D01*
X64880381Y7455182D01*
X64955210Y7490573D01*
X65033147Y7518460D01*
X65113443Y7538573D01*
X65195323Y7550719D01*
X65278000Y7554780D01*
X65360677Y7550719D01*
G37*
%TO.C,kibuzzard-653BCECF*%
G36*
X65571511Y-14824978D02*
G01*
X65594371Y-14913561D01*
X65613660Y-15001429D01*
X65630805Y-15092869D01*
X65457926Y-15092869D01*
X65475785Y-15001429D01*
X65495788Y-14913561D01*
X65518648Y-14824978D01*
X65545080Y-14729966D01*
X65571511Y-14824978D01*
G37*
G36*
X64874996Y-14726394D02*
G01*
X64933575Y-14792831D01*
X64963578Y-14888557D01*
X64972151Y-15000000D01*
X64969472Y-15063044D01*
X64961435Y-15120729D01*
X64925716Y-15215741D01*
X64859994Y-15278606D01*
X64759267Y-15301466D01*
X64743551Y-15301466D01*
X64727835Y-15300037D01*
X64727835Y-14705677D01*
X64753552Y-14702106D01*
X64779270Y-14701391D01*
X64874996Y-14726394D01*
G37*
G36*
X66502491Y-15759143D02*
G01*
X66204835Y-15759143D01*
X65702242Y-15759143D01*
X64740693Y-15759143D01*
X64092041Y-15759143D01*
X63503723Y-15759143D01*
X63503604Y-15759143D01*
X63260399Y-15394335D01*
X63817721Y-15394335D01*
X63916305Y-15437912D01*
X63993100Y-15455593D01*
X64092041Y-15461486D01*
X64192291Y-15453946D01*
X64268238Y-15432911D01*
X64552098Y-15432911D01*
X64648539Y-15449342D01*
X64740693Y-15454342D01*
X64826954Y-15448092D01*
X64848709Y-15442912D01*
X65202180Y-15442912D01*
X65385060Y-15442912D01*
X65425065Y-15238601D01*
X65660808Y-15238601D01*
X65702242Y-15442912D01*
X65890837Y-15442912D01*
X65867263Y-15342643D01*
X65843403Y-15245288D01*
X65819257Y-15150847D01*
X65794825Y-15059322D01*
X65770108Y-14970711D01*
X65738988Y-14863242D01*
X65707778Y-14758720D01*
X65676480Y-14657145D01*
X65645092Y-14558516D01*
X65453640Y-14558516D01*
X65423368Y-14656341D01*
X65392560Y-14756934D01*
X65361217Y-14860295D01*
X65329338Y-14966424D01*
X65303678Y-15054292D01*
X65278132Y-15145875D01*
X65252700Y-15241173D01*
X65227383Y-15340185D01*
X65202180Y-15442912D01*
X64848709Y-15442912D01*
X64905714Y-15429339D01*
X64975544Y-15397014D01*
X65035016Y-15350044D01*
X65083415Y-15287715D01*
X65120026Y-15209312D01*
X65143065Y-15113764D01*
X65150745Y-15000000D01*
X65143779Y-14888736D01*
X65122884Y-14794974D01*
X65089487Y-14717465D01*
X65045017Y-14654957D01*
X64989474Y-14607272D01*
X64922859Y-14574232D01*
X64846957Y-14554944D01*
X64763553Y-14548515D01*
X64664970Y-14552801D01*
X64552098Y-14569946D01*
X64552098Y-15432911D01*
X64268238Y-15432911D01*
X64273968Y-15431324D01*
X64337071Y-15393621D01*
X64397615Y-15311646D01*
X64417796Y-15201454D01*
X64411724Y-15134838D01*
X64393507Y-15080724D01*
X64331356Y-15000714D01*
X64248489Y-14949279D01*
X64162050Y-14914275D01*
X64107043Y-14892844D01*
X64057036Y-14866412D01*
X64020603Y-14832122D01*
X64006316Y-14787116D01*
X64021873Y-14730760D01*
X64068546Y-14696946D01*
X64146333Y-14685675D01*
X64247060Y-14699962D01*
X64326356Y-14734252D01*
X64377791Y-14598521D01*
X64275635Y-14557087D01*
X64209734Y-14543157D01*
X64133475Y-14538514D01*
X64045924Y-14546292D01*
X63971867Y-14569629D01*
X63911304Y-14608522D01*
X63850761Y-14692104D01*
X63830580Y-14802832D01*
X63853440Y-14907846D01*
X63911304Y-14978569D01*
X63989171Y-15025717D01*
X64072038Y-15058579D01*
X64132046Y-15083582D01*
X64186338Y-15113586D01*
X64226343Y-15151447D01*
X64242060Y-15200025D01*
X64235630Y-15242173D01*
X64212056Y-15279321D01*
X64165621Y-15305038D01*
X64092041Y-15314325D01*
X64020782Y-15309324D01*
X63961310Y-15294322D01*
X63869156Y-15251460D01*
X63817721Y-15394335D01*
X63260399Y-15394335D01*
X62997509Y-15000000D01*
X63503604Y-14240857D01*
X63503723Y-14240857D01*
X66204835Y-14240857D01*
X66502491Y-14240857D01*
X66502491Y-15759143D01*
G37*
%TO.C,kibuzzard-653BCD4B*%
G36*
X64305716Y14389735D02*
G01*
X64328576Y14301152D01*
X64347864Y14213284D01*
X64365009Y14121844D01*
X64192130Y14121844D01*
X64209990Y14213284D01*
X64229992Y14301152D01*
X64252852Y14389735D01*
X64279284Y14484747D01*
X64305716Y14389735D01*
G37*
G36*
X66265395Y13474144D02*
G01*
X65967739Y13474144D01*
X65297983Y13474144D01*
X64436446Y13474144D01*
X63266628Y13474144D01*
X63266509Y13474144D01*
X63068071Y13771801D01*
X63936384Y13771801D01*
X64119264Y13771801D01*
X64159269Y13976112D01*
X64395013Y13976112D01*
X64436446Y13771801D01*
X64625041Y13771801D01*
X64601467Y13872070D01*
X64577607Y13969425D01*
X64553461Y14063866D01*
X64529029Y14155391D01*
X64504312Y14244003D01*
X64473192Y14351471D01*
X64441983Y14455993D01*
X64410684Y14557568D01*
X64410215Y14559042D01*
X64699336Y14559042D01*
X64786490Y14436169D01*
X64876501Y14503321D01*
X64963655Y14523323D01*
X65046523Y14494034D01*
X65079384Y14410452D01*
X65052952Y14334728D01*
X64985801Y14257576D01*
X64943653Y14216678D01*
X64898647Y14173994D01*
X64853641Y14128631D01*
X64811493Y14079696D01*
X64774346Y14026654D01*
X64744342Y13968968D01*
X64724518Y13906103D01*
X64717910Y13837523D01*
X64717196Y13807519D01*
X64720768Y13771801D01*
X65297983Y13771801D01*
X65297983Y13917533D01*
X64917935Y13917533D01*
X64932937Y13964682D01*
X64969370Y14015402D01*
X65015090Y14063980D01*
X65057953Y14104699D01*
X65130819Y14176137D01*
X65195113Y14253289D01*
X65240833Y14335443D01*
X65257978Y14423311D01*
X65235118Y14534039D01*
X65173681Y14613334D01*
X65085099Y14660483D01*
X64980800Y14676199D01*
X64906327Y14669056D01*
X64831496Y14647624D01*
X64760951Y14611191D01*
X64699336Y14559042D01*
X64410215Y14559042D01*
X64379296Y14656197D01*
X64187844Y14656197D01*
X64157572Y14558372D01*
X64126765Y14457779D01*
X64095422Y14354418D01*
X64063543Y14248289D01*
X64037882Y14160421D01*
X64012336Y14068838D01*
X63986905Y13973540D01*
X63961587Y13874528D01*
X63936384Y13771801D01*
X63068071Y13771801D01*
X62766605Y14224000D01*
X63266509Y14973856D01*
X63266628Y14973856D01*
X65967739Y14973856D01*
X66265395Y14973856D01*
X66265395Y13474144D01*
G37*
%TO.C,kibuzzard-653BCF42*%
G36*
X90904635Y-996394D02*
G01*
X90963214Y-1062831D01*
X90993218Y-1158557D01*
X91001790Y-1270000D01*
X90999112Y-1333044D01*
X90991075Y-1390729D01*
X90955356Y-1485741D01*
X90889634Y-1548606D01*
X90788907Y-1571466D01*
X90773190Y-1571466D01*
X90757474Y-1570037D01*
X90757474Y-975677D01*
X90783192Y-972106D01*
X90808909Y-971391D01*
X90904635Y-996394D01*
G37*
G36*
X92354638Y-978356D02*
G01*
X92401251Y-1037828D01*
X92422285Y-1098709D01*
X92434906Y-1175623D01*
X92439113Y-1268571D01*
X92434906Y-1362313D01*
X92422285Y-1439704D01*
X92401251Y-1500743D01*
X92354638Y-1560215D01*
X92291952Y-1579597D01*
X92290523Y-1580039D01*
X92227301Y-1560215D01*
X92180509Y-1500743D01*
X92159078Y-1439704D01*
X92146219Y-1362313D01*
X92141933Y-1268571D01*
X92142592Y-1254284D01*
X92211942Y-1254284D01*
X92233373Y-1320721D01*
X92291952Y-1348581D01*
X92348387Y-1320721D01*
X92370533Y-1254284D01*
X92348387Y-1187132D01*
X92291952Y-1158557D01*
X92233373Y-1187132D01*
X92211942Y-1254284D01*
X92142592Y-1254284D01*
X92146219Y-1175623D01*
X92159078Y-1098709D01*
X92180509Y-1037828D01*
X92227301Y-978356D01*
X92290523Y-958532D01*
X92354638Y-978356D01*
G37*
G36*
X93446491Y-1270000D02*
G01*
X92940396Y-2029143D01*
X92940277Y-2029143D01*
X92290523Y-2029143D01*
X91874757Y-2029143D01*
X90770333Y-2029143D01*
X90239165Y-2029143D01*
X89941509Y-2029143D01*
X89941509Y-1702911D01*
X90581738Y-1702911D01*
X90678179Y-1719342D01*
X90770333Y-1724342D01*
X90856594Y-1718092D01*
X90935354Y-1699339D01*
X91005184Y-1667014D01*
X91064655Y-1620044D01*
X91113054Y-1557715D01*
X91149666Y-1479312D01*
X91172705Y-1383764D01*
X91180384Y-1270000D01*
X91173419Y-1158736D01*
X91152524Y-1064974D01*
X91130054Y-1012825D01*
X91287540Y-1012825D01*
X91344690Y-1158557D01*
X91431844Y-1123553D01*
X91523284Y-1072832D01*
X91523284Y-1567180D01*
X91337547Y-1567180D01*
X91337547Y-1712912D01*
X91874757Y-1712912D01*
X91874757Y-1567180D01*
X91699020Y-1567180D01*
X91699020Y-1268571D01*
X91983342Y-1268571D01*
X91988253Y-1378228D01*
X92002987Y-1472883D01*
X92027544Y-1552535D01*
X92061923Y-1617186D01*
X92122248Y-1680686D01*
X92198448Y-1718786D01*
X92290523Y-1731486D01*
X92382598Y-1718786D01*
X92458798Y-1680686D01*
X92519123Y-1617186D01*
X92553502Y-1552535D01*
X92578059Y-1472883D01*
X92592793Y-1378228D01*
X92597704Y-1268571D01*
X92592793Y-1159584D01*
X92578059Y-1065510D01*
X92553502Y-986348D01*
X92519123Y-922099D01*
X92458798Y-858996D01*
X92382598Y-821134D01*
X92290523Y-808514D01*
X92199877Y-821214D01*
X92124153Y-859314D01*
X92063352Y-922814D01*
X92028347Y-987286D01*
X92003344Y-1066403D01*
X91988342Y-1160165D01*
X91983342Y-1268571D01*
X91699020Y-1268571D01*
X91699020Y-828516D01*
X91579005Y-828516D01*
X91517569Y-884237D01*
X91441845Y-935672D01*
X91361835Y-979964D01*
X91287540Y-1012825D01*
X91130054Y-1012825D01*
X91119127Y-987465D01*
X91074657Y-924957D01*
X91019114Y-877272D01*
X90952499Y-844232D01*
X90876596Y-824944D01*
X90793193Y-818515D01*
X90694609Y-822801D01*
X90581738Y-839946D01*
X90581738Y-1702911D01*
X89941509Y-1702911D01*
X89941509Y-510857D01*
X90239165Y-510857D01*
X92940277Y-510857D01*
X92940396Y-510857D01*
X93446491Y-1270000D01*
G37*
%TO.C,C2*%
X8380000Y32879420D02*
X8380000Y33160580D01*
X9400000Y32879420D02*
X9400000Y33160580D01*
%TD*%
%LPC*%
D14*
%TO.C,REF\u002A\u002A*%
X4500000Y-43500000D03*
%TD*%
D15*
%TO.C,D2*%
X5955000Y34770000D03*
X4205000Y34770000D03*
X4205000Y31270000D03*
X5955000Y31270000D03*
%TD*%
D16*
%TO.C,R2*%
X60769000Y10414000D03*
X59119000Y10414000D03*
%TD*%
D17*
%TO.C,J5*%
X61000000Y-15000000D03*
D18*
X61000000Y-17000000D03*
X61000000Y-19000000D03*
X61000000Y-21000000D03*
%TD*%
D19*
%TO.C,C1*%
X8890000Y-33795000D03*
X8890000Y-32245000D03*
%TD*%
D16*
%TO.C,R1*%
X60515000Y-9144000D03*
X58865000Y-9144000D03*
%TD*%
D20*
%TO.C,J7*%
X56000000Y-14000000D03*
D21*
X56000000Y-16540000D03*
X56000000Y-19080000D03*
X56000000Y-21620000D03*
%TD*%
D14*
%TO.C,REF\u002A\u002A*%
X63000000Y-40000000D03*
%TD*%
D22*
%TO.C,J10*%
X58669000Y21834000D03*
D21*
X61209000Y21834000D03*
X58669000Y19294000D03*
X61209000Y19294000D03*
X58669000Y16754000D03*
X61209000Y16754000D03*
X58669000Y14214000D03*
X61209000Y14214000D03*
%TD*%
D14*
%TO.C,REF\u002A\u002A*%
X4500000Y43500000D03*
%TD*%
D20*
%TO.C,J6*%
X95000000Y-3810000D03*
D21*
X95000000Y-1270000D03*
X95000000Y1270000D03*
X95000000Y3810000D03*
%TD*%
D23*
%TO.C,J9*%
X61500007Y7325001D03*
X60500007Y7325001D03*
X59500007Y7325001D03*
X58500007Y7325001D03*
D24*
X62800007Y4800001D03*
X57200007Y4800001D03*
%TD*%
D14*
%TO.C,REF\u002A\u002A*%
X93000000Y40000000D03*
%TD*%
D23*
%TO.C,J8*%
X61500007Y-3675000D03*
X60500007Y-3675000D03*
X59500007Y-3675000D03*
X58500007Y-3675000D03*
D24*
X62800007Y-6200000D03*
X57200007Y-6200000D03*
%TD*%
D25*
%TO.C,M1*%
X86000000Y10000000D03*
D26*
X88950000Y10000000D03*
%TD*%
D15*
%TO.C,D1*%
X5955000Y-31270000D03*
X4205000Y-31270000D03*
X4205000Y-34770000D03*
X5955000Y-34770000D03*
%TD*%
D25*
%TO.C,M2*%
X86000000Y-10000000D03*
D26*
X88950000Y-10000000D03*
%TD*%
D14*
%TO.C,REF\u002A\u002A*%
X63000000Y40000000D03*
%TD*%
%TO.C,REF\u002A\u002A*%
X93000000Y-40000000D03*
%TD*%
%TO.C,REF\u002A\u002A*%
X23000000Y-40000000D03*
%TD*%
D19*
%TO.C,C2*%
X8890000Y32245000D03*
X8890000Y33795000D03*
%TD*%
D14*
%TO.C,REF\u002A\u002A*%
X23000000Y40000000D03*
%TD*%
D22*
%TO.C,J2*%
X23622000Y-6350000D03*
D21*
X21082000Y-6350000D03*
X23622000Y-3810000D03*
X21082000Y-3810000D03*
X23622000Y-1270000D03*
X21082000Y-1270000D03*
X23622000Y1270000D03*
X21082000Y1270000D03*
X23622000Y3810000D03*
X21082000Y3810000D03*
X23622000Y6350000D03*
X21082000Y6350000D03*
%TD*%
D22*
%TO.C,J1*%
X94742000Y-22860000D03*
D21*
X94742000Y-25400000D03*
X94742000Y-27940000D03*
X94742000Y-30480000D03*
X94742000Y-33020000D03*
%TD*%
D22*
%TO.C,J3*%
X94742000Y22860000D03*
D21*
X94742000Y25400000D03*
X94742000Y27940000D03*
X94742000Y30480000D03*
X94742000Y33020000D03*
%TD*%
D27*
%TO.C,BZ1*%
X77639216Y-33274000D03*
D28*
X82639216Y-33274000D03*
%TD*%
D29*
%TO.C,A1*%
X30480000Y-19050000D03*
D30*
X30480000Y-16510000D03*
X30480000Y-13970000D03*
X30480000Y-11430000D03*
X30480000Y-8890000D03*
X30480000Y-6350000D03*
X30480000Y-3810000D03*
X30480000Y-1270000D03*
X30480000Y1270000D03*
X30480000Y3810000D03*
X30480000Y6350000D03*
X30480000Y8890000D03*
X30480000Y11430000D03*
X30480000Y13970000D03*
X30480000Y16510000D03*
X30480000Y19050000D03*
X50800000Y19050000D03*
X50800000Y16510000D03*
X50800000Y13970000D03*
X50800000Y11430000D03*
X50800000Y8890000D03*
X50800000Y6350000D03*
X50800000Y3810000D03*
X50800000Y1270000D03*
X50800000Y-1270000D03*
X50800000Y-3810000D03*
X50800000Y-6350000D03*
X50800000Y-8890000D03*
%TD*%
%LPD*%
M02*
