%TF.GenerationSoftware,KiCad,Pcbnew,7.0.8*%
%TF.CreationDate,2023-10-27T12:06:26-04:00*%
%TF.ProjectId,top_plate,746f705f-706c-4617-9465-2e6b69636164,rev?*%
%TF.SameCoordinates,PX2faf080PY5f5e100*%
%TF.FileFunction,Soldermask,Bot*%
%TF.FilePolarity,Negative*%
%FSLAX46Y46*%
G04 Gerber Fmt 4.6, Leading zero omitted, Abs format (unit mm)*
G04 Created by KiCad (PCBNEW 7.0.8) date 2023-10-27 12:06:26*
%MOMM*%
%LPD*%
G01*
G04 APERTURE LIST*
G04 Aperture macros list*
%AMRoundRect*
0 Rectangle with rounded corners*
0 $1 Rounding radius*
0 $2 $3 $4 $5 $6 $7 $8 $9 X,Y pos of 4 corners*
0 Add a 4 corners polygon primitive as box body*
4,1,4,$2,$3,$4,$5,$6,$7,$8,$9,$2,$3,0*
0 Add four circle primitives for the rounded corners*
1,1,$1+$1,$2,$3*
1,1,$1+$1,$4,$5*
1,1,$1+$1,$6,$7*
1,1,$1+$1,$8,$9*
0 Add four rect primitives between the rounded corners*
20,1,$1+$1,$2,$3,$4,$5,0*
20,1,$1+$1,$4,$5,$6,$7,0*
20,1,$1+$1,$6,$7,$8,$9,0*
20,1,$1+$1,$8,$9,$2,$3,0*%
G04 Aperture macros list end*
%ADD10C,5.600000*%
%ADD11RoundRect,0.250000X-0.625000X0.350000X-0.625000X-0.350000X0.625000X-0.350000X0.625000X0.350000X0*%
%ADD12O,1.750000X1.200000*%
%ADD13C,1.700000*%
%ADD14O,1.700000X1.700000*%
%ADD15R,1.700000X1.700000*%
%ADD16C,4.220000*%
%ADD17R,2.000000X2.000000*%
%ADD18C,2.000000*%
%ADD19R,1.600000X1.600000*%
%ADD20C,1.600000*%
G04 APERTURE END LIST*
D10*
%TO.C,REF\u002A\u002A*%
X4500000Y-43500000D03*
%TD*%
D11*
%TO.C,J5*%
X61000000Y-15000000D03*
D12*
X61000000Y-17000000D03*
X61000000Y-19000000D03*
X61000000Y-21000000D03*
%TD*%
D13*
%TO.C,J7*%
X56000000Y-14000000D03*
D14*
X56000000Y-16540000D03*
X56000000Y-19080000D03*
X56000000Y-21620000D03*
%TD*%
D10*
%TO.C,REF\u002A\u002A*%
X63000000Y-40000000D03*
%TD*%
D15*
%TO.C,J10*%
X58669000Y21834000D03*
D14*
X61209000Y21834000D03*
X58669000Y19294000D03*
X61209000Y19294000D03*
X58669000Y16754000D03*
X61209000Y16754000D03*
X58669000Y14214000D03*
X61209000Y14214000D03*
%TD*%
D10*
%TO.C,REF\u002A\u002A*%
X4500000Y43500000D03*
%TD*%
D13*
%TO.C,J6*%
X95000000Y-3810000D03*
D14*
X95000000Y-1270000D03*
X95000000Y1270000D03*
X95000000Y3810000D03*
%TD*%
D10*
%TO.C,REF\u002A\u002A*%
X93000000Y40000000D03*
%TD*%
D16*
%TO.C,M1*%
X86000000Y10000000D03*
%TD*%
%TO.C,M2*%
X86000000Y-10000000D03*
%TD*%
D10*
%TO.C,REF\u002A\u002A*%
X63000000Y40000000D03*
%TD*%
%TO.C,REF\u002A\u002A*%
X93000000Y-40000000D03*
%TD*%
%TO.C,REF\u002A\u002A*%
X23000000Y-40000000D03*
%TD*%
%TO.C,REF\u002A\u002A*%
X23000000Y40000000D03*
%TD*%
D15*
%TO.C,J2*%
X23622000Y-6350000D03*
D14*
X21082000Y-6350000D03*
X23622000Y-3810000D03*
X21082000Y-3810000D03*
X23622000Y-1270000D03*
X21082000Y-1270000D03*
X23622000Y1270000D03*
X21082000Y1270000D03*
X23622000Y3810000D03*
X21082000Y3810000D03*
X23622000Y6350000D03*
X21082000Y6350000D03*
%TD*%
D15*
%TO.C,J1*%
X94742000Y-22860000D03*
D14*
X94742000Y-25400000D03*
X94742000Y-27940000D03*
X94742000Y-30480000D03*
X94742000Y-33020000D03*
%TD*%
D15*
%TO.C,J3*%
X94742000Y22860000D03*
D14*
X94742000Y25400000D03*
X94742000Y27940000D03*
X94742000Y30480000D03*
X94742000Y33020000D03*
%TD*%
D17*
%TO.C,BZ1*%
X77639216Y-33274000D03*
D18*
X82639216Y-33274000D03*
%TD*%
D19*
%TO.C,A1*%
X30480000Y-19050000D03*
D20*
X30480000Y-16510000D03*
X30480000Y-13970000D03*
X30480000Y-11430000D03*
X30480000Y-8890000D03*
X30480000Y-6350000D03*
X30480000Y-3810000D03*
X30480000Y-1270000D03*
X30480000Y1270000D03*
X30480000Y3810000D03*
X30480000Y6350000D03*
X30480000Y8890000D03*
X30480000Y11430000D03*
X30480000Y13970000D03*
X30480000Y16510000D03*
X30480000Y19050000D03*
X50800000Y19050000D03*
X50800000Y16510000D03*
X50800000Y13970000D03*
X50800000Y11430000D03*
X50800000Y8890000D03*
X50800000Y6350000D03*
X50800000Y3810000D03*
X50800000Y1270000D03*
X50800000Y-1270000D03*
X50800000Y-3810000D03*
X50800000Y-6350000D03*
X50800000Y-8890000D03*
%TD*%
M02*
