%TF.GenerationSoftware,KiCad,Pcbnew,7.0.8*%
%TF.CreationDate,2023-10-27T12:06:26-04:00*%
%TF.ProjectId,top_plate,746f705f-706c-4617-9465-2e6b69636164,rev?*%
%TF.SameCoordinates,PX2faf080PY5f5e100*%
%TF.FileFunction,Copper,L1,Top*%
%TF.FilePolarity,Positive*%
%FSLAX46Y46*%
G04 Gerber Fmt 4.6, Leading zero omitted, Abs format (unit mm)*
G04 Created by KiCad (PCBNEW 7.0.8) date 2023-10-27 12:06:26*
%MOMM*%
%LPD*%
G01*
G04 APERTURE LIST*
G04 Aperture macros list*
%AMRoundRect*
0 Rectangle with rounded corners*
0 $1 Rounding radius*
0 $2 $3 $4 $5 $6 $7 $8 $9 X,Y pos of 4 corners*
0 Add a 4 corners polygon primitive as box body*
4,1,4,$2,$3,$4,$5,$6,$7,$8,$9,$2,$3,0*
0 Add four circle primitives for the rounded corners*
1,1,$1+$1,$2,$3*
1,1,$1+$1,$4,$5*
1,1,$1+$1,$6,$7*
1,1,$1+$1,$8,$9*
0 Add four rect primitives between the rounded corners*
20,1,$1+$1,$2,$3,$4,$5,0*
20,1,$1+$1,$4,$5,$6,$7,0*
20,1,$1+$1,$6,$7,$8,$9,0*
20,1,$1+$1,$8,$9,$2,$3,0*%
%AMFreePoly0*
4,1,111,-2.563245,3.679731,-2.180727,3.619146,-1.806637,3.518909,-1.445074,3.380118,-1.100000,3.204294,-0.775195,2.993363,-0.474217,2.749636,-0.200364,2.475783,0.043363,2.174805,0.254294,1.850000,0.430118,1.504926,0.568909,1.143363,0.669146,0.769273,0.729731,0.386755,0.750000,0.000000,0.729731,-0.386755,0.669146,-0.769273,0.568909,-1.143363,0.430118,-1.504926,0.254294,-1.850000,
0.043363,-2.174805,-0.200364,-2.475783,-0.474217,-2.749636,-0.775195,-2.993363,-1.100000,-3.204294,-1.445074,-3.380118,-1.806637,-3.518909,-2.180727,-3.619146,-2.563245,-3.679731,-2.950000,-3.700000,-3.336755,-3.679731,-3.719273,-3.619146,-4.093363,-3.518909,-4.454926,-3.380118,-4.800000,-3.204294,-5.124805,-2.993363,-5.425783,-2.749636,-5.699636,-2.475783,-5.943363,-2.174805,-6.154294,-1.850000,
-6.330118,-1.504926,-6.468909,-1.143363,-6.569146,-0.769273,-6.629731,-0.386755,-6.650000,0.000000,-5.154720,0.000000,-5.135858,-0.287774,-5.079596,-0.570624,-4.986896,-0.843710,-4.859344,-1.102360,-4.699122,-1.342148,-4.508972,-1.558972,-4.292148,-1.749122,-4.052360,-1.909344,-3.793710,-2.036896,-3.520624,-2.129596,-3.237774,-2.185858,-2.950000,-2.204720,-2.662226,-2.185858,-2.379376,-2.129596,
-2.106290,-2.036896,-1.847640,-1.909344,-1.607852,-1.749122,-1.391028,-1.558972,-1.200878,-1.342148,-1.040656,-1.102360,-0.913104,-0.843710,-0.820404,-0.570624,-0.764142,-0.287774,-0.745280,0.000000,-0.764142,0.287774,-0.820404,0.570624,-0.913104,0.843710,-1.040656,1.102360,-1.200878,1.342148,-1.391028,1.558972,-1.607852,1.749122,-1.847640,1.909344,-2.106290,2.036896,-2.379376,2.129596,
-2.662226,2.185858,-2.950000,2.204720,-3.237774,2.185858,-3.520624,2.129596,-3.793710,2.036896,-4.052360,1.909344,-4.292148,1.749122,-4.508972,1.558972,-4.699122,1.342148,-4.859344,1.102360,-4.986896,0.843710,-5.079596,0.570624,-5.135858,0.287774,-5.154720,0.000000,-6.650000,0.000000,-6.629731,0.386755,-6.569146,0.769273,-6.468909,1.143363,-6.330118,1.504926,-6.154294,1.850000,
-5.943363,2.174805,-5.699636,2.475783,-5.425783,2.749636,-5.124805,2.993363,-4.800000,3.204294,-4.454926,3.380118,-4.093363,3.518909,-3.719273,3.619146,-3.336755,3.679731,-2.950000,3.700000,-2.563245,3.679731,-2.563245,3.679731,$1*%
G04 Aperture macros list end*
%TA.AperFunction,ComponentPad*%
%ADD10C,5.600000*%
%TD*%
%TA.AperFunction,SMDPad,CuDef*%
%ADD11R,0.850000X1.600000*%
%TD*%
%TA.AperFunction,SMDPad,CuDef*%
%ADD12RoundRect,0.200000X0.200000X0.275000X-0.200000X0.275000X-0.200000X-0.275000X0.200000X-0.275000X0*%
%TD*%
%TA.AperFunction,ComponentPad*%
%ADD13RoundRect,0.250000X-0.625000X0.350000X-0.625000X-0.350000X0.625000X-0.350000X0.625000X0.350000X0*%
%TD*%
%TA.AperFunction,ComponentPad*%
%ADD14O,1.750000X1.200000*%
%TD*%
%TA.AperFunction,SMDPad,CuDef*%
%ADD15RoundRect,0.225000X0.250000X-0.225000X0.250000X0.225000X-0.250000X0.225000X-0.250000X-0.225000X0*%
%TD*%
%TA.AperFunction,ComponentPad*%
%ADD16C,1.700000*%
%TD*%
%TA.AperFunction,ComponentPad*%
%ADD17O,1.700000X1.700000*%
%TD*%
%TA.AperFunction,ComponentPad*%
%ADD18R,1.700000X1.700000*%
%TD*%
%TA.AperFunction,SMDPad,CuDef*%
%ADD19RoundRect,0.150000X0.150000X0.625000X-0.150000X0.625000X-0.150000X-0.625000X0.150000X-0.625000X0*%
%TD*%
%TA.AperFunction,SMDPad,CuDef*%
%ADD20RoundRect,0.250000X0.350000X0.650000X-0.350000X0.650000X-0.350000X-0.650000X0.350000X-0.650000X0*%
%TD*%
%TA.AperFunction,SMDPad,CuDef*%
%ADD21C,1.100000*%
%TD*%
%TA.AperFunction,SMDPad,CuDef*%
%ADD22FreePoly0,0.000000*%
%TD*%
%TA.AperFunction,ComponentPad*%
%ADD23R,2.000000X2.000000*%
%TD*%
%TA.AperFunction,ComponentPad*%
%ADD24C,2.000000*%
%TD*%
%TA.AperFunction,ComponentPad*%
%ADD25R,1.600000X1.600000*%
%TD*%
%TA.AperFunction,ComponentPad*%
%ADD26C,1.600000*%
%TD*%
%TA.AperFunction,ViaPad*%
%ADD27C,0.800000*%
%TD*%
%TA.AperFunction,Conductor*%
%ADD28C,0.304800*%
%TD*%
%TA.AperFunction,Conductor*%
%ADD29C,0.203200*%
%TD*%
%TA.AperFunction,Conductor*%
%ADD30C,0.609600*%
%TD*%
G04 APERTURE END LIST*
D10*
%TO.P,REF\u002A\u002A,1*%
%TO.N,N/C*%
X4500000Y-43500000D03*
%TD*%
D11*
%TO.P,D2,1,DOUT*%
%TO.N,unconnected-(D2-DOUT-Pad1)*%
X5955000Y34770000D03*
%TO.P,D2,2,VSS*%
%TO.N,GND*%
X4205000Y34770000D03*
%TO.P,D2,3,DIN*%
%TO.N,Net-(D1-DOUT)*%
X4205000Y31270000D03*
%TO.P,D2,4,VDD*%
%TO.N,VCC*%
X5955000Y31270000D03*
%TD*%
D12*
%TO.P,R2,1*%
%TO.N,+3V3*%
X60769000Y10414000D03*
%TO.P,R2,2*%
%TO.N,/SDA*%
X59119000Y10414000D03*
%TD*%
D13*
%TO.P,J5,1,Pin_1*%
%TO.N,/SDA*%
X61000000Y-15000000D03*
D14*
%TO.P,J5,2,Pin_2*%
%TO.N,/SCL*%
X61000000Y-17000000D03*
%TO.P,J5,3,Pin_3*%
%TO.N,GND*%
X61000000Y-19000000D03*
%TO.P,J5,4,Pin_4*%
%TO.N,VCC*%
X61000000Y-21000000D03*
%TD*%
D15*
%TO.P,C1,1*%
%TO.N,VCC*%
X8890000Y-33795000D03*
%TO.P,C1,2*%
%TO.N,GND*%
X8890000Y-32245000D03*
%TD*%
D12*
%TO.P,R1,1*%
%TO.N,+3V3*%
X60515000Y-9144000D03*
%TO.P,R1,2*%
%TO.N,/SCL*%
X58865000Y-9144000D03*
%TD*%
D16*
%TO.P,J7,1,Pin_1*%
%TO.N,/SDA*%
X56000000Y-14000000D03*
D17*
%TO.P,J7,2,Pin_2*%
%TO.N,/SCL*%
X56000000Y-16540000D03*
%TO.P,J7,3,Pin_3*%
%TO.N,GND*%
X56000000Y-19080000D03*
%TO.P,J7,4,Pin_4*%
%TO.N,VCC*%
X56000000Y-21620000D03*
%TD*%
D10*
%TO.P,REF\u002A\u002A,1*%
%TO.N,N/C*%
X63000000Y-40000000D03*
%TD*%
D18*
%TO.P,J10,1,Pin_1*%
%TO.N,GND*%
X58669000Y21834000D03*
D17*
%TO.P,J10,2,Pin_2*%
X61209000Y21834000D03*
%TO.P,J10,3,Pin_3*%
%TO.N,+3V3*%
X58669000Y19294000D03*
%TO.P,J10,4,Pin_4*%
X61209000Y19294000D03*
%TO.P,J10,5,Pin_5*%
%TO.N,/TX*%
X58669000Y16754000D03*
%TO.P,J10,6,Pin_6*%
%TO.N,/A1*%
X61209000Y16754000D03*
%TO.P,J10,7,Pin_7*%
%TO.N,/RX*%
X58669000Y14214000D03*
%TO.P,J10,8,Pin_8*%
%TO.N,/A2*%
X61209000Y14214000D03*
%TD*%
D10*
%TO.P,REF\u002A\u002A,1*%
%TO.N,N/C*%
X4500000Y43500000D03*
%TD*%
D16*
%TO.P,J6,1,Pin_1*%
%TO.N,+3V3*%
X95000000Y-3810000D03*
D17*
%TO.P,J6,2,Pin_2*%
%TO.N,/D10*%
X95000000Y-1270000D03*
%TO.P,J6,3,Pin_3*%
%TO.N,/D9*%
X95000000Y1270000D03*
%TO.P,J6,4,Pin_4*%
%TO.N,GND*%
X95000000Y3810000D03*
%TD*%
D19*
%TO.P,J9,1,Pin_1*%
%TO.N,GND*%
X61500007Y7325001D03*
%TO.P,J9,2,Pin_2*%
%TO.N,+3V3*%
X60500007Y7325001D03*
%TO.P,J9,3,Pin_3*%
%TO.N,/SDA*%
X59500007Y7325001D03*
%TO.P,J9,4,Pin_4*%
%TO.N,/SCL*%
X58500007Y7325001D03*
D20*
%TO.P,J9,MP*%
%TO.N,N/C*%
X62800007Y4800001D03*
X57200007Y4800001D03*
%TD*%
D10*
%TO.P,REF\u002A\u002A,1*%
%TO.N,N/C*%
X93000000Y40000000D03*
%TD*%
D19*
%TO.P,J8,1,Pin_1*%
%TO.N,GND*%
X61500007Y-3675000D03*
%TO.P,J8,2,Pin_2*%
%TO.N,+3V3*%
X60500007Y-3675000D03*
%TO.P,J8,3,Pin_3*%
%TO.N,/SDA*%
X59500007Y-3675000D03*
%TO.P,J8,4,Pin_4*%
%TO.N,/SCL*%
X58500007Y-3675000D03*
D20*
%TO.P,J8,MP*%
%TO.N,N/C*%
X62800007Y-6200000D03*
X57200007Y-6200000D03*
%TD*%
D21*
%TO.P,M1,1*%
%TO.N,N/C*%
X83050000Y10000000D03*
X86000000Y12950000D03*
X86000000Y7050000D03*
D22*
X88950000Y10000000D03*
%TD*%
D11*
%TO.P,D1,1,DOUT*%
%TO.N,Net-(D1-DOUT)*%
X5955000Y-31270000D03*
%TO.P,D1,2,VSS*%
%TO.N,GND*%
X4205000Y-31270000D03*
%TO.P,D1,3,DIN*%
%TO.N,/NEOPXL*%
X4205000Y-34770000D03*
%TO.P,D1,4,VDD*%
%TO.N,VCC*%
X5955000Y-34770000D03*
%TD*%
D21*
%TO.P,M2,1*%
%TO.N,N/C*%
X83050000Y-10000000D03*
X86000000Y-7050000D03*
X86000000Y-12950000D03*
D22*
X88950000Y-10000000D03*
%TD*%
D10*
%TO.P,REF\u002A\u002A,1*%
%TO.N,N/C*%
X63000000Y40000000D03*
%TD*%
%TO.P,REF\u002A\u002A,1*%
%TO.N,N/C*%
X93000000Y-40000000D03*
%TD*%
%TO.P,REF\u002A\u002A,1*%
%TO.N,N/C*%
X23000000Y-40000000D03*
%TD*%
D15*
%TO.P,C2,1*%
%TO.N,VCC*%
X8890000Y32245000D03*
%TO.P,C2,2*%
%TO.N,GND*%
X8890000Y33795000D03*
%TD*%
D10*
%TO.P,REF\u002A\u002A,1*%
%TO.N,N/C*%
X23000000Y40000000D03*
%TD*%
D18*
%TO.P,J2,1,Pin_1*%
%TO.N,GND*%
X23622000Y-6350000D03*
D17*
%TO.P,J2,2,Pin_2*%
%TO.N,VCC*%
X21082000Y-6350000D03*
%TO.P,J2,3,Pin_3*%
%TO.N,/RESET*%
X23622000Y-3810000D03*
%TO.P,J2,4,Pin_4*%
%TO.N,/A3*%
X21082000Y-3810000D03*
%TO.P,J2,5,Pin_5*%
%TO.N,/A4*%
X23622000Y-1270000D03*
%TO.P,J2,6,Pin_6*%
%TO.N,/A5*%
X21082000Y-1270000D03*
%TO.P,J2,7,Pin_7*%
%TO.N,/SCK*%
X23622000Y1270000D03*
%TO.P,J2,8,Pin_8*%
%TO.N,/MOSI*%
X21082000Y1270000D03*
%TO.P,J2,9,Pin_9*%
%TO.N,/SCL*%
X23622000Y3810000D03*
%TO.P,J2,10,Pin_10*%
%TO.N,/MISO*%
X21082000Y3810000D03*
%TO.P,J2,11,Pin_11*%
%TO.N,/SDA*%
X23622000Y6350000D03*
%TO.P,J2,12,Pin_12*%
%TO.N,+3V3*%
X21082000Y6350000D03*
%TD*%
D18*
%TO.P,J1,1,Pin_1*%
%TO.N,GND*%
X94742000Y-22860000D03*
D17*
%TO.P,J1,2,Pin_2*%
%TO.N,/D11-XSHUT2*%
X94742000Y-25400000D03*
%TO.P,J1,3,Pin_3*%
%TO.N,/D12*%
X94742000Y-27940000D03*
%TO.P,J1,4,Pin_4*%
%TO.N,unconnected-(J1-Pin_4-Pad4)*%
X94742000Y-30480000D03*
%TO.P,J1,5,Pin_5*%
%TO.N,VCC*%
X94742000Y-33020000D03*
%TD*%
D18*
%TO.P,J3,1,Pin_1*%
%TO.N,GND*%
X94742000Y22860000D03*
D17*
%TO.P,J3,2,Pin_2*%
%TO.N,/D5-XSHUT1*%
X94742000Y25400000D03*
%TO.P,J3,3,Pin_3*%
%TO.N,/SCL*%
X94742000Y27940000D03*
%TO.P,J3,4,Pin_4*%
%TO.N,/SDA*%
X94742000Y30480000D03*
%TO.P,J3,5,Pin_5*%
%TO.N,+3V3*%
X94742000Y33020000D03*
%TD*%
D23*
%TO.P,BZ1,1,-*%
%TO.N,/D13-BUZZ*%
X77639216Y-33274000D03*
D24*
%TO.P,BZ1,2,+*%
%TO.N,GND*%
X82639216Y-33274000D03*
%TD*%
D25*
%TO.P,A1,1,~{RESET}*%
%TO.N,/RESET*%
X30480000Y-19050000D03*
D26*
%TO.P,A1,2,3V3*%
%TO.N,unconnected-(A1-3V3-Pad2)*%
X30480000Y-16510000D03*
%TO.P,A1,3,AREF*%
%TO.N,unconnected-(A1-AREF-Pad3)*%
X30480000Y-13970000D03*
%TO.P,A1,4,GND*%
%TO.N,GND*%
X30480000Y-11430000D03*
%TO.P,A1,5,A0*%
%TO.N,/NEOPXL*%
X30480000Y-8890000D03*
%TO.P,A1,6,A1*%
%TO.N,/A1*%
X30480000Y-6350000D03*
%TO.P,A1,7,A2*%
%TO.N,/A2*%
X30480000Y-3810000D03*
%TO.P,A1,8,A3*%
%TO.N,/A3*%
X30480000Y-1270000D03*
%TO.P,A1,9,A4*%
%TO.N,/A4*%
X30480000Y1270000D03*
%TO.P,A1,10,A5*%
%TO.N,/A5*%
X30480000Y3810000D03*
%TO.P,A1,11,SCK*%
%TO.N,/SCK*%
X30480000Y6350000D03*
%TO.P,A1,12,MOSI*%
%TO.N,/MOSI*%
X30480000Y8890000D03*
%TO.P,A1,13,MISO*%
%TO.N,/MISO*%
X30480000Y11430000D03*
%TO.P,A1,14,RX*%
%TO.N,/RX*%
X30480000Y13970000D03*
%TO.P,A1,15,TX*%
%TO.N,/TX*%
X30480000Y16510000D03*
%TO.P,A1,16,SPARE*%
%TO.N,unconnected-(A1-SPARE-Pad16)*%
X30480000Y19050000D03*
%TO.P,A1,17,SDA*%
%TO.N,/SDA*%
X50800000Y19050000D03*
%TO.P,A1,18,SCL*%
%TO.N,/SCL*%
X50800000Y16510000D03*
%TO.P,A1,19,D0*%
%TO.N,/D5-XSHUT1*%
X50800000Y13970000D03*
%TO.P,A1,20,D1*%
%TO.N,/D6*%
X50800000Y11430000D03*
%TO.P,A1,21,D2*%
%TO.N,/D9*%
X50800000Y8890000D03*
%TO.P,A1,22,D3*%
%TO.N,/D10*%
X50800000Y6350000D03*
%TO.P,A1,23,D4*%
%TO.N,/D11-XSHUT2*%
X50800000Y3810000D03*
%TO.P,A1,24,D5*%
%TO.N,/D12*%
X50800000Y1270000D03*
%TO.P,A1,25,D6*%
%TO.N,/D13-BUZZ*%
X50800000Y-1270000D03*
%TO.P,A1,26,USB*%
%TO.N,/VUSB*%
X50800000Y-3810000D03*
%TO.P,A1,27,EN*%
%TO.N,unconnected-(A1-EN-Pad27)*%
X50800000Y-6350000D03*
%TO.P,A1,28,VBAT*%
%TO.N,VCC*%
X50800000Y-8890000D03*
%TD*%
D27*
%TO.N,/SDA*%
X59436000Y-5588000D03*
%TO.N,VCC*%
X6096000Y28956000D03*
X8918000Y-34770000D03*
%TO.N,/D5-XSHUT1*%
X91186000Y25400000D03*
%TO.N,+3V3*%
X54102000Y27940000D03*
%TO.N,/RX*%
X53086000Y14224000D03*
%TO.N,Net-(D1-DOUT)*%
X5955000Y-29859000D03*
X4205000Y28956000D03*
%TO.N,/NEOPXL*%
X34290000Y-23622000D03*
X4318000Y-36830000D03*
%TO.N,/D13-BUZZ*%
X48768000Y-23876000D03*
%TD*%
D28*
%TO.N,GND*%
X61500000Y7325000D02*
X61500000Y-3675000D01*
D29*
%TO.N,/SDA*%
X50800000Y19050000D02*
X54190800Y15659200D01*
X57466210Y10414000D02*
X59119000Y10414000D01*
X54190800Y15659200D02*
X54190800Y13689410D01*
X59500007Y-3675000D02*
X59500007Y-5523993D01*
X59500007Y-5523993D02*
X59436000Y-5588000D01*
X59119000Y9715000D02*
X59500000Y9334000D01*
X59119000Y10414000D02*
X59119000Y9715000D01*
X54190800Y13689410D02*
X57466210Y10414000D01*
X59500000Y9334000D02*
X59500000Y-3675000D01*
%TO.N,/SCL*%
X57912000Y-10160000D02*
X57912000Y-16510000D01*
X58500007Y-3675000D02*
X58500007Y-6830007D01*
X53787600Y14792400D02*
X53787600Y13522400D01*
X58500007Y-6830007D02*
X58865000Y-7195000D01*
X53787600Y13522400D02*
X58500007Y8809993D01*
X58460000Y-17000000D02*
X61000000Y-17000000D01*
X58500000Y7324994D02*
X58500000Y-3675000D01*
X58500007Y8809993D02*
X58500007Y7325001D01*
X58865000Y-7195000D02*
X58865000Y-9144000D01*
X52070000Y16510000D02*
X53787600Y14792400D01*
X58865000Y-9207000D02*
X57912000Y-10160000D01*
X58000000Y-16540000D02*
X58460000Y-17000000D01*
X56000000Y-16540000D02*
X58000000Y-16540000D01*
X50800000Y16510000D02*
X52070000Y16510000D01*
%TO.N,VCC*%
X7607000Y32245000D02*
X8890000Y32245000D01*
X5955000Y31270000D02*
X6632000Y31270000D01*
X6632000Y31270000D02*
X7607000Y32245000D01*
X8890000Y-34544000D02*
X9116000Y-34770000D01*
D30*
X6096000Y31129000D02*
X5955000Y31270000D01*
X6096000Y28956000D02*
X6096000Y31129000D01*
D29*
X8890000Y-33795000D02*
X8890000Y-34544000D01*
D30*
X8918000Y-34770000D02*
X5955000Y-34770000D01*
D29*
%TO.N,/D5-XSHUT1*%
X94742000Y25400000D02*
X91186000Y25400000D01*
D28*
%TO.N,+3V3*%
X60769000Y10477000D02*
X62738000Y12446000D01*
D30*
X53848000Y20828000D02*
X53848000Y27686000D01*
D28*
X60706000Y10160000D02*
X60500000Y9954000D01*
X62738000Y18796000D02*
X62240000Y19294000D01*
X62738000Y12446000D02*
X62738000Y18796000D01*
D30*
X58669000Y19294000D02*
X61209000Y19294000D01*
X58669000Y19294000D02*
X57389000Y20574000D01*
X53848000Y27686000D02*
X54102000Y27940000D01*
D28*
X62240000Y19294000D02*
X61209000Y19294000D01*
D30*
X54102000Y20574000D02*
X53848000Y20828000D01*
D28*
X60500000Y-9129000D02*
X60500000Y9954000D01*
D30*
X57389000Y20574000D02*
X54102000Y20574000D01*
D29*
%TO.N,/A3*%
X30480000Y-1270000D02*
X29210000Y-2540000D01*
X29210000Y-2540000D02*
X22352000Y-2540000D01*
X22352000Y-2540000D02*
X21082000Y-3810000D01*
%TO.N,/A4*%
X30480000Y1270000D02*
X27940000Y-1270000D01*
X27940000Y-1270000D02*
X23622000Y-1270000D01*
%TO.N,/A5*%
X26670000Y0D02*
X22352000Y0D01*
X30480000Y3810000D02*
X26670000Y0D01*
X22352000Y0D02*
X21082000Y-1270000D01*
%TO.N,/SCK*%
X25400000Y1270000D02*
X23622000Y1270000D01*
X30480000Y6350000D02*
X25400000Y1270000D01*
%TO.N,/MOSI*%
X30480000Y8890000D02*
X28702000Y7112000D01*
X22352000Y2540000D02*
X21082000Y1270000D01*
X25400000Y2540000D02*
X22352000Y2540000D01*
X28702000Y7112000D02*
X28702000Y5842000D01*
X28702000Y5842000D02*
X25400000Y2540000D01*
%TO.N,/MISO*%
X27178000Y5080000D02*
X28194000Y6096000D01*
X21082000Y3810000D02*
X22352000Y5080000D01*
X28194000Y6096000D02*
X28194000Y10414000D01*
X29210000Y11430000D02*
X30480000Y11430000D01*
X28194000Y10414000D02*
X29210000Y11430000D01*
X22352000Y5080000D02*
X27178000Y5080000D01*
%TO.N,/RX*%
X51562000Y12700000D02*
X34544000Y12700000D01*
X33274000Y13970000D02*
X30480000Y13970000D01*
X53086000Y14224000D02*
X51562000Y12700000D01*
X34544000Y12700000D02*
X33274000Y13970000D01*
%TO.N,/TX*%
X58669000Y16754000D02*
X57389000Y18034000D01*
X52324000Y27686000D02*
X28956000Y27686000D01*
X53086000Y26924000D02*
X52324000Y27686000D01*
X28956000Y27686000D02*
X28448000Y27178000D01*
X28448000Y17526000D02*
X29464000Y16510000D01*
X29464000Y16510000D02*
X30480000Y16510000D01*
X57389000Y18034000D02*
X53594000Y18034000D01*
X53086000Y18542000D02*
X53086000Y26924000D01*
X53594000Y18034000D02*
X53086000Y18542000D01*
X28448000Y27178000D02*
X28448000Y17526000D01*
%TO.N,Net-(D1-DOUT)*%
X4205000Y28956000D02*
X4205000Y31270000D01*
X5955000Y-31270000D02*
X5955000Y-29859000D01*
%TO.N,/NEOPXL*%
X34290000Y-23622000D02*
X34290000Y-12700000D01*
X4318000Y-36830000D02*
X4205000Y-36717000D01*
X34290000Y-12700000D02*
X30480000Y-8890000D01*
X4205000Y-36717000D02*
X4205000Y-34770000D01*
%TO.N,/D13-BUZZ*%
X40894000Y-7366000D02*
X46990000Y-1270000D01*
X40894000Y-21844000D02*
X42926000Y-23876000D01*
X42926000Y-23876000D02*
X48768000Y-23876000D01*
X40894000Y-7366000D02*
X40894000Y-21844000D01*
X50800000Y-1270000D02*
X46990000Y-1270000D01*
%TD*%
%TA.AperFunction,Conductor*%
%TO.N,GND*%
G36*
X60749507Y22043844D02*
G01*
X60709000Y21905889D01*
X60709000Y21762111D01*
X60749507Y21624156D01*
X60777884Y21580000D01*
X59100116Y21580000D01*
X59128493Y21624156D01*
X59169000Y21762111D01*
X59169000Y21905889D01*
X59128493Y22043844D01*
X59100116Y22088000D01*
X60777884Y22088000D01*
X60749507Y22043844D01*
G37*
%TD.AperFunction*%
%TA.AperFunction,Conductor*%
G36*
X98941621Y47979498D02*
G01*
X98988114Y47925842D01*
X98999500Y47873500D01*
X98999500Y-47873500D01*
X98979498Y-47941621D01*
X98925842Y-47988114D01*
X98873500Y-47999500D01*
X5000000Y-47999500D01*
X4782728Y-47990513D01*
X4584114Y-47981841D01*
X4579067Y-47981417D01*
X4363319Y-47954524D01*
X4162764Y-47928119D01*
X4158058Y-47927317D01*
X3945826Y-47882818D01*
X3747521Y-47838855D01*
X3743179Y-47837729D01*
X3535496Y-47775899D01*
X3341390Y-47714697D01*
X3337433Y-47713303D01*
X3135566Y-47634536D01*
X2947257Y-47556535D01*
X2943696Y-47554929D01*
X2749007Y-47459751D01*
X2568029Y-47365540D01*
X2564870Y-47363779D01*
X2378617Y-47252797D01*
X2206367Y-47143061D01*
X2203608Y-47141200D01*
X2027081Y-47015162D01*
X1864913Y-46890726D01*
X1862548Y-46888819D01*
X1696940Y-46748557D01*
X1635859Y-46692587D01*
X1545104Y-46609425D01*
X1390574Y-46454895D01*
X1251439Y-46303055D01*
X1111179Y-46137450D01*
X1109272Y-46135085D01*
X984837Y-45972918D01*
X858798Y-45796390D01*
X856937Y-45793631D01*
X747202Y-45621382D01*
X636219Y-45435129D01*
X634458Y-45431969D01*
X540248Y-45250992D01*
X445069Y-45056302D01*
X443463Y-45052741D01*
X376567Y-44891240D01*
X365472Y-44864457D01*
X286695Y-44662565D01*
X285309Y-44658634D01*
X224112Y-44464544D01*
X162263Y-44256799D01*
X161153Y-44252516D01*
X117175Y-44054145D01*
X111495Y-44027057D01*
X72680Y-43841936D01*
X71879Y-43837233D01*
X65931Y-43792060D01*
X45489Y-43636792D01*
X28438Y-43500003D01*
X1186641Y-43500003D01*
X1206064Y-43858237D01*
X1264103Y-44212269D01*
X1360084Y-44557959D01*
X1464202Y-44819276D01*
X1492877Y-44891243D01*
X1554924Y-45008276D01*
X1660922Y-45208210D01*
X1660924Y-45208214D01*
X1777058Y-45379499D01*
X1862258Y-45505159D01*
X2094516Y-45778595D01*
X2354962Y-46025304D01*
X2354977Y-46025317D01*
X2640586Y-46242431D01*
X2947995Y-46427393D01*
X3273599Y-46578033D01*
X3613583Y-46692587D01*
X3963958Y-46769711D01*
X4320618Y-46808500D01*
X4320626Y-46808500D01*
X4679374Y-46808500D01*
X4679382Y-46808500D01*
X5036042Y-46769711D01*
X5386417Y-46692587D01*
X5726401Y-46578033D01*
X6052005Y-46427393D01*
X6359414Y-46242431D01*
X6645023Y-46025317D01*
X6905484Y-45778595D01*
X7137742Y-45505159D01*
X7339075Y-45208215D01*
X7507123Y-44891243D01*
X7639915Y-44557961D01*
X7735895Y-44212274D01*
X7793936Y-43858237D01*
X7813359Y-43500000D01*
X7793936Y-43141763D01*
X7735895Y-42787726D01*
X7639915Y-42442039D01*
X7507123Y-42108757D01*
X7339075Y-41791785D01*
X7137742Y-41494841D01*
X6905484Y-41221405D01*
X6905483Y-41221404D01*
X6645037Y-40974695D01*
X6645022Y-40974682D01*
X6359418Y-40757572D01*
X6359412Y-40757568D01*
X6052010Y-40572610D01*
X6052009Y-40572609D01*
X6052005Y-40572607D01*
X5726401Y-40421967D01*
X5386417Y-40307413D01*
X5338915Y-40296956D01*
X5036054Y-40230291D01*
X5036030Y-40230287D01*
X4679389Y-40191500D01*
X4679382Y-40191500D01*
X4320618Y-40191500D01*
X4320610Y-40191500D01*
X3963969Y-40230287D01*
X3963945Y-40230291D01*
X3613587Y-40307412D01*
X3613573Y-40307416D01*
X3273601Y-40421966D01*
X2947989Y-40572610D01*
X2640587Y-40757568D01*
X2640581Y-40757572D01*
X2354977Y-40974682D01*
X2354962Y-40974695D01*
X2094516Y-41221404D01*
X1862256Y-41494843D01*
X1660924Y-41791785D01*
X1660922Y-41791789D01*
X1492876Y-42108759D01*
X1492872Y-42108768D01*
X1360084Y-42442040D01*
X1264103Y-42787730D01*
X1206064Y-43141762D01*
X1186641Y-43499996D01*
X1186641Y-43500003D01*
X28438Y-43500003D01*
X18577Y-43420889D01*
X18159Y-43415917D01*
X9488Y-43217318D01*
X500Y-43000000D01*
X500Y-42999500D01*
X500Y-40000003D01*
X19686641Y-40000003D01*
X19706064Y-40358237D01*
X19764103Y-40712269D01*
X19836966Y-40974695D01*
X19860085Y-41057961D01*
X19992877Y-41391243D01*
X20098478Y-41590428D01*
X20160922Y-41708210D01*
X20160924Y-41708214D01*
X20343001Y-41976757D01*
X20362258Y-42005159D01*
X20450264Y-42108768D01*
X20594516Y-42278595D01*
X20854962Y-42525304D01*
X20854977Y-42525317D01*
X21140586Y-42742431D01*
X21447995Y-42927393D01*
X21773599Y-43078033D01*
X22113583Y-43192587D01*
X22463958Y-43269711D01*
X22820618Y-43308500D01*
X22820626Y-43308500D01*
X23179374Y-43308500D01*
X23179382Y-43308500D01*
X23536042Y-43269711D01*
X23886417Y-43192587D01*
X24226401Y-43078033D01*
X24552005Y-42927393D01*
X24859414Y-42742431D01*
X25145023Y-42525317D01*
X25405484Y-42278595D01*
X25637742Y-42005159D01*
X25839075Y-41708215D01*
X26007123Y-41391243D01*
X26139915Y-41057961D01*
X26235895Y-40712274D01*
X26293936Y-40358237D01*
X26313359Y-40000003D01*
X59686641Y-40000003D01*
X59706064Y-40358237D01*
X59764103Y-40712269D01*
X59836966Y-40974695D01*
X59860085Y-41057961D01*
X59992877Y-41391243D01*
X60098478Y-41590428D01*
X60160922Y-41708210D01*
X60160924Y-41708214D01*
X60343001Y-41976757D01*
X60362258Y-42005159D01*
X60450264Y-42108768D01*
X60594516Y-42278595D01*
X60854962Y-42525304D01*
X60854977Y-42525317D01*
X61140586Y-42742431D01*
X61447995Y-42927393D01*
X61773599Y-43078033D01*
X62113583Y-43192587D01*
X62463958Y-43269711D01*
X62820618Y-43308500D01*
X62820626Y-43308500D01*
X63179374Y-43308500D01*
X63179382Y-43308500D01*
X63536042Y-43269711D01*
X63886417Y-43192587D01*
X64226401Y-43078033D01*
X64552005Y-42927393D01*
X64859414Y-42742431D01*
X65145023Y-42525317D01*
X65405484Y-42278595D01*
X65637742Y-42005159D01*
X65839075Y-41708215D01*
X66007123Y-41391243D01*
X66139915Y-41057961D01*
X66235895Y-40712274D01*
X66293936Y-40358237D01*
X66313359Y-40000003D01*
X89686641Y-40000003D01*
X89706064Y-40358237D01*
X89764103Y-40712269D01*
X89836966Y-40974695D01*
X89860085Y-41057961D01*
X89992877Y-41391243D01*
X90098478Y-41590428D01*
X90160922Y-41708210D01*
X90160924Y-41708214D01*
X90343001Y-41976757D01*
X90362258Y-42005159D01*
X90450264Y-42108768D01*
X90594516Y-42278595D01*
X90854962Y-42525304D01*
X90854977Y-42525317D01*
X91140586Y-42742431D01*
X91447995Y-42927393D01*
X91773599Y-43078033D01*
X92113583Y-43192587D01*
X92463958Y-43269711D01*
X92820618Y-43308500D01*
X92820626Y-43308500D01*
X93179374Y-43308500D01*
X93179382Y-43308500D01*
X93536042Y-43269711D01*
X93886417Y-43192587D01*
X94226401Y-43078033D01*
X94552005Y-42927393D01*
X94859414Y-42742431D01*
X95145023Y-42525317D01*
X95405484Y-42278595D01*
X95637742Y-42005159D01*
X95839075Y-41708215D01*
X96007123Y-41391243D01*
X96139915Y-41057961D01*
X96235895Y-40712274D01*
X96293936Y-40358237D01*
X96313359Y-40000000D01*
X96293936Y-39641763D01*
X96235895Y-39287726D01*
X96139915Y-38942039D01*
X96007123Y-38608757D01*
X95839075Y-38291785D01*
X95637742Y-37994841D01*
X95405484Y-37721405D01*
X95381613Y-37698793D01*
X95145037Y-37474695D01*
X95145022Y-37474682D01*
X94859418Y-37257572D01*
X94859412Y-37257568D01*
X94552010Y-37072610D01*
X94552009Y-37072609D01*
X94552005Y-37072607D01*
X94226401Y-36921967D01*
X93886417Y-36807413D01*
X93838915Y-36796956D01*
X93536054Y-36730291D01*
X93536030Y-36730287D01*
X93179389Y-36691500D01*
X93179382Y-36691500D01*
X92820618Y-36691500D01*
X92820610Y-36691500D01*
X92463969Y-36730287D01*
X92463945Y-36730291D01*
X92113587Y-36807412D01*
X92113573Y-36807416D01*
X91773601Y-36921966D01*
X91773599Y-36921967D01*
X91561862Y-37019927D01*
X91447989Y-37072610D01*
X91140587Y-37257568D01*
X91140581Y-37257572D01*
X90854977Y-37474682D01*
X90854962Y-37474695D01*
X90594516Y-37721404D01*
X90362256Y-37994843D01*
X90160924Y-38291785D01*
X90160922Y-38291789D01*
X89992876Y-38608759D01*
X89992872Y-38608768D01*
X89860084Y-38942040D01*
X89764103Y-39287730D01*
X89706064Y-39641762D01*
X89686641Y-39999996D01*
X89686641Y-40000003D01*
X66313359Y-40000003D01*
X66313359Y-40000000D01*
X66293936Y-39641763D01*
X66235895Y-39287726D01*
X66139915Y-38942039D01*
X66007123Y-38608757D01*
X65839075Y-38291785D01*
X65637742Y-37994841D01*
X65405484Y-37721405D01*
X65381613Y-37698793D01*
X65145037Y-37474695D01*
X65145022Y-37474682D01*
X64859418Y-37257572D01*
X64859412Y-37257568D01*
X64552010Y-37072610D01*
X64552009Y-37072609D01*
X64552005Y-37072607D01*
X64226401Y-36921967D01*
X63886417Y-36807413D01*
X63838915Y-36796956D01*
X63536054Y-36730291D01*
X63536030Y-36730287D01*
X63179389Y-36691500D01*
X63179382Y-36691500D01*
X62820618Y-36691500D01*
X62820610Y-36691500D01*
X62463969Y-36730287D01*
X62463945Y-36730291D01*
X62113587Y-36807412D01*
X62113573Y-36807416D01*
X61773601Y-36921966D01*
X61773599Y-36921967D01*
X61561862Y-37019927D01*
X61447989Y-37072610D01*
X61140587Y-37257568D01*
X61140581Y-37257572D01*
X60854977Y-37474682D01*
X60854962Y-37474695D01*
X60594516Y-37721404D01*
X60362256Y-37994843D01*
X60160924Y-38291785D01*
X60160922Y-38291789D01*
X59992876Y-38608759D01*
X59992872Y-38608768D01*
X59860084Y-38942040D01*
X59764103Y-39287730D01*
X59706064Y-39641762D01*
X59686641Y-39999996D01*
X59686641Y-40000003D01*
X26313359Y-40000003D01*
X26313359Y-40000000D01*
X26293936Y-39641763D01*
X26235895Y-39287726D01*
X26139915Y-38942039D01*
X26007123Y-38608757D01*
X25839075Y-38291785D01*
X25637742Y-37994841D01*
X25405484Y-37721405D01*
X25381613Y-37698793D01*
X25145037Y-37474695D01*
X25145022Y-37474682D01*
X24859418Y-37257572D01*
X24859412Y-37257568D01*
X24552010Y-37072610D01*
X24552009Y-37072609D01*
X24552005Y-37072607D01*
X24226401Y-36921967D01*
X23886417Y-36807413D01*
X23838915Y-36796956D01*
X23536054Y-36730291D01*
X23536030Y-36730287D01*
X23179389Y-36691500D01*
X23179382Y-36691500D01*
X22820618Y-36691500D01*
X22820610Y-36691500D01*
X22463969Y-36730287D01*
X22463945Y-36730291D01*
X22113587Y-36807412D01*
X22113573Y-36807416D01*
X21773601Y-36921966D01*
X21773599Y-36921967D01*
X21561862Y-37019927D01*
X21447989Y-37072610D01*
X21140587Y-37257568D01*
X21140581Y-37257572D01*
X20854977Y-37474682D01*
X20854962Y-37474695D01*
X20594516Y-37721404D01*
X20362256Y-37994843D01*
X20160924Y-38291785D01*
X20160922Y-38291789D01*
X19992876Y-38608759D01*
X19992872Y-38608768D01*
X19860084Y-38942040D01*
X19764103Y-39287730D01*
X19706064Y-39641762D01*
X19686641Y-39999996D01*
X19686641Y-40000003D01*
X500Y-40000003D01*
X500Y-35618649D01*
X3271500Y-35618649D01*
X3278009Y-35679196D01*
X3278011Y-35679204D01*
X3329110Y-35816202D01*
X3329112Y-35816207D01*
X3416738Y-35933261D01*
X3541010Y-36026290D01*
X3539354Y-36028501D01*
X3579474Y-36068603D01*
X3594900Y-36129013D01*
X3594900Y-36231685D01*
X3578019Y-36294685D01*
X3483476Y-36458438D01*
X3483473Y-36458445D01*
X3424457Y-36640072D01*
X3404496Y-36830000D01*
X3424457Y-37019927D01*
X3454526Y-37112470D01*
X3483473Y-37201556D01*
X3483476Y-37201561D01*
X3578958Y-37366941D01*
X3578965Y-37366951D01*
X3706744Y-37508864D01*
X3706747Y-37508866D01*
X3861248Y-37621118D01*
X4035712Y-37698794D01*
X4222513Y-37738500D01*
X4413487Y-37738500D01*
X4600288Y-37698794D01*
X4774752Y-37621118D01*
X4929253Y-37508866D01*
X4960021Y-37474695D01*
X5057034Y-37366951D01*
X5057035Y-37366949D01*
X5057040Y-37366944D01*
X5152527Y-37201556D01*
X5211542Y-37019928D01*
X5231504Y-36830000D01*
X5211542Y-36640072D01*
X5152527Y-36458444D01*
X5057040Y-36293056D01*
X5057038Y-36293054D01*
X5057034Y-36293048D01*
X4930142Y-36152120D01*
X4899424Y-36088113D01*
X4908189Y-36017659D01*
X4948269Y-35966942D01*
X5000475Y-35927861D01*
X5001820Y-35929657D01*
X5053217Y-35901592D01*
X5124032Y-35906657D01*
X5158712Y-35928945D01*
X5159525Y-35927861D01*
X5283792Y-36020887D01*
X5283794Y-36020888D01*
X5283796Y-36020889D01*
X5342875Y-36042924D01*
X5420795Y-36071988D01*
X5420803Y-36071990D01*
X5481350Y-36078499D01*
X5481355Y-36078499D01*
X5481362Y-36078500D01*
X5481368Y-36078500D01*
X6428632Y-36078500D01*
X6428638Y-36078500D01*
X6428645Y-36078499D01*
X6428649Y-36078499D01*
X6489196Y-36071990D01*
X6489199Y-36071989D01*
X6489201Y-36071989D01*
X6626204Y-36020889D01*
X6743261Y-35933261D01*
X6766968Y-35901592D01*
X6830887Y-35816207D01*
X6830887Y-35816206D01*
X6830889Y-35816204D01*
X6881989Y-35679201D01*
X6884744Y-35671816D01*
X6886247Y-35672376D01*
X6916862Y-35618623D01*
X6979773Y-35585720D01*
X7004347Y-35583300D01*
X8484287Y-35583300D01*
X8535536Y-35594193D01*
X8635712Y-35638794D01*
X8822513Y-35678500D01*
X9013487Y-35678500D01*
X9200288Y-35638794D01*
X9374752Y-35561118D01*
X9529253Y-35448866D01*
X9657040Y-35306944D01*
X9752527Y-35141556D01*
X9811542Y-34959928D01*
X9831504Y-34770000D01*
X9811542Y-34580072D01*
X9776014Y-34470733D01*
X9773987Y-34399767D01*
X9788607Y-34365651D01*
X9809302Y-34332101D01*
X9812434Y-34322649D01*
X76130716Y-34322649D01*
X76137225Y-34383196D01*
X76137227Y-34383204D01*
X76188326Y-34520202D01*
X76188328Y-34520207D01*
X76275954Y-34637261D01*
X76393008Y-34724887D01*
X76393010Y-34724888D01*
X76393012Y-34724889D01*
X76452091Y-34746924D01*
X76530011Y-34775988D01*
X76530019Y-34775990D01*
X76590566Y-34782499D01*
X76590571Y-34782499D01*
X76590578Y-34782500D01*
X76590584Y-34782500D01*
X78687848Y-34782500D01*
X78687854Y-34782500D01*
X78687861Y-34782499D01*
X78687865Y-34782499D01*
X78748412Y-34775990D01*
X78748415Y-34775989D01*
X78748417Y-34775989D01*
X78885420Y-34724889D01*
X79002477Y-34637261D01*
X79090105Y-34520204D01*
X79141205Y-34383201D01*
X79141711Y-34378500D01*
X79147715Y-34322649D01*
X79147716Y-34322632D01*
X79147716Y-33274000D01*
X81126553Y-33274000D01*
X81145176Y-33510632D01*
X81200587Y-33741437D01*
X81291422Y-33960733D01*
X81406113Y-34147891D01*
X82154854Y-33399150D01*
X82179723Y-33483844D01*
X82257455Y-33604798D01*
X82366116Y-33698952D01*
X82496901Y-33758680D01*
X82511628Y-33760797D01*
X81765323Y-34507101D01*
X81765323Y-34507102D01*
X81952477Y-34621791D01*
X82171778Y-34712628D01*
X82402583Y-34768039D01*
X82639216Y-34786662D01*
X82875848Y-34768039D01*
X83106653Y-34712628D01*
X83325954Y-34621791D01*
X83513107Y-34507102D01*
X83513108Y-34507101D01*
X82766804Y-33760797D01*
X82781531Y-33758680D01*
X82912316Y-33698952D01*
X83020977Y-33604798D01*
X83098709Y-33483844D01*
X83123576Y-33399151D01*
X83872317Y-34147892D01*
X83872318Y-34147891D01*
X83987007Y-33960738D01*
X84077844Y-33741437D01*
X84133255Y-33510632D01*
X84151878Y-33274000D01*
X84133255Y-33037367D01*
X84129086Y-33020000D01*
X93378844Y-33020000D01*
X93393934Y-33202111D01*
X93397437Y-33244375D01*
X93452702Y-33462612D01*
X93452703Y-33462613D01*
X93452704Y-33462616D01*
X93527533Y-33633210D01*
X93543141Y-33668793D01*
X93666275Y-33857265D01*
X93666279Y-33857270D01*
X93818762Y-34022908D01*
X93873331Y-34065381D01*
X93996424Y-34161189D01*
X94194426Y-34268342D01*
X94194427Y-34268342D01*
X94194428Y-34268343D01*
X94306227Y-34306723D01*
X94407365Y-34341444D01*
X94629431Y-34378500D01*
X94629435Y-34378500D01*
X94854565Y-34378500D01*
X94854569Y-34378500D01*
X95076635Y-34341444D01*
X95289574Y-34268342D01*
X95487576Y-34161189D01*
X95665240Y-34022906D01*
X95817722Y-33857268D01*
X95940860Y-33668791D01*
X96031296Y-33462616D01*
X96086564Y-33244368D01*
X96105156Y-33020000D01*
X96086564Y-32795632D01*
X96041893Y-32619229D01*
X96031297Y-32577387D01*
X96031296Y-32577386D01*
X96031296Y-32577384D01*
X95940860Y-32371209D01*
X95934140Y-32360924D01*
X95817724Y-32182734D01*
X95817720Y-32182729D01*
X95665237Y-32017091D01*
X95548468Y-31926206D01*
X95487576Y-31878811D01*
X95472717Y-31870770D01*
X95454320Y-31860814D01*
X95403929Y-31810802D01*
X95388576Y-31741485D01*
X95413136Y-31674872D01*
X95454320Y-31639186D01*
X95487576Y-31621189D01*
X95665240Y-31482906D01*
X95817722Y-31317268D01*
X95940860Y-31128791D01*
X96031296Y-30922616D01*
X96086564Y-30704368D01*
X96105156Y-30480000D01*
X96086564Y-30255632D01*
X96061618Y-30157124D01*
X96031297Y-30037387D01*
X96031296Y-30037386D01*
X96031296Y-30037384D01*
X95940860Y-29831209D01*
X95834931Y-29669072D01*
X95817724Y-29642734D01*
X95817720Y-29642729D01*
X95665237Y-29477091D01*
X95583382Y-29413381D01*
X95487576Y-29338811D01*
X95454319Y-29320813D01*
X95403929Y-29270802D01*
X95388576Y-29201485D01*
X95413136Y-29134872D01*
X95454320Y-29099186D01*
X95487576Y-29081189D01*
X95665240Y-28942906D01*
X95817722Y-28777268D01*
X95940860Y-28588791D01*
X96031296Y-28382616D01*
X96086564Y-28164368D01*
X96105156Y-27940000D01*
X96086564Y-27715632D01*
X96031296Y-27497384D01*
X95940860Y-27291209D01*
X95934140Y-27280924D01*
X95817724Y-27102734D01*
X95817720Y-27102729D01*
X95665237Y-26937091D01*
X95583382Y-26873381D01*
X95487576Y-26798811D01*
X95454319Y-26780813D01*
X95403929Y-26730802D01*
X95388576Y-26661485D01*
X95413136Y-26594872D01*
X95454320Y-26559186D01*
X95487576Y-26541189D01*
X95665240Y-26402906D01*
X95817722Y-26237268D01*
X95940860Y-26048791D01*
X96031296Y-25842616D01*
X96086564Y-25624368D01*
X96105156Y-25400000D01*
X96086564Y-25175632D01*
X96031296Y-24957384D01*
X95940860Y-24751209D01*
X95885920Y-24667117D01*
X95817724Y-24562734D01*
X95817714Y-24562722D01*
X95674159Y-24406782D01*
X95642737Y-24343117D01*
X95650723Y-24272571D01*
X95695582Y-24217542D01*
X95722827Y-24203388D01*
X95837965Y-24160444D01*
X95954904Y-24072904D01*
X96042444Y-23955965D01*
X96042444Y-23955964D01*
X96093494Y-23819093D01*
X96099999Y-23758597D01*
X96100000Y-23758585D01*
X96100000Y-23114000D01*
X95173116Y-23114000D01*
X95201493Y-23069844D01*
X95242000Y-22931889D01*
X95242000Y-22788111D01*
X95201493Y-22650156D01*
X95173116Y-22606000D01*
X96100000Y-22606000D01*
X96100000Y-21961414D01*
X96099999Y-21961402D01*
X96093494Y-21900906D01*
X96042444Y-21764035D01*
X96042444Y-21764034D01*
X95954904Y-21647095D01*
X95837965Y-21559555D01*
X95701093Y-21508505D01*
X95640597Y-21502000D01*
X94996000Y-21502000D01*
X94996000Y-22426325D01*
X94884315Y-22375320D01*
X94777763Y-22360000D01*
X94706237Y-22360000D01*
X94599685Y-22375320D01*
X94488000Y-22426325D01*
X94488000Y-21502000D01*
X93843402Y-21502000D01*
X93782906Y-21508505D01*
X93646035Y-21559555D01*
X93646034Y-21559555D01*
X93529095Y-21647095D01*
X93441555Y-21764034D01*
X93441555Y-21764035D01*
X93390505Y-21900906D01*
X93384000Y-21961402D01*
X93384000Y-22606000D01*
X94310884Y-22606000D01*
X94282507Y-22650156D01*
X94242000Y-22788111D01*
X94242000Y-22931889D01*
X94282507Y-23069844D01*
X94310884Y-23114000D01*
X93384000Y-23114000D01*
X93384000Y-23758597D01*
X93390505Y-23819093D01*
X93441555Y-23955964D01*
X93441555Y-23955965D01*
X93529095Y-24072904D01*
X93646034Y-24160444D01*
X93761172Y-24203388D01*
X93818008Y-24245935D01*
X93842819Y-24312455D01*
X93827728Y-24381829D01*
X93809841Y-24406782D01*
X93666280Y-24562729D01*
X93666275Y-24562734D01*
X93543141Y-24751206D01*
X93452703Y-24957386D01*
X93452702Y-24957387D01*
X93397437Y-25175624D01*
X93378844Y-25400000D01*
X93397437Y-25624375D01*
X93452702Y-25842612D01*
X93452703Y-25842613D01*
X93543141Y-26048793D01*
X93666275Y-26237265D01*
X93666279Y-26237270D01*
X93818762Y-26402908D01*
X93873331Y-26445381D01*
X93996424Y-26541189D01*
X94029680Y-26559186D01*
X94080071Y-26609200D01*
X94095423Y-26678516D01*
X94070862Y-26745129D01*
X94029680Y-26780813D01*
X93996426Y-26798810D01*
X93996424Y-26798811D01*
X93818762Y-26937091D01*
X93666279Y-27102729D01*
X93666275Y-27102734D01*
X93543141Y-27291206D01*
X93452703Y-27497386D01*
X93452702Y-27497387D01*
X93397437Y-27715624D01*
X93378844Y-27940000D01*
X93397437Y-28164375D01*
X93452702Y-28382612D01*
X93452703Y-28382613D01*
X93543141Y-28588793D01*
X93666275Y-28777265D01*
X93666279Y-28777270D01*
X93818762Y-28942908D01*
X93873331Y-28985381D01*
X93996424Y-29081189D01*
X94029680Y-29099186D01*
X94080071Y-29149200D01*
X94095423Y-29218516D01*
X94070862Y-29285129D01*
X94029680Y-29320813D01*
X93996426Y-29338810D01*
X93996424Y-29338811D01*
X93818762Y-29477091D01*
X93666279Y-29642729D01*
X93666275Y-29642734D01*
X93543141Y-29831206D01*
X93452703Y-30037386D01*
X93452702Y-30037387D01*
X93397437Y-30255624D01*
X93397436Y-30255630D01*
X93397436Y-30255632D01*
X93388721Y-30360803D01*
X93378844Y-30480000D01*
X93397437Y-30704375D01*
X93452702Y-30922612D01*
X93452703Y-30922613D01*
X93543141Y-31128793D01*
X93666275Y-31317265D01*
X93666279Y-31317270D01*
X93818762Y-31482908D01*
X93871557Y-31524000D01*
X93996424Y-31621189D01*
X94029680Y-31639186D01*
X94080071Y-31689200D01*
X94095423Y-31758516D01*
X94070862Y-31825129D01*
X94029680Y-31860813D01*
X93996426Y-31878810D01*
X93996424Y-31878811D01*
X93818762Y-32017091D01*
X93666279Y-32182729D01*
X93666275Y-32182734D01*
X93543141Y-32371206D01*
X93452703Y-32577386D01*
X93452702Y-32577387D01*
X93397437Y-32795624D01*
X93397436Y-32795630D01*
X93397436Y-32795632D01*
X93378844Y-33020000D01*
X84129086Y-33020000D01*
X84077844Y-32806562D01*
X83987007Y-32587261D01*
X83872318Y-32400107D01*
X83872317Y-32400107D01*
X83123576Y-33148848D01*
X83098709Y-33064156D01*
X83020977Y-32943202D01*
X82912316Y-32849048D01*
X82781531Y-32789320D01*
X82766803Y-32787202D01*
X83513107Y-32040897D01*
X83325949Y-31926206D01*
X83106653Y-31835371D01*
X82875848Y-31779960D01*
X82639216Y-31761337D01*
X82402583Y-31779960D01*
X82171778Y-31835371D01*
X81952478Y-31926208D01*
X81765323Y-32040896D01*
X81765323Y-32040898D01*
X82511627Y-32787202D01*
X82496901Y-32789320D01*
X82366116Y-32849048D01*
X82257455Y-32943202D01*
X82179723Y-33064156D01*
X82154855Y-33148848D01*
X81406114Y-32400107D01*
X81406112Y-32400107D01*
X81291424Y-32587262D01*
X81200587Y-32806562D01*
X81145176Y-33037367D01*
X81126553Y-33274000D01*
X79147716Y-33274000D01*
X79147716Y-32225367D01*
X79147715Y-32225350D01*
X79141206Y-32164803D01*
X79141204Y-32164795D01*
X79090105Y-32027797D01*
X79090103Y-32027792D01*
X79002477Y-31910738D01*
X78885423Y-31823112D01*
X78885418Y-31823110D01*
X78748420Y-31772011D01*
X78748412Y-31772009D01*
X78687865Y-31765500D01*
X78687854Y-31765500D01*
X76590578Y-31765500D01*
X76590566Y-31765500D01*
X76530019Y-31772009D01*
X76530011Y-31772011D01*
X76393013Y-31823110D01*
X76393008Y-31823112D01*
X76275954Y-31910738D01*
X76188328Y-32027792D01*
X76188326Y-32027797D01*
X76137227Y-32164795D01*
X76137225Y-32164803D01*
X76130716Y-32225350D01*
X76130716Y-34322649D01*
X9812434Y-34322649D01*
X9863236Y-34169336D01*
X9866035Y-34141936D01*
X9873500Y-34068880D01*
X9873500Y-33521119D01*
X9863236Y-33420666D01*
X9863236Y-33420664D01*
X9809302Y-33257899D01*
X9719285Y-33111960D01*
X9716070Y-33108745D01*
X9682043Y-33046438D01*
X9687104Y-32975622D01*
X9716072Y-32930546D01*
X9718890Y-32927727D01*
X9808847Y-32781884D01*
X9862742Y-32619241D01*
X9862744Y-32619229D01*
X9872999Y-32518852D01*
X9873000Y-32518852D01*
X9873000Y-32499000D01*
X7907000Y-32499000D01*
X7907000Y-32518852D01*
X7917255Y-32619229D01*
X7917257Y-32619241D01*
X7971152Y-32781884D01*
X8061109Y-32927728D01*
X8061114Y-32927734D01*
X8063932Y-32930552D01*
X8065248Y-32932963D01*
X8065662Y-32933486D01*
X8065572Y-32933556D01*
X8097958Y-32992864D01*
X8092893Y-33063679D01*
X8063932Y-33108742D01*
X8060720Y-33111953D01*
X8060715Y-33111959D01*
X7970698Y-33257899D01*
X7916763Y-33420666D01*
X7906500Y-33521119D01*
X7906500Y-33830700D01*
X7886498Y-33898821D01*
X7832842Y-33945314D01*
X7780500Y-33956700D01*
X7004347Y-33956700D01*
X6936226Y-33936698D01*
X6889733Y-33883042D01*
X6883456Y-33864731D01*
X6830889Y-33723797D01*
X6830887Y-33723792D01*
X6743261Y-33606738D01*
X6626207Y-33519112D01*
X6626202Y-33519110D01*
X6489204Y-33468011D01*
X6489196Y-33468009D01*
X6428649Y-33461500D01*
X6428638Y-33461500D01*
X5481362Y-33461500D01*
X5481350Y-33461500D01*
X5420803Y-33468009D01*
X5420795Y-33468011D01*
X5283797Y-33519110D01*
X5283792Y-33519112D01*
X5159525Y-33612139D01*
X5158179Y-33610342D01*
X5106783Y-33638408D01*
X5035968Y-33633343D01*
X5001287Y-33611054D01*
X5000475Y-33612139D01*
X4876207Y-33519112D01*
X4876202Y-33519110D01*
X4739204Y-33468011D01*
X4739196Y-33468009D01*
X4678649Y-33461500D01*
X4678638Y-33461500D01*
X3731362Y-33461500D01*
X3731350Y-33461500D01*
X3670803Y-33468009D01*
X3670795Y-33468011D01*
X3533797Y-33519110D01*
X3533792Y-33519112D01*
X3416738Y-33606738D01*
X3329112Y-33723792D01*
X3329110Y-33723797D01*
X3278011Y-33860795D01*
X3278009Y-33860803D01*
X3271500Y-33921350D01*
X3271500Y-35618649D01*
X500Y-35618649D01*
X500Y-31524000D01*
X3272000Y-31524000D01*
X3272000Y-32118597D01*
X3278505Y-32179093D01*
X3329555Y-32315964D01*
X3329555Y-32315965D01*
X3417095Y-32432904D01*
X3534034Y-32520444D01*
X3670906Y-32571494D01*
X3731402Y-32577999D01*
X3731415Y-32578000D01*
X3951000Y-32578000D01*
X4459000Y-32578000D01*
X4678585Y-32578000D01*
X4678597Y-32577999D01*
X4739093Y-32571494D01*
X4875963Y-32520445D01*
X5000117Y-32427503D01*
X5001463Y-32429301D01*
X5052843Y-32401238D01*
X5123660Y-32406294D01*
X5158777Y-32428859D01*
X5159525Y-32427861D01*
X5283792Y-32520887D01*
X5283794Y-32520888D01*
X5283796Y-32520889D01*
X5342875Y-32542924D01*
X5420795Y-32571988D01*
X5420803Y-32571990D01*
X5481350Y-32578499D01*
X5481355Y-32578499D01*
X5481362Y-32578500D01*
X5481368Y-32578500D01*
X6428632Y-32578500D01*
X6428638Y-32578500D01*
X6428645Y-32578499D01*
X6428649Y-32578499D01*
X6489196Y-32571990D01*
X6489199Y-32571989D01*
X6489201Y-32571989D01*
X6626204Y-32520889D01*
X6626799Y-32520444D01*
X6743261Y-32433261D01*
X6830887Y-32316207D01*
X6830887Y-32316206D01*
X6830889Y-32316204D01*
X6881989Y-32179201D01*
X6883538Y-32164799D01*
X6888499Y-32118649D01*
X6888500Y-32118632D01*
X6888500Y-31991000D01*
X7907000Y-31991000D01*
X8636000Y-31991000D01*
X8636000Y-31287000D01*
X9144000Y-31287000D01*
X9144000Y-31991000D01*
X9873000Y-31991000D01*
X9873000Y-31971147D01*
X9862744Y-31870770D01*
X9862742Y-31870758D01*
X9808847Y-31708115D01*
X9718890Y-31562271D01*
X9718885Y-31562265D01*
X9597734Y-31441114D01*
X9597728Y-31441109D01*
X9451884Y-31351152D01*
X9289241Y-31297257D01*
X9289229Y-31297255D01*
X9188852Y-31287000D01*
X9144000Y-31287000D01*
X8636000Y-31287000D01*
X8591147Y-31287000D01*
X8490770Y-31297255D01*
X8490758Y-31297257D01*
X8328115Y-31351152D01*
X8182271Y-31441109D01*
X8182265Y-31441114D01*
X8061114Y-31562265D01*
X8061109Y-31562271D01*
X7971152Y-31708115D01*
X7917257Y-31870758D01*
X7917255Y-31870770D01*
X7907000Y-31971147D01*
X7907000Y-31991000D01*
X6888500Y-31991000D01*
X6888500Y-30421367D01*
X6888499Y-30421350D01*
X6881990Y-30360803D01*
X6881988Y-30360795D01*
X6827740Y-30215353D01*
X6829774Y-30214594D01*
X6817271Y-30157124D01*
X6823115Y-30127181D01*
X6848542Y-30048928D01*
X6868504Y-29859000D01*
X6848542Y-29669072D01*
X6789527Y-29487444D01*
X6694040Y-29322056D01*
X6694038Y-29322054D01*
X6694034Y-29322048D01*
X6566255Y-29180135D01*
X6411752Y-29067882D01*
X6237288Y-28990206D01*
X6050487Y-28950500D01*
X5859513Y-28950500D01*
X5672711Y-28990206D01*
X5498247Y-29067882D01*
X5343744Y-29180135D01*
X5215965Y-29322048D01*
X5215958Y-29322058D01*
X5120476Y-29487438D01*
X5120473Y-29487445D01*
X5061457Y-29669072D01*
X5041496Y-29858999D01*
X5044549Y-29888046D01*
X5031777Y-29957884D01*
X4983275Y-30009731D01*
X4914442Y-30027125D01*
X4875207Y-30019272D01*
X4739094Y-29968505D01*
X4678597Y-29962000D01*
X4459000Y-29962000D01*
X4459000Y-32578000D01*
X3951000Y-32578000D01*
X3951000Y-31524000D01*
X3272000Y-31524000D01*
X500Y-31524000D01*
X500Y-31016000D01*
X3272000Y-31016000D01*
X3951000Y-31016000D01*
X3951000Y-29962000D01*
X3731402Y-29962000D01*
X3670906Y-29968505D01*
X3534035Y-30019555D01*
X3534034Y-30019555D01*
X3417095Y-30107095D01*
X3329555Y-30224034D01*
X3329555Y-30224035D01*
X3278505Y-30360906D01*
X3272000Y-30421402D01*
X3272000Y-31016000D01*
X500Y-31016000D01*
X500Y-20000000D01*
X9493Y-19782569D01*
X18159Y-19584078D01*
X18576Y-19579114D01*
X45485Y-19363241D01*
X71879Y-19162764D01*
X72678Y-19158071D01*
X117191Y-18945778D01*
X161156Y-18747470D01*
X162259Y-18743214D01*
X224112Y-18535457D01*
X285315Y-18341346D01*
X286695Y-18337433D01*
X365469Y-18135551D01*
X443475Y-17947229D01*
X445051Y-17943735D01*
X540251Y-17749000D01*
X634492Y-17567965D01*
X636197Y-17564907D01*
X747211Y-17378601D01*
X856956Y-17206337D01*
X858769Y-17203650D01*
X984856Y-17027054D01*
X1109303Y-16864874D01*
X1111169Y-16862561D01*
X1251448Y-16696933D01*
X1390563Y-16545115D01*
X1545115Y-16390563D01*
X1696933Y-16251448D01*
X1862561Y-16111169D01*
X1864874Y-16109303D01*
X2027054Y-15984856D01*
X2203650Y-15858769D01*
X2206337Y-15856956D01*
X2378601Y-15747211D01*
X2564907Y-15636197D01*
X2567965Y-15634492D01*
X2748973Y-15540264D01*
X2943735Y-15445051D01*
X2947229Y-15443475D01*
X3135551Y-15365469D01*
X3337441Y-15286691D01*
X3341346Y-15285315D01*
X3535457Y-15224112D01*
X3743214Y-15162259D01*
X3747470Y-15161156D01*
X3945778Y-15117191D01*
X4158071Y-15072678D01*
X4162765Y-15071879D01*
X4363241Y-15045485D01*
X4579114Y-15018576D01*
X4584078Y-15018159D01*
X4782569Y-15009493D01*
X5000000Y-15000500D01*
X5000500Y-15000500D01*
X16974842Y-15000500D01*
X16974985Y-15000528D01*
X16974986Y-15000524D01*
X16999997Y-15000539D01*
X17000000Y-15000541D01*
X17000383Y-15000383D01*
X17000500Y-15000099D01*
X17000541Y-15000000D01*
X17000540Y-14999998D01*
X17000541Y-14999998D01*
X17000584Y-14975500D01*
X17000500Y-14975072D01*
X17000500Y-6350000D01*
X19718844Y-6350000D01*
X19736232Y-6559844D01*
X19737437Y-6574375D01*
X19792702Y-6792612D01*
X19792703Y-6792613D01*
X19792704Y-6792616D01*
X19839256Y-6898745D01*
X19883141Y-6998793D01*
X20006275Y-7187265D01*
X20006279Y-7187270D01*
X20158762Y-7352908D01*
X20162992Y-7356200D01*
X20336424Y-7491189D01*
X20534426Y-7598342D01*
X20534427Y-7598342D01*
X20534428Y-7598343D01*
X20646227Y-7636723D01*
X20747365Y-7671444D01*
X20969431Y-7708500D01*
X20969435Y-7708500D01*
X21194565Y-7708500D01*
X21194569Y-7708500D01*
X21416635Y-7671444D01*
X21629574Y-7598342D01*
X21827576Y-7491189D01*
X22005240Y-7352906D01*
X22066626Y-7286222D01*
X22127476Y-7249654D01*
X22198441Y-7251787D01*
X22256986Y-7291949D01*
X22277380Y-7327529D01*
X22321553Y-7445961D01*
X22321555Y-7445965D01*
X22409095Y-7562904D01*
X22526034Y-7650444D01*
X22662906Y-7701494D01*
X22723402Y-7707999D01*
X22723415Y-7708000D01*
X23368000Y-7708000D01*
X23368000Y-6783674D01*
X23479685Y-6834680D01*
X23586237Y-6850000D01*
X23657763Y-6850000D01*
X23764315Y-6834680D01*
X23876000Y-6783674D01*
X23876000Y-7708000D01*
X24520585Y-7708000D01*
X24520597Y-7707999D01*
X24581093Y-7701494D01*
X24717964Y-7650444D01*
X24717965Y-7650444D01*
X24834904Y-7562904D01*
X24922444Y-7445965D01*
X24922444Y-7445964D01*
X24973494Y-7309093D01*
X24979999Y-7248597D01*
X24980000Y-7248585D01*
X24980000Y-6604000D01*
X24053116Y-6604000D01*
X24081493Y-6559844D01*
X24122000Y-6421889D01*
X24122000Y-6278111D01*
X24081493Y-6140156D01*
X24053116Y-6096000D01*
X24980000Y-6096000D01*
X24980000Y-5451414D01*
X24979999Y-5451402D01*
X24973494Y-5390906D01*
X24922444Y-5254035D01*
X24922444Y-5254034D01*
X24834904Y-5137095D01*
X24717966Y-5049556D01*
X24602826Y-5006611D01*
X24545991Y-4964064D01*
X24521180Y-4897543D01*
X24536272Y-4828169D01*
X24554154Y-4803222D01*
X24697722Y-4647268D01*
X24820860Y-4458791D01*
X24911296Y-4252616D01*
X24966564Y-4034368D01*
X24985156Y-3810000D01*
X24966564Y-3585632D01*
X24965622Y-3581913D01*
X24911297Y-3367387D01*
X24911296Y-3367386D01*
X24911296Y-3367384D01*
X24893455Y-3326712D01*
X24884410Y-3256295D01*
X24914871Y-3192165D01*
X24975167Y-3154684D01*
X25008844Y-3150100D01*
X29128736Y-3150100D01*
X29144195Y-3151806D01*
X29144227Y-3151472D01*
X29152122Y-3152217D01*
X29152128Y-3152219D01*
X29152133Y-3152218D01*
X29157069Y-3152685D01*
X29223007Y-3179005D01*
X29264248Y-3236795D01*
X29267699Y-3307707D01*
X29259416Y-3331374D01*
X29245719Y-3360748D01*
X29245715Y-3360759D01*
X29186457Y-3581913D01*
X29166502Y-3810000D01*
X29186457Y-4038086D01*
X29245715Y-4259240D01*
X29245717Y-4259246D01*
X29342477Y-4466749D01*
X29468879Y-4647270D01*
X29473802Y-4654300D01*
X29635700Y-4816198D01*
X29823251Y-4947523D01*
X29858359Y-4963894D01*
X29862457Y-4965805D01*
X29915742Y-5012722D01*
X29935203Y-5080999D01*
X29914661Y-5148959D01*
X29862457Y-5194195D01*
X29823250Y-5212477D01*
X29635703Y-5343799D01*
X29635697Y-5343804D01*
X29473804Y-5505697D01*
X29473799Y-5505703D01*
X29342477Y-5693250D01*
X29245717Y-5900753D01*
X29245715Y-5900759D01*
X29186457Y-6121913D01*
X29166502Y-6350000D01*
X29186457Y-6578087D01*
X29205521Y-6649235D01*
X29245715Y-6799240D01*
X29245717Y-6799246D01*
X29342477Y-7006749D01*
X29468879Y-7187270D01*
X29473802Y-7194300D01*
X29635700Y-7356198D01*
X29823251Y-7487523D01*
X29858359Y-7503894D01*
X29862457Y-7505805D01*
X29915742Y-7552722D01*
X29935203Y-7620999D01*
X29914661Y-7688959D01*
X29862457Y-7734195D01*
X29823250Y-7752477D01*
X29635703Y-7883799D01*
X29635697Y-7883804D01*
X29473804Y-8045697D01*
X29473799Y-8045703D01*
X29342477Y-8233250D01*
X29245717Y-8440753D01*
X29245715Y-8440759D01*
X29186457Y-8661913D01*
X29166502Y-8890000D01*
X29185723Y-9109703D01*
X29186457Y-9118086D01*
X29245715Y-9339240D01*
X29245717Y-9339246D01*
X29342477Y-9546749D01*
X29458121Y-9711906D01*
X29473802Y-9734300D01*
X29635700Y-9896198D01*
X29823251Y-10027523D01*
X29847894Y-10039014D01*
X29863049Y-10046081D01*
X29916334Y-10092998D01*
X29935795Y-10161275D01*
X29915253Y-10229235D01*
X29863050Y-10274470D01*
X29823503Y-10292911D01*
X29823501Y-10292912D01*
X29752109Y-10342899D01*
X30440482Y-11031272D01*
X30354852Y-11044835D01*
X30241955Y-11102359D01*
X30152359Y-11191955D01*
X30094835Y-11304852D01*
X30081272Y-11390481D01*
X29392900Y-10702109D01*
X29342913Y-10773500D01*
X29246188Y-10980926D01*
X29246186Y-10980931D01*
X29186951Y-11201997D01*
X29167004Y-11430000D01*
X29186951Y-11658002D01*
X29246186Y-11879068D01*
X29246188Y-11879073D01*
X29342913Y-12086501D01*
X29392899Y-12157888D01*
X30081272Y-11469516D01*
X30094835Y-11555148D01*
X30152359Y-11668045D01*
X30241955Y-11757641D01*
X30354852Y-11815165D01*
X30440482Y-11828727D01*
X29752110Y-12517098D01*
X29752110Y-12517100D01*
X29823498Y-12567086D01*
X29823502Y-12567088D01*
X29863049Y-12585530D01*
X29916334Y-12632447D01*
X29935794Y-12700724D01*
X29915252Y-12768684D01*
X29863049Y-12813918D01*
X29823252Y-12832475D01*
X29635703Y-12963799D01*
X29635697Y-12963804D01*
X29473804Y-13125697D01*
X29473799Y-13125703D01*
X29342477Y-13313250D01*
X29245717Y-13520753D01*
X29245715Y-13520759D01*
X29186457Y-13741913D01*
X29166502Y-13970000D01*
X29184554Y-14176341D01*
X29186457Y-14198086D01*
X29245715Y-14419240D01*
X29245717Y-14419246D01*
X29342477Y-14626749D01*
X29460176Y-14794841D01*
X29473802Y-14814300D01*
X29635700Y-14976198D01*
X29823251Y-15107523D01*
X29858359Y-15123894D01*
X29862457Y-15125805D01*
X29915742Y-15172722D01*
X29935203Y-15240999D01*
X29914661Y-15308959D01*
X29862457Y-15354195D01*
X29823250Y-15372477D01*
X29635703Y-15503799D01*
X29635697Y-15503804D01*
X29473804Y-15665697D01*
X29473799Y-15665703D01*
X29342477Y-15853250D01*
X29245717Y-16060753D01*
X29245715Y-16060759D01*
X29211786Y-16187384D01*
X29186457Y-16281913D01*
X29166502Y-16510000D01*
X29186457Y-16738087D01*
X29214173Y-16841523D01*
X29245715Y-16959240D01*
X29245717Y-16959246D01*
X29342477Y-17166749D01*
X29473799Y-17354296D01*
X29473804Y-17354302D01*
X29635697Y-17516195D01*
X29635706Y-17516203D01*
X29639001Y-17518510D01*
X29683329Y-17573968D01*
X29690637Y-17644587D01*
X29658605Y-17707947D01*
X29597403Y-17743931D01*
X29580197Y-17747000D01*
X29570803Y-17748009D01*
X29570795Y-17748011D01*
X29433797Y-17799110D01*
X29433792Y-17799112D01*
X29316738Y-17886738D01*
X29229112Y-18003792D01*
X29229110Y-18003797D01*
X29178011Y-18140795D01*
X29178009Y-18140803D01*
X29171500Y-18201350D01*
X29171500Y-19898649D01*
X29178009Y-19959196D01*
X29178011Y-19959204D01*
X29229110Y-20096202D01*
X29229112Y-20096207D01*
X29316738Y-20213261D01*
X29433792Y-20300887D01*
X29433794Y-20300888D01*
X29433796Y-20300889D01*
X29492875Y-20322924D01*
X29570795Y-20351988D01*
X29570803Y-20351990D01*
X29631350Y-20358499D01*
X29631355Y-20358499D01*
X29631362Y-20358500D01*
X29631368Y-20358500D01*
X31328632Y-20358500D01*
X31328638Y-20358500D01*
X31328645Y-20358499D01*
X31328649Y-20358499D01*
X31389196Y-20351990D01*
X31389199Y-20351989D01*
X31389201Y-20351989D01*
X31526204Y-20300889D01*
X31542200Y-20288915D01*
X31643261Y-20213261D01*
X31730887Y-20096207D01*
X31730887Y-20096206D01*
X31730889Y-20096204D01*
X31781989Y-19959201D01*
X31783193Y-19948007D01*
X31788499Y-19898649D01*
X31788500Y-19898632D01*
X31788500Y-18201367D01*
X31788499Y-18201350D01*
X31781990Y-18140803D01*
X31781988Y-18140795D01*
X31742071Y-18033777D01*
X31730889Y-18003796D01*
X31730888Y-18003794D01*
X31730887Y-18003792D01*
X31643261Y-17886738D01*
X31526207Y-17799112D01*
X31526202Y-17799110D01*
X31389204Y-17748011D01*
X31389196Y-17748009D01*
X31379802Y-17747000D01*
X31314210Y-17719832D01*
X31273718Y-17661514D01*
X31271184Y-17590563D01*
X31307410Y-17529504D01*
X31321004Y-17518506D01*
X31322323Y-17517582D01*
X31324300Y-17516198D01*
X31486198Y-17354300D01*
X31617523Y-17166749D01*
X31714284Y-16959243D01*
X31773543Y-16738087D01*
X31793498Y-16510000D01*
X31773543Y-16281913D01*
X31714284Y-16060757D01*
X31617523Y-15853251D01*
X31486198Y-15665700D01*
X31324300Y-15503802D01*
X31136749Y-15372477D01*
X31097543Y-15354195D01*
X31044258Y-15307279D01*
X31024796Y-15239002D01*
X31045337Y-15171042D01*
X31097543Y-15125805D01*
X31099997Y-15124660D01*
X31136749Y-15107523D01*
X31324300Y-14976198D01*
X31486198Y-14814300D01*
X31617523Y-14626749D01*
X31714284Y-14419243D01*
X31773543Y-14198087D01*
X31793498Y-13970000D01*
X31773543Y-13741913D01*
X31714284Y-13520757D01*
X31617523Y-13313251D01*
X31486198Y-13125700D01*
X31324300Y-12963802D01*
X31308460Y-12952711D01*
X31136749Y-12832477D01*
X31096951Y-12813919D01*
X31043666Y-12767002D01*
X31024205Y-12698725D01*
X31044747Y-12630765D01*
X31096951Y-12585529D01*
X31136497Y-12567088D01*
X31207888Y-12517099D01*
X31207888Y-12517097D01*
X30519518Y-11828727D01*
X30605148Y-11815165D01*
X30718045Y-11757641D01*
X30807641Y-11668045D01*
X30865165Y-11555148D01*
X30878727Y-11469517D01*
X31567097Y-12157888D01*
X31567099Y-12157888D01*
X31617088Y-12086497D01*
X31713811Y-11879073D01*
X31713813Y-11879068D01*
X31773048Y-11658002D01*
X31792995Y-11429995D01*
X31788250Y-11375754D01*
X31802238Y-11306149D01*
X31851637Y-11255156D01*
X31920763Y-11238965D01*
X31987668Y-11262717D01*
X32002865Y-11275676D01*
X33642995Y-12915806D01*
X33677021Y-12978118D01*
X33679900Y-13004901D01*
X33679900Y-22893486D01*
X33659898Y-22961607D01*
X33647537Y-22977796D01*
X33550961Y-23085054D01*
X33550958Y-23085058D01*
X33455476Y-23250438D01*
X33455473Y-23250445D01*
X33396457Y-23432072D01*
X33376496Y-23622000D01*
X33396457Y-23811927D01*
X33417276Y-23876000D01*
X33455473Y-23993556D01*
X33455476Y-23993561D01*
X33550958Y-24158941D01*
X33550965Y-24158951D01*
X33678744Y-24300864D01*
X33678747Y-24300866D01*
X33833248Y-24413118D01*
X34007712Y-24490794D01*
X34194513Y-24530500D01*
X34385487Y-24530500D01*
X34572288Y-24490794D01*
X34746752Y-24413118D01*
X34901253Y-24300866D01*
X34936172Y-24262085D01*
X35029034Y-24158951D01*
X35029035Y-24158949D01*
X35029040Y-24158944D01*
X35124527Y-23993556D01*
X35183542Y-23811928D01*
X35203504Y-23622000D01*
X35183542Y-23432072D01*
X35124527Y-23250444D01*
X35029040Y-23085056D01*
X34932463Y-22977796D01*
X34901746Y-22913789D01*
X34900100Y-22893486D01*
X34900100Y-12781267D01*
X34901808Y-12765796D01*
X34901474Y-12765765D01*
X34902220Y-12757872D01*
X34900100Y-12690415D01*
X34900100Y-12661618D01*
X34900100Y-12661617D01*
X34899267Y-12655025D01*
X34898802Y-12649122D01*
X34897378Y-12603801D01*
X34892037Y-12585419D01*
X34888027Y-12566057D01*
X34885629Y-12547068D01*
X34868936Y-12504906D01*
X34867022Y-12499315D01*
X34854373Y-12455775D01*
X34844621Y-12439286D01*
X34835931Y-12421546D01*
X34828884Y-12403746D01*
X34802237Y-12367069D01*
X34798986Y-12362121D01*
X34784158Y-12337048D01*
X34775906Y-12323093D01*
X34762374Y-12309561D01*
X34749533Y-12294528D01*
X34748656Y-12293321D01*
X34738279Y-12279038D01*
X34703335Y-12250130D01*
X34698962Y-12246150D01*
X31782158Y-9329346D01*
X31748132Y-9267034D01*
X31749547Y-9207639D01*
X31773542Y-9118090D01*
X31773543Y-9118087D01*
X31783435Y-9005017D01*
X31809299Y-8938900D01*
X31866802Y-8897260D01*
X31908956Y-8890000D01*
X40157900Y-8890000D01*
X40226021Y-8910002D01*
X40272514Y-8963658D01*
X40283900Y-9016000D01*
X40283900Y-21762738D01*
X40282192Y-21778208D01*
X40282527Y-21778240D01*
X40281781Y-21786130D01*
X40283900Y-21853567D01*
X40283900Y-21882378D01*
X40283901Y-21882395D01*
X40284733Y-21888984D01*
X40285198Y-21894897D01*
X40286622Y-21940202D01*
X40291962Y-21958581D01*
X40295971Y-21977936D01*
X40297980Y-21993839D01*
X40298371Y-21996933D01*
X40315059Y-22039082D01*
X40316983Y-22044700D01*
X40329626Y-22088222D01*
X40329629Y-22088229D01*
X40339371Y-22104703D01*
X40348065Y-22122448D01*
X40355116Y-22140255D01*
X40381764Y-22176933D01*
X40385025Y-22181897D01*
X40408092Y-22220903D01*
X40408093Y-22220904D01*
X40408094Y-22220905D01*
X40408095Y-22220906D01*
X40421626Y-22234437D01*
X40434464Y-22249468D01*
X40445720Y-22264961D01*
X40480659Y-22293865D01*
X40485040Y-22297851D01*
X41999115Y-23811927D01*
X42437129Y-24249941D01*
X42446859Y-24262085D01*
X42447118Y-24261872D01*
X42452173Y-24267982D01*
X42501358Y-24314170D01*
X42521728Y-24334541D01*
X42521737Y-24334549D01*
X42524224Y-24336477D01*
X42526989Y-24338622D01*
X42531502Y-24342477D01*
X42564542Y-24373504D01*
X42581307Y-24382720D01*
X42597832Y-24393573D01*
X42612966Y-24405313D01*
X42654585Y-24423323D01*
X42659884Y-24425919D01*
X42699622Y-24447765D01*
X42718161Y-24452525D01*
X42736858Y-24458926D01*
X42754435Y-24466532D01*
X42799232Y-24473626D01*
X42805017Y-24474825D01*
X42848926Y-24486100D01*
X42868064Y-24486100D01*
X42887774Y-24487650D01*
X42906684Y-24490646D01*
X42938367Y-24487651D01*
X42951817Y-24486380D01*
X42957750Y-24486100D01*
X48038731Y-24486100D01*
X48106852Y-24506102D01*
X48132366Y-24527789D01*
X48156747Y-24554866D01*
X48311248Y-24667118D01*
X48485712Y-24744794D01*
X48672513Y-24784500D01*
X48863487Y-24784500D01*
X49050288Y-24744794D01*
X49224752Y-24667118D01*
X49379253Y-24554866D01*
X49401192Y-24530500D01*
X49507034Y-24412951D01*
X49507035Y-24412949D01*
X49507040Y-24412944D01*
X49602527Y-24247556D01*
X49661542Y-24065928D01*
X49681504Y-23876000D01*
X49661542Y-23686072D01*
X49602527Y-23504444D01*
X49507040Y-23339056D01*
X49507038Y-23339054D01*
X49507034Y-23339048D01*
X49379255Y-23197135D01*
X49224752Y-23084882D01*
X49050288Y-23007206D01*
X48863487Y-22967500D01*
X48672513Y-22967500D01*
X48485711Y-23007206D01*
X48311247Y-23084882D01*
X48156747Y-23197133D01*
X48132368Y-23224210D01*
X48071922Y-23261450D01*
X48038731Y-23265900D01*
X43230901Y-23265900D01*
X43162780Y-23245898D01*
X43141806Y-23228995D01*
X41541005Y-21628193D01*
X41506979Y-21565881D01*
X41504100Y-21539098D01*
X41504100Y-9016000D01*
X41524102Y-8947879D01*
X41577758Y-8901386D01*
X41630100Y-8890000D01*
X49371044Y-8890000D01*
X49439165Y-8910002D01*
X49485658Y-8963658D01*
X49496564Y-9005016D01*
X49505724Y-9109704D01*
X49506457Y-9118086D01*
X49565715Y-9339240D01*
X49565717Y-9339246D01*
X49662477Y-9546749D01*
X49778121Y-9711906D01*
X49793802Y-9734300D01*
X49955700Y-9896198D01*
X49955703Y-9896200D01*
X50004384Y-9930287D01*
X50048712Y-9985744D01*
X50056021Y-10056363D01*
X50023990Y-10119724D01*
X49962789Y-10155709D01*
X49932113Y-10159500D01*
X43205158Y-10159500D01*
X43204952Y-10159459D01*
X43180001Y-10159459D01*
X43180000Y-10159459D01*
X43179901Y-10159500D01*
X43179617Y-10159617D01*
X43179459Y-10160000D01*
X43179476Y-10185014D01*
X43179471Y-10185014D01*
X43179500Y-10185157D01*
X43179500Y-19787072D01*
X43179415Y-19787500D01*
X43179458Y-19811998D01*
X43179459Y-19812000D01*
X43179500Y-19812099D01*
X43179617Y-19812383D01*
X43180000Y-19812541D01*
X43180002Y-19812539D01*
X43205014Y-19812524D01*
X43205014Y-19812528D01*
X43205158Y-19812500D01*
X52552842Y-19812500D01*
X52552985Y-19812528D01*
X52552986Y-19812524D01*
X52577997Y-19812539D01*
X52578000Y-19812541D01*
X52578383Y-19812383D01*
X52578500Y-19812099D01*
X52578541Y-19812000D01*
X52578540Y-19811998D01*
X52578541Y-19811998D01*
X52578584Y-19787500D01*
X52578500Y-19787072D01*
X52578500Y-10185157D01*
X52578528Y-10185014D01*
X52578524Y-10185014D01*
X52578539Y-10160002D01*
X52578541Y-10160000D01*
X52578383Y-10159617D01*
X52578099Y-10159500D01*
X52578000Y-10159459D01*
X52577999Y-10159459D01*
X52553048Y-10159459D01*
X52552842Y-10159500D01*
X51667887Y-10159500D01*
X51599766Y-10139498D01*
X51553273Y-10085842D01*
X51543169Y-10015568D01*
X51572663Y-9950988D01*
X51595616Y-9930287D01*
X51644300Y-9896198D01*
X51806198Y-9734300D01*
X51937523Y-9546749D01*
X52034284Y-9339243D01*
X52093543Y-9118087D01*
X52113498Y-8890000D01*
X52093543Y-8661913D01*
X52034284Y-8440757D01*
X51937523Y-8233251D01*
X51806198Y-8045700D01*
X51644300Y-7883802D01*
X51456749Y-7752477D01*
X51417543Y-7734195D01*
X51364258Y-7687279D01*
X51344796Y-7619002D01*
X51365337Y-7551042D01*
X51417543Y-7505805D01*
X51419997Y-7504660D01*
X51456749Y-7487523D01*
X51644300Y-7356198D01*
X51806198Y-7194300D01*
X51937523Y-7006749D01*
X52034284Y-6799243D01*
X52093543Y-6578087D01*
X52113498Y-6350000D01*
X52093543Y-6121913D01*
X52034284Y-5900757D01*
X51937523Y-5693251D01*
X51806198Y-5505700D01*
X51644300Y-5343802D01*
X51456749Y-5212477D01*
X51417543Y-5194195D01*
X51364258Y-5147279D01*
X51344796Y-5079002D01*
X51365337Y-5011042D01*
X51417543Y-4965805D01*
X51421276Y-4964064D01*
X51456749Y-4947523D01*
X51644300Y-4816198D01*
X51806198Y-4654300D01*
X51937523Y-4466749D01*
X52034284Y-4259243D01*
X52093543Y-4038087D01*
X52113498Y-3810000D01*
X52093543Y-3581913D01*
X52034284Y-3360757D01*
X51937523Y-3153251D01*
X51806198Y-2965700D01*
X51644300Y-2803802D01*
X51456749Y-2672477D01*
X51417543Y-2654195D01*
X51364258Y-2607279D01*
X51344796Y-2539002D01*
X51365337Y-2471042D01*
X51417543Y-2425805D01*
X51419997Y-2424660D01*
X51456749Y-2407523D01*
X51644300Y-2276198D01*
X51806198Y-2114300D01*
X51937523Y-1926749D01*
X52034284Y-1719243D01*
X52093543Y-1498087D01*
X52113498Y-1270000D01*
X52093543Y-1041913D01*
X52034284Y-820757D01*
X51937523Y-613251D01*
X51806198Y-425700D01*
X51644300Y-263802D01*
X51456749Y-132477D01*
X51417543Y-114195D01*
X51364258Y-67279D01*
X51344796Y998D01*
X51365337Y68958D01*
X51417543Y114195D01*
X51419997Y115340D01*
X51456749Y132477D01*
X51644300Y263802D01*
X51806198Y425700D01*
X51937523Y613251D01*
X52034284Y820757D01*
X52093543Y1041913D01*
X52113498Y1270000D01*
X52093543Y1498087D01*
X52034284Y1719243D01*
X51937523Y1926749D01*
X51806198Y2114300D01*
X51644300Y2276198D01*
X51456749Y2407523D01*
X51417543Y2425805D01*
X51364258Y2472721D01*
X51344796Y2540998D01*
X51365337Y2608958D01*
X51417543Y2654195D01*
X51419997Y2655340D01*
X51456749Y2672477D01*
X51644300Y2803802D01*
X51806198Y2965700D01*
X51937523Y3153251D01*
X52034284Y3360757D01*
X52093543Y3581913D01*
X52113498Y3810000D01*
X52093543Y4038087D01*
X52034284Y4259243D01*
X51937523Y4466749D01*
X51806198Y4654300D01*
X51644300Y4816198D01*
X51456749Y4947523D01*
X51417543Y4965805D01*
X51364258Y5012721D01*
X51344796Y5080998D01*
X51365337Y5148958D01*
X51417543Y5194195D01*
X51419997Y5195340D01*
X51456749Y5212477D01*
X51644300Y5343802D01*
X51806198Y5505700D01*
X51937523Y5693251D01*
X52034284Y5900757D01*
X52093543Y6121913D01*
X52113498Y6350000D01*
X52093543Y6578087D01*
X52034284Y6799243D01*
X51937523Y7006749D01*
X51806198Y7194300D01*
X51644300Y7356198D01*
X51456749Y7487523D01*
X51417543Y7505805D01*
X51364258Y7552721D01*
X51344796Y7620998D01*
X51365337Y7688958D01*
X51417543Y7734195D01*
X51419997Y7735340D01*
X51456749Y7752477D01*
X51644300Y7883802D01*
X51806198Y8045700D01*
X51937523Y8233251D01*
X52034284Y8440757D01*
X52093543Y8661913D01*
X52113498Y8890000D01*
X52093543Y9118087D01*
X52034284Y9339243D01*
X51937523Y9546749D01*
X51806198Y9734300D01*
X51644300Y9896198D01*
X51456749Y10027523D01*
X51417543Y10045805D01*
X51364258Y10092721D01*
X51344796Y10160998D01*
X51365337Y10228958D01*
X51417543Y10274195D01*
X51419997Y10275340D01*
X51456749Y10292477D01*
X51644300Y10423802D01*
X51806198Y10585700D01*
X51937523Y10773251D01*
X52034284Y10980757D01*
X52093543Y11201913D01*
X52113498Y11430000D01*
X52093543Y11658087D01*
X52034284Y11879243D01*
X51937523Y12086749D01*
X51937520Y12086753D01*
X51935456Y12091180D01*
X51924795Y12161372D01*
X51953775Y12226184D01*
X51975593Y12246368D01*
X51982962Y12251721D01*
X52011884Y12286684D01*
X52015842Y12291033D01*
X53003408Y13278598D01*
X53065718Y13312621D01*
X53092501Y13315500D01*
X53127708Y13315500D01*
X53195829Y13295498D01*
X53242322Y13241842D01*
X53244858Y13235888D01*
X53248715Y13226146D01*
X53275364Y13189467D01*
X53278625Y13184503D01*
X53301692Y13145497D01*
X53301697Y13145491D01*
X53315223Y13131965D01*
X53328061Y13116935D01*
X53339319Y13101441D01*
X53339323Y13101436D01*
X53374260Y13072534D01*
X53378641Y13068548D01*
X55628923Y10818266D01*
X57853002Y8594187D01*
X57887028Y8531875D01*
X57889907Y8505092D01*
X57889907Y8473352D01*
X57869905Y8405231D01*
X57853002Y8384257D01*
X57825556Y8356812D01*
X57825551Y8356805D01*
X57740863Y8213607D01*
X57694444Y8053831D01*
X57691507Y8016507D01*
X57691507Y6633495D01*
X57694444Y6596172D01*
X57740863Y6436398D01*
X57766264Y6393448D01*
X57783724Y6324632D01*
X57761208Y6257300D01*
X57705864Y6212831D01*
X57645006Y6203960D01*
X57600553Y6208501D01*
X56799462Y6208501D01*
X56695581Y6197889D01*
X56527268Y6142116D01*
X56376354Y6049031D01*
X56376348Y6049026D01*
X56250982Y5923660D01*
X56250977Y5923654D01*
X56157892Y5772739D01*
X56102120Y5604429D01*
X56102119Y5604422D01*
X56091507Y5500555D01*
X56091507Y4099457D01*
X56102119Y3995576D01*
X56157892Y3827263D01*
X56250977Y3676349D01*
X56250982Y3676343D01*
X56376348Y3550977D01*
X56376354Y3550972D01*
X56376355Y3550971D01*
X56527269Y3457886D01*
X56695581Y3402114D01*
X56799462Y3391501D01*
X57600551Y3391502D01*
X57704433Y3402114D01*
X57724266Y3408687D01*
X57795220Y3411127D01*
X57856230Y3374821D01*
X57887927Y3311292D01*
X57889900Y3289082D01*
X57889900Y-2526656D01*
X57869898Y-2594777D01*
X57852995Y-2615751D01*
X57825556Y-2643189D01*
X57825551Y-2643196D01*
X57740863Y-2786394D01*
X57694444Y-2946170D01*
X57691507Y-2983494D01*
X57691507Y-4366506D01*
X57694444Y-4403829D01*
X57740863Y-4563603D01*
X57766264Y-4606553D01*
X57783724Y-4675369D01*
X57761208Y-4742701D01*
X57705864Y-4787170D01*
X57645006Y-4796041D01*
X57600553Y-4791500D01*
X56799462Y-4791500D01*
X56695581Y-4802112D01*
X56527268Y-4857885D01*
X56376354Y-4950970D01*
X56376348Y-4950975D01*
X56250982Y-5076341D01*
X56250977Y-5076347D01*
X56157892Y-5227262D01*
X56102120Y-5395572D01*
X56102119Y-5395579D01*
X56091507Y-5499446D01*
X56091507Y-6900544D01*
X56102119Y-7004425D01*
X56157892Y-7172738D01*
X56250977Y-7323652D01*
X56250982Y-7323658D01*
X56376348Y-7449024D01*
X56376354Y-7449029D01*
X56376355Y-7449030D01*
X56527269Y-7542115D01*
X56695581Y-7597887D01*
X56799462Y-7608500D01*
X57600551Y-7608499D01*
X57704433Y-7597887D01*
X57872745Y-7542115D01*
X58023659Y-7449030D01*
X58039803Y-7432884D01*
X58102114Y-7398859D01*
X58172930Y-7403922D01*
X58229766Y-7446468D01*
X58254579Y-7512987D01*
X58254900Y-7521979D01*
X58254900Y-8224938D01*
X58234898Y-8293059D01*
X58217995Y-8314033D01*
X58103188Y-8428839D01*
X58103184Y-8428844D01*
X58014172Y-8576088D01*
X58014170Y-8576093D01*
X57962986Y-8740353D01*
X57956500Y-8811737D01*
X57956500Y-9200497D01*
X57936498Y-9268618D01*
X57919599Y-9289587D01*
X57663562Y-9545625D01*
X57538054Y-9671133D01*
X57525911Y-9680862D01*
X57526125Y-9681120D01*
X57520017Y-9686172D01*
X57473828Y-9735358D01*
X57453453Y-9755734D01*
X57453452Y-9755734D01*
X57449374Y-9760992D01*
X57445523Y-9765500D01*
X57414499Y-9798537D01*
X57414495Y-9798542D01*
X57405277Y-9815311D01*
X57394424Y-9831833D01*
X57382686Y-9846965D01*
X57364681Y-9888572D01*
X57362070Y-9893902D01*
X57340235Y-9933620D01*
X57335473Y-9952165D01*
X57329074Y-9970855D01*
X57321468Y-9988434D01*
X57314377Y-10033200D01*
X57313173Y-10039014D01*
X57301900Y-10082924D01*
X57301900Y-10102063D01*
X57300349Y-10121773D01*
X57297354Y-10140683D01*
X57297354Y-10140684D01*
X57301620Y-10185816D01*
X57301900Y-10191749D01*
X57301900Y-13086299D01*
X57281898Y-13154420D01*
X57228242Y-13200913D01*
X57157968Y-13211017D01*
X57093388Y-13181523D01*
X57076469Y-13163691D01*
X57075722Y-13162732D01*
X57041631Y-13125700D01*
X56923240Y-12997094D01*
X56923239Y-12997093D01*
X56923237Y-12997091D01*
X56818802Y-12915806D01*
X56745576Y-12858811D01*
X56547574Y-12751658D01*
X56547572Y-12751657D01*
X56547571Y-12751656D01*
X56334639Y-12678557D01*
X56334630Y-12678555D01*
X56290476Y-12671187D01*
X56112569Y-12641500D01*
X55887431Y-12641500D01*
X55766894Y-12661614D01*
X55665369Y-12678555D01*
X55665360Y-12678557D01*
X55452428Y-12751656D01*
X55452426Y-12751658D01*
X55440944Y-12757872D01*
X55254426Y-12858810D01*
X55254424Y-12858811D01*
X55076762Y-12997091D01*
X54924279Y-13162729D01*
X54924275Y-13162734D01*
X54801141Y-13351206D01*
X54710703Y-13557386D01*
X54710702Y-13557387D01*
X54655437Y-13775624D01*
X54655436Y-13775630D01*
X54655436Y-13775632D01*
X54636844Y-14000000D01*
X54654975Y-14218807D01*
X54655437Y-14224375D01*
X54710702Y-14442612D01*
X54710703Y-14442613D01*
X54710704Y-14442616D01*
X54779500Y-14599456D01*
X54801141Y-14648793D01*
X54924275Y-14837265D01*
X54924279Y-14837270D01*
X54972107Y-14889224D01*
X55074437Y-15000383D01*
X55076762Y-15002908D01*
X55096899Y-15018581D01*
X55254424Y-15141189D01*
X55287680Y-15159186D01*
X55338071Y-15209200D01*
X55353423Y-15278516D01*
X55328862Y-15345129D01*
X55287680Y-15380813D01*
X55254426Y-15398810D01*
X55254424Y-15398811D01*
X55076762Y-15537091D01*
X54924279Y-15702729D01*
X54924275Y-15702734D01*
X54801141Y-15891206D01*
X54710703Y-16097386D01*
X54710702Y-16097387D01*
X54655437Y-16315624D01*
X54655436Y-16315630D01*
X54655436Y-16315632D01*
X54636844Y-16540000D01*
X54653258Y-16738087D01*
X54655437Y-16764375D01*
X54710702Y-16982612D01*
X54710703Y-16982613D01*
X54710704Y-16982616D01*
X54758614Y-17091841D01*
X54801141Y-17188793D01*
X54924275Y-17377265D01*
X54924279Y-17377270D01*
X54999101Y-17458547D01*
X55064422Y-17529504D01*
X55076762Y-17542908D01*
X55116668Y-17573968D01*
X55254424Y-17681189D01*
X55288205Y-17699470D01*
X55338596Y-17749482D01*
X55353949Y-17818799D01*
X55329389Y-17885412D01*
X55288209Y-17921096D01*
X55254704Y-17939228D01*
X55254698Y-17939232D01*
X55077097Y-18077465D01*
X54924674Y-18243041D01*
X54801580Y-18431451D01*
X54711179Y-18637543D01*
X54711176Y-18637550D01*
X54663455Y-18825999D01*
X54663456Y-18826000D01*
X55568884Y-18826000D01*
X55540507Y-18870156D01*
X55500000Y-19008111D01*
X55500000Y-19151889D01*
X55540507Y-19289844D01*
X55568884Y-19334000D01*
X54663455Y-19334000D01*
X54711176Y-19522449D01*
X54711179Y-19522456D01*
X54801580Y-19728548D01*
X54924674Y-19916958D01*
X55077097Y-20082534D01*
X55254698Y-20220767D01*
X55254704Y-20220771D01*
X55288207Y-20238902D01*
X55338597Y-20288915D01*
X55353949Y-20358232D01*
X55329388Y-20424845D01*
X55288207Y-20460528D01*
X55254430Y-20478807D01*
X55254424Y-20478811D01*
X55076762Y-20617091D01*
X54924279Y-20782729D01*
X54924275Y-20782734D01*
X54801141Y-20971206D01*
X54710703Y-21177386D01*
X54710702Y-21177387D01*
X54655437Y-21395624D01*
X54655436Y-21395630D01*
X54655436Y-21395632D01*
X54636844Y-21620000D01*
X54649956Y-21778240D01*
X54655437Y-21844375D01*
X54710702Y-22062612D01*
X54710703Y-22062613D01*
X54710704Y-22062616D01*
X54801140Y-22268791D01*
X54801141Y-22268793D01*
X54924275Y-22457265D01*
X54924279Y-22457270D01*
X55076762Y-22622908D01*
X55111770Y-22650156D01*
X55254424Y-22761189D01*
X55452426Y-22868342D01*
X55452427Y-22868342D01*
X55452428Y-22868343D01*
X55525668Y-22893486D01*
X55665365Y-22941444D01*
X55887431Y-22978500D01*
X55887435Y-22978500D01*
X56112565Y-22978500D01*
X56112569Y-22978500D01*
X56334635Y-22941444D01*
X56547574Y-22868342D01*
X56745576Y-22761189D01*
X56923240Y-22622906D01*
X57075722Y-22457268D01*
X57198860Y-22268791D01*
X57289296Y-22062616D01*
X57344564Y-21844368D01*
X57363156Y-21620000D01*
X57344564Y-21395632D01*
X57289296Y-21177384D01*
X57198860Y-20971209D01*
X57114132Y-20841523D01*
X57075724Y-20782734D01*
X57075720Y-20782729D01*
X56940461Y-20635801D01*
X56923240Y-20617094D01*
X56923239Y-20617093D01*
X56923237Y-20617091D01*
X56841382Y-20553381D01*
X56745576Y-20478811D01*
X56711792Y-20460528D01*
X56661402Y-20410516D01*
X56646050Y-20341199D01*
X56670610Y-20274586D01*
X56711793Y-20238901D01*
X56745300Y-20220767D01*
X56745301Y-20220767D01*
X56922902Y-20082534D01*
X57075325Y-19916958D01*
X57198419Y-19728548D01*
X57288820Y-19522456D01*
X57288823Y-19522449D01*
X57336544Y-19334000D01*
X56431116Y-19334000D01*
X56459493Y-19289844D01*
X56500000Y-19151889D01*
X56500000Y-19008111D01*
X56459493Y-18870156D01*
X56431116Y-18826000D01*
X57336544Y-18826000D01*
X57336544Y-18825999D01*
X57288823Y-18637550D01*
X57288820Y-18637543D01*
X57198419Y-18431451D01*
X57075325Y-18243041D01*
X56922902Y-18077465D01*
X56745301Y-17939232D01*
X56745300Y-17939231D01*
X56711791Y-17921097D01*
X56661401Y-17871083D01*
X56646050Y-17801766D01*
X56670612Y-17735153D01*
X56711790Y-17699472D01*
X56745576Y-17681189D01*
X56923240Y-17542906D01*
X57075722Y-17377268D01*
X57077894Y-17373944D01*
X57186843Y-17207185D01*
X57240846Y-17161096D01*
X57292326Y-17150100D01*
X57695098Y-17150100D01*
X57763219Y-17170102D01*
X57784194Y-17187005D01*
X57971132Y-17373944D01*
X57980859Y-17386085D01*
X57981118Y-17385872D01*
X57986173Y-17391982D01*
X58035359Y-17438171D01*
X58055728Y-17458541D01*
X58055732Y-17458544D01*
X58055735Y-17458547D01*
X58060989Y-17462622D01*
X58065496Y-17466472D01*
X58098543Y-17497505D01*
X58098546Y-17497506D01*
X58115315Y-17506725D01*
X58131843Y-17517581D01*
X58146966Y-17529312D01*
X58188564Y-17547312D01*
X58193895Y-17549924D01*
X58233619Y-17571764D01*
X58233621Y-17571764D01*
X58233622Y-17571765D01*
X58252163Y-17576525D01*
X58270865Y-17582928D01*
X58288435Y-17590532D01*
X58333232Y-17597626D01*
X58339017Y-17598825D01*
X58382926Y-17610100D01*
X58402064Y-17610100D01*
X58421774Y-17611650D01*
X58440684Y-17614646D01*
X58472367Y-17611651D01*
X58485817Y-17610380D01*
X58491750Y-17610100D01*
X59733662Y-17610100D01*
X59801783Y-17630102D01*
X59836297Y-17663011D01*
X59883441Y-17729215D01*
X60036654Y-17875303D01*
X60054449Y-17886739D01*
X60067249Y-17894965D01*
X60113742Y-17948621D01*
X60123846Y-18018895D01*
X60094352Y-18083475D01*
X60077016Y-18100006D01*
X59956914Y-18194455D01*
X59956908Y-18194460D01*
X59818343Y-18354374D01*
X59818342Y-18354375D01*
X59712545Y-18537622D01*
X59712541Y-18537631D01*
X59643337Y-18737584D01*
X59643335Y-18737590D01*
X59642126Y-18746000D01*
X60724122Y-18746000D01*
X60681722Y-18792059D01*
X60631449Y-18906670D01*
X60621114Y-19031395D01*
X60651837Y-19152719D01*
X60718008Y-19254000D01*
X59646480Y-19254000D01*
X59673175Y-19364038D01*
X59673177Y-19364045D01*
X59761077Y-19556515D01*
X59761079Y-19556519D01*
X59883821Y-19728887D01*
X59883822Y-19728888D01*
X60036961Y-19874907D01*
X60067218Y-19894351D01*
X60113711Y-19948007D01*
X60123816Y-20018280D01*
X60094323Y-20082861D01*
X60076987Y-20099392D01*
X59956565Y-20194093D01*
X59817938Y-20354077D01*
X59817930Y-20354088D01*
X59712089Y-20537412D01*
X59712086Y-20537419D01*
X59642848Y-20737469D01*
X59642845Y-20737480D01*
X59612718Y-20947014D01*
X59622790Y-21158463D01*
X59622792Y-21158476D01*
X59672700Y-21364198D01*
X59672702Y-21364204D01*
X59760644Y-21556771D01*
X59760648Y-21556778D01*
X59883435Y-21729208D01*
X59883439Y-21729213D01*
X59883441Y-21729215D01*
X60036654Y-21875303D01*
X60214746Y-21989756D01*
X60411279Y-22068436D01*
X60619151Y-22108500D01*
X60619155Y-22108500D01*
X61327801Y-22108500D01*
X61327803Y-22108500D01*
X61485739Y-22093419D01*
X61688862Y-22033777D01*
X61877026Y-21936771D01*
X62043432Y-21805908D01*
X62067435Y-21778208D01*
X62181045Y-21647095D01*
X62182065Y-21645918D01*
X62287913Y-21462582D01*
X62357153Y-21262527D01*
X62387281Y-21052984D01*
X62383386Y-20971209D01*
X62377209Y-20841536D01*
X62377208Y-20841531D01*
X62377208Y-20841526D01*
X62327298Y-20635796D01*
X62239356Y-20443229D01*
X62239353Y-20443225D01*
X62239351Y-20443221D01*
X62116564Y-20270791D01*
X62116555Y-20270781D01*
X62064106Y-20220771D01*
X61963346Y-20124697D01*
X61963343Y-20124695D01*
X61963340Y-20124692D01*
X61932750Y-20105033D01*
X61886257Y-20051377D01*
X61876154Y-19981103D01*
X61905647Y-19916523D01*
X61922984Y-19899993D01*
X62043081Y-19805548D01*
X62043091Y-19805539D01*
X62181656Y-19645625D01*
X62181657Y-19645624D01*
X62287454Y-19462377D01*
X62287458Y-19462368D01*
X62356662Y-19262415D01*
X62356664Y-19262409D01*
X62357873Y-19254000D01*
X61275878Y-19254000D01*
X61318278Y-19207941D01*
X61368551Y-19093330D01*
X61378886Y-18968605D01*
X61348163Y-18847281D01*
X61281992Y-18746000D01*
X62353519Y-18746000D01*
X62353519Y-18745999D01*
X62326824Y-18635961D01*
X62326822Y-18635954D01*
X62238922Y-18443484D01*
X62238920Y-18443480D01*
X62116178Y-18271112D01*
X62116177Y-18271111D01*
X61963035Y-18125090D01*
X61963034Y-18125089D01*
X61932781Y-18105647D01*
X61886288Y-18051992D01*
X61876183Y-17981718D01*
X61905676Y-17917137D01*
X61923010Y-17900608D01*
X62043432Y-17805908D01*
X62182065Y-17645918D01*
X62287913Y-17462582D01*
X62357153Y-17262527D01*
X62387281Y-17052984D01*
X62382816Y-16959243D01*
X62377209Y-16841536D01*
X62377208Y-16841531D01*
X62377208Y-16841526D01*
X62327298Y-16635796D01*
X62239356Y-16443229D01*
X62239353Y-16443225D01*
X62239351Y-16443221D01*
X62116564Y-16270791D01*
X62116555Y-16270781D01*
X62080279Y-16236192D01*
X62022817Y-16181402D01*
X61987320Y-16119919D01*
X61990698Y-16049003D01*
X62031880Y-15991171D01*
X62043597Y-15982987D01*
X62098652Y-15949030D01*
X62224030Y-15823652D01*
X62317115Y-15672738D01*
X62372887Y-15504426D01*
X62383500Y-15400545D01*
X62383499Y-14599456D01*
X62372887Y-14495574D01*
X62317115Y-14327262D01*
X62224030Y-14176348D01*
X62224029Y-14176347D01*
X62224024Y-14176341D01*
X62098658Y-14050975D01*
X62098652Y-14050970D01*
X62042738Y-14016482D01*
X61947738Y-13957885D01*
X61863582Y-13929999D01*
X61779427Y-13902113D01*
X61779420Y-13902112D01*
X61675553Y-13891500D01*
X60324455Y-13891500D01*
X60220574Y-13902112D01*
X60052261Y-13957885D01*
X59901347Y-14050970D01*
X59901341Y-14050975D01*
X59775975Y-14176341D01*
X59775970Y-14176347D01*
X59682885Y-14327262D01*
X59627113Y-14495572D01*
X59627112Y-14495579D01*
X59616500Y-14599446D01*
X59616500Y-15400544D01*
X59627112Y-15504425D01*
X59682885Y-15672738D01*
X59775970Y-15823652D01*
X59775975Y-15823658D01*
X59901341Y-15949024D01*
X59901347Y-15949029D01*
X59901348Y-15949030D01*
X59953350Y-15981105D01*
X60000828Y-16033891D01*
X60012231Y-16103966D01*
X59983938Y-16169082D01*
X59965096Y-16187384D01*
X59956576Y-16194084D01*
X59956562Y-16194097D01*
X59880470Y-16281913D01*
X59824580Y-16346413D01*
X59764855Y-16384796D01*
X59729357Y-16389900D01*
X58764902Y-16389900D01*
X58696781Y-16369898D01*
X58675806Y-16352995D01*
X58559004Y-16236192D01*
X58524979Y-16173880D01*
X58522100Y-16147097D01*
X58522100Y-10464901D01*
X58542102Y-10396780D01*
X58559005Y-10375806D01*
X58770407Y-10164404D01*
X58832719Y-10130378D01*
X58859502Y-10127499D01*
X59122262Y-10127499D01*
X59122264Y-10127499D01*
X59193649Y-10121013D01*
X59357913Y-10069827D01*
X59505155Y-9980816D01*
X59552351Y-9933620D01*
X59600905Y-9885067D01*
X59663217Y-9851041D01*
X59734032Y-9856106D01*
X59779095Y-9885067D01*
X59874839Y-9980811D01*
X59874844Y-9980815D01*
X59874845Y-9980816D01*
X60022087Y-10069827D01*
X60186351Y-10121013D01*
X60257735Y-10127500D01*
X60772264Y-10127499D01*
X60843649Y-10121013D01*
X61007913Y-10069827D01*
X61078943Y-10026888D01*
X81781896Y-10026888D01*
X81794872Y-10274470D01*
X81802898Y-10427607D01*
X81805710Y-10454364D01*
X81805712Y-10454375D01*
X81870585Y-10863970D01*
X81870585Y-10863971D01*
X81876181Y-10890295D01*
X81876181Y-10890296D01*
X81979442Y-11275676D01*
X81983519Y-11290889D01*
X81991833Y-11316477D01*
X82140457Y-11703654D01*
X82149503Y-11723972D01*
X82151403Y-11728240D01*
X82339683Y-12097761D01*
X82353138Y-12121065D01*
X82353139Y-12121066D01*
X82436961Y-12250138D01*
X82579007Y-12468869D01*
X82593332Y-12488587D01*
X82594825Y-12490642D01*
X82855813Y-12812935D01*
X82873813Y-12832927D01*
X83167073Y-13126187D01*
X83187065Y-13144187D01*
X83509358Y-13405175D01*
X83509365Y-13405180D01*
X83531131Y-13420993D01*
X83729431Y-13549771D01*
X83878934Y-13646861D01*
X83878935Y-13646862D01*
X83902239Y-13660317D01*
X84271760Y-13848597D01*
X84271767Y-13848600D01*
X84296346Y-13859543D01*
X84552535Y-13957885D01*
X84683517Y-14008165D01*
X84683518Y-14008165D01*
X84683523Y-14008167D01*
X84696760Y-14012468D01*
X84709113Y-14016482D01*
X84963078Y-14084531D01*
X85109703Y-14123819D01*
X85136019Y-14129413D01*
X85136021Y-14129413D01*
X85136029Y-14129415D01*
X85136030Y-14129415D01*
X85340827Y-14161851D01*
X85545636Y-14194290D01*
X85572393Y-14197102D01*
X85744957Y-14206145D01*
X85986540Y-14218807D01*
X85986547Y-14218807D01*
X86013460Y-14218807D01*
X86255042Y-14206145D01*
X86427607Y-14197102D01*
X86454364Y-14194290D01*
X86659172Y-14161851D01*
X86863970Y-14129415D01*
X86863971Y-14129415D01*
X86863978Y-14129413D01*
X86863981Y-14129413D01*
X86890297Y-14123819D01*
X87036921Y-14084531D01*
X87290887Y-14016482D01*
X87303239Y-14012468D01*
X87316477Y-14008167D01*
X87316482Y-14008165D01*
X87316483Y-14008165D01*
X87447465Y-13957885D01*
X87703654Y-13859543D01*
X87728233Y-13848600D01*
X87728231Y-13848600D01*
X87728240Y-13848597D01*
X88097761Y-13660317D01*
X88121065Y-13646862D01*
X88121066Y-13646861D01*
X88270568Y-13549771D01*
X88468869Y-13420993D01*
X88490635Y-13405180D01*
X88490633Y-13405180D01*
X88490642Y-13405175D01*
X88812935Y-13144187D01*
X88832927Y-13126187D01*
X89126187Y-12832927D01*
X89144187Y-12812935D01*
X89405175Y-12490642D01*
X89406667Y-12488587D01*
X89420993Y-12468869D01*
X89563039Y-12250138D01*
X89646861Y-12121066D01*
X89646862Y-12121065D01*
X89660317Y-12097761D01*
X89848597Y-11728240D01*
X89850496Y-11723972D01*
X89859543Y-11703654D01*
X90008167Y-11316477D01*
X90016481Y-11290889D01*
X90020558Y-11275676D01*
X90123819Y-10890296D01*
X90123819Y-10890295D01*
X90129415Y-10863971D01*
X90129415Y-10863970D01*
X90194288Y-10454375D01*
X90194290Y-10454364D01*
X90197102Y-10427607D01*
X90213238Y-10119724D01*
X90218807Y-10013460D01*
X90218807Y-9986540D01*
X90197102Y-9572398D01*
X90197102Y-9572393D01*
X90194290Y-9545636D01*
X90150164Y-9267034D01*
X90129415Y-9136030D01*
X90129415Y-9136029D01*
X90129413Y-9136019D01*
X90123819Y-9109703D01*
X90078053Y-8938900D01*
X90016482Y-8709113D01*
X90008165Y-8683518D01*
X90008165Y-8683517D01*
X89914976Y-8440753D01*
X89859543Y-8296346D01*
X89848600Y-8271767D01*
X89848597Y-8271760D01*
X89660317Y-7902239D01*
X89646862Y-7878935D01*
X89646861Y-7878934D01*
X89512114Y-7671444D01*
X89420993Y-7531131D01*
X89405180Y-7509365D01*
X89405175Y-7509358D01*
X89144187Y-7187065D01*
X89126187Y-7167073D01*
X88832927Y-6873813D01*
X88812935Y-6855813D01*
X88490642Y-6594825D01*
X88488587Y-6593332D01*
X88468869Y-6579007D01*
X88226930Y-6421889D01*
X88121066Y-6353139D01*
X88121065Y-6353138D01*
X88097761Y-6339683D01*
X87728240Y-6151403D01*
X87723972Y-6149503D01*
X87703654Y-6140457D01*
X87444172Y-6040850D01*
X87316483Y-5991835D01*
X87316482Y-5991835D01*
X87316477Y-5991833D01*
X87303239Y-5987531D01*
X87290887Y-5983518D01*
X87006756Y-5907386D01*
X86890297Y-5876181D01*
X86863981Y-5870587D01*
X86863978Y-5870586D01*
X86863971Y-5870585D01*
X86863970Y-5870585D01*
X86659172Y-5838148D01*
X86454364Y-5805710D01*
X86427607Y-5802898D01*
X86255042Y-5793854D01*
X86013460Y-5781193D01*
X86013453Y-5781193D01*
X85986547Y-5781193D01*
X85986540Y-5781193D01*
X85744957Y-5793854D01*
X85572393Y-5802898D01*
X85545636Y-5805710D01*
X85340827Y-5838148D01*
X85136030Y-5870585D01*
X85136029Y-5870585D01*
X85136021Y-5870586D01*
X85136019Y-5870587D01*
X85109703Y-5876181D01*
X84993244Y-5907386D01*
X84709113Y-5983518D01*
X84696760Y-5987531D01*
X84683523Y-5991833D01*
X84683518Y-5991835D01*
X84683517Y-5991835D01*
X84555827Y-6040850D01*
X84296346Y-6140457D01*
X84276027Y-6149503D01*
X84271760Y-6151403D01*
X83902239Y-6339683D01*
X83878935Y-6353138D01*
X83878934Y-6353139D01*
X83773070Y-6421889D01*
X83531131Y-6579007D01*
X83511412Y-6593332D01*
X83509358Y-6594825D01*
X83187065Y-6855813D01*
X83167073Y-6873813D01*
X82873813Y-7167073D01*
X82855813Y-7187065D01*
X82594825Y-7509358D01*
X82594820Y-7509365D01*
X82579007Y-7531131D01*
X82487886Y-7671444D01*
X82353139Y-7878934D01*
X82353138Y-7878935D01*
X82339683Y-7902239D01*
X82151403Y-8271760D01*
X82151400Y-8271767D01*
X82140457Y-8296346D01*
X82085024Y-8440753D01*
X81991835Y-8683517D01*
X81991835Y-8683518D01*
X81983518Y-8709113D01*
X81921947Y-8938900D01*
X81876181Y-9109703D01*
X81870587Y-9136019D01*
X81870585Y-9136029D01*
X81870585Y-9136030D01*
X81849836Y-9267034D01*
X81805710Y-9545636D01*
X81802898Y-9572393D01*
X81802898Y-9572398D01*
X81781897Y-9973109D01*
X81781896Y-9973116D01*
X81783118Y-10000114D01*
X81783325Y-10004875D01*
X81783127Y-10013308D01*
X81781896Y-10026888D01*
X61078943Y-10026888D01*
X61155155Y-9980816D01*
X61276816Y-9859155D01*
X61365827Y-9711913D01*
X61417013Y-9547649D01*
X61423500Y-9476265D01*
X61423499Y-8811736D01*
X61417013Y-8740351D01*
X61365827Y-8576087D01*
X61276816Y-8428845D01*
X61276815Y-8428844D01*
X61276811Y-8428839D01*
X61197805Y-8349833D01*
X61163779Y-8287521D01*
X61160900Y-8260738D01*
X61160900Y-6900544D01*
X61691507Y-6900544D01*
X61702119Y-7004425D01*
X61757892Y-7172738D01*
X61850977Y-7323652D01*
X61850982Y-7323658D01*
X61976348Y-7449024D01*
X61976354Y-7449029D01*
X61976355Y-7449030D01*
X62127269Y-7542115D01*
X62295581Y-7597887D01*
X62399462Y-7608500D01*
X63200551Y-7608499D01*
X63304433Y-7597887D01*
X63472745Y-7542115D01*
X63623659Y-7449030D01*
X63749037Y-7323652D01*
X63842122Y-7172738D01*
X63897894Y-7004426D01*
X63908507Y-6900545D01*
X63908506Y-5499456D01*
X63897894Y-5395574D01*
X63842122Y-5227262D01*
X63755935Y-5087532D01*
X69999500Y-5087532D01*
X70006007Y-5124437D01*
X70029898Y-5259936D01*
X70029898Y-5259938D01*
X70089773Y-5424441D01*
X70089774Y-5424443D01*
X70089775Y-5424445D01*
X70177308Y-5576055D01*
X70289837Y-5710163D01*
X70423945Y-5822692D01*
X70575555Y-5910225D01*
X70740062Y-5970101D01*
X70912468Y-6000500D01*
X70912469Y-6000500D01*
X75087531Y-6000500D01*
X75087532Y-6000500D01*
X75259938Y-5970101D01*
X75424445Y-5910225D01*
X75576055Y-5822692D01*
X75710163Y-5710163D01*
X75822692Y-5576055D01*
X75910225Y-5424445D01*
X75970101Y-5259938D01*
X76000500Y-5087532D01*
X76000500Y-5000000D01*
X76000500Y-4999500D01*
X76000500Y-3810000D01*
X93636844Y-3810000D01*
X93655437Y-4034375D01*
X93710702Y-4252612D01*
X93710703Y-4252613D01*
X93710704Y-4252616D01*
X93776997Y-4403749D01*
X93801141Y-4458793D01*
X93924275Y-4647265D01*
X93924279Y-4647270D01*
X94076762Y-4812908D01*
X94131331Y-4855381D01*
X94254424Y-4951189D01*
X94452426Y-5058342D01*
X94452427Y-5058342D01*
X94452428Y-5058343D01*
X94540320Y-5088516D01*
X94665365Y-5131444D01*
X94887431Y-5168500D01*
X94887435Y-5168500D01*
X95112565Y-5168500D01*
X95112569Y-5168500D01*
X95334635Y-5131444D01*
X95547574Y-5058342D01*
X95745576Y-4951189D01*
X95923240Y-4812906D01*
X96075722Y-4647268D01*
X96198860Y-4458791D01*
X96289296Y-4252616D01*
X96344564Y-4034368D01*
X96363156Y-3810000D01*
X96344564Y-3585632D01*
X96343622Y-3581913D01*
X96289297Y-3367387D01*
X96289296Y-3367386D01*
X96289296Y-3367384D01*
X96198860Y-3161209D01*
X96082756Y-2983498D01*
X96075724Y-2972734D01*
X96075720Y-2972729D01*
X95923237Y-2807091D01*
X95824098Y-2729928D01*
X95745576Y-2668811D01*
X95712319Y-2650813D01*
X95661929Y-2600802D01*
X95646576Y-2531485D01*
X95671136Y-2464872D01*
X95712320Y-2429186D01*
X95745576Y-2411189D01*
X95923240Y-2272906D01*
X96075722Y-2107268D01*
X96198860Y-1918791D01*
X96289296Y-1712616D01*
X96344564Y-1494368D01*
X96363156Y-1270000D01*
X96344564Y-1045632D01*
X96289296Y-827384D01*
X96198860Y-621209D01*
X96152064Y-549582D01*
X96075724Y-432734D01*
X96075720Y-432729D01*
X95923237Y-267091D01*
X95841382Y-203381D01*
X95745576Y-128811D01*
X95712319Y-110813D01*
X95661929Y-60802D01*
X95646576Y8515D01*
X95671136Y75128D01*
X95712320Y110814D01*
X95745576Y128811D01*
X95923240Y267094D01*
X96075722Y432732D01*
X96198860Y621209D01*
X96289296Y827384D01*
X96344564Y1045632D01*
X96363156Y1270000D01*
X96344564Y1494368D01*
X96343622Y1498087D01*
X96289297Y1712613D01*
X96289296Y1712614D01*
X96289296Y1712616D01*
X96198860Y1918791D01*
X96191602Y1929900D01*
X96075724Y2107266D01*
X96075720Y2107271D01*
X95923237Y2272909D01*
X95841382Y2336619D01*
X95745576Y2411189D01*
X95711792Y2429472D01*
X95661402Y2479484D01*
X95646050Y2548801D01*
X95670610Y2615414D01*
X95711793Y2651099D01*
X95745300Y2669233D01*
X95745301Y2669233D01*
X95922902Y2807466D01*
X96075325Y2973042D01*
X96198419Y3161452D01*
X96288820Y3367544D01*
X96288823Y3367551D01*
X96336544Y3556000D01*
X95431116Y3556000D01*
X95459493Y3600156D01*
X95500000Y3738111D01*
X95500000Y3881889D01*
X95459493Y4019844D01*
X95431116Y4064000D01*
X96336544Y4064000D01*
X96336544Y4064001D01*
X96288823Y4252450D01*
X96288820Y4252457D01*
X96198419Y4458549D01*
X96075325Y4646959D01*
X95922902Y4812535D01*
X95745301Y4950768D01*
X95745300Y4950769D01*
X95547371Y5057883D01*
X95547369Y5057884D01*
X95334512Y5130957D01*
X95334501Y5130960D01*
X95254000Y5144394D01*
X95254000Y4243675D01*
X95142315Y4294680D01*
X95035763Y4310000D01*
X94964237Y4310000D01*
X94857685Y4294680D01*
X94746000Y4243675D01*
X94746000Y5144393D01*
X94745999Y5144394D01*
X94665498Y5130960D01*
X94665487Y5130957D01*
X94452630Y5057884D01*
X94452628Y5057883D01*
X94254699Y4950769D01*
X94254698Y4950768D01*
X94077097Y4812535D01*
X93924674Y4646959D01*
X93801580Y4458549D01*
X93711179Y4252457D01*
X93711176Y4252450D01*
X93663455Y4064001D01*
X93663456Y4064000D01*
X94568884Y4064000D01*
X94540507Y4019844D01*
X94500000Y3881889D01*
X94500000Y3738111D01*
X94540507Y3600156D01*
X94568884Y3556000D01*
X93663455Y3556000D01*
X93711176Y3367551D01*
X93711179Y3367544D01*
X93801580Y3161452D01*
X93924674Y2973042D01*
X94077097Y2807466D01*
X94254698Y2669233D01*
X94254704Y2669229D01*
X94288207Y2651098D01*
X94338597Y2601085D01*
X94353949Y2531768D01*
X94329388Y2465155D01*
X94288207Y2429472D01*
X94254430Y2411193D01*
X94254424Y2411189D01*
X94076762Y2272909D01*
X93924279Y2107271D01*
X93924275Y2107266D01*
X93801141Y1918794D01*
X93710703Y1712614D01*
X93710702Y1712613D01*
X93655437Y1494376D01*
X93655436Y1494370D01*
X93655436Y1494368D01*
X93641294Y1323699D01*
X93636844Y1270000D01*
X93655437Y1045625D01*
X93710702Y827388D01*
X93710703Y827387D01*
X93710704Y827384D01*
X93729692Y784095D01*
X93801141Y621207D01*
X93924275Y432735D01*
X93924279Y432730D01*
X94076762Y267092D01*
X94080992Y263800D01*
X94254424Y128811D01*
X94287680Y110814D01*
X94338071Y60800D01*
X94353423Y-8516D01*
X94328862Y-75129D01*
X94287680Y-110813D01*
X94254426Y-128810D01*
X94254424Y-128811D01*
X94076762Y-267091D01*
X93924279Y-432729D01*
X93924275Y-432734D01*
X93801141Y-621206D01*
X93710703Y-827386D01*
X93710702Y-827387D01*
X93655437Y-1045624D01*
X93655436Y-1045630D01*
X93655436Y-1045632D01*
X93641294Y-1216301D01*
X93636844Y-1270000D01*
X93655437Y-1494375D01*
X93710702Y-1712612D01*
X93710703Y-1712613D01*
X93710704Y-1712616D01*
X93729692Y-1755905D01*
X93801141Y-1918793D01*
X93924275Y-2107265D01*
X93924279Y-2107270D01*
X94076762Y-2272908D01*
X94080992Y-2276200D01*
X94254424Y-2411189D01*
X94287680Y-2429186D01*
X94338071Y-2479200D01*
X94353423Y-2548516D01*
X94328862Y-2615129D01*
X94287680Y-2650813D01*
X94254426Y-2668810D01*
X94254424Y-2668811D01*
X94076762Y-2807091D01*
X93924279Y-2972729D01*
X93924275Y-2972734D01*
X93801141Y-3161206D01*
X93710703Y-3367386D01*
X93710702Y-3367387D01*
X93655437Y-3585624D01*
X93636844Y-3810000D01*
X76000500Y-3810000D01*
X76000500Y5000099D01*
X76000500Y5087532D01*
X75970101Y5259938D01*
X75910225Y5424445D01*
X75822692Y5576055D01*
X75710163Y5710163D01*
X75576055Y5822692D01*
X75424445Y5910225D01*
X75424444Y5910226D01*
X75424443Y5910226D01*
X75424441Y5910227D01*
X75259937Y5970102D01*
X75093203Y5999500D01*
X75087532Y6000500D01*
X75000099Y6000500D01*
X71000500Y6000500D01*
X71000000Y6000500D01*
X70912468Y6000500D01*
X70906797Y5999500D01*
X70740063Y5970102D01*
X70740061Y5970102D01*
X70575558Y5910227D01*
X70575556Y5910226D01*
X70423940Y5822689D01*
X70289837Y5710163D01*
X70177311Y5576060D01*
X70089774Y5424444D01*
X70089773Y5424442D01*
X70029898Y5259939D01*
X70029898Y5259937D01*
X70009526Y5144394D01*
X69999500Y5087532D01*
X69999500Y5000099D01*
X69999500Y-4999500D01*
X69999500Y-5000000D01*
X69999500Y-5087532D01*
X63755935Y-5087532D01*
X63749037Y-5076348D01*
X63749036Y-5076347D01*
X63749031Y-5076341D01*
X63623665Y-4950975D01*
X63623659Y-4950970D01*
X63601704Y-4937428D01*
X63472745Y-4857885D01*
X63346940Y-4816198D01*
X63304434Y-4802113D01*
X63304427Y-4802112D01*
X63200560Y-4791500D01*
X62399460Y-4791500D01*
X62354386Y-4796105D01*
X62284586Y-4783128D01*
X62232881Y-4734475D01*
X62215689Y-4665591D01*
X62233130Y-4606616D01*
X62258688Y-4563400D01*
X62305072Y-4403749D01*
X62308007Y-4366461D01*
X62308007Y-3929000D01*
X61754007Y-3929000D01*
X61754007Y-4954991D01*
X61779491Y-4974125D01*
X61821956Y-5031022D01*
X61826920Y-5101844D01*
X61811079Y-5141031D01*
X61778288Y-5194195D01*
X61757892Y-5227262D01*
X61702120Y-5395572D01*
X61702119Y-5395579D01*
X61691507Y-5499446D01*
X61691507Y-6900544D01*
X61160900Y-6900544D01*
X61160900Y-5081850D01*
X61180902Y-5013729D01*
X61211248Y-4981089D01*
X61246007Y-4954991D01*
X61246007Y-4620069D01*
X61256372Y-4570024D01*
X61259148Y-4563607D01*
X61259152Y-4563601D01*
X61305569Y-4403831D01*
X61308507Y-4366502D01*
X61308507Y-2983498D01*
X61307659Y-2972729D01*
X61305569Y-2946170D01*
X61305569Y-2946169D01*
X61259152Y-2786399D01*
X61259148Y-2786392D01*
X61256366Y-2779961D01*
X61246007Y-2729928D01*
X61246007Y-2395007D01*
X61754007Y-2395007D01*
X61754007Y-3421000D01*
X62308006Y-3421000D01*
X62308006Y-2983542D01*
X62305072Y-2946249D01*
X62258688Y-2786599D01*
X62174058Y-2643498D01*
X62174057Y-2643496D01*
X62056510Y-2525949D01*
X62056508Y-2525948D01*
X61913408Y-2441318D01*
X61754007Y-2395007D01*
X61246007Y-2395007D01*
X61246007Y-2395006D01*
X61211247Y-2368908D01*
X61168782Y-2312012D01*
X61160900Y-2268148D01*
X61160900Y4099457D01*
X61691507Y4099457D01*
X61702119Y3995576D01*
X61757892Y3827263D01*
X61850977Y3676349D01*
X61850982Y3676343D01*
X61976348Y3550977D01*
X61976354Y3550972D01*
X61976355Y3550971D01*
X62127269Y3457886D01*
X62295581Y3402114D01*
X62399462Y3391501D01*
X63200551Y3391502D01*
X63304433Y3402114D01*
X63472745Y3457886D01*
X63623659Y3550971D01*
X63749037Y3676349D01*
X63842122Y3827263D01*
X63897894Y3995575D01*
X63908507Y4099456D01*
X63908506Y5500545D01*
X63897894Y5604427D01*
X63842122Y5772739D01*
X63749037Y5923653D01*
X63749036Y5923654D01*
X63749031Y5923660D01*
X63623665Y6049026D01*
X63623659Y6049031D01*
X63472745Y6142116D01*
X63388589Y6170002D01*
X63304434Y6197888D01*
X63304427Y6197889D01*
X63200560Y6208501D01*
X62399460Y6208501D01*
X62354386Y6203896D01*
X62284586Y6216873D01*
X62232881Y6265526D01*
X62215689Y6334410D01*
X62233130Y6393385D01*
X62258688Y6436601D01*
X62305072Y6596252D01*
X62308007Y6633540D01*
X62308007Y7071001D01*
X61754007Y7071001D01*
X61754007Y6045010D01*
X61779491Y6025876D01*
X61821956Y5968979D01*
X61826920Y5898157D01*
X61811079Y5858970D01*
X61757893Y5772740D01*
X61757892Y5772739D01*
X61702120Y5604429D01*
X61702119Y5604422D01*
X61691507Y5500555D01*
X61691507Y4099457D01*
X61160900Y4099457D01*
X61160900Y5918151D01*
X61180902Y5986272D01*
X61211248Y6018912D01*
X61246007Y6045010D01*
X61246007Y6379932D01*
X61256372Y6429977D01*
X61259148Y6436394D01*
X61259152Y6436400D01*
X61305569Y6596170D01*
X61308507Y6633499D01*
X61308507Y8016503D01*
X61305569Y8053832D01*
X61259152Y8213602D01*
X61259148Y8213609D01*
X61256366Y8220040D01*
X61246007Y8270073D01*
X61246007Y8604994D01*
X61754007Y8604994D01*
X61754007Y7579001D01*
X62308006Y7579001D01*
X62308006Y8016459D01*
X62305072Y8053752D01*
X62258688Y8213402D01*
X62174058Y8356503D01*
X62174057Y8356505D01*
X62056510Y8474052D01*
X62056508Y8474053D01*
X61913408Y8558683D01*
X61754007Y8604994D01*
X61246007Y8604994D01*
X61246007Y8604995D01*
X61211247Y8631093D01*
X61168782Y8687989D01*
X61160900Y8731853D01*
X61160900Y9363984D01*
X61180902Y9432105D01*
X61234558Y9478598D01*
X61249416Y9484280D01*
X61261913Y9488173D01*
X61409155Y9577184D01*
X61530816Y9698845D01*
X61619827Y9846087D01*
X61659409Y9973112D01*
X81781896Y9973112D01*
X81794413Y9734297D01*
X81802898Y9572393D01*
X81805710Y9545636D01*
X81805712Y9545625D01*
X81870585Y9136030D01*
X81870585Y9136029D01*
X81876181Y9109705D01*
X81876181Y9109704D01*
X81983518Y8709113D01*
X81991835Y8683518D01*
X81991835Y8683517D01*
X82026126Y8594187D01*
X82140457Y8296346D01*
X82142388Y8292009D01*
X82151403Y8271760D01*
X82339683Y7902239D01*
X82353138Y7878935D01*
X82353139Y7878934D01*
X82435262Y7752477D01*
X82579007Y7531131D01*
X82593332Y7511413D01*
X82594825Y7509358D01*
X82855813Y7187065D01*
X82873813Y7167073D01*
X83167073Y6873813D01*
X83187065Y6855813D01*
X83509358Y6594825D01*
X83509365Y6594820D01*
X83531131Y6579007D01*
X83729431Y6450229D01*
X83878934Y6353139D01*
X83878935Y6353138D01*
X83902239Y6339683D01*
X84271760Y6151403D01*
X84271767Y6151400D01*
X84296346Y6140457D01*
X84534518Y6049031D01*
X84683517Y5991835D01*
X84683518Y5991835D01*
X84683523Y5991833D01*
X84696760Y5987532D01*
X84709113Y5983518D01*
X84953068Y5918151D01*
X85109703Y5876181D01*
X85136019Y5870587D01*
X85136021Y5870587D01*
X85136029Y5870585D01*
X85136030Y5870585D01*
X85340827Y5838149D01*
X85545636Y5805710D01*
X85572393Y5802898D01*
X85744957Y5793855D01*
X85986540Y5781193D01*
X85986547Y5781193D01*
X86013460Y5781193D01*
X86255042Y5793855D01*
X86427607Y5802898D01*
X86454364Y5805710D01*
X86659172Y5838149D01*
X86863970Y5870585D01*
X86863971Y5870585D01*
X86863978Y5870587D01*
X86863981Y5870587D01*
X86890297Y5876181D01*
X87046932Y5918151D01*
X87290887Y5983518D01*
X87303239Y5987532D01*
X87316477Y5991833D01*
X87316482Y5991835D01*
X87316483Y5991835D01*
X87465482Y6049031D01*
X87703654Y6140457D01*
X87728233Y6151400D01*
X87728231Y6151400D01*
X87728240Y6151403D01*
X88097761Y6339683D01*
X88121065Y6353138D01*
X88121066Y6353139D01*
X88270568Y6450229D01*
X88468869Y6579007D01*
X88490635Y6594820D01*
X88490633Y6594820D01*
X88490642Y6594825D01*
X88812935Y6855813D01*
X88832927Y6873813D01*
X89126187Y7167073D01*
X89144187Y7187065D01*
X89405175Y7509358D01*
X89406667Y7511413D01*
X89420993Y7531131D01*
X89564738Y7752477D01*
X89646861Y7878934D01*
X89646862Y7878935D01*
X89660317Y7902239D01*
X89848597Y8271760D01*
X89857612Y8292009D01*
X89859543Y8296346D01*
X89973874Y8594187D01*
X90008165Y8683517D01*
X90008165Y8683518D01*
X90016482Y8709113D01*
X90123819Y9109704D01*
X90123819Y9109705D01*
X90129415Y9136029D01*
X90129415Y9136030D01*
X90194288Y9545625D01*
X90194290Y9545636D01*
X90197102Y9572393D01*
X90218807Y9986547D01*
X90218807Y10013453D01*
X90217111Y10045805D01*
X90198619Y10398658D01*
X90197102Y10427607D01*
X90194290Y10454364D01*
X90150638Y10729971D01*
X90129415Y10863970D01*
X90129415Y10863971D01*
X90124344Y10887826D01*
X90123819Y10890297D01*
X90061992Y11121041D01*
X90016482Y11290887D01*
X90008165Y11316482D01*
X90008165Y11316483D01*
X89959149Y11444173D01*
X89859543Y11703654D01*
X89848600Y11728233D01*
X89848597Y11728240D01*
X89660317Y12097761D01*
X89646862Y12121065D01*
X89646861Y12121066D01*
X89536467Y12291055D01*
X89420993Y12468869D01*
X89405180Y12490635D01*
X89405175Y12490642D01*
X89144187Y12812935D01*
X89126187Y12832927D01*
X88832927Y13126187D01*
X88812935Y13144187D01*
X88490642Y13405175D01*
X88488587Y13406668D01*
X88468869Y13420993D01*
X88242025Y13568308D01*
X88121066Y13646861D01*
X88121065Y13646862D01*
X88097761Y13660317D01*
X87728240Y13848597D01*
X87723972Y13850497D01*
X87703654Y13859543D01*
X87415905Y13970000D01*
X87316483Y14008165D01*
X87316482Y14008165D01*
X87316477Y14008167D01*
X87303239Y14012469D01*
X87290887Y14016482D01*
X87036921Y14084532D01*
X86890297Y14123819D01*
X86863981Y14129413D01*
X86863978Y14129414D01*
X86863971Y14129415D01*
X86863970Y14129415D01*
X86659172Y14161852D01*
X86454364Y14194290D01*
X86427607Y14197102D01*
X86255042Y14206146D01*
X86013460Y14218807D01*
X86013453Y14218807D01*
X85986547Y14218807D01*
X85986540Y14218807D01*
X85744957Y14206146D01*
X85572393Y14197102D01*
X85545636Y14194290D01*
X85340827Y14161852D01*
X85136030Y14129415D01*
X85136029Y14129415D01*
X85136021Y14129414D01*
X85136019Y14129413D01*
X85109703Y14123819D01*
X84963078Y14084532D01*
X84709113Y14016482D01*
X84696760Y14012469D01*
X84683523Y14008167D01*
X84683518Y14008165D01*
X84683517Y14008165D01*
X84584095Y13970000D01*
X84296346Y13859543D01*
X84276027Y13850497D01*
X84271760Y13848597D01*
X83902239Y13660317D01*
X83878935Y13646862D01*
X83878934Y13646861D01*
X83757975Y13568308D01*
X83531131Y13420993D01*
X83511412Y13406668D01*
X83509358Y13405175D01*
X83187065Y13144187D01*
X83167073Y13126187D01*
X82873813Y12832927D01*
X82855813Y12812935D01*
X82594825Y12490642D01*
X82594820Y12490635D01*
X82579007Y12468869D01*
X82463533Y12291055D01*
X82353139Y12121066D01*
X82353138Y12121065D01*
X82339683Y12097761D01*
X82151403Y11728240D01*
X82151400Y11728233D01*
X82140457Y11703654D01*
X82040850Y11444173D01*
X81991835Y11316483D01*
X81991835Y11316482D01*
X81983518Y11290887D01*
X81938008Y11121041D01*
X81876181Y10890297D01*
X81875656Y10887826D01*
X81870585Y10863971D01*
X81870585Y10863970D01*
X81849362Y10729971D01*
X81805710Y10454364D01*
X81802898Y10427607D01*
X81801381Y10398658D01*
X81781897Y10026891D01*
X81781896Y10026884D01*
X81783118Y9999886D01*
X81783325Y9995125D01*
X81783127Y9986692D01*
X81781896Y9973112D01*
X61659409Y9973112D01*
X61671013Y10010351D01*
X61677500Y10081735D01*
X61677499Y10398659D01*
X61697501Y10466778D01*
X61714399Y10487748D01*
X63189883Y11963231D01*
X63192613Y11965801D01*
X63236324Y12004523D01*
X63269497Y12052584D01*
X63271721Y12055608D01*
X63307740Y12101581D01*
X63311324Y12109547D01*
X63322529Y12129415D01*
X63327496Y12136609D01*
X63348203Y12191213D01*
X63349640Y12194682D01*
X63373609Y12247936D01*
X63375185Y12256541D01*
X63381308Y12278503D01*
X63384408Y12286675D01*
X63391444Y12344628D01*
X63392013Y12348367D01*
X63402540Y12405803D01*
X63399014Y12464077D01*
X63398900Y12467880D01*
X63398900Y18774134D01*
X63399015Y18777939D01*
X63402539Y18836197D01*
X63392012Y18893633D01*
X63391445Y18897364D01*
X63384408Y18955325D01*
X63381306Y18963502D01*
X63375185Y18985462D01*
X63373609Y18994064D01*
X63349652Y19047293D01*
X63348197Y19050807D01*
X63341057Y19069632D01*
X63327496Y19105391D01*
X63322529Y19112587D01*
X63311324Y19132454D01*
X63307739Y19140419D01*
X63307739Y19140420D01*
X63278996Y19177109D01*
X63271744Y19186366D01*
X63269490Y19189430D01*
X63248115Y19220395D01*
X63236324Y19237477D01*
X63192631Y19276186D01*
X63189866Y19278788D01*
X62722801Y19745852D01*
X62720191Y19748624D01*
X62681478Y19792323D01*
X62681477Y19792324D01*
X62633408Y19825504D01*
X62630355Y19827751D01*
X62619052Y19836606D01*
X62584420Y19863739D01*
X62576446Y19867328D01*
X62556587Y19878529D01*
X62549391Y19883496D01*
X62549389Y19883497D01*
X62494811Y19904196D01*
X62491296Y19905652D01*
X62441091Y19928247D01*
X62387319Y19974232D01*
X62284724Y20131266D01*
X62284720Y20131271D01*
X62143859Y20284284D01*
X62132240Y20296906D01*
X62132239Y20296907D01*
X62132237Y20296909D01*
X62046684Y20363498D01*
X61954576Y20435189D01*
X61920792Y20453472D01*
X61870402Y20503484D01*
X61855050Y20572801D01*
X61879610Y20639414D01*
X61920793Y20675099D01*
X61954300Y20693233D01*
X61954301Y20693233D01*
X62131902Y20831466D01*
X62284325Y20997042D01*
X62407419Y21185452D01*
X62497820Y21391544D01*
X62497823Y21391551D01*
X62545544Y21580000D01*
X61640116Y21580000D01*
X61668493Y21624156D01*
X61709000Y21762111D01*
X61709000Y21905889D01*
X61668493Y22043844D01*
X61640116Y22088000D01*
X62545544Y22088000D01*
X62545544Y22088001D01*
X62497823Y22276450D01*
X62497820Y22276457D01*
X62407419Y22482549D01*
X62284325Y22670959D01*
X62131902Y22836535D01*
X61954301Y22974768D01*
X61954300Y22974769D01*
X61756371Y23081883D01*
X61756369Y23081884D01*
X61543512Y23154957D01*
X61543501Y23154960D01*
X61463000Y23168394D01*
X61463000Y22267675D01*
X61351315Y22318680D01*
X61244763Y22334000D01*
X61173237Y22334000D01*
X61066685Y22318680D01*
X60955000Y22267675D01*
X60955000Y23168393D01*
X60954999Y23168394D01*
X60874498Y23154960D01*
X60874487Y23154957D01*
X60661630Y23081884D01*
X60661628Y23081883D01*
X60463699Y22974769D01*
X60463698Y22974768D01*
X60286093Y22836532D01*
X60224571Y22769700D01*
X60163718Y22733129D01*
X60092754Y22735262D01*
X60034208Y22775424D01*
X60013814Y22811005D01*
X59969444Y22929965D01*
X59969444Y22929966D01*
X59881904Y23046905D01*
X59764965Y23134445D01*
X59628093Y23185495D01*
X59567597Y23192000D01*
X58923000Y23192000D01*
X58923000Y22267675D01*
X58811315Y22318680D01*
X58704763Y22334000D01*
X58633237Y22334000D01*
X58526685Y22318680D01*
X58415000Y22267675D01*
X58415000Y23192000D01*
X57770402Y23192000D01*
X57709906Y23185495D01*
X57573035Y23134445D01*
X57573034Y23134445D01*
X57456095Y23046905D01*
X57368555Y22929966D01*
X57368555Y22929965D01*
X57317505Y22793094D01*
X57311000Y22732598D01*
X57311000Y22088000D01*
X58237884Y22088000D01*
X58209507Y22043844D01*
X58169000Y21905889D01*
X58169000Y21762111D01*
X58209507Y21624156D01*
X58237884Y21580000D01*
X57311000Y21580000D01*
X57311000Y21513300D01*
X57290998Y21445179D01*
X57237342Y21398686D01*
X57185000Y21387300D01*
X54787300Y21387300D01*
X54719179Y21407302D01*
X54672686Y21460958D01*
X54661300Y21513300D01*
X54661300Y25400000D01*
X90272496Y25400000D01*
X90292457Y25210073D01*
X90322526Y25117530D01*
X90351473Y25028444D01*
X90351476Y25028439D01*
X90446958Y24863059D01*
X90446965Y24863049D01*
X90574744Y24721136D01*
X90574747Y24721134D01*
X90729248Y24608882D01*
X90903712Y24531206D01*
X91090513Y24491500D01*
X91281487Y24491500D01*
X91468288Y24531206D01*
X91642752Y24608882D01*
X91797253Y24721134D01*
X91821632Y24748211D01*
X91882078Y24785450D01*
X91915269Y24789900D01*
X93449674Y24789900D01*
X93517795Y24769898D01*
X93555157Y24732815D01*
X93666275Y24562735D01*
X93666279Y24562730D01*
X93809841Y24406783D01*
X93841262Y24343118D01*
X93833276Y24272572D01*
X93788417Y24217543D01*
X93761173Y24203390D01*
X93646039Y24160447D01*
X93646034Y24160445D01*
X93529095Y24072905D01*
X93441555Y23955966D01*
X93441555Y23955965D01*
X93390505Y23819094D01*
X93384000Y23758598D01*
X93384000Y23114000D01*
X94310884Y23114000D01*
X94282507Y23069844D01*
X94242000Y22931889D01*
X94242000Y22788111D01*
X94282507Y22650156D01*
X94310884Y22606000D01*
X93384000Y22606000D01*
X93384000Y21961403D01*
X93390505Y21900907D01*
X93441555Y21764036D01*
X93441555Y21764035D01*
X93529095Y21647096D01*
X93646034Y21559556D01*
X93782906Y21508506D01*
X93843402Y21502001D01*
X93843415Y21502000D01*
X94488000Y21502000D01*
X94488000Y22426326D01*
X94599685Y22375320D01*
X94706237Y22360000D01*
X94777763Y22360000D01*
X94884315Y22375320D01*
X94996000Y22426326D01*
X94996000Y21502000D01*
X95640585Y21502000D01*
X95640597Y21502001D01*
X95701093Y21508506D01*
X95837964Y21559556D01*
X95837965Y21559556D01*
X95954904Y21647096D01*
X96042444Y21764035D01*
X96042444Y21764036D01*
X96093494Y21900907D01*
X96099999Y21961403D01*
X96100000Y21961415D01*
X96100000Y22606000D01*
X95173116Y22606000D01*
X95201493Y22650156D01*
X95242000Y22788111D01*
X95242000Y22931889D01*
X95201493Y23069844D01*
X95173116Y23114000D01*
X96100000Y23114000D01*
X96100000Y23758586D01*
X96099999Y23758598D01*
X96093494Y23819094D01*
X96042444Y23955965D01*
X96042444Y23955966D01*
X95954904Y24072905D01*
X95837966Y24160444D01*
X95722826Y24203389D01*
X95665991Y24245936D01*
X95641180Y24312457D01*
X95656272Y24381831D01*
X95674154Y24406778D01*
X95817722Y24562732D01*
X95940860Y24751209D01*
X96031296Y24957384D01*
X96086564Y25175632D01*
X96105156Y25400000D01*
X96086564Y25624368D01*
X96049291Y25771556D01*
X96031297Y25842613D01*
X96031296Y25842614D01*
X96031296Y25842616D01*
X95940860Y26048791D01*
X95921210Y26078867D01*
X95817724Y26237266D01*
X95817720Y26237271D01*
X95665237Y26402909D01*
X95583382Y26466619D01*
X95487576Y26541189D01*
X95454319Y26559187D01*
X95403929Y26609198D01*
X95388576Y26678515D01*
X95413136Y26745128D01*
X95454320Y26780814D01*
X95487576Y26798811D01*
X95665240Y26937094D01*
X95817722Y27102732D01*
X95940860Y27291209D01*
X96031296Y27497384D01*
X96086564Y27715632D01*
X96105156Y27940000D01*
X96086564Y28164368D01*
X96079383Y28192725D01*
X96031297Y28382613D01*
X96031296Y28382614D01*
X96031296Y28382616D01*
X95940860Y28588791D01*
X95921211Y28618866D01*
X95817724Y28777266D01*
X95817720Y28777271D01*
X95665237Y28942909D01*
X95583382Y29006619D01*
X95487576Y29081189D01*
X95454319Y29099187D01*
X95403929Y29149198D01*
X95388576Y29218515D01*
X95413136Y29285128D01*
X95454320Y29320814D01*
X95487576Y29338811D01*
X95665240Y29477094D01*
X95817722Y29642732D01*
X95940860Y29831209D01*
X96031296Y30037384D01*
X96086564Y30255632D01*
X96105156Y30480000D01*
X96086564Y30704368D01*
X96081691Y30723612D01*
X96031297Y30922613D01*
X96031296Y30922614D01*
X96031296Y30922616D01*
X95940860Y31128791D01*
X95837824Y31286500D01*
X95817724Y31317266D01*
X95817720Y31317271D01*
X95665237Y31482909D01*
X95563680Y31561954D01*
X95487576Y31621189D01*
X95454319Y31639187D01*
X95403929Y31689198D01*
X95388576Y31758515D01*
X95413136Y31825128D01*
X95454320Y31860814D01*
X95487576Y31878811D01*
X95665240Y32017094D01*
X95817722Y32182732D01*
X95940860Y32371209D01*
X96031296Y32577384D01*
X96086564Y32795632D01*
X96105156Y33020000D01*
X96086564Y33244368D01*
X96031579Y33461500D01*
X96031297Y33462613D01*
X96031296Y33462614D01*
X96031296Y33462616D01*
X95940860Y33668791D01*
X95934140Y33679076D01*
X95817724Y33857266D01*
X95817720Y33857271D01*
X95665237Y34022909D01*
X95583382Y34086619D01*
X95487576Y34161189D01*
X95289574Y34268342D01*
X95289572Y34268343D01*
X95289571Y34268344D01*
X95076639Y34341443D01*
X95076630Y34341445D01*
X95032476Y34348813D01*
X94854569Y34378500D01*
X94629431Y34378500D01*
X94481211Y34353767D01*
X94407369Y34341445D01*
X94407360Y34341443D01*
X94194428Y34268344D01*
X94194426Y34268342D01*
X93996426Y34161190D01*
X93996424Y34161189D01*
X93818762Y34022909D01*
X93666279Y33857271D01*
X93666275Y33857266D01*
X93543141Y33668794D01*
X93452703Y33462614D01*
X93452702Y33462613D01*
X93397437Y33244376D01*
X93397436Y33244370D01*
X93397436Y33244368D01*
X93378844Y33020000D01*
X93396297Y32809372D01*
X93397437Y32795625D01*
X93452702Y32577388D01*
X93452703Y32577387D01*
X93452704Y32577384D01*
X93518333Y32427764D01*
X93543141Y32371207D01*
X93666275Y32182735D01*
X93666279Y32182730D01*
X93818762Y32017092D01*
X93873331Y31974619D01*
X93996424Y31878811D01*
X94029680Y31860814D01*
X94080071Y31810800D01*
X94095423Y31741484D01*
X94070862Y31674871D01*
X94029680Y31639187D01*
X93996426Y31621190D01*
X93996424Y31621189D01*
X93818762Y31482909D01*
X93666279Y31317271D01*
X93666275Y31317266D01*
X93543141Y31128794D01*
X93452703Y30922614D01*
X93452702Y30922613D01*
X93397437Y30704376D01*
X93397436Y30704370D01*
X93397436Y30704368D01*
X93378844Y30480000D01*
X93388721Y30360799D01*
X93397437Y30255625D01*
X93452702Y30037388D01*
X93452703Y30037387D01*
X93452704Y30037384D01*
X93543140Y29831209D01*
X93543141Y29831207D01*
X93666275Y29642735D01*
X93666279Y29642730D01*
X93818762Y29477092D01*
X93873331Y29434619D01*
X93996424Y29338811D01*
X94029680Y29320814D01*
X94080071Y29270800D01*
X94095423Y29201484D01*
X94070862Y29134871D01*
X94029680Y29099187D01*
X93996426Y29081190D01*
X93996424Y29081189D01*
X93818762Y28942909D01*
X93666279Y28777271D01*
X93666275Y28777266D01*
X93543141Y28588794D01*
X93452703Y28382614D01*
X93452702Y28382613D01*
X93397437Y28164376D01*
X93397436Y28164370D01*
X93397436Y28164368D01*
X93378844Y27940000D01*
X93394582Y27750072D01*
X93397437Y27715625D01*
X93452702Y27497388D01*
X93452703Y27497387D01*
X93452704Y27497384D01*
X93538470Y27301856D01*
X93543141Y27291207D01*
X93666275Y27102735D01*
X93666279Y27102730D01*
X93818762Y26937092D01*
X93873331Y26894619D01*
X93996424Y26798811D01*
X94029680Y26780814D01*
X94080071Y26730800D01*
X94095423Y26661484D01*
X94070862Y26594871D01*
X94029680Y26559187D01*
X93996426Y26541190D01*
X93996424Y26541189D01*
X93818762Y26402909D01*
X93666279Y26237271D01*
X93666275Y26237266D01*
X93555157Y26067185D01*
X93501154Y26021096D01*
X93449674Y26010100D01*
X91915269Y26010100D01*
X91847148Y26030102D01*
X91821632Y26051790D01*
X91807770Y26067185D01*
X91797253Y26078866D01*
X91642752Y26191118D01*
X91468288Y26268794D01*
X91281487Y26308500D01*
X91090513Y26308500D01*
X90903711Y26268794D01*
X90729247Y26191118D01*
X90574744Y26078865D01*
X90446965Y25936952D01*
X90446958Y25936942D01*
X90351476Y25771562D01*
X90351473Y25771555D01*
X90292457Y25589928D01*
X90272496Y25400000D01*
X54661300Y25400000D01*
X54661300Y27159188D01*
X54681302Y27227309D01*
X54708704Y27256321D01*
X54708348Y27256717D01*
X54713232Y27261115D01*
X54713244Y27261127D01*
X54713254Y27261135D01*
X54713255Y27261136D01*
X54841034Y27403049D01*
X54841035Y27403051D01*
X54841040Y27403056D01*
X54936527Y27568444D01*
X54995542Y27750072D01*
X55015504Y27940000D01*
X54995542Y28129928D01*
X54936527Y28311556D01*
X54841040Y28476944D01*
X54841038Y28476946D01*
X54841034Y28476952D01*
X54713255Y28618865D01*
X54558752Y28731118D01*
X54384288Y28808794D01*
X54197487Y28848500D01*
X54006513Y28848500D01*
X53819711Y28808794D01*
X53645247Y28731118D01*
X53490744Y28618865D01*
X53362965Y28476952D01*
X53362958Y28476942D01*
X53267473Y28311559D01*
X53249912Y28257514D01*
X53219181Y28207363D01*
X53208115Y28196297D01*
X53208113Y28196294D01*
X53194644Y28174859D01*
X53188376Y28164882D01*
X53185542Y28160372D01*
X53181451Y28154608D01*
X53155003Y28121443D01*
X53155000Y28121438D01*
X53136591Y28083213D01*
X53133173Y28077028D01*
X53110606Y28041112D01*
X53110605Y28041110D01*
X53104538Y28023772D01*
X53063157Y27966082D01*
X52997155Y27939922D01*
X52927488Y27953598D01*
X52896515Y27976297D01*
X52812868Y28059944D01*
X52803135Y28072092D01*
X52802876Y28071877D01*
X52797828Y28077980D01*
X52797826Y28077983D01*
X52795650Y28080026D01*
X52748641Y28124171D01*
X52728269Y28144544D01*
X52723008Y28148625D01*
X52718495Y28152480D01*
X52685460Y28183502D01*
X52685455Y28183506D01*
X52668685Y28192725D01*
X52652157Y28203582D01*
X52637035Y28215312D01*
X52637036Y28215312D01*
X52637034Y28215313D01*
X52637030Y28215315D01*
X52637028Y28215316D01*
X52598622Y28231936D01*
X52595430Y28233318D01*
X52590103Y28235927D01*
X52550379Y28257765D01*
X52531830Y28262528D01*
X52513133Y28268930D01*
X52495564Y28276533D01*
X52450788Y28283625D01*
X52444974Y28284829D01*
X52421152Y28290945D01*
X52401074Y28296100D01*
X52401073Y28296100D01*
X52381936Y28296100D01*
X52362225Y28297651D01*
X52358639Y28298219D01*
X52343316Y28300646D01*
X52343315Y28300646D01*
X52298183Y28296380D01*
X52292250Y28296100D01*
X29037263Y28296100D01*
X29021795Y28297808D01*
X29021764Y28297473D01*
X29013871Y28298220D01*
X28946432Y28296100D01*
X28917617Y28296100D01*
X28917613Y28296100D01*
X28917601Y28296099D01*
X28911015Y28295267D01*
X28905103Y28294802D01*
X28859801Y28293379D01*
X28841416Y28288037D01*
X28822060Y28284029D01*
X28803075Y28281631D01*
X28803062Y28281627D01*
X28760922Y28264944D01*
X28755308Y28263021D01*
X28711772Y28250372D01*
X28695287Y28240624D01*
X28677553Y28231936D01*
X28659745Y28224884D01*
X28623070Y28198238D01*
X28618117Y28194985D01*
X28598709Y28183506D01*
X28579092Y28171905D01*
X28565556Y28158369D01*
X28550530Y28145536D01*
X28535040Y28134282D01*
X28535038Y28134280D01*
X28506132Y28099340D01*
X28502136Y28094949D01*
X28074054Y27666868D01*
X28061911Y27657139D01*
X28062125Y27656880D01*
X28056017Y27651828D01*
X28009828Y27602642D01*
X27989453Y27582266D01*
X27989452Y27582266D01*
X27985374Y27577008D01*
X27981523Y27572500D01*
X27950499Y27539463D01*
X27950495Y27539458D01*
X27941277Y27522689D01*
X27930424Y27506167D01*
X27918686Y27491035D01*
X27900681Y27449428D01*
X27898070Y27444098D01*
X27876235Y27404380D01*
X27871473Y27385835D01*
X27865074Y27367145D01*
X27857468Y27349566D01*
X27850377Y27304800D01*
X27849173Y27298986D01*
X27837900Y27255076D01*
X27837900Y27235937D01*
X27836349Y27216227D01*
X27833354Y27197317D01*
X27833354Y27197316D01*
X27837620Y27152184D01*
X27837900Y27146251D01*
X27837900Y17607262D01*
X27836192Y17591792D01*
X27836527Y17591760D01*
X27835781Y17583870D01*
X27837900Y17516433D01*
X27837900Y17487622D01*
X27837901Y17487605D01*
X27838733Y17481016D01*
X27839198Y17475103D01*
X27840622Y17429798D01*
X27845962Y17411419D01*
X27849971Y17392064D01*
X27850612Y17386995D01*
X27852371Y17373067D01*
X27869059Y17330918D01*
X27870983Y17325300D01*
X27883626Y17281778D01*
X27883629Y17281771D01*
X27893371Y17265297D01*
X27902065Y17247552D01*
X27909116Y17229745D01*
X27935764Y17193067D01*
X27939025Y17188103D01*
X27962092Y17149097D01*
X27962093Y17149096D01*
X27962094Y17149095D01*
X27962095Y17149094D01*
X27975626Y17135563D01*
X27988464Y17120532D01*
X27999720Y17105039D01*
X28034653Y17076140D01*
X28039046Y17072143D01*
X28975132Y16136056D01*
X28984859Y16123915D01*
X28985118Y16124128D01*
X28990173Y16118018D01*
X29039358Y16071830D01*
X29059728Y16051459D01*
X29059737Y16051451D01*
X29062074Y16049639D01*
X29064989Y16047378D01*
X29069502Y16043523D01*
X29102542Y16012496D01*
X29119307Y16003280D01*
X29135832Y15992427D01*
X29150966Y15980687D01*
X29192585Y15962677D01*
X29197884Y15960081D01*
X29237622Y15938235D01*
X29254030Y15934022D01*
X29315036Y15897710D01*
X29336890Y15865233D01*
X29340709Y15857043D01*
X29342478Y15853249D01*
X29458913Y15686963D01*
X29473802Y15665700D01*
X29635700Y15503802D01*
X29823251Y15372477D01*
X29838291Y15365464D01*
X29862457Y15354195D01*
X29915742Y15307278D01*
X29935203Y15239001D01*
X29914661Y15171041D01*
X29862457Y15125805D01*
X29823250Y15107523D01*
X29635703Y14976201D01*
X29635697Y14976196D01*
X29473804Y14814303D01*
X29473799Y14814297D01*
X29342477Y14626750D01*
X29245717Y14419247D01*
X29245715Y14419241D01*
X29193400Y14224000D01*
X29186457Y14198087D01*
X29166502Y13970000D01*
X29186457Y13741913D01*
X29208320Y13660321D01*
X29245715Y13520760D01*
X29245717Y13520754D01*
X29342477Y13313251D01*
X29432627Y13184503D01*
X29473802Y13125700D01*
X29635700Y12963802D01*
X29823251Y12832477D01*
X29858359Y12816106D01*
X29862457Y12814195D01*
X29915742Y12767278D01*
X29935203Y12699001D01*
X29914661Y12631041D01*
X29862457Y12585805D01*
X29823250Y12567523D01*
X29635703Y12436201D01*
X29635697Y12436196D01*
X29473804Y12274303D01*
X29473799Y12274297D01*
X29348464Y12095300D01*
X29293007Y12050972D01*
X29249210Y12041633D01*
X29204253Y12040221D01*
X29200432Y12040100D01*
X29171617Y12040100D01*
X29171613Y12040100D01*
X29171601Y12040099D01*
X29165015Y12039267D01*
X29159103Y12038802D01*
X29113801Y12037379D01*
X29095416Y12032037D01*
X29076060Y12028029D01*
X29057070Y12025630D01*
X29014921Y12008943D01*
X29009306Y12007020D01*
X28965773Y11994372D01*
X28949293Y11984626D01*
X28931553Y11975936D01*
X28913750Y11968887D01*
X28913745Y11968884D01*
X28877066Y11942236D01*
X28872105Y11938978D01*
X28833093Y11915905D01*
X28819556Y11902369D01*
X28804531Y11889536D01*
X28789037Y11878279D01*
X28760137Y11843346D01*
X28756142Y11838955D01*
X27820052Y10902866D01*
X27807911Y10893138D01*
X27808125Y10892880D01*
X27802017Y10887828D01*
X27755828Y10838642D01*
X27735453Y10818266D01*
X27735452Y10818266D01*
X27731374Y10813008D01*
X27727523Y10808500D01*
X27696499Y10775463D01*
X27696495Y10775458D01*
X27687277Y10758689D01*
X27676424Y10742167D01*
X27664686Y10727035D01*
X27646681Y10685428D01*
X27644070Y10680098D01*
X27622235Y10640380D01*
X27617473Y10621835D01*
X27611074Y10603145D01*
X27603468Y10585566D01*
X27596377Y10540800D01*
X27595173Y10534986D01*
X27583900Y10491076D01*
X27583900Y10471937D01*
X27582349Y10452227D01*
X27579354Y10433317D01*
X27579354Y10433316D01*
X27583620Y10388184D01*
X27583900Y10382251D01*
X27583900Y6400902D01*
X27563898Y6332781D01*
X27546995Y6311807D01*
X26962193Y5727005D01*
X26899881Y5692979D01*
X26873098Y5690100D01*
X25008844Y5690100D01*
X24940723Y5710102D01*
X24894230Y5763758D01*
X24884126Y5834032D01*
X24893456Y5866713D01*
X24911296Y5907384D01*
X24966564Y6125632D01*
X24985156Y6350000D01*
X24966564Y6574368D01*
X24965389Y6579007D01*
X24911297Y6792613D01*
X24911296Y6792614D01*
X24911296Y6792616D01*
X24820860Y6998791D01*
X24814140Y7009076D01*
X24697724Y7187266D01*
X24697720Y7187271D01*
X24545237Y7352909D01*
X24463382Y7416619D01*
X24367576Y7491189D01*
X24169574Y7598342D01*
X24169572Y7598343D01*
X24169571Y7598344D01*
X23956639Y7671443D01*
X23956630Y7671445D01*
X23912476Y7678813D01*
X23734569Y7708500D01*
X23509431Y7708500D01*
X23361211Y7683767D01*
X23287369Y7671445D01*
X23287360Y7671443D01*
X23074428Y7598344D01*
X23074426Y7598342D01*
X22909998Y7509358D01*
X22876426Y7491190D01*
X22876424Y7491189D01*
X22698762Y7352909D01*
X22546279Y7187271D01*
X22457483Y7051357D01*
X22403479Y7005269D01*
X22333131Y6995694D01*
X22268774Y7025671D01*
X22246517Y7051357D01*
X22157720Y7187271D01*
X22005237Y7352909D01*
X21923382Y7416619D01*
X21827576Y7491189D01*
X21629574Y7598342D01*
X21629572Y7598343D01*
X21629571Y7598344D01*
X21416639Y7671443D01*
X21416630Y7671445D01*
X21372476Y7678813D01*
X21194569Y7708500D01*
X20969431Y7708500D01*
X20821211Y7683767D01*
X20747369Y7671445D01*
X20747360Y7671443D01*
X20534428Y7598344D01*
X20534426Y7598342D01*
X20369998Y7509358D01*
X20336426Y7491190D01*
X20336424Y7491189D01*
X20158762Y7352909D01*
X20006279Y7187271D01*
X20006275Y7187266D01*
X19883141Y6998794D01*
X19792703Y6792614D01*
X19792702Y6792613D01*
X19737437Y6574376D01*
X19737436Y6574370D01*
X19737436Y6574368D01*
X19718844Y6350000D01*
X19736207Y6140458D01*
X19737437Y6125625D01*
X19792702Y5907388D01*
X19792703Y5907387D01*
X19792704Y5907384D01*
X19879239Y5710102D01*
X19883141Y5701207D01*
X20006275Y5512735D01*
X20006279Y5512730D01*
X20158762Y5347092D01*
X20213331Y5304619D01*
X20336424Y5208811D01*
X20369680Y5190814D01*
X20420071Y5140800D01*
X20435423Y5071484D01*
X20410862Y5004871D01*
X20369680Y4969186D01*
X20336426Y4951190D01*
X20336424Y4951189D01*
X20158762Y4812909D01*
X20006279Y4647271D01*
X20006275Y4647266D01*
X19883141Y4458794D01*
X19792703Y4252614D01*
X19792702Y4252613D01*
X19737437Y4034376D01*
X19737436Y4034370D01*
X19737436Y4034368D01*
X19718844Y3810000D01*
X19736232Y3600156D01*
X19737437Y3585625D01*
X19792702Y3367388D01*
X19792703Y3367387D01*
X19792704Y3367384D01*
X19883140Y3161209D01*
X19883141Y3161207D01*
X20006275Y2972735D01*
X20006279Y2972730D01*
X20158762Y2807092D01*
X20162992Y2803800D01*
X20336424Y2668811D01*
X20369153Y2651099D01*
X20369680Y2650814D01*
X20420071Y2600800D01*
X20435423Y2531484D01*
X20410862Y2464871D01*
X20369680Y2429187D01*
X20336426Y2411190D01*
X20336424Y2411189D01*
X20158762Y2272909D01*
X20006279Y2107271D01*
X20006275Y2107266D01*
X19883141Y1918794D01*
X19792703Y1712614D01*
X19792702Y1712613D01*
X19737437Y1494376D01*
X19737436Y1494370D01*
X19737436Y1494368D01*
X19723294Y1323699D01*
X19718844Y1270000D01*
X19737437Y1045625D01*
X19792702Y827388D01*
X19792703Y827387D01*
X19792704Y827384D01*
X19811692Y784095D01*
X19883141Y621207D01*
X20006275Y432735D01*
X20006279Y432730D01*
X20158762Y267092D01*
X20162992Y263800D01*
X20336424Y128811D01*
X20369680Y110814D01*
X20420071Y60800D01*
X20435423Y-8516D01*
X20410862Y-75129D01*
X20369680Y-110813D01*
X20336426Y-128810D01*
X20336424Y-128811D01*
X20158762Y-267091D01*
X20006279Y-432729D01*
X20006275Y-432734D01*
X19883141Y-621206D01*
X19792703Y-827386D01*
X19792702Y-827387D01*
X19737437Y-1045624D01*
X19737436Y-1045630D01*
X19737436Y-1045632D01*
X19723294Y-1216301D01*
X19718844Y-1270000D01*
X19737437Y-1494375D01*
X19792702Y-1712612D01*
X19792703Y-1712613D01*
X19792704Y-1712616D01*
X19811692Y-1755905D01*
X19883141Y-1918793D01*
X20006275Y-2107265D01*
X20006279Y-2107270D01*
X20158762Y-2272908D01*
X20162992Y-2276200D01*
X20336424Y-2411189D01*
X20369680Y-2429186D01*
X20420071Y-2479200D01*
X20435423Y-2548516D01*
X20410862Y-2615129D01*
X20369680Y-2650813D01*
X20336426Y-2668810D01*
X20336424Y-2668811D01*
X20158762Y-2807091D01*
X20006279Y-2972729D01*
X20006275Y-2972734D01*
X19883141Y-3161206D01*
X19792703Y-3367386D01*
X19792702Y-3367387D01*
X19737437Y-3585624D01*
X19718844Y-3810000D01*
X19737437Y-4034375D01*
X19792702Y-4252612D01*
X19792703Y-4252613D01*
X19792704Y-4252616D01*
X19858997Y-4403749D01*
X19883141Y-4458793D01*
X20006275Y-4647265D01*
X20006279Y-4647270D01*
X20158762Y-4812908D01*
X20213331Y-4855381D01*
X20336424Y-4951189D01*
X20369680Y-4969186D01*
X20420071Y-5019200D01*
X20435423Y-5088516D01*
X20410862Y-5155129D01*
X20369680Y-5190813D01*
X20336426Y-5208810D01*
X20336424Y-5208811D01*
X20158762Y-5347091D01*
X20006279Y-5512729D01*
X20006275Y-5512734D01*
X19883141Y-5701206D01*
X19792703Y-5907386D01*
X19792702Y-5907387D01*
X19737437Y-6125624D01*
X19737436Y-6125630D01*
X19737436Y-6125632D01*
X19718844Y-6350000D01*
X17000500Y-6350000D01*
X17000500Y14974843D01*
X17000528Y14974986D01*
X17000524Y14974986D01*
X17000539Y14999998D01*
X17000541Y15000000D01*
X17000383Y15000383D01*
X17000099Y15000500D01*
X17000000Y15000541D01*
X16999999Y15000541D01*
X16975048Y15000541D01*
X16974842Y15000500D01*
X5000000Y15000500D01*
X4782728Y15009487D01*
X4584114Y15018159D01*
X4579067Y15018583D01*
X4363319Y15045476D01*
X4162764Y15071881D01*
X4158058Y15072683D01*
X3945826Y15117182D01*
X3747521Y15161145D01*
X3743179Y15162271D01*
X3535496Y15224101D01*
X3341390Y15285303D01*
X3337433Y15286697D01*
X3135566Y15365464D01*
X2947257Y15443465D01*
X2943696Y15445071D01*
X2749007Y15540249D01*
X2568029Y15634460D01*
X2564870Y15636221D01*
X2378617Y15747203D01*
X2206367Y15856939D01*
X2203608Y15858800D01*
X2027081Y15984838D01*
X1864913Y16109274D01*
X1862548Y16111181D01*
X1696940Y16251443D01*
X1631521Y16311388D01*
X1545104Y16390575D01*
X1390574Y16545105D01*
X1251442Y16696941D01*
X1111179Y16862550D01*
X1109272Y16864915D01*
X984837Y17027082D01*
X897722Y17149094D01*
X858794Y17203616D01*
X856937Y17206369D01*
X747202Y17378618D01*
X716705Y17429798D01*
X636214Y17564879D01*
X634458Y17568031D01*
X540248Y17749008D01*
X468784Y17895189D01*
X445063Y17943712D01*
X443463Y17947259D01*
X408149Y18032515D01*
X365472Y18135543D01*
X286695Y18337435D01*
X285309Y18341366D01*
X224112Y18535456D01*
X162263Y18743201D01*
X161153Y18747484D01*
X117175Y18945855D01*
X115189Y18955325D01*
X72680Y19158064D01*
X71879Y19162767D01*
X56948Y19276179D01*
X45489Y19363209D01*
X18577Y19579111D01*
X18159Y19584083D01*
X9488Y19782682D01*
X500Y20000000D01*
X500Y20000500D01*
X500Y30421351D01*
X3271500Y30421351D01*
X3278009Y30360804D01*
X3278011Y30360796D01*
X3329110Y30223798D01*
X3329112Y30223793D01*
X3416738Y30106739D01*
X3541010Y30013710D01*
X3539354Y30011499D01*
X3579474Y29971397D01*
X3594900Y29910987D01*
X3594900Y29684514D01*
X3574898Y29616393D01*
X3562537Y29600204D01*
X3465961Y29492946D01*
X3465958Y29492942D01*
X3374816Y29335079D01*
X3370473Y29327556D01*
X3357720Y29288308D01*
X3311457Y29145928D01*
X3291496Y28956000D01*
X3311457Y28766073D01*
X3322815Y28731118D01*
X3370473Y28584444D01*
X3370476Y28584439D01*
X3465958Y28419059D01*
X3465965Y28419049D01*
X3593744Y28277136D01*
X3650463Y28235927D01*
X3748248Y28164882D01*
X3922712Y28087206D01*
X4109513Y28047500D01*
X4300487Y28047500D01*
X4487288Y28087206D01*
X4661752Y28164882D01*
X4816253Y28277134D01*
X4820299Y28281627D01*
X4944034Y28419049D01*
X4944035Y28419051D01*
X4944040Y28419056D01*
X5039527Y28584444D01*
X5039527Y28584446D01*
X5041381Y28587656D01*
X5092763Y28636649D01*
X5162477Y28650085D01*
X5228388Y28623699D01*
X5259619Y28587656D01*
X5356958Y28419059D01*
X5356965Y28419049D01*
X5484744Y28277136D01*
X5541463Y28235927D01*
X5639248Y28164882D01*
X5813712Y28087206D01*
X6000513Y28047500D01*
X6191487Y28047500D01*
X6378288Y28087206D01*
X6552752Y28164882D01*
X6707253Y28277134D01*
X6711299Y28281627D01*
X6835034Y28419049D01*
X6835035Y28419051D01*
X6835040Y28419056D01*
X6930527Y28584444D01*
X6989542Y28766072D01*
X7009504Y28956000D01*
X6989542Y29145928D01*
X6965957Y29218515D01*
X6930529Y29327551D01*
X6930525Y29327560D01*
X6926178Y29335090D01*
X6909300Y29398085D01*
X6909300Y30653146D01*
X6929302Y30721267D01*
X6961211Y30755062D01*
X6964939Y30757770D01*
X6969871Y30761011D01*
X7008906Y30784095D01*
X7022436Y30797626D01*
X7037476Y30810470D01*
X7052954Y30821715D01*
X7052954Y30821716D01*
X7052962Y30821721D01*
X7081868Y30856665D01*
X7085847Y30861038D01*
X7822808Y31597996D01*
X7885120Y31632021D01*
X7911903Y31634900D01*
X7945402Y31634900D01*
X8013523Y31614898D01*
X8052642Y31575048D01*
X8060713Y31561963D01*
X8060720Y31561954D01*
X8181953Y31440721D01*
X8181959Y31440716D01*
X8181960Y31440715D01*
X8327899Y31350698D01*
X8490664Y31296764D01*
X8510756Y31294712D01*
X8591120Y31286500D01*
X8591128Y31286500D01*
X9188880Y31286500D01*
X9261936Y31293965D01*
X9289336Y31296764D01*
X9452101Y31350698D01*
X9598040Y31440715D01*
X9719285Y31561960D01*
X9809302Y31707899D01*
X9863236Y31870664D01*
X9866035Y31898064D01*
X9873500Y31971120D01*
X9873500Y32518881D01*
X9863236Y32619334D01*
X9863236Y32619336D01*
X9809302Y32782101D01*
X9719285Y32928040D01*
X9716070Y32931255D01*
X9682043Y32993562D01*
X9687104Y33064378D01*
X9716072Y33109454D01*
X9718890Y33112273D01*
X9808847Y33258116D01*
X9862742Y33420759D01*
X9862744Y33420771D01*
X9872999Y33521148D01*
X9873000Y33521148D01*
X9873000Y33541000D01*
X7907000Y33541000D01*
X7907000Y33521148D01*
X7917255Y33420771D01*
X7917257Y33420759D01*
X7971152Y33258116D01*
X8061109Y33112272D01*
X8061114Y33112266D01*
X8063932Y33109448D01*
X8065248Y33107037D01*
X8065662Y33106514D01*
X8065572Y33106444D01*
X8097958Y33047136D01*
X8092893Y32976321D01*
X8063932Y32931258D01*
X8060720Y32928047D01*
X8060713Y32928038D01*
X8052642Y32914952D01*
X7999856Y32867474D01*
X7945402Y32855100D01*
X7688264Y32855100D01*
X7672796Y32856808D01*
X7672765Y32856473D01*
X7664872Y32857220D01*
X7597432Y32855100D01*
X7568617Y32855100D01*
X7568613Y32855100D01*
X7568601Y32855099D01*
X7562015Y32854267D01*
X7556103Y32853802D01*
X7510801Y32852379D01*
X7492416Y32847037D01*
X7473060Y32843029D01*
X7454075Y32840631D01*
X7454062Y32840627D01*
X7411922Y32823944D01*
X7406308Y32822021D01*
X7375032Y32812934D01*
X7362774Y32809372D01*
X7362771Y32809371D01*
X7362765Y32809368D01*
X7346299Y32799630D01*
X7328552Y32790935D01*
X7310748Y32783886D01*
X7274066Y32757236D01*
X7269105Y32753978D01*
X7230093Y32730905D01*
X7216556Y32717369D01*
X7201531Y32704536D01*
X7186037Y32693279D01*
X7157137Y32658346D01*
X7153141Y32653955D01*
X6926949Y32427763D01*
X6864637Y32393738D01*
X6793821Y32398803D01*
X6748759Y32427764D01*
X6743263Y32433260D01*
X6626207Y32520888D01*
X6626202Y32520890D01*
X6489204Y32571989D01*
X6489196Y32571991D01*
X6428649Y32578500D01*
X6428638Y32578500D01*
X5481362Y32578500D01*
X5481350Y32578500D01*
X5420803Y32571991D01*
X5420795Y32571989D01*
X5283797Y32520890D01*
X5283792Y32520888D01*
X5159525Y32427861D01*
X5158179Y32429658D01*
X5106783Y32401592D01*
X5035968Y32406657D01*
X5001287Y32428946D01*
X5000475Y32427861D01*
X4876207Y32520888D01*
X4876202Y32520890D01*
X4739204Y32571989D01*
X4739196Y32571991D01*
X4678649Y32578500D01*
X4678638Y32578500D01*
X3731362Y32578500D01*
X3731350Y32578500D01*
X3670803Y32571991D01*
X3670795Y32571989D01*
X3533797Y32520890D01*
X3533792Y32520888D01*
X3416738Y32433262D01*
X3329112Y32316208D01*
X3329110Y32316203D01*
X3278011Y32179205D01*
X3278009Y32179197D01*
X3271500Y32118650D01*
X3271500Y30421351D01*
X500Y30421351D01*
X500Y34516000D01*
X3272000Y34516000D01*
X3272000Y33921403D01*
X3278505Y33860907D01*
X3329555Y33724036D01*
X3329555Y33724035D01*
X3417095Y33607096D01*
X3534034Y33519556D01*
X3670906Y33468506D01*
X3731402Y33462001D01*
X3731415Y33462000D01*
X3951000Y33462000D01*
X4459000Y33462000D01*
X4678585Y33462000D01*
X4678597Y33462001D01*
X4739093Y33468506D01*
X4875963Y33519555D01*
X5000117Y33612497D01*
X5001463Y33610699D01*
X5052843Y33638762D01*
X5123660Y33633706D01*
X5158777Y33611141D01*
X5159525Y33612139D01*
X5283792Y33519113D01*
X5283794Y33519112D01*
X5283796Y33519111D01*
X5342875Y33497076D01*
X5420795Y33468012D01*
X5420803Y33468010D01*
X5481350Y33461501D01*
X5481355Y33461501D01*
X5481362Y33461500D01*
X5481368Y33461500D01*
X6428632Y33461500D01*
X6428638Y33461500D01*
X6428645Y33461501D01*
X6428649Y33461501D01*
X6489196Y33468010D01*
X6489199Y33468011D01*
X6489201Y33468011D01*
X6626204Y33519111D01*
X6626799Y33519556D01*
X6743261Y33606739D01*
X6830887Y33723793D01*
X6830887Y33723794D01*
X6830889Y33723796D01*
X6881989Y33860799D01*
X6888500Y33921362D01*
X6888500Y34049000D01*
X7907000Y34049000D01*
X8636000Y34049000D01*
X8636000Y34753000D01*
X9144000Y34753000D01*
X9144000Y34049000D01*
X9873000Y34049000D01*
X9873000Y34068853D01*
X9862744Y34169230D01*
X9862742Y34169242D01*
X9808847Y34331885D01*
X9718890Y34477729D01*
X9718885Y34477735D01*
X9597734Y34598886D01*
X9597728Y34598891D01*
X9451884Y34688848D01*
X9289241Y34742743D01*
X9289229Y34742745D01*
X9188852Y34753000D01*
X9144000Y34753000D01*
X8636000Y34753000D01*
X8591147Y34753000D01*
X8490770Y34742745D01*
X8490758Y34742743D01*
X8328115Y34688848D01*
X8182271Y34598891D01*
X8182265Y34598886D01*
X8061114Y34477735D01*
X8061109Y34477729D01*
X7971152Y34331885D01*
X7917257Y34169242D01*
X7917255Y34169230D01*
X7907000Y34068853D01*
X7907000Y34049000D01*
X6888500Y34049000D01*
X6888500Y35618638D01*
X6882001Y35679094D01*
X6881990Y35679197D01*
X6881988Y35679205D01*
X6830978Y35815965D01*
X6830889Y35816204D01*
X6830888Y35816206D01*
X6830887Y35816208D01*
X6743261Y35933262D01*
X6626207Y36020888D01*
X6626202Y36020890D01*
X6489204Y36071989D01*
X6489196Y36071991D01*
X6428649Y36078500D01*
X6428638Y36078500D01*
X5481362Y36078500D01*
X5481350Y36078500D01*
X5420803Y36071991D01*
X5420795Y36071989D01*
X5283797Y36020890D01*
X5283792Y36020888D01*
X5159525Y35927861D01*
X5158266Y35929543D01*
X5106426Y35901235D01*
X5035611Y35906300D01*
X5000930Y35928589D01*
X5000118Y35927504D01*
X4875965Y36020445D01*
X4739093Y36071495D01*
X4678597Y36078000D01*
X4459000Y36078000D01*
X4459000Y33462000D01*
X3951000Y33462000D01*
X3951000Y34516000D01*
X3272000Y34516000D01*
X500Y34516000D01*
X500Y35024000D01*
X3272000Y35024000D01*
X3951000Y35024000D01*
X3951000Y36078000D01*
X3731402Y36078000D01*
X3670906Y36071495D01*
X3534035Y36020445D01*
X3534034Y36020445D01*
X3417095Y35932905D01*
X3329555Y35815966D01*
X3329555Y35815965D01*
X3278505Y35679094D01*
X3272000Y35618598D01*
X3272000Y35024000D01*
X500Y35024000D01*
X500Y39999997D01*
X19686641Y39999997D01*
X19706064Y39641763D01*
X19764103Y39287731D01*
X19860084Y38942041D01*
X19860085Y38942039D01*
X19992877Y38608757D01*
X20160925Y38291785D01*
X20362258Y37994841D01*
X20594516Y37721405D01*
X20854962Y37474696D01*
X20854977Y37474683D01*
X21140586Y37257569D01*
X21447995Y37072607D01*
X21773599Y36921967D01*
X22113583Y36807413D01*
X22463958Y36730289D01*
X22820618Y36691500D01*
X22820626Y36691500D01*
X23179374Y36691500D01*
X23179382Y36691500D01*
X23536042Y36730289D01*
X23886417Y36807413D01*
X24226401Y36921967D01*
X24552005Y37072607D01*
X24859414Y37257569D01*
X25145023Y37474683D01*
X25405484Y37721405D01*
X25637742Y37994841D01*
X25839075Y38291785D01*
X26007123Y38608757D01*
X26139915Y38942039D01*
X26235895Y39287726D01*
X26293936Y39641763D01*
X26313359Y39999997D01*
X59686641Y39999997D01*
X59706064Y39641763D01*
X59764103Y39287731D01*
X59860084Y38942041D01*
X59860085Y38942039D01*
X59992877Y38608757D01*
X60160925Y38291785D01*
X60362258Y37994841D01*
X60594516Y37721405D01*
X60854962Y37474696D01*
X60854977Y37474683D01*
X61140586Y37257569D01*
X61447995Y37072607D01*
X61773599Y36921967D01*
X62113583Y36807413D01*
X62463958Y36730289D01*
X62820618Y36691500D01*
X62820626Y36691500D01*
X63179374Y36691500D01*
X63179382Y36691500D01*
X63536042Y36730289D01*
X63886417Y36807413D01*
X64226401Y36921967D01*
X64552005Y37072607D01*
X64859414Y37257569D01*
X65145023Y37474683D01*
X65405484Y37721405D01*
X65637742Y37994841D01*
X65839075Y38291785D01*
X66007123Y38608757D01*
X66139915Y38942039D01*
X66235895Y39287726D01*
X66293936Y39641763D01*
X66313359Y39999997D01*
X89686641Y39999997D01*
X89706064Y39641763D01*
X89764103Y39287731D01*
X89860084Y38942041D01*
X89860085Y38942039D01*
X89992877Y38608757D01*
X90160925Y38291785D01*
X90362258Y37994841D01*
X90594516Y37721405D01*
X90854962Y37474696D01*
X90854977Y37474683D01*
X91140586Y37257569D01*
X91447995Y37072607D01*
X91773599Y36921967D01*
X92113583Y36807413D01*
X92463958Y36730289D01*
X92820618Y36691500D01*
X92820626Y36691500D01*
X93179374Y36691500D01*
X93179382Y36691500D01*
X93536042Y36730289D01*
X93886417Y36807413D01*
X94226401Y36921967D01*
X94552005Y37072607D01*
X94859414Y37257569D01*
X95145023Y37474683D01*
X95405484Y37721405D01*
X95637742Y37994841D01*
X95839075Y38291785D01*
X96007123Y38608757D01*
X96139915Y38942039D01*
X96235895Y39287726D01*
X96293936Y39641763D01*
X96313359Y40000000D01*
X96293936Y40358237D01*
X96235895Y40712274D01*
X96139915Y41057961D01*
X96007123Y41391243D01*
X95839075Y41708215D01*
X95637742Y42005159D01*
X95405484Y42278595D01*
X95405483Y42278596D01*
X95145037Y42525305D01*
X95145022Y42525318D01*
X94859418Y42742428D01*
X94859412Y42742432D01*
X94552010Y42927390D01*
X94552009Y42927391D01*
X94552005Y42927393D01*
X94226401Y43078033D01*
X93886417Y43192587D01*
X93821747Y43206822D01*
X93536054Y43269709D01*
X93536030Y43269713D01*
X93179389Y43308500D01*
X93179382Y43308500D01*
X92820618Y43308500D01*
X92820610Y43308500D01*
X92463969Y43269713D01*
X92463945Y43269709D01*
X92113587Y43192588D01*
X92113573Y43192584D01*
X91773601Y43078034D01*
X91447989Y42927390D01*
X91140587Y42742432D01*
X91140581Y42742428D01*
X90854977Y42525318D01*
X90854962Y42525305D01*
X90594516Y42278596D01*
X90362256Y42005157D01*
X90160924Y41708215D01*
X90160922Y41708211D01*
X89992876Y41391241D01*
X89992872Y41391232D01*
X89860084Y41057960D01*
X89764103Y40712270D01*
X89706064Y40358238D01*
X89686641Y40000004D01*
X89686641Y39999997D01*
X66313359Y39999997D01*
X66313359Y40000000D01*
X66293936Y40358237D01*
X66235895Y40712274D01*
X66139915Y41057961D01*
X66007123Y41391243D01*
X65839075Y41708215D01*
X65637742Y42005159D01*
X65405484Y42278595D01*
X65405483Y42278596D01*
X65145037Y42525305D01*
X65145022Y42525318D01*
X64859418Y42742428D01*
X64859412Y42742432D01*
X64552010Y42927390D01*
X64552009Y42927391D01*
X64552005Y42927393D01*
X64226401Y43078033D01*
X63886417Y43192587D01*
X63821747Y43206822D01*
X63536054Y43269709D01*
X63536030Y43269713D01*
X63179389Y43308500D01*
X63179382Y43308500D01*
X62820618Y43308500D01*
X62820610Y43308500D01*
X62463969Y43269713D01*
X62463945Y43269709D01*
X62113587Y43192588D01*
X62113573Y43192584D01*
X61773601Y43078034D01*
X61447989Y42927390D01*
X61140587Y42742432D01*
X61140581Y42742428D01*
X60854977Y42525318D01*
X60854962Y42525305D01*
X60594516Y42278596D01*
X60362256Y42005157D01*
X60160924Y41708215D01*
X60160922Y41708211D01*
X59992876Y41391241D01*
X59992872Y41391232D01*
X59860084Y41057960D01*
X59764103Y40712270D01*
X59706064Y40358238D01*
X59686641Y40000004D01*
X59686641Y39999997D01*
X26313359Y39999997D01*
X26313359Y40000000D01*
X26293936Y40358237D01*
X26235895Y40712274D01*
X26139915Y41057961D01*
X26007123Y41391243D01*
X25839075Y41708215D01*
X25637742Y42005159D01*
X25405484Y42278595D01*
X25405483Y42278596D01*
X25145037Y42525305D01*
X25145022Y42525318D01*
X24859418Y42742428D01*
X24859412Y42742432D01*
X24552010Y42927390D01*
X24552009Y42927391D01*
X24552005Y42927393D01*
X24226401Y43078033D01*
X23886417Y43192587D01*
X23821747Y43206822D01*
X23536054Y43269709D01*
X23536030Y43269713D01*
X23179389Y43308500D01*
X23179382Y43308500D01*
X22820618Y43308500D01*
X22820610Y43308500D01*
X22463969Y43269713D01*
X22463945Y43269709D01*
X22113587Y43192588D01*
X22113573Y43192584D01*
X21773601Y43078034D01*
X21447989Y42927390D01*
X21140587Y42742432D01*
X21140581Y42742428D01*
X20854977Y42525318D01*
X20854962Y42525305D01*
X20594516Y42278596D01*
X20362256Y42005157D01*
X20160924Y41708215D01*
X20160922Y41708211D01*
X19992876Y41391241D01*
X19992872Y41391232D01*
X19860084Y41057960D01*
X19764103Y40712270D01*
X19706064Y40358238D01*
X19686641Y40000004D01*
X19686641Y39999997D01*
X500Y39999997D01*
X500Y43000000D01*
X9493Y43217431D01*
X18159Y43415922D01*
X18576Y43420886D01*
X28437Y43499997D01*
X1186641Y43499997D01*
X1206064Y43141763D01*
X1264103Y42787731D01*
X1336966Y42525305D01*
X1360085Y42442039D01*
X1492877Y42108757D01*
X1598478Y41909572D01*
X1660922Y41791790D01*
X1660924Y41791786D01*
X1843001Y41523243D01*
X1862258Y41494841D01*
X1950264Y41391232D01*
X2094516Y41221405D01*
X2354962Y40974696D01*
X2354977Y40974683D01*
X2640586Y40757569D01*
X2947995Y40572607D01*
X3273599Y40421967D01*
X3613583Y40307413D01*
X3963958Y40230289D01*
X4320618Y40191500D01*
X4320626Y40191500D01*
X4679374Y40191500D01*
X4679382Y40191500D01*
X5036042Y40230289D01*
X5386417Y40307413D01*
X5726401Y40421967D01*
X6052005Y40572607D01*
X6359414Y40757569D01*
X6645023Y40974683D01*
X6905484Y41221405D01*
X7137742Y41494841D01*
X7339075Y41791785D01*
X7507123Y42108757D01*
X7639915Y42442039D01*
X7735895Y42787726D01*
X7793936Y43141763D01*
X7813359Y43500000D01*
X7793936Y43858237D01*
X7735895Y44212274D01*
X7639915Y44557961D01*
X7507123Y44891243D01*
X7339075Y45208215D01*
X7137742Y45505159D01*
X6905484Y45778595D01*
X6886696Y45796392D01*
X6645037Y46025305D01*
X6645022Y46025318D01*
X6359418Y46242428D01*
X6359412Y46242432D01*
X6052010Y46427390D01*
X6052009Y46427391D01*
X6052005Y46427393D01*
X5726401Y46578033D01*
X5386417Y46692587D01*
X5338915Y46703044D01*
X5036054Y46769709D01*
X5036030Y46769713D01*
X4679389Y46808500D01*
X4679382Y46808500D01*
X4320618Y46808500D01*
X4320610Y46808500D01*
X3963969Y46769713D01*
X3963945Y46769709D01*
X3613587Y46692588D01*
X3613573Y46692584D01*
X3273601Y46578034D01*
X2947989Y46427390D01*
X2640587Y46242432D01*
X2640581Y46242428D01*
X2354977Y46025318D01*
X2354962Y46025305D01*
X2094516Y45778596D01*
X1862256Y45505157D01*
X1660924Y45208215D01*
X1660922Y45208211D01*
X1492876Y44891241D01*
X1492872Y44891232D01*
X1360084Y44557960D01*
X1264103Y44212270D01*
X1206064Y43858238D01*
X1186641Y43500004D01*
X1186641Y43499997D01*
X28437Y43499997D01*
X45485Y43636759D01*
X71879Y43837236D01*
X72678Y43841929D01*
X117191Y44054222D01*
X161156Y44252530D01*
X162259Y44256786D01*
X224112Y44464543D01*
X285315Y44658654D01*
X286695Y44662567D01*
X365469Y44864449D01*
X443475Y45052771D01*
X445051Y45056265D01*
X540251Y45251000D01*
X634492Y45432035D01*
X636197Y45435093D01*
X747211Y45621399D01*
X856956Y45793663D01*
X858769Y45796350D01*
X984856Y45972946D01*
X1109303Y46135126D01*
X1111169Y46137439D01*
X1251448Y46303067D01*
X1390563Y46454885D01*
X1545115Y46609437D01*
X1696933Y46748552D01*
X1862561Y46888831D01*
X1864874Y46890697D01*
X2027054Y47015144D01*
X2203650Y47141231D01*
X2206337Y47143044D01*
X2378601Y47252789D01*
X2564907Y47363803D01*
X2567965Y47365508D01*
X2748973Y47459736D01*
X2943735Y47554949D01*
X2947229Y47556525D01*
X3135551Y47634531D01*
X3337441Y47713309D01*
X3341346Y47714685D01*
X3535457Y47775888D01*
X3743214Y47837741D01*
X3747470Y47838844D01*
X3945778Y47882809D01*
X4158071Y47927322D01*
X4162765Y47928121D01*
X4363241Y47954515D01*
X4579114Y47981424D01*
X4584078Y47981841D01*
X4782569Y47990507D01*
X5000000Y47999500D01*
X5000500Y47999500D01*
X98873500Y47999500D01*
X98941621Y47979498D01*
G37*
%TD.AperFunction*%
%TD*%
M02*
