%TF.GenerationSoftware,KiCad,Pcbnew,7.0.8*%
%TF.CreationDate,2023-10-27T12:06:26-04:00*%
%TF.ProjectId,top_plate,746f705f-706c-4617-9465-2e6b69636164,rev?*%
%TF.SameCoordinates,PX2faf080PY5f5e100*%
%TF.FileFunction,Soldermask,Top*%
%TF.FilePolarity,Negative*%
%FSLAX46Y46*%
G04 Gerber Fmt 4.6, Leading zero omitted, Abs format (unit mm)*
G04 Created by KiCad (PCBNEW 7.0.8) date 2023-10-27 12:06:26*
%MOMM*%
%LPD*%
G01*
G04 APERTURE LIST*
G04 Aperture macros list*
%AMRoundRect*
0 Rectangle with rounded corners*
0 $1 Rounding radius*
0 $2 $3 $4 $5 $6 $7 $8 $9 X,Y pos of 4 corners*
0 Add a 4 corners polygon primitive as box body*
4,1,4,$2,$3,$4,$5,$6,$7,$8,$9,$2,$3,0*
0 Add four circle primitives for the rounded corners*
1,1,$1+$1,$2,$3*
1,1,$1+$1,$4,$5*
1,1,$1+$1,$6,$7*
1,1,$1+$1,$8,$9*
0 Add four rect primitives between the rounded corners*
20,1,$1+$1,$2,$3,$4,$5,0*
20,1,$1+$1,$4,$5,$6,$7,0*
20,1,$1+$1,$6,$7,$8,$9,0*
20,1,$1+$1,$8,$9,$2,$3,0*%
%AMFreePoly0*
4,1,111,-2.563245,3.679731,-2.180727,3.619146,-1.806637,3.518909,-1.445074,3.380118,-1.100000,3.204294,-0.775195,2.993363,-0.474217,2.749636,-0.200364,2.475783,0.043363,2.174805,0.254294,1.850000,0.430118,1.504926,0.568909,1.143363,0.669146,0.769273,0.729731,0.386755,0.750000,0.000000,0.729731,-0.386755,0.669146,-0.769273,0.568909,-1.143363,0.430118,-1.504926,0.254294,-1.850000,
0.043363,-2.174805,-0.200364,-2.475783,-0.474217,-2.749636,-0.775195,-2.993363,-1.100000,-3.204294,-1.445074,-3.380118,-1.806637,-3.518909,-2.180727,-3.619146,-2.563245,-3.679731,-2.950000,-3.700000,-3.336755,-3.679731,-3.719273,-3.619146,-4.093363,-3.518909,-4.454926,-3.380118,-4.800000,-3.204294,-5.124805,-2.993363,-5.425783,-2.749636,-5.699636,-2.475783,-5.943363,-2.174805,-6.154294,-1.850000,
-6.330118,-1.504926,-6.468909,-1.143363,-6.569146,-0.769273,-6.629731,-0.386755,-6.650000,0.000000,-5.154720,0.000000,-5.135858,-0.287774,-5.079596,-0.570624,-4.986896,-0.843710,-4.859344,-1.102360,-4.699122,-1.342148,-4.508972,-1.558972,-4.292148,-1.749122,-4.052360,-1.909344,-3.793710,-2.036896,-3.520624,-2.129596,-3.237774,-2.185858,-2.950000,-2.204720,-2.662226,-2.185858,-2.379376,-2.129596,
-2.106290,-2.036896,-1.847640,-1.909344,-1.607852,-1.749122,-1.391028,-1.558972,-1.200878,-1.342148,-1.040656,-1.102360,-0.913104,-0.843710,-0.820404,-0.570624,-0.764142,-0.287774,-0.745280,0.000000,-0.764142,0.287774,-0.820404,0.570624,-0.913104,0.843710,-1.040656,1.102360,-1.200878,1.342148,-1.391028,1.558972,-1.607852,1.749122,-1.847640,1.909344,-2.106290,2.036896,-2.379376,2.129596,
-2.662226,2.185858,-2.950000,2.204720,-3.237774,2.185858,-3.520624,2.129596,-3.793710,2.036896,-4.052360,1.909344,-4.292148,1.749122,-4.508972,1.558972,-4.699122,1.342148,-4.859344,1.102360,-4.986896,0.843710,-5.079596,0.570624,-5.135858,0.287774,-5.154720,0.000000,-6.650000,0.000000,-6.629731,0.386755,-6.569146,0.769273,-6.468909,1.143363,-6.330118,1.504926,-6.154294,1.850000,
-5.943363,2.174805,-5.699636,2.475783,-5.425783,2.749636,-5.124805,2.993363,-4.800000,3.204294,-4.454926,3.380118,-4.093363,3.518909,-3.719273,3.619146,-3.336755,3.679731,-2.950000,3.700000,-2.563245,3.679731,-2.563245,3.679731,$1*%
G04 Aperture macros list end*
%ADD10C,5.600000*%
%ADD11R,0.850000X1.600000*%
%ADD12RoundRect,0.200000X0.200000X0.275000X-0.200000X0.275000X-0.200000X-0.275000X0.200000X-0.275000X0*%
%ADD13RoundRect,0.250000X-0.625000X0.350000X-0.625000X-0.350000X0.625000X-0.350000X0.625000X0.350000X0*%
%ADD14O,1.750000X1.200000*%
%ADD15RoundRect,0.225000X0.250000X-0.225000X0.250000X0.225000X-0.250000X0.225000X-0.250000X-0.225000X0*%
%ADD16C,1.700000*%
%ADD17O,1.700000X1.700000*%
%ADD18R,1.700000X1.700000*%
%ADD19RoundRect,0.150000X0.150000X0.625000X-0.150000X0.625000X-0.150000X-0.625000X0.150000X-0.625000X0*%
%ADD20RoundRect,0.250000X0.350000X0.650000X-0.350000X0.650000X-0.350000X-0.650000X0.350000X-0.650000X0*%
%ADD21C,4.220000*%
%ADD22FreePoly0,0.000000*%
%ADD23R,2.000000X2.000000*%
%ADD24C,2.000000*%
%ADD25R,1.600000X1.600000*%
%ADD26C,1.600000*%
G04 APERTURE END LIST*
D10*
%TO.C,REF\u002A\u002A*%
X4500000Y-43500000D03*
%TD*%
D11*
%TO.C,D2*%
X5955000Y34770000D03*
X4205000Y34770000D03*
X4205000Y31270000D03*
X5955000Y31270000D03*
%TD*%
D12*
%TO.C,R2*%
X60769000Y10414000D03*
X59119000Y10414000D03*
%TD*%
D13*
%TO.C,J5*%
X61000000Y-15000000D03*
D14*
X61000000Y-17000000D03*
X61000000Y-19000000D03*
X61000000Y-21000000D03*
%TD*%
D15*
%TO.C,C1*%
X8890000Y-33795000D03*
X8890000Y-32245000D03*
%TD*%
D12*
%TO.C,R1*%
X60515000Y-9144000D03*
X58865000Y-9144000D03*
%TD*%
D16*
%TO.C,J7*%
X56000000Y-14000000D03*
D17*
X56000000Y-16540000D03*
X56000000Y-19080000D03*
X56000000Y-21620000D03*
%TD*%
D10*
%TO.C,REF\u002A\u002A*%
X63000000Y-40000000D03*
%TD*%
D18*
%TO.C,J10*%
X58669000Y21834000D03*
D17*
X61209000Y21834000D03*
X58669000Y19294000D03*
X61209000Y19294000D03*
X58669000Y16754000D03*
X61209000Y16754000D03*
X58669000Y14214000D03*
X61209000Y14214000D03*
%TD*%
D10*
%TO.C,REF\u002A\u002A*%
X4500000Y43500000D03*
%TD*%
D16*
%TO.C,J6*%
X95000000Y-3810000D03*
D17*
X95000000Y-1270000D03*
X95000000Y1270000D03*
X95000000Y3810000D03*
%TD*%
D19*
%TO.C,J9*%
X61500007Y7325001D03*
X60500007Y7325001D03*
X59500007Y7325001D03*
X58500007Y7325001D03*
D20*
X62800007Y4800001D03*
X57200007Y4800001D03*
%TD*%
D10*
%TO.C,REF\u002A\u002A*%
X93000000Y40000000D03*
%TD*%
D19*
%TO.C,J8*%
X61500007Y-3675000D03*
X60500007Y-3675000D03*
X59500007Y-3675000D03*
X58500007Y-3675000D03*
D20*
X62800007Y-6200000D03*
X57200007Y-6200000D03*
%TD*%
D21*
%TO.C,M1*%
X86000000Y10000000D03*
D22*
X88950000Y10000000D03*
%TD*%
D11*
%TO.C,D1*%
X5955000Y-31270000D03*
X4205000Y-31270000D03*
X4205000Y-34770000D03*
X5955000Y-34770000D03*
%TD*%
D21*
%TO.C,M2*%
X86000000Y-10000000D03*
D22*
X88950000Y-10000000D03*
%TD*%
D10*
%TO.C,REF\u002A\u002A*%
X63000000Y40000000D03*
%TD*%
%TO.C,REF\u002A\u002A*%
X93000000Y-40000000D03*
%TD*%
%TO.C,REF\u002A\u002A*%
X23000000Y-40000000D03*
%TD*%
D15*
%TO.C,C2*%
X8890000Y32245000D03*
X8890000Y33795000D03*
%TD*%
D10*
%TO.C,REF\u002A\u002A*%
X23000000Y40000000D03*
%TD*%
D18*
%TO.C,J2*%
X23622000Y-6350000D03*
D17*
X21082000Y-6350000D03*
X23622000Y-3810000D03*
X21082000Y-3810000D03*
X23622000Y-1270000D03*
X21082000Y-1270000D03*
X23622000Y1270000D03*
X21082000Y1270000D03*
X23622000Y3810000D03*
X21082000Y3810000D03*
X23622000Y6350000D03*
X21082000Y6350000D03*
%TD*%
D18*
%TO.C,J1*%
X94742000Y-22860000D03*
D17*
X94742000Y-25400000D03*
X94742000Y-27940000D03*
X94742000Y-30480000D03*
X94742000Y-33020000D03*
%TD*%
D18*
%TO.C,J3*%
X94742000Y22860000D03*
D17*
X94742000Y25400000D03*
X94742000Y27940000D03*
X94742000Y30480000D03*
X94742000Y33020000D03*
%TD*%
D23*
%TO.C,BZ1*%
X77639216Y-33274000D03*
D24*
X82639216Y-33274000D03*
%TD*%
D25*
%TO.C,A1*%
X30480000Y-19050000D03*
D26*
X30480000Y-16510000D03*
X30480000Y-13970000D03*
X30480000Y-11430000D03*
X30480000Y-8890000D03*
X30480000Y-6350000D03*
X30480000Y-3810000D03*
X30480000Y-1270000D03*
X30480000Y1270000D03*
X30480000Y3810000D03*
X30480000Y6350000D03*
X30480000Y8890000D03*
X30480000Y11430000D03*
X30480000Y13970000D03*
X30480000Y16510000D03*
X30480000Y19050000D03*
X50800000Y19050000D03*
X50800000Y16510000D03*
X50800000Y13970000D03*
X50800000Y11430000D03*
X50800000Y8890000D03*
X50800000Y6350000D03*
X50800000Y3810000D03*
X50800000Y1270000D03*
X50800000Y-1270000D03*
X50800000Y-3810000D03*
X50800000Y-6350000D03*
X50800000Y-8890000D03*
%TD*%
M02*
