%TF.GenerationSoftware,KiCad,Pcbnew,7.0.8*%
%TF.CreationDate,2023-10-27T12:06:26-04:00*%
%TF.ProjectId,top_plate,746f705f-706c-4617-9465-2e6b69636164,rev?*%
%TF.SameCoordinates,PX2faf080PY5f5e100*%
%TF.FileFunction,Legend,Bot*%
%TF.FilePolarity,Positive*%
%FSLAX46Y46*%
G04 Gerber Fmt 4.6, Leading zero omitted, Abs format (unit mm)*
G04 Created by KiCad (PCBNEW 7.0.8) date 2023-10-27 12:06:26*
%MOMM*%
%LPD*%
G01*
G04 APERTURE LIST*
G04 Aperture macros list*
%AMRoundRect*
0 Rectangle with rounded corners*
0 $1 Rounding radius*
0 $2 $3 $4 $5 $6 $7 $8 $9 X,Y pos of 4 corners*
0 Add a 4 corners polygon primitive as box body*
4,1,4,$2,$3,$4,$5,$6,$7,$8,$9,$2,$3,0*
0 Add four circle primitives for the rounded corners*
1,1,$1+$1,$2,$3*
1,1,$1+$1,$4,$5*
1,1,$1+$1,$6,$7*
1,1,$1+$1,$8,$9*
0 Add four rect primitives between the rounded corners*
20,1,$1+$1,$2,$3,$4,$5,0*
20,1,$1+$1,$4,$5,$6,$7,0*
20,1,$1+$1,$6,$7,$8,$9,0*
20,1,$1+$1,$8,$9,$2,$3,0*%
G04 Aperture macros list end*
%ADD10C,0.120000*%
%ADD11C,5.600000*%
%ADD12RoundRect,0.250000X-0.625000X0.350000X-0.625000X-0.350000X0.625000X-0.350000X0.625000X0.350000X0*%
%ADD13O,1.750000X1.200000*%
%ADD14C,1.700000*%
%ADD15O,1.700000X1.700000*%
%ADD16R,1.700000X1.700000*%
%ADD17C,4.220000*%
%ADD18R,2.000000X2.000000*%
%ADD19C,2.000000*%
%ADD20R,1.600000X1.600000*%
%ADD21C,1.600000*%
G04 APERTURE END LIST*
D10*
%TO.C,J2*%
X19752000Y7680000D02*
X24952000Y7680000D01*
X19752000Y-7680000D02*
X19752000Y7680000D01*
X19752000Y-7680000D02*
X22352000Y-7680000D01*
X22352000Y-5080000D02*
X24952000Y-5080000D01*
X22352000Y-7680000D02*
X22352000Y-5080000D01*
X23622000Y-7680000D02*
X24952000Y-7680000D01*
X24952000Y-5080000D02*
X24952000Y7680000D01*
X24952000Y-7680000D02*
X24952000Y-6350000D01*
%TO.C,J1*%
X104933000Y-23266000D02*
X104933000Y-22506000D01*
X104933000Y-22506000D02*
X98933000Y-22506000D01*
X104914000Y-33334000D02*
X104914000Y-32574000D01*
X104914000Y-32574000D02*
X98914000Y-32574000D01*
X104866000Y-30799000D02*
X104866000Y-30039000D01*
X104866000Y-30039000D02*
X98866000Y-30039000D01*
X104866000Y-28259000D02*
X104866000Y-27499000D01*
X104866000Y-27499000D02*
X98866000Y-27499000D01*
X104866000Y-25719000D02*
X104866000Y-24959000D01*
X104866000Y-24959000D02*
X98866000Y-24959000D01*
X98933000Y-23266000D02*
X104933000Y-23266000D01*
X98933000Y-23206000D02*
X104933000Y-23206000D01*
X98933000Y-23086000D02*
X104933000Y-23086000D01*
X98933000Y-22966000D02*
X104933000Y-22966000D01*
X98933000Y-22846000D02*
X104933000Y-22846000D01*
X98933000Y-22726000D02*
X104933000Y-22726000D01*
X98933000Y-22606000D02*
X104933000Y-22606000D01*
X98914000Y-33334000D02*
X104914000Y-33334000D01*
X98866000Y-34289000D02*
X96206000Y-34289000D01*
X98866000Y-30799000D02*
X104866000Y-30799000D01*
X98866000Y-28259000D02*
X104866000Y-28259000D01*
X98866000Y-25719000D02*
X104866000Y-25719000D01*
X98866000Y-21469000D02*
X98866000Y-34289000D01*
X96206000Y-34289000D02*
X96206000Y-21469000D01*
X96206000Y-31689000D02*
X98866000Y-31689000D01*
X96206000Y-29149000D02*
X98866000Y-29149000D01*
X96206000Y-26609000D02*
X98866000Y-26609000D01*
X96206000Y-24069000D02*
X98866000Y-24069000D01*
X96206000Y-21469000D02*
X98866000Y-21469000D01*
X95876000Y-33339000D02*
X96206000Y-33339000D01*
X95876000Y-32579000D02*
X96206000Y-32579000D01*
X95808929Y-30799000D02*
X96206000Y-30799000D01*
X95808929Y-30039000D02*
X96206000Y-30039000D01*
X95808929Y-28259000D02*
X96206000Y-28259000D01*
X95808929Y-27499000D02*
X96206000Y-27499000D01*
X95808929Y-25719000D02*
X96206000Y-25719000D01*
X95808929Y-24959000D02*
X96206000Y-24959000D01*
X95808929Y-23179000D02*
X96206000Y-23179000D01*
X95808929Y-22419000D02*
X96206000Y-22419000D01*
X94742000Y-21463000D02*
X93472000Y-21463000D01*
X93472000Y-21463000D02*
X93472000Y-22733000D01*
%TO.C,J3*%
X93472000Y22860000D02*
X93472000Y21590000D01*
X93472000Y21590000D02*
X94742000Y21590000D01*
X95784929Y33400000D02*
X96182000Y33400000D01*
X95784929Y32640000D02*
X96182000Y32640000D01*
X95784929Y30860000D02*
X96182000Y30860000D01*
X95784929Y30100000D02*
X96182000Y30100000D01*
X95784929Y28320000D02*
X96182000Y28320000D01*
X95784929Y27560000D02*
X96182000Y27560000D01*
X95784929Y25780000D02*
X96182000Y25780000D01*
X95784929Y25020000D02*
X96182000Y25020000D01*
X95852000Y23240000D02*
X96182000Y23240000D01*
X95852000Y22480000D02*
X96182000Y22480000D01*
X96182000Y34350000D02*
X98842000Y34350000D01*
X96182000Y31750000D02*
X98842000Y31750000D01*
X96182000Y29210000D02*
X98842000Y29210000D01*
X96182000Y26670000D02*
X98842000Y26670000D01*
X96182000Y24130000D02*
X98842000Y24130000D01*
X96182000Y21530000D02*
X96182000Y34350000D01*
X98842000Y34350000D02*
X98842000Y21530000D01*
X98842000Y32640000D02*
X104842000Y32640000D01*
X98842000Y30100000D02*
X104842000Y30100000D01*
X98842000Y27560000D02*
X104842000Y27560000D01*
X98842000Y25020000D02*
X104842000Y25020000D01*
X98842000Y23140000D02*
X104842000Y23140000D01*
X98842000Y23020000D02*
X104842000Y23020000D01*
X98842000Y22900000D02*
X104842000Y22900000D01*
X98842000Y22780000D02*
X104842000Y22780000D01*
X98842000Y22660000D02*
X104842000Y22660000D01*
X98842000Y22540000D02*
X104842000Y22540000D01*
X98842000Y22480000D02*
X104842000Y22480000D01*
X98842000Y21530000D02*
X96182000Y21530000D01*
X104842000Y33400000D02*
X98842000Y33400000D01*
X104842000Y32640000D02*
X104842000Y33400000D01*
X104842000Y30860000D02*
X98842000Y30860000D01*
X104842000Y30100000D02*
X104842000Y30860000D01*
X104842000Y28320000D02*
X98842000Y28320000D01*
X104842000Y27560000D02*
X104842000Y28320000D01*
X104842000Y25780000D02*
X98842000Y25780000D01*
X104842000Y25020000D02*
X104842000Y25780000D01*
X104842000Y23240000D02*
X98842000Y23240000D01*
X104842000Y22480000D02*
X104842000Y23240000D01*
%TO.C,BZ1*%
X73739216Y-31774001D02*
G75*
G03*
X73739216Y-34774000I6400000J-1499999D01*
G01*
X86369216Y-33274000D02*
G75*
G03*
X86369216Y-33274000I-6230000J0D01*
G01*
%TO.C,A1*%
X28780000Y-18050000D02*
X28780000Y-20050000D01*
X29100000Y-22860000D02*
X29100000Y22860000D01*
X49530000Y25510000D02*
X31750000Y25510000D01*
X49530000Y-25510000D02*
X31750000Y-25510000D01*
X52180000Y-22860000D02*
X52180000Y22860000D01*
X31750000Y25510000D02*
G75*
G03*
X29100000Y22860000I0J-2650000D01*
G01*
X29100000Y-22860000D02*
G75*
G03*
X31750000Y-25510000I2650000J0D01*
G01*
X52180000Y22860000D02*
G75*
G03*
X49530000Y25510000I-2650000J0D01*
G01*
X49530000Y-25510000D02*
G75*
G03*
X52180000Y-22860000I0J2650000D01*
G01*
%TD*%
%LPC*%
D11*
%TO.C,REF\u002A\u002A*%
X4500000Y-43500000D03*
%TD*%
D12*
%TO.C,J5*%
X61000000Y-15000000D03*
D13*
X61000000Y-17000000D03*
X61000000Y-19000000D03*
X61000000Y-21000000D03*
%TD*%
D14*
%TO.C,J7*%
X56000000Y-14000000D03*
D15*
X56000000Y-16540000D03*
X56000000Y-19080000D03*
X56000000Y-21620000D03*
%TD*%
D11*
%TO.C,REF\u002A\u002A*%
X63000000Y-40000000D03*
%TD*%
D16*
%TO.C,J10*%
X58669000Y21834000D03*
D15*
X61209000Y21834000D03*
X58669000Y19294000D03*
X61209000Y19294000D03*
X58669000Y16754000D03*
X61209000Y16754000D03*
X58669000Y14214000D03*
X61209000Y14214000D03*
%TD*%
D11*
%TO.C,REF\u002A\u002A*%
X4500000Y43500000D03*
%TD*%
D14*
%TO.C,J6*%
X95000000Y-3810000D03*
D15*
X95000000Y-1270000D03*
X95000000Y1270000D03*
X95000000Y3810000D03*
%TD*%
D11*
%TO.C,REF\u002A\u002A*%
X93000000Y40000000D03*
%TD*%
D17*
%TO.C,M1*%
X86000000Y10000000D03*
%TD*%
%TO.C,M2*%
X86000000Y-10000000D03*
%TD*%
D11*
%TO.C,REF\u002A\u002A*%
X63000000Y40000000D03*
%TD*%
%TO.C,REF\u002A\u002A*%
X93000000Y-40000000D03*
%TD*%
%TO.C,REF\u002A\u002A*%
X23000000Y-40000000D03*
%TD*%
%TO.C,REF\u002A\u002A*%
X23000000Y40000000D03*
%TD*%
D16*
%TO.C,J2*%
X23622000Y-6350000D03*
D15*
X21082000Y-6350000D03*
X23622000Y-3810000D03*
X21082000Y-3810000D03*
X23622000Y-1270000D03*
X21082000Y-1270000D03*
X23622000Y1270000D03*
X21082000Y1270000D03*
X23622000Y3810000D03*
X21082000Y3810000D03*
X23622000Y6350000D03*
X21082000Y6350000D03*
%TD*%
D16*
%TO.C,J1*%
X94742000Y-22860000D03*
D15*
X94742000Y-25400000D03*
X94742000Y-27940000D03*
X94742000Y-30480000D03*
X94742000Y-33020000D03*
%TD*%
D16*
%TO.C,J3*%
X94742000Y22860000D03*
D15*
X94742000Y25400000D03*
X94742000Y27940000D03*
X94742000Y30480000D03*
X94742000Y33020000D03*
%TD*%
D18*
%TO.C,BZ1*%
X77639216Y-33274000D03*
D19*
X82639216Y-33274000D03*
%TD*%
D20*
%TO.C,A1*%
X30480000Y-19050000D03*
D21*
X30480000Y-16510000D03*
X30480000Y-13970000D03*
X30480000Y-11430000D03*
X30480000Y-8890000D03*
X30480000Y-6350000D03*
X30480000Y-3810000D03*
X30480000Y-1270000D03*
X30480000Y1270000D03*
X30480000Y3810000D03*
X30480000Y6350000D03*
X30480000Y8890000D03*
X30480000Y11430000D03*
X30480000Y13970000D03*
X30480000Y16510000D03*
X30480000Y19050000D03*
X50800000Y19050000D03*
X50800000Y16510000D03*
X50800000Y13970000D03*
X50800000Y11430000D03*
X50800000Y8890000D03*
X50800000Y6350000D03*
X50800000Y3810000D03*
X50800000Y1270000D03*
X50800000Y-1270000D03*
X50800000Y-3810000D03*
X50800000Y-6350000D03*
X50800000Y-8890000D03*
%TD*%
%LPD*%
M02*
