M48
; DRILL file {KiCad 7.0.8} date 2023 October 27, Friday 12:06:26
; FORMAT={-:-/ absolute / inch / decimal}
; #@! TF.CreationDate,2023-10-27T12:06:26-04:00
; #@! TF.GenerationSoftware,Kicad,Pcbnew,7.0.8
; #@! TF.FileFunction,Plated,1,2,PTH
FMAT,2
INCH
; #@! TA.AperFunction,Plated,PTH,ViaDrill
T1C0.0157
; #@! TA.AperFunction,Plated,PTH,ComponentDrill
T2C0.0295
; #@! TA.AperFunction,Plated,PTH,ComponentDrill
T3C0.0315
; #@! TA.AperFunction,Plated,PTH,ComponentDrill
T4C0.0394
; #@! TA.AperFunction,Plated,PTH,ComponentDrill
T5C0.1260
%
G90
G05
T1
X0.1656Y1.14
X0.17Y-1.45
X0.2344Y-1.1756
X0.24Y1.14
X0.3511Y-1.3689
X1.35Y-0.93
X1.92Y-0.94
X2.09Y0.56
X2.13Y1.1
X2.34Y-0.22
X3.59Y1.0
T2
X2.4016Y-0.5906
X2.4016Y-0.6693
X2.4016Y-0.748
X2.4016Y-0.8268
T3
X1.2Y0.75
X1.2Y0.65
X1.2Y0.55
X1.2Y0.45
X1.2Y0.35
X1.2Y0.25
X1.2Y0.15
X1.2Y0.05
X1.2Y-0.05
X1.2Y-0.15
X1.2Y-0.25
X1.2Y-0.35
X1.2Y-0.45
X1.2Y-0.55
X1.2Y-0.65
X1.2Y-0.75
X2.0Y0.75
X2.0Y0.65
X2.0Y0.55
X2.0Y0.45
X2.0Y0.35
X2.0Y0.25
X2.0Y0.15
X2.0Y0.05
X2.0Y-0.05
X2.0Y-0.15
X2.0Y-0.25
X2.0Y-0.35
T4
X0.83Y0.25
X0.83Y0.15
X0.83Y0.05
X0.83Y-0.05
X0.83Y-0.15
X0.83Y-0.25
X0.93Y0.25
X0.93Y0.15
X0.93Y0.05
X0.93Y-0.05
X0.93Y-0.15
X0.93Y-0.25
X2.2047Y-0.5512
X2.2047Y-0.6512
X2.2047Y-0.7512
X2.2047Y-0.8512
X2.3098Y0.8596
X2.3098Y0.7596
X2.3098Y0.6596
X2.3098Y0.5596
X2.4098Y0.8596
X2.4098Y0.7596
X2.4098Y0.6596
X2.4098Y0.5596
X3.0567Y-1.31
X3.2535Y-1.31
X3.73Y1.3
X3.73Y1.2
X3.73Y1.1
X3.73Y1.0
X3.73Y0.9
X3.73Y-0.9
X3.73Y-1.0
X3.73Y-1.1
X3.73Y-1.2
X3.73Y-1.3
X3.7402Y0.15
X3.7402Y0.05
X3.7402Y-0.05
X3.7402Y-0.15
T5
X0.1772Y1.7126
X0.1772Y-1.7126
X0.9055Y1.5748
X0.9055Y-1.5748
X2.4803Y1.5748
X2.4803Y-1.5748
X3.6614Y1.5748
X3.6614Y-1.5748
T0
M30
