%TF.GenerationSoftware,KiCad,Pcbnew,7.0.8*%
%TF.CreationDate,2023-10-27T12:06:26-04:00*%
%TF.ProjectId,top_plate,746f705f-706c-4617-9465-2e6b69636164,rev?*%
%TF.SameCoordinates,PX2faf080PY5f5e100*%
%TF.FileFunction,Profile,NP*%
%FSLAX46Y46*%
G04 Gerber Fmt 4.6, Leading zero omitted, Abs format (unit mm)*
G04 Created by KiCad (PCBNEW 7.0.8) date 2023-10-27 12:06:26*
%MOMM*%
%LPD*%
G01*
G04 APERTURE LIST*
%TA.AperFunction,Profile*%
%ADD10C,0.100000*%
%TD*%
G04 APERTURE END LIST*
D10*
X99000000Y-48000000D02*
X5000000Y-48000000D01*
X76000000Y5000000D02*
X76000000Y-5000000D01*
X76000000Y5000000D02*
G75*
G03*
X75000000Y6000000I-1000000J0D01*
G01*
X75000000Y-6000000D02*
X71000000Y-6000000D01*
X5000000Y-15000000D02*
G75*
G03*
X0Y-20000000I0J-5000000D01*
G01*
X5000000Y48000000D02*
G75*
G03*
X0Y43000000I0J-5000000D01*
G01*
X0Y43000000D02*
X0Y20000000D01*
X0Y-43000000D02*
G75*
G03*
X5000000Y-48000000I5000000J0D01*
G01*
X71000000Y6000000D02*
G75*
G03*
X70000000Y5000000I0J-1000000D01*
G01*
X5000000Y48000000D02*
X99000000Y48000000D01*
X0Y-20000000D02*
X0Y-43000000D01*
X17000000Y15000000D02*
X5000000Y15000000D01*
X71000000Y6000000D02*
X75000000Y6000000D01*
X70000000Y-5000000D02*
X70000000Y5000000D01*
X99000000Y48000000D02*
X99000000Y-48000000D01*
X43180000Y-10160000D02*
X52578000Y-10160000D01*
X52578000Y-19812000D01*
X43180000Y-19812000D01*
X43180000Y-10160000D01*
X70000000Y-5000000D02*
G75*
G03*
X71000000Y-6000000I1000000J0D01*
G01*
X75000000Y-6000000D02*
G75*
G03*
X76000000Y-5000000I0J1000000D01*
G01*
X0Y20000000D02*
G75*
G03*
X5000000Y15000000I5000000J0D01*
G01*
X17000000Y-15000000D02*
X17000000Y15000000D01*
X5000000Y-15000000D02*
X17000000Y-15000000D01*
X28956000Y26670000D02*
X52324000Y26670000D01*
X52324000Y20066000D01*
X28956000Y20066000D01*
X28956000Y26670000D01*
M02*
