0
SECTION
2
HEADER
9
$INSUNITS
70
4
9
$ACADVER
1
AC1014
9
$HANDSEED
5
FFFF
0
ENDSEC
0
SECTION
2
TABLES
0
TABLE
2
VPORT
5
8
100
AcDbSymbolTable
0
ENDTAB
0
TABLE
2
LTYPE
5
5
100
AcDbSymbolTable
0
LTYPE
5
14
100
AcDbSymbolTableRecord
100
AcDbLinetypeTableRecord
2
BYBLOCK
70
0
0
LTYPE
5
15
100
AcDbSymbolTableRecord
100
AcDbLinetypeTableRecord
2
BYLAYER
70
0
0
ENDTAB
0
TABLE
2
LAYER
5
2
100
AcDbSymbolTable
70
2
0
LAYER
5
50
100
AcDbSymbolTableRecord
100
AcDbLayerTableRecord
2
0
70
0
6
CONTINUOUS
0
ENDTAB
0
TABLE
2
STYLE
5
3
100
AcDbSymbolTable
70
1
0
STYLE
5
11
100
AcDbSymbolTableRecord
100
AcDbTextStyleTableRecord
2
STANDARD
70
0
0
ENDTAB
0
TABLE
2
VIEW
5
6
100
AcDbSymbolTable
70
0
0
ENDTAB
0
TABLE
2
UCS
5
7
100
AcDbSymbolTable
70
0
0
ENDTAB
0
TABLE
2
APPID
5
9
100
AcDbSymbolTable
70
2
0
APPID
5
12
100
AcDbSymbolTableRecord
100
AcDbRegAppTableRecord
2
ACAD
70
0
0
ENDTAB
0
TABLE
2
DIMSTYLE
5
A
100
AcDbSymbolTable
70
1
0
ENDTAB
0
TABLE
2
BLOCK_RECORD
5
1
100
AcDbSymbolTable
70
1
0
BLOCK_RECORD
5
1F
100
AcDbSymbolTableRecord
100
AcDbBlockTableRecord
2
*MODEL_SPACE
0
BLOCK_RECORD
5
1B
100
AcDbSymbolTableRecord
100
AcDbBlockTableRecord
2
*PAPER_SPACE
0
ENDTAB
0
ENDSEC
0
SECTION
2
BLOCKS
0
BLOCK
5
20
100
AcDbEntity
100
AcDbBlockBegin
2
*MODEL_SPACE
0
ENDBLK
5
21
100
AcDbEntity
100
AcDbBlockEnd
0
BLOCK
5
1C
100
AcDbEntity
100
AcDbBlockBegin
2
*PAPER_SPACE
0
ENDBLK
5
1D
100
AcDbEntity
100
AcDbBlockEnd
0
ENDSEC
0
SECTION
2
ENTITIES
0
LWPOLYLINE
5
100
100
AcDbEntity
8
OUTER_PROFILES
100
AcDbPolyline
90
24
70
1
43
0.0
10
-2.0000000000000018
20
2.0000000000000018
10
-1.9999999999999929
20
21
42
-0.41421356237309209
10
1.1102230246251565e-14
20
23
10
17.670066742718213
20
23
10
17.670066742718213
20
24
10
16.476040902580905
20
24
10
16.500062456853787
20
28.020909186392196
42
-0.993473871860725
10
23.499911263979605
20
28.024922766073285
10
23.528572621652941
20
24
10
22.335693592498625
20
24
10
22.335693592498629
20
23
10
71.664305448544184
20
22.999999999999993
10
71.664305448544184
20
23.999999999999993
10
70.471426610230026
20
23.999999999999993
10
70.500088740776505
20
28.024923433963099
42
-0.99347378339224102
10
77.499937543412528
20
28.020909141820379
10
77.523959046210891
20
23.999999999999993
10
76.329933193338093
20
23.999999999999993
10
76.329933193338093
20
22.999999999999993
10
94.000000000000043
20
22.999999999999993
42
-0.41421356237308854
10
96.000000000000014
20
20.999999999999993
10
96.000000000000014
20
1.9999999999999976
42
-0.41421356237309054
10
94.000000000000028
20
0
10
2.7290697381866273e-16
20
0
42
-0.41421356237309248
0
CIRCLE
5
101
100
AcDbEntity
8
INTERIOR_PROFILES
100
AcDbCircle
10
-20.000000000000007
20
28
30
0
40
1.6000000000000014
210
-0
220
0
230
-1
0
CIRCLE
5
102
100
AcDbEntity
8
INTERIOR_PROFILES
100
AcDbCircle
10
-74.000000000000028
20
28
30
0
40
1.6000000000000014
210
-0
220
0
230
-1
0
LINE
5
103
100
AcDbEntity
8
BEND
100
AcDbLine
10
76.329933193338093
20
23.735132680940008
30
0
11
71.664305448544184
21
23.735132680940008
31
0
0
LINE
5
104
100
AcDbEntity
8
BEND
100
AcDbLine
10
22.335693592498625
20
23.735132680940012
30
0
11
17.670066742718213
21
23.735132680940012
31
0
0
LINE
5
105
100
AcDbEntity
8
BEND_EXTENT
100
AcDbLine
10
16.478850343030665
20
24.470265361880021
30
1.3877787807814457e-16
11
23.525223875721256
21
24.470265361880021
31
1.3877787807814457e-16
0
LINE
5
106
100
AcDbEntity
8
BEND_EXTENT
100
AcDbLine
10
17.670066742718213
20
23
30
0
11
22.335693592498625
21
23
31
0
0
LINE
5
107
100
AcDbEntity
8
BEND_EXTENT
100
AcDbLine
10
70.474775445907227
20
24.470265361880017
30
1.3877787807814457e-16
11
77.521149611750189
21
24.470265361880017
31
1.3877787807814457e-16
0
LINE
5
108
100
AcDbEntity
8
BEND_EXTENT
100
AcDbLine
10
71.664305448544184
20
22.999999999999993
30
0
11
76.329933193338093
21
22.999999999999993
31
0
0
ENDSEC
0
SECTION
2
OBJECTS
0
DICTIONARY
5
C
100
AcDbDictionary
3
ACAD_GROUP
350
D
3
ACAD_MLINESTYLE
350
17
0
DICTIONARY
5
D
100
AcDbDictionary
0
DICTIONARY
5
1A
330
C
100
AcDbDictionary
0
DICTIONARY
5
17
100
AcDbDictionary
0
ENDSEC
0
EOF
