%TF.GenerationSoftware,KiCad,Pcbnew,7.0.8*%
%TF.CreationDate,2023-10-27T12:05:37-04:00*%
%TF.ProjectId,mainboard_dual_battery,6d61696e-626f-4617-9264-5f6475616c5f,rev?*%
%TF.SameCoordinates,PX1312d00PY5f5e100*%
%TF.FileFunction,Copper,L4,Bot*%
%TF.FilePolarity,Positive*%
%FSLAX46Y46*%
G04 Gerber Fmt 4.6, Leading zero omitted, Abs format (unit mm)*
G04 Created by KiCad (PCBNEW 7.0.8) date 2023-10-27 12:05:37*
%MOMM*%
%LPD*%
G01*
G04 APERTURE LIST*
%TA.AperFunction,ComponentPad*%
%ADD10C,5.600000*%
%TD*%
%TA.AperFunction,ComponentPad*%
%ADD11R,1.700000X1.700000*%
%TD*%
%TA.AperFunction,ComponentPad*%
%ADD12O,1.700000X1.700000*%
%TD*%
%TA.AperFunction,ComponentPad*%
%ADD13C,1.700000*%
%TD*%
%TA.AperFunction,ComponentPad*%
%ADD14C,0.500000*%
%TD*%
%TA.AperFunction,SMDPad,CuDef*%
%ADD15R,3.000000X4.500000*%
%TD*%
%TA.AperFunction,ComponentPad*%
%ADD16O,0.890000X1.550000*%
%TD*%
%TA.AperFunction,ComponentPad*%
%ADD17O,1.250000X0.950000*%
%TD*%
%TA.AperFunction,ComponentPad*%
%ADD18O,1.800000X3.400000*%
%TD*%
%TA.AperFunction,ComponentPad*%
%ADD19C,1.400000*%
%TD*%
%TA.AperFunction,ViaPad*%
%ADD20C,0.800000*%
%TD*%
%TA.AperFunction,Conductor*%
%ADD21C,2.000000*%
%TD*%
%TA.AperFunction,Conductor*%
%ADD22C,0.250000*%
%TD*%
%TA.AperFunction,Conductor*%
%ADD23C,0.203200*%
%TD*%
%TA.AperFunction,Conductor*%
%ADD24C,0.406400*%
%TD*%
%TA.AperFunction,Conductor*%
%ADD25C,0.609600*%
%TD*%
G04 APERTURE END LIST*
D10*
%TO.P,REF\u002A\u002A,1*%
%TO.N,N/C*%
X4500000Y-43500000D03*
%TD*%
D11*
%TO.P,J14,1,Pin_1*%
%TO.N,Net-(J14-Pin_1)*%
X48260000Y-43688000D03*
D12*
%TO.P,J14,2,Pin_2*%
%TO.N,/VBAT*%
X45720000Y-43688000D03*
%TD*%
D11*
%TO.P,J2,1,Pin_1*%
%TO.N,VCC*%
X15240000Y12700000D03*
D12*
%TO.P,J2,2,Pin_2*%
%TO.N,+3V3*%
X12700000Y12700000D03*
%TO.P,J2,3,Pin_3*%
%TO.N,/MISO*%
X10160000Y12700000D03*
%TO.P,J2,4,Pin_4*%
%TO.N,/MOSI*%
X7620000Y12700000D03*
%TO.P,J2,5,Pin_5*%
%TO.N,GNDREF*%
X5080000Y12700000D03*
%TD*%
D13*
%TO.P,J6,1,Pin_1*%
%TO.N,/Motor1A_out*%
X10250000Y27700000D03*
%TD*%
D14*
%TO.P,U11,17,GND(PPAD)*%
%TO.N,GNDREF*%
X72111000Y1333000D03*
X72111000Y133000D03*
X72111000Y-1067000D03*
X72111000Y-2267000D03*
X73111000Y1333000D03*
X73111000Y133000D03*
D15*
X73111000Y-467000D03*
D14*
X73111000Y-1067000D03*
X73111000Y-2267000D03*
X74111000Y1333000D03*
X74111000Y133000D03*
X74111000Y-1067000D03*
X74111000Y-2267000D03*
%TD*%
D10*
%TO.P,REF\u002A\u002A,1*%
%TO.N,N/C*%
X109000000Y-27000000D03*
%TD*%
D11*
%TO.P,J11,1,Pin_1*%
%TO.N,GNDREF*%
X112522000Y-41910000D03*
D12*
%TO.P,J11,2,Pin_2*%
%TO.N,+6V*%
X112522000Y-39370000D03*
%TO.P,J11,3,Pin_3*%
%TO.N,/SERVO2*%
X112522000Y-36830000D03*
%TD*%
D16*
%TO.P,J3,6,Shield*%
%TO.N,GNDREF*%
X70668000Y-48036000D03*
D17*
X71668000Y-45336000D03*
X76668000Y-45336000D03*
D16*
X77668000Y-48036000D03*
%TD*%
D13*
%TO.P,J4,1,Pin_1*%
%TO.N,/Motor1B_out*%
X19750000Y27700000D03*
%TD*%
D11*
%TO.P,J1,1,Pin_1*%
%TO.N,/nRESET*%
X76962000Y-40386000D03*
D12*
%TO.P,J1,2,Pin_2*%
%TO.N,/SWCLK*%
X79502000Y-40767000D03*
%TO.P,J1,3,Pin_3*%
%TO.N,/SWDIO*%
X82042000Y-40386000D03*
%TO.P,J1,4,Pin_4*%
%TO.N,GNDREF*%
X84582000Y-40767000D03*
%TO.P,J1,5,Pin_5*%
%TO.N,+3V3*%
X87122000Y-40386000D03*
%TD*%
D11*
%TO.P,J13,1,Pin_1*%
%TO.N,/SDA*%
X23622000Y6350000D03*
D12*
%TO.P,J13,2,Pin_2*%
%TO.N,+3V3*%
X21082000Y6350000D03*
%TO.P,J13,3,Pin_3*%
%TO.N,/SCL*%
X23622000Y3810000D03*
%TO.P,J13,4,Pin_4*%
%TO.N,/MISO*%
X21082000Y3810000D03*
%TO.P,J13,5,Pin_5*%
%TO.N,/SCK*%
X23622000Y1270000D03*
%TO.P,J13,6,Pin_6*%
%TO.N,/MOSI*%
X21082000Y1270000D03*
%TO.P,J13,7,Pin_7*%
%TO.N,/TOP_A4*%
X23622000Y-1270000D03*
%TO.P,J13,8,Pin_8*%
%TO.N,/TOP_A5*%
X21082000Y-1270000D03*
%TO.P,J13,9,Pin_9*%
%TO.N,/nRESET*%
X23622000Y-3810000D03*
%TO.P,J13,10,Pin_10*%
%TO.N,/TOP_A3*%
X21082000Y-3810000D03*
%TO.P,J13,11,Pin_11*%
%TO.N,GNDREF*%
X23622000Y-6350000D03*
%TO.P,J13,12,Pin_12*%
%TO.N,VCC*%
X21082000Y-6350000D03*
%TD*%
D10*
%TO.P,REF\u002A\u002A,1*%
%TO.N,N/C*%
X109000000Y27000000D03*
%TD*%
%TO.P,REF\u002A\u002A,1*%
%TO.N,N/C*%
X93000000Y40000000D03*
%TD*%
%TO.P,REF\u002A\u002A,1*%
%TO.N,N/C*%
X106000000Y-39500000D03*
%TD*%
%TO.P,REF\u002A\u002A,1*%
%TO.N,N/C*%
X106000000Y39500000D03*
%TD*%
%TO.P,REF\u002A\u002A,1*%
%TO.N,N/C*%
X93000000Y-40000000D03*
%TD*%
D13*
%TO.P,J5,1,Pin_1*%
%TO.N,/Motor2B_out*%
X19750000Y-27700000D03*
%TD*%
D10*
%TO.P,REF\u002A\u002A,1*%
%TO.N,N/C*%
X25500000Y43500000D03*
%TD*%
D11*
%TO.P,J12,1,Pin_1*%
%TO.N,GNDREF*%
X112522000Y41910000D03*
D12*
%TO.P,J12,2,Pin_2*%
%TO.N,+6V*%
X112522000Y39370000D03*
%TO.P,J12,3,Pin_3*%
%TO.N,/SERVO1*%
X112522000Y36830000D03*
%TD*%
D11*
%TO.P,J9,1,Pin_1*%
%TO.N,VCC*%
X15240000Y5080000D03*
D12*
%TO.P,J9,2,Pin_2*%
%TO.N,+3V3*%
X12700000Y5080000D03*
%TO.P,J9,3,Pin_3*%
%TO.N,/SCK*%
X10160000Y5080000D03*
%TO.P,J9,4,Pin_4*%
%TO.N,/TOP_A5*%
X7620000Y5080000D03*
%TO.P,J9,5,Pin_5*%
%TO.N,GNDREF*%
X5080000Y5080000D03*
%TD*%
D13*
%TO.P,J8,1,Pin_1*%
%TO.N,+3V3*%
X70866000Y45212000D03*
D12*
%TO.P,J8,2,Pin_2*%
%TO.N,VCC*%
X73406000Y45212000D03*
%TO.P,J8,3,Pin_3*%
%TO.N,+6V*%
X75946000Y45212000D03*
%TO.P,J8,4,Pin_4*%
%TO.N,GNDREF*%
X78486000Y45212000D03*
%TD*%
D10*
%TO.P,REF\u002A\u002A,1*%
%TO.N,N/C*%
X4500000Y43500000D03*
%TD*%
D11*
%TO.P,J10,1,Pin_1*%
%TO.N,VCC*%
X15240000Y-2540000D03*
D12*
%TO.P,J10,2,Pin_2*%
%TO.N,+3V3*%
X12700000Y-2540000D03*
%TO.P,J10,3,Pin_3*%
%TO.N,/TOP_A4*%
X10160000Y-2540000D03*
%TO.P,J10,4,Pin_4*%
%TO.N,/TOP_A3*%
X7620000Y-2540000D03*
%TO.P,J10,5,Pin_5*%
%TO.N,GNDREF*%
X5080000Y-2540000D03*
%TD*%
D18*
%TO.P,SW1,1,A*%
%TO.N,/VBAT*%
X5460000Y-10668000D03*
%TO.P,SW1,2,B*%
%TO.N,VCC*%
X10160000Y-10668000D03*
%TO.P,SW1,3,C*%
%TO.N,unconnected-(SW1-C-Pad3)*%
X14860000Y-10668000D03*
%TD*%
D10*
%TO.P,REF\u002A\u002A,1*%
%TO.N,N/C*%
X25500000Y-43500000D03*
%TD*%
D13*
%TO.P,J7,1,Pin_1*%
%TO.N,/Motor2A_out*%
X10250000Y-27700000D03*
%TD*%
D19*
%TO.P,U3,1,K*%
%TO.N,Net-(U3-K)*%
X106698000Y-19070000D03*
%TO.P,U3,2,A*%
%TO.N,Net-(U2-K)*%
X106698000Y-21610000D03*
%TO.P,U3,3,E*%
%TO.N,GNDREF*%
X102598000Y-21610000D03*
%TO.P,U3,4,C*%
%TO.N,/A1*%
X102598000Y-19070000D03*
%TD*%
%TO.P,U5,1,K*%
%TO.N,Net-(U5-K)*%
X106698000Y1250000D03*
%TO.P,U5,2,A*%
%TO.N,Net-(U4-K)*%
X106698000Y-1290000D03*
%TO.P,U5,3,E*%
%TO.N,GNDREF*%
X102598000Y-1290000D03*
%TO.P,U5,4,C*%
%TO.N,/A3*%
X102598000Y1250000D03*
%TD*%
%TO.P,U2,1,K*%
%TO.N,Net-(U2-K)*%
X106698000Y-44470000D03*
%TO.P,U2,2,A*%
%TO.N,/Reflectance sensor array/VCC_LED*%
X106698000Y-47010000D03*
%TO.P,U2,3,E*%
%TO.N,GNDREF*%
X102598000Y-47010000D03*
%TO.P,U2,4,C*%
%TO.N,/A0*%
X102598000Y-44470000D03*
%TD*%
%TO.P,U4,1,K*%
%TO.N,Net-(U4-K)*%
X106680000Y-8890000D03*
%TO.P,U4,2,A*%
%TO.N,Net-(U3-K)*%
X106680000Y-11430000D03*
%TO.P,U4,3,E*%
%TO.N,GNDREF*%
X102580000Y-11430000D03*
%TO.P,U4,4,C*%
%TO.N,/A2*%
X102580000Y-8890000D03*
%TD*%
%TO.P,U7,1,K*%
%TO.N,Net-(U7-K)*%
X106680000Y21590000D03*
%TO.P,U7,2,A*%
%TO.N,Net-(U6-K)*%
X106680000Y19050000D03*
%TO.P,U7,3,E*%
%TO.N,GNDREF*%
X102580000Y19050000D03*
%TO.P,U7,4,C*%
%TO.N,/A5*%
X102580000Y21590000D03*
%TD*%
%TO.P,U6,1,K*%
%TO.N,Net-(U6-K)*%
X106680000Y11430000D03*
%TO.P,U6,2,A*%
%TO.N,Net-(U5-K)*%
X106680000Y8890000D03*
%TO.P,U6,3,E*%
%TO.N,GNDREF*%
X102580000Y8890000D03*
%TO.P,U6,4,C*%
%TO.N,/A4*%
X102580000Y11430000D03*
%TD*%
%TO.P,U8,1,K*%
%TO.N,/Reflectance sensor array/FB*%
X106698000Y46970000D03*
%TO.P,U8,2,A*%
%TO.N,Net-(U7-K)*%
X106698000Y44430000D03*
%TO.P,U8,3,E*%
%TO.N,GNDREF*%
X102598000Y44430000D03*
%TO.P,U8,4,C*%
%TO.N,/A6*%
X102598000Y46970000D03*
%TD*%
D20*
%TO.N,+3V3*%
X90932000Y-8763000D03*
X88888000Y-27698000D03*
X97790000Y8382000D03*
X97790000Y18542000D03*
X97790000Y-11938000D03*
X91348000Y3024000D03*
X97790000Y-29972000D03*
X76073000Y-15748000D03*
X76073000Y-18415000D03*
X96897000Y-22229000D03*
X76073000Y-17018000D03*
X80670400Y-32867600D03*
X96520000Y30988000D03*
X14859000Y-21209000D03*
X10668000Y21590000D03*
X81026000Y-26670000D03*
X75057000Y3429000D03*
X88900000Y-14000000D03*
X97790000Y-2286000D03*
%TO.N,/VBAT*%
X39624000Y-35306000D03*
X38354000Y-35306000D03*
X35814000Y-35306000D03*
X37084000Y-35306000D03*
%TO.N,/SDA*%
X87376000Y-14478000D03*
%TO.N,/SCL*%
X86360000Y-15494000D03*
%TO.N,/ENC1_DIR*%
X19050000Y25146000D03*
X86360000Y-11938000D03*
%TO.N,/ENC1_SPEED*%
X87122000Y-12954000D03*
X18796000Y23114000D03*
%TO.N,/ENC2_DIR*%
X22860000Y-21082000D03*
X82042000Y-20828000D03*
%TO.N,/ENC2_SPEED*%
X80518000Y-21336000D03*
X24638000Y-21844000D03*
%TO.N,+6V*%
X80264000Y-762000D03*
X88138000Y8382000D03*
X88138000Y15494000D03*
X78994000Y-762000D03*
X88138000Y12700000D03*
X77978000Y-792000D03*
X88138000Y9906000D03*
%TO.N,GNDREF*%
X81026000Y-25146000D03*
X41656000Y40894000D03*
X78486000Y15240000D03*
X76708000Y15240000D03*
X69723000Y-17399000D03*
X68834000Y-17399000D03*
X12192000Y-20066000D03*
X81866375Y2008000D03*
X72898000Y16510000D03*
X44196000Y40894000D03*
X76708000Y16510000D03*
X88474000Y32322000D03*
X75438000Y15240000D03*
X76708000Y7874000D03*
X79756000Y7874000D03*
X49784000Y40894000D03*
X90569000Y25908000D03*
X78486000Y16510000D03*
X85497000Y15546000D03*
X96266000Y-23622000D03*
X80772000Y8890000D03*
X88011000Y-16000000D03*
X75565000Y-12954000D03*
X52578000Y40894000D03*
X85851500Y-3978750D03*
X86995000Y-28067000D03*
X86467782Y-830474D03*
X78740000Y7874000D03*
X74168000Y16510000D03*
X70612000Y8255000D03*
X68834000Y31242000D03*
X78740000Y8890000D03*
X79756000Y8890000D03*
X12446000Y21590000D03*
X72136000Y-25273000D03*
X85497000Y13006000D03*
X46990000Y40894000D03*
X91866000Y-3050750D03*
X89407500Y2117250D03*
X77724000Y8890000D03*
X77724000Y7874000D03*
X76708000Y8890000D03*
X80772000Y7874000D03*
X75438000Y16510000D03*
%TO.N,VCC*%
X60833000Y-15694500D03*
X62611000Y-15748000D03*
X61722000Y28901504D03*
X90424000Y28901504D03*
X62484000Y20320000D03*
X60960000Y20320000D03*
X59436000Y20320000D03*
X60452000Y28901504D03*
%TO.N,/Reflectance sensor array/VCC_LED*%
X96520000Y23368000D03*
%TO.N,/Reflectance sensor array/FB*%
X97500000Y45720000D03*
%TO.N,/HEARTBEAT*%
X91000000Y-15500000D03*
X84074000Y-1778000D03*
%TD*%
D21*
%TO.N,/VBAT*%
X5460000Y-10668000D02*
X5460000Y-30352000D01*
X38354000Y-35306000D02*
X39624000Y-35306000D01*
X35814000Y-35306000D02*
X37084000Y-35306000D01*
X5460000Y-30352000D02*
X10414000Y-35306000D01*
X10414000Y-35306000D02*
X35814000Y-35306000D01*
X37084000Y-35306000D02*
X38354000Y-35306000D01*
D22*
%TO.N,/SDA*%
X79248000Y-7620000D02*
X58166000Y-7620000D01*
X58166000Y-7620000D02*
X44196000Y6350000D01*
X44196000Y6350000D02*
X23622000Y6350000D01*
X87376000Y-14478000D02*
X86106000Y-14478000D01*
X86106000Y-14478000D02*
X79248000Y-7620000D01*
%TO.N,/SCL*%
X78740000Y-8382000D02*
X57404000Y-8382000D01*
X86360000Y-15494000D02*
X85852000Y-15494000D01*
X57404000Y-8382000D02*
X45212000Y3810000D01*
X45212000Y3810000D02*
X23622000Y3810000D01*
X85852000Y-15494000D02*
X78740000Y-8382000D01*
D23*
%TO.N,/nRESET*%
X23622000Y-3810000D02*
X25146000Y-3810000D01*
X25146000Y-3810000D02*
X26670000Y-5334000D01*
X21844000Y-15748000D02*
X21844000Y-22352000D01*
X22352000Y-22860000D02*
X21844000Y-22352000D01*
X26670000Y-10922000D02*
X21844000Y-15748000D01*
X26670000Y-5334000D02*
X26670000Y-10922000D01*
X59182000Y-22860000D02*
X22352000Y-22860000D01*
X76708000Y-40386000D02*
X59182000Y-22860000D01*
%TO.N,/ENC1_DIR*%
X60960000Y-6604000D02*
X38100000Y16256000D01*
X19050000Y25146000D02*
X34098210Y25146000D01*
X86360000Y-11938000D02*
X85344000Y-11938000D01*
X38100000Y16256000D02*
X38100000Y21144210D01*
X85344000Y-11938000D02*
X80010000Y-6604000D01*
X80010000Y-6604000D02*
X60960000Y-6604000D01*
X38100000Y21144210D02*
X34098210Y25146000D01*
%TO.N,/ENC1_SPEED*%
X37084000Y16002000D02*
X60198000Y-7112000D01*
X60198000Y-7112000D02*
X79756000Y-7112000D01*
X18796000Y23114000D02*
X34798000Y23114000D01*
X85598000Y-12954000D02*
X87122000Y-12954000D01*
X34798000Y23114000D02*
X37084000Y20828000D01*
X37084000Y20828000D02*
X37084000Y16002000D01*
X79756000Y-7112000D02*
X85598000Y-12954000D01*
%TO.N,/ENC2_DIR*%
X80010000Y-20320000D02*
X81534000Y-20320000D01*
X81534000Y-20320000D02*
X82042000Y-20828000D01*
X79248000Y-21082000D02*
X80010000Y-20320000D01*
X22860000Y-21082000D02*
X79248000Y-21082000D01*
%TO.N,/ENC2_SPEED*%
X80010000Y-21844000D02*
X80518000Y-21336000D01*
X24638000Y-21844000D02*
X80010000Y-21844000D01*
D24*
%TO.N,VCC*%
X73406000Y28901504D02*
X73406000Y45212000D01*
X60452000Y28901504D02*
X61722000Y28901504D01*
X61722000Y28901504D02*
X90424000Y28901504D01*
D25*
%TO.N,/Reflectance sensor array/VCC_LED*%
X113284000Y-30734000D02*
X110236000Y-33782000D01*
X109474000Y-20066000D02*
X113284000Y-23876000D01*
X96520000Y23368000D02*
X107950000Y23368000D01*
X110236000Y-43434000D02*
X106680000Y-46990000D01*
X113284000Y-23876000D02*
X113284000Y-30734000D01*
X107950000Y23368000D02*
X109474000Y21844000D01*
X110236000Y-33782000D02*
X110236000Y-43434000D01*
X109474000Y21844000D02*
X109474000Y-20066000D01*
D23*
%TO.N,/Reflectance sensor array/FB*%
X97500000Y45720000D02*
X105410000Y45720000D01*
X105410000Y45720000D02*
X106680000Y46990000D01*
%TO.N,Net-(U2-K)*%
X105430000Y-44470000D02*
X102108000Y-41148000D01*
X102108000Y-26200000D02*
X106698000Y-21610000D01*
X106698000Y-44470000D02*
X105430000Y-44470000D01*
X102108000Y-41148000D02*
X102108000Y-26200000D01*
%TO.N,/HEARTBEAT*%
X84074000Y-7900894D02*
X91000000Y-14826894D01*
X84074000Y-1778000D02*
X84074000Y-7900894D01*
X91000000Y-14826894D02*
X91000000Y-15500000D01*
%TO.N,Net-(U3-K)*%
X106680000Y-11430000D02*
X106680000Y-19050000D01*
%TO.N,Net-(U4-K)*%
X106680000Y-1270000D02*
X106680000Y-8890000D01*
%TO.N,Net-(U5-K)*%
X106680000Y8890000D02*
X106680000Y1270000D01*
%TO.N,Net-(U6-K)*%
X106680000Y19050000D02*
X106680000Y11430000D01*
%TD*%
%TA.AperFunction,Conductor*%
%TO.N,GNDREF*%
G36*
X22441621Y53479498D02*
G01*
X22488114Y53425842D01*
X22499500Y53373500D01*
X22499500Y49524928D01*
X22499415Y49524500D01*
X22499458Y49500002D01*
X22499459Y49500000D01*
X22499500Y49499901D01*
X22499617Y49499617D01*
X22500000Y49499459D01*
X22500002Y49499461D01*
X22525014Y49499476D01*
X22525014Y49499472D01*
X22525158Y49499500D01*
X112935582Y49499500D01*
X113003703Y49479498D01*
X113037483Y49447610D01*
X116975401Y44032974D01*
X116999291Y43966118D01*
X116999500Y43958865D01*
X116999500Y-43958863D01*
X116979498Y-44026984D01*
X116975401Y-44032973D01*
X113037483Y-49447610D01*
X112981240Y-49490937D01*
X112935582Y-49499500D01*
X78054446Y-49499500D01*
X77986325Y-49479498D01*
X77939832Y-49425842D01*
X77929728Y-49355568D01*
X77959222Y-49290988D01*
X78010685Y-49255344D01*
X78089854Y-49226022D01*
X78254347Y-49123493D01*
X78254354Y-49123489D01*
X78394827Y-48989957D01*
X78505550Y-48830878D01*
X78581982Y-48652767D01*
X78620999Y-48462912D01*
X78621000Y-48462906D01*
X78621000Y-48290000D01*
X77918000Y-48290000D01*
X77918000Y-47686376D01*
X77903495Y-47613455D01*
X77848240Y-47530760D01*
X77765545Y-47475505D01*
X77668000Y-47456102D01*
X77570455Y-47475505D01*
X77487760Y-47530760D01*
X77432505Y-47613455D01*
X77418000Y-47686376D01*
X77418000Y-48290000D01*
X76715000Y-48290000D01*
X76715000Y-48414350D01*
X76729692Y-48558819D01*
X76729693Y-48558824D01*
X76787716Y-48743757D01*
X76881778Y-48913226D01*
X76881778Y-48913227D01*
X77008023Y-49060285D01*
X77008029Y-49060290D01*
X77161298Y-49178929D01*
X77327340Y-49260377D01*
X77379690Y-49308334D01*
X77397802Y-49376982D01*
X77375925Y-49444524D01*
X77321005Y-49489516D01*
X77271850Y-49499500D01*
X71054446Y-49499500D01*
X70986325Y-49479498D01*
X70939832Y-49425842D01*
X70929728Y-49355568D01*
X70959222Y-49290988D01*
X71010685Y-49255344D01*
X71089854Y-49226022D01*
X71254347Y-49123493D01*
X71254354Y-49123489D01*
X71394827Y-48989957D01*
X71505550Y-48830878D01*
X71581982Y-48652767D01*
X71620999Y-48462912D01*
X71621000Y-48462906D01*
X71621000Y-48290000D01*
X70918000Y-48290000D01*
X70918000Y-47686376D01*
X70903495Y-47613455D01*
X70848240Y-47530760D01*
X70765545Y-47475505D01*
X70668000Y-47456102D01*
X70570455Y-47475505D01*
X70487760Y-47530760D01*
X70432505Y-47613455D01*
X70418000Y-47686376D01*
X70418000Y-48290000D01*
X69715000Y-48290000D01*
X69715000Y-48414350D01*
X69729692Y-48558819D01*
X69729693Y-48558824D01*
X69787716Y-48743757D01*
X69881778Y-48913226D01*
X69881778Y-48913227D01*
X70008023Y-49060285D01*
X70008029Y-49060290D01*
X70161298Y-49178929D01*
X70327340Y-49260377D01*
X70379690Y-49308334D01*
X70397802Y-49376982D01*
X70375925Y-49444524D01*
X70321005Y-49489516D01*
X70271850Y-49499500D01*
X22525158Y-49499500D01*
X22524952Y-49499459D01*
X22500001Y-49499459D01*
X22500000Y-49499459D01*
X22499901Y-49499500D01*
X22499617Y-49499617D01*
X22499459Y-49500000D01*
X22499476Y-49525014D01*
X22499471Y-49525014D01*
X22499500Y-49525157D01*
X22499500Y-53373500D01*
X22479498Y-53441621D01*
X22425842Y-53488114D01*
X22373500Y-53499500D01*
X7626500Y-53499500D01*
X7558379Y-53479498D01*
X7511886Y-53425842D01*
X7500500Y-53373500D01*
X7500500Y-49525157D01*
X7500528Y-49525014D01*
X7500524Y-49525014D01*
X7500539Y-49500002D01*
X7500541Y-49500000D01*
X7500383Y-49499617D01*
X7500099Y-49499500D01*
X7500000Y-49499459D01*
X7499999Y-49499459D01*
X7475048Y-49499459D01*
X7474842Y-49499500D01*
X1052397Y-49499500D01*
X984276Y-49479498D01*
X963306Y-49462599D01*
X37402Y-48536694D01*
X3379Y-48474385D01*
X500Y-48447602D01*
X500Y-47782000D01*
X69715000Y-47782000D01*
X70414000Y-47782000D01*
X70414000Y-46787337D01*
X70922000Y-46787337D01*
X70922000Y-47782000D01*
X71621000Y-47782000D01*
X76715000Y-47782000D01*
X77414000Y-47782000D01*
X77414000Y-46787337D01*
X77922000Y-46787337D01*
X77922000Y-47782000D01*
X78621000Y-47782000D01*
X78621000Y-47657668D01*
X78620999Y-47657649D01*
X78606307Y-47513180D01*
X78606306Y-47513175D01*
X78548283Y-47328242D01*
X78454221Y-47158773D01*
X78454221Y-47158772D01*
X78327976Y-47011714D01*
X78327970Y-47011709D01*
X78174701Y-46893070D01*
X78000690Y-46807714D01*
X78000679Y-46807709D01*
X77922000Y-46787337D01*
X77414000Y-46787337D01*
X77414000Y-46783809D01*
X77413999Y-46783809D01*
X77246139Y-46845980D01*
X77246136Y-46845981D01*
X77081658Y-46948500D01*
X77081645Y-46948510D01*
X76941172Y-47082042D01*
X76830449Y-47241121D01*
X76754017Y-47419232D01*
X76715000Y-47609087D01*
X76715000Y-47782000D01*
X71621000Y-47782000D01*
X71621000Y-47657668D01*
X71620999Y-47657649D01*
X71606307Y-47513180D01*
X71606306Y-47513175D01*
X71548283Y-47328242D01*
X71454221Y-47158773D01*
X71454221Y-47158772D01*
X71327976Y-47011714D01*
X71327970Y-47011709D01*
X71174701Y-46893070D01*
X71000690Y-46807714D01*
X71000679Y-46807709D01*
X70922000Y-46787337D01*
X70414000Y-46787337D01*
X70414000Y-46783809D01*
X70413999Y-46783809D01*
X70246139Y-46845980D01*
X70246136Y-46845981D01*
X70081658Y-46948500D01*
X70081645Y-46948510D01*
X69941172Y-47082042D01*
X69830449Y-47241121D01*
X69754017Y-47419232D01*
X69715000Y-47609087D01*
X69715000Y-47782000D01*
X500Y-47782000D01*
X500Y-43500003D01*
X1186641Y-43500003D01*
X1206064Y-43858237D01*
X1264103Y-44212269D01*
X1360084Y-44557959D01*
X1490353Y-44884910D01*
X1492877Y-44891243D01*
X1550172Y-44999312D01*
X1660922Y-45208210D01*
X1660924Y-45208214D01*
X1820317Y-45443300D01*
X1862258Y-45505159D01*
X2079698Y-45761150D01*
X2094516Y-45778595D01*
X2354962Y-46025304D01*
X2354977Y-46025317D01*
X2640586Y-46242431D01*
X2947995Y-46427393D01*
X3273599Y-46578033D01*
X3613583Y-46692587D01*
X3963958Y-46769711D01*
X4320618Y-46808500D01*
X4320626Y-46808500D01*
X4679374Y-46808500D01*
X4679382Y-46808500D01*
X5036042Y-46769711D01*
X5386417Y-46692587D01*
X5726401Y-46578033D01*
X6052005Y-46427393D01*
X6359414Y-46242431D01*
X6645023Y-46025317D01*
X6905484Y-45778595D01*
X7137742Y-45505159D01*
X7339075Y-45208215D01*
X7507123Y-44891243D01*
X7639915Y-44557961D01*
X7735895Y-44212274D01*
X7793936Y-43858237D01*
X7813359Y-43500003D01*
X22186641Y-43500003D01*
X22206064Y-43858237D01*
X22264103Y-44212269D01*
X22360084Y-44557959D01*
X22490353Y-44884910D01*
X22492877Y-44891243D01*
X22550172Y-44999312D01*
X22660922Y-45208210D01*
X22660924Y-45208214D01*
X22820317Y-45443300D01*
X22862258Y-45505159D01*
X23079698Y-45761150D01*
X23094516Y-45778595D01*
X23354962Y-46025304D01*
X23354977Y-46025317D01*
X23640586Y-46242431D01*
X23947995Y-46427393D01*
X24273599Y-46578033D01*
X24613583Y-46692587D01*
X24963958Y-46769711D01*
X25320618Y-46808500D01*
X25320626Y-46808500D01*
X25679374Y-46808500D01*
X25679382Y-46808500D01*
X26036042Y-46769711D01*
X26386417Y-46692587D01*
X26726401Y-46578033D01*
X27052005Y-46427393D01*
X27359414Y-46242431D01*
X27645023Y-46025317D01*
X27905484Y-45778595D01*
X28065678Y-45590000D01*
X70563821Y-45590000D01*
X70630907Y-45771140D01*
X70736658Y-45940802D01*
X70736661Y-45940805D01*
X70874403Y-46085708D01*
X71038487Y-46199915D01*
X71222210Y-46278755D01*
X71414000Y-46318169D01*
X71414000Y-45595701D01*
X71490912Y-45611000D01*
X71845088Y-45611000D01*
X71922000Y-45595701D01*
X71922000Y-46313492D01*
X72016899Y-46303842D01*
X72207652Y-46243993D01*
X72382451Y-46146970D01*
X72382457Y-46146966D01*
X72534140Y-46016751D01*
X72534141Y-46016749D01*
X72656521Y-45858648D01*
X72744562Y-45679163D01*
X72744563Y-45679161D01*
X72767650Y-45590000D01*
X75563821Y-45590000D01*
X75630907Y-45771140D01*
X75736658Y-45940802D01*
X75736661Y-45940805D01*
X75874403Y-46085708D01*
X76038487Y-46199915D01*
X76222210Y-46278755D01*
X76414000Y-46318169D01*
X76414000Y-45595701D01*
X76490912Y-45611000D01*
X76845088Y-45611000D01*
X76922000Y-45595701D01*
X76922000Y-46313492D01*
X77016899Y-46303842D01*
X77207652Y-46243993D01*
X77382451Y-46146970D01*
X77382457Y-46146966D01*
X77534140Y-46016751D01*
X77534141Y-46016749D01*
X77656521Y-45858648D01*
X77744562Y-45679163D01*
X77744563Y-45679161D01*
X77767650Y-45590000D01*
X76932850Y-45590000D01*
X77016264Y-45534264D01*
X77077045Y-45443300D01*
X77098388Y-45336000D01*
X77077045Y-45228700D01*
X77016264Y-45137736D01*
X76932850Y-45082000D01*
X77772179Y-45082000D01*
X77705092Y-44900859D01*
X77599341Y-44731197D01*
X77599338Y-44731194D01*
X77461596Y-44586291D01*
X77297512Y-44472084D01*
X77113794Y-44393246D01*
X76922000Y-44353830D01*
X76922000Y-45076298D01*
X76845088Y-45061000D01*
X76490912Y-45061000D01*
X76414000Y-45076298D01*
X76414000Y-44358505D01*
X76413999Y-44358505D01*
X76319110Y-44368155D01*
X76319105Y-44368156D01*
X76128349Y-44428005D01*
X76128347Y-44428006D01*
X75953548Y-44525029D01*
X75953542Y-44525033D01*
X75801859Y-44655248D01*
X75801858Y-44655250D01*
X75679478Y-44813351D01*
X75591437Y-44992836D01*
X75591436Y-44992838D01*
X75568350Y-45082000D01*
X76403150Y-45082000D01*
X76319736Y-45137736D01*
X76258955Y-45228700D01*
X76237612Y-45336000D01*
X76258955Y-45443300D01*
X76319736Y-45534264D01*
X76403150Y-45590000D01*
X75563821Y-45590000D01*
X72767650Y-45590000D01*
X71932850Y-45590000D01*
X72016264Y-45534264D01*
X72077045Y-45443300D01*
X72098388Y-45336000D01*
X72077045Y-45228700D01*
X72016264Y-45137736D01*
X71932850Y-45082000D01*
X72772179Y-45082000D01*
X72705092Y-44900859D01*
X72599341Y-44731197D01*
X72599338Y-44731194D01*
X72461596Y-44586291D01*
X72297512Y-44472084D01*
X72113794Y-44393246D01*
X71922000Y-44353830D01*
X71922000Y-45076298D01*
X71845088Y-45061000D01*
X71490912Y-45061000D01*
X71414000Y-45076298D01*
X71414000Y-44358505D01*
X71413999Y-44358505D01*
X71319110Y-44368155D01*
X71319105Y-44368156D01*
X71128349Y-44428005D01*
X71128347Y-44428006D01*
X70953548Y-44525029D01*
X70953542Y-44525033D01*
X70801859Y-44655248D01*
X70801858Y-44655250D01*
X70679478Y-44813351D01*
X70591437Y-44992836D01*
X70591436Y-44992838D01*
X70568350Y-45082000D01*
X71403150Y-45082000D01*
X71319736Y-45137736D01*
X71258955Y-45228700D01*
X71237612Y-45336000D01*
X71258955Y-45443300D01*
X71319736Y-45534264D01*
X71403150Y-45590000D01*
X70563821Y-45590000D01*
X28065678Y-45590000D01*
X28137742Y-45505159D01*
X28339075Y-45208215D01*
X28507123Y-44891243D01*
X28639915Y-44557961D01*
X28735895Y-44212274D01*
X28793936Y-43858237D01*
X28803166Y-43688000D01*
X44356844Y-43688000D01*
X44375105Y-43908378D01*
X44375437Y-43912375D01*
X44430702Y-44130612D01*
X44430703Y-44130613D01*
X44430704Y-44130616D01*
X44521140Y-44336791D01*
X44521141Y-44336793D01*
X44644275Y-44525265D01*
X44644279Y-44525270D01*
X44796762Y-44690908D01*
X44848521Y-44731194D01*
X44974424Y-44829189D01*
X45172426Y-44936342D01*
X45172427Y-44936342D01*
X45172428Y-44936343D01*
X45263198Y-44967504D01*
X45385365Y-45009444D01*
X45607431Y-45046500D01*
X45607435Y-45046500D01*
X45832565Y-45046500D01*
X45832569Y-45046500D01*
X46054635Y-45009444D01*
X46267574Y-44936342D01*
X46465576Y-44829189D01*
X46643240Y-44690906D01*
X46704245Y-44624637D01*
X46765096Y-44588067D01*
X46836061Y-44590200D01*
X46894606Y-44630362D01*
X46915000Y-44665941D01*
X46959111Y-44784204D01*
X46959112Y-44784207D01*
X47046738Y-44901261D01*
X47163792Y-44988887D01*
X47163794Y-44988888D01*
X47163796Y-44988889D01*
X47174384Y-44992838D01*
X47300795Y-45039988D01*
X47300803Y-45039990D01*
X47361350Y-45046499D01*
X47361355Y-45046499D01*
X47361362Y-45046500D01*
X47361368Y-45046500D01*
X49158632Y-45046500D01*
X49158638Y-45046500D01*
X49158645Y-45046499D01*
X49158649Y-45046499D01*
X49219196Y-45039990D01*
X49219199Y-45039989D01*
X49219201Y-45039989D01*
X49356204Y-44988889D01*
X49372451Y-44976727D01*
X49473261Y-44901261D01*
X49560887Y-44784207D01*
X49560887Y-44784206D01*
X49560889Y-44784204D01*
X49611989Y-44647201D01*
X49613800Y-44630362D01*
X49618499Y-44586649D01*
X49618500Y-44586632D01*
X49618500Y-42789367D01*
X49618499Y-42789350D01*
X49611990Y-42728803D01*
X49611988Y-42728795D01*
X49582924Y-42650875D01*
X49560889Y-42591796D01*
X49560888Y-42591794D01*
X49560887Y-42591792D01*
X49473261Y-42474738D01*
X49356207Y-42387112D01*
X49356202Y-42387110D01*
X49219204Y-42336011D01*
X49219196Y-42336009D01*
X49158649Y-42329500D01*
X49158638Y-42329500D01*
X47361362Y-42329500D01*
X47361350Y-42329500D01*
X47300803Y-42336009D01*
X47300795Y-42336011D01*
X47163797Y-42387110D01*
X47163792Y-42387112D01*
X47046738Y-42474738D01*
X46959112Y-42591792D01*
X46959111Y-42591795D01*
X46915000Y-42710058D01*
X46872453Y-42766893D01*
X46805932Y-42791703D01*
X46736558Y-42776611D01*
X46704246Y-42751363D01*
X46643240Y-42685094D01*
X46643239Y-42685093D01*
X46643237Y-42685091D01*
X46523372Y-42591796D01*
X46465576Y-42546811D01*
X46267574Y-42439658D01*
X46267572Y-42439657D01*
X46267571Y-42439656D01*
X46054639Y-42366557D01*
X46054630Y-42366555D01*
X46010476Y-42359187D01*
X45832569Y-42329500D01*
X45607431Y-42329500D01*
X45459211Y-42354233D01*
X45385369Y-42366555D01*
X45385360Y-42366557D01*
X45172428Y-42439656D01*
X45172426Y-42439658D01*
X44974426Y-42546810D01*
X44974424Y-42546811D01*
X44796762Y-42685091D01*
X44644279Y-42850729D01*
X44644275Y-42850734D01*
X44521141Y-43039206D01*
X44430703Y-43245386D01*
X44430702Y-43245387D01*
X44375437Y-43463624D01*
X44375436Y-43463630D01*
X44375436Y-43463632D01*
X44356844Y-43688000D01*
X28803166Y-43688000D01*
X28813359Y-43500000D01*
X28793936Y-43141763D01*
X28736164Y-42789367D01*
X28735896Y-42787730D01*
X28727635Y-42757975D01*
X28639915Y-42442039D01*
X28507123Y-42108757D01*
X28339075Y-41791785D01*
X28137742Y-41494841D01*
X27905484Y-41221405D01*
X27893039Y-41209616D01*
X27645037Y-40974695D01*
X27645022Y-40974682D01*
X27359418Y-40757572D01*
X27359412Y-40757568D01*
X27258905Y-40697095D01*
X27052005Y-40572607D01*
X26726401Y-40421967D01*
X26386417Y-40307413D01*
X26338915Y-40296956D01*
X26036054Y-40230291D01*
X26036030Y-40230287D01*
X25679389Y-40191500D01*
X25679382Y-40191500D01*
X25320618Y-40191500D01*
X25320610Y-40191500D01*
X24963969Y-40230287D01*
X24963945Y-40230291D01*
X24613587Y-40307412D01*
X24613573Y-40307416D01*
X24273601Y-40421966D01*
X24192198Y-40459627D01*
X23960956Y-40566611D01*
X23947989Y-40572610D01*
X23640587Y-40757568D01*
X23640581Y-40757572D01*
X23354977Y-40974682D01*
X23354962Y-40974695D01*
X23094516Y-41221404D01*
X22862256Y-41494843D01*
X22660924Y-41791785D01*
X22660922Y-41791789D01*
X22492876Y-42108759D01*
X22492872Y-42108768D01*
X22360084Y-42442040D01*
X22264103Y-42787730D01*
X22206064Y-43141762D01*
X22186641Y-43499996D01*
X22186641Y-43500003D01*
X7813359Y-43500003D01*
X7813359Y-43500000D01*
X7793936Y-43141763D01*
X7736164Y-42789367D01*
X7735896Y-42787730D01*
X7727635Y-42757975D01*
X7639915Y-42442039D01*
X7507123Y-42108757D01*
X7339075Y-41791785D01*
X7137742Y-41494841D01*
X6905484Y-41221405D01*
X6893039Y-41209616D01*
X6645037Y-40974695D01*
X6645022Y-40974682D01*
X6359418Y-40757572D01*
X6359412Y-40757568D01*
X6258905Y-40697095D01*
X6052005Y-40572607D01*
X5726401Y-40421967D01*
X5386417Y-40307413D01*
X5338915Y-40296956D01*
X5036054Y-40230291D01*
X5036030Y-40230287D01*
X4679389Y-40191500D01*
X4679382Y-40191500D01*
X4320618Y-40191500D01*
X4320610Y-40191500D01*
X3963969Y-40230287D01*
X3963945Y-40230291D01*
X3613587Y-40307412D01*
X3613573Y-40307416D01*
X3273601Y-40421966D01*
X3192198Y-40459627D01*
X2960956Y-40566611D01*
X2947989Y-40572610D01*
X2640587Y-40757568D01*
X2640581Y-40757572D01*
X2354977Y-40974682D01*
X2354962Y-40974695D01*
X2094516Y-41221404D01*
X1862256Y-41494843D01*
X1660924Y-41791785D01*
X1660922Y-41791789D01*
X1492876Y-42108759D01*
X1492872Y-42108768D01*
X1360084Y-42442040D01*
X1264103Y-42787730D01*
X1206064Y-43141762D01*
X1186641Y-43499996D01*
X1186641Y-43500003D01*
X500Y-43500003D01*
X500Y-30443376D01*
X3949352Y-30443376D01*
X3959791Y-30516931D01*
X3960211Y-30520714D01*
X3966189Y-30594764D01*
X3966189Y-30594766D01*
X3976384Y-30636129D01*
X3977590Y-30642356D01*
X3983574Y-30684518D01*
X3983575Y-30684521D01*
X3983575Y-30684524D01*
X4005669Y-30755427D01*
X4006691Y-30759092D01*
X4024478Y-30831251D01*
X4041172Y-30870433D01*
X4043362Y-30876388D01*
X4056032Y-30917048D01*
X4089221Y-30983502D01*
X4090817Y-30986956D01*
X4119943Y-31055314D01*
X4142710Y-31091319D01*
X4145826Y-31096844D01*
X4157758Y-31120734D01*
X4164854Y-31134943D01*
X4189705Y-31169439D01*
X4208276Y-31195216D01*
X4210407Y-31198371D01*
X4250117Y-31261168D01*
X4278363Y-31293052D01*
X4282324Y-31298005D01*
X4307219Y-31332560D01*
X4359746Y-31385087D01*
X4362339Y-31387841D01*
X4411625Y-31443474D01*
X4411627Y-31443476D01*
X4444627Y-31470419D01*
X4449323Y-31474664D01*
X5305307Y-32330648D01*
X9336597Y-36361940D01*
X9361037Y-36387384D01*
X9410425Y-36438802D01*
X9469825Y-36483438D01*
X9472771Y-36485794D01*
X9500373Y-36509272D01*
X9529377Y-36533944D01*
X9565829Y-36555980D01*
X9571086Y-36559531D01*
X9605135Y-36585117D01*
X9659694Y-36613751D01*
X9670909Y-36619638D01*
X9674209Y-36621499D01*
X9737811Y-36659948D01*
X9777343Y-36675857D01*
X9783089Y-36678514D01*
X9820792Y-36698303D01*
X9820795Y-36698304D01*
X9891257Y-36721828D01*
X9894830Y-36723142D01*
X9912584Y-36730287D01*
X9963757Y-36750882D01*
X10005319Y-36760242D01*
X10011413Y-36761941D01*
X10051818Y-36775431D01*
X10123625Y-36787099D01*
X10125152Y-36787348D01*
X10128879Y-36788069D01*
X10201362Y-36804395D01*
X10243890Y-36806967D01*
X10250174Y-36807666D01*
X10292221Y-36814500D01*
X10366501Y-36814500D01*
X10370302Y-36814614D01*
X10395040Y-36816111D01*
X10444472Y-36819102D01*
X10444473Y-36819101D01*
X10444476Y-36819102D01*
X10486866Y-36814818D01*
X10493202Y-36814500D01*
X39684801Y-36814500D01*
X39772549Y-36807416D01*
X39866768Y-36799810D01*
X40103248Y-36741523D01*
X40103249Y-36741522D01*
X40103251Y-36741522D01*
X40204688Y-36698303D01*
X40327316Y-36646056D01*
X40533168Y-36515883D01*
X40533175Y-36515877D01*
X40533176Y-36515877D01*
X40715468Y-36354380D01*
X40715474Y-36354375D01*
X40869510Y-36165714D01*
X40991289Y-35954787D01*
X41077656Y-35727057D01*
X41126374Y-35488421D01*
X41136181Y-35245061D01*
X41106823Y-35003280D01*
X41039061Y-34769338D01*
X40934650Y-34549296D01*
X40796293Y-34348852D01*
X40627575Y-34173198D01*
X40432865Y-34026883D01*
X40217205Y-33913696D01*
X40217201Y-33913694D01*
X40217200Y-33913694D01*
X39986179Y-33836568D01*
X39745788Y-33797501D01*
X39745782Y-33797500D01*
X39745779Y-33797500D01*
X39745775Y-33797500D01*
X11091031Y-33797500D01*
X11022910Y-33777498D01*
X11001936Y-33760595D01*
X7005405Y-29764063D01*
X6971379Y-29701751D01*
X6968500Y-29674968D01*
X6968500Y-27700000D01*
X8886844Y-27700000D01*
X8902416Y-27887928D01*
X8905437Y-27924375D01*
X8960702Y-28142612D01*
X8960703Y-28142613D01*
X8960704Y-28142616D01*
X9001206Y-28234951D01*
X9051141Y-28348793D01*
X9174275Y-28537265D01*
X9174279Y-28537270D01*
X9326762Y-28702908D01*
X9381331Y-28745381D01*
X9504424Y-28841189D01*
X9702426Y-28948342D01*
X9702427Y-28948342D01*
X9702428Y-28948343D01*
X9814227Y-28986723D01*
X9915365Y-29021444D01*
X10137431Y-29058500D01*
X10137435Y-29058500D01*
X10362565Y-29058500D01*
X10362569Y-29058500D01*
X10584635Y-29021444D01*
X10797574Y-28948342D01*
X10995576Y-28841189D01*
X11173240Y-28702906D01*
X11325722Y-28537268D01*
X11448860Y-28348791D01*
X11539296Y-28142616D01*
X11594564Y-27924368D01*
X11613156Y-27700000D01*
X18386844Y-27700000D01*
X18402416Y-27887928D01*
X18405437Y-27924375D01*
X18460702Y-28142612D01*
X18460703Y-28142613D01*
X18460704Y-28142616D01*
X18501206Y-28234951D01*
X18551141Y-28348793D01*
X18674275Y-28537265D01*
X18674279Y-28537270D01*
X18826762Y-28702908D01*
X18881331Y-28745381D01*
X19004424Y-28841189D01*
X19202426Y-28948342D01*
X19202427Y-28948342D01*
X19202428Y-28948343D01*
X19314227Y-28986723D01*
X19415365Y-29021444D01*
X19637431Y-29058500D01*
X19637435Y-29058500D01*
X19862565Y-29058500D01*
X19862569Y-29058500D01*
X20084635Y-29021444D01*
X20297574Y-28948342D01*
X20495576Y-28841189D01*
X20673240Y-28702906D01*
X20825722Y-28537268D01*
X20948860Y-28348791D01*
X21039296Y-28142616D01*
X21094564Y-27924368D01*
X21113156Y-27700000D01*
X21094564Y-27475632D01*
X21090888Y-27461117D01*
X21039297Y-27257387D01*
X21039296Y-27257386D01*
X21039296Y-27257384D01*
X20948860Y-27051209D01*
X20927904Y-27019134D01*
X20825724Y-26862734D01*
X20825720Y-26862729D01*
X20673237Y-26697091D01*
X20591382Y-26633381D01*
X20495576Y-26558811D01*
X20297574Y-26451658D01*
X20297572Y-26451657D01*
X20297571Y-26451656D01*
X20084639Y-26378557D01*
X20084630Y-26378555D01*
X20040476Y-26371187D01*
X19862569Y-26341500D01*
X19637431Y-26341500D01*
X19489211Y-26366233D01*
X19415369Y-26378555D01*
X19415360Y-26378557D01*
X19202428Y-26451656D01*
X19202426Y-26451658D01*
X19004426Y-26558810D01*
X19004424Y-26558811D01*
X18826762Y-26697091D01*
X18674279Y-26862729D01*
X18674275Y-26862734D01*
X18551141Y-27051206D01*
X18460703Y-27257386D01*
X18460702Y-27257387D01*
X18405437Y-27475624D01*
X18405436Y-27475630D01*
X18405436Y-27475632D01*
X18386844Y-27700000D01*
X11613156Y-27700000D01*
X11594564Y-27475632D01*
X11590888Y-27461117D01*
X11539297Y-27257387D01*
X11539296Y-27257386D01*
X11539296Y-27257384D01*
X11448860Y-27051209D01*
X11427904Y-27019134D01*
X11325724Y-26862734D01*
X11325720Y-26862729D01*
X11173237Y-26697091D01*
X11091382Y-26633381D01*
X10995576Y-26558811D01*
X10797574Y-26451658D01*
X10797572Y-26451657D01*
X10797571Y-26451656D01*
X10584639Y-26378557D01*
X10584630Y-26378555D01*
X10540476Y-26371187D01*
X10362569Y-26341500D01*
X10137431Y-26341500D01*
X9989211Y-26366233D01*
X9915369Y-26378555D01*
X9915360Y-26378557D01*
X9702428Y-26451656D01*
X9702426Y-26451658D01*
X9504426Y-26558810D01*
X9504424Y-26558811D01*
X9326762Y-26697091D01*
X9174279Y-26862729D01*
X9174275Y-26862734D01*
X9051141Y-27051206D01*
X8960703Y-27257386D01*
X8960702Y-27257387D01*
X8905437Y-27475624D01*
X8905436Y-27475630D01*
X8905436Y-27475632D01*
X8886844Y-27700000D01*
X6968500Y-27700000D01*
X6968500Y-21209000D01*
X13945496Y-21209000D01*
X13965457Y-21398927D01*
X13978115Y-21437882D01*
X14024473Y-21580556D01*
X14024476Y-21580561D01*
X14119958Y-21745941D01*
X14119965Y-21745951D01*
X14247744Y-21887864D01*
X14247747Y-21887866D01*
X14402248Y-22000118D01*
X14576712Y-22077794D01*
X14763513Y-22117500D01*
X14954487Y-22117500D01*
X15141288Y-22077794D01*
X15315752Y-22000118D01*
X15470253Y-21887866D01*
X15497645Y-21857444D01*
X15598034Y-21745951D01*
X15598035Y-21745949D01*
X15598040Y-21745944D01*
X15693527Y-21580556D01*
X15752542Y-21398928D01*
X15772504Y-21209000D01*
X15752542Y-21019072D01*
X15693527Y-20837444D01*
X15598040Y-20672056D01*
X15598038Y-20672054D01*
X15598034Y-20672048D01*
X15470255Y-20530135D01*
X15315752Y-20417882D01*
X15141288Y-20340206D01*
X14954487Y-20300500D01*
X14763513Y-20300500D01*
X14576711Y-20340206D01*
X14402247Y-20417882D01*
X14247744Y-20530135D01*
X14119965Y-20672048D01*
X14119958Y-20672058D01*
X14024476Y-20837438D01*
X14024473Y-20837445D01*
X13965457Y-21019072D01*
X13945496Y-21209000D01*
X6968500Y-21209000D01*
X6968500Y-11527827D01*
X8751500Y-11527827D01*
X8766741Y-11706898D01*
X8766742Y-11706904D01*
X8827153Y-11938917D01*
X8871173Y-12036302D01*
X8925914Y-12157402D01*
X9060175Y-12356047D01*
X9060177Y-12356049D01*
X9060180Y-12356053D01*
X9194254Y-12495943D01*
X9226075Y-12529144D01*
X9418843Y-12671715D01*
X9632933Y-12779657D01*
X9862185Y-12849864D01*
X10100005Y-12880318D01*
X10339551Y-12870143D01*
X10573932Y-12819630D01*
X10796404Y-12730233D01*
X11000569Y-12604524D01*
X11180551Y-12446119D01*
X11331175Y-12259576D01*
X11448105Y-12050260D01*
X11527980Y-11824194D01*
X11568500Y-11587881D01*
X11568500Y-11527827D01*
X13451500Y-11527827D01*
X13466741Y-11706898D01*
X13466742Y-11706904D01*
X13527153Y-11938917D01*
X13571173Y-12036302D01*
X13625914Y-12157402D01*
X13760175Y-12356047D01*
X13760177Y-12356049D01*
X13760180Y-12356053D01*
X13894254Y-12495943D01*
X13926075Y-12529144D01*
X14118843Y-12671715D01*
X14332933Y-12779657D01*
X14562185Y-12849864D01*
X14800005Y-12880318D01*
X15039551Y-12870143D01*
X15273932Y-12819630D01*
X15496404Y-12730233D01*
X15700569Y-12604524D01*
X15880551Y-12446119D01*
X16031175Y-12259576D01*
X16148105Y-12050260D01*
X16227980Y-11824194D01*
X16268500Y-11587881D01*
X16268500Y-9808173D01*
X16253259Y-9629102D01*
X16233734Y-9554117D01*
X16192846Y-9397082D01*
X16192844Y-9397079D01*
X16192844Y-9397076D01*
X16094086Y-9178598D01*
X15959825Y-8979953D01*
X15959821Y-8979949D01*
X15959819Y-8979946D01*
X15793927Y-8806858D01*
X15793926Y-8806857D01*
X15793925Y-8806856D01*
X15601157Y-8664285D01*
X15601156Y-8664284D01*
X15601154Y-8664283D01*
X15530997Y-8628911D01*
X15387067Y-8556343D01*
X15387060Y-8556340D01*
X15387056Y-8556339D01*
X15157815Y-8486136D01*
X14919995Y-8455682D01*
X14919991Y-8455682D01*
X14919983Y-8455681D01*
X14680448Y-8465856D01*
X14446065Y-8516370D01*
X14254751Y-8593247D01*
X14223596Y-8605767D01*
X14104098Y-8679345D01*
X14019425Y-8731480D01*
X14019423Y-8731482D01*
X13839453Y-8889876D01*
X13839445Y-8889885D01*
X13688827Y-9076419D01*
X13688823Y-9076426D01*
X13571895Y-9285738D01*
X13571895Y-9285739D01*
X13492021Y-9511800D01*
X13451500Y-9748121D01*
X13451500Y-11527827D01*
X11568500Y-11527827D01*
X11568500Y-9808173D01*
X11553259Y-9629102D01*
X11533734Y-9554117D01*
X11492846Y-9397082D01*
X11492844Y-9397079D01*
X11492844Y-9397076D01*
X11394086Y-9178598D01*
X11259825Y-8979953D01*
X11259821Y-8979949D01*
X11259819Y-8979946D01*
X11093927Y-8806858D01*
X11093926Y-8806857D01*
X11093925Y-8806856D01*
X10901157Y-8664285D01*
X10901156Y-8664284D01*
X10901154Y-8664283D01*
X10830997Y-8628911D01*
X10687067Y-8556343D01*
X10687060Y-8556340D01*
X10687056Y-8556339D01*
X10457815Y-8486136D01*
X10219995Y-8455682D01*
X10219991Y-8455682D01*
X10219983Y-8455681D01*
X9980448Y-8465856D01*
X9746065Y-8516370D01*
X9554751Y-8593247D01*
X9523596Y-8605767D01*
X9404098Y-8679345D01*
X9319425Y-8731480D01*
X9319423Y-8731482D01*
X9139453Y-8889876D01*
X9139445Y-8889885D01*
X8988827Y-9076419D01*
X8988823Y-9076426D01*
X8871895Y-9285738D01*
X8871895Y-9285739D01*
X8792021Y-9511800D01*
X8751500Y-9748121D01*
X8751500Y-11527827D01*
X6968500Y-11527827D01*
X6968500Y-10607199D01*
X6953810Y-10425236D01*
X6953810Y-10425232D01*
X6895523Y-10188752D01*
X6895522Y-10188751D01*
X6895522Y-10188748D01*
X6878583Y-10148991D01*
X6868500Y-10099603D01*
X6868500Y-9808173D01*
X6863389Y-9748121D01*
X6853259Y-9629102D01*
X6833734Y-9554117D01*
X6792846Y-9397082D01*
X6792844Y-9397079D01*
X6792844Y-9397076D01*
X6694086Y-9178598D01*
X6559825Y-8979953D01*
X6559821Y-8979949D01*
X6559819Y-8979946D01*
X6393927Y-8806858D01*
X6393926Y-8806857D01*
X6393925Y-8806856D01*
X6201157Y-8664285D01*
X6201156Y-8664284D01*
X6201154Y-8664283D01*
X6130997Y-8628911D01*
X5987067Y-8556343D01*
X5987060Y-8556340D01*
X5987056Y-8556339D01*
X5757815Y-8486136D01*
X5519995Y-8455682D01*
X5519991Y-8455682D01*
X5519983Y-8455681D01*
X5280448Y-8465856D01*
X5046065Y-8516370D01*
X4854751Y-8593247D01*
X4823596Y-8605767D01*
X4704098Y-8679345D01*
X4619425Y-8731480D01*
X4619423Y-8731482D01*
X4439453Y-8889876D01*
X4439445Y-8889885D01*
X4288827Y-9076419D01*
X4288823Y-9076426D01*
X4171895Y-9285738D01*
X4171895Y-9285739D01*
X4092021Y-9511800D01*
X4051500Y-9748121D01*
X4051500Y-10102828D01*
X4045016Y-10142728D01*
X3990568Y-10305819D01*
X3951501Y-10546211D01*
X3951500Y-10546225D01*
X3951500Y-30336789D01*
X3949352Y-30443375D01*
X3949352Y-30443376D01*
X500Y-30443376D01*
X500Y-2794000D01*
X3743455Y-2794000D01*
X3791176Y-2982449D01*
X3791179Y-2982456D01*
X3881580Y-3188548D01*
X4004674Y-3376958D01*
X4157097Y-3542534D01*
X4334698Y-3680767D01*
X4334699Y-3680768D01*
X4532628Y-3787882D01*
X4532630Y-3787883D01*
X4745483Y-3860955D01*
X4745492Y-3860957D01*
X4826000Y-3874391D01*
X4826000Y-2973674D01*
X4937685Y-3024680D01*
X5044237Y-3040000D01*
X5115763Y-3040000D01*
X5222315Y-3024680D01*
X5334000Y-2973674D01*
X5334000Y-3874390D01*
X5414507Y-3860957D01*
X5414516Y-3860955D01*
X5627369Y-3787883D01*
X5627371Y-3787882D01*
X5825300Y-3680768D01*
X5825301Y-3680767D01*
X6002902Y-3542534D01*
X6155327Y-3376955D01*
X6244217Y-3240899D01*
X6298220Y-3194810D01*
X6368568Y-3185235D01*
X6432925Y-3215212D01*
X6455183Y-3240898D01*
X6544279Y-3377270D01*
X6696762Y-3542908D01*
X6751331Y-3585381D01*
X6874424Y-3681189D01*
X7072426Y-3788342D01*
X7072427Y-3788342D01*
X7072428Y-3788343D01*
X7184227Y-3826723D01*
X7285365Y-3861444D01*
X7507431Y-3898500D01*
X7507435Y-3898500D01*
X7732565Y-3898500D01*
X7732569Y-3898500D01*
X7954635Y-3861444D01*
X8167574Y-3788342D01*
X8365576Y-3681189D01*
X8543240Y-3542906D01*
X8695722Y-3377268D01*
X8695927Y-3376955D01*
X8738038Y-3312498D01*
X8784518Y-3241354D01*
X8838520Y-3195268D01*
X8908868Y-3185692D01*
X8973225Y-3215669D01*
X8995480Y-3241353D01*
X9021177Y-3280684D01*
X9084275Y-3377265D01*
X9084279Y-3377270D01*
X9236762Y-3542908D01*
X9291331Y-3585381D01*
X9414424Y-3681189D01*
X9612426Y-3788342D01*
X9612427Y-3788342D01*
X9612428Y-3788343D01*
X9724227Y-3826723D01*
X9825365Y-3861444D01*
X10047431Y-3898500D01*
X10047435Y-3898500D01*
X10272565Y-3898500D01*
X10272569Y-3898500D01*
X10494635Y-3861444D01*
X10707574Y-3788342D01*
X10905576Y-3681189D01*
X11083240Y-3542906D01*
X11235722Y-3377268D01*
X11235927Y-3376955D01*
X11278038Y-3312498D01*
X11324518Y-3241354D01*
X11378520Y-3195268D01*
X11448868Y-3185692D01*
X11513225Y-3215669D01*
X11535480Y-3241353D01*
X11561177Y-3280684D01*
X11624275Y-3377265D01*
X11624279Y-3377270D01*
X11776762Y-3542908D01*
X11831331Y-3585381D01*
X11954424Y-3681189D01*
X12152426Y-3788342D01*
X12152427Y-3788342D01*
X12152428Y-3788343D01*
X12264227Y-3826723D01*
X12365365Y-3861444D01*
X12587431Y-3898500D01*
X12587435Y-3898500D01*
X12812565Y-3898500D01*
X12812569Y-3898500D01*
X13034635Y-3861444D01*
X13247574Y-3788342D01*
X13445576Y-3681189D01*
X13623240Y-3542906D01*
X13684245Y-3476637D01*
X13745096Y-3440067D01*
X13816061Y-3442200D01*
X13874606Y-3482362D01*
X13895000Y-3517941D01*
X13939111Y-3636204D01*
X13939112Y-3636207D01*
X14026738Y-3753261D01*
X14143792Y-3840887D01*
X14143794Y-3840888D01*
X14143796Y-3840889D01*
X14197600Y-3860957D01*
X14280795Y-3891988D01*
X14280803Y-3891990D01*
X14341350Y-3898499D01*
X14341355Y-3898499D01*
X14341362Y-3898500D01*
X14341368Y-3898500D01*
X16138632Y-3898500D01*
X16138638Y-3898500D01*
X16138645Y-3898499D01*
X16138649Y-3898499D01*
X16199196Y-3891990D01*
X16199199Y-3891989D01*
X16199201Y-3891989D01*
X16336204Y-3840889D01*
X16406399Y-3788342D01*
X16453261Y-3753261D01*
X16540887Y-3636207D01*
X16540887Y-3636206D01*
X16540889Y-3636204D01*
X16591989Y-3499201D01*
X16593800Y-3482362D01*
X16598499Y-3438649D01*
X16598500Y-3438632D01*
X16598500Y-1641367D01*
X16598499Y-1641350D01*
X16591990Y-1580803D01*
X16591988Y-1580795D01*
X16559752Y-1494368D01*
X16540889Y-1443796D01*
X16540888Y-1443794D01*
X16540887Y-1443792D01*
X16453261Y-1326738D01*
X16336207Y-1239112D01*
X16336202Y-1239110D01*
X16199204Y-1188011D01*
X16199196Y-1188009D01*
X16138649Y-1181500D01*
X16138638Y-1181500D01*
X14341362Y-1181500D01*
X14341350Y-1181500D01*
X14280803Y-1188009D01*
X14280795Y-1188011D01*
X14143797Y-1239110D01*
X14143792Y-1239112D01*
X14026738Y-1326738D01*
X13939112Y-1443792D01*
X13939111Y-1443795D01*
X13895000Y-1562058D01*
X13852453Y-1618893D01*
X13785932Y-1643703D01*
X13716558Y-1628611D01*
X13684246Y-1603363D01*
X13623240Y-1537094D01*
X13623239Y-1537093D01*
X13623237Y-1537091D01*
X13536580Y-1469643D01*
X13445576Y-1398811D01*
X13247574Y-1291658D01*
X13247572Y-1291657D01*
X13247571Y-1291656D01*
X13034639Y-1218557D01*
X13034630Y-1218555D01*
X12957029Y-1205606D01*
X12812569Y-1181500D01*
X12587431Y-1181500D01*
X12442971Y-1205606D01*
X12365369Y-1218555D01*
X12365360Y-1218557D01*
X12152428Y-1291656D01*
X12152426Y-1291658D01*
X11993804Y-1377500D01*
X11954426Y-1398810D01*
X11954424Y-1398811D01*
X11776762Y-1537091D01*
X11624279Y-1702729D01*
X11535483Y-1838643D01*
X11481479Y-1884731D01*
X11411131Y-1894306D01*
X11346774Y-1864329D01*
X11324517Y-1838643D01*
X11265982Y-1749048D01*
X11235722Y-1702732D01*
X11235721Y-1702731D01*
X11235720Y-1702729D01*
X11097990Y-1553117D01*
X11083240Y-1537094D01*
X11083239Y-1537093D01*
X11083237Y-1537091D01*
X10996580Y-1469643D01*
X10905576Y-1398811D01*
X10707574Y-1291658D01*
X10707572Y-1291657D01*
X10707571Y-1291656D01*
X10494639Y-1218557D01*
X10494630Y-1218555D01*
X10417029Y-1205606D01*
X10272569Y-1181500D01*
X10047431Y-1181500D01*
X9902971Y-1205606D01*
X9825369Y-1218555D01*
X9825360Y-1218557D01*
X9612428Y-1291656D01*
X9612426Y-1291658D01*
X9453804Y-1377500D01*
X9414426Y-1398810D01*
X9414424Y-1398811D01*
X9236762Y-1537091D01*
X9084279Y-1702729D01*
X8995483Y-1838643D01*
X8941479Y-1884731D01*
X8871131Y-1894306D01*
X8806774Y-1864329D01*
X8784517Y-1838643D01*
X8725982Y-1749048D01*
X8695722Y-1702732D01*
X8695721Y-1702731D01*
X8695720Y-1702729D01*
X8557990Y-1553117D01*
X8543240Y-1537094D01*
X8543239Y-1537093D01*
X8543237Y-1537091D01*
X8456580Y-1469643D01*
X8365576Y-1398811D01*
X8167574Y-1291658D01*
X8167572Y-1291657D01*
X8167571Y-1291656D01*
X7954639Y-1218557D01*
X7954630Y-1218555D01*
X7877029Y-1205606D01*
X7732569Y-1181500D01*
X7507431Y-1181500D01*
X7362971Y-1205606D01*
X7285369Y-1218555D01*
X7285360Y-1218557D01*
X7072428Y-1291656D01*
X7072426Y-1291658D01*
X6913804Y-1377500D01*
X6874426Y-1398810D01*
X6874424Y-1398811D01*
X6696762Y-1537091D01*
X6544279Y-1702729D01*
X6455183Y-1839101D01*
X6401179Y-1885189D01*
X6330831Y-1894764D01*
X6266474Y-1864786D01*
X6244217Y-1839100D01*
X6155327Y-1703044D01*
X6002902Y-1537465D01*
X5825301Y-1399232D01*
X5825300Y-1399231D01*
X5627371Y-1292117D01*
X5627369Y-1292116D01*
X5414512Y-1219043D01*
X5414501Y-1219040D01*
X5334000Y-1205606D01*
X5334000Y-2106325D01*
X5222315Y-2055320D01*
X5115763Y-2040000D01*
X5044237Y-2040000D01*
X4937685Y-2055320D01*
X4826000Y-2106325D01*
X4826000Y-1205607D01*
X4825999Y-1205606D01*
X4745498Y-1219040D01*
X4745487Y-1219043D01*
X4532630Y-1292116D01*
X4532628Y-1292117D01*
X4334699Y-1399231D01*
X4334698Y-1399232D01*
X4157097Y-1537465D01*
X4004674Y-1703041D01*
X3881580Y-1891451D01*
X3791179Y-2097543D01*
X3791176Y-2097550D01*
X3743455Y-2285999D01*
X3743456Y-2286000D01*
X4648884Y-2286000D01*
X4620507Y-2330156D01*
X4580000Y-2468111D01*
X4580000Y-2611889D01*
X4620507Y-2749844D01*
X4648884Y-2794000D01*
X3743455Y-2794000D01*
X500Y-2794000D01*
X500Y4826000D01*
X3743455Y4826000D01*
X3791176Y4637551D01*
X3791179Y4637544D01*
X3881580Y4431452D01*
X4004674Y4243042D01*
X4157097Y4077466D01*
X4334698Y3939233D01*
X4334699Y3939232D01*
X4532628Y3832118D01*
X4532630Y3832117D01*
X4745483Y3759045D01*
X4745492Y3759043D01*
X4826000Y3745609D01*
X4826000Y4646326D01*
X4937685Y4595320D01*
X5044237Y4580000D01*
X5115763Y4580000D01*
X5222315Y4595320D01*
X5334000Y4646326D01*
X5334000Y3745610D01*
X5414507Y3759043D01*
X5414516Y3759045D01*
X5627369Y3832117D01*
X5627371Y3832118D01*
X5825300Y3939232D01*
X5825301Y3939233D01*
X6002902Y4077466D01*
X6155327Y4243045D01*
X6244217Y4379101D01*
X6298220Y4425190D01*
X6368568Y4434765D01*
X6432925Y4404788D01*
X6455183Y4379102D01*
X6544279Y4242730D01*
X6696762Y4077092D01*
X6751331Y4034619D01*
X6874424Y3938811D01*
X7072426Y3831658D01*
X7072427Y3831658D01*
X7072428Y3831657D01*
X7163023Y3800556D01*
X7285365Y3758556D01*
X7507431Y3721500D01*
X7507435Y3721500D01*
X7732565Y3721500D01*
X7732569Y3721500D01*
X7954635Y3758556D01*
X8167574Y3831658D01*
X8365576Y3938811D01*
X8543240Y4077094D01*
X8695722Y4242732D01*
X8695927Y4243045D01*
X8757637Y4337500D01*
X8784518Y4378646D01*
X8838520Y4424732D01*
X8908868Y4434308D01*
X8973225Y4404331D01*
X8995480Y4378647D01*
X9022363Y4337500D01*
X9084275Y4242735D01*
X9084279Y4242730D01*
X9236762Y4077092D01*
X9291331Y4034619D01*
X9414424Y3938811D01*
X9612426Y3831658D01*
X9612427Y3831658D01*
X9612428Y3831657D01*
X9703023Y3800556D01*
X9825365Y3758556D01*
X10047431Y3721500D01*
X10047435Y3721500D01*
X10272565Y3721500D01*
X10272569Y3721500D01*
X10494635Y3758556D01*
X10707574Y3831658D01*
X10905576Y3938811D01*
X11083240Y4077094D01*
X11235722Y4242732D01*
X11235927Y4243045D01*
X11297637Y4337500D01*
X11324518Y4378646D01*
X11378520Y4424732D01*
X11448868Y4434308D01*
X11513225Y4404331D01*
X11535480Y4378647D01*
X11562363Y4337500D01*
X11624275Y4242735D01*
X11624279Y4242730D01*
X11776762Y4077092D01*
X11831331Y4034619D01*
X11954424Y3938811D01*
X12152426Y3831658D01*
X12152427Y3831658D01*
X12152428Y3831657D01*
X12243023Y3800556D01*
X12365365Y3758556D01*
X12587431Y3721500D01*
X12587435Y3721500D01*
X12812565Y3721500D01*
X12812569Y3721500D01*
X13034635Y3758556D01*
X13247574Y3831658D01*
X13445576Y3938811D01*
X13623240Y4077094D01*
X13684245Y4143363D01*
X13745096Y4179933D01*
X13816061Y4177800D01*
X13874606Y4137638D01*
X13895000Y4102059D01*
X13939111Y3983796D01*
X13939112Y3983793D01*
X14026738Y3866739D01*
X14143792Y3779113D01*
X14143794Y3779112D01*
X14143796Y3779111D01*
X14197600Y3759043D01*
X14280795Y3728012D01*
X14280803Y3728010D01*
X14341350Y3721501D01*
X14341355Y3721501D01*
X14341362Y3721500D01*
X14341368Y3721500D01*
X16138632Y3721500D01*
X16138638Y3721500D01*
X16138645Y3721501D01*
X16138649Y3721501D01*
X16199196Y3728010D01*
X16199199Y3728011D01*
X16199201Y3728011D01*
X16336204Y3779111D01*
X16406399Y3831658D01*
X16453261Y3866739D01*
X16540887Y3983793D01*
X16540887Y3983794D01*
X16540889Y3983796D01*
X16591989Y4120799D01*
X16593800Y4137638D01*
X16598499Y4181351D01*
X16598500Y4181368D01*
X16598500Y5978633D01*
X16598499Y5978650D01*
X16591990Y6039197D01*
X16591988Y6039205D01*
X16540889Y6176203D01*
X16540887Y6176208D01*
X16453261Y6293262D01*
X16336207Y6380888D01*
X16336202Y6380890D01*
X16199204Y6431989D01*
X16199196Y6431991D01*
X16138649Y6438500D01*
X16138638Y6438500D01*
X14341362Y6438500D01*
X14341350Y6438500D01*
X14280803Y6431991D01*
X14280795Y6431989D01*
X14143797Y6380890D01*
X14143792Y6380888D01*
X14026738Y6293262D01*
X13939112Y6176208D01*
X13939111Y6176205D01*
X13895000Y6057942D01*
X13852453Y6001107D01*
X13785932Y5976297D01*
X13716558Y5991389D01*
X13684246Y6016637D01*
X13623240Y6082906D01*
X13623239Y6082907D01*
X13623237Y6082909D01*
X13503372Y6176204D01*
X13445576Y6221189D01*
X13247574Y6328342D01*
X13247572Y6328343D01*
X13247571Y6328344D01*
X13034639Y6401443D01*
X13034630Y6401445D01*
X12957029Y6414394D01*
X12812569Y6438500D01*
X12587431Y6438500D01*
X12442971Y6414394D01*
X12365369Y6401445D01*
X12365360Y6401443D01*
X12152428Y6328344D01*
X12152426Y6328342D01*
X11954426Y6221190D01*
X11954424Y6221189D01*
X11776762Y6082909D01*
X11624279Y5917271D01*
X11535483Y5781357D01*
X11481479Y5735269D01*
X11411131Y5725694D01*
X11346774Y5755671D01*
X11324517Y5781357D01*
X11283417Y5844265D01*
X11235722Y5917268D01*
X11235721Y5917269D01*
X11235720Y5917271D01*
X11106221Y6057942D01*
X11083240Y6082906D01*
X11083239Y6082907D01*
X11083237Y6082909D01*
X10963372Y6176204D01*
X10905576Y6221189D01*
X10707574Y6328342D01*
X10707572Y6328343D01*
X10707571Y6328344D01*
X10494639Y6401443D01*
X10494630Y6401445D01*
X10417029Y6414394D01*
X10272569Y6438500D01*
X10047431Y6438500D01*
X9902971Y6414394D01*
X9825369Y6401445D01*
X9825360Y6401443D01*
X9612428Y6328344D01*
X9612426Y6328342D01*
X9414426Y6221190D01*
X9414424Y6221189D01*
X9236762Y6082909D01*
X9084279Y5917271D01*
X8995483Y5781357D01*
X8941479Y5735269D01*
X8871131Y5725694D01*
X8806774Y5755671D01*
X8784517Y5781357D01*
X8743417Y5844265D01*
X8695722Y5917268D01*
X8695721Y5917269D01*
X8695720Y5917271D01*
X8566221Y6057942D01*
X8543240Y6082906D01*
X8543239Y6082907D01*
X8543237Y6082909D01*
X8423372Y6176204D01*
X8365576Y6221189D01*
X8167574Y6328342D01*
X8167572Y6328343D01*
X8167571Y6328344D01*
X7954639Y6401443D01*
X7954630Y6401445D01*
X7877029Y6414394D01*
X7732569Y6438500D01*
X7507431Y6438500D01*
X7362971Y6414394D01*
X7285369Y6401445D01*
X7285360Y6401443D01*
X7072428Y6328344D01*
X7072426Y6328342D01*
X6874426Y6221190D01*
X6874424Y6221189D01*
X6696762Y6082909D01*
X6544279Y5917271D01*
X6455183Y5780899D01*
X6401179Y5734811D01*
X6330831Y5725236D01*
X6266474Y5755214D01*
X6244217Y5780900D01*
X6155327Y5916956D01*
X6002902Y6082535D01*
X5825301Y6220768D01*
X5825300Y6220769D01*
X5627371Y6327883D01*
X5627369Y6327884D01*
X5414512Y6400957D01*
X5414501Y6400960D01*
X5334000Y6414394D01*
X5334000Y5513675D01*
X5222315Y5564680D01*
X5115763Y5580000D01*
X5044237Y5580000D01*
X4937685Y5564680D01*
X4826000Y5513675D01*
X4826000Y6414393D01*
X4825999Y6414394D01*
X4745498Y6400960D01*
X4745487Y6400957D01*
X4532630Y6327884D01*
X4532628Y6327883D01*
X4334699Y6220769D01*
X4334698Y6220768D01*
X4157097Y6082535D01*
X4004674Y5916959D01*
X3881580Y5728549D01*
X3791179Y5522457D01*
X3791176Y5522450D01*
X3743455Y5334001D01*
X3743456Y5334000D01*
X4648884Y5334000D01*
X4620507Y5289844D01*
X4580000Y5151889D01*
X4580000Y5008111D01*
X4620507Y4870156D01*
X4648884Y4826000D01*
X3743455Y4826000D01*
X500Y4826000D01*
X500Y12446000D01*
X3743455Y12446000D01*
X3791176Y12257551D01*
X3791179Y12257544D01*
X3881580Y12051452D01*
X4004674Y11863042D01*
X4157097Y11697466D01*
X4334698Y11559233D01*
X4334699Y11559232D01*
X4532628Y11452118D01*
X4532630Y11452117D01*
X4745483Y11379045D01*
X4745492Y11379043D01*
X4826000Y11365609D01*
X4826000Y12266326D01*
X4937685Y12215320D01*
X5044237Y12200000D01*
X5115763Y12200000D01*
X5222315Y12215320D01*
X5334000Y12266326D01*
X5334000Y11365610D01*
X5414507Y11379043D01*
X5414516Y11379045D01*
X5627369Y11452117D01*
X5627371Y11452118D01*
X5825300Y11559232D01*
X5825301Y11559233D01*
X6002902Y11697466D01*
X6155327Y11863045D01*
X6244217Y11999101D01*
X6298220Y12045190D01*
X6368568Y12054765D01*
X6432925Y12024788D01*
X6455183Y11999102D01*
X6544279Y11862730D01*
X6696762Y11697092D01*
X6751331Y11654619D01*
X6874424Y11558811D01*
X7072426Y11451658D01*
X7072427Y11451658D01*
X7072428Y11451657D01*
X7184227Y11413277D01*
X7285365Y11378556D01*
X7507431Y11341500D01*
X7507435Y11341500D01*
X7732565Y11341500D01*
X7732569Y11341500D01*
X7954635Y11378556D01*
X8167574Y11451658D01*
X8365576Y11558811D01*
X8543240Y11697094D01*
X8695722Y11862732D01*
X8695927Y11863045D01*
X8725874Y11908883D01*
X8784518Y11998646D01*
X8838520Y12044732D01*
X8908868Y12054308D01*
X8973225Y12024331D01*
X8995480Y11998647D01*
X9028607Y11947942D01*
X9084275Y11862735D01*
X9084279Y11862730D01*
X9236762Y11697092D01*
X9291331Y11654619D01*
X9414424Y11558811D01*
X9612426Y11451658D01*
X9612427Y11451658D01*
X9612428Y11451657D01*
X9724227Y11413277D01*
X9825365Y11378556D01*
X10047431Y11341500D01*
X10047435Y11341500D01*
X10272565Y11341500D01*
X10272569Y11341500D01*
X10494635Y11378556D01*
X10707574Y11451658D01*
X10905576Y11558811D01*
X11083240Y11697094D01*
X11235722Y11862732D01*
X11235927Y11863045D01*
X11265874Y11908883D01*
X11324518Y11998646D01*
X11378520Y12044732D01*
X11448868Y12054308D01*
X11513225Y12024331D01*
X11535480Y11998647D01*
X11568607Y11947942D01*
X11624275Y11862735D01*
X11624279Y11862730D01*
X11776762Y11697092D01*
X11831331Y11654619D01*
X11954424Y11558811D01*
X12152426Y11451658D01*
X12152427Y11451658D01*
X12152428Y11451657D01*
X12264227Y11413277D01*
X12365365Y11378556D01*
X12587431Y11341500D01*
X12587435Y11341500D01*
X12812565Y11341500D01*
X12812569Y11341500D01*
X13034635Y11378556D01*
X13247574Y11451658D01*
X13445576Y11558811D01*
X13623240Y11697094D01*
X13684245Y11763363D01*
X13745096Y11799933D01*
X13816061Y11797800D01*
X13874606Y11757638D01*
X13895000Y11722059D01*
X13939111Y11603796D01*
X13939112Y11603793D01*
X14026738Y11486739D01*
X14143792Y11399113D01*
X14143794Y11399112D01*
X14143796Y11399111D01*
X14197600Y11379043D01*
X14280795Y11348012D01*
X14280803Y11348010D01*
X14341350Y11341501D01*
X14341355Y11341501D01*
X14341362Y11341500D01*
X14341368Y11341500D01*
X16138632Y11341500D01*
X16138638Y11341500D01*
X16138645Y11341501D01*
X16138649Y11341501D01*
X16199196Y11348010D01*
X16199199Y11348011D01*
X16199201Y11348011D01*
X16336204Y11399111D01*
X16406399Y11451658D01*
X16453261Y11486739D01*
X16540887Y11603793D01*
X16540887Y11603794D01*
X16540889Y11603796D01*
X16591989Y11740799D01*
X16593800Y11757638D01*
X16598499Y11801351D01*
X16598500Y11801368D01*
X16598500Y13598633D01*
X16598499Y13598650D01*
X16591990Y13659197D01*
X16591988Y13659205D01*
X16540889Y13796203D01*
X16540887Y13796208D01*
X16453261Y13913262D01*
X16336207Y14000888D01*
X16336202Y14000890D01*
X16199204Y14051989D01*
X16199196Y14051991D01*
X16138649Y14058500D01*
X16138638Y14058500D01*
X14341362Y14058500D01*
X14341350Y14058500D01*
X14280803Y14051991D01*
X14280795Y14051989D01*
X14143797Y14000890D01*
X14143792Y14000888D01*
X14026738Y13913262D01*
X13939112Y13796208D01*
X13939111Y13796205D01*
X13895000Y13677942D01*
X13852453Y13621107D01*
X13785932Y13596297D01*
X13716558Y13611389D01*
X13684246Y13636637D01*
X13623240Y13702906D01*
X13623239Y13702907D01*
X13623237Y13702909D01*
X13503372Y13796204D01*
X13445576Y13841189D01*
X13247574Y13948342D01*
X13247572Y13948343D01*
X13247571Y13948344D01*
X13034639Y14021443D01*
X13034630Y14021445D01*
X12957029Y14034394D01*
X12812569Y14058500D01*
X12587431Y14058500D01*
X12442971Y14034394D01*
X12365369Y14021445D01*
X12365360Y14021443D01*
X12152428Y13948344D01*
X12152426Y13948342D01*
X11954426Y13841190D01*
X11954424Y13841189D01*
X11776762Y13702909D01*
X11624279Y13537271D01*
X11535483Y13401357D01*
X11481479Y13355269D01*
X11411131Y13345694D01*
X11346774Y13375671D01*
X11324517Y13401357D01*
X11235720Y13537271D01*
X11106221Y13677942D01*
X11083240Y13702906D01*
X11083239Y13702907D01*
X11083237Y13702909D01*
X10963372Y13796204D01*
X10905576Y13841189D01*
X10707574Y13948342D01*
X10707572Y13948343D01*
X10707571Y13948344D01*
X10494639Y14021443D01*
X10494630Y14021445D01*
X10417029Y14034394D01*
X10272569Y14058500D01*
X10047431Y14058500D01*
X9902971Y14034394D01*
X9825369Y14021445D01*
X9825360Y14021443D01*
X9612428Y13948344D01*
X9612426Y13948342D01*
X9414426Y13841190D01*
X9414424Y13841189D01*
X9236762Y13702909D01*
X9084279Y13537271D01*
X8995483Y13401357D01*
X8941479Y13355269D01*
X8871131Y13345694D01*
X8806774Y13375671D01*
X8784517Y13401357D01*
X8695720Y13537271D01*
X8566221Y13677942D01*
X8543240Y13702906D01*
X8543239Y13702907D01*
X8543237Y13702909D01*
X8423372Y13796204D01*
X8365576Y13841189D01*
X8167574Y13948342D01*
X8167572Y13948343D01*
X8167571Y13948344D01*
X7954639Y14021443D01*
X7954630Y14021445D01*
X7877029Y14034394D01*
X7732569Y14058500D01*
X7507431Y14058500D01*
X7362971Y14034394D01*
X7285369Y14021445D01*
X7285360Y14021443D01*
X7072428Y13948344D01*
X7072426Y13948342D01*
X6874426Y13841190D01*
X6874424Y13841189D01*
X6696762Y13702909D01*
X6544279Y13537271D01*
X6455183Y13400899D01*
X6401179Y13354811D01*
X6330831Y13345236D01*
X6266474Y13375214D01*
X6244217Y13400900D01*
X6155327Y13536956D01*
X6002902Y13702535D01*
X5825301Y13840768D01*
X5825300Y13840769D01*
X5627371Y13947883D01*
X5627369Y13947884D01*
X5414512Y14020957D01*
X5414501Y14020960D01*
X5334000Y14034394D01*
X5334000Y13133675D01*
X5222315Y13184680D01*
X5115763Y13200000D01*
X5044237Y13200000D01*
X4937685Y13184680D01*
X4826000Y13133675D01*
X4826000Y14034393D01*
X4825999Y14034394D01*
X4745498Y14020960D01*
X4745487Y14020957D01*
X4532630Y13947884D01*
X4532628Y13947883D01*
X4334699Y13840769D01*
X4334698Y13840768D01*
X4157097Y13702535D01*
X4004674Y13536959D01*
X3881580Y13348549D01*
X3791179Y13142457D01*
X3791176Y13142450D01*
X3743455Y12954001D01*
X3743456Y12954000D01*
X4648884Y12954000D01*
X4620507Y12909844D01*
X4580000Y12771889D01*
X4580000Y12628111D01*
X4620507Y12490156D01*
X4648884Y12446000D01*
X3743455Y12446000D01*
X500Y12446000D01*
X500Y21590000D01*
X9754496Y21590000D01*
X9774457Y21400073D01*
X9792381Y21344910D01*
X9833473Y21218444D01*
X9858505Y21175088D01*
X9928958Y21053059D01*
X9928965Y21053049D01*
X10056744Y20911136D01*
X10074550Y20898199D01*
X10211248Y20798882D01*
X10385712Y20721206D01*
X10572513Y20681500D01*
X10763487Y20681500D01*
X10950288Y20721206D01*
X11124752Y20798882D01*
X11279253Y20911134D01*
X11279255Y20911136D01*
X11407034Y21053049D01*
X11407035Y21053051D01*
X11407040Y21053056D01*
X11502527Y21218444D01*
X11561542Y21400072D01*
X11581504Y21590000D01*
X11561542Y21779928D01*
X11502527Y21961556D01*
X11407040Y22126944D01*
X11407038Y22126946D01*
X11407034Y22126952D01*
X11279255Y22268865D01*
X11124752Y22381118D01*
X10950288Y22458794D01*
X10763487Y22498500D01*
X10572513Y22498500D01*
X10385711Y22458794D01*
X10211247Y22381118D01*
X10056744Y22268865D01*
X9928965Y22126952D01*
X9928958Y22126942D01*
X9833476Y21961562D01*
X9833473Y21961555D01*
X9774457Y21779928D01*
X9754496Y21590000D01*
X500Y21590000D01*
X500Y23114000D01*
X17882496Y23114000D01*
X17902457Y22924073D01*
X17932526Y22831530D01*
X17961473Y22742444D01*
X17961476Y22742439D01*
X18056958Y22577059D01*
X18056965Y22577049D01*
X18184744Y22435136D01*
X18184747Y22435134D01*
X18339248Y22322882D01*
X18513712Y22245206D01*
X18700513Y22205500D01*
X18891487Y22205500D01*
X19078288Y22245206D01*
X19252752Y22322882D01*
X19407253Y22435134D01*
X19431632Y22462211D01*
X19492078Y22499450D01*
X19525269Y22503900D01*
X34493099Y22503900D01*
X34561220Y22483898D01*
X34582194Y22466995D01*
X36436995Y20612194D01*
X36471021Y20549882D01*
X36473900Y20523099D01*
X36473900Y16083262D01*
X36472192Y16067792D01*
X36472527Y16067760D01*
X36471781Y16059870D01*
X36473900Y15992433D01*
X36473900Y15963622D01*
X36473901Y15963605D01*
X36474733Y15957016D01*
X36475198Y15951103D01*
X36476622Y15905798D01*
X36481962Y15887419D01*
X36485971Y15868064D01*
X36487980Y15852161D01*
X36488371Y15849067D01*
X36505059Y15806918D01*
X36506983Y15801300D01*
X36519626Y15757778D01*
X36519629Y15757771D01*
X36529371Y15741297D01*
X36538065Y15723552D01*
X36545116Y15705745D01*
X36571764Y15669067D01*
X36575025Y15664103D01*
X36598092Y15625097D01*
X36598097Y15625091D01*
X36611623Y15611565D01*
X36624461Y15596535D01*
X36635719Y15581041D01*
X36635723Y15581036D01*
X36670660Y15552134D01*
X36675041Y15548148D01*
X53428794Y-1205606D01*
X58994593Y-6771405D01*
X59028619Y-6833717D01*
X59023554Y-6904532D01*
X58981007Y-6961368D01*
X58914487Y-6986179D01*
X58905498Y-6986500D01*
X58480595Y-6986500D01*
X58412474Y-6966498D01*
X58391500Y-6949595D01*
X44703244Y6738661D01*
X44693279Y6751099D01*
X44693052Y6750910D01*
X44688001Y6757016D01*
X44688000Y6757018D01*
X44636921Y6804984D01*
X44615777Y6826129D01*
X44615772Y6826134D01*
X44610225Y6830437D01*
X44605717Y6834288D01*
X44571325Y6866583D01*
X44571319Y6866587D01*
X44553563Y6876349D01*
X44537047Y6887198D01*
X44521041Y6899614D01*
X44490289Y6912922D01*
X44477740Y6918352D01*
X44472408Y6920964D01*
X44431061Y6943695D01*
X44411436Y6948734D01*
X44392736Y6955136D01*
X44374145Y6963181D01*
X44374143Y6963182D01*
X44374142Y6963182D01*
X44327542Y6970563D01*
X44321729Y6971767D01*
X44276030Y6983500D01*
X44255776Y6983500D01*
X44236066Y6985051D01*
X44216057Y6988220D01*
X44216056Y6988220D01*
X44169083Y6983780D01*
X44163150Y6983500D01*
X25106500Y6983500D01*
X25038379Y7003502D01*
X24991886Y7057158D01*
X24980500Y7109500D01*
X24980500Y7248633D01*
X24980499Y7248650D01*
X24973990Y7309197D01*
X24973988Y7309205D01*
X24922889Y7446203D01*
X24922887Y7446208D01*
X24835261Y7563262D01*
X24718207Y7650888D01*
X24718202Y7650890D01*
X24581204Y7701989D01*
X24581196Y7701991D01*
X24520649Y7708500D01*
X24520638Y7708500D01*
X22723362Y7708500D01*
X22723350Y7708500D01*
X22662803Y7701991D01*
X22662795Y7701989D01*
X22525797Y7650890D01*
X22525792Y7650888D01*
X22408738Y7563262D01*
X22321112Y7446208D01*
X22321111Y7446205D01*
X22277000Y7327942D01*
X22234453Y7271107D01*
X22167932Y7246297D01*
X22098558Y7261389D01*
X22066246Y7286637D01*
X22005240Y7352906D01*
X22005239Y7352907D01*
X22005237Y7352909D01*
X21885372Y7446204D01*
X21827576Y7491189D01*
X21629574Y7598342D01*
X21629572Y7598343D01*
X21629571Y7598344D01*
X21416639Y7671443D01*
X21416630Y7671445D01*
X21372476Y7678813D01*
X21194569Y7708500D01*
X20969431Y7708500D01*
X20821211Y7683767D01*
X20747369Y7671445D01*
X20747360Y7671443D01*
X20534428Y7598344D01*
X20534426Y7598342D01*
X20336426Y7491190D01*
X20336424Y7491189D01*
X20158762Y7352909D01*
X20006279Y7187271D01*
X20006275Y7187266D01*
X19883141Y6998794D01*
X19792703Y6792614D01*
X19792702Y6792613D01*
X19737437Y6574376D01*
X19737436Y6574370D01*
X19737436Y6574368D01*
X19718844Y6350000D01*
X19733245Y6176203D01*
X19737437Y6125625D01*
X19792702Y5907388D01*
X19792703Y5907387D01*
X19792704Y5907384D01*
X19868200Y5735269D01*
X19883141Y5701207D01*
X20006275Y5512735D01*
X20006279Y5512730D01*
X20158762Y5347092D01*
X20175583Y5334000D01*
X20336424Y5208811D01*
X20369680Y5190814D01*
X20420071Y5140800D01*
X20435423Y5071484D01*
X20410862Y5004871D01*
X20369680Y4969187D01*
X20336426Y4951190D01*
X20336424Y4951189D01*
X20158762Y4812909D01*
X20006279Y4647271D01*
X20006275Y4647266D01*
X19883141Y4458794D01*
X19792703Y4252614D01*
X19792702Y4252613D01*
X19737437Y4034376D01*
X19737436Y4034370D01*
X19737436Y4034368D01*
X19718844Y3810000D01*
X19726177Y3721500D01*
X19737437Y3585625D01*
X19792702Y3367388D01*
X19792703Y3367387D01*
X19792704Y3367384D01*
X19876433Y3176500D01*
X19883141Y3161207D01*
X20006275Y2972735D01*
X20006279Y2972730D01*
X20158762Y2807092D01*
X20213331Y2764619D01*
X20336424Y2668811D01*
X20366664Y2652446D01*
X20369680Y2650814D01*
X20420071Y2600800D01*
X20435423Y2531484D01*
X20410862Y2464871D01*
X20369680Y2429187D01*
X20336426Y2411190D01*
X20336424Y2411189D01*
X20158762Y2272909D01*
X20006279Y2107271D01*
X20006275Y2107266D01*
X19883141Y1918794D01*
X19792703Y1712614D01*
X19792702Y1712613D01*
X19737437Y1494376D01*
X19737436Y1494370D01*
X19737436Y1494368D01*
X19718844Y1270000D01*
X19737437Y1045625D01*
X19792702Y827388D01*
X19792703Y827387D01*
X19883141Y621207D01*
X20006275Y432735D01*
X20006279Y432730D01*
X20158762Y267092D01*
X20213331Y224619D01*
X20336424Y128811D01*
X20369680Y110814D01*
X20420071Y60800D01*
X20435423Y-8516D01*
X20410862Y-75129D01*
X20369680Y-110813D01*
X20336426Y-128810D01*
X20336424Y-128811D01*
X20158762Y-267091D01*
X20006279Y-432729D01*
X20006275Y-432734D01*
X19883141Y-621206D01*
X19792703Y-827386D01*
X19792702Y-827387D01*
X19737437Y-1045624D01*
X19737436Y-1045630D01*
X19737436Y-1045632D01*
X19718844Y-1270000D01*
X19735488Y-1470864D01*
X19737437Y-1494375D01*
X19792702Y-1712612D01*
X19792703Y-1712613D01*
X19792704Y-1712616D01*
X19873277Y-1896305D01*
X19883141Y-1918793D01*
X20006275Y-2107265D01*
X20006279Y-2107270D01*
X20158762Y-2272908D01*
X20175583Y-2286000D01*
X20336424Y-2411189D01*
X20369680Y-2429186D01*
X20420071Y-2479200D01*
X20435423Y-2548516D01*
X20410862Y-2615129D01*
X20369680Y-2650813D01*
X20336426Y-2668810D01*
X20336424Y-2668811D01*
X20158762Y-2807091D01*
X20006279Y-2972729D01*
X20006275Y-2972734D01*
X19883141Y-3161206D01*
X19792703Y-3367386D01*
X19792702Y-3367387D01*
X19737437Y-3585624D01*
X19737436Y-3585630D01*
X19737436Y-3585632D01*
X19718844Y-3810000D01*
X19726177Y-3898500D01*
X19737437Y-4034375D01*
X19792702Y-4252612D01*
X19792703Y-4252613D01*
X19883141Y-4458793D01*
X20006275Y-4647265D01*
X20006279Y-4647270D01*
X20158762Y-4812908D01*
X20213331Y-4855381D01*
X20336424Y-4951189D01*
X20369680Y-4969186D01*
X20420071Y-5019200D01*
X20435423Y-5088516D01*
X20410862Y-5155129D01*
X20369680Y-5190813D01*
X20336426Y-5208810D01*
X20336424Y-5208811D01*
X20158762Y-5347091D01*
X20006279Y-5512729D01*
X20006275Y-5512734D01*
X19883141Y-5701206D01*
X19792703Y-5907386D01*
X19792702Y-5907387D01*
X19737437Y-6125624D01*
X19737436Y-6125630D01*
X19737436Y-6125632D01*
X19718844Y-6350000D01*
X19736232Y-6559844D01*
X19737437Y-6574375D01*
X19792702Y-6792612D01*
X19792703Y-6792613D01*
X19792704Y-6792616D01*
X19883140Y-6998791D01*
X19883141Y-6998793D01*
X20006275Y-7187265D01*
X20006279Y-7187270D01*
X20158762Y-7352908D01*
X20213331Y-7395381D01*
X20336424Y-7491189D01*
X20534426Y-7598342D01*
X20534427Y-7598342D01*
X20534428Y-7598343D01*
X20605597Y-7622775D01*
X20747365Y-7671444D01*
X20969431Y-7708500D01*
X20969435Y-7708500D01*
X21194565Y-7708500D01*
X21194569Y-7708500D01*
X21416635Y-7671444D01*
X21629574Y-7598342D01*
X21827576Y-7491189D01*
X22005240Y-7352906D01*
X22157722Y-7187268D01*
X22246816Y-7050898D01*
X22300819Y-7004810D01*
X22371167Y-6995235D01*
X22435524Y-7025212D01*
X22457782Y-7050898D01*
X22546674Y-7186958D01*
X22699097Y-7352534D01*
X22876698Y-7490767D01*
X22876699Y-7490768D01*
X23074628Y-7597882D01*
X23074630Y-7597883D01*
X23287483Y-7670955D01*
X23287492Y-7670957D01*
X23368000Y-7684391D01*
X23368000Y-6783674D01*
X23479685Y-6834680D01*
X23586237Y-6850000D01*
X23657763Y-6850000D01*
X23764315Y-6834680D01*
X23876000Y-6783674D01*
X23876000Y-7684390D01*
X23956507Y-7670957D01*
X23956516Y-7670955D01*
X24169369Y-7597883D01*
X24169371Y-7597882D01*
X24367300Y-7490768D01*
X24367301Y-7490767D01*
X24544902Y-7352534D01*
X24697325Y-7186958D01*
X24820419Y-6998548D01*
X24910820Y-6792456D01*
X24910823Y-6792449D01*
X24958544Y-6604000D01*
X24053116Y-6604000D01*
X24081493Y-6559844D01*
X24122000Y-6421889D01*
X24122000Y-6278111D01*
X24081493Y-6140156D01*
X24053116Y-6096000D01*
X24958544Y-6096000D01*
X24958544Y-6095999D01*
X24910823Y-5907550D01*
X24910820Y-5907543D01*
X24820419Y-5701451D01*
X24697325Y-5513041D01*
X24544902Y-5347465D01*
X24367301Y-5209232D01*
X24367300Y-5209231D01*
X24333791Y-5191097D01*
X24283401Y-5141083D01*
X24268050Y-5071766D01*
X24292612Y-5005153D01*
X24333790Y-4969472D01*
X24367576Y-4951189D01*
X24545240Y-4812906D01*
X24697722Y-4647268D01*
X24779907Y-4521473D01*
X24833909Y-4475387D01*
X24904257Y-4465811D01*
X24968614Y-4495788D01*
X24974484Y-4501295D01*
X26022995Y-5549806D01*
X26057021Y-5612118D01*
X26059900Y-5638901D01*
X26059900Y-10617097D01*
X26039898Y-10685218D01*
X26022995Y-10706192D01*
X21470054Y-15259132D01*
X21457911Y-15268861D01*
X21458125Y-15269120D01*
X21452017Y-15274172D01*
X21405828Y-15323358D01*
X21385453Y-15343734D01*
X21385452Y-15343734D01*
X21381374Y-15348992D01*
X21377523Y-15353500D01*
X21346499Y-15386537D01*
X21346495Y-15386542D01*
X21337277Y-15403311D01*
X21326424Y-15419833D01*
X21314686Y-15434965D01*
X21296681Y-15476572D01*
X21294070Y-15481902D01*
X21272235Y-15521620D01*
X21267473Y-15540165D01*
X21261074Y-15558855D01*
X21253468Y-15576434D01*
X21246377Y-15621200D01*
X21245173Y-15627014D01*
X21233900Y-15670924D01*
X21233900Y-15690063D01*
X21232349Y-15709773D01*
X21229354Y-15728683D01*
X21229354Y-15728684D01*
X21233620Y-15773816D01*
X21233900Y-15779749D01*
X21233900Y-22270738D01*
X21232192Y-22286208D01*
X21232527Y-22286240D01*
X21231781Y-22294130D01*
X21233900Y-22361567D01*
X21233900Y-22390378D01*
X21233901Y-22390395D01*
X21234733Y-22396984D01*
X21235198Y-22402897D01*
X21236622Y-22448202D01*
X21241962Y-22466581D01*
X21245971Y-22485936D01*
X21247980Y-22501839D01*
X21248371Y-22504933D01*
X21265059Y-22547082D01*
X21266983Y-22552700D01*
X21279626Y-22596222D01*
X21279629Y-22596229D01*
X21289371Y-22612703D01*
X21298065Y-22630448D01*
X21305116Y-22648255D01*
X21331764Y-22684933D01*
X21335025Y-22689897D01*
X21358092Y-22728903D01*
X21358097Y-22728909D01*
X21371623Y-22742435D01*
X21384461Y-22757465D01*
X21395719Y-22772959D01*
X21395723Y-22772964D01*
X21430660Y-22801866D01*
X21435041Y-22805852D01*
X21649306Y-23020117D01*
X21863130Y-23233941D01*
X21872864Y-23246090D01*
X21873123Y-23245877D01*
X21878174Y-23251983D01*
X21927375Y-23298186D01*
X21947726Y-23318537D01*
X21947732Y-23318544D01*
X21947735Y-23318546D01*
X21952979Y-23322613D01*
X21957494Y-23326469D01*
X21990542Y-23357504D01*
X21990544Y-23357505D01*
X22007318Y-23366727D01*
X22023845Y-23377583D01*
X22038966Y-23389312D01*
X22074349Y-23404624D01*
X22080559Y-23407311D01*
X22085884Y-23409919D01*
X22125622Y-23431765D01*
X22144165Y-23436525D01*
X22162875Y-23442932D01*
X22180432Y-23450531D01*
X22225200Y-23457621D01*
X22231011Y-23458823D01*
X22274926Y-23470100D01*
X22294064Y-23470100D01*
X22313775Y-23471651D01*
X22332684Y-23474646D01*
X22377817Y-23470380D01*
X22383750Y-23470100D01*
X58877099Y-23470100D01*
X58945220Y-23490102D01*
X58966194Y-23507005D01*
X75566595Y-40107406D01*
X75600621Y-40169718D01*
X75603500Y-40196501D01*
X75603500Y-41284649D01*
X75610009Y-41345196D01*
X75610011Y-41345204D01*
X75661110Y-41482202D01*
X75661112Y-41482207D01*
X75748738Y-41599261D01*
X75865792Y-41686887D01*
X75865794Y-41686888D01*
X75865796Y-41686889D01*
X75901366Y-41700156D01*
X76002795Y-41737988D01*
X76002803Y-41737990D01*
X76063350Y-41744499D01*
X76063355Y-41744499D01*
X76063362Y-41744500D01*
X76063368Y-41744500D01*
X77860632Y-41744500D01*
X77860638Y-41744500D01*
X77860645Y-41744499D01*
X77860649Y-41744499D01*
X77921196Y-41737990D01*
X77921199Y-41737989D01*
X77921201Y-41737989D01*
X78058204Y-41686889D01*
X78175261Y-41599261D01*
X78199664Y-41566661D01*
X78256500Y-41524115D01*
X78327315Y-41519049D01*
X78389628Y-41553074D01*
X78406016Y-41573255D01*
X78426275Y-41604265D01*
X78426279Y-41604270D01*
X78578762Y-41769908D01*
X78594298Y-41782000D01*
X78756424Y-41908189D01*
X78954426Y-42015342D01*
X78954427Y-42015342D01*
X78954428Y-42015343D01*
X78983444Y-42025304D01*
X79167365Y-42088444D01*
X79389431Y-42125500D01*
X79389435Y-42125500D01*
X79614565Y-42125500D01*
X79614569Y-42125500D01*
X79836635Y-42088444D01*
X80049574Y-42015342D01*
X80247576Y-41908189D01*
X80425240Y-41769906D01*
X80577722Y-41604268D01*
X80700860Y-41415791D01*
X80766241Y-41266735D01*
X80811920Y-41212389D01*
X80879732Y-41191365D01*
X80948146Y-41210341D01*
X80974328Y-41232013D01*
X81118762Y-41388908D01*
X81144195Y-41408703D01*
X81296424Y-41527189D01*
X81494426Y-41634342D01*
X81494427Y-41634342D01*
X81494428Y-41634343D01*
X81590680Y-41667386D01*
X81707365Y-41707444D01*
X81929431Y-41744500D01*
X81929435Y-41744500D01*
X82154565Y-41744500D01*
X82154569Y-41744500D01*
X82376635Y-41707444D01*
X82589574Y-41634342D01*
X82787576Y-41527189D01*
X82965240Y-41388906D01*
X83098451Y-41244202D01*
X83110041Y-41231612D01*
X83170895Y-41195041D01*
X83241859Y-41197176D01*
X83300404Y-41237338D01*
X83318129Y-41266336D01*
X83383580Y-41415548D01*
X83506674Y-41603958D01*
X83659097Y-41769534D01*
X83836698Y-41907767D01*
X83836699Y-41907768D01*
X84034628Y-42014882D01*
X84034630Y-42014883D01*
X84247483Y-42087955D01*
X84247492Y-42087957D01*
X84328000Y-42101391D01*
X84328000Y-41200674D01*
X84439685Y-41251680D01*
X84546237Y-41267000D01*
X84617763Y-41267000D01*
X84724315Y-41251680D01*
X84836000Y-41200674D01*
X84836000Y-42101390D01*
X84916507Y-42087957D01*
X84916516Y-42087955D01*
X85129369Y-42014883D01*
X85129371Y-42014882D01*
X85327300Y-41907768D01*
X85327301Y-41907767D01*
X85504902Y-41769534D01*
X85657325Y-41603958D01*
X85780417Y-41415551D01*
X85845869Y-41266337D01*
X85891550Y-41211988D01*
X85959363Y-41190964D01*
X86027777Y-41209940D01*
X86053957Y-41231612D01*
X86159118Y-41345844D01*
X86198760Y-41388906D01*
X86376424Y-41527189D01*
X86574426Y-41634342D01*
X86574427Y-41634342D01*
X86574428Y-41634343D01*
X86670680Y-41667386D01*
X86787365Y-41707444D01*
X87009431Y-41744500D01*
X87009435Y-41744500D01*
X87234565Y-41744500D01*
X87234569Y-41744500D01*
X87456635Y-41707444D01*
X87669574Y-41634342D01*
X87867576Y-41527189D01*
X88045240Y-41388906D01*
X88197722Y-41223268D01*
X88320860Y-41034791D01*
X88411296Y-40828616D01*
X88466564Y-40610368D01*
X88485156Y-40386000D01*
X88466564Y-40161632D01*
X88425634Y-40000003D01*
X89686641Y-40000003D01*
X89706064Y-40358237D01*
X89764103Y-40712269D01*
X89860084Y-41057959D01*
X89991946Y-41388908D01*
X89992877Y-41391243D01*
X90078882Y-41553465D01*
X90160922Y-41708210D01*
X90160924Y-41708214D01*
X90292546Y-41902342D01*
X90362258Y-42005159D01*
X90562411Y-42240798D01*
X90594516Y-42278595D01*
X90854962Y-42525304D01*
X90854977Y-42525317D01*
X91140586Y-42742431D01*
X91447995Y-42927393D01*
X91773599Y-43078033D01*
X92113583Y-43192587D01*
X92463958Y-43269711D01*
X92820618Y-43308500D01*
X92820626Y-43308500D01*
X93179374Y-43308500D01*
X93179382Y-43308500D01*
X93536042Y-43269711D01*
X93886417Y-43192587D01*
X94226401Y-43078033D01*
X94552005Y-42927393D01*
X94859414Y-42742431D01*
X95145023Y-42525317D01*
X95198418Y-42474739D01*
X95248404Y-42427389D01*
X95405484Y-42278595D01*
X95637742Y-42005159D01*
X95839075Y-41708215D01*
X96007123Y-41391243D01*
X96139915Y-41057961D01*
X96235895Y-40712274D01*
X96238384Y-40697095D01*
X96252600Y-40610375D01*
X96293936Y-40358237D01*
X96313359Y-40000000D01*
X96310366Y-39944806D01*
X96307948Y-39900195D01*
X96293936Y-39641763D01*
X96236235Y-39289797D01*
X96235896Y-39287730D01*
X96203969Y-39172739D01*
X96139915Y-38942039D01*
X96007123Y-38608757D01*
X95839075Y-38291785D01*
X95637742Y-37994841D01*
X95405484Y-37721405D01*
X95405483Y-37721404D01*
X95145037Y-37474695D01*
X95145022Y-37474682D01*
X94859418Y-37257572D01*
X94859412Y-37257568D01*
X94552010Y-37072610D01*
X94552009Y-37072609D01*
X94552005Y-37072607D01*
X94226401Y-36921967D01*
X93907792Y-36814615D01*
X93886426Y-36807416D01*
X93886425Y-36807415D01*
X93886417Y-36807413D01*
X93798551Y-36788072D01*
X93536054Y-36730291D01*
X93536030Y-36730287D01*
X93179389Y-36691500D01*
X93179382Y-36691500D01*
X92820618Y-36691500D01*
X92820610Y-36691500D01*
X92463969Y-36730287D01*
X92463945Y-36730291D01*
X92113587Y-36807412D01*
X92113573Y-36807416D01*
X91773601Y-36921966D01*
X91447989Y-37072610D01*
X91140587Y-37257568D01*
X91140581Y-37257572D01*
X90854977Y-37474682D01*
X90854962Y-37474695D01*
X90594516Y-37721404D01*
X90362256Y-37994843D01*
X90160924Y-38291785D01*
X90160922Y-38291789D01*
X89992876Y-38608759D01*
X89992872Y-38608768D01*
X89860084Y-38942040D01*
X89764103Y-39287730D01*
X89706064Y-39641762D01*
X89686641Y-39999996D01*
X89686641Y-40000003D01*
X88425634Y-40000003D01*
X88411296Y-39943384D01*
X88320860Y-39737209D01*
X88258502Y-39641763D01*
X88197724Y-39548734D01*
X88197720Y-39548729D01*
X88045237Y-39383091D01*
X87925367Y-39289792D01*
X87867576Y-39244811D01*
X87669574Y-39137658D01*
X87669572Y-39137657D01*
X87669571Y-39137656D01*
X87456639Y-39064557D01*
X87456630Y-39064555D01*
X87412476Y-39057187D01*
X87234569Y-39027500D01*
X87009431Y-39027500D01*
X86861211Y-39052233D01*
X86787369Y-39064555D01*
X86787360Y-39064557D01*
X86574428Y-39137656D01*
X86574426Y-39137658D01*
X86376426Y-39244810D01*
X86376424Y-39244811D01*
X86198762Y-39383091D01*
X86046279Y-39548729D01*
X86046275Y-39548734D01*
X85923139Y-39737209D01*
X85857539Y-39886764D01*
X85811858Y-39941112D01*
X85744046Y-39962136D01*
X85675632Y-39943160D01*
X85649450Y-39921487D01*
X85504902Y-39764465D01*
X85327301Y-39626232D01*
X85327300Y-39626231D01*
X85129371Y-39519117D01*
X85129369Y-39519116D01*
X84916512Y-39446043D01*
X84916501Y-39446040D01*
X84836000Y-39432606D01*
X84836000Y-40333325D01*
X84724315Y-40282320D01*
X84617763Y-40267000D01*
X84546237Y-40267000D01*
X84439685Y-40282320D01*
X84328000Y-40333325D01*
X84328000Y-39432607D01*
X84327999Y-39432606D01*
X84247498Y-39446040D01*
X84247487Y-39446043D01*
X84034630Y-39519116D01*
X84034628Y-39519117D01*
X83836699Y-39626231D01*
X83836698Y-39626232D01*
X83659093Y-39764468D01*
X83514548Y-39921487D01*
X83453695Y-39958058D01*
X83382731Y-39955924D01*
X83324185Y-39915763D01*
X83306460Y-39886764D01*
X83240860Y-39737209D01*
X83178502Y-39641763D01*
X83117724Y-39548734D01*
X83117720Y-39548729D01*
X82965237Y-39383091D01*
X82845367Y-39289792D01*
X82787576Y-39244811D01*
X82589574Y-39137658D01*
X82589572Y-39137657D01*
X82589571Y-39137656D01*
X82376639Y-39064557D01*
X82376630Y-39064555D01*
X82332476Y-39057187D01*
X82154569Y-39027500D01*
X81929431Y-39027500D01*
X81781211Y-39052233D01*
X81707369Y-39064555D01*
X81707360Y-39064557D01*
X81494428Y-39137656D01*
X81494426Y-39137658D01*
X81296426Y-39244810D01*
X81296424Y-39244811D01*
X81118762Y-39383091D01*
X80966279Y-39548729D01*
X80966275Y-39548734D01*
X80843139Y-39737209D01*
X80777759Y-39886262D01*
X80732078Y-39940610D01*
X80664266Y-39961634D01*
X80595852Y-39942658D01*
X80569671Y-39920986D01*
X80425584Y-39764468D01*
X80425240Y-39764094D01*
X80425239Y-39764093D01*
X80425237Y-39764091D01*
X80343382Y-39700381D01*
X80247576Y-39625811D01*
X80049574Y-39518658D01*
X80049572Y-39518657D01*
X80049571Y-39518656D01*
X79836639Y-39445557D01*
X79836630Y-39445555D01*
X79759029Y-39432606D01*
X79614569Y-39408500D01*
X79389431Y-39408500D01*
X79244971Y-39432606D01*
X79167369Y-39445555D01*
X79167360Y-39445557D01*
X78954428Y-39518656D01*
X78954426Y-39518658D01*
X78898860Y-39548729D01*
X78756426Y-39625810D01*
X78756424Y-39625811D01*
X78578762Y-39764091D01*
X78539200Y-39807067D01*
X78478347Y-39843637D01*
X78407382Y-39841502D01*
X78348837Y-39801340D01*
X78321300Y-39735901D01*
X78320500Y-39721728D01*
X78320500Y-39487367D01*
X78320499Y-39487350D01*
X78313990Y-39426803D01*
X78313988Y-39426795D01*
X78262889Y-39289797D01*
X78262887Y-39289792D01*
X78175261Y-39172738D01*
X78058207Y-39085112D01*
X78058202Y-39085110D01*
X77921204Y-39034011D01*
X77921196Y-39034009D01*
X77860649Y-39027500D01*
X77860638Y-39027500D01*
X76264501Y-39027500D01*
X76196380Y-39007498D01*
X76175406Y-38990595D01*
X70052411Y-32867600D01*
X79756896Y-32867600D01*
X79776857Y-33057527D01*
X79804342Y-33142113D01*
X79835873Y-33239156D01*
X79835876Y-33239161D01*
X79931358Y-33404541D01*
X79931365Y-33404551D01*
X80059144Y-33546464D01*
X80059147Y-33546466D01*
X80213648Y-33658718D01*
X80388112Y-33736394D01*
X80574913Y-33776100D01*
X80765887Y-33776100D01*
X80952688Y-33736394D01*
X81127152Y-33658718D01*
X81281653Y-33546466D01*
X81389320Y-33426890D01*
X81409434Y-33404551D01*
X81409435Y-33404549D01*
X81409440Y-33404544D01*
X81504927Y-33239156D01*
X81563942Y-33057528D01*
X81583904Y-32867600D01*
X81563942Y-32677672D01*
X81504927Y-32496044D01*
X81409440Y-32330656D01*
X81409438Y-32330654D01*
X81409434Y-32330648D01*
X81281655Y-32188735D01*
X81127152Y-32076482D01*
X80952688Y-31998806D01*
X80765887Y-31959100D01*
X80574913Y-31959100D01*
X80388111Y-31998806D01*
X80213647Y-32076482D01*
X80059144Y-32188735D01*
X79931365Y-32330648D01*
X79931358Y-32330658D01*
X79835876Y-32496038D01*
X79835873Y-32496045D01*
X79776857Y-32677672D01*
X79756896Y-32867600D01*
X70052411Y-32867600D01*
X67156812Y-29972000D01*
X96876496Y-29972000D01*
X96896457Y-30161927D01*
X96926526Y-30254470D01*
X96955473Y-30343556D01*
X96955476Y-30343561D01*
X97050958Y-30508941D01*
X97050965Y-30508951D01*
X97178744Y-30650864D01*
X97178747Y-30650866D01*
X97333248Y-30763118D01*
X97507712Y-30840794D01*
X97694513Y-30880500D01*
X97885487Y-30880500D01*
X98072288Y-30840794D01*
X98246752Y-30763118D01*
X98401253Y-30650866D01*
X98408909Y-30642363D01*
X98529034Y-30508951D01*
X98529035Y-30508949D01*
X98529040Y-30508944D01*
X98624527Y-30343556D01*
X98683542Y-30161928D01*
X98703504Y-29972000D01*
X98683542Y-29782072D01*
X98624527Y-29600444D01*
X98529040Y-29435056D01*
X98529038Y-29435054D01*
X98529034Y-29435048D01*
X98401255Y-29293135D01*
X98246752Y-29180882D01*
X98072288Y-29103206D01*
X97885487Y-29063500D01*
X97694513Y-29063500D01*
X97507711Y-29103206D01*
X97333247Y-29180882D01*
X97178744Y-29293135D01*
X97050965Y-29435048D01*
X97050958Y-29435058D01*
X96955476Y-29600438D01*
X96955473Y-29600445D01*
X96896457Y-29782072D01*
X96876496Y-29972000D01*
X67156812Y-29972000D01*
X64882812Y-27698000D01*
X87974496Y-27698000D01*
X87994457Y-27887927D01*
X88006298Y-27924368D01*
X88053473Y-28069556D01*
X88053476Y-28069561D01*
X88148958Y-28234941D01*
X88148965Y-28234951D01*
X88276744Y-28376864D01*
X88296531Y-28391240D01*
X88431248Y-28489118D01*
X88605712Y-28566794D01*
X88792513Y-28606500D01*
X88983487Y-28606500D01*
X89170288Y-28566794D01*
X89344752Y-28489118D01*
X89499253Y-28376866D01*
X89627040Y-28234944D01*
X89722527Y-28069556D01*
X89781542Y-27887928D01*
X89801504Y-27698000D01*
X89781542Y-27508072D01*
X89722527Y-27326444D01*
X89627040Y-27161056D01*
X89627038Y-27161054D01*
X89627034Y-27161048D01*
X89499255Y-27019135D01*
X89344752Y-26906882D01*
X89170288Y-26829206D01*
X88983487Y-26789500D01*
X88792513Y-26789500D01*
X88605711Y-26829206D01*
X88431247Y-26906882D01*
X88276744Y-27019135D01*
X88148965Y-27161048D01*
X88148958Y-27161058D01*
X88053476Y-27326438D01*
X88053473Y-27326445D01*
X87994457Y-27508072D01*
X87974496Y-27698000D01*
X64882812Y-27698000D01*
X63854812Y-26670000D01*
X80112496Y-26670000D01*
X80132457Y-26859927D01*
X80147714Y-26906882D01*
X80191473Y-27041556D01*
X80197046Y-27051209D01*
X80286958Y-27206941D01*
X80286965Y-27206951D01*
X80414744Y-27348864D01*
X80414747Y-27348866D01*
X80569248Y-27461118D01*
X80743712Y-27538794D01*
X80930513Y-27578500D01*
X81121487Y-27578500D01*
X81308288Y-27538794D01*
X81482752Y-27461118D01*
X81637253Y-27348866D01*
X81765040Y-27206944D01*
X81860527Y-27041556D01*
X81919542Y-26859928D01*
X81939504Y-26670000D01*
X81919542Y-26480072D01*
X81860527Y-26298444D01*
X81765040Y-26133056D01*
X81765038Y-26133054D01*
X81765034Y-26133048D01*
X81637255Y-25991135D01*
X81482752Y-25878882D01*
X81308288Y-25801206D01*
X81121487Y-25761500D01*
X80930513Y-25761500D01*
X80743711Y-25801206D01*
X80569247Y-25878882D01*
X80414744Y-25991135D01*
X80286965Y-26133048D01*
X80286958Y-26133058D01*
X80191476Y-26298438D01*
X80191473Y-26298444D01*
X80183415Y-26323243D01*
X80132457Y-26480072D01*
X80112496Y-26670000D01*
X63854812Y-26670000D01*
X59854007Y-22669195D01*
X59819981Y-22606883D01*
X59825046Y-22536068D01*
X59867593Y-22479232D01*
X59934113Y-22454421D01*
X59943102Y-22454100D01*
X79928736Y-22454100D01*
X79944203Y-22455807D01*
X79944235Y-22455473D01*
X79952127Y-22456219D01*
X79952127Y-22456218D01*
X79952128Y-22456219D01*
X80019568Y-22454100D01*
X80048383Y-22454100D01*
X80048384Y-22454100D01*
X80048384Y-22454099D01*
X80053675Y-22453430D01*
X80054965Y-22453268D01*
X80060883Y-22452801D01*
X80106199Y-22451378D01*
X80124583Y-22446035D01*
X80143937Y-22442027D01*
X80162932Y-22439629D01*
X80205082Y-22422939D01*
X80210693Y-22421018D01*
X80254225Y-22408372D01*
X80270699Y-22398628D01*
X80288450Y-22389932D01*
X80306254Y-22382884D01*
X80342960Y-22356214D01*
X80347870Y-22352989D01*
X80386906Y-22329905D01*
X80400436Y-22316374D01*
X80415476Y-22303530D01*
X80430954Y-22292285D01*
X80430954Y-22292284D01*
X80430962Y-22292279D01*
X80432693Y-22290187D01*
X80434459Y-22288994D01*
X80436739Y-22286853D01*
X80437084Y-22287220D01*
X80491526Y-22250447D01*
X80529779Y-22244500D01*
X80613487Y-22244500D01*
X80686408Y-22229000D01*
X95983496Y-22229000D01*
X96003457Y-22418927D01*
X96019408Y-22468017D01*
X96062473Y-22600556D01*
X96062476Y-22600561D01*
X96157958Y-22765941D01*
X96157965Y-22765951D01*
X96285744Y-22907864D01*
X96285747Y-22907866D01*
X96440248Y-23020118D01*
X96614712Y-23097794D01*
X96801513Y-23137500D01*
X96992487Y-23137500D01*
X97179288Y-23097794D01*
X97353752Y-23020118D01*
X97508253Y-22907866D01*
X97508255Y-22907864D01*
X97636034Y-22765951D01*
X97636035Y-22765949D01*
X97636040Y-22765944D01*
X97731527Y-22600556D01*
X97790542Y-22418928D01*
X97810504Y-22229000D01*
X97790542Y-22039072D01*
X97731527Y-21857444D01*
X97636040Y-21692056D01*
X97636038Y-21692054D01*
X97636034Y-21692048D01*
X97508255Y-21550135D01*
X97353752Y-21437882D01*
X97179288Y-21360206D01*
X96992487Y-21320500D01*
X96801513Y-21320500D01*
X96614711Y-21360206D01*
X96440247Y-21437882D01*
X96285744Y-21550135D01*
X96157965Y-21692048D01*
X96157958Y-21692058D01*
X96062476Y-21857438D01*
X96062473Y-21857444D01*
X96057380Y-21873118D01*
X96003457Y-22039072D01*
X95983496Y-22229000D01*
X80686408Y-22229000D01*
X80800288Y-22204794D01*
X80974752Y-22127118D01*
X81129253Y-22014866D01*
X81129255Y-22014864D01*
X81257034Y-21872951D01*
X81257035Y-21872949D01*
X81257040Y-21872944D01*
X81352527Y-21707556D01*
X81366629Y-21664153D01*
X81406702Y-21605548D01*
X81472099Y-21577911D01*
X81542056Y-21590018D01*
X81560521Y-21601153D01*
X81585248Y-21619118D01*
X81759712Y-21696794D01*
X81946513Y-21736500D01*
X82137487Y-21736500D01*
X82324288Y-21696794D01*
X82498752Y-21619118D01*
X82653253Y-21506866D01*
X82668657Y-21489758D01*
X82781034Y-21364951D01*
X82781035Y-21364949D01*
X82781040Y-21364944D01*
X82876527Y-21199556D01*
X82935542Y-21017928D01*
X82955504Y-20828000D01*
X82935542Y-20638072D01*
X82876527Y-20456444D01*
X82781040Y-20291056D01*
X82781038Y-20291054D01*
X82781034Y-20291048D01*
X82653255Y-20149135D01*
X82498752Y-20036882D01*
X82324288Y-19959206D01*
X82137487Y-19919500D01*
X82048644Y-19919500D01*
X81980523Y-19899498D01*
X81962400Y-19885358D01*
X81958645Y-19881833D01*
X81938269Y-19861456D01*
X81933008Y-19857375D01*
X81928495Y-19853520D01*
X81895460Y-19822498D01*
X81895455Y-19822494D01*
X81878685Y-19813275D01*
X81862157Y-19802418D01*
X81847035Y-19790688D01*
X81847036Y-19790688D01*
X81847034Y-19790687D01*
X81847030Y-19790685D01*
X81847028Y-19790684D01*
X81808631Y-19774068D01*
X81805430Y-19772682D01*
X81800103Y-19770073D01*
X81760379Y-19748235D01*
X81741830Y-19743472D01*
X81723133Y-19737070D01*
X81705564Y-19729467D01*
X81660788Y-19722375D01*
X81654974Y-19721171D01*
X81631152Y-19715055D01*
X81611074Y-19709900D01*
X81611073Y-19709900D01*
X81591936Y-19709900D01*
X81572225Y-19708349D01*
X81553316Y-19705354D01*
X81553315Y-19705354D01*
X81508183Y-19709620D01*
X81502250Y-19709900D01*
X80091267Y-19709900D01*
X80075796Y-19708191D01*
X80075765Y-19708526D01*
X80067872Y-19707779D01*
X80002470Y-19709835D01*
X80000414Y-19709900D01*
X79971617Y-19709900D01*
X79965017Y-19710732D01*
X79959110Y-19711197D01*
X79913801Y-19712621D01*
X79913798Y-19712622D01*
X79895411Y-19717964D01*
X79876053Y-19721972D01*
X79857077Y-19724369D01*
X79857060Y-19724373D01*
X79814919Y-19741056D01*
X79809307Y-19742978D01*
X79765775Y-19755626D01*
X79749288Y-19765376D01*
X79731544Y-19774068D01*
X79713747Y-19781115D01*
X79677065Y-19807763D01*
X79672106Y-19811020D01*
X79633094Y-19834093D01*
X79619555Y-19847631D01*
X79604531Y-19860463D01*
X79589038Y-19871720D01*
X79560137Y-19906654D01*
X79556141Y-19911044D01*
X79032193Y-20434995D01*
X78969880Y-20469020D01*
X78943097Y-20471900D01*
X23589269Y-20471900D01*
X23521148Y-20451898D01*
X23495632Y-20430210D01*
X23487438Y-20421110D01*
X23471253Y-20403134D01*
X23440883Y-20381069D01*
X23316752Y-20290882D01*
X23142288Y-20213206D01*
X22955487Y-20173500D01*
X22764513Y-20173500D01*
X22606297Y-20207130D01*
X22535506Y-20201728D01*
X22478874Y-20158911D01*
X22454380Y-20092274D01*
X22454100Y-20083883D01*
X22454100Y-18415000D01*
X75159496Y-18415000D01*
X75179457Y-18604927D01*
X75195757Y-18655091D01*
X75238473Y-18786556D01*
X75238476Y-18786561D01*
X75333958Y-18951941D01*
X75333965Y-18951951D01*
X75461744Y-19093864D01*
X75461747Y-19093866D01*
X75616248Y-19206118D01*
X75790712Y-19283794D01*
X75977513Y-19323500D01*
X76168487Y-19323500D01*
X76355288Y-19283794D01*
X76529752Y-19206118D01*
X76684253Y-19093866D01*
X76705742Y-19070000D01*
X101384884Y-19070000D01*
X101403314Y-19280655D01*
X101432643Y-19390113D01*
X101458043Y-19484908D01*
X101458045Y-19484912D01*
X101547412Y-19676561D01*
X101668692Y-19849767D01*
X101668696Y-19849772D01*
X101668699Y-19849776D01*
X101818224Y-19999301D01*
X101818228Y-19999304D01*
X101818232Y-19999307D01*
X101991438Y-20120587D01*
X101991441Y-20120588D01*
X101991442Y-20120589D01*
X102183090Y-20209956D01*
X102215168Y-20218551D01*
X102275792Y-20255501D01*
X102306815Y-20319360D01*
X102298388Y-20389855D01*
X102253186Y-20444603D01*
X102215175Y-20461964D01*
X102183265Y-20470515D01*
X102183258Y-20470517D01*
X101991690Y-20559846D01*
X101941912Y-20594701D01*
X101941912Y-20594703D01*
X102558481Y-21211272D01*
X102472852Y-21224835D01*
X102359955Y-21282359D01*
X102270359Y-21371955D01*
X102212835Y-21484852D01*
X102199272Y-21570481D01*
X101582703Y-20953912D01*
X101582701Y-20953912D01*
X101547846Y-21003690D01*
X101458517Y-21195258D01*
X101458515Y-21195264D01*
X101403808Y-21399432D01*
X101385386Y-21610000D01*
X101403808Y-21820567D01*
X101458515Y-22024735D01*
X101458519Y-22024745D01*
X101547842Y-22216302D01*
X101547844Y-22216305D01*
X101582702Y-22266086D01*
X102199272Y-21649516D01*
X102212835Y-21735148D01*
X102270359Y-21848045D01*
X102359955Y-21937641D01*
X102472852Y-21995165D01*
X102558482Y-22008727D01*
X101941912Y-22625296D01*
X101941912Y-22625297D01*
X101991692Y-22660154D01*
X101991697Y-22660157D01*
X102183254Y-22749480D01*
X102183264Y-22749484D01*
X102387432Y-22804191D01*
X102598000Y-22822613D01*
X102808567Y-22804191D01*
X103012735Y-22749484D01*
X103012745Y-22749480D01*
X103204304Y-22660156D01*
X103204305Y-22660155D01*
X103254087Y-22625297D01*
X103254087Y-22625296D01*
X102637518Y-22008727D01*
X102723148Y-21995165D01*
X102836045Y-21937641D01*
X102925641Y-21848045D01*
X102983165Y-21735148D01*
X102996727Y-21649518D01*
X103613296Y-22266087D01*
X103613297Y-22266087D01*
X103648155Y-22216305D01*
X103648156Y-22216304D01*
X103737480Y-22024745D01*
X103737484Y-22024735D01*
X103792191Y-21820567D01*
X103810613Y-21610000D01*
X103792191Y-21399432D01*
X103737484Y-21195264D01*
X103737480Y-21195254D01*
X103648157Y-21003697D01*
X103648154Y-21003692D01*
X103613297Y-20953912D01*
X103613296Y-20953912D01*
X102996727Y-21570481D01*
X102983165Y-21484852D01*
X102925641Y-21371955D01*
X102836045Y-21282359D01*
X102723148Y-21224835D01*
X102637517Y-21211272D01*
X103254086Y-20594702D01*
X103254086Y-20594701D01*
X103204305Y-20559844D01*
X103204302Y-20559842D01*
X103012745Y-20470519D01*
X103012732Y-20470514D01*
X102980825Y-20461964D01*
X102920203Y-20425011D01*
X102889183Y-20361150D01*
X102897613Y-20290656D01*
X102942817Y-20235910D01*
X102980825Y-20218553D01*
X103012910Y-20209956D01*
X103204558Y-20120589D01*
X103377776Y-19999301D01*
X103527301Y-19849776D01*
X103648589Y-19676558D01*
X103737956Y-19484910D01*
X103792686Y-19280655D01*
X103811116Y-19070000D01*
X103792686Y-18859345D01*
X103737956Y-18655090D01*
X103648589Y-18463442D01*
X103648588Y-18463441D01*
X103648587Y-18463438D01*
X103527307Y-18290232D01*
X103527304Y-18290228D01*
X103527301Y-18290224D01*
X103377776Y-18140699D01*
X103377772Y-18140696D01*
X103377767Y-18140692D01*
X103204561Y-18019412D01*
X103012912Y-17930045D01*
X103012908Y-17930043D01*
X102918113Y-17904643D01*
X102808655Y-17875314D01*
X102598000Y-17856884D01*
X102387345Y-17875314D01*
X102332616Y-17889978D01*
X102183091Y-17930043D01*
X102183087Y-17930045D01*
X101991438Y-18019412D01*
X101818232Y-18140692D01*
X101818221Y-18140701D01*
X101668701Y-18290221D01*
X101668692Y-18290232D01*
X101547412Y-18463438D01*
X101458045Y-18655087D01*
X101458043Y-18655091D01*
X101422818Y-18786554D01*
X101403314Y-18859345D01*
X101384884Y-19070000D01*
X76705742Y-19070000D01*
X76812040Y-18951944D01*
X76907527Y-18786556D01*
X76966542Y-18604928D01*
X76986504Y-18415000D01*
X76966542Y-18225072D01*
X76907527Y-18043444D01*
X76812040Y-17878056D01*
X76742487Y-17800810D01*
X76711771Y-17736803D01*
X76720535Y-17666349D01*
X76742488Y-17632189D01*
X76812040Y-17554944D01*
X76907527Y-17389556D01*
X76966542Y-17207928D01*
X76986504Y-17018000D01*
X76966542Y-16828072D01*
X76907527Y-16646444D01*
X76812040Y-16481056D01*
X76799664Y-16467311D01*
X76768946Y-16403306D01*
X76777708Y-16332852D01*
X76799663Y-16298689D01*
X76812040Y-16284944D01*
X76907527Y-16119556D01*
X76966542Y-15937928D01*
X76986504Y-15748000D01*
X76966542Y-15558072D01*
X76907527Y-15376444D01*
X76812040Y-15211056D01*
X76812038Y-15211054D01*
X76812034Y-15211048D01*
X76684255Y-15069135D01*
X76529752Y-14956882D01*
X76355288Y-14879206D01*
X76168487Y-14839500D01*
X75977513Y-14839500D01*
X75790711Y-14879206D01*
X75616247Y-14956882D01*
X75461744Y-15069135D01*
X75333965Y-15211048D01*
X75333958Y-15211058D01*
X75238476Y-15376438D01*
X75238473Y-15376445D01*
X75179457Y-15558072D01*
X75159496Y-15748000D01*
X75179457Y-15937927D01*
X75207789Y-16025120D01*
X75238473Y-16119556D01*
X75238476Y-16119561D01*
X75333957Y-16284940D01*
X75333958Y-16284941D01*
X75333960Y-16284944D01*
X75339519Y-16291118D01*
X75346337Y-16298690D01*
X75377054Y-16362698D01*
X75368289Y-16433152D01*
X75346337Y-16467310D01*
X75333957Y-16481059D01*
X75238476Y-16646438D01*
X75238473Y-16646445D01*
X75179457Y-16828072D01*
X75159496Y-17018000D01*
X75179457Y-17207927D01*
X75209526Y-17300470D01*
X75238473Y-17389556D01*
X75238476Y-17389561D01*
X75333958Y-17554941D01*
X75333962Y-17554946D01*
X75403512Y-17632189D01*
X75434229Y-17696197D01*
X75425465Y-17766651D01*
X75403512Y-17800811D01*
X75333962Y-17878053D01*
X75333958Y-17878058D01*
X75243640Y-18034494D01*
X75238473Y-18043444D01*
X75229157Y-18072115D01*
X75179457Y-18225072D01*
X75159496Y-18415000D01*
X22454100Y-18415000D01*
X22454100Y-16052901D01*
X22474102Y-15984780D01*
X22491005Y-15963806D01*
X22760311Y-15694500D01*
X59919496Y-15694500D01*
X59939457Y-15884427D01*
X59944848Y-15901017D01*
X59998473Y-16066056D01*
X60013874Y-16092732D01*
X60093958Y-16231441D01*
X60093965Y-16231451D01*
X60221744Y-16373364D01*
X60221747Y-16373366D01*
X60376248Y-16485618D01*
X60550712Y-16563294D01*
X60737513Y-16603000D01*
X60928487Y-16603000D01*
X61115288Y-16563294D01*
X61289752Y-16485618D01*
X61444253Y-16373366D01*
X61453773Y-16362793D01*
X61572034Y-16231451D01*
X61572034Y-16231449D01*
X61572040Y-16231444D01*
X61597437Y-16187454D01*
X61648817Y-16138463D01*
X61718530Y-16125025D01*
X61784442Y-16151411D01*
X61815674Y-16187454D01*
X61871960Y-16284944D01*
X61871962Y-16284946D01*
X61871965Y-16284951D01*
X61999744Y-16426864D01*
X61999747Y-16426866D01*
X62154248Y-16539118D01*
X62328712Y-16616794D01*
X62515513Y-16656500D01*
X62706487Y-16656500D01*
X62893288Y-16616794D01*
X63067752Y-16539118D01*
X63222253Y-16426866D01*
X63238790Y-16408500D01*
X63350034Y-16284951D01*
X63350038Y-16284946D01*
X63350040Y-16284944D01*
X63445527Y-16119556D01*
X63504542Y-15937928D01*
X63524504Y-15748000D01*
X63504542Y-15558072D01*
X63445527Y-15376444D01*
X63350040Y-15211056D01*
X63350038Y-15211054D01*
X63350034Y-15211048D01*
X63222255Y-15069135D01*
X63067752Y-14956882D01*
X62893288Y-14879206D01*
X62706487Y-14839500D01*
X62515513Y-14839500D01*
X62328711Y-14879206D01*
X62154247Y-14956882D01*
X61999744Y-15069135D01*
X61871965Y-15211048D01*
X61871960Y-15211055D01*
X61850704Y-15247870D01*
X61846564Y-15255044D01*
X61846563Y-15255045D01*
X61795179Y-15304038D01*
X61725466Y-15317473D01*
X61659555Y-15291086D01*
X61628325Y-15255044D01*
X61572041Y-15157558D01*
X61572034Y-15157548D01*
X61444255Y-15015635D01*
X61289752Y-14903382D01*
X61115288Y-14825706D01*
X60928487Y-14786000D01*
X60737513Y-14786000D01*
X60550711Y-14825706D01*
X60376247Y-14903382D01*
X60221744Y-15015635D01*
X60093965Y-15157548D01*
X60093958Y-15157558D01*
X59998476Y-15322938D01*
X59998473Y-15322944D01*
X59988545Y-15353500D01*
X59939457Y-15504572D01*
X59919496Y-15694500D01*
X22760311Y-15694500D01*
X24709693Y-13745118D01*
X27043945Y-11410865D01*
X27056094Y-11401134D01*
X27055879Y-11400874D01*
X27061978Y-11395828D01*
X27061983Y-11395826D01*
X27108170Y-11346641D01*
X27128547Y-11326265D01*
X27132628Y-11321002D01*
X27136460Y-11316515D01*
X27167504Y-11283458D01*
X27176725Y-11266682D01*
X27187575Y-11250165D01*
X27199313Y-11235034D01*
X27217323Y-11193412D01*
X27219919Y-11188115D01*
X27241765Y-11148378D01*
X27246525Y-11129836D01*
X27252930Y-11111132D01*
X27256726Y-11102359D01*
X27260532Y-11093565D01*
X27267623Y-11048792D01*
X27268824Y-11042985D01*
X27280100Y-10999074D01*
X27280100Y-10979936D01*
X27281651Y-10960225D01*
X27284646Y-10941315D01*
X27280380Y-10896181D01*
X27280100Y-10890249D01*
X27280100Y-5415260D01*
X27281808Y-5399789D01*
X27281473Y-5399758D01*
X27282219Y-5391870D01*
X27280100Y-5324431D01*
X27280100Y-5295622D01*
X27280100Y-5295617D01*
X27279265Y-5289015D01*
X27278801Y-5283119D01*
X27277378Y-5237801D01*
X27272036Y-5219416D01*
X27268028Y-5200063D01*
X27265629Y-5181068D01*
X27248938Y-5138914D01*
X27247017Y-5133301D01*
X27234371Y-5089772D01*
X27224628Y-5073297D01*
X27215933Y-5055547D01*
X27208887Y-5037754D01*
X27208884Y-5037746D01*
X27182233Y-5001065D01*
X27178978Y-4996108D01*
X27155905Y-4957093D01*
X27155903Y-4957091D01*
X27155902Y-4957089D01*
X27142374Y-4943561D01*
X27129533Y-4928528D01*
X27128656Y-4927321D01*
X27118279Y-4913038D01*
X27083335Y-4884130D01*
X27078962Y-4880150D01*
X25634868Y-3436056D01*
X25625135Y-3423908D01*
X25624876Y-3424123D01*
X25619828Y-3418020D01*
X25619826Y-3418017D01*
X25570641Y-3371829D01*
X25566196Y-3367384D01*
X25550269Y-3351456D01*
X25545008Y-3347375D01*
X25540495Y-3343520D01*
X25507460Y-3312498D01*
X25507455Y-3312494D01*
X25490685Y-3303275D01*
X25474157Y-3292418D01*
X25459035Y-3280688D01*
X25459036Y-3280688D01*
X25459034Y-3280687D01*
X25459030Y-3280685D01*
X25459028Y-3280684D01*
X25434260Y-3269966D01*
X25417430Y-3262682D01*
X25412103Y-3260073D01*
X25372379Y-3238235D01*
X25353830Y-3233472D01*
X25335133Y-3227070D01*
X25317564Y-3219467D01*
X25272788Y-3212375D01*
X25266974Y-3211171D01*
X25243152Y-3205055D01*
X25223074Y-3199900D01*
X25223073Y-3199900D01*
X25203936Y-3199900D01*
X25184225Y-3198349D01*
X25165316Y-3195354D01*
X25165315Y-3195354D01*
X25120183Y-3199620D01*
X25114250Y-3199900D01*
X24914326Y-3199900D01*
X24846205Y-3179898D01*
X24808843Y-3142815D01*
X24697724Y-2972734D01*
X24697720Y-2972729D01*
X24581570Y-2846559D01*
X24545240Y-2807094D01*
X24545239Y-2807093D01*
X24545237Y-2807091D01*
X24463382Y-2743381D01*
X24367576Y-2668811D01*
X24334319Y-2650813D01*
X24283929Y-2600802D01*
X24268576Y-2531485D01*
X24293136Y-2464872D01*
X24334320Y-2429186D01*
X24367576Y-2411189D01*
X24545240Y-2272906D01*
X24697722Y-2107268D01*
X24820860Y-1918791D01*
X24911296Y-1712616D01*
X24966564Y-1494368D01*
X24985156Y-1270000D01*
X24966564Y-1045632D01*
X24966562Y-1045624D01*
X24911297Y-827387D01*
X24911296Y-827386D01*
X24911296Y-827384D01*
X24820860Y-621209D01*
X24808357Y-602072D01*
X24697724Y-432734D01*
X24697720Y-432729D01*
X24581570Y-306559D01*
X24545240Y-267094D01*
X24545239Y-267093D01*
X24545237Y-267091D01*
X24463382Y-203381D01*
X24367576Y-128811D01*
X24334319Y-110813D01*
X24283929Y-60802D01*
X24268576Y8515D01*
X24293136Y75128D01*
X24334320Y110814D01*
X24367576Y128811D01*
X24545240Y267094D01*
X24697722Y432732D01*
X24820860Y621209D01*
X24911296Y827384D01*
X24966564Y1045632D01*
X24985156Y1270000D01*
X24966564Y1494368D01*
X24911296Y1712616D01*
X24820860Y1918791D01*
X24814140Y1929076D01*
X24697724Y2107266D01*
X24697720Y2107271D01*
X24545237Y2272909D01*
X24463382Y2336619D01*
X24367576Y2411189D01*
X24334319Y2429187D01*
X24283929Y2479198D01*
X24268576Y2548515D01*
X24293136Y2615128D01*
X24334320Y2650814D01*
X24337336Y2652446D01*
X24367576Y2668811D01*
X24545240Y2807094D01*
X24697722Y2972732D01*
X24753067Y3057444D01*
X24793555Y3119415D01*
X24847558Y3165504D01*
X24899038Y3176500D01*
X44897406Y3176500D01*
X44965527Y3156498D01*
X44986500Y3139596D01*
X50949036Y-2822941D01*
X56896755Y-8770660D01*
X56906720Y-8783097D01*
X56906947Y-8782910D01*
X56911999Y-8789017D01*
X56963078Y-8836983D01*
X56984223Y-8858129D01*
X56984227Y-8858132D01*
X56984230Y-8858135D01*
X56989782Y-8862442D01*
X56994269Y-8866273D01*
X57016959Y-8887581D01*
X57028677Y-8898585D01*
X57028679Y-8898586D01*
X57046428Y-8908343D01*
X57062953Y-8919198D01*
X57078959Y-8931614D01*
X57120686Y-8949670D01*
X57122262Y-8950352D01*
X57127583Y-8952958D01*
X57168940Y-8975695D01*
X57168948Y-8975697D01*
X57188558Y-8980732D01*
X57207267Y-8987137D01*
X57225855Y-8995181D01*
X57272477Y-9002564D01*
X57278262Y-9003763D01*
X57323970Y-9015500D01*
X57344224Y-9015500D01*
X57363934Y-9017051D01*
X57366141Y-9017400D01*
X57383943Y-9020220D01*
X57417870Y-9017012D01*
X57430917Y-9015780D01*
X57436850Y-9015500D01*
X78425406Y-9015500D01*
X78493527Y-9035502D01*
X78514501Y-9052405D01*
X85344755Y-15882660D01*
X85354720Y-15895097D01*
X85354947Y-15894910D01*
X85359999Y-15901017D01*
X85411078Y-15948983D01*
X85432223Y-15970129D01*
X85432227Y-15970132D01*
X85432230Y-15970135D01*
X85437782Y-15974442D01*
X85442269Y-15978273D01*
X85464959Y-15999581D01*
X85476677Y-16010585D01*
X85476679Y-16010586D01*
X85494428Y-16020343D01*
X85510953Y-16031198D01*
X85526959Y-16043614D01*
X85568686Y-16061670D01*
X85570262Y-16062352D01*
X85575583Y-16064958D01*
X85616940Y-16087695D01*
X85616948Y-16087697D01*
X85636558Y-16092732D01*
X85655260Y-16099133D01*
X85673855Y-16107181D01*
X85673858Y-16107181D01*
X85674444Y-16107435D01*
X85718038Y-16138761D01*
X85748745Y-16172864D01*
X85748747Y-16172866D01*
X85903248Y-16285118D01*
X86077712Y-16362794D01*
X86264513Y-16402500D01*
X86455487Y-16402500D01*
X86642288Y-16362794D01*
X86816752Y-16285118D01*
X86971253Y-16172866D01*
X87019249Y-16119561D01*
X87099034Y-16030951D01*
X87099035Y-16030949D01*
X87099040Y-16030944D01*
X87194527Y-15865556D01*
X87253542Y-15683928D01*
X87268652Y-15540165D01*
X87272944Y-15499330D01*
X87299957Y-15433673D01*
X87358179Y-15393043D01*
X87398254Y-15386500D01*
X87471487Y-15386500D01*
X87658288Y-15346794D01*
X87832752Y-15269118D01*
X87987253Y-15156866D01*
X87987255Y-15156864D01*
X88115034Y-15014951D01*
X88115035Y-15014949D01*
X88115040Y-15014944D01*
X88210527Y-14849556D01*
X88216743Y-14830424D01*
X88256816Y-14771819D01*
X88322212Y-14744181D01*
X88392169Y-14756287D01*
X88410635Y-14767423D01*
X88443248Y-14791118D01*
X88617712Y-14868794D01*
X88804513Y-14908500D01*
X88995487Y-14908500D01*
X89182288Y-14868794D01*
X89356752Y-14791118D01*
X89511253Y-14678866D01*
X89515670Y-14673961D01*
X89639031Y-14536954D01*
X89639031Y-14536953D01*
X89639040Y-14536944D01*
X89639046Y-14536932D01*
X89639928Y-14535720D01*
X89640631Y-14535177D01*
X89643459Y-14532037D01*
X89644032Y-14532553D01*
X89696145Y-14492360D01*
X89766881Y-14486276D01*
X89829676Y-14519400D01*
X89830968Y-14520674D01*
X90197129Y-14886835D01*
X90231155Y-14949147D01*
X90226090Y-15019962D01*
X90217154Y-15038929D01*
X90165474Y-15128441D01*
X90165473Y-15128443D01*
X90165473Y-15128444D01*
X90156014Y-15157556D01*
X90106457Y-15310072D01*
X90086496Y-15500000D01*
X90106457Y-15689927D01*
X90125327Y-15748000D01*
X90165473Y-15871556D01*
X90179064Y-15895097D01*
X90260958Y-16036941D01*
X90260965Y-16036951D01*
X90388744Y-16178864D01*
X90388747Y-16178866D01*
X90543248Y-16291118D01*
X90717712Y-16368794D01*
X90904513Y-16408500D01*
X91095487Y-16408500D01*
X91282288Y-16368794D01*
X91456752Y-16291118D01*
X91611253Y-16178866D01*
X91611255Y-16178864D01*
X91739034Y-16036951D01*
X91739035Y-16036949D01*
X91739040Y-16036944D01*
X91834527Y-15871556D01*
X91893542Y-15689928D01*
X91913504Y-15500000D01*
X91893542Y-15310072D01*
X91834527Y-15128444D01*
X91739040Y-14963056D01*
X91641125Y-14854310D01*
X91610409Y-14790304D01*
X91609750Y-14785745D01*
X91609263Y-14781881D01*
X91608800Y-14775983D01*
X91608531Y-14767425D01*
X91607378Y-14730695D01*
X91602036Y-14712310D01*
X91598028Y-14692957D01*
X91595629Y-14673962D01*
X91578933Y-14631795D01*
X91577017Y-14626195D01*
X91564372Y-14582667D01*
X91554630Y-14566195D01*
X91545929Y-14548435D01*
X91538884Y-14530640D01*
X91538882Y-14530637D01*
X91538881Y-14530635D01*
X91512236Y-14493962D01*
X91508974Y-14488997D01*
X91507365Y-14486276D01*
X91485905Y-14449988D01*
X91472372Y-14436455D01*
X91459537Y-14421428D01*
X91448279Y-14405932D01*
X91447093Y-14404951D01*
X91436565Y-14396241D01*
X91413329Y-14377019D01*
X91408956Y-14373039D01*
X88973917Y-11938000D01*
X96876496Y-11938000D01*
X96896457Y-12127927D01*
X96923049Y-12209767D01*
X96955473Y-12309556D01*
X96955476Y-12309561D01*
X97050958Y-12474941D01*
X97050965Y-12474951D01*
X97178744Y-12616864D01*
X97239999Y-12661368D01*
X97333248Y-12729118D01*
X97507712Y-12806794D01*
X97694513Y-12846500D01*
X97885487Y-12846500D01*
X98072288Y-12806794D01*
X98246752Y-12729118D01*
X98401253Y-12616866D01*
X98443916Y-12569484D01*
X98529034Y-12474951D01*
X98529035Y-12474949D01*
X98529040Y-12474944D01*
X98624527Y-12309556D01*
X98683542Y-12127928D01*
X98703504Y-11938000D01*
X98683542Y-11748072D01*
X98624527Y-11566444D01*
X98529040Y-11401056D01*
X98529038Y-11401054D01*
X98529034Y-11401048D01*
X98401255Y-11259135D01*
X98246752Y-11146882D01*
X98072288Y-11069206D01*
X97885487Y-11029500D01*
X97694513Y-11029500D01*
X97507711Y-11069206D01*
X97333247Y-11146882D01*
X97178744Y-11259135D01*
X97050965Y-11401048D01*
X97050958Y-11401058D01*
X96955476Y-11566438D01*
X96955473Y-11566445D01*
X96896457Y-11748072D01*
X96876496Y-11938000D01*
X88973917Y-11938000D01*
X85798918Y-8763000D01*
X90018496Y-8763000D01*
X90038457Y-8952927D01*
X90065288Y-9035502D01*
X90097473Y-9134556D01*
X90097476Y-9134561D01*
X90192958Y-9299941D01*
X90192965Y-9299951D01*
X90320744Y-9441864D01*
X90320747Y-9441866D01*
X90475248Y-9554118D01*
X90649712Y-9631794D01*
X90836513Y-9671500D01*
X91027487Y-9671500D01*
X91214288Y-9631794D01*
X91388752Y-9554118D01*
X91543253Y-9441866D01*
X91666569Y-9304910D01*
X91671034Y-9299951D01*
X91671035Y-9299949D01*
X91671040Y-9299944D01*
X91766527Y-9134556D01*
X91825542Y-8952928D01*
X91832156Y-8890000D01*
X101366884Y-8890000D01*
X101385314Y-9100655D01*
X101394398Y-9134556D01*
X101440043Y-9304908D01*
X101440045Y-9304912D01*
X101529412Y-9496561D01*
X101650692Y-9669767D01*
X101650696Y-9669772D01*
X101650699Y-9669776D01*
X101800224Y-9819301D01*
X101800228Y-9819304D01*
X101800232Y-9819307D01*
X101973438Y-9940587D01*
X101973441Y-9940588D01*
X101973442Y-9940589D01*
X102165090Y-10029956D01*
X102197168Y-10038551D01*
X102257792Y-10075501D01*
X102288815Y-10139360D01*
X102280388Y-10209855D01*
X102235186Y-10264603D01*
X102197175Y-10281964D01*
X102165265Y-10290515D01*
X102165258Y-10290517D01*
X101973690Y-10379846D01*
X101923912Y-10414701D01*
X101923912Y-10414703D01*
X102540481Y-11031272D01*
X102454852Y-11044835D01*
X102341955Y-11102359D01*
X102252359Y-11191955D01*
X102194835Y-11304852D01*
X102181272Y-11390481D01*
X101564703Y-10773912D01*
X101564701Y-10773912D01*
X101529846Y-10823690D01*
X101440517Y-11015258D01*
X101440515Y-11015264D01*
X101385808Y-11219432D01*
X101367386Y-11430000D01*
X101385808Y-11640567D01*
X101440515Y-11844735D01*
X101440519Y-11844745D01*
X101529842Y-12036302D01*
X101529844Y-12036305D01*
X101564702Y-12086086D01*
X102181272Y-11469516D01*
X102194835Y-11555148D01*
X102252359Y-11668045D01*
X102341955Y-11757641D01*
X102454852Y-11815165D01*
X102540482Y-11828727D01*
X101923912Y-12445296D01*
X101923912Y-12445297D01*
X101973692Y-12480154D01*
X101973697Y-12480157D01*
X102165254Y-12569480D01*
X102165264Y-12569484D01*
X102369432Y-12624191D01*
X102580000Y-12642613D01*
X102790567Y-12624191D01*
X102994735Y-12569484D01*
X102994745Y-12569480D01*
X103186304Y-12480156D01*
X103186305Y-12480155D01*
X103236087Y-12445297D01*
X103236087Y-12445296D01*
X102619518Y-11828727D01*
X102705148Y-11815165D01*
X102818045Y-11757641D01*
X102907641Y-11668045D01*
X102965165Y-11555148D01*
X102978727Y-11469518D01*
X103595296Y-12086087D01*
X103595297Y-12086087D01*
X103630155Y-12036305D01*
X103630156Y-12036304D01*
X103719480Y-11844745D01*
X103719484Y-11844735D01*
X103774191Y-11640567D01*
X103792613Y-11430000D01*
X103774191Y-11219432D01*
X103719484Y-11015264D01*
X103719480Y-11015254D01*
X103630157Y-10823697D01*
X103630154Y-10823692D01*
X103595297Y-10773912D01*
X103595296Y-10773912D01*
X102978727Y-11390481D01*
X102965165Y-11304852D01*
X102907641Y-11191955D01*
X102818045Y-11102359D01*
X102705148Y-11044835D01*
X102619517Y-11031272D01*
X103236086Y-10414702D01*
X103236086Y-10414701D01*
X103186305Y-10379844D01*
X103186302Y-10379842D01*
X102994745Y-10290519D01*
X102994732Y-10290514D01*
X102962825Y-10281964D01*
X102902203Y-10245011D01*
X102871183Y-10181150D01*
X102879613Y-10110656D01*
X102924817Y-10055910D01*
X102962825Y-10038553D01*
X102994910Y-10029956D01*
X103186558Y-9940589D01*
X103359776Y-9819301D01*
X103509301Y-9669776D01*
X103619912Y-9511806D01*
X103630587Y-9496561D01*
X103630587Y-9496560D01*
X103630589Y-9496558D01*
X103719956Y-9304910D01*
X103774686Y-9100655D01*
X103793116Y-8890000D01*
X103774686Y-8679345D01*
X103719956Y-8475090D01*
X103630589Y-8283442D01*
X103630588Y-8283441D01*
X103630587Y-8283438D01*
X103509307Y-8110232D01*
X103509304Y-8110228D01*
X103509301Y-8110224D01*
X103359776Y-7960699D01*
X103359772Y-7960696D01*
X103359767Y-7960692D01*
X103186561Y-7839412D01*
X102994912Y-7750045D01*
X102994908Y-7750043D01*
X102900113Y-7724643D01*
X102790655Y-7695314D01*
X102580000Y-7676884D01*
X102369345Y-7695314D01*
X102320134Y-7708500D01*
X102165091Y-7750043D01*
X102165087Y-7750045D01*
X101973438Y-7839412D01*
X101800232Y-7960692D01*
X101800221Y-7960701D01*
X101650701Y-8110221D01*
X101650692Y-8110232D01*
X101529412Y-8283438D01*
X101440045Y-8475087D01*
X101440043Y-8475091D01*
X101437084Y-8486136D01*
X101385314Y-8679345D01*
X101366884Y-8890000D01*
X91832156Y-8890000D01*
X91845504Y-8763000D01*
X91825542Y-8573072D01*
X91766527Y-8391444D01*
X91671040Y-8226056D01*
X91671038Y-8226054D01*
X91671034Y-8226048D01*
X91543255Y-8084135D01*
X91388752Y-7971882D01*
X91214288Y-7894206D01*
X91027487Y-7854500D01*
X90836513Y-7854500D01*
X90649711Y-7894206D01*
X90475247Y-7971882D01*
X90320744Y-8084135D01*
X90192965Y-8226048D01*
X90192958Y-8226058D01*
X90097476Y-8391438D01*
X90097473Y-8391445D01*
X90038457Y-8573072D01*
X90018496Y-8763000D01*
X85798918Y-8763000D01*
X84721005Y-7685087D01*
X84686979Y-7622775D01*
X84684100Y-7595992D01*
X84684100Y-2506513D01*
X84704102Y-2438392D01*
X84716460Y-2422206D01*
X84813040Y-2314944D01*
X84829751Y-2286000D01*
X96876496Y-2286000D01*
X96896457Y-2475927D01*
X96917276Y-2540000D01*
X96955473Y-2657556D01*
X96955476Y-2657561D01*
X97050958Y-2822941D01*
X97050965Y-2822951D01*
X97178744Y-2964864D01*
X97189576Y-2972734D01*
X97333248Y-3077118D01*
X97507712Y-3154794D01*
X97694513Y-3194500D01*
X97885487Y-3194500D01*
X98072288Y-3154794D01*
X98246752Y-3077118D01*
X98401253Y-2964866D01*
X98529040Y-2822944D01*
X98624527Y-2657556D01*
X98683542Y-2475928D01*
X98703504Y-2286000D01*
X98683542Y-2096072D01*
X98624527Y-1914444D01*
X98529040Y-1749056D01*
X98529038Y-1749054D01*
X98529034Y-1749048D01*
X98401255Y-1607135D01*
X98246752Y-1494882D01*
X98072288Y-1417206D01*
X97885487Y-1377500D01*
X97694513Y-1377500D01*
X97507711Y-1417206D01*
X97333247Y-1494882D01*
X97178744Y-1607135D01*
X97050965Y-1749048D01*
X97050958Y-1749058D01*
X96955476Y-1914438D01*
X96955473Y-1914444D01*
X96940999Y-1958986D01*
X96896457Y-2096072D01*
X96876496Y-2286000D01*
X84829751Y-2286000D01*
X84908527Y-2149556D01*
X84967542Y-1967928D01*
X84987504Y-1778000D01*
X84967542Y-1588072D01*
X84908527Y-1406444D01*
X84813040Y-1241056D01*
X84813038Y-1241054D01*
X84813034Y-1241048D01*
X84685255Y-1099135D01*
X84530752Y-986882D01*
X84356288Y-909206D01*
X84169487Y-869500D01*
X83978513Y-869500D01*
X83791711Y-909206D01*
X83617247Y-986882D01*
X83462744Y-1099135D01*
X83334965Y-1241048D01*
X83334958Y-1241058D01*
X83239476Y-1406438D01*
X83239473Y-1406444D01*
X83227336Y-1443797D01*
X83180457Y-1588072D01*
X83160496Y-1778000D01*
X83180457Y-1967927D01*
X83203876Y-2040000D01*
X83239473Y-2149556D01*
X83239476Y-2149561D01*
X83329389Y-2305296D01*
X83334960Y-2314944D01*
X83431536Y-2422203D01*
X83462253Y-2486210D01*
X83463900Y-2506513D01*
X83463900Y-7819632D01*
X83462192Y-7835102D01*
X83462527Y-7835134D01*
X83461781Y-7843024D01*
X83463900Y-7910461D01*
X83463900Y-7939272D01*
X83463901Y-7939289D01*
X83464733Y-7945878D01*
X83465198Y-7951791D01*
X83466622Y-7997096D01*
X83471962Y-8015475D01*
X83475971Y-8034830D01*
X83477980Y-8050733D01*
X83478371Y-8053827D01*
X83495059Y-8095976D01*
X83496983Y-8101594D01*
X83509626Y-8145116D01*
X83509629Y-8145123D01*
X83519371Y-8161597D01*
X83528065Y-8179342D01*
X83535116Y-8197149D01*
X83561764Y-8233827D01*
X83565025Y-8238791D01*
X83588092Y-8277797D01*
X83588097Y-8277803D01*
X83601623Y-8291329D01*
X83614461Y-8306359D01*
X83625719Y-8321853D01*
X83625723Y-8321858D01*
X83660660Y-8350760D01*
X83665041Y-8354746D01*
X84939390Y-9629095D01*
X86162505Y-10852210D01*
X86196531Y-10914522D01*
X86191466Y-10985337D01*
X86148919Y-11042173D01*
X86099608Y-11064551D01*
X86077715Y-11069204D01*
X85903247Y-11146882D01*
X85748745Y-11259134D01*
X85732973Y-11276651D01*
X85672526Y-11313889D01*
X85601542Y-11312535D01*
X85550244Y-11281433D01*
X83039471Y-8770660D01*
X80498868Y-6230056D01*
X80489135Y-6217908D01*
X80488876Y-6218123D01*
X80483828Y-6212020D01*
X80483826Y-6212017D01*
X80434641Y-6165829D01*
X80414269Y-6145456D01*
X80409008Y-6141375D01*
X80404495Y-6137520D01*
X80371460Y-6106498D01*
X80371455Y-6106494D01*
X80354685Y-6097275D01*
X80338157Y-6086418D01*
X80323035Y-6074688D01*
X80323036Y-6074688D01*
X80323034Y-6074687D01*
X80323030Y-6074685D01*
X80323028Y-6074684D01*
X80298260Y-6063966D01*
X80281430Y-6056682D01*
X80276103Y-6054073D01*
X80236379Y-6032235D01*
X80217830Y-6027472D01*
X80199133Y-6021070D01*
X80181564Y-6013467D01*
X80136788Y-6006375D01*
X80130974Y-6005171D01*
X80107152Y-5999055D01*
X80087074Y-5993900D01*
X80087073Y-5993900D01*
X80067936Y-5993900D01*
X80048225Y-5992349D01*
X80029316Y-5989354D01*
X80029315Y-5989354D01*
X79984183Y-5993620D01*
X79978250Y-5993900D01*
X61264901Y-5993900D01*
X61196780Y-5973898D01*
X61175806Y-5956995D01*
X56010811Y-792000D01*
X77064496Y-792000D01*
X77084457Y-981927D01*
X77105154Y-1045624D01*
X77143473Y-1163556D01*
X77143476Y-1163561D01*
X77238958Y-1328941D01*
X77238965Y-1328951D01*
X77366744Y-1470864D01*
X77399104Y-1494375D01*
X77521248Y-1583118D01*
X77695712Y-1660794D01*
X77882513Y-1700500D01*
X78073487Y-1700500D01*
X78260288Y-1660794D01*
X78434752Y-1583118D01*
X78440438Y-1578986D01*
X78507303Y-1555123D01*
X78565754Y-1565809D01*
X78711712Y-1630794D01*
X78898513Y-1670500D01*
X79089487Y-1670500D01*
X79276288Y-1630794D01*
X79450752Y-1553118D01*
X79554940Y-1477420D01*
X79621806Y-1453563D01*
X79690958Y-1469643D01*
X79703056Y-1477417D01*
X79807248Y-1553118D01*
X79981712Y-1630794D01*
X80168513Y-1670500D01*
X80359487Y-1670500D01*
X80546288Y-1630794D01*
X80720752Y-1553118D01*
X80875253Y-1440866D01*
X80875256Y-1440863D01*
X80875257Y-1440863D01*
X81003034Y-1298951D01*
X81003035Y-1298949D01*
X81003040Y-1298944D01*
X81098527Y-1133556D01*
X81157542Y-951928D01*
X81177504Y-762000D01*
X81157542Y-572072D01*
X81098527Y-390444D01*
X81003040Y-225056D01*
X81003038Y-225054D01*
X81003034Y-225048D01*
X80875255Y-83135D01*
X80720752Y29118D01*
X80546288Y106794D01*
X80359487Y146500D01*
X80168513Y146500D01*
X79981711Y106794D01*
X79807247Y29118D01*
X79703061Y-46578D01*
X79636193Y-70437D01*
X79567041Y-54356D01*
X79554939Y-46578D01*
X79450752Y29118D01*
X79276288Y106794D01*
X79089487Y146500D01*
X78898513Y146500D01*
X78711711Y106794D01*
X78537243Y29116D01*
X78531548Y24978D01*
X78464679Y1123D01*
X78406243Y11811D01*
X78260288Y76794D01*
X78073487Y116500D01*
X77882513Y116500D01*
X77695711Y76794D01*
X77521247Y-882D01*
X77366744Y-113135D01*
X77238965Y-255048D01*
X77238958Y-255058D01*
X77143476Y-420438D01*
X77143473Y-420444D01*
X77139480Y-432734D01*
X77084457Y-602072D01*
X77064496Y-792000D01*
X56010811Y-792000D01*
X53968811Y1250000D01*
X101384884Y1250000D01*
X101403314Y1039345D01*
X101432643Y929887D01*
X101458043Y835092D01*
X101458045Y835088D01*
X101547412Y643439D01*
X101668692Y470233D01*
X101668696Y470228D01*
X101668699Y470224D01*
X101818224Y320699D01*
X101818228Y320696D01*
X101818232Y320693D01*
X101991438Y199413D01*
X101991441Y199412D01*
X101991442Y199411D01*
X102183090Y110044D01*
X102215168Y101449D01*
X102275792Y64499D01*
X102306815Y640D01*
X102298388Y-69855D01*
X102253186Y-124603D01*
X102215175Y-141964D01*
X102183265Y-150515D01*
X102183258Y-150517D01*
X101991690Y-239846D01*
X101941912Y-274701D01*
X101941912Y-274703D01*
X102558481Y-891272D01*
X102472852Y-904835D01*
X102359955Y-962359D01*
X102270359Y-1051955D01*
X102212835Y-1164852D01*
X102199272Y-1250481D01*
X101582703Y-633912D01*
X101582701Y-633912D01*
X101547846Y-683690D01*
X101458517Y-875258D01*
X101458515Y-875264D01*
X101403808Y-1079432D01*
X101385386Y-1290000D01*
X101403808Y-1500567D01*
X101458515Y-1704735D01*
X101458519Y-1704745D01*
X101547842Y-1896302D01*
X101547844Y-1896305D01*
X101582702Y-1946086D01*
X102199272Y-1329516D01*
X102212835Y-1415148D01*
X102270359Y-1528045D01*
X102359955Y-1617641D01*
X102472852Y-1675165D01*
X102558482Y-1688727D01*
X101941912Y-2305296D01*
X101941912Y-2305297D01*
X101991692Y-2340154D01*
X101991697Y-2340157D01*
X102183254Y-2429480D01*
X102183264Y-2429484D01*
X102387432Y-2484191D01*
X102598000Y-2502613D01*
X102808567Y-2484191D01*
X103012735Y-2429484D01*
X103012745Y-2429480D01*
X103204304Y-2340156D01*
X103204305Y-2340155D01*
X103254087Y-2305297D01*
X103254087Y-2305296D01*
X102637518Y-1688727D01*
X102723148Y-1675165D01*
X102836045Y-1617641D01*
X102925641Y-1528045D01*
X102983165Y-1415148D01*
X102996727Y-1329518D01*
X103613296Y-1946087D01*
X103613297Y-1946087D01*
X103648155Y-1896305D01*
X103648156Y-1896304D01*
X103737480Y-1704745D01*
X103737484Y-1704735D01*
X103792191Y-1500567D01*
X103810613Y-1290000D01*
X103792191Y-1079432D01*
X103737484Y-875264D01*
X103737480Y-875254D01*
X103648157Y-683697D01*
X103648154Y-683692D01*
X103613297Y-633912D01*
X103613296Y-633912D01*
X102996727Y-1250481D01*
X102983165Y-1164852D01*
X102925641Y-1051955D01*
X102836045Y-962359D01*
X102723148Y-904835D01*
X102637517Y-891272D01*
X103254086Y-274702D01*
X103254086Y-274701D01*
X103204305Y-239844D01*
X103204302Y-239842D01*
X103012745Y-150519D01*
X103012732Y-150514D01*
X102980825Y-141964D01*
X102920203Y-105011D01*
X102889183Y-41150D01*
X102897613Y29344D01*
X102942817Y84090D01*
X102980825Y101447D01*
X103012910Y110044D01*
X103204558Y199411D01*
X103377776Y320699D01*
X103527301Y470224D01*
X103648589Y643442D01*
X103737956Y835090D01*
X103792686Y1039345D01*
X103811116Y1250000D01*
X103792686Y1460655D01*
X103737956Y1664910D01*
X103648589Y1856558D01*
X103648588Y1856559D01*
X103648587Y1856562D01*
X103527307Y2029768D01*
X103527304Y2029772D01*
X103527301Y2029776D01*
X103377776Y2179301D01*
X103377772Y2179304D01*
X103377767Y2179308D01*
X103204561Y2300588D01*
X103012912Y2389955D01*
X103012908Y2389957D01*
X102918113Y2415357D01*
X102808655Y2444686D01*
X102598000Y2463116D01*
X102387345Y2444686D01*
X102332616Y2430022D01*
X102183091Y2389957D01*
X102183087Y2389955D01*
X101991438Y2300588D01*
X101818232Y2179308D01*
X101818221Y2179299D01*
X101668701Y2029779D01*
X101668692Y2029768D01*
X101547412Y1856562D01*
X101458045Y1664913D01*
X101458043Y1664909D01*
X101417978Y1515384D01*
X101403314Y1460655D01*
X101384884Y1250000D01*
X53968811Y1250000D01*
X51789811Y3429000D01*
X74143496Y3429000D01*
X74163457Y3239073D01*
X74183789Y3176500D01*
X74222473Y3057444D01*
X74222476Y3057439D01*
X74317958Y2892059D01*
X74317965Y2892049D01*
X74445744Y2750136D01*
X74445747Y2750134D01*
X74600248Y2637882D01*
X74774712Y2560206D01*
X74961513Y2520500D01*
X75152487Y2520500D01*
X75339288Y2560206D01*
X75513752Y2637882D01*
X75668253Y2750134D01*
X75796040Y2892056D01*
X75872218Y3024000D01*
X90434496Y3024000D01*
X90454457Y2834073D01*
X90463224Y2807092D01*
X90513473Y2652444D01*
X90513476Y2652439D01*
X90608958Y2487059D01*
X90608965Y2487049D01*
X90736744Y2345136D01*
X90736747Y2345134D01*
X90891248Y2232882D01*
X91065712Y2155206D01*
X91252513Y2115500D01*
X91443487Y2115500D01*
X91630288Y2155206D01*
X91804752Y2232882D01*
X91959253Y2345134D01*
X91964623Y2351098D01*
X92087034Y2487049D01*
X92087035Y2487051D01*
X92087040Y2487056D01*
X92182527Y2652444D01*
X92241542Y2834072D01*
X92261504Y3024000D01*
X92241542Y3213928D01*
X92182527Y3395556D01*
X92087040Y3560944D01*
X92087038Y3560946D01*
X92087034Y3560952D01*
X91959255Y3702865D01*
X91804752Y3815118D01*
X91630288Y3892794D01*
X91443487Y3932500D01*
X91252513Y3932500D01*
X91065711Y3892794D01*
X90891247Y3815118D01*
X90736744Y3702865D01*
X90608965Y3560952D01*
X90608958Y3560942D01*
X90513476Y3395562D01*
X90513473Y3395555D01*
X90454457Y3213928D01*
X90434496Y3024000D01*
X75872218Y3024000D01*
X75891527Y3057444D01*
X75950542Y3239072D01*
X75970504Y3429000D01*
X75950542Y3618928D01*
X75891527Y3800556D01*
X75796040Y3965944D01*
X75796038Y3965946D01*
X75796034Y3965952D01*
X75668255Y4107865D01*
X75513752Y4220118D01*
X75339288Y4297794D01*
X75152487Y4337500D01*
X74961513Y4337500D01*
X74774711Y4297794D01*
X74600247Y4220118D01*
X74445744Y4107865D01*
X74317965Y3965952D01*
X74317958Y3965942D01*
X74222476Y3800562D01*
X74222473Y3800556D01*
X74208827Y3758558D01*
X74163457Y3618928D01*
X74143496Y3429000D01*
X51789811Y3429000D01*
X46836812Y8382000D01*
X87224496Y8382000D01*
X87244457Y8192073D01*
X87271049Y8110233D01*
X87303473Y8010444D01*
X87303476Y8010439D01*
X87398958Y7845059D01*
X87398965Y7845049D01*
X87526744Y7703136D01*
X87570363Y7671445D01*
X87681248Y7590882D01*
X87855712Y7513206D01*
X88042513Y7473500D01*
X88233487Y7473500D01*
X88420288Y7513206D01*
X88594752Y7590882D01*
X88749253Y7703134D01*
X88791916Y7750516D01*
X88877034Y7845049D01*
X88877035Y7845051D01*
X88877040Y7845056D01*
X88972527Y8010444D01*
X89031542Y8192072D01*
X89051504Y8382000D01*
X96876496Y8382000D01*
X96896457Y8192073D01*
X96923049Y8110233D01*
X96955473Y8010444D01*
X96955476Y8010439D01*
X97050958Y7845059D01*
X97050965Y7845049D01*
X97178744Y7703136D01*
X97222363Y7671445D01*
X97333248Y7590882D01*
X97507712Y7513206D01*
X97694513Y7473500D01*
X97885487Y7473500D01*
X98072288Y7513206D01*
X98246752Y7590882D01*
X98401253Y7703134D01*
X98443916Y7750516D01*
X98529034Y7845049D01*
X98529035Y7845051D01*
X98529040Y7845056D01*
X98624527Y8010444D01*
X98683542Y8192072D01*
X98703504Y8382000D01*
X98683542Y8571928D01*
X98624527Y8753556D01*
X98529040Y8918944D01*
X98529038Y8918946D01*
X98529034Y8918952D01*
X98401255Y9060865D01*
X98246752Y9173118D01*
X98072288Y9250794D01*
X97885487Y9290500D01*
X97694513Y9290500D01*
X97507711Y9250794D01*
X97333247Y9173118D01*
X97178744Y9060865D01*
X97050965Y8918952D01*
X97050958Y8918942D01*
X96955476Y8753562D01*
X96955473Y8753555D01*
X96896457Y8571928D01*
X96876496Y8382000D01*
X89051504Y8382000D01*
X89031542Y8571928D01*
X88972527Y8753556D01*
X88877040Y8918944D01*
X88877038Y8918946D01*
X88877034Y8918952D01*
X88750313Y9059690D01*
X88719595Y9123697D01*
X88728360Y9194151D01*
X88750313Y9228310D01*
X88877034Y9369049D01*
X88877035Y9369051D01*
X88877040Y9369056D01*
X88972527Y9534444D01*
X89031542Y9716072D01*
X89051504Y9906000D01*
X89031542Y10095928D01*
X88972527Y10277556D01*
X88877040Y10442944D01*
X88877038Y10442946D01*
X88877034Y10442952D01*
X88749255Y10584865D01*
X88594752Y10697118D01*
X88420288Y10774794D01*
X88233487Y10814500D01*
X88042513Y10814500D01*
X87855711Y10774794D01*
X87681247Y10697118D01*
X87526744Y10584865D01*
X87398965Y10442952D01*
X87398958Y10442942D01*
X87303476Y10277562D01*
X87303473Y10277555D01*
X87244457Y10095928D01*
X87224496Y9906000D01*
X87244457Y9716073D01*
X87259503Y9669768D01*
X87303473Y9534444D01*
X87303476Y9534439D01*
X87398958Y9369059D01*
X87398961Y9369055D01*
X87525687Y9228310D01*
X87556404Y9164302D01*
X87547639Y9093849D01*
X87525687Y9059690D01*
X87398961Y8918946D01*
X87398958Y8918942D01*
X87303476Y8753562D01*
X87303473Y8753555D01*
X87244457Y8571928D01*
X87224496Y8382000D01*
X46836812Y8382000D01*
X43788812Y11430000D01*
X101366884Y11430000D01*
X101385314Y11219345D01*
X101414643Y11109887D01*
X101440043Y11015092D01*
X101440045Y11015088D01*
X101529412Y10823439D01*
X101650692Y10650233D01*
X101650696Y10650228D01*
X101650699Y10650224D01*
X101800224Y10500699D01*
X101800228Y10500696D01*
X101800232Y10500693D01*
X101973438Y10379413D01*
X101973441Y10379412D01*
X101973442Y10379411D01*
X102165090Y10290044D01*
X102197168Y10281449D01*
X102257792Y10244499D01*
X102288815Y10180640D01*
X102280388Y10110145D01*
X102235186Y10055397D01*
X102197175Y10038036D01*
X102165265Y10029485D01*
X102165258Y10029483D01*
X101973690Y9940154D01*
X101923912Y9905299D01*
X101923912Y9905297D01*
X102540481Y9288728D01*
X102454852Y9275165D01*
X102341955Y9217641D01*
X102252359Y9128045D01*
X102194835Y9015148D01*
X102181272Y8929519D01*
X101564703Y9546088D01*
X101564701Y9546088D01*
X101529846Y9496310D01*
X101440517Y9304742D01*
X101440515Y9304736D01*
X101385808Y9100568D01*
X101367386Y8890000D01*
X101385808Y8679433D01*
X101440515Y8475265D01*
X101440519Y8475255D01*
X101529842Y8283698D01*
X101529844Y8283695D01*
X101564702Y8233914D01*
X102181272Y8850484D01*
X102194835Y8764852D01*
X102252359Y8651955D01*
X102341955Y8562359D01*
X102454852Y8504835D01*
X102540482Y8491273D01*
X101923912Y7874704D01*
X101923912Y7874703D01*
X101973692Y7839846D01*
X101973697Y7839843D01*
X102165254Y7750520D01*
X102165264Y7750516D01*
X102369432Y7695809D01*
X102580000Y7677387D01*
X102790567Y7695809D01*
X102994735Y7750516D01*
X102994745Y7750520D01*
X103186304Y7839844D01*
X103186305Y7839845D01*
X103236087Y7874703D01*
X103236087Y7874704D01*
X102619518Y8491273D01*
X102705148Y8504835D01*
X102818045Y8562359D01*
X102907641Y8651955D01*
X102965165Y8764852D01*
X102978727Y8850482D01*
X103595296Y8233913D01*
X103595297Y8233913D01*
X103630155Y8283695D01*
X103630156Y8283696D01*
X103719480Y8475255D01*
X103719484Y8475265D01*
X103774191Y8679433D01*
X103792613Y8890000D01*
X103774191Y9100568D01*
X103719484Y9304736D01*
X103719480Y9304746D01*
X103630157Y9496303D01*
X103630154Y9496308D01*
X103595297Y9546088D01*
X103595296Y9546088D01*
X102978727Y8929519D01*
X102965165Y9015148D01*
X102907641Y9128045D01*
X102818045Y9217641D01*
X102705148Y9275165D01*
X102619517Y9288728D01*
X103236086Y9905298D01*
X103236086Y9905299D01*
X103186305Y9940156D01*
X103186302Y9940158D01*
X102994745Y10029481D01*
X102994732Y10029486D01*
X102962825Y10038036D01*
X102902203Y10074989D01*
X102871183Y10138850D01*
X102879613Y10209344D01*
X102924817Y10264090D01*
X102962825Y10281447D01*
X102994910Y10290044D01*
X103186558Y10379411D01*
X103359776Y10500699D01*
X103509301Y10650224D01*
X103630589Y10823442D01*
X103719956Y11015090D01*
X103774686Y11219345D01*
X103793116Y11430000D01*
X103774686Y11640655D01*
X103719956Y11844910D01*
X103630589Y12036558D01*
X103630588Y12036559D01*
X103630587Y12036562D01*
X103509307Y12209768D01*
X103509304Y12209772D01*
X103509301Y12209776D01*
X103359776Y12359301D01*
X103359772Y12359304D01*
X103359767Y12359308D01*
X103186561Y12480588D01*
X102994912Y12569955D01*
X102994908Y12569957D01*
X102900113Y12595357D01*
X102790655Y12624686D01*
X102580000Y12643116D01*
X102369345Y12624686D01*
X102314616Y12610022D01*
X102165091Y12569957D01*
X102165087Y12569955D01*
X101973438Y12480588D01*
X101800232Y12359308D01*
X101800221Y12359299D01*
X101650701Y12209779D01*
X101650692Y12209768D01*
X101529412Y12036562D01*
X101440045Y11844913D01*
X101440043Y11844909D01*
X101407126Y11722059D01*
X101385314Y11640655D01*
X101366884Y11430000D01*
X43788812Y11430000D01*
X42518812Y12700000D01*
X87224496Y12700000D01*
X87244457Y12510073D01*
X87254038Y12480588D01*
X87303473Y12328444D01*
X87303476Y12328439D01*
X87398958Y12163059D01*
X87398965Y12163049D01*
X87526744Y12021136D01*
X87526747Y12021134D01*
X87681248Y11908882D01*
X87855712Y11831206D01*
X88042513Y11791500D01*
X88233487Y11791500D01*
X88420288Y11831206D01*
X88594752Y11908882D01*
X88749253Y12021134D01*
X88763141Y12036558D01*
X88877034Y12163049D01*
X88877035Y12163051D01*
X88877040Y12163056D01*
X88972527Y12328444D01*
X89031542Y12510072D01*
X89051504Y12700000D01*
X89031542Y12889928D01*
X88972527Y13071556D01*
X88877040Y13236944D01*
X88877038Y13236946D01*
X88877034Y13236952D01*
X88749255Y13378865D01*
X88594752Y13491118D01*
X88420288Y13568794D01*
X88233487Y13608500D01*
X88042513Y13608500D01*
X87855711Y13568794D01*
X87681247Y13491118D01*
X87526744Y13378865D01*
X87398965Y13236952D01*
X87398958Y13236942D01*
X87303476Y13071562D01*
X87303473Y13071555D01*
X87244457Y12889928D01*
X87224496Y12700000D01*
X42518812Y12700000D01*
X39724812Y15494000D01*
X87224496Y15494000D01*
X87244457Y15304073D01*
X87274526Y15211530D01*
X87303473Y15122444D01*
X87303476Y15122439D01*
X87398958Y14957059D01*
X87398965Y14957049D01*
X87526744Y14815136D01*
X87526747Y14815134D01*
X87681248Y14702882D01*
X87855712Y14625206D01*
X88042513Y14585500D01*
X88233487Y14585500D01*
X88420288Y14625206D01*
X88594752Y14702882D01*
X88749253Y14815134D01*
X88877040Y14957056D01*
X88972527Y15122444D01*
X89031542Y15304072D01*
X89051504Y15494000D01*
X89031542Y15683928D01*
X88972527Y15865556D01*
X88877040Y16030944D01*
X88877038Y16030946D01*
X88877034Y16030952D01*
X88749255Y16172865D01*
X88594752Y16285118D01*
X88420288Y16362794D01*
X88233487Y16402500D01*
X88042513Y16402500D01*
X87855711Y16362794D01*
X87681247Y16285118D01*
X87526744Y16172865D01*
X87398965Y16030952D01*
X87398958Y16030942D01*
X87303476Y15865562D01*
X87303473Y15865556D01*
X87288999Y15821014D01*
X87244457Y15683928D01*
X87224496Y15494000D01*
X39724812Y15494000D01*
X38747005Y16471807D01*
X38712979Y16534119D01*
X38710100Y16560902D01*
X38710100Y18542000D01*
X96876496Y18542000D01*
X96896457Y18352073D01*
X96923049Y18270233D01*
X96955473Y18170444D01*
X96955476Y18170439D01*
X97050958Y18005059D01*
X97050965Y18005049D01*
X97178744Y17863136D01*
X97239999Y17818632D01*
X97333248Y17750882D01*
X97507712Y17673206D01*
X97694513Y17633500D01*
X97885487Y17633500D01*
X98072288Y17673206D01*
X98246752Y17750882D01*
X98401253Y17863134D01*
X98443916Y17910516D01*
X98529034Y18005049D01*
X98529035Y18005051D01*
X98529040Y18005056D01*
X98624527Y18170444D01*
X98683542Y18352072D01*
X98703504Y18542000D01*
X98683542Y18731928D01*
X98624527Y18913556D01*
X98529040Y19078944D01*
X98529038Y19078946D01*
X98529034Y19078952D01*
X98401255Y19220865D01*
X98246752Y19333118D01*
X98072288Y19410794D01*
X97885487Y19450500D01*
X97694513Y19450500D01*
X97507711Y19410794D01*
X97333247Y19333118D01*
X97178744Y19220865D01*
X97050965Y19078952D01*
X97050958Y19078942D01*
X96955476Y18913562D01*
X96955473Y18913555D01*
X96896457Y18731928D01*
X96876496Y18542000D01*
X38710100Y18542000D01*
X38710100Y20320000D01*
X58522496Y20320000D01*
X58542457Y20130073D01*
X58563505Y20065297D01*
X58601473Y19948444D01*
X58601476Y19948439D01*
X58696958Y19783059D01*
X58696965Y19783049D01*
X58824744Y19641136D01*
X58824747Y19641134D01*
X58979248Y19528882D01*
X59153712Y19451206D01*
X59340513Y19411500D01*
X59531487Y19411500D01*
X59718288Y19451206D01*
X59892752Y19528882D01*
X60047253Y19641134D01*
X60104364Y19704564D01*
X60164809Y19741802D01*
X60235793Y19740451D01*
X60291635Y19704564D01*
X60348747Y19641134D01*
X60503248Y19528882D01*
X60677712Y19451206D01*
X60864513Y19411500D01*
X61055487Y19411500D01*
X61242288Y19451206D01*
X61416752Y19528882D01*
X61571253Y19641134D01*
X61628364Y19704564D01*
X61688809Y19741802D01*
X61759793Y19740451D01*
X61815635Y19704564D01*
X61872747Y19641134D01*
X62027248Y19528882D01*
X62201712Y19451206D01*
X62388513Y19411500D01*
X62579487Y19411500D01*
X62766288Y19451206D01*
X62940752Y19528882D01*
X63095253Y19641134D01*
X63109141Y19656558D01*
X63223034Y19783049D01*
X63223035Y19783051D01*
X63223040Y19783056D01*
X63318527Y19948444D01*
X63377542Y20130072D01*
X63397504Y20320000D01*
X63377542Y20509928D01*
X63318527Y20691556D01*
X63223040Y20856944D01*
X63223038Y20856946D01*
X63223034Y20856952D01*
X63095255Y20998865D01*
X62940752Y21111118D01*
X62766288Y21188794D01*
X62579487Y21228500D01*
X62388513Y21228500D01*
X62201711Y21188794D01*
X62027247Y21111118D01*
X61872744Y20998865D01*
X61815636Y20935439D01*
X61755190Y20898199D01*
X61684207Y20899551D01*
X61628364Y20935439D01*
X61571255Y20998865D01*
X61416752Y21111118D01*
X61242288Y21188794D01*
X61055487Y21228500D01*
X60864513Y21228500D01*
X60677711Y21188794D01*
X60503247Y21111118D01*
X60348744Y20998865D01*
X60291636Y20935439D01*
X60231190Y20898199D01*
X60160207Y20899551D01*
X60104364Y20935439D01*
X60047255Y20998865D01*
X59892752Y21111118D01*
X59718288Y21188794D01*
X59531487Y21228500D01*
X59340513Y21228500D01*
X59153711Y21188794D01*
X58979247Y21111118D01*
X58824744Y20998865D01*
X58696965Y20856952D01*
X58696958Y20856942D01*
X58601476Y20691562D01*
X58601473Y20691555D01*
X58542457Y20509928D01*
X58522496Y20320000D01*
X38710100Y20320000D01*
X38710100Y21062943D01*
X38711808Y21078414D01*
X38711474Y21078445D01*
X38712220Y21086338D01*
X38710100Y21153795D01*
X38710100Y21182592D01*
X38710100Y21182593D01*
X38709267Y21189185D01*
X38708802Y21195088D01*
X38707378Y21240409D01*
X38702037Y21258791D01*
X38698027Y21278153D01*
X38695629Y21297142D01*
X38678936Y21339304D01*
X38677022Y21344895D01*
X38664373Y21388435D01*
X38654621Y21404924D01*
X38645931Y21422664D01*
X38638884Y21440464D01*
X38612237Y21477141D01*
X38608986Y21482089D01*
X38594158Y21507162D01*
X38585906Y21521117D01*
X38572374Y21534649D01*
X38559533Y21549682D01*
X38558656Y21550889D01*
X38548279Y21565172D01*
X38513335Y21594080D01*
X38508962Y21598060D01*
X36739022Y23368000D01*
X95606496Y23368000D01*
X95626457Y23178073D01*
X95647276Y23114000D01*
X95685473Y22996444D01*
X95685476Y22996439D01*
X95780958Y22831059D01*
X95780965Y22831049D01*
X95908744Y22689136D01*
X95908747Y22689134D01*
X96063248Y22576882D01*
X96237712Y22499206D01*
X96424513Y22459500D01*
X96615487Y22459500D01*
X96802288Y22499206D01*
X96902464Y22543807D01*
X96953713Y22554700D01*
X101538140Y22554700D01*
X101606261Y22534698D01*
X101652754Y22481042D01*
X101662858Y22410768D01*
X101641353Y22356430D01*
X101529412Y22196562D01*
X101440045Y22004913D01*
X101440043Y22004909D01*
X101409166Y21889672D01*
X101385314Y21800655D01*
X101366884Y21590000D01*
X101385314Y21379345D01*
X101407340Y21297142D01*
X101440043Y21175092D01*
X101440045Y21175088D01*
X101529412Y20983439D01*
X101650692Y20810233D01*
X101650696Y20810228D01*
X101650699Y20810224D01*
X101800224Y20660699D01*
X101800228Y20660696D01*
X101800232Y20660693D01*
X101973438Y20539413D01*
X101973441Y20539412D01*
X101973442Y20539411D01*
X102165090Y20450044D01*
X102197168Y20441449D01*
X102257792Y20404499D01*
X102288815Y20340640D01*
X102280388Y20270145D01*
X102235186Y20215397D01*
X102197175Y20198036D01*
X102165265Y20189485D01*
X102165258Y20189483D01*
X101973690Y20100154D01*
X101923912Y20065299D01*
X101923912Y20065297D01*
X102540481Y19448728D01*
X102454852Y19435165D01*
X102341955Y19377641D01*
X102252359Y19288045D01*
X102194835Y19175148D01*
X102181272Y19089519D01*
X101564703Y19706088D01*
X101564701Y19706088D01*
X101529846Y19656310D01*
X101440517Y19464742D01*
X101440515Y19464736D01*
X101385808Y19260568D01*
X101367386Y19050000D01*
X101385808Y18839433D01*
X101440515Y18635265D01*
X101440519Y18635255D01*
X101529842Y18443698D01*
X101529844Y18443695D01*
X101564702Y18393914D01*
X102181272Y19010484D01*
X102194835Y18924852D01*
X102252359Y18811955D01*
X102341955Y18722359D01*
X102454852Y18664835D01*
X102540482Y18651273D01*
X101923912Y18034704D01*
X101923912Y18034703D01*
X101973692Y17999846D01*
X101973697Y17999843D01*
X102165254Y17910520D01*
X102165264Y17910516D01*
X102369432Y17855809D01*
X102580000Y17837387D01*
X102790567Y17855809D01*
X102994735Y17910516D01*
X102994745Y17910520D01*
X103186304Y17999844D01*
X103186305Y17999845D01*
X103236087Y18034703D01*
X103236087Y18034704D01*
X102619518Y18651273D01*
X102705148Y18664835D01*
X102818045Y18722359D01*
X102907641Y18811955D01*
X102965165Y18924852D01*
X102978727Y19010482D01*
X103595296Y18393913D01*
X103595297Y18393913D01*
X103630155Y18443695D01*
X103630156Y18443696D01*
X103719480Y18635255D01*
X103719484Y18635265D01*
X103774191Y18839433D01*
X103792613Y19050000D01*
X103774191Y19260568D01*
X103719484Y19464736D01*
X103719480Y19464746D01*
X103630157Y19656303D01*
X103630154Y19656308D01*
X103595297Y19706088D01*
X103595296Y19706088D01*
X102978727Y19089519D01*
X102965165Y19175148D01*
X102907641Y19288045D01*
X102818045Y19377641D01*
X102705148Y19435165D01*
X102619517Y19448728D01*
X103236086Y20065298D01*
X103236086Y20065299D01*
X103186305Y20100156D01*
X103186302Y20100158D01*
X102994745Y20189481D01*
X102994732Y20189486D01*
X102962825Y20198036D01*
X102902203Y20234989D01*
X102871183Y20298850D01*
X102879613Y20369344D01*
X102924817Y20424090D01*
X102962825Y20441447D01*
X102994910Y20450044D01*
X103186558Y20539411D01*
X103359776Y20660699D01*
X103509301Y20810224D01*
X103630589Y20983442D01*
X103719956Y21175090D01*
X103774686Y21379345D01*
X103793116Y21590000D01*
X103774686Y21800655D01*
X103719956Y22004910D01*
X103630589Y22196558D01*
X103630588Y22196559D01*
X103630587Y22196562D01*
X103518647Y22356430D01*
X103495959Y22423704D01*
X103513244Y22492564D01*
X103565014Y22541148D01*
X103621860Y22554700D01*
X105638140Y22554700D01*
X105706261Y22534698D01*
X105752754Y22481042D01*
X105762858Y22410768D01*
X105741353Y22356430D01*
X105629412Y22196562D01*
X105540045Y22004913D01*
X105540043Y22004909D01*
X105509166Y21889672D01*
X105485314Y21800655D01*
X105466884Y21590000D01*
X105485314Y21379345D01*
X105507340Y21297142D01*
X105540043Y21175092D01*
X105540045Y21175088D01*
X105629412Y20983439D01*
X105750692Y20810233D01*
X105750696Y20810228D01*
X105750699Y20810224D01*
X105900224Y20660699D01*
X105900228Y20660696D01*
X105900232Y20660693D01*
X106073438Y20539413D01*
X106073441Y20539412D01*
X106073442Y20539411D01*
X106265090Y20450044D01*
X106296205Y20441707D01*
X106356828Y20404755D01*
X106387849Y20340895D01*
X106379421Y20270400D01*
X106334218Y20215653D01*
X106296206Y20198294D01*
X106288406Y20196204D01*
X106265091Y20189957D01*
X106265087Y20189955D01*
X106073438Y20100588D01*
X105900232Y19979308D01*
X105900221Y19979299D01*
X105750701Y19829779D01*
X105750692Y19829768D01*
X105629412Y19656562D01*
X105540045Y19464913D01*
X105540043Y19464909D01*
X105525119Y19409210D01*
X105485314Y19260655D01*
X105466884Y19050000D01*
X105485314Y18839345D01*
X105514096Y18731928D01*
X105540043Y18635092D01*
X105540045Y18635088D01*
X105629412Y18443439D01*
X105750692Y18270233D01*
X105750696Y18270228D01*
X105750699Y18270224D01*
X105850477Y18170446D01*
X105900223Y18120700D01*
X106016170Y18039514D01*
X106060499Y17984057D01*
X106069900Y17936300D01*
X106069900Y12543701D01*
X106049898Y12475580D01*
X106016171Y12440488D01*
X105900227Y12359304D01*
X105900221Y12359299D01*
X105750701Y12209779D01*
X105750692Y12209768D01*
X105629412Y12036562D01*
X105540045Y11844913D01*
X105540043Y11844909D01*
X105507126Y11722059D01*
X105485314Y11640655D01*
X105466884Y11430000D01*
X105485314Y11219345D01*
X105514643Y11109887D01*
X105540043Y11015092D01*
X105540045Y11015088D01*
X105629412Y10823439D01*
X105750692Y10650233D01*
X105750696Y10650228D01*
X105750699Y10650224D01*
X105900224Y10500699D01*
X105900228Y10500696D01*
X105900232Y10500693D01*
X106073438Y10379413D01*
X106073441Y10379412D01*
X106073442Y10379411D01*
X106265090Y10290044D01*
X106296205Y10281707D01*
X106356828Y10244755D01*
X106387849Y10180895D01*
X106379421Y10110400D01*
X106334218Y10055653D01*
X106296206Y10038294D01*
X106288406Y10036204D01*
X106265091Y10029957D01*
X106265087Y10029955D01*
X106073438Y9940588D01*
X105900232Y9819308D01*
X105900221Y9819299D01*
X105750701Y9669779D01*
X105750692Y9669768D01*
X105629412Y9496562D01*
X105540045Y9304913D01*
X105540043Y9304909D01*
X105525119Y9249210D01*
X105485314Y9100655D01*
X105466884Y8890000D01*
X105485314Y8679345D01*
X105514096Y8571928D01*
X105540043Y8475092D01*
X105540045Y8475088D01*
X105629412Y8283439D01*
X105750692Y8110233D01*
X105750696Y8110228D01*
X105750699Y8110224D01*
X105850477Y8010446D01*
X105900223Y7960700D01*
X106016170Y7879514D01*
X106060499Y7824057D01*
X106069900Y7776300D01*
X106069900Y2351098D01*
X106049898Y2282977D01*
X106016171Y2247885D01*
X105918227Y2179304D01*
X105918221Y2179299D01*
X105768701Y2029779D01*
X105768692Y2029768D01*
X105647412Y1856562D01*
X105558045Y1664913D01*
X105558043Y1664909D01*
X105517978Y1515384D01*
X105503314Y1460655D01*
X105484884Y1250000D01*
X105503314Y1039345D01*
X105532643Y929887D01*
X105558043Y835092D01*
X105558045Y835088D01*
X105647412Y643439D01*
X105768692Y470233D01*
X105768696Y470228D01*
X105768699Y470224D01*
X105918224Y320699D01*
X105918228Y320696D01*
X105918232Y320693D01*
X106091438Y199413D01*
X106091441Y199412D01*
X106091442Y199411D01*
X106283090Y110044D01*
X106314205Y101707D01*
X106374828Y64755D01*
X106405849Y895D01*
X106397421Y-69600D01*
X106352218Y-124347D01*
X106314206Y-141706D01*
X106306406Y-143796D01*
X106283091Y-150043D01*
X106283087Y-150045D01*
X106091438Y-239412D01*
X105918232Y-360692D01*
X105918221Y-360701D01*
X105768701Y-510221D01*
X105768692Y-510232D01*
X105647412Y-683438D01*
X105558045Y-875087D01*
X105558043Y-875091D01*
X105537455Y-951928D01*
X105503314Y-1079345D01*
X105484884Y-1290000D01*
X105503314Y-1500655D01*
X105524789Y-1580799D01*
X105558043Y-1704908D01*
X105558045Y-1704912D01*
X105647412Y-1896561D01*
X105768692Y-2069767D01*
X105768696Y-2069772D01*
X105768699Y-2069776D01*
X105918224Y-2219301D01*
X106016171Y-2287884D01*
X106060499Y-2343339D01*
X106069900Y-2391096D01*
X106069900Y-7776299D01*
X106049898Y-7844420D01*
X106016171Y-7879512D01*
X105900227Y-7960696D01*
X105900221Y-7960701D01*
X105750701Y-8110221D01*
X105750692Y-8110232D01*
X105629412Y-8283438D01*
X105540045Y-8475087D01*
X105540043Y-8475091D01*
X105537084Y-8486136D01*
X105485314Y-8679345D01*
X105466884Y-8890000D01*
X105485314Y-9100655D01*
X105494398Y-9134556D01*
X105540043Y-9304908D01*
X105540045Y-9304912D01*
X105629412Y-9496561D01*
X105750692Y-9669767D01*
X105750696Y-9669772D01*
X105750699Y-9669776D01*
X105900224Y-9819301D01*
X105900228Y-9819304D01*
X105900232Y-9819307D01*
X106073438Y-9940587D01*
X106073441Y-9940588D01*
X106073442Y-9940589D01*
X106265090Y-10029956D01*
X106296205Y-10038293D01*
X106356828Y-10075245D01*
X106387849Y-10139105D01*
X106379421Y-10209600D01*
X106334218Y-10264347D01*
X106296206Y-10281706D01*
X106288406Y-10283796D01*
X106265091Y-10290043D01*
X106265087Y-10290045D01*
X106073438Y-10379412D01*
X105900232Y-10500692D01*
X105900221Y-10500701D01*
X105750701Y-10650221D01*
X105750692Y-10650232D01*
X105629412Y-10823438D01*
X105540045Y-11015087D01*
X105540043Y-11015091D01*
X105499978Y-11164616D01*
X105485314Y-11219345D01*
X105466884Y-11430000D01*
X105485314Y-11640655D01*
X105514096Y-11748072D01*
X105540043Y-11844908D01*
X105540045Y-11844912D01*
X105629412Y-12036561D01*
X105750692Y-12209767D01*
X105750696Y-12209772D01*
X105750699Y-12209776D01*
X105850477Y-12309554D01*
X105900223Y-12359300D01*
X106016170Y-12440486D01*
X106060499Y-12495943D01*
X106069900Y-12543700D01*
X106069900Y-17968902D01*
X106049898Y-18037023D01*
X106016171Y-18072115D01*
X105918227Y-18140696D01*
X105918221Y-18140701D01*
X105768701Y-18290221D01*
X105768692Y-18290232D01*
X105647412Y-18463438D01*
X105558045Y-18655087D01*
X105558043Y-18655091D01*
X105522818Y-18786554D01*
X105503314Y-18859345D01*
X105484884Y-19070000D01*
X105503314Y-19280655D01*
X105532643Y-19390113D01*
X105558043Y-19484908D01*
X105558045Y-19484912D01*
X105647412Y-19676561D01*
X105768692Y-19849767D01*
X105768696Y-19849772D01*
X105768699Y-19849776D01*
X105918224Y-19999301D01*
X105918228Y-19999304D01*
X105918232Y-19999307D01*
X106091438Y-20120587D01*
X106091441Y-20120588D01*
X106091442Y-20120589D01*
X106283090Y-20209956D01*
X106314205Y-20218293D01*
X106374828Y-20255245D01*
X106405849Y-20319105D01*
X106397421Y-20389600D01*
X106352218Y-20444347D01*
X106314206Y-20461706D01*
X106306406Y-20463796D01*
X106283091Y-20470043D01*
X106283087Y-20470045D01*
X106091438Y-20559412D01*
X105918232Y-20680692D01*
X105918221Y-20680701D01*
X105768701Y-20830221D01*
X105768692Y-20830232D01*
X105647412Y-21003438D01*
X105558045Y-21195087D01*
X105558043Y-21195091D01*
X105543119Y-21250790D01*
X105503314Y-21399345D01*
X105484884Y-21610000D01*
X105503314Y-21820655D01*
X105503314Y-21820658D01*
X105503315Y-21820660D01*
X105503315Y-21820663D01*
X105510102Y-21845993D01*
X105508411Y-21916970D01*
X105477490Y-21967697D01*
X101734054Y-25711132D01*
X101721911Y-25720861D01*
X101722125Y-25721120D01*
X101716017Y-25726172D01*
X101669828Y-25775358D01*
X101649453Y-25795734D01*
X101649452Y-25795734D01*
X101645374Y-25800992D01*
X101641523Y-25805500D01*
X101610499Y-25838537D01*
X101610495Y-25838542D01*
X101601277Y-25855311D01*
X101590424Y-25871833D01*
X101578686Y-25886965D01*
X101560681Y-25928572D01*
X101558070Y-25933902D01*
X101536235Y-25973620D01*
X101531473Y-25992165D01*
X101525074Y-26010855D01*
X101517468Y-26028434D01*
X101510377Y-26073200D01*
X101509173Y-26079014D01*
X101497900Y-26122924D01*
X101497900Y-26142063D01*
X101496349Y-26161773D01*
X101493354Y-26180683D01*
X101493354Y-26180684D01*
X101497620Y-26225816D01*
X101497900Y-26231749D01*
X101497900Y-41066738D01*
X101496192Y-41082208D01*
X101496527Y-41082240D01*
X101495781Y-41090130D01*
X101497900Y-41157567D01*
X101497900Y-41186378D01*
X101497901Y-41186395D01*
X101498733Y-41192984D01*
X101499198Y-41198897D01*
X101500622Y-41244202D01*
X101505962Y-41262581D01*
X101509971Y-41281936D01*
X101510313Y-41284638D01*
X101512371Y-41300933D01*
X101529059Y-41343082D01*
X101530983Y-41348700D01*
X101543626Y-41392222D01*
X101543629Y-41392229D01*
X101553371Y-41408703D01*
X101562065Y-41426448D01*
X101569116Y-41444255D01*
X101595764Y-41480933D01*
X101599025Y-41485897D01*
X101622092Y-41524903D01*
X101622097Y-41524909D01*
X101635623Y-41538435D01*
X101648461Y-41553465D01*
X101659719Y-41568959D01*
X101659723Y-41568964D01*
X101694660Y-41597866D01*
X101699041Y-41601852D01*
X102491869Y-42394680D01*
X103283958Y-43186769D01*
X103317984Y-43249081D01*
X103312919Y-43319896D01*
X103270372Y-43376732D01*
X103203852Y-43401543D01*
X103141613Y-43390059D01*
X103012913Y-43330045D01*
X103012908Y-43330043D01*
X102918113Y-43304643D01*
X102808655Y-43275314D01*
X102598000Y-43256884D01*
X102387345Y-43275314D01*
X102332616Y-43289978D01*
X102183091Y-43330043D01*
X102183087Y-43330045D01*
X101991438Y-43419412D01*
X101818232Y-43540692D01*
X101818221Y-43540701D01*
X101668701Y-43690221D01*
X101668692Y-43690232D01*
X101547412Y-43863438D01*
X101458045Y-44055087D01*
X101458043Y-44055091D01*
X101417978Y-44204616D01*
X101403314Y-44259345D01*
X101384884Y-44470000D01*
X101403314Y-44680655D01*
X101416856Y-44731194D01*
X101458043Y-44884908D01*
X101458045Y-44884912D01*
X101547412Y-45076561D01*
X101668692Y-45249767D01*
X101668696Y-45249772D01*
X101668699Y-45249776D01*
X101818224Y-45399301D01*
X101818228Y-45399304D01*
X101818232Y-45399307D01*
X101991438Y-45520587D01*
X101991441Y-45520588D01*
X101991442Y-45520589D01*
X102183090Y-45609956D01*
X102215168Y-45618551D01*
X102275792Y-45655501D01*
X102306815Y-45719360D01*
X102298388Y-45789855D01*
X102253186Y-45844603D01*
X102215175Y-45861964D01*
X102183265Y-45870515D01*
X102183258Y-45870517D01*
X101991690Y-45959846D01*
X101941912Y-45994701D01*
X101941912Y-45994703D01*
X102558481Y-46611272D01*
X102472852Y-46624835D01*
X102359955Y-46682359D01*
X102270359Y-46771955D01*
X102212835Y-46884852D01*
X102199272Y-46970481D01*
X101582703Y-46353912D01*
X101582701Y-46353912D01*
X101547846Y-46403690D01*
X101458517Y-46595258D01*
X101458515Y-46595264D01*
X101403808Y-46799432D01*
X101385386Y-47010000D01*
X101403808Y-47220567D01*
X101458515Y-47424735D01*
X101458519Y-47424745D01*
X101547842Y-47616302D01*
X101547844Y-47616305D01*
X101582702Y-47666086D01*
X102199272Y-47049516D01*
X102212835Y-47135148D01*
X102270359Y-47248045D01*
X102359955Y-47337641D01*
X102472852Y-47395165D01*
X102558482Y-47408727D01*
X101941912Y-48025296D01*
X101941912Y-48025297D01*
X101991692Y-48060154D01*
X101991697Y-48060157D01*
X102183254Y-48149480D01*
X102183264Y-48149484D01*
X102387432Y-48204191D01*
X102598000Y-48222613D01*
X102808567Y-48204191D01*
X103012735Y-48149484D01*
X103012745Y-48149480D01*
X103204304Y-48060156D01*
X103204305Y-48060155D01*
X103254087Y-48025297D01*
X103254087Y-48025296D01*
X102637518Y-47408727D01*
X102723148Y-47395165D01*
X102836045Y-47337641D01*
X102925641Y-47248045D01*
X102983165Y-47135148D01*
X102996727Y-47049518D01*
X103613296Y-47666087D01*
X103613297Y-47666087D01*
X103648155Y-47616305D01*
X103648156Y-47616304D01*
X103737480Y-47424745D01*
X103737484Y-47424735D01*
X103792191Y-47220567D01*
X103810613Y-47010000D01*
X103792191Y-46799432D01*
X103737484Y-46595264D01*
X103737480Y-46595254D01*
X103648157Y-46403697D01*
X103648154Y-46403692D01*
X103613297Y-46353912D01*
X103613296Y-46353912D01*
X102996727Y-46970481D01*
X102983165Y-46884852D01*
X102925641Y-46771955D01*
X102836045Y-46682359D01*
X102723148Y-46624835D01*
X102637517Y-46611272D01*
X103254086Y-45994702D01*
X103254086Y-45994701D01*
X103204305Y-45959844D01*
X103204302Y-45959842D01*
X103012745Y-45870519D01*
X103012732Y-45870514D01*
X102980825Y-45861964D01*
X102920203Y-45825011D01*
X102889183Y-45761150D01*
X102897613Y-45690656D01*
X102942817Y-45635910D01*
X102980825Y-45618553D01*
X103012910Y-45609956D01*
X103204558Y-45520589D01*
X103377776Y-45399301D01*
X103527301Y-45249776D01*
X103642926Y-45084646D01*
X103648587Y-45076561D01*
X103648587Y-45076560D01*
X103648589Y-45076558D01*
X103737956Y-44884910D01*
X103792686Y-44680655D01*
X103811116Y-44470000D01*
X103792686Y-44259345D01*
X103737956Y-44055090D01*
X103677939Y-43926385D01*
X103667279Y-43856195D01*
X103696259Y-43791382D01*
X103755678Y-43752525D01*
X103826673Y-43751962D01*
X103881230Y-43784041D01*
X104941130Y-44843941D01*
X104950864Y-44856090D01*
X104951123Y-44855877D01*
X104956174Y-44861983D01*
X105005375Y-44908186D01*
X105025726Y-44928537D01*
X105025732Y-44928544D01*
X105025735Y-44928546D01*
X105030979Y-44932613D01*
X105035494Y-44936469D01*
X105068542Y-44967504D01*
X105068544Y-44967505D01*
X105085318Y-44976727D01*
X105101845Y-44987583D01*
X105116966Y-44999312D01*
X105116968Y-44999313D01*
X105158559Y-45017311D01*
X105163884Y-45019919D01*
X105203622Y-45041765D01*
X105222165Y-45046525D01*
X105240875Y-45052932D01*
X105258432Y-45060531D01*
X105303200Y-45067621D01*
X105309011Y-45068823D01*
X105352926Y-45080100D01*
X105372064Y-45080100D01*
X105391775Y-45081651D01*
X105410684Y-45084646D01*
X105455817Y-45080380D01*
X105461750Y-45080100D01*
X105584300Y-45080100D01*
X105652421Y-45100102D01*
X105687511Y-45133827D01*
X105768699Y-45249776D01*
X105918224Y-45399301D01*
X105918228Y-45399304D01*
X105918232Y-45399307D01*
X106091438Y-45520587D01*
X106091441Y-45520588D01*
X106091442Y-45520589D01*
X106283090Y-45609956D01*
X106314205Y-45618293D01*
X106374828Y-45655245D01*
X106405849Y-45719105D01*
X106397421Y-45789600D01*
X106352218Y-45844347D01*
X106314206Y-45861706D01*
X106306406Y-45863796D01*
X106283091Y-45870043D01*
X106283087Y-45870045D01*
X106091438Y-45959412D01*
X105918232Y-46080692D01*
X105918221Y-46080701D01*
X105768701Y-46230221D01*
X105768692Y-46230232D01*
X105647412Y-46403438D01*
X105558045Y-46595087D01*
X105558043Y-46595091D01*
X105517978Y-46744616D01*
X105503314Y-46799345D01*
X105484884Y-47010000D01*
X105503314Y-47220655D01*
X105532142Y-47328242D01*
X105558043Y-47424908D01*
X105558045Y-47424912D01*
X105647412Y-47616561D01*
X105768692Y-47789767D01*
X105768696Y-47789772D01*
X105768699Y-47789776D01*
X105918224Y-47939301D01*
X105918228Y-47939304D01*
X105918232Y-47939307D01*
X106091438Y-48060587D01*
X106091441Y-48060588D01*
X106091442Y-48060589D01*
X106283090Y-48149956D01*
X106487345Y-48204686D01*
X106698000Y-48223116D01*
X106908655Y-48204686D01*
X107112910Y-48149956D01*
X107304558Y-48060589D01*
X107305177Y-48060156D01*
X107477767Y-47939307D01*
X107477776Y-47939301D01*
X107627301Y-47789776D01*
X107748589Y-47616558D01*
X107837956Y-47424910D01*
X107892686Y-47220655D01*
X107911116Y-47010000D01*
X107908116Y-46975715D01*
X107922103Y-46906111D01*
X107944538Y-46875640D01*
X110843385Y-43976795D01*
X110875887Y-43944293D01*
X110898469Y-43908351D01*
X110902537Y-43902618D01*
X110928998Y-43869440D01*
X110947415Y-43831194D01*
X110950816Y-43825041D01*
X110973394Y-43789110D01*
X110987410Y-43749051D01*
X110990105Y-43742547D01*
X111008517Y-43704316D01*
X111017956Y-43662955D01*
X111019912Y-43656168D01*
X111033925Y-43616123D01*
X111033926Y-43616121D01*
X111038676Y-43573956D01*
X111039860Y-43566995D01*
X111040757Y-43563062D01*
X111049300Y-43525637D01*
X111049300Y-43342364D01*
X111049300Y-43154427D01*
X111069302Y-43086306D01*
X111122958Y-43039813D01*
X111193232Y-43029709D01*
X111257812Y-43059203D01*
X111276168Y-43078918D01*
X111309095Y-43122904D01*
X111426034Y-43210444D01*
X111562906Y-43261494D01*
X111623402Y-43267999D01*
X111623415Y-43268000D01*
X112268000Y-43268000D01*
X112268000Y-42343674D01*
X112379685Y-42394680D01*
X112486237Y-42410000D01*
X112557763Y-42410000D01*
X112664315Y-42394680D01*
X112776000Y-42343674D01*
X112776000Y-43268000D01*
X113420585Y-43268000D01*
X113420597Y-43267999D01*
X113481093Y-43261494D01*
X113617964Y-43210444D01*
X113617965Y-43210444D01*
X113734904Y-43122904D01*
X113822444Y-43005965D01*
X113822444Y-43005964D01*
X113873494Y-42869093D01*
X113879999Y-42808597D01*
X113880000Y-42808585D01*
X113880000Y-42164000D01*
X112953116Y-42164000D01*
X112981493Y-42119844D01*
X113022000Y-41981889D01*
X113022000Y-41838111D01*
X112981493Y-41700156D01*
X112953116Y-41656000D01*
X113880000Y-41656000D01*
X113880000Y-41011414D01*
X113879999Y-41011402D01*
X113873494Y-40950906D01*
X113822444Y-40814035D01*
X113822444Y-40814034D01*
X113734904Y-40697095D01*
X113617966Y-40609556D01*
X113502826Y-40566611D01*
X113445991Y-40524064D01*
X113421180Y-40457543D01*
X113436272Y-40388169D01*
X113454154Y-40363222D01*
X113597722Y-40207268D01*
X113720860Y-40018791D01*
X113811296Y-39812616D01*
X113866564Y-39594368D01*
X113885156Y-39370000D01*
X113866564Y-39145632D01*
X113851238Y-39085110D01*
X113811297Y-38927387D01*
X113811296Y-38927386D01*
X113811296Y-38927384D01*
X113720860Y-38721209D01*
X113714140Y-38710924D01*
X113597724Y-38532734D01*
X113597720Y-38532729D01*
X113445237Y-38367091D01*
X113317401Y-38267592D01*
X113267576Y-38228811D01*
X113234319Y-38210813D01*
X113183929Y-38160802D01*
X113168576Y-38091485D01*
X113193136Y-38024872D01*
X113234320Y-37989186D01*
X113267576Y-37971189D01*
X113445240Y-37832906D01*
X113597722Y-37667268D01*
X113720860Y-37478791D01*
X113811296Y-37272616D01*
X113866564Y-37054368D01*
X113885156Y-36830000D01*
X113866564Y-36605632D01*
X113848410Y-36533944D01*
X113811297Y-36387387D01*
X113811296Y-36387386D01*
X113811296Y-36387384D01*
X113720860Y-36181209D01*
X113710737Y-36165714D01*
X113597724Y-35992734D01*
X113597720Y-35992729D01*
X113445237Y-35827091D01*
X113363382Y-35763381D01*
X113267576Y-35688811D01*
X113069574Y-35581658D01*
X113069572Y-35581657D01*
X113069571Y-35581656D01*
X112856639Y-35508557D01*
X112856630Y-35508555D01*
X112812476Y-35501187D01*
X112634569Y-35471500D01*
X112409431Y-35471500D01*
X112261211Y-35496233D01*
X112187369Y-35508555D01*
X112187360Y-35508557D01*
X111974428Y-35581656D01*
X111974426Y-35581658D01*
X111776426Y-35688810D01*
X111776424Y-35688811D01*
X111598762Y-35827091D01*
X111446279Y-35992729D01*
X111446275Y-35992734D01*
X111323139Y-36181209D01*
X111290687Y-36255194D01*
X111245006Y-36309542D01*
X111177194Y-36330566D01*
X111108780Y-36311590D01*
X111061486Y-36258639D01*
X111049300Y-36204580D01*
X111049300Y-34171070D01*
X111069302Y-34102949D01*
X111086205Y-34081975D01*
X112300580Y-32867600D01*
X113891385Y-31276795D01*
X113923887Y-31244293D01*
X113946469Y-31208351D01*
X113950537Y-31202618D01*
X113976998Y-31169440D01*
X113995415Y-31131194D01*
X113998816Y-31125041D01*
X114021394Y-31089110D01*
X114035410Y-31049051D01*
X114038105Y-31042547D01*
X114056517Y-31004316D01*
X114065956Y-30962955D01*
X114067912Y-30956168D01*
X114081926Y-30916121D01*
X114086676Y-30873956D01*
X114087860Y-30866995D01*
X114093840Y-30840794D01*
X114097300Y-30825637D01*
X114097300Y-30642363D01*
X114097300Y-23830328D01*
X114097300Y-23784363D01*
X114087856Y-23742992D01*
X114086675Y-23736032D01*
X114081927Y-23693885D01*
X114081926Y-23693883D01*
X114081926Y-23693879D01*
X114067909Y-23653822D01*
X114065956Y-23647041D01*
X114056517Y-23605685D01*
X114038110Y-23567461D01*
X114035407Y-23560936D01*
X114021394Y-23520890D01*
X114021392Y-23520887D01*
X114021392Y-23520886D01*
X114014890Y-23510539D01*
X113998816Y-23484958D01*
X113995406Y-23478785D01*
X113985214Y-23457621D01*
X113976998Y-23440560D01*
X113973779Y-23436523D01*
X113950544Y-23407386D01*
X113946453Y-23401621D01*
X113938719Y-23389313D01*
X113923887Y-23365707D01*
X113794293Y-23236113D01*
X110324205Y-19766025D01*
X110290179Y-19703713D01*
X110287300Y-19676930D01*
X110287300Y21935634D01*
X110287300Y21935637D01*
X110277856Y21977012D01*
X110276676Y21983959D01*
X110271926Y22026121D01*
X110257908Y22066180D01*
X110255958Y22072948D01*
X110246517Y22114316D01*
X110228109Y22152542D01*
X110225404Y22159074D01*
X110219316Y22176472D01*
X110211394Y22199110D01*
X110188823Y22235032D01*
X110185410Y22241206D01*
X110166998Y22279440D01*
X110166998Y22279441D01*
X110140544Y22312614D01*
X110136453Y22318379D01*
X110113887Y22354293D01*
X110057412Y22410768D01*
X109984293Y22483887D01*
X108991775Y23476405D01*
X108957749Y23538717D01*
X108962814Y23609532D01*
X109005361Y23666368D01*
X109071881Y23691179D01*
X109080870Y23691500D01*
X109179374Y23691500D01*
X109179382Y23691500D01*
X109536042Y23730289D01*
X109886417Y23807413D01*
X110226401Y23921967D01*
X110552005Y24072607D01*
X110859414Y24257569D01*
X111145023Y24474683D01*
X111165638Y24494210D01*
X111286871Y24609049D01*
X111405484Y24721405D01*
X111637742Y24994841D01*
X111839075Y25291785D01*
X112007123Y25608757D01*
X112139915Y25942039D01*
X112235895Y26287726D01*
X112293936Y26641763D01*
X112313359Y27000000D01*
X112293936Y27358237D01*
X112252823Y27609016D01*
X112235896Y27712270D01*
X112146926Y28032710D01*
X112139915Y28057961D01*
X112007123Y28391243D01*
X111839075Y28708215D01*
X111637742Y29005159D01*
X111405484Y29278595D01*
X111236732Y29438446D01*
X111145037Y29525305D01*
X111145022Y29525318D01*
X110859418Y29742428D01*
X110859412Y29742432D01*
X110813098Y29770298D01*
X110552005Y29927393D01*
X110226401Y30078033D01*
X109886417Y30192587D01*
X109838915Y30203044D01*
X109536054Y30269709D01*
X109536030Y30269713D01*
X109179389Y30308500D01*
X109179382Y30308500D01*
X108820618Y30308500D01*
X108820610Y30308500D01*
X108463969Y30269713D01*
X108463945Y30269709D01*
X108113587Y30192588D01*
X108113573Y30192584D01*
X107773601Y30078034D01*
X107447989Y29927390D01*
X107140587Y29742432D01*
X107140581Y29742428D01*
X106854977Y29525318D01*
X106854962Y29525305D01*
X106594516Y29278596D01*
X106362256Y29005157D01*
X106160924Y28708215D01*
X106160922Y28708211D01*
X105992876Y28391241D01*
X105992872Y28391232D01*
X105860084Y28057960D01*
X105764103Y27712270D01*
X105706064Y27358238D01*
X105686641Y27000004D01*
X105686641Y26999997D01*
X105706064Y26641763D01*
X105764103Y26287731D01*
X105860084Y25942041D01*
X105992205Y25610442D01*
X105992877Y25608757D01*
X106160925Y25291785D01*
X106362258Y24994841D01*
X106395188Y24956073D01*
X106594516Y24721405D01*
X106854962Y24474696D01*
X106854970Y24474689D01*
X106854977Y24474683D01*
X106864908Y24467134D01*
X106943213Y24407608D01*
X106985339Y24350459D01*
X106989880Y24279608D01*
X106955396Y24217549D01*
X106892834Y24183985D01*
X106866961Y24181300D01*
X96953713Y24181300D01*
X96902464Y24192193D01*
X96802288Y24236794D01*
X96615487Y24276500D01*
X96424513Y24276500D01*
X96237711Y24236794D01*
X96063247Y24159118D01*
X95908744Y24046865D01*
X95780965Y23904952D01*
X95780958Y23904942D01*
X95685476Y23739562D01*
X95685473Y23739556D01*
X95680451Y23724100D01*
X95626457Y23557928D01*
X95606496Y23368000D01*
X36739022Y23368000D01*
X34587078Y25519944D01*
X34577345Y25532092D01*
X34577086Y25531877D01*
X34572038Y25537980D01*
X34572036Y25537983D01*
X34522851Y25584171D01*
X34502479Y25604544D01*
X34497218Y25608625D01*
X34492705Y25612480D01*
X34459670Y25643502D01*
X34459665Y25643506D01*
X34442895Y25652725D01*
X34426367Y25663582D01*
X34411245Y25675312D01*
X34411246Y25675312D01*
X34411244Y25675313D01*
X34411240Y25675315D01*
X34411238Y25675316D01*
X34386470Y25686034D01*
X34369640Y25693318D01*
X34364313Y25695927D01*
X34324589Y25717765D01*
X34306040Y25722528D01*
X34287343Y25728930D01*
X34269774Y25736533D01*
X34224998Y25743625D01*
X34219184Y25744829D01*
X34195362Y25750945D01*
X34175284Y25756100D01*
X34175283Y25756100D01*
X34156146Y25756100D01*
X34136435Y25757651D01*
X34117526Y25760646D01*
X34117525Y25760646D01*
X34072393Y25756380D01*
X34066460Y25756100D01*
X19779269Y25756100D01*
X19711148Y25776102D01*
X19685632Y25797790D01*
X19661252Y25824867D01*
X19506752Y25937118D01*
X19332288Y26014794D01*
X19145487Y26054500D01*
X18954513Y26054500D01*
X18767711Y26014794D01*
X18593247Y25937118D01*
X18438744Y25824865D01*
X18310965Y25682952D01*
X18310958Y25682942D01*
X18215476Y25517562D01*
X18215473Y25517555D01*
X18156457Y25335928D01*
X18136496Y25146000D01*
X18156457Y24956073D01*
X18186526Y24863530D01*
X18215473Y24774444D01*
X18215476Y24774439D01*
X18310958Y24609059D01*
X18310965Y24609049D01*
X18438744Y24467136D01*
X18438747Y24467134D01*
X18593248Y24354882D01*
X18767712Y24277206D01*
X18793395Y24271747D01*
X18855868Y24238019D01*
X18890190Y24175869D01*
X18885462Y24105030D01*
X18843186Y24047992D01*
X18776785Y24022865D01*
X18767198Y24022500D01*
X18700513Y24022500D01*
X18513711Y23982794D01*
X18339247Y23905118D01*
X18184744Y23792865D01*
X18056965Y23650952D01*
X18056958Y23650942D01*
X17961476Y23485562D01*
X17961473Y23485555D01*
X17902457Y23303928D01*
X17882496Y23114000D01*
X500Y23114000D01*
X500Y27700000D01*
X8886844Y27700000D01*
X8905437Y27475625D01*
X8960702Y27257388D01*
X8960703Y27257387D01*
X9051141Y27051207D01*
X9174275Y26862735D01*
X9174279Y26862730D01*
X9326762Y26697092D01*
X9381331Y26654619D01*
X9504424Y26558811D01*
X9702426Y26451658D01*
X9702427Y26451658D01*
X9702428Y26451657D01*
X9814227Y26413277D01*
X9915365Y26378556D01*
X10137431Y26341500D01*
X10137435Y26341500D01*
X10362565Y26341500D01*
X10362569Y26341500D01*
X10584635Y26378556D01*
X10797574Y26451658D01*
X10995576Y26558811D01*
X11173240Y26697094D01*
X11325722Y26862732D01*
X11448860Y27051209D01*
X11539296Y27257384D01*
X11594564Y27475632D01*
X11613156Y27700000D01*
X18386844Y27700000D01*
X18405437Y27475625D01*
X18460702Y27257388D01*
X18460703Y27257387D01*
X18551141Y27051207D01*
X18674275Y26862735D01*
X18674279Y26862730D01*
X18826762Y26697092D01*
X18881331Y26654619D01*
X19004424Y26558811D01*
X19202426Y26451658D01*
X19202427Y26451658D01*
X19202428Y26451657D01*
X19314227Y26413277D01*
X19415365Y26378556D01*
X19637431Y26341500D01*
X19637435Y26341500D01*
X19862565Y26341500D01*
X19862569Y26341500D01*
X20084635Y26378556D01*
X20297574Y26451658D01*
X20495576Y26558811D01*
X20673240Y26697094D01*
X20825722Y26862732D01*
X20948860Y27051209D01*
X21039296Y27257384D01*
X21094564Y27475632D01*
X21113156Y27700000D01*
X21094564Y27924368D01*
X21039296Y28142616D01*
X20948860Y28348791D01*
X20830508Y28529943D01*
X20825724Y28537266D01*
X20825720Y28537271D01*
X20673237Y28702909D01*
X20591382Y28766619D01*
X20495576Y28841189D01*
X20384123Y28901504D01*
X59538496Y28901504D01*
X59558457Y28711577D01*
X59588526Y28619034D01*
X59617473Y28529948D01*
X59617476Y28529943D01*
X59712958Y28364563D01*
X59712965Y28364553D01*
X59840744Y28222640D01*
X59840747Y28222638D01*
X59995248Y28110386D01*
X60169712Y28032710D01*
X60356513Y27993004D01*
X60547487Y27993004D01*
X60734288Y28032710D01*
X60908752Y28110386D01*
X60984940Y28165740D01*
X61051808Y28189599D01*
X61059001Y28189804D01*
X61114999Y28189804D01*
X61183120Y28169802D01*
X61189060Y28165740D01*
X61265248Y28110386D01*
X61439712Y28032710D01*
X61626513Y27993004D01*
X61817487Y27993004D01*
X62004288Y28032710D01*
X62178752Y28110386D01*
X62254940Y28165740D01*
X62321808Y28189599D01*
X62329001Y28189804D01*
X73319584Y28189804D01*
X73492416Y28189804D01*
X89816999Y28189804D01*
X89885120Y28169802D01*
X89891060Y28165740D01*
X89967248Y28110386D01*
X90141712Y28032710D01*
X90328513Y27993004D01*
X90519487Y27993004D01*
X90706288Y28032710D01*
X90880752Y28110386D01*
X91035253Y28222638D01*
X91148842Y28348791D01*
X91163034Y28364553D01*
X91163035Y28364555D01*
X91163040Y28364560D01*
X91258527Y28529948D01*
X91317542Y28711576D01*
X91337504Y28901504D01*
X91317542Y29091432D01*
X91258527Y29273060D01*
X91163040Y29438448D01*
X91163038Y29438450D01*
X91163034Y29438456D01*
X91035255Y29580369D01*
X90880752Y29692622D01*
X90706288Y29770298D01*
X90519487Y29810004D01*
X90328513Y29810004D01*
X90141711Y29770298D01*
X89967247Y29692622D01*
X89891060Y29637268D01*
X89824192Y29613409D01*
X89816999Y29613204D01*
X74243700Y29613204D01*
X74175579Y29633206D01*
X74129086Y29686862D01*
X74117700Y29739204D01*
X74117700Y30988000D01*
X95606496Y30988000D01*
X95626457Y30798073D01*
X95656526Y30705530D01*
X95685473Y30616444D01*
X95685476Y30616439D01*
X95780958Y30451059D01*
X95780965Y30451049D01*
X95908744Y30309136D01*
X95963005Y30269713D01*
X96063248Y30196882D01*
X96237712Y30119206D01*
X96424513Y30079500D01*
X96615487Y30079500D01*
X96802288Y30119206D01*
X96976752Y30196882D01*
X97131253Y30309134D01*
X97259040Y30451056D01*
X97354527Y30616444D01*
X97413542Y30798072D01*
X97433504Y30988000D01*
X97413542Y31177928D01*
X97354527Y31359556D01*
X97259040Y31524944D01*
X97259038Y31524946D01*
X97259034Y31524952D01*
X97131255Y31666865D01*
X96976752Y31779118D01*
X96802288Y31856794D01*
X96615487Y31896500D01*
X96424513Y31896500D01*
X96237711Y31856794D01*
X96063247Y31779118D01*
X95908744Y31666865D01*
X95780965Y31524952D01*
X95780958Y31524942D01*
X95685476Y31359562D01*
X95685473Y31359555D01*
X95626457Y31177928D01*
X95606496Y30988000D01*
X74117700Y30988000D01*
X74117700Y39999997D01*
X89686641Y39999997D01*
X89706064Y39641763D01*
X89764103Y39287731D01*
X89860084Y38942041D01*
X89865922Y38927388D01*
X89992877Y38608757D01*
X90033183Y38532732D01*
X90160922Y38291790D01*
X90160924Y38291786D01*
X90240020Y38175128D01*
X90362258Y37994841D01*
X90534731Y37791790D01*
X90594516Y37721405D01*
X90854962Y37474696D01*
X90854977Y37474683D01*
X91140586Y37257569D01*
X91447995Y37072607D01*
X91773599Y36921967D01*
X92113583Y36807413D01*
X92463958Y36730289D01*
X92820618Y36691500D01*
X92820626Y36691500D01*
X93179374Y36691500D01*
X93179382Y36691500D01*
X93536042Y36730289D01*
X93886417Y36807413D01*
X94226401Y36921967D01*
X94552005Y37072607D01*
X94859414Y37257569D01*
X95145023Y37474683D01*
X95405484Y37721405D01*
X95637742Y37994841D01*
X95839075Y38291785D01*
X96007123Y38608757D01*
X96139915Y38942039D01*
X96235895Y39287726D01*
X96270695Y39499997D01*
X102686641Y39499997D01*
X102706064Y39141763D01*
X102764103Y38787731D01*
X102860084Y38442041D01*
X102952213Y38210814D01*
X102992877Y38108757D01*
X103065811Y37971189D01*
X103160922Y37791790D01*
X103160924Y37791786D01*
X103245351Y37667266D01*
X103362258Y37494841D01*
X103551017Y37272616D01*
X103594516Y37221405D01*
X103854962Y36974696D01*
X103854977Y36974683D01*
X104140586Y36757569D01*
X104447995Y36572607D01*
X104773599Y36421967D01*
X105113583Y36307413D01*
X105463958Y36230289D01*
X105820618Y36191500D01*
X105820626Y36191500D01*
X106179374Y36191500D01*
X106179382Y36191500D01*
X106536042Y36230289D01*
X106886417Y36307413D01*
X107226401Y36421967D01*
X107552005Y36572607D01*
X107859414Y36757569D01*
X107954695Y36830000D01*
X111158844Y36830000D01*
X111167106Y36730289D01*
X111177437Y36605625D01*
X111232702Y36387388D01*
X111232703Y36387387D01*
X111232704Y36387384D01*
X111301612Y36230289D01*
X111323141Y36181207D01*
X111446275Y35992735D01*
X111446279Y35992730D01*
X111598762Y35827092D01*
X111653331Y35784619D01*
X111776424Y35688811D01*
X111974426Y35581658D01*
X111974427Y35581658D01*
X111974428Y35581657D01*
X112086227Y35543277D01*
X112187365Y35508556D01*
X112409431Y35471500D01*
X112409435Y35471500D01*
X112634565Y35471500D01*
X112634569Y35471500D01*
X112856635Y35508556D01*
X113069574Y35581658D01*
X113267576Y35688811D01*
X113445240Y35827094D01*
X113597722Y35992732D01*
X113720860Y36181209D01*
X113811296Y36387384D01*
X113866564Y36605632D01*
X113885156Y36830000D01*
X113866564Y37054368D01*
X113861944Y37072611D01*
X113811297Y37272613D01*
X113811296Y37272614D01*
X113811296Y37272616D01*
X113720860Y37478791D01*
X113710372Y37494844D01*
X113597724Y37667266D01*
X113597720Y37667271D01*
X113445237Y37832909D01*
X113363382Y37896619D01*
X113267576Y37971189D01*
X113234319Y37989187D01*
X113183929Y38039198D01*
X113168576Y38108515D01*
X113193136Y38175128D01*
X113234320Y38210814D01*
X113267576Y38228811D01*
X113445240Y38367094D01*
X113597722Y38532732D01*
X113720860Y38721209D01*
X113811296Y38927384D01*
X113866564Y39145632D01*
X113885156Y39370000D01*
X113866564Y39594368D01*
X113811296Y39812616D01*
X113720860Y40018791D01*
X113608024Y40191500D01*
X113597724Y40207266D01*
X113597714Y40207278D01*
X113454159Y40363218D01*
X113422737Y40426883D01*
X113430723Y40497429D01*
X113475582Y40552458D01*
X113502827Y40566612D01*
X113617965Y40609556D01*
X113734904Y40697096D01*
X113822444Y40814035D01*
X113822444Y40814036D01*
X113873494Y40950907D01*
X113879999Y41011403D01*
X113880000Y41011415D01*
X113880000Y41656000D01*
X112953116Y41656000D01*
X112981493Y41700156D01*
X113022000Y41838111D01*
X113022000Y41981889D01*
X112981493Y42119844D01*
X112953116Y42164000D01*
X113880000Y42164000D01*
X113880000Y42808586D01*
X113879999Y42808598D01*
X113873494Y42869094D01*
X113822444Y43005965D01*
X113822444Y43005966D01*
X113734904Y43122905D01*
X113617965Y43210445D01*
X113481093Y43261495D01*
X113420597Y43268000D01*
X112776000Y43268000D01*
X112776000Y42343675D01*
X112664315Y42394680D01*
X112557763Y42410000D01*
X112486237Y42410000D01*
X112379685Y42394680D01*
X112268000Y42343675D01*
X112268000Y43268000D01*
X111623402Y43268000D01*
X111562906Y43261495D01*
X111426035Y43210445D01*
X111426034Y43210445D01*
X111309095Y43122905D01*
X111221555Y43005966D01*
X111221555Y43005965D01*
X111170505Y42869094D01*
X111164000Y42808598D01*
X111164000Y42164000D01*
X112090884Y42164000D01*
X112062507Y42119844D01*
X112022000Y41981889D01*
X112022000Y41838111D01*
X112062507Y41700156D01*
X112090884Y41656000D01*
X111164000Y41656000D01*
X111164000Y41011403D01*
X111170505Y40950907D01*
X111221555Y40814036D01*
X111221555Y40814035D01*
X111309095Y40697096D01*
X111426034Y40609556D01*
X111541172Y40566612D01*
X111598008Y40524065D01*
X111622819Y40457545D01*
X111607728Y40388171D01*
X111589841Y40363218D01*
X111446280Y40207271D01*
X111446275Y40207266D01*
X111323141Y40018794D01*
X111232703Y39812614D01*
X111232702Y39812613D01*
X111177437Y39594376D01*
X111158844Y39370000D01*
X111177437Y39145625D01*
X111232702Y38927388D01*
X111232703Y38927387D01*
X111323141Y38721207D01*
X111446275Y38532735D01*
X111446279Y38532730D01*
X111598762Y38367092D01*
X111653331Y38324619D01*
X111776424Y38228811D01*
X111809680Y38210814D01*
X111860071Y38160800D01*
X111875423Y38091484D01*
X111850862Y38024871D01*
X111809680Y37989187D01*
X111776426Y37971190D01*
X111776424Y37971189D01*
X111598762Y37832909D01*
X111446279Y37667271D01*
X111446275Y37667266D01*
X111323141Y37478794D01*
X111232703Y37272614D01*
X111232702Y37272613D01*
X111177437Y37054376D01*
X111177436Y37054370D01*
X111177436Y37054368D01*
X111158844Y36830000D01*
X107954695Y36830000D01*
X108145023Y36974683D01*
X108405484Y37221405D01*
X108637742Y37494841D01*
X108839075Y37791785D01*
X109007123Y38108757D01*
X109139915Y38442039D01*
X109235895Y38787726D01*
X109293936Y39141763D01*
X109313359Y39500000D01*
X109293936Y39858237D01*
X109236716Y40207268D01*
X109235896Y40212270D01*
X109230892Y40230292D01*
X109139915Y40557961D01*
X109007123Y40891243D01*
X108839075Y41208215D01*
X108637742Y41505159D01*
X108405484Y41778595D01*
X108405483Y41778596D01*
X108145037Y42025305D01*
X108145022Y42025318D01*
X107859418Y42242428D01*
X107859412Y42242432D01*
X107552010Y42427390D01*
X107552009Y42427391D01*
X107552005Y42427393D01*
X107226401Y42578033D01*
X106886417Y42692587D01*
X106838915Y42703044D01*
X106536054Y42769709D01*
X106536030Y42769713D01*
X106179389Y42808500D01*
X106179382Y42808500D01*
X105820618Y42808500D01*
X105820610Y42808500D01*
X105463969Y42769713D01*
X105463945Y42769709D01*
X105113587Y42692588D01*
X105113573Y42692584D01*
X104773601Y42578034D01*
X104773599Y42578033D01*
X104479657Y42442041D01*
X104447989Y42427390D01*
X104140587Y42242432D01*
X104140581Y42242428D01*
X103854977Y42025318D01*
X103854962Y42025305D01*
X103594516Y41778596D01*
X103362256Y41505157D01*
X103160924Y41208215D01*
X103160922Y41208211D01*
X102992876Y40891241D01*
X102992872Y40891232D01*
X102860084Y40557960D01*
X102764103Y40212270D01*
X102706064Y39858238D01*
X102686641Y39500004D01*
X102686641Y39499997D01*
X96270695Y39499997D01*
X96293936Y39641763D01*
X96313359Y40000000D01*
X96293936Y40358237D01*
X96239310Y40691444D01*
X96235896Y40712270D01*
X96186204Y40891243D01*
X96139915Y41057961D01*
X96007123Y41391243D01*
X95839075Y41708215D01*
X95637742Y42005159D01*
X95405484Y42278595D01*
X95266762Y42410000D01*
X95145037Y42525305D01*
X95145022Y42525318D01*
X94859418Y42742428D01*
X94859412Y42742432D01*
X94814077Y42769709D01*
X94552005Y42927393D01*
X94226401Y43078033D01*
X93886417Y43192587D01*
X93776036Y43216884D01*
X93536054Y43269709D01*
X93536030Y43269713D01*
X93179389Y43308500D01*
X93179382Y43308500D01*
X92820618Y43308500D01*
X92820610Y43308500D01*
X92463969Y43269713D01*
X92463945Y43269709D01*
X92113587Y43192588D01*
X92113573Y43192584D01*
X91773601Y43078034D01*
X91447989Y42927390D01*
X91140587Y42742432D01*
X91140581Y42742428D01*
X90854977Y42525318D01*
X90854962Y42525305D01*
X90594516Y42278596D01*
X90362256Y42005157D01*
X90160924Y41708215D01*
X90160922Y41708211D01*
X89992876Y41391241D01*
X89992872Y41391232D01*
X89860084Y41057960D01*
X89764103Y40712270D01*
X89706064Y40358238D01*
X89686641Y40000004D01*
X89686641Y39999997D01*
X74117700Y39999997D01*
X74117700Y43982847D01*
X74137702Y44050968D01*
X74166306Y44082277D01*
X74329240Y44209094D01*
X74481722Y44374732D01*
X74570518Y44510646D01*
X74624520Y44556732D01*
X74694868Y44566308D01*
X74759225Y44536331D01*
X74781480Y44510647D01*
X74814607Y44459942D01*
X74870275Y44374735D01*
X74870279Y44374730D01*
X75022762Y44209092D01*
X75044780Y44191955D01*
X75200424Y44070811D01*
X75398426Y43963658D01*
X75398427Y43963658D01*
X75398428Y43963657D01*
X75510227Y43925277D01*
X75611365Y43890556D01*
X75833431Y43853500D01*
X75833435Y43853500D01*
X76058565Y43853500D01*
X76058569Y43853500D01*
X76280635Y43890556D01*
X76493574Y43963658D01*
X76691576Y44070811D01*
X76869240Y44209094D01*
X77021722Y44374732D01*
X77110816Y44511102D01*
X77164819Y44557190D01*
X77235167Y44566765D01*
X77299524Y44536788D01*
X77321782Y44511102D01*
X77410674Y44375042D01*
X77563097Y44209466D01*
X77740698Y44071233D01*
X77740699Y44071232D01*
X77938628Y43964118D01*
X77938630Y43964117D01*
X78151483Y43891045D01*
X78151492Y43891043D01*
X78232000Y43877609D01*
X78232000Y44778326D01*
X78343685Y44727320D01*
X78450237Y44712000D01*
X78521763Y44712000D01*
X78628315Y44727320D01*
X78740000Y44778326D01*
X78740000Y43877610D01*
X78820507Y43891043D01*
X78820516Y43891045D01*
X79033369Y43964117D01*
X79033371Y43964118D01*
X79231300Y44071232D01*
X79231301Y44071233D01*
X79408902Y44209466D01*
X79561325Y44375042D01*
X79684419Y44563452D01*
X79774820Y44769544D01*
X79774823Y44769551D01*
X79822544Y44958000D01*
X78917116Y44958000D01*
X78945493Y45002156D01*
X78986000Y45140111D01*
X78986000Y45283889D01*
X78945493Y45421844D01*
X78917116Y45466000D01*
X79822544Y45466000D01*
X79822544Y45466001D01*
X79774823Y45654450D01*
X79774820Y45654457D01*
X79746070Y45720000D01*
X96586496Y45720000D01*
X96606457Y45530073D01*
X96614553Y45505157D01*
X96665473Y45348444D01*
X96665476Y45348439D01*
X96760958Y45183059D01*
X96760965Y45183049D01*
X96888744Y45041136D01*
X96888747Y45041134D01*
X97043248Y44928882D01*
X97217712Y44851206D01*
X97404513Y44811500D01*
X97595487Y44811500D01*
X97782288Y44851206D01*
X97956752Y44928882D01*
X98111253Y45041134D01*
X98135632Y45068211D01*
X98196078Y45105450D01*
X98229269Y45109900D01*
X101384382Y45109900D01*
X101452503Y45089898D01*
X101498996Y45036242D01*
X101509100Y44965968D01*
X101498577Y44930651D01*
X101458519Y44844746D01*
X101458515Y44844736D01*
X101403808Y44640568D01*
X101385386Y44430000D01*
X101403808Y44219433D01*
X101458515Y44015265D01*
X101458519Y44015255D01*
X101547842Y43823698D01*
X101547844Y43823695D01*
X101582702Y43773914D01*
X102199272Y44390485D01*
X102212835Y44304852D01*
X102270359Y44191955D01*
X102359955Y44102359D01*
X102472852Y44044835D01*
X102558482Y44031273D01*
X101941912Y43414704D01*
X101941912Y43414703D01*
X101991692Y43379846D01*
X101991697Y43379843D01*
X102183254Y43290520D01*
X102183264Y43290516D01*
X102387432Y43235809D01*
X102598000Y43217387D01*
X102808567Y43235809D01*
X103012735Y43290516D01*
X103012745Y43290520D01*
X103204304Y43379844D01*
X103204305Y43379845D01*
X103254087Y43414703D01*
X103254087Y43414704D01*
X102637518Y44031273D01*
X102723148Y44044835D01*
X102836045Y44102359D01*
X102925641Y44191955D01*
X102983165Y44304852D01*
X102996727Y44390482D01*
X103613296Y43773913D01*
X103613297Y43773913D01*
X103648155Y43823695D01*
X103648156Y43823696D01*
X103737480Y44015255D01*
X103737484Y44015265D01*
X103792191Y44219433D01*
X103810613Y44430000D01*
X103792191Y44640568D01*
X103737484Y44844736D01*
X103737480Y44844746D01*
X103697423Y44930651D01*
X103686762Y45000842D01*
X103715742Y45065655D01*
X103775162Y45104511D01*
X103811618Y45109900D01*
X105328736Y45109900D01*
X105344203Y45108193D01*
X105344235Y45108527D01*
X105352127Y45107781D01*
X105352127Y45107782D01*
X105352128Y45107781D01*
X105419568Y45109900D01*
X105448383Y45109900D01*
X105448384Y45109900D01*
X105448384Y45109901D01*
X105454964Y45110732D01*
X105460894Y45111199D01*
X105467813Y45111417D01*
X105480801Y45111825D01*
X105549515Y45093972D01*
X105597669Y45041803D01*
X105609975Y44971881D01*
X105598951Y44932638D01*
X105558047Y44844918D01*
X105558043Y44844909D01*
X105534660Y44757641D01*
X105503314Y44640655D01*
X105484884Y44430000D01*
X105503314Y44219345D01*
X105532643Y44109887D01*
X105558043Y44015092D01*
X105558045Y44015088D01*
X105647412Y43823439D01*
X105768692Y43650233D01*
X105768696Y43650228D01*
X105768699Y43650224D01*
X105918224Y43500699D01*
X105918228Y43500696D01*
X105918232Y43500693D01*
X106091438Y43379413D01*
X106091441Y43379412D01*
X106091442Y43379411D01*
X106283090Y43290044D01*
X106487345Y43235314D01*
X106698000Y43216884D01*
X106908655Y43235314D01*
X107112910Y43290044D01*
X107304558Y43379411D01*
X107305177Y43379844D01*
X107476773Y43499997D01*
X107477776Y43500699D01*
X107627301Y43650224D01*
X107748589Y43823442D01*
X107837956Y44015090D01*
X107892686Y44219345D01*
X107911116Y44430000D01*
X107892686Y44640655D01*
X107837956Y44844910D01*
X107748589Y45036558D01*
X107748588Y45036559D01*
X107748587Y45036562D01*
X107627307Y45209768D01*
X107627304Y45209772D01*
X107627301Y45209776D01*
X107477776Y45359301D01*
X107477772Y45359304D01*
X107477767Y45359308D01*
X107304561Y45480588D01*
X107112912Y45569955D01*
X107112905Y45569958D01*
X107090211Y45576039D01*
X107081794Y45578294D01*
X107021172Y45615244D01*
X106990150Y45679104D01*
X106998578Y45749599D01*
X107043780Y45804346D01*
X107081793Y45821707D01*
X107112910Y45830044D01*
X107304558Y45919411D01*
X107477776Y46040699D01*
X107627301Y46190224D01*
X107748589Y46363442D01*
X107837956Y46555090D01*
X107892686Y46759345D01*
X107911116Y46970000D01*
X107892686Y47180655D01*
X107837956Y47384910D01*
X107748589Y47576558D01*
X107748588Y47576559D01*
X107748587Y47576562D01*
X107627307Y47749768D01*
X107627304Y47749772D01*
X107627301Y47749776D01*
X107477776Y47899301D01*
X107477772Y47899304D01*
X107477767Y47899308D01*
X107304561Y48020588D01*
X107112912Y48109955D01*
X107112908Y48109957D01*
X107018113Y48135357D01*
X106908655Y48164686D01*
X106698000Y48183116D01*
X106487345Y48164686D01*
X106432616Y48150022D01*
X106283091Y48109957D01*
X106283087Y48109955D01*
X106091438Y48020588D01*
X105918232Y47899308D01*
X105918221Y47899299D01*
X105768701Y47749779D01*
X105768692Y47749768D01*
X105647412Y47576562D01*
X105558045Y47384913D01*
X105558043Y47384909D01*
X105517978Y47235384D01*
X105503314Y47180655D01*
X105484884Y46970000D01*
X105503314Y46759345D01*
X105503314Y46759342D01*
X105503315Y46759340D01*
X105504270Y46753922D01*
X105501829Y46753492D01*
X105500371Y46692969D01*
X105469461Y46642273D01*
X105194191Y46367004D01*
X105131881Y46332980D01*
X105105098Y46330100D01*
X103830822Y46330100D01*
X103762701Y46350102D01*
X103716208Y46403758D01*
X103706104Y46474032D01*
X103716627Y46509350D01*
X103737956Y46555090D01*
X103792686Y46759345D01*
X103811116Y46970000D01*
X103792686Y47180655D01*
X103737956Y47384910D01*
X103648589Y47576558D01*
X103648588Y47576559D01*
X103648587Y47576562D01*
X103527307Y47749768D01*
X103527304Y47749772D01*
X103527301Y47749776D01*
X103377776Y47899301D01*
X103377772Y47899304D01*
X103377767Y47899308D01*
X103204561Y48020588D01*
X103012912Y48109955D01*
X103012908Y48109957D01*
X102918113Y48135357D01*
X102808655Y48164686D01*
X102598000Y48183116D01*
X102387345Y48164686D01*
X102332616Y48150022D01*
X102183091Y48109957D01*
X102183087Y48109955D01*
X101991438Y48020588D01*
X101818232Y47899308D01*
X101818221Y47899299D01*
X101668701Y47749779D01*
X101668692Y47749768D01*
X101547412Y47576562D01*
X101458045Y47384913D01*
X101458043Y47384909D01*
X101417978Y47235384D01*
X101403314Y47180655D01*
X101384884Y46970000D01*
X101403314Y46759345D01*
X101458044Y46555090D01*
X101478548Y46511118D01*
X101479373Y46509350D01*
X101490034Y46439158D01*
X101461054Y46374346D01*
X101401634Y46335489D01*
X101365178Y46330100D01*
X98229269Y46330100D01*
X98161148Y46350102D01*
X98135632Y46371790D01*
X98111252Y46398867D01*
X97956752Y46511118D01*
X97782288Y46588794D01*
X97595487Y46628500D01*
X97404513Y46628500D01*
X97217711Y46588794D01*
X97043247Y46511118D01*
X96888744Y46398865D01*
X96760965Y46256952D01*
X96760958Y46256942D01*
X96665476Y46091562D01*
X96665473Y46091555D01*
X96606457Y45909928D01*
X96586496Y45720000D01*
X79746070Y45720000D01*
X79684419Y45860549D01*
X79561325Y46048959D01*
X79408902Y46214535D01*
X79231301Y46352768D01*
X79231300Y46352769D01*
X79033371Y46459883D01*
X79033369Y46459884D01*
X78820512Y46532957D01*
X78820501Y46532960D01*
X78740000Y46546394D01*
X78740000Y45645675D01*
X78628315Y45696680D01*
X78521763Y45712000D01*
X78450237Y45712000D01*
X78343685Y45696680D01*
X78232000Y45645675D01*
X78232000Y46546393D01*
X78231999Y46546394D01*
X78151498Y46532960D01*
X78151487Y46532957D01*
X77938630Y46459884D01*
X77938628Y46459883D01*
X77740699Y46352769D01*
X77740698Y46352768D01*
X77563097Y46214535D01*
X77410670Y46048955D01*
X77321780Y45912899D01*
X77267776Y45866811D01*
X77197428Y45857236D01*
X77133071Y45887214D01*
X77110816Y45912899D01*
X77037370Y46025317D01*
X77021724Y46049266D01*
X77021720Y46049271D01*
X76891953Y46190233D01*
X76869240Y46214906D01*
X76869239Y46214907D01*
X76869237Y46214909D01*
X76717540Y46332980D01*
X76691576Y46353189D01*
X76493574Y46460342D01*
X76493572Y46460343D01*
X76493571Y46460344D01*
X76280639Y46533443D01*
X76280630Y46533445D01*
X76203029Y46546394D01*
X76058569Y46570500D01*
X75833431Y46570500D01*
X75688971Y46546394D01*
X75611369Y46533445D01*
X75611360Y46533443D01*
X75398428Y46460344D01*
X75398426Y46460342D01*
X75219365Y46363439D01*
X75200426Y46353190D01*
X75200424Y46353189D01*
X75022762Y46214909D01*
X74870279Y46049271D01*
X74781483Y45913357D01*
X74727479Y45867269D01*
X74657131Y45857694D01*
X74592774Y45887671D01*
X74570517Y45913357D01*
X74481720Y46049271D01*
X74351953Y46190233D01*
X74329240Y46214906D01*
X74329239Y46214907D01*
X74329237Y46214909D01*
X74177540Y46332980D01*
X74151576Y46353189D01*
X73953574Y46460342D01*
X73953572Y46460343D01*
X73953571Y46460344D01*
X73740639Y46533443D01*
X73740630Y46533445D01*
X73663029Y46546394D01*
X73518569Y46570500D01*
X73293431Y46570500D01*
X73148971Y46546394D01*
X73071369Y46533445D01*
X73071360Y46533443D01*
X72858428Y46460344D01*
X72858426Y46460342D01*
X72679365Y46363439D01*
X72660426Y46353190D01*
X72660424Y46353189D01*
X72482762Y46214909D01*
X72330279Y46049271D01*
X72241483Y45913357D01*
X72187479Y45867269D01*
X72117131Y45857694D01*
X72052774Y45887671D01*
X72030517Y45913357D01*
X71941720Y46049271D01*
X71811953Y46190233D01*
X71789240Y46214906D01*
X71789239Y46214907D01*
X71789237Y46214909D01*
X71637540Y46332980D01*
X71611576Y46353189D01*
X71413574Y46460342D01*
X71413572Y46460343D01*
X71413571Y46460344D01*
X71200639Y46533443D01*
X71200630Y46533445D01*
X71123029Y46546394D01*
X70978569Y46570500D01*
X70753431Y46570500D01*
X70608971Y46546394D01*
X70531369Y46533445D01*
X70531360Y46533443D01*
X70318428Y46460344D01*
X70318426Y46460342D01*
X70139365Y46363439D01*
X70120426Y46353190D01*
X70120424Y46353189D01*
X69942762Y46214909D01*
X69790279Y46049271D01*
X69790275Y46049266D01*
X69667141Y45860794D01*
X69576703Y45654614D01*
X69576702Y45654613D01*
X69521437Y45436376D01*
X69521436Y45436370D01*
X69521436Y45436368D01*
X69502844Y45212000D01*
X69520341Y45000842D01*
X69521437Y44987625D01*
X69576702Y44769388D01*
X69576703Y44769387D01*
X69576704Y44769384D01*
X69667140Y44563209D01*
X69667141Y44563207D01*
X69790275Y44374735D01*
X69790279Y44374730D01*
X69942762Y44209092D01*
X69964780Y44191955D01*
X70120424Y44070811D01*
X70318426Y43963658D01*
X70318427Y43963658D01*
X70318428Y43963657D01*
X70430227Y43925277D01*
X70531365Y43890556D01*
X70753431Y43853500D01*
X70753435Y43853500D01*
X70978565Y43853500D01*
X70978569Y43853500D01*
X71200635Y43890556D01*
X71413574Y43963658D01*
X71611576Y44070811D01*
X71789240Y44209094D01*
X71941722Y44374732D01*
X72030518Y44510646D01*
X72084520Y44556732D01*
X72154868Y44566308D01*
X72219225Y44536331D01*
X72241480Y44510647D01*
X72274607Y44459942D01*
X72330275Y44374735D01*
X72330279Y44374730D01*
X72482762Y44209092D01*
X72504780Y44191955D01*
X72645692Y44082278D01*
X72687162Y44024653D01*
X72694300Y43982847D01*
X72694300Y29739204D01*
X72674298Y29671083D01*
X72620642Y29624590D01*
X72568300Y29613204D01*
X62329001Y29613204D01*
X62260880Y29633206D01*
X62254940Y29637268D01*
X62178752Y29692622D01*
X62004288Y29770298D01*
X61817487Y29810004D01*
X61626513Y29810004D01*
X61439711Y29770298D01*
X61265247Y29692622D01*
X61189060Y29637268D01*
X61122192Y29613409D01*
X61114999Y29613204D01*
X61059001Y29613204D01*
X60990880Y29633206D01*
X60984940Y29637268D01*
X60908752Y29692622D01*
X60734288Y29770298D01*
X60547487Y29810004D01*
X60356513Y29810004D01*
X60169711Y29770298D01*
X59995247Y29692622D01*
X59840744Y29580369D01*
X59712965Y29438456D01*
X59712958Y29438446D01*
X59617476Y29273066D01*
X59617473Y29273059D01*
X59558457Y29091432D01*
X59538496Y28901504D01*
X20384123Y28901504D01*
X20297574Y28948342D01*
X20297572Y28948343D01*
X20297571Y28948344D01*
X20084639Y29021443D01*
X20084630Y29021445D01*
X20040476Y29028813D01*
X19862569Y29058500D01*
X19637431Y29058500D01*
X19489211Y29033767D01*
X19415369Y29021445D01*
X19415360Y29021443D01*
X19202428Y28948344D01*
X19202426Y28948342D01*
X19004426Y28841190D01*
X19004424Y28841189D01*
X18826762Y28702909D01*
X18674279Y28537271D01*
X18674275Y28537266D01*
X18551141Y28348794D01*
X18460703Y28142614D01*
X18460702Y28142613D01*
X18405437Y27924376D01*
X18386844Y27700000D01*
X11613156Y27700000D01*
X11594564Y27924368D01*
X11539296Y28142616D01*
X11448860Y28348791D01*
X11330508Y28529943D01*
X11325724Y28537266D01*
X11325720Y28537271D01*
X11173237Y28702909D01*
X11091382Y28766619D01*
X10995576Y28841189D01*
X10797574Y28948342D01*
X10797572Y28948343D01*
X10797571Y28948344D01*
X10584639Y29021443D01*
X10584630Y29021445D01*
X10540476Y29028813D01*
X10362569Y29058500D01*
X10137431Y29058500D01*
X9989211Y29033767D01*
X9915369Y29021445D01*
X9915360Y29021443D01*
X9702428Y28948344D01*
X9702426Y28948342D01*
X9504426Y28841190D01*
X9504424Y28841189D01*
X9326762Y28702909D01*
X9174279Y28537271D01*
X9174275Y28537266D01*
X9051141Y28348794D01*
X8960703Y28142614D01*
X8960702Y28142613D01*
X8905437Y27924376D01*
X8886844Y27700000D01*
X500Y27700000D01*
X500Y43499997D01*
X1186641Y43499997D01*
X1206064Y43141763D01*
X1264103Y42787731D01*
X1360084Y42442041D01*
X1488459Y42119844D01*
X1492877Y42108757D01*
X1560138Y41981889D01*
X1660922Y41791790D01*
X1660924Y41791786D01*
X1805060Y41579202D01*
X1862258Y41494841D01*
X1950264Y41391232D01*
X2094516Y41221405D01*
X2354962Y40974696D01*
X2354977Y40974683D01*
X2640586Y40757569D01*
X2947995Y40572607D01*
X3273599Y40421967D01*
X3613583Y40307413D01*
X3963958Y40230289D01*
X4320618Y40191500D01*
X4320626Y40191500D01*
X4679374Y40191500D01*
X4679382Y40191500D01*
X5036042Y40230289D01*
X5386417Y40307413D01*
X5726401Y40421967D01*
X6052005Y40572607D01*
X6359414Y40757569D01*
X6645023Y40974683D01*
X6683801Y41011415D01*
X6732938Y41057961D01*
X6905484Y41221405D01*
X7137742Y41494841D01*
X7339075Y41791785D01*
X7507123Y42108757D01*
X7639915Y42442039D01*
X7735895Y42787726D01*
X7793936Y43141763D01*
X7813359Y43499997D01*
X22186641Y43499997D01*
X22206064Y43141763D01*
X22264103Y42787731D01*
X22360084Y42442041D01*
X22488459Y42119844D01*
X22492877Y42108757D01*
X22560138Y41981889D01*
X22660922Y41791790D01*
X22660924Y41791786D01*
X22805060Y41579202D01*
X22862258Y41494841D01*
X22950264Y41391232D01*
X23094516Y41221405D01*
X23354962Y40974696D01*
X23354977Y40974683D01*
X23640586Y40757569D01*
X23947995Y40572607D01*
X24273599Y40421967D01*
X24613583Y40307413D01*
X24963958Y40230289D01*
X25320618Y40191500D01*
X25320626Y40191500D01*
X25679374Y40191500D01*
X25679382Y40191500D01*
X26036042Y40230289D01*
X26386417Y40307413D01*
X26726401Y40421967D01*
X27052005Y40572607D01*
X27359414Y40757569D01*
X27645023Y40974683D01*
X27683801Y41011415D01*
X27732938Y41057961D01*
X27905484Y41221405D01*
X28137742Y41494841D01*
X28339075Y41791785D01*
X28507123Y42108757D01*
X28639915Y42442039D01*
X28735895Y42787726D01*
X28793936Y43141763D01*
X28813359Y43500000D01*
X28813321Y43500693D01*
X28805214Y43650224D01*
X28793936Y43858237D01*
X28736417Y44209092D01*
X28735896Y44212270D01*
X28690789Y44374730D01*
X28639915Y44557961D01*
X28507123Y44891243D01*
X28339075Y45208215D01*
X28137742Y45505159D01*
X27905484Y45778595D01*
X27873426Y45808962D01*
X27645037Y46025305D01*
X27645022Y46025318D01*
X27359418Y46242428D01*
X27359412Y46242432D01*
X27335296Y46256942D01*
X27052005Y46427393D01*
X26726401Y46578033D01*
X26386417Y46692587D01*
X26338915Y46703044D01*
X26036054Y46769709D01*
X26036030Y46769713D01*
X25679389Y46808500D01*
X25679382Y46808500D01*
X25320618Y46808500D01*
X25320610Y46808500D01*
X24963969Y46769713D01*
X24963945Y46769709D01*
X24613587Y46692588D01*
X24613573Y46692584D01*
X24273601Y46578034D01*
X24273599Y46578033D01*
X24018222Y46459883D01*
X23947989Y46427390D01*
X23640587Y46242432D01*
X23640581Y46242428D01*
X23354977Y46025318D01*
X23354962Y46025305D01*
X23094516Y45778596D01*
X22862256Y45505157D01*
X22660924Y45208215D01*
X22660922Y45208211D01*
X22492876Y44891241D01*
X22492872Y44891232D01*
X22360084Y44557960D01*
X22264103Y44212270D01*
X22206064Y43858238D01*
X22186641Y43500004D01*
X22186641Y43499997D01*
X7813359Y43499997D01*
X7813359Y43500000D01*
X7813321Y43500693D01*
X7805214Y43650224D01*
X7793936Y43858237D01*
X7736417Y44209092D01*
X7735896Y44212270D01*
X7690789Y44374730D01*
X7639915Y44557961D01*
X7507123Y44891243D01*
X7339075Y45208215D01*
X7137742Y45505159D01*
X6905484Y45778595D01*
X6873426Y45808962D01*
X6645037Y46025305D01*
X6645022Y46025318D01*
X6359418Y46242428D01*
X6359412Y46242432D01*
X6335296Y46256942D01*
X6052005Y46427393D01*
X5726401Y46578033D01*
X5386417Y46692587D01*
X5338915Y46703044D01*
X5036054Y46769709D01*
X5036030Y46769713D01*
X4679389Y46808500D01*
X4679382Y46808500D01*
X4320618Y46808500D01*
X4320610Y46808500D01*
X3963969Y46769713D01*
X3963945Y46769709D01*
X3613587Y46692588D01*
X3613573Y46692584D01*
X3273601Y46578034D01*
X3273599Y46578033D01*
X3018222Y46459883D01*
X2947989Y46427390D01*
X2640587Y46242432D01*
X2640581Y46242428D01*
X2354977Y46025318D01*
X2354962Y46025305D01*
X2094516Y45778596D01*
X1862256Y45505157D01*
X1660924Y45208215D01*
X1660922Y45208211D01*
X1492876Y44891241D01*
X1492872Y44891232D01*
X1360084Y44557960D01*
X1264103Y44212270D01*
X1206064Y43858238D01*
X1186641Y43500004D01*
X1186641Y43499997D01*
X500Y43499997D01*
X500Y48447603D01*
X20502Y48515724D01*
X37405Y48536698D01*
X963302Y49462595D01*
X1025614Y49496621D01*
X1052397Y49499500D01*
X7474842Y49499500D01*
X7474985Y49499472D01*
X7474986Y49499476D01*
X7499997Y49499461D01*
X7500000Y49499459D01*
X7500383Y49499617D01*
X7500500Y49499901D01*
X7500541Y49500000D01*
X7500540Y49500002D01*
X7500541Y49500002D01*
X7500584Y49524500D01*
X7500500Y49524928D01*
X7500500Y53373500D01*
X7520502Y53441621D01*
X7574158Y53488114D01*
X7626500Y53499500D01*
X22373500Y53499500D01*
X22441621Y53479498D01*
G37*
%TD.AperFunction*%
%TD*%
M02*
