%TF.GenerationSoftware,KiCad,Pcbnew,7.0.8*%
%TF.CreationDate,2023-10-27T12:05:37-04:00*%
%TF.ProjectId,mainboard_dual_battery,6d61696e-626f-4617-9264-5f6475616c5f,rev?*%
%TF.SameCoordinates,PX1312d00PY5f5e100*%
%TF.FileFunction,Copper,L3,Inr*%
%TF.FilePolarity,Positive*%
%FSLAX46Y46*%
G04 Gerber Fmt 4.6, Leading zero omitted, Abs format (unit mm)*
G04 Created by KiCad (PCBNEW 7.0.8) date 2023-10-27 12:05:37*
%MOMM*%
%LPD*%
G01*
G04 APERTURE LIST*
%TA.AperFunction,ComponentPad*%
%ADD10C,5.600000*%
%TD*%
%TA.AperFunction,ComponentPad*%
%ADD11R,1.700000X1.700000*%
%TD*%
%TA.AperFunction,ComponentPad*%
%ADD12O,1.700000X1.700000*%
%TD*%
%TA.AperFunction,ComponentPad*%
%ADD13C,1.700000*%
%TD*%
%TA.AperFunction,ComponentPad*%
%ADD14C,0.500000*%
%TD*%
%TA.AperFunction,ComponentPad*%
%ADD15O,0.890000X1.550000*%
%TD*%
%TA.AperFunction,ComponentPad*%
%ADD16O,1.250000X0.950000*%
%TD*%
%TA.AperFunction,ComponentPad*%
%ADD17O,1.800000X3.400000*%
%TD*%
%TA.AperFunction,ComponentPad*%
%ADD18C,1.400000*%
%TD*%
%TA.AperFunction,ViaPad*%
%ADD19C,0.800000*%
%TD*%
%TA.AperFunction,Conductor*%
%ADD20C,1.016000*%
%TD*%
G04 APERTURE END LIST*
D10*
%TO.N,N/C*%
%TO.C,REF\u002A\u002A*%
X4500000Y-43500000D03*
%TD*%
D11*
%TO.N,Net-(J14-Pin_1)*%
%TO.C,J14*%
X48260000Y-43688000D03*
D12*
%TO.N,/VBAT*%
X45720000Y-43688000D03*
%TD*%
D11*
%TO.N,VCC*%
%TO.C,J2*%
X15240000Y12700000D03*
D12*
%TO.N,+3V3*%
X12700000Y12700000D03*
%TO.N,/MISO*%
X10160000Y12700000D03*
%TO.N,/MOSI*%
X7620000Y12700000D03*
%TO.N,GNDREF*%
X5080000Y12700000D03*
%TD*%
D13*
%TO.N,/Motor1A_out*%
%TO.C,J6*%
X10250000Y27700000D03*
%TD*%
D14*
%TO.N,GNDREF*%
%TO.C,U11*%
X72111000Y1333000D03*
X72111000Y133000D03*
X72111000Y-1067000D03*
X72111000Y-2267000D03*
X73111000Y1333000D03*
X73111000Y133000D03*
X73111000Y-1067000D03*
X73111000Y-2267000D03*
X74111000Y1333000D03*
X74111000Y133000D03*
X74111000Y-1067000D03*
X74111000Y-2267000D03*
%TD*%
D10*
%TO.N,N/C*%
%TO.C,REF\u002A\u002A*%
X109000000Y-27000000D03*
%TD*%
D11*
%TO.N,GNDREF*%
%TO.C,J11*%
X112522000Y-41910000D03*
D12*
%TO.N,+6V*%
X112522000Y-39370000D03*
%TO.N,/SERVO2*%
X112522000Y-36830000D03*
%TD*%
D15*
%TO.N,GNDREF*%
%TO.C,J3*%
X70668000Y-48036000D03*
D16*
X71668000Y-45336000D03*
X76668000Y-45336000D03*
D15*
X77668000Y-48036000D03*
%TD*%
D13*
%TO.N,/Motor1B_out*%
%TO.C,J4*%
X19750000Y27700000D03*
%TD*%
D11*
%TO.N,/nRESET*%
%TO.C,J1*%
X76962000Y-40386000D03*
D12*
%TO.N,/SWCLK*%
X79502000Y-40767000D03*
%TO.N,/SWDIO*%
X82042000Y-40386000D03*
%TO.N,GNDREF*%
X84582000Y-40767000D03*
%TO.N,+3V3*%
X87122000Y-40386000D03*
%TD*%
D11*
%TO.N,/SDA*%
%TO.C,J13*%
X23622000Y6350000D03*
D12*
%TO.N,+3V3*%
X21082000Y6350000D03*
%TO.N,/SCL*%
X23622000Y3810000D03*
%TO.N,/MISO*%
X21082000Y3810000D03*
%TO.N,/SCK*%
X23622000Y1270000D03*
%TO.N,/MOSI*%
X21082000Y1270000D03*
%TO.N,/TOP_A4*%
X23622000Y-1270000D03*
%TO.N,/TOP_A5*%
X21082000Y-1270000D03*
%TO.N,/nRESET*%
X23622000Y-3810000D03*
%TO.N,/TOP_A3*%
X21082000Y-3810000D03*
%TO.N,GNDREF*%
X23622000Y-6350000D03*
%TO.N,VCC*%
X21082000Y-6350000D03*
%TD*%
D10*
%TO.N,N/C*%
%TO.C,REF\u002A\u002A*%
X109000000Y27000000D03*
%TD*%
%TO.N,N/C*%
%TO.C,REF\u002A\u002A*%
X93000000Y40000000D03*
%TD*%
%TO.N,N/C*%
%TO.C,REF\u002A\u002A*%
X106000000Y-39500000D03*
%TD*%
%TO.N,N/C*%
%TO.C,REF\u002A\u002A*%
X106000000Y39500000D03*
%TD*%
%TO.N,N/C*%
%TO.C,REF\u002A\u002A*%
X93000000Y-40000000D03*
%TD*%
D13*
%TO.N,/Motor2B_out*%
%TO.C,J5*%
X19750000Y-27700000D03*
%TD*%
D10*
%TO.N,N/C*%
%TO.C,REF\u002A\u002A*%
X25500000Y43500000D03*
%TD*%
D11*
%TO.N,GNDREF*%
%TO.C,J12*%
X112522000Y41910000D03*
D12*
%TO.N,+6V*%
X112522000Y39370000D03*
%TO.N,/SERVO1*%
X112522000Y36830000D03*
%TD*%
D11*
%TO.N,VCC*%
%TO.C,J9*%
X15240000Y5080000D03*
D12*
%TO.N,+3V3*%
X12700000Y5080000D03*
%TO.N,/SCK*%
X10160000Y5080000D03*
%TO.N,/TOP_A5*%
X7620000Y5080000D03*
%TO.N,GNDREF*%
X5080000Y5080000D03*
%TD*%
D13*
%TO.N,+3V3*%
%TO.C,J8*%
X70866000Y45212000D03*
D12*
%TO.N,VCC*%
X73406000Y45212000D03*
%TO.N,+6V*%
X75946000Y45212000D03*
%TO.N,GNDREF*%
X78486000Y45212000D03*
%TD*%
D10*
%TO.N,N/C*%
%TO.C,REF\u002A\u002A*%
X4500000Y43500000D03*
%TD*%
D11*
%TO.N,VCC*%
%TO.C,J10*%
X15240000Y-2540000D03*
D12*
%TO.N,+3V3*%
X12700000Y-2540000D03*
%TO.N,/TOP_A4*%
X10160000Y-2540000D03*
%TO.N,/TOP_A3*%
X7620000Y-2540000D03*
%TO.N,GNDREF*%
X5080000Y-2540000D03*
%TD*%
D17*
%TO.N,/VBAT*%
%TO.C,SW1*%
X5460000Y-10668000D03*
%TO.N,VCC*%
X10160000Y-10668000D03*
%TO.N,unconnected-(SW1-C-Pad3)*%
X14860000Y-10668000D03*
%TD*%
D10*
%TO.N,N/C*%
%TO.C,REF\u002A\u002A*%
X25500000Y-43500000D03*
%TD*%
D13*
%TO.N,/Motor2A_out*%
%TO.C,J7*%
X10250000Y-27700000D03*
%TD*%
D18*
%TO.N,Net-(U3-K)*%
%TO.C,U3*%
X106698000Y-19070000D03*
%TO.N,Net-(U2-K)*%
X106698000Y-21610000D03*
%TO.N,GNDREF*%
X102598000Y-21610000D03*
%TO.N,/A1*%
X102598000Y-19070000D03*
%TD*%
%TO.N,Net-(U5-K)*%
%TO.C,U5*%
X106698000Y1250000D03*
%TO.N,Net-(U4-K)*%
X106698000Y-1290000D03*
%TO.N,GNDREF*%
X102598000Y-1290000D03*
%TO.N,/A3*%
X102598000Y1250000D03*
%TD*%
%TO.N,Net-(U2-K)*%
%TO.C,U2*%
X106698000Y-44470000D03*
%TO.N,/Reflectance sensor array/VCC_LED*%
X106698000Y-47010000D03*
%TO.N,GNDREF*%
X102598000Y-47010000D03*
%TO.N,/A0*%
X102598000Y-44470000D03*
%TD*%
%TO.N,Net-(U4-K)*%
%TO.C,U4*%
X106680000Y-8890000D03*
%TO.N,Net-(U3-K)*%
X106680000Y-11430000D03*
%TO.N,GNDREF*%
X102580000Y-11430000D03*
%TO.N,/A2*%
X102580000Y-8890000D03*
%TD*%
%TO.N,Net-(U7-K)*%
%TO.C,U7*%
X106680000Y21590000D03*
%TO.N,Net-(U6-K)*%
X106680000Y19050000D03*
%TO.N,GNDREF*%
X102580000Y19050000D03*
%TO.N,/A5*%
X102580000Y21590000D03*
%TD*%
%TO.N,Net-(U6-K)*%
%TO.C,U6*%
X106680000Y11430000D03*
%TO.N,Net-(U5-K)*%
X106680000Y8890000D03*
%TO.N,GNDREF*%
X102580000Y8890000D03*
%TO.N,/A4*%
X102580000Y11430000D03*
%TD*%
%TO.N,/Reflectance sensor array/FB*%
%TO.C,U8*%
X106698000Y46970000D03*
%TO.N,Net-(U7-K)*%
X106698000Y44430000D03*
%TO.N,GNDREF*%
X102598000Y44430000D03*
%TO.N,/A6*%
X102598000Y46970000D03*
%TD*%
D19*
%TO.N,+3V3*%
X90932000Y-8763000D03*
X88888000Y-27698000D03*
X97790000Y8382000D03*
X97790000Y18542000D03*
X97790000Y-11938000D03*
X91348000Y3024000D03*
X97790000Y-29972000D03*
X76073000Y-15748000D03*
X76073000Y-18415000D03*
X96897000Y-22229000D03*
X76073000Y-17018000D03*
X80670400Y-32867600D03*
X96520000Y30988000D03*
X14859000Y-21209000D03*
X10668000Y21590000D03*
X81026000Y-26670000D03*
X75057000Y3429000D03*
X88900000Y-14000000D03*
X97790000Y-2286000D03*
%TO.N,/VBAT*%
X39624000Y-35306000D03*
X38354000Y-35306000D03*
X35814000Y-35306000D03*
X37084000Y-35306000D03*
%TO.N,/SDA*%
X87376000Y-14478000D03*
%TO.N,/SCL*%
X86360000Y-15494000D03*
%TO.N,/ENC1_DIR*%
X19050000Y25146000D03*
X86360000Y-11938000D03*
%TO.N,/ENC1_SPEED*%
X87122000Y-12954000D03*
X18796000Y23114000D03*
%TO.N,/ENC2_DIR*%
X22860000Y-21082000D03*
X82042000Y-20828000D03*
%TO.N,/ENC2_SPEED*%
X80518000Y-21336000D03*
X24638000Y-21844000D03*
%TO.N,+6V*%
X80264000Y-762000D03*
X88138000Y8382000D03*
X88138000Y15494000D03*
X78994000Y-762000D03*
X88138000Y12700000D03*
X77978000Y-792000D03*
X88138000Y9906000D03*
%TO.N,GNDREF*%
X81026000Y-25146000D03*
X41656000Y40894000D03*
X78486000Y15240000D03*
X76708000Y15240000D03*
X69723000Y-17399000D03*
X68834000Y-17399000D03*
X12192000Y-20066000D03*
X81866375Y2008000D03*
X72898000Y16510000D03*
X44196000Y40894000D03*
X76708000Y16510000D03*
X88474000Y32322000D03*
X75438000Y15240000D03*
X76708000Y7874000D03*
X79756000Y7874000D03*
X49784000Y40894000D03*
X90569000Y25908000D03*
X78486000Y16510000D03*
X85497000Y15546000D03*
X96266000Y-23622000D03*
X80772000Y8890000D03*
X88011000Y-16000000D03*
X75565000Y-12954000D03*
X52578000Y40894000D03*
X85851500Y-3978750D03*
X86995000Y-28067000D03*
X86467782Y-830474D03*
X78740000Y7874000D03*
X74168000Y16510000D03*
X70612000Y8255000D03*
X68834000Y31242000D03*
X78740000Y8890000D03*
X79756000Y8890000D03*
X12446000Y21590000D03*
X72136000Y-25273000D03*
X85497000Y13006000D03*
X46990000Y40894000D03*
X91866000Y-3050750D03*
X89407500Y2117250D03*
X77724000Y8890000D03*
X77724000Y7874000D03*
X76708000Y8890000D03*
X80772000Y7874000D03*
X75438000Y16510000D03*
%TO.N,VCC*%
X60833000Y-15694500D03*
X62611000Y-15748000D03*
X61722000Y28901504D03*
X90424000Y28901504D03*
X62484000Y20320000D03*
X60960000Y20320000D03*
X59436000Y20320000D03*
X60452000Y28901504D03*
%TO.N,/Reflectance sensor array/VCC_LED*%
X96520000Y23368000D03*
%TO.N,/Reflectance sensor array/FB*%
X97500000Y45720000D03*
%TO.N,/HEARTBEAT*%
X91000000Y-15500000D03*
X84074000Y-1778000D03*
%TD*%
D20*
%TO.N,VCC*%
X15240000Y5080000D02*
X15240000Y12700000D01*
X15240000Y-2540000D02*
X15240000Y5080000D01*
%TD*%
%TA.AperFunction,Conductor*%
%TO.N,+3V3*%
G36*
X22441621Y53479498D02*
G01*
X22488114Y53425842D01*
X22499500Y53373500D01*
X22499500Y49524928D01*
X22499415Y49524500D01*
X22499458Y49500002D01*
X22499459Y49500000D01*
X22499500Y49499901D01*
X22499617Y49499617D01*
X22500000Y49499459D01*
X22500002Y49499461D01*
X22525014Y49499476D01*
X22525014Y49499472D01*
X22525158Y49499500D01*
X104014000Y49499500D01*
X104082121Y49479498D01*
X104128614Y49425842D01*
X104140000Y49373500D01*
X104140000Y42304477D01*
X104119998Y42236356D01*
X104090252Y42204170D01*
X103854989Y42025327D01*
X103854962Y42025305D01*
X103594516Y41778596D01*
X103362256Y41505157D01*
X103160924Y41208215D01*
X103160922Y41208211D01*
X102992876Y40891241D01*
X102992872Y40891232D01*
X102860084Y40557960D01*
X102764103Y40212270D01*
X102706064Y39858238D01*
X102686641Y39500004D01*
X102686641Y39499997D01*
X102706064Y39141763D01*
X102764103Y38787731D01*
X102860084Y38442041D01*
X102860085Y38442039D01*
X102992877Y38108757D01*
X103160925Y37791785D01*
X103362258Y37494841D01*
X103563795Y37257573D01*
X103594516Y37221405D01*
X103854962Y36974696D01*
X103854977Y36974683D01*
X104090253Y36795831D01*
X104132378Y36738685D01*
X104140000Y36695525D01*
X104140000Y18419500D01*
X104119998Y18351379D01*
X104066342Y18304886D01*
X104014000Y18293500D01*
X103758451Y18293500D01*
X103690330Y18313502D01*
X103643837Y18367158D01*
X103633733Y18437432D01*
X103644256Y18472750D01*
X103676435Y18541760D01*
X103719956Y18635090D01*
X103774686Y18839345D01*
X103793116Y19050000D01*
X103774686Y19260655D01*
X103719956Y19464910D01*
X103630589Y19656558D01*
X103630588Y19656559D01*
X103630587Y19656562D01*
X103509307Y19829768D01*
X103509304Y19829772D01*
X103509301Y19829776D01*
X103359776Y19979301D01*
X103359772Y19979304D01*
X103359767Y19979308D01*
X103186561Y20100588D01*
X102994912Y20189955D01*
X102994905Y20189958D01*
X102972211Y20196039D01*
X102963794Y20198294D01*
X102903172Y20235244D01*
X102872150Y20299104D01*
X102880578Y20369599D01*
X102925780Y20424346D01*
X102963793Y20441707D01*
X102994910Y20450044D01*
X103186558Y20539411D01*
X103359776Y20660699D01*
X103509301Y20810224D01*
X103630589Y20983442D01*
X103719956Y21175090D01*
X103774686Y21379345D01*
X103793116Y21590000D01*
X103774686Y21800655D01*
X103719956Y22004910D01*
X103630589Y22196558D01*
X103630588Y22196559D01*
X103630587Y22196562D01*
X103509307Y22369768D01*
X103509304Y22369772D01*
X103509301Y22369776D01*
X103359776Y22519301D01*
X103359772Y22519304D01*
X103359767Y22519308D01*
X103186561Y22640588D01*
X102994912Y22729955D01*
X102994908Y22729957D01*
X102900113Y22755357D01*
X102790655Y22784686D01*
X102580000Y22803116D01*
X102369345Y22784686D01*
X102314616Y22770022D01*
X102165091Y22729957D01*
X102165087Y22729955D01*
X101973438Y22640588D01*
X101800232Y22519308D01*
X101800221Y22519299D01*
X101650701Y22369779D01*
X101650692Y22369768D01*
X101529412Y22196562D01*
X101440045Y22004913D01*
X101440043Y22004909D01*
X101428427Y21961556D01*
X101385314Y21800655D01*
X101366884Y21590000D01*
X101385314Y21379345D01*
X101414643Y21269887D01*
X101440043Y21175092D01*
X101440045Y21175088D01*
X101529412Y20983439D01*
X101650692Y20810233D01*
X101650696Y20810228D01*
X101650699Y20810224D01*
X101800224Y20660699D01*
X101800228Y20660696D01*
X101800232Y20660693D01*
X101973438Y20539413D01*
X101973441Y20539412D01*
X101973442Y20539411D01*
X102165090Y20450044D01*
X102196205Y20441707D01*
X102256828Y20404755D01*
X102287849Y20340895D01*
X102279421Y20270400D01*
X102234218Y20215653D01*
X102196206Y20198294D01*
X102188406Y20196204D01*
X102165091Y20189957D01*
X102165087Y20189955D01*
X101973438Y20100588D01*
X101800232Y19979308D01*
X101800221Y19979299D01*
X101650701Y19829779D01*
X101650692Y19829768D01*
X101529412Y19656562D01*
X101440045Y19464913D01*
X101440043Y19464909D01*
X101399978Y19315384D01*
X101385314Y19260655D01*
X101366884Y19050000D01*
X101385314Y18839345D01*
X101414643Y18729887D01*
X101440043Y18635092D01*
X101440045Y18635087D01*
X101515744Y18472750D01*
X101526405Y18402558D01*
X101497425Y18337745D01*
X101438005Y18298889D01*
X101401549Y18293500D01*
X98320453Y18293500D01*
X98315617Y18293363D01*
X98305945Y18293087D01*
X98291262Y18292459D01*
X98291258Y18292458D01*
X98148023Y18263435D01*
X98148021Y18263434D01*
X98148018Y18263434D01*
X98148018Y18263433D01*
X98081150Y18239575D01*
X98081122Y18239566D01*
X98081092Y18239555D01*
X98078902Y18238399D01*
X98075122Y18236562D01*
X97924830Y18169651D01*
X97899783Y18161512D01*
X97884000Y18158157D01*
X97844467Y18149754D01*
X97818272Y18147000D01*
X97761728Y18147000D01*
X97735530Y18149754D01*
X97702891Y18156692D01*
X97680216Y18161512D01*
X97655167Y18169651D01*
X97507270Y18235499D01*
X97491030Y18240820D01*
X97465020Y18252699D01*
X97396908Y18272698D01*
X97396901Y18272700D01*
X97367966Y18276860D01*
X97252231Y18293500D01*
X83692000Y18293500D01*
X83691990Y18293500D01*
X83603267Y18283961D01*
X83582851Y18281766D01*
X83582848Y18281766D01*
X83582844Y18281765D01*
X83582840Y18281765D01*
X83530519Y18270383D01*
X83530498Y18270377D01*
X83426345Y18235712D01*
X83303385Y18156690D01*
X83251019Y18111315D01*
X83249904Y18110401D01*
X83154019Y17999742D01*
X83154017Y17999739D01*
X83093301Y17866790D01*
X83073302Y17798678D01*
X83073300Y17798671D01*
X83052500Y17653997D01*
X83052500Y6149360D01*
X83032498Y6081239D01*
X83005212Y6050971D01*
X78452719Y2408976D01*
X78340388Y2319111D01*
X78274699Y2292175D01*
X78261676Y2291500D01*
X76833990Y2291500D01*
X76745267Y2281961D01*
X76724851Y2279766D01*
X76724848Y2279766D01*
X76724844Y2279765D01*
X76724840Y2279765D01*
X76672519Y2268383D01*
X76672498Y2268377D01*
X76568345Y2233712D01*
X76445385Y2154690D01*
X76393019Y2109315D01*
X76391907Y2108403D01*
X76304910Y2008001D01*
X76296018Y1997740D01*
X76235301Y1864790D01*
X76215302Y1796678D01*
X76215300Y1796671D01*
X76215300Y1796669D01*
X76196357Y1664910D01*
X76194500Y1651997D01*
X76194500Y-2160009D01*
X76206235Y-2269155D01*
X76206235Y-2269159D01*
X76217617Y-2321480D01*
X76217623Y-2321501D01*
X76252288Y-2425654D01*
X76255053Y-2429956D01*
X76331308Y-2548612D01*
X76331311Y-2548615D01*
X76331315Y-2548621D01*
X76376685Y-2600981D01*
X76377601Y-2602097D01*
X76488258Y-2697980D01*
X76488261Y-2697982D01*
X76621210Y-2758698D01*
X76689331Y-2778700D01*
X76834000Y-2799500D01*
X76834004Y-2799500D01*
X81749566Y-2799500D01*
X81760091Y-2798935D01*
X81777021Y-2798028D01*
X81781744Y-2797520D01*
X81817468Y-2793681D01*
X81817472Y-2793680D01*
X81817475Y-2793680D01*
X81871752Y-2784884D01*
X82008693Y-2733806D01*
X82071005Y-2699780D01*
X82073410Y-2697980D01*
X82100090Y-2678006D01*
X82188004Y-2612194D01*
X82960549Y-1839646D01*
X83022862Y-1805622D01*
X83093677Y-1810686D01*
X83150513Y-1853233D01*
X83174955Y-1915572D01*
X83180457Y-1967927D01*
X83203876Y-2040000D01*
X83239473Y-2149556D01*
X83239476Y-2149561D01*
X83334958Y-2314941D01*
X83334965Y-2314951D01*
X83462744Y-2456864D01*
X83462747Y-2456866D01*
X83617248Y-2569118D01*
X83791712Y-2646794D01*
X83978513Y-2686500D01*
X84169487Y-2686500D01*
X84356288Y-2646794D01*
X84530752Y-2569118D01*
X84685253Y-2456866D01*
X84685255Y-2456864D01*
X84813034Y-2314951D01*
X84813035Y-2314949D01*
X84813040Y-2314944D01*
X84908527Y-2149556D01*
X84967542Y-1967928D01*
X84987504Y-1778000D01*
X84967542Y-1588072D01*
X84908527Y-1406444D01*
X84813040Y-1241056D01*
X84813038Y-1241054D01*
X84813034Y-1241048D01*
X84685255Y-1099135D01*
X84530752Y-986882D01*
X84356288Y-909206D01*
X84199545Y-875889D01*
X84137071Y-842160D01*
X84130618Y-830474D01*
X85554278Y-830474D01*
X85574239Y-1020401D01*
X85593392Y-1079345D01*
X85633255Y-1202030D01*
X85653357Y-1236848D01*
X85728740Y-1367415D01*
X85728747Y-1367425D01*
X85856526Y-1509338D01*
X85902733Y-1542909D01*
X86011030Y-1621592D01*
X86185494Y-1699268D01*
X86372295Y-1738974D01*
X86563269Y-1738974D01*
X86750070Y-1699268D01*
X86924534Y-1621592D01*
X87079035Y-1509340D01*
X87171683Y-1406444D01*
X87206816Y-1367425D01*
X87206817Y-1367423D01*
X87206822Y-1367418D01*
X87251519Y-1290000D01*
X101384884Y-1290000D01*
X101403314Y-1500655D01*
X101414636Y-1542909D01*
X101458043Y-1704908D01*
X101458045Y-1704912D01*
X101547412Y-1896561D01*
X101668692Y-2069767D01*
X101668696Y-2069772D01*
X101668699Y-2069776D01*
X101818224Y-2219301D01*
X101818228Y-2219304D01*
X101818232Y-2219307D01*
X101991438Y-2340587D01*
X101991441Y-2340588D01*
X101991442Y-2340589D01*
X102183090Y-2429956D01*
X102387345Y-2484686D01*
X102598000Y-2503116D01*
X102808655Y-2484686D01*
X103012910Y-2429956D01*
X103204558Y-2340589D01*
X103377776Y-2219301D01*
X103527301Y-2069776D01*
X103648589Y-1896558D01*
X103737956Y-1704910D01*
X103792686Y-1500655D01*
X103811116Y-1290000D01*
X103792686Y-1079345D01*
X103737956Y-875090D01*
X103648589Y-683442D01*
X103648588Y-683441D01*
X103648587Y-683438D01*
X103527307Y-510232D01*
X103527304Y-510228D01*
X103527301Y-510224D01*
X103377776Y-360699D01*
X103377772Y-360696D01*
X103377767Y-360692D01*
X103204561Y-239412D01*
X103012912Y-150045D01*
X103012905Y-150042D01*
X102990211Y-143961D01*
X102981794Y-141706D01*
X102921172Y-104756D01*
X102890150Y-40896D01*
X102898578Y29599D01*
X102943780Y84346D01*
X102981793Y101707D01*
X103012910Y110044D01*
X103204558Y199411D01*
X103377776Y320699D01*
X103527301Y470224D01*
X103648589Y643442D01*
X103737956Y835090D01*
X103792686Y1039345D01*
X103811116Y1250000D01*
X103792686Y1460655D01*
X103737956Y1664910D01*
X103648589Y1856558D01*
X103648588Y1856559D01*
X103648587Y1856562D01*
X103527307Y2029768D01*
X103527304Y2029772D01*
X103527301Y2029776D01*
X103377776Y2179301D01*
X103377772Y2179304D01*
X103377767Y2179308D01*
X103204561Y2300588D01*
X103012912Y2389955D01*
X103012908Y2389957D01*
X102918113Y2415357D01*
X102808655Y2444686D01*
X102598000Y2463116D01*
X102387345Y2444686D01*
X102332616Y2430022D01*
X102183091Y2389957D01*
X102183087Y2389955D01*
X101991438Y2300588D01*
X101818232Y2179308D01*
X101818221Y2179299D01*
X101668701Y2029779D01*
X101668692Y2029768D01*
X101547412Y1856562D01*
X101458045Y1664913D01*
X101458043Y1664909D01*
X101417978Y1515384D01*
X101403314Y1460655D01*
X101384884Y1250000D01*
X101403314Y1039345D01*
X101413370Y1001817D01*
X101458043Y835092D01*
X101458045Y835088D01*
X101547412Y643439D01*
X101668692Y470233D01*
X101668696Y470228D01*
X101668699Y470224D01*
X101818224Y320699D01*
X101818228Y320696D01*
X101818232Y320693D01*
X101991438Y199413D01*
X101991441Y199412D01*
X101991442Y199411D01*
X102183090Y110044D01*
X102214205Y101707D01*
X102274828Y64755D01*
X102305849Y895D01*
X102297421Y-69600D01*
X102252218Y-124347D01*
X102214206Y-141706D01*
X102206406Y-143796D01*
X102183091Y-150043D01*
X102183087Y-150045D01*
X101991438Y-239412D01*
X101818232Y-360692D01*
X101818221Y-360701D01*
X101668701Y-510221D01*
X101668692Y-510232D01*
X101547412Y-683438D01*
X101458045Y-875087D01*
X101458043Y-875091D01*
X101428089Y-986882D01*
X101403314Y-1079345D01*
X101384884Y-1290000D01*
X87251519Y-1290000D01*
X87302309Y-1202030D01*
X87361324Y-1020402D01*
X87381286Y-830474D01*
X87361324Y-640546D01*
X87302309Y-458918D01*
X87206822Y-293530D01*
X87206820Y-293528D01*
X87206816Y-293522D01*
X87079037Y-151609D01*
X86924534Y-39356D01*
X86750070Y38320D01*
X86563269Y78026D01*
X86372295Y78026D01*
X86185493Y38320D01*
X86011029Y-39356D01*
X85856526Y-151609D01*
X85728747Y-293522D01*
X85728740Y-293532D01*
X85633258Y-458912D01*
X85633255Y-458919D01*
X85574239Y-640546D01*
X85554278Y-830474D01*
X84130618Y-830474D01*
X84102750Y-780011D01*
X84107478Y-709172D01*
X84136645Y-663549D01*
X85172293Y372099D01*
X85178485Y377527D01*
X87447689Y2117250D01*
X88493996Y2117250D01*
X88513957Y1927323D01*
X88536951Y1856558D01*
X88572973Y1745694D01*
X88572976Y1745689D01*
X88668458Y1580309D01*
X88668465Y1580299D01*
X88796244Y1438386D01*
X88796247Y1438384D01*
X88950748Y1326132D01*
X89125212Y1248456D01*
X89312013Y1208750D01*
X89502987Y1208750D01*
X89689788Y1248456D01*
X89864252Y1326132D01*
X90018753Y1438384D01*
X90038806Y1460655D01*
X90146534Y1580299D01*
X90146535Y1580301D01*
X90146540Y1580306D01*
X90242027Y1745694D01*
X90301042Y1927322D01*
X90321004Y2117250D01*
X90301042Y2307178D01*
X90242027Y2488806D01*
X90146540Y2654194D01*
X90146538Y2654196D01*
X90146534Y2654202D01*
X90018755Y2796115D01*
X89864252Y2908368D01*
X89689788Y2986044D01*
X89502987Y3025750D01*
X89312013Y3025750D01*
X89125211Y2986044D01*
X88950747Y2908368D01*
X88796244Y2796115D01*
X88668465Y2654202D01*
X88668458Y2654192D01*
X88572976Y2488812D01*
X88572973Y2488805D01*
X88513957Y2307178D01*
X88493996Y2117250D01*
X87447689Y2117250D01*
X100225062Y11913237D01*
X100291293Y11938809D01*
X100297780Y11939181D01*
X101305619Y11970677D01*
X101374329Y11952812D01*
X101422475Y11900635D01*
X101434769Y11830711D01*
X101431259Y11812128D01*
X101400436Y11697092D01*
X101385314Y11640655D01*
X101366884Y11430000D01*
X101385314Y11219345D01*
X101414643Y11109887D01*
X101440043Y11015092D01*
X101440045Y11015088D01*
X101529412Y10823439D01*
X101650692Y10650233D01*
X101650696Y10650228D01*
X101650699Y10650224D01*
X101800224Y10500699D01*
X101800228Y10500696D01*
X101800232Y10500693D01*
X101973438Y10379413D01*
X101973441Y10379412D01*
X101973442Y10379411D01*
X102165090Y10290044D01*
X102196205Y10281707D01*
X102256828Y10244755D01*
X102287849Y10180895D01*
X102279421Y10110400D01*
X102234218Y10055653D01*
X102196206Y10038294D01*
X102188406Y10036204D01*
X102165091Y10029957D01*
X102165087Y10029955D01*
X101973438Y9940588D01*
X101800232Y9819308D01*
X101800221Y9819299D01*
X101650701Y9669779D01*
X101650692Y9669768D01*
X101529412Y9496562D01*
X101440045Y9304913D01*
X101440043Y9304909D01*
X101428427Y9261556D01*
X101385314Y9100655D01*
X101366884Y8890000D01*
X101385314Y8679345D01*
X101399457Y8626562D01*
X101440043Y8475092D01*
X101440045Y8475088D01*
X101529412Y8283439D01*
X101650692Y8110233D01*
X101650696Y8110228D01*
X101650699Y8110224D01*
X101800224Y7960699D01*
X101800228Y7960696D01*
X101800232Y7960693D01*
X101973438Y7839413D01*
X101973441Y7839412D01*
X101973442Y7839411D01*
X102165090Y7750044D01*
X102369345Y7695314D01*
X102580000Y7676884D01*
X102790655Y7695314D01*
X102994910Y7750044D01*
X103186558Y7839411D01*
X103359776Y7960699D01*
X103509301Y8110224D01*
X103630589Y8283442D01*
X103719956Y8475090D01*
X103774686Y8679345D01*
X103793116Y8890000D01*
X103774686Y9100655D01*
X103719956Y9304910D01*
X103630589Y9496558D01*
X103630588Y9496559D01*
X103630587Y9496562D01*
X103509307Y9669768D01*
X103509304Y9669772D01*
X103509301Y9669776D01*
X103359776Y9819301D01*
X103359772Y9819304D01*
X103359767Y9819308D01*
X103186561Y9940588D01*
X102994912Y10029955D01*
X102994905Y10029958D01*
X102972211Y10036039D01*
X102963794Y10038294D01*
X102903172Y10075244D01*
X102872150Y10139104D01*
X102880578Y10209599D01*
X102925780Y10264346D01*
X102963793Y10281707D01*
X102994910Y10290044D01*
X103186558Y10379411D01*
X103359776Y10500699D01*
X103509301Y10650224D01*
X103630589Y10823442D01*
X103719956Y11015090D01*
X103774686Y11219345D01*
X103793116Y11430000D01*
X103774686Y11640655D01*
X103719956Y11844910D01*
X103708249Y11870016D01*
X103697587Y11940207D01*
X103726566Y12005020D01*
X103785985Y12043877D01*
X103818503Y12049206D01*
X104010066Y12055192D01*
X104078777Y12037327D01*
X104126923Y11985150D01*
X104140000Y11929253D01*
X104140000Y-36695523D01*
X104119998Y-36763644D01*
X104090252Y-36795830D01*
X103854989Y-36974673D01*
X103854962Y-36974695D01*
X103594516Y-37221404D01*
X103362256Y-37494843D01*
X103160924Y-37791785D01*
X103160922Y-37791789D01*
X102992876Y-38108759D01*
X102992872Y-38108768D01*
X102860084Y-38442040D01*
X102764103Y-38787730D01*
X102706064Y-39141762D01*
X102686641Y-39499996D01*
X102686641Y-39500003D01*
X102706064Y-39858237D01*
X102764103Y-40212269D01*
X102860084Y-40557959D01*
X102967857Y-40828449D01*
X102992877Y-40891243D01*
X103081264Y-41057959D01*
X103160922Y-41208210D01*
X103160924Y-41208214D01*
X103283438Y-41388908D01*
X103362258Y-41505159D01*
X103533665Y-41706955D01*
X103594516Y-41778595D01*
X103854962Y-42025304D01*
X103854977Y-42025317D01*
X104090253Y-42204169D01*
X104132378Y-42261315D01*
X104140000Y-42304475D01*
X104140000Y-49373500D01*
X104119998Y-49441621D01*
X104066342Y-49488114D01*
X104014000Y-49499500D01*
X78055885Y-49499500D01*
X77987764Y-49479498D01*
X77941271Y-49425842D01*
X77931167Y-49355568D01*
X77960661Y-49290988D01*
X78012124Y-49255344D01*
X78090078Y-49226472D01*
X78090077Y-49226472D01*
X78090081Y-49226471D01*
X78254653Y-49123893D01*
X78395207Y-48990286D01*
X78505989Y-48831122D01*
X78582463Y-48652915D01*
X78621500Y-48462961D01*
X78621500Y-47657648D01*
X78621499Y-47657629D01*
X78606798Y-47513076D01*
X78606798Y-47513072D01*
X78548745Y-47328043D01*
X78454634Y-47158487D01*
X78328318Y-47011346D01*
X78326579Y-47010000D01*
X101384884Y-47010000D01*
X101403314Y-47220655D01*
X101408733Y-47240878D01*
X101458043Y-47424908D01*
X101458045Y-47424912D01*
X101547412Y-47616561D01*
X101668692Y-47789767D01*
X101668696Y-47789772D01*
X101668699Y-47789776D01*
X101818224Y-47939301D01*
X101818228Y-47939304D01*
X101818232Y-47939307D01*
X101991438Y-48060587D01*
X101991441Y-48060588D01*
X101991442Y-48060589D01*
X102183090Y-48149956D01*
X102387345Y-48204686D01*
X102598000Y-48223116D01*
X102808655Y-48204686D01*
X103012910Y-48149956D01*
X103204558Y-48060589D01*
X103377776Y-47939301D01*
X103527301Y-47789776D01*
X103648589Y-47616558D01*
X103737956Y-47424910D01*
X103792686Y-47220655D01*
X103811116Y-47010000D01*
X103792686Y-46799345D01*
X103737956Y-46595090D01*
X103648589Y-46403442D01*
X103648588Y-46403441D01*
X103648587Y-46403438D01*
X103527307Y-46230232D01*
X103527304Y-46230228D01*
X103527301Y-46230224D01*
X103377776Y-46080699D01*
X103377772Y-46080696D01*
X103377767Y-46080692D01*
X103204561Y-45959412D01*
X103012912Y-45870045D01*
X103012905Y-45870042D01*
X102990211Y-45863961D01*
X102981794Y-45861706D01*
X102921172Y-45824756D01*
X102890150Y-45760896D01*
X102898578Y-45690401D01*
X102943780Y-45635654D01*
X102981793Y-45618293D01*
X103012910Y-45609956D01*
X103204558Y-45520589D01*
X103377776Y-45399301D01*
X103527301Y-45249776D01*
X103648589Y-45076558D01*
X103737956Y-44884910D01*
X103792686Y-44680655D01*
X103811116Y-44470000D01*
X103792686Y-44259345D01*
X103737956Y-44055090D01*
X103648589Y-43863442D01*
X103648588Y-43863441D01*
X103648587Y-43863438D01*
X103527307Y-43690232D01*
X103527304Y-43690228D01*
X103527301Y-43690224D01*
X103377776Y-43540699D01*
X103377772Y-43540696D01*
X103377767Y-43540692D01*
X103204561Y-43419412D01*
X103012912Y-43330045D01*
X103012908Y-43330043D01*
X102918113Y-43304643D01*
X102808655Y-43275314D01*
X102598000Y-43256884D01*
X102387345Y-43275314D01*
X102332616Y-43289978D01*
X102183091Y-43330043D01*
X102183087Y-43330045D01*
X101991438Y-43419412D01*
X101818232Y-43540692D01*
X101818221Y-43540701D01*
X101668701Y-43690221D01*
X101668692Y-43690232D01*
X101547412Y-43863438D01*
X101458045Y-44055087D01*
X101458043Y-44055091D01*
X101417978Y-44204616D01*
X101403314Y-44259345D01*
X101384884Y-44470000D01*
X101403314Y-44680655D01*
X101416774Y-44730889D01*
X101458043Y-44884908D01*
X101458045Y-44884912D01*
X101547412Y-45076561D01*
X101668692Y-45249767D01*
X101668696Y-45249772D01*
X101668699Y-45249776D01*
X101818224Y-45399301D01*
X101818228Y-45399304D01*
X101818232Y-45399307D01*
X101991438Y-45520587D01*
X101991441Y-45520588D01*
X101991442Y-45520589D01*
X102183090Y-45609956D01*
X102214205Y-45618293D01*
X102274828Y-45655245D01*
X102305849Y-45719105D01*
X102297421Y-45789600D01*
X102252218Y-45844347D01*
X102214206Y-45861706D01*
X102206406Y-45863796D01*
X102183091Y-45870043D01*
X102183087Y-45870045D01*
X101991438Y-45959412D01*
X101818232Y-46080692D01*
X101818221Y-46080701D01*
X101668701Y-46230221D01*
X101668692Y-46230232D01*
X101547412Y-46403438D01*
X101458045Y-46595087D01*
X101458043Y-46595091D01*
X101417978Y-46744616D01*
X101403314Y-46799345D01*
X101384884Y-47010000D01*
X78326579Y-47010000D01*
X78174968Y-46892645D01*
X78000863Y-46807242D01*
X77813131Y-46758635D01*
X77813129Y-46758634D01*
X77813126Y-46758634D01*
X77813122Y-46758633D01*
X77619457Y-46748812D01*
X77427766Y-46778178D01*
X77427762Y-46778180D01*
X77245921Y-46845527D01*
X77245915Y-46845530D01*
X77081353Y-46948102D01*
X77081348Y-46948106D01*
X76940789Y-47081718D01*
X76830010Y-47240877D01*
X76753538Y-47419081D01*
X76714500Y-47609037D01*
X76714500Y-48414370D01*
X76726941Y-48536697D01*
X76729202Y-48558928D01*
X76787255Y-48743957D01*
X76881366Y-48913513D01*
X77007682Y-49060654D01*
X77161032Y-49179355D01*
X77326206Y-49260377D01*
X77378556Y-49308335D01*
X77396668Y-49376982D01*
X77374791Y-49444524D01*
X77319871Y-49489516D01*
X77270716Y-49499500D01*
X71055885Y-49499500D01*
X70987764Y-49479498D01*
X70941271Y-49425842D01*
X70931167Y-49355568D01*
X70960661Y-49290988D01*
X71012124Y-49255344D01*
X71090078Y-49226472D01*
X71090077Y-49226472D01*
X71090081Y-49226471D01*
X71254653Y-49123893D01*
X71395207Y-48990286D01*
X71505989Y-48831122D01*
X71582463Y-48652915D01*
X71621500Y-48462961D01*
X71621500Y-47657648D01*
X71621499Y-47657629D01*
X71606798Y-47513076D01*
X71606798Y-47513072D01*
X71548745Y-47328043D01*
X71454634Y-47158487D01*
X71328318Y-47011346D01*
X71174968Y-46892645D01*
X71000863Y-46807242D01*
X70813131Y-46758635D01*
X70813129Y-46758634D01*
X70813126Y-46758634D01*
X70813122Y-46758633D01*
X70619457Y-46748812D01*
X70427766Y-46778178D01*
X70427762Y-46778180D01*
X70245921Y-46845527D01*
X70245915Y-46845530D01*
X70081353Y-46948102D01*
X70081348Y-46948106D01*
X69940789Y-47081718D01*
X69830010Y-47240877D01*
X69753538Y-47419081D01*
X69714500Y-47609037D01*
X69714500Y-48414370D01*
X69726941Y-48536697D01*
X69729202Y-48558928D01*
X69787255Y-48743957D01*
X69881366Y-48913513D01*
X70007682Y-49060654D01*
X70161032Y-49179355D01*
X70326206Y-49260377D01*
X70378556Y-49308335D01*
X70396668Y-49376982D01*
X70374791Y-49444524D01*
X70319871Y-49489516D01*
X70270716Y-49499500D01*
X22525158Y-49499500D01*
X22524952Y-49499459D01*
X22500001Y-49499459D01*
X22500000Y-49499459D01*
X22499901Y-49499500D01*
X22499617Y-49499617D01*
X22499459Y-49500000D01*
X22499476Y-49525014D01*
X22499471Y-49525014D01*
X22499500Y-49525157D01*
X22499500Y-53373500D01*
X22479498Y-53441621D01*
X22425842Y-53488114D01*
X22373500Y-53499500D01*
X7626500Y-53499500D01*
X7558379Y-53479498D01*
X7511886Y-53425842D01*
X7500500Y-53373500D01*
X7500500Y-49525157D01*
X7500528Y-49525014D01*
X7500524Y-49525014D01*
X7500539Y-49500002D01*
X7500541Y-49500000D01*
X7500383Y-49499617D01*
X7500099Y-49499500D01*
X7500000Y-49499459D01*
X7499999Y-49499459D01*
X7475048Y-49499459D01*
X7474842Y-49499500D01*
X1052397Y-49499500D01*
X984276Y-49479498D01*
X963306Y-49462599D01*
X37402Y-48536694D01*
X3379Y-48474385D01*
X500Y-48447602D01*
X500Y-43500003D01*
X1186641Y-43500003D01*
X1206064Y-43858237D01*
X1264103Y-44212269D01*
X1360084Y-44557959D01*
X1490353Y-44884910D01*
X1492877Y-44891243D01*
X1546647Y-44992664D01*
X1660922Y-45208210D01*
X1660924Y-45208214D01*
X1843001Y-45476757D01*
X1862258Y-45505159D01*
X1951273Y-45609956D01*
X2094516Y-45778595D01*
X2354962Y-46025304D01*
X2354977Y-46025317D01*
X2640586Y-46242431D01*
X2947995Y-46427393D01*
X3273599Y-46578033D01*
X3613583Y-46692587D01*
X3963958Y-46769711D01*
X4320618Y-46808500D01*
X4320626Y-46808500D01*
X4679374Y-46808500D01*
X4679382Y-46808500D01*
X5036042Y-46769711D01*
X5386417Y-46692587D01*
X5726401Y-46578033D01*
X6052005Y-46427393D01*
X6359414Y-46242431D01*
X6645023Y-46025317D01*
X6905484Y-45778595D01*
X7137742Y-45505159D01*
X7339075Y-45208215D01*
X7507123Y-44891243D01*
X7639915Y-44557961D01*
X7735895Y-44212274D01*
X7793936Y-43858237D01*
X7813359Y-43500003D01*
X22186641Y-43500003D01*
X22206064Y-43858237D01*
X22264103Y-44212269D01*
X22360084Y-44557959D01*
X22490353Y-44884910D01*
X22492877Y-44891243D01*
X22546647Y-44992664D01*
X22660922Y-45208210D01*
X22660924Y-45208214D01*
X22843001Y-45476757D01*
X22862258Y-45505159D01*
X22951273Y-45609956D01*
X23094516Y-45778595D01*
X23354962Y-46025304D01*
X23354977Y-46025317D01*
X23640586Y-46242431D01*
X23947995Y-46427393D01*
X24273599Y-46578033D01*
X24613583Y-46692587D01*
X24963958Y-46769711D01*
X25320618Y-46808500D01*
X25320626Y-46808500D01*
X25679374Y-46808500D01*
X25679382Y-46808500D01*
X26036042Y-46769711D01*
X26386417Y-46692587D01*
X26726401Y-46578033D01*
X27052005Y-46427393D01*
X27359414Y-46242431D01*
X27645023Y-46025317D01*
X27905484Y-45778595D01*
X28137742Y-45505159D01*
X28218487Y-45386069D01*
X70530696Y-45386069D01*
X70560985Y-45583785D01*
X70560985Y-45583786D01*
X70560986Y-45583788D01*
X70630456Y-45771361D01*
X70736261Y-45941111D01*
X70874071Y-46086087D01*
X70874074Y-46086089D01*
X70874075Y-46086090D01*
X71038243Y-46200355D01*
X71148932Y-46247854D01*
X71222058Y-46279235D01*
X71417988Y-46319500D01*
X71417992Y-46319500D01*
X71867876Y-46319500D01*
X71867877Y-46319500D01*
X72016998Y-46304336D01*
X72207849Y-46244456D01*
X72382740Y-46147384D01*
X72382741Y-46147383D01*
X72382743Y-46147382D01*
X72437847Y-46100075D01*
X72534510Y-46017093D01*
X72656946Y-45858919D01*
X72745036Y-45679336D01*
X72795172Y-45485697D01*
X72800225Y-45386069D01*
X75530696Y-45386069D01*
X75560985Y-45583785D01*
X75560985Y-45583786D01*
X75560986Y-45583788D01*
X75630456Y-45771361D01*
X75736261Y-45941111D01*
X75874071Y-46086087D01*
X75874074Y-46086089D01*
X75874075Y-46086090D01*
X76038243Y-46200355D01*
X76148932Y-46247854D01*
X76222058Y-46279235D01*
X76417988Y-46319500D01*
X76417992Y-46319500D01*
X76867876Y-46319500D01*
X76867877Y-46319500D01*
X77016998Y-46304336D01*
X77207849Y-46244456D01*
X77382740Y-46147384D01*
X77382741Y-46147383D01*
X77382743Y-46147382D01*
X77437847Y-46100075D01*
X77534510Y-46017093D01*
X77656946Y-45858919D01*
X77745036Y-45679336D01*
X77795172Y-45485697D01*
X77805303Y-45285930D01*
X77775014Y-45088212D01*
X77705544Y-44900639D01*
X77599739Y-44730889D01*
X77461929Y-44585913D01*
X77461925Y-44585910D01*
X77461924Y-44585909D01*
X77297756Y-44471644D01*
X77113945Y-44392766D01*
X77113943Y-44392765D01*
X77113942Y-44392765D01*
X76970867Y-44363362D01*
X76918013Y-44352500D01*
X76918012Y-44352500D01*
X76468123Y-44352500D01*
X76468122Y-44352500D01*
X76468104Y-44352501D01*
X76319006Y-44367663D01*
X76319003Y-44367663D01*
X76319002Y-44367664D01*
X76267298Y-44383886D01*
X76128152Y-44427543D01*
X75953256Y-44524617D01*
X75801496Y-44654901D01*
X75801494Y-44654903D01*
X75801490Y-44654907D01*
X75679054Y-44813081D01*
X75679051Y-44813085D01*
X75590965Y-44992661D01*
X75590964Y-44992664D01*
X75540827Y-45186307D01*
X75540827Y-45186310D01*
X75530696Y-45386069D01*
X72800225Y-45386069D01*
X72805303Y-45285930D01*
X72775014Y-45088212D01*
X72705544Y-44900639D01*
X72599739Y-44730889D01*
X72461929Y-44585913D01*
X72461925Y-44585910D01*
X72461924Y-44585909D01*
X72297756Y-44471644D01*
X72113945Y-44392766D01*
X72113943Y-44392765D01*
X72113942Y-44392765D01*
X71970867Y-44363362D01*
X71918013Y-44352500D01*
X71918012Y-44352500D01*
X71468123Y-44352500D01*
X71468122Y-44352500D01*
X71468104Y-44352501D01*
X71319006Y-44367663D01*
X71319003Y-44367663D01*
X71319002Y-44367664D01*
X71267298Y-44383886D01*
X71128152Y-44427543D01*
X70953256Y-44524617D01*
X70801496Y-44654901D01*
X70801494Y-44654903D01*
X70801490Y-44654907D01*
X70679054Y-44813081D01*
X70679051Y-44813085D01*
X70590965Y-44992661D01*
X70590964Y-44992664D01*
X70540827Y-45186307D01*
X70540827Y-45186310D01*
X70530696Y-45386069D01*
X28218487Y-45386069D01*
X28339075Y-45208215D01*
X28507123Y-44891243D01*
X28639915Y-44557961D01*
X28735895Y-44212274D01*
X28793936Y-43858237D01*
X28803166Y-43688000D01*
X44356844Y-43688000D01*
X44371381Y-43863438D01*
X44375437Y-43912375D01*
X44430702Y-44130612D01*
X44430703Y-44130613D01*
X44430704Y-44130616D01*
X44487170Y-44259346D01*
X44521141Y-44336793D01*
X44644275Y-44525265D01*
X44644279Y-44525270D01*
X44796762Y-44690908D01*
X44848130Y-44730889D01*
X44974424Y-44829189D01*
X45172426Y-44936342D01*
X45172427Y-44936342D01*
X45172428Y-44936343D01*
X45284227Y-44974723D01*
X45385365Y-45009444D01*
X45607431Y-45046500D01*
X45607435Y-45046500D01*
X45832565Y-45046500D01*
X45832569Y-45046500D01*
X46054635Y-45009444D01*
X46267574Y-44936342D01*
X46465576Y-44829189D01*
X46643240Y-44690906D01*
X46704245Y-44624637D01*
X46765096Y-44588067D01*
X46836061Y-44590200D01*
X46894606Y-44630362D01*
X46915000Y-44665941D01*
X46959111Y-44784204D01*
X46959112Y-44784207D01*
X47046738Y-44901261D01*
X47163792Y-44988887D01*
X47163794Y-44988888D01*
X47163796Y-44988889D01*
X47218900Y-45009442D01*
X47300795Y-45039988D01*
X47300803Y-45039990D01*
X47361350Y-45046499D01*
X47361355Y-45046499D01*
X47361362Y-45046500D01*
X47361368Y-45046500D01*
X49158632Y-45046500D01*
X49158638Y-45046500D01*
X49158645Y-45046499D01*
X49158649Y-45046499D01*
X49219196Y-45039990D01*
X49219199Y-45039989D01*
X49219201Y-45039989D01*
X49356204Y-44988889D01*
X49426399Y-44936342D01*
X49473261Y-44901261D01*
X49560887Y-44784207D01*
X49560887Y-44784206D01*
X49560889Y-44784204D01*
X49611989Y-44647201D01*
X49613800Y-44630362D01*
X49618499Y-44586649D01*
X49618500Y-44586632D01*
X49618500Y-42789367D01*
X49618499Y-42789350D01*
X49611990Y-42728803D01*
X49611988Y-42728795D01*
X49560889Y-42591797D01*
X49560887Y-42591792D01*
X49473261Y-42474738D01*
X49356207Y-42387112D01*
X49356202Y-42387110D01*
X49219204Y-42336011D01*
X49219196Y-42336009D01*
X49158649Y-42329500D01*
X49158638Y-42329500D01*
X47361362Y-42329500D01*
X47361350Y-42329500D01*
X47300803Y-42336009D01*
X47300795Y-42336011D01*
X47163797Y-42387110D01*
X47163792Y-42387112D01*
X47046738Y-42474738D01*
X46959112Y-42591792D01*
X46959111Y-42591795D01*
X46915000Y-42710058D01*
X46872453Y-42766893D01*
X46805932Y-42791703D01*
X46736558Y-42776611D01*
X46704246Y-42751363D01*
X46643240Y-42685094D01*
X46643239Y-42685093D01*
X46643237Y-42685091D01*
X46523372Y-42591796D01*
X46465576Y-42546811D01*
X46267574Y-42439658D01*
X46267572Y-42439657D01*
X46267571Y-42439656D01*
X46054639Y-42366557D01*
X46054630Y-42366555D01*
X46010476Y-42359187D01*
X45832569Y-42329500D01*
X45607431Y-42329500D01*
X45459211Y-42354233D01*
X45385369Y-42366555D01*
X45385360Y-42366557D01*
X45172428Y-42439656D01*
X45172426Y-42439658D01*
X44974426Y-42546810D01*
X44974424Y-42546811D01*
X44796762Y-42685091D01*
X44644279Y-42850729D01*
X44644275Y-42850734D01*
X44521141Y-43039206D01*
X44430703Y-43245386D01*
X44430702Y-43245387D01*
X44375437Y-43463624D01*
X44375436Y-43463630D01*
X44375436Y-43463632D01*
X44356844Y-43688000D01*
X28803166Y-43688000D01*
X28813359Y-43500000D01*
X28793936Y-43141763D01*
X28736164Y-42789367D01*
X28735896Y-42787730D01*
X28730111Y-42766893D01*
X28639915Y-42442039D01*
X28507123Y-42108757D01*
X28339075Y-41791785D01*
X28137742Y-41494841D01*
X27959204Y-41284649D01*
X75603500Y-41284649D01*
X75610009Y-41345196D01*
X75610011Y-41345204D01*
X75661110Y-41482202D01*
X75661112Y-41482207D01*
X75748738Y-41599261D01*
X75865792Y-41686887D01*
X75865794Y-41686888D01*
X75865796Y-41686889D01*
X75919600Y-41706957D01*
X76002795Y-41737988D01*
X76002803Y-41737990D01*
X76063350Y-41744499D01*
X76063355Y-41744499D01*
X76063362Y-41744500D01*
X76063368Y-41744500D01*
X77860632Y-41744500D01*
X77860638Y-41744500D01*
X77860645Y-41744499D01*
X77860649Y-41744499D01*
X77921196Y-41737990D01*
X77921199Y-41737989D01*
X77921201Y-41737989D01*
X78058204Y-41686889D01*
X78175261Y-41599261D01*
X78199664Y-41566661D01*
X78256500Y-41524115D01*
X78327315Y-41519049D01*
X78389628Y-41553074D01*
X78406016Y-41573255D01*
X78426275Y-41604265D01*
X78426279Y-41604270D01*
X78578762Y-41769908D01*
X78606870Y-41791785D01*
X78756424Y-41908189D01*
X78954426Y-42015342D01*
X78954427Y-42015342D01*
X78954428Y-42015343D01*
X78983444Y-42025304D01*
X79167365Y-42088444D01*
X79389431Y-42125500D01*
X79389435Y-42125500D01*
X79614565Y-42125500D01*
X79614569Y-42125500D01*
X79836635Y-42088444D01*
X80049574Y-42015342D01*
X80247576Y-41908189D01*
X80425240Y-41769906D01*
X80577722Y-41604268D01*
X80700860Y-41415791D01*
X80766241Y-41266735D01*
X80811920Y-41212389D01*
X80879732Y-41191365D01*
X80948146Y-41210341D01*
X80974328Y-41232013D01*
X81118762Y-41388908D01*
X81153301Y-41415791D01*
X81296424Y-41527189D01*
X81494426Y-41634342D01*
X81494427Y-41634342D01*
X81494428Y-41634343D01*
X81606227Y-41672723D01*
X81707365Y-41707444D01*
X81929431Y-41744500D01*
X81929435Y-41744500D01*
X82154565Y-41744500D01*
X82154569Y-41744500D01*
X82376635Y-41707444D01*
X82589574Y-41634342D01*
X82787576Y-41527189D01*
X82965240Y-41388906D01*
X83109672Y-41232012D01*
X83170524Y-41195442D01*
X83241489Y-41197577D01*
X83300034Y-41237739D01*
X83317759Y-41266736D01*
X83352177Y-41345201D01*
X83383141Y-41415793D01*
X83506275Y-41604265D01*
X83506279Y-41604270D01*
X83658762Y-41769908D01*
X83686870Y-41791785D01*
X83836424Y-41908189D01*
X84034426Y-42015342D01*
X84034427Y-42015342D01*
X84034428Y-42015343D01*
X84063444Y-42025304D01*
X84247365Y-42088444D01*
X84469431Y-42125500D01*
X84469435Y-42125500D01*
X84694565Y-42125500D01*
X84694569Y-42125500D01*
X84916635Y-42088444D01*
X85129574Y-42015342D01*
X85327576Y-41908189D01*
X85505240Y-41769906D01*
X85657722Y-41604268D01*
X85780860Y-41415791D01*
X85846461Y-41266232D01*
X85892140Y-41211888D01*
X85959952Y-41190863D01*
X86028366Y-41209839D01*
X86054549Y-41231512D01*
X86199097Y-41388534D01*
X86376698Y-41526767D01*
X86376699Y-41526768D01*
X86574628Y-41633882D01*
X86574630Y-41633883D01*
X86787483Y-41706955D01*
X86787492Y-41706957D01*
X86868000Y-41720391D01*
X86868000Y-40819674D01*
X86979685Y-40870680D01*
X87086237Y-40886000D01*
X87157763Y-40886000D01*
X87264315Y-40870680D01*
X87376000Y-40819674D01*
X87376000Y-41720390D01*
X87456507Y-41706957D01*
X87456516Y-41706955D01*
X87669369Y-41633883D01*
X87669371Y-41633882D01*
X87867300Y-41526768D01*
X87867301Y-41526767D01*
X88044902Y-41388534D01*
X88197325Y-41222958D01*
X88320419Y-41034548D01*
X88410820Y-40828456D01*
X88410823Y-40828449D01*
X88458544Y-40640000D01*
X87553116Y-40640000D01*
X87581493Y-40595844D01*
X87622000Y-40457889D01*
X87622000Y-40314111D01*
X87581493Y-40176156D01*
X87553116Y-40132000D01*
X88458544Y-40132000D01*
X88458544Y-40131999D01*
X88425119Y-40000003D01*
X89686641Y-40000003D01*
X89706064Y-40358237D01*
X89764103Y-40712269D01*
X89860084Y-41057959D01*
X89991946Y-41388908D01*
X89992877Y-41391243D01*
X90085878Y-41566662D01*
X90160922Y-41708210D01*
X90160924Y-41708214D01*
X90296510Y-41908188D01*
X90362258Y-42005159D01*
X90563798Y-42242431D01*
X90594516Y-42278595D01*
X90854962Y-42525304D01*
X90854977Y-42525317D01*
X91140586Y-42742431D01*
X91447995Y-42927393D01*
X91773599Y-43078033D01*
X92113583Y-43192587D01*
X92463958Y-43269711D01*
X92820618Y-43308500D01*
X92820626Y-43308500D01*
X93179374Y-43308500D01*
X93179382Y-43308500D01*
X93536042Y-43269711D01*
X93886417Y-43192587D01*
X94226401Y-43078033D01*
X94552005Y-42927393D01*
X94859414Y-42742431D01*
X95145023Y-42525317D01*
X95198418Y-42474739D01*
X95290926Y-42387110D01*
X95405484Y-42278595D01*
X95637742Y-42005159D01*
X95839075Y-41708215D01*
X96007123Y-41391243D01*
X96139915Y-41057961D01*
X96235895Y-40712274D01*
X96293936Y-40358237D01*
X96313359Y-40000000D01*
X96293936Y-39641763D01*
X96252823Y-39390984D01*
X96235896Y-39287730D01*
X96235895Y-39287726D01*
X96139915Y-38942039D01*
X96007123Y-38608757D01*
X95839075Y-38291785D01*
X95637742Y-37994841D01*
X95405484Y-37721405D01*
X95405483Y-37721404D01*
X95145037Y-37474695D01*
X95145022Y-37474682D01*
X94859418Y-37257572D01*
X94859412Y-37257568D01*
X94552010Y-37072610D01*
X94552009Y-37072609D01*
X94552005Y-37072607D01*
X94226401Y-36921967D01*
X93886417Y-36807413D01*
X93833795Y-36795830D01*
X93536054Y-36730291D01*
X93536030Y-36730287D01*
X93179389Y-36691500D01*
X93179382Y-36691500D01*
X92820618Y-36691500D01*
X92820610Y-36691500D01*
X92463969Y-36730287D01*
X92463945Y-36730291D01*
X92113587Y-36807412D01*
X92113573Y-36807416D01*
X91773601Y-36921966D01*
X91447989Y-37072610D01*
X91140587Y-37257568D01*
X91140581Y-37257572D01*
X90854977Y-37474682D01*
X90854962Y-37474695D01*
X90594516Y-37721404D01*
X90362256Y-37994843D01*
X90160924Y-38291785D01*
X90160922Y-38291789D01*
X89992876Y-38608759D01*
X89992872Y-38608768D01*
X89860084Y-38942040D01*
X89764103Y-39287730D01*
X89706064Y-39641762D01*
X89686641Y-39999996D01*
X89686641Y-40000003D01*
X88425119Y-40000003D01*
X88410823Y-39943550D01*
X88410820Y-39943543D01*
X88320419Y-39737451D01*
X88197325Y-39549041D01*
X88044902Y-39383465D01*
X87867301Y-39245232D01*
X87867300Y-39245231D01*
X87669371Y-39138117D01*
X87669369Y-39138116D01*
X87456512Y-39065043D01*
X87456501Y-39065040D01*
X87376000Y-39051606D01*
X87376000Y-39952325D01*
X87264315Y-39901320D01*
X87157763Y-39886000D01*
X87086237Y-39886000D01*
X86979685Y-39901320D01*
X86868000Y-39952325D01*
X86868000Y-39051607D01*
X86867999Y-39051606D01*
X86787498Y-39065040D01*
X86787487Y-39065043D01*
X86574630Y-39138116D01*
X86574628Y-39138117D01*
X86376699Y-39245231D01*
X86376698Y-39245232D01*
X86199097Y-39383465D01*
X86046674Y-39549041D01*
X85923580Y-39737451D01*
X85858129Y-39886663D01*
X85812448Y-39941011D01*
X85744635Y-39962035D01*
X85676222Y-39943059D01*
X85650042Y-39921387D01*
X85505240Y-39764094D01*
X85471009Y-39737451D01*
X85327576Y-39625811D01*
X85129574Y-39518658D01*
X85129572Y-39518657D01*
X85129571Y-39518656D01*
X84916639Y-39445557D01*
X84916630Y-39445555D01*
X84872476Y-39438187D01*
X84694569Y-39408500D01*
X84469431Y-39408500D01*
X84321211Y-39433233D01*
X84247369Y-39445555D01*
X84247360Y-39445557D01*
X84034428Y-39518656D01*
X84034426Y-39518658D01*
X83978860Y-39548729D01*
X83836426Y-39625810D01*
X83836424Y-39625811D01*
X83658762Y-39764091D01*
X83514327Y-39920987D01*
X83453474Y-39957557D01*
X83382509Y-39955422D01*
X83323964Y-39915260D01*
X83306240Y-39886262D01*
X83240860Y-39737209D01*
X83178502Y-39641763D01*
X83117724Y-39548734D01*
X83117720Y-39548729D01*
X82988628Y-39408500D01*
X82965240Y-39383094D01*
X82965239Y-39383093D01*
X82965237Y-39383091D01*
X82845367Y-39289792D01*
X82787576Y-39244811D01*
X82589574Y-39137658D01*
X82589572Y-39137657D01*
X82589571Y-39137656D01*
X82376639Y-39064557D01*
X82376630Y-39064555D01*
X82299029Y-39051606D01*
X82154569Y-39027500D01*
X81929431Y-39027500D01*
X81784971Y-39051606D01*
X81707369Y-39064555D01*
X81707360Y-39064557D01*
X81494428Y-39137656D01*
X81494426Y-39137658D01*
X81296426Y-39244810D01*
X81296424Y-39244811D01*
X81118762Y-39383091D01*
X80966279Y-39548729D01*
X80966275Y-39548734D01*
X80843139Y-39737209D01*
X80777759Y-39886262D01*
X80732078Y-39940610D01*
X80664266Y-39961634D01*
X80595852Y-39942658D01*
X80569671Y-39920986D01*
X80425237Y-39764091D01*
X80343382Y-39700381D01*
X80247576Y-39625811D01*
X80049574Y-39518658D01*
X80049572Y-39518657D01*
X80049571Y-39518656D01*
X79836639Y-39445557D01*
X79836630Y-39445555D01*
X79792476Y-39438187D01*
X79614569Y-39408500D01*
X79389431Y-39408500D01*
X79241211Y-39433233D01*
X79167369Y-39445555D01*
X79167360Y-39445557D01*
X78954428Y-39518656D01*
X78954426Y-39518658D01*
X78898860Y-39548729D01*
X78756426Y-39625810D01*
X78756424Y-39625811D01*
X78578762Y-39764091D01*
X78539200Y-39807067D01*
X78478347Y-39843637D01*
X78407382Y-39841502D01*
X78348837Y-39801340D01*
X78321300Y-39735901D01*
X78320500Y-39721728D01*
X78320500Y-39487367D01*
X78320499Y-39487350D01*
X78313990Y-39426803D01*
X78313988Y-39426795D01*
X78262889Y-39289797D01*
X78262887Y-39289792D01*
X78175261Y-39172738D01*
X78058207Y-39085112D01*
X78058202Y-39085110D01*
X77921204Y-39034011D01*
X77921196Y-39034009D01*
X77860649Y-39027500D01*
X77860638Y-39027500D01*
X76063362Y-39027500D01*
X76063350Y-39027500D01*
X76002803Y-39034009D01*
X76002795Y-39034011D01*
X75865797Y-39085110D01*
X75865792Y-39085112D01*
X75748738Y-39172738D01*
X75661112Y-39289792D01*
X75661110Y-39289797D01*
X75610011Y-39426795D01*
X75610009Y-39426803D01*
X75603500Y-39487350D01*
X75603500Y-41284649D01*
X27959204Y-41284649D01*
X27905484Y-41221405D01*
X27893039Y-41209616D01*
X27645037Y-40974695D01*
X27645022Y-40974682D01*
X27359418Y-40757572D01*
X27359412Y-40757568D01*
X27052010Y-40572610D01*
X27052009Y-40572609D01*
X27052005Y-40572607D01*
X26726401Y-40421967D01*
X26386417Y-40307413D01*
X26338915Y-40296956D01*
X26036054Y-40230291D01*
X26036030Y-40230287D01*
X25679389Y-40191500D01*
X25679382Y-40191500D01*
X25320618Y-40191500D01*
X25320610Y-40191500D01*
X24963969Y-40230287D01*
X24963945Y-40230291D01*
X24613587Y-40307412D01*
X24613573Y-40307416D01*
X24273601Y-40421966D01*
X24273599Y-40421967D01*
X23979657Y-40557959D01*
X23947989Y-40572610D01*
X23640587Y-40757568D01*
X23640581Y-40757572D01*
X23354977Y-40974682D01*
X23354962Y-40974695D01*
X23094516Y-41221404D01*
X22862256Y-41494843D01*
X22660924Y-41791785D01*
X22660922Y-41791789D01*
X22492876Y-42108759D01*
X22492872Y-42108768D01*
X22360084Y-42442040D01*
X22264103Y-42787730D01*
X22206064Y-43141762D01*
X22186641Y-43499996D01*
X22186641Y-43500003D01*
X7813359Y-43500003D01*
X7813359Y-43500000D01*
X7793936Y-43141763D01*
X7736164Y-42789367D01*
X7735896Y-42787730D01*
X7730111Y-42766893D01*
X7639915Y-42442039D01*
X7507123Y-42108757D01*
X7339075Y-41791785D01*
X7137742Y-41494841D01*
X6905484Y-41221405D01*
X6893039Y-41209616D01*
X6645037Y-40974695D01*
X6645022Y-40974682D01*
X6359418Y-40757572D01*
X6359412Y-40757568D01*
X6052010Y-40572610D01*
X6052009Y-40572609D01*
X6052005Y-40572607D01*
X5726401Y-40421967D01*
X5386417Y-40307413D01*
X5338915Y-40296956D01*
X5036054Y-40230291D01*
X5036030Y-40230287D01*
X4679389Y-40191500D01*
X4679382Y-40191500D01*
X4320618Y-40191500D01*
X4320610Y-40191500D01*
X3963969Y-40230287D01*
X3963945Y-40230291D01*
X3613587Y-40307412D01*
X3613573Y-40307416D01*
X3273601Y-40421966D01*
X3273599Y-40421967D01*
X2979657Y-40557959D01*
X2947989Y-40572610D01*
X2640587Y-40757568D01*
X2640581Y-40757572D01*
X2354977Y-40974682D01*
X2354962Y-40974695D01*
X2094516Y-41221404D01*
X1862256Y-41494843D01*
X1660924Y-41791785D01*
X1660922Y-41791789D01*
X1492876Y-42108759D01*
X1492872Y-42108768D01*
X1360084Y-42442040D01*
X1264103Y-42787730D01*
X1206064Y-43141762D01*
X1186641Y-43499996D01*
X1186641Y-43500003D01*
X500Y-43500003D01*
X500Y-35306000D01*
X34900496Y-35306000D01*
X34920457Y-35495927D01*
X34950526Y-35588470D01*
X34979473Y-35677556D01*
X34979476Y-35677561D01*
X35074958Y-35842941D01*
X35074965Y-35842951D01*
X35202744Y-35984864D01*
X35202747Y-35984866D01*
X35357248Y-36097118D01*
X35531712Y-36174794D01*
X35718513Y-36214500D01*
X35909487Y-36214500D01*
X36096288Y-36174794D01*
X36270752Y-36097118D01*
X36374940Y-36021420D01*
X36441806Y-35997563D01*
X36510958Y-36013643D01*
X36523056Y-36021417D01*
X36627248Y-36097118D01*
X36801712Y-36174794D01*
X36988513Y-36214500D01*
X37179487Y-36214500D01*
X37366288Y-36174794D01*
X37540752Y-36097118D01*
X37644940Y-36021420D01*
X37711806Y-35997563D01*
X37780958Y-36013643D01*
X37793056Y-36021417D01*
X37897248Y-36097118D01*
X38071712Y-36174794D01*
X38258513Y-36214500D01*
X38449487Y-36214500D01*
X38636288Y-36174794D01*
X38810752Y-36097118D01*
X38914940Y-36021420D01*
X38981806Y-35997563D01*
X39050958Y-36013643D01*
X39063056Y-36021417D01*
X39167248Y-36097118D01*
X39341712Y-36174794D01*
X39528513Y-36214500D01*
X39719487Y-36214500D01*
X39906288Y-36174794D01*
X40080752Y-36097118D01*
X40235253Y-35984866D01*
X40363040Y-35842944D01*
X40458527Y-35677556D01*
X40517542Y-35495928D01*
X40537504Y-35306000D01*
X40517542Y-35116072D01*
X40458527Y-34934444D01*
X40363040Y-34769056D01*
X40363038Y-34769054D01*
X40363034Y-34769048D01*
X40235255Y-34627135D01*
X40080752Y-34514882D01*
X39906288Y-34437206D01*
X39719487Y-34397500D01*
X39528513Y-34397500D01*
X39341711Y-34437206D01*
X39167247Y-34514882D01*
X39063061Y-34590578D01*
X38996193Y-34614437D01*
X38927041Y-34598356D01*
X38914939Y-34590578D01*
X38810752Y-34514882D01*
X38636288Y-34437206D01*
X38449487Y-34397500D01*
X38258513Y-34397500D01*
X38071711Y-34437206D01*
X37897247Y-34514882D01*
X37793061Y-34590578D01*
X37726193Y-34614437D01*
X37657041Y-34598356D01*
X37644939Y-34590578D01*
X37540752Y-34514882D01*
X37366288Y-34437206D01*
X37179487Y-34397500D01*
X36988513Y-34397500D01*
X36801711Y-34437206D01*
X36627247Y-34514882D01*
X36523061Y-34590578D01*
X36456193Y-34614437D01*
X36387041Y-34598356D01*
X36374939Y-34590578D01*
X36270752Y-34514882D01*
X36096288Y-34437206D01*
X35909487Y-34397500D01*
X35718513Y-34397500D01*
X35531711Y-34437206D01*
X35357247Y-34514882D01*
X35202744Y-34627135D01*
X35074965Y-34769048D01*
X35074958Y-34769058D01*
X34979476Y-34934438D01*
X34979473Y-34934445D01*
X34920457Y-35116072D01*
X34900496Y-35306000D01*
X500Y-35306000D01*
X500Y-27700000D01*
X8886844Y-27700000D01*
X8905437Y-27924375D01*
X8960702Y-28142612D01*
X8960703Y-28142613D01*
X8960704Y-28142616D01*
X9051140Y-28348791D01*
X9051141Y-28348793D01*
X9174275Y-28537265D01*
X9174279Y-28537270D01*
X9326762Y-28702908D01*
X9381331Y-28745381D01*
X9504424Y-28841189D01*
X9702426Y-28948342D01*
X9702427Y-28948342D01*
X9702428Y-28948343D01*
X9814227Y-28986723D01*
X9915365Y-29021444D01*
X10137431Y-29058500D01*
X10137435Y-29058500D01*
X10362565Y-29058500D01*
X10362569Y-29058500D01*
X10584635Y-29021444D01*
X10797574Y-28948342D01*
X10995576Y-28841189D01*
X11173240Y-28702906D01*
X11325722Y-28537268D01*
X11448860Y-28348791D01*
X11539296Y-28142616D01*
X11594564Y-27924368D01*
X11613156Y-27700000D01*
X18386844Y-27700000D01*
X18405437Y-27924375D01*
X18460702Y-28142612D01*
X18460703Y-28142613D01*
X18460704Y-28142616D01*
X18551140Y-28348791D01*
X18551141Y-28348793D01*
X18674275Y-28537265D01*
X18674279Y-28537270D01*
X18826762Y-28702908D01*
X18881331Y-28745381D01*
X19004424Y-28841189D01*
X19202426Y-28948342D01*
X19202427Y-28948342D01*
X19202428Y-28948343D01*
X19314227Y-28986723D01*
X19415365Y-29021444D01*
X19637431Y-29058500D01*
X19637435Y-29058500D01*
X19862565Y-29058500D01*
X19862569Y-29058500D01*
X20084635Y-29021444D01*
X20297574Y-28948342D01*
X20495576Y-28841189D01*
X20673240Y-28702906D01*
X20825722Y-28537268D01*
X20948860Y-28348791D01*
X21039296Y-28142616D01*
X21058445Y-28067000D01*
X86081496Y-28067000D01*
X86101457Y-28256927D01*
X86131306Y-28348791D01*
X86160473Y-28438556D01*
X86160476Y-28438561D01*
X86255958Y-28603941D01*
X86255965Y-28603951D01*
X86383744Y-28745864D01*
X86383747Y-28745866D01*
X86538248Y-28858118D01*
X86712712Y-28935794D01*
X86899513Y-28975500D01*
X87090487Y-28975500D01*
X87277288Y-28935794D01*
X87451752Y-28858118D01*
X87606253Y-28745866D01*
X87644933Y-28702908D01*
X87734034Y-28603951D01*
X87734035Y-28603949D01*
X87734040Y-28603944D01*
X87829527Y-28438556D01*
X87888542Y-28256928D01*
X87908504Y-28067000D01*
X87888542Y-27877072D01*
X87829527Y-27695444D01*
X87734040Y-27530056D01*
X87734038Y-27530054D01*
X87734034Y-27530048D01*
X87606255Y-27388135D01*
X87451752Y-27275882D01*
X87277288Y-27198206D01*
X87090487Y-27158500D01*
X86899513Y-27158500D01*
X86712711Y-27198206D01*
X86538247Y-27275882D01*
X86383744Y-27388135D01*
X86255965Y-27530048D01*
X86255958Y-27530058D01*
X86160476Y-27695438D01*
X86160473Y-27695445D01*
X86101457Y-27877072D01*
X86081496Y-28067000D01*
X21058445Y-28067000D01*
X21094564Y-27924368D01*
X21113156Y-27700000D01*
X21094564Y-27475632D01*
X21072407Y-27388135D01*
X21039297Y-27257387D01*
X21039296Y-27257386D01*
X21039296Y-27257384D01*
X20948860Y-27051209D01*
X20942140Y-27040924D01*
X20825724Y-26862734D01*
X20825720Y-26862729D01*
X20673237Y-26697091D01*
X20591382Y-26633381D01*
X20495576Y-26558811D01*
X20297574Y-26451658D01*
X20297572Y-26451657D01*
X20297571Y-26451656D01*
X20084639Y-26378557D01*
X20084630Y-26378555D01*
X20040476Y-26371187D01*
X19862569Y-26341500D01*
X19637431Y-26341500D01*
X19489211Y-26366233D01*
X19415369Y-26378555D01*
X19415360Y-26378557D01*
X19202428Y-26451656D01*
X19202426Y-26451658D01*
X19004426Y-26558810D01*
X19004424Y-26558811D01*
X18826762Y-26697091D01*
X18674279Y-26862729D01*
X18674275Y-26862734D01*
X18551141Y-27051206D01*
X18460703Y-27257386D01*
X18460702Y-27257387D01*
X18405437Y-27475624D01*
X18386844Y-27700000D01*
X11613156Y-27700000D01*
X11594564Y-27475632D01*
X11572407Y-27388135D01*
X11539297Y-27257387D01*
X11539296Y-27257386D01*
X11539296Y-27257384D01*
X11448860Y-27051209D01*
X11442140Y-27040924D01*
X11325724Y-26862734D01*
X11325720Y-26862729D01*
X11173237Y-26697091D01*
X11091382Y-26633381D01*
X10995576Y-26558811D01*
X10797574Y-26451658D01*
X10797572Y-26451657D01*
X10797571Y-26451656D01*
X10584639Y-26378557D01*
X10584630Y-26378555D01*
X10540476Y-26371187D01*
X10362569Y-26341500D01*
X10137431Y-26341500D01*
X9989211Y-26366233D01*
X9915369Y-26378555D01*
X9915360Y-26378557D01*
X9702428Y-26451656D01*
X9702426Y-26451658D01*
X9504426Y-26558810D01*
X9504424Y-26558811D01*
X9326762Y-26697091D01*
X9174279Y-26862729D01*
X9174275Y-26862734D01*
X9051141Y-27051206D01*
X8960703Y-27257386D01*
X8960702Y-27257387D01*
X8905437Y-27475624D01*
X8886844Y-27700000D01*
X500Y-27700000D01*
X500Y-25273000D01*
X71222496Y-25273000D01*
X71242457Y-25462927D01*
X71260207Y-25517554D01*
X71301473Y-25644556D01*
X71301476Y-25644561D01*
X71396958Y-25809941D01*
X71396965Y-25809951D01*
X71524744Y-25951864D01*
X71524747Y-25951866D01*
X71679248Y-26064118D01*
X71853712Y-26141794D01*
X72040513Y-26181500D01*
X72231487Y-26181500D01*
X72418288Y-26141794D01*
X72592752Y-26064118D01*
X72747253Y-25951866D01*
X72875040Y-25809944D01*
X72970527Y-25644556D01*
X73029542Y-25462928D01*
X73049504Y-25273000D01*
X73036156Y-25146000D01*
X80112496Y-25146000D01*
X80132457Y-25335927D01*
X80162526Y-25428470D01*
X80191473Y-25517556D01*
X80191476Y-25517561D01*
X80286958Y-25682941D01*
X80286965Y-25682951D01*
X80414744Y-25824864D01*
X80414747Y-25824866D01*
X80569248Y-25937118D01*
X80743712Y-26014794D01*
X80930513Y-26054500D01*
X81121487Y-26054500D01*
X81308288Y-26014794D01*
X81482752Y-25937118D01*
X81637253Y-25824866D01*
X81765040Y-25682944D01*
X81860527Y-25517556D01*
X81919542Y-25335928D01*
X81939504Y-25146000D01*
X81919542Y-24956072D01*
X81860527Y-24774444D01*
X81765040Y-24609056D01*
X81765038Y-24609054D01*
X81765034Y-24609048D01*
X81637255Y-24467135D01*
X81482752Y-24354882D01*
X81308288Y-24277206D01*
X81121487Y-24237500D01*
X80930513Y-24237500D01*
X80743711Y-24277206D01*
X80569247Y-24354882D01*
X80414744Y-24467135D01*
X80286965Y-24609048D01*
X80286958Y-24609058D01*
X80191476Y-24774438D01*
X80191473Y-24774445D01*
X80132457Y-24956072D01*
X80112496Y-25146000D01*
X73036156Y-25146000D01*
X73029542Y-25083072D01*
X72970527Y-24901444D01*
X72875040Y-24736056D01*
X72875038Y-24736054D01*
X72875034Y-24736048D01*
X72747255Y-24594135D01*
X72592752Y-24481882D01*
X72418288Y-24404206D01*
X72231487Y-24364500D01*
X72040513Y-24364500D01*
X71853711Y-24404206D01*
X71679247Y-24481882D01*
X71524744Y-24594135D01*
X71396965Y-24736048D01*
X71396958Y-24736058D01*
X71301476Y-24901438D01*
X71301473Y-24901445D01*
X71242457Y-25083072D01*
X71222496Y-25273000D01*
X500Y-25273000D01*
X500Y-23622000D01*
X95352496Y-23622000D01*
X95372457Y-23811927D01*
X95402526Y-23904470D01*
X95431473Y-23993556D01*
X95431476Y-23993561D01*
X95526958Y-24158941D01*
X95526965Y-24158951D01*
X95654744Y-24300864D01*
X95654747Y-24300866D01*
X95809248Y-24413118D01*
X95983712Y-24490794D01*
X96170513Y-24530500D01*
X96361487Y-24530500D01*
X96548288Y-24490794D01*
X96722752Y-24413118D01*
X96877253Y-24300866D01*
X97005040Y-24158944D01*
X97100527Y-23993556D01*
X97159542Y-23811928D01*
X97179504Y-23622000D01*
X97159542Y-23432072D01*
X97100527Y-23250444D01*
X97005040Y-23085056D01*
X97005038Y-23085054D01*
X97005034Y-23085048D01*
X96877255Y-22943135D01*
X96722752Y-22830882D01*
X96548288Y-22753206D01*
X96361487Y-22713500D01*
X96170513Y-22713500D01*
X95983711Y-22753206D01*
X95809247Y-22830882D01*
X95654744Y-22943135D01*
X95526965Y-23085048D01*
X95526958Y-23085058D01*
X95431476Y-23250438D01*
X95431473Y-23250445D01*
X95372457Y-23432072D01*
X95352496Y-23622000D01*
X500Y-23622000D01*
X500Y-21082000D01*
X21946496Y-21082000D01*
X21966457Y-21271927D01*
X21987276Y-21336000D01*
X22025473Y-21453556D01*
X22025476Y-21453561D01*
X22120958Y-21618941D01*
X22120965Y-21618951D01*
X22248744Y-21760864D01*
X22248747Y-21760866D01*
X22403248Y-21873118D01*
X22577712Y-21950794D01*
X22764513Y-21990500D01*
X22955487Y-21990500D01*
X23142288Y-21950794D01*
X23316752Y-21873118D01*
X23471253Y-21760866D01*
X23508374Y-21719639D01*
X23568819Y-21682398D01*
X23639803Y-21683749D01*
X23698788Y-21723262D01*
X23727047Y-21788392D01*
X23727321Y-21817116D01*
X23724496Y-21843998D01*
X23744457Y-22033927D01*
X23774526Y-22126470D01*
X23803473Y-22215556D01*
X23803476Y-22215561D01*
X23898958Y-22380941D01*
X23898965Y-22380951D01*
X24026744Y-22522864D01*
X24049368Y-22539301D01*
X24181248Y-22635118D01*
X24355712Y-22712794D01*
X24542513Y-22752500D01*
X24733487Y-22752500D01*
X24920288Y-22712794D01*
X25094752Y-22635118D01*
X25249253Y-22522866D01*
X25377040Y-22380944D01*
X25472527Y-22215556D01*
X25531542Y-22033928D01*
X25551504Y-21844000D01*
X25531542Y-21654072D01*
X25472527Y-21472444D01*
X25393751Y-21336000D01*
X79604496Y-21336000D01*
X79624457Y-21525927D01*
X79650328Y-21605548D01*
X79683473Y-21707556D01*
X79683476Y-21707561D01*
X79778958Y-21872941D01*
X79778965Y-21872951D01*
X79906744Y-22014864D01*
X79920571Y-22024910D01*
X80061248Y-22127118D01*
X80235712Y-22204794D01*
X80422513Y-22244500D01*
X80613487Y-22244500D01*
X80800288Y-22204794D01*
X80974752Y-22127118D01*
X81129253Y-22014866D01*
X81186945Y-21950793D01*
X81257034Y-21872951D01*
X81257035Y-21872949D01*
X81257040Y-21872944D01*
X81352527Y-21707556D01*
X81366629Y-21664153D01*
X81406702Y-21605548D01*
X81472099Y-21577911D01*
X81542056Y-21590018D01*
X81560521Y-21601153D01*
X81585248Y-21619118D01*
X81759712Y-21696794D01*
X81946513Y-21736500D01*
X82137487Y-21736500D01*
X82324288Y-21696794D01*
X82498752Y-21619118D01*
X82511302Y-21610000D01*
X101384884Y-21610000D01*
X101403314Y-21820655D01*
X101432643Y-21930113D01*
X101458043Y-22024908D01*
X101458045Y-22024912D01*
X101547412Y-22216561D01*
X101668692Y-22389767D01*
X101668696Y-22389772D01*
X101668699Y-22389776D01*
X101818224Y-22539301D01*
X101818228Y-22539304D01*
X101818232Y-22539307D01*
X101991438Y-22660587D01*
X101991441Y-22660588D01*
X101991442Y-22660589D01*
X102183090Y-22749956D01*
X102387345Y-22804686D01*
X102598000Y-22823116D01*
X102808655Y-22804686D01*
X103012910Y-22749956D01*
X103204558Y-22660589D01*
X103377776Y-22539301D01*
X103527301Y-22389776D01*
X103648589Y-22216558D01*
X103737956Y-22024910D01*
X103792686Y-21820655D01*
X103811116Y-21610000D01*
X103792686Y-21399345D01*
X103737956Y-21195090D01*
X103648589Y-21003442D01*
X103648588Y-21003441D01*
X103648587Y-21003438D01*
X103527307Y-20830232D01*
X103527304Y-20830228D01*
X103527301Y-20830224D01*
X103377776Y-20680699D01*
X103377772Y-20680696D01*
X103377767Y-20680692D01*
X103204561Y-20559412D01*
X103012912Y-20470045D01*
X103012905Y-20470042D01*
X102990211Y-20463961D01*
X102981794Y-20461706D01*
X102921172Y-20424756D01*
X102890150Y-20360896D01*
X102898578Y-20290401D01*
X102943780Y-20235654D01*
X102981793Y-20218293D01*
X103012910Y-20209956D01*
X103204558Y-20120589D01*
X103377776Y-19999301D01*
X103527301Y-19849776D01*
X103618267Y-19719862D01*
X103648587Y-19676561D01*
X103648587Y-19676560D01*
X103648589Y-19676558D01*
X103737956Y-19484910D01*
X103792686Y-19280655D01*
X103811116Y-19070000D01*
X103792686Y-18859345D01*
X103737956Y-18655090D01*
X103648589Y-18463442D01*
X103648588Y-18463441D01*
X103648587Y-18463438D01*
X103527307Y-18290232D01*
X103527304Y-18290228D01*
X103527301Y-18290224D01*
X103377776Y-18140699D01*
X103377772Y-18140696D01*
X103377767Y-18140692D01*
X103204561Y-18019412D01*
X103012912Y-17930045D01*
X103012908Y-17930043D01*
X102918113Y-17904643D01*
X102808655Y-17875314D01*
X102598000Y-17856884D01*
X102387345Y-17875314D01*
X102332616Y-17889978D01*
X102183091Y-17930043D01*
X102183087Y-17930045D01*
X101991438Y-18019412D01*
X101818232Y-18140692D01*
X101818221Y-18140701D01*
X101668701Y-18290221D01*
X101668692Y-18290232D01*
X101547412Y-18463438D01*
X101458045Y-18655087D01*
X101458043Y-18655091D01*
X101417978Y-18804616D01*
X101403314Y-18859345D01*
X101384884Y-19070000D01*
X101403314Y-19280655D01*
X101431845Y-19387134D01*
X101458043Y-19484908D01*
X101458045Y-19484912D01*
X101547412Y-19676561D01*
X101668692Y-19849767D01*
X101668696Y-19849772D01*
X101668699Y-19849776D01*
X101818224Y-19999301D01*
X101818228Y-19999304D01*
X101818232Y-19999307D01*
X101991438Y-20120587D01*
X101991441Y-20120588D01*
X101991442Y-20120589D01*
X102183090Y-20209956D01*
X102214205Y-20218293D01*
X102274828Y-20255245D01*
X102305849Y-20319105D01*
X102297421Y-20389600D01*
X102252218Y-20444347D01*
X102214206Y-20461706D01*
X102206406Y-20463796D01*
X102183091Y-20470043D01*
X102183087Y-20470045D01*
X101991438Y-20559412D01*
X101818232Y-20680692D01*
X101818221Y-20680701D01*
X101668701Y-20830221D01*
X101668692Y-20830232D01*
X101547412Y-21003438D01*
X101458045Y-21195087D01*
X101458043Y-21195091D01*
X101437455Y-21271928D01*
X101403314Y-21399345D01*
X101384884Y-21610000D01*
X82511302Y-21610000D01*
X82653253Y-21506866D01*
X82701249Y-21453561D01*
X82781034Y-21364951D01*
X82781035Y-21364949D01*
X82781040Y-21364944D01*
X82876527Y-21199556D01*
X82935542Y-21017928D01*
X82955504Y-20828000D01*
X82935542Y-20638072D01*
X82876527Y-20456444D01*
X82781040Y-20291056D01*
X82781038Y-20291054D01*
X82781034Y-20291048D01*
X82653255Y-20149135D01*
X82498752Y-20036882D01*
X82324288Y-19959206D01*
X82137487Y-19919500D01*
X81946513Y-19919500D01*
X81759711Y-19959206D01*
X81585247Y-20036882D01*
X81430744Y-20149135D01*
X81302965Y-20291048D01*
X81302958Y-20291058D01*
X81207476Y-20456438D01*
X81207471Y-20456449D01*
X81193369Y-20499848D01*
X81153294Y-20558453D01*
X81087897Y-20586088D01*
X81017940Y-20573980D01*
X80999477Y-20562846D01*
X80974752Y-20544882D01*
X80800288Y-20467206D01*
X80613487Y-20427500D01*
X80422513Y-20427500D01*
X80235711Y-20467206D01*
X80061247Y-20544882D01*
X79906744Y-20657135D01*
X79778965Y-20799048D01*
X79778958Y-20799058D01*
X79683476Y-20964438D01*
X79683473Y-20964445D01*
X79624457Y-21146072D01*
X79604496Y-21336000D01*
X25393751Y-21336000D01*
X25377040Y-21307056D01*
X25377038Y-21307054D01*
X25377034Y-21307048D01*
X25249255Y-21165135D01*
X25094752Y-21052882D01*
X24920288Y-20975206D01*
X24733487Y-20935500D01*
X24542513Y-20935500D01*
X24355711Y-20975206D01*
X24181247Y-21052882D01*
X24026743Y-21165136D01*
X23989623Y-21206362D01*
X23929177Y-21243601D01*
X23858193Y-21242249D01*
X23799209Y-21202735D01*
X23770952Y-21137604D01*
X23770678Y-21108887D01*
X23773504Y-21082000D01*
X23753542Y-20892072D01*
X23694527Y-20710444D01*
X23599040Y-20545056D01*
X23599038Y-20545054D01*
X23599034Y-20545048D01*
X23471255Y-20403135D01*
X23316752Y-20290882D01*
X23142288Y-20213206D01*
X22955487Y-20173500D01*
X22764513Y-20173500D01*
X22577711Y-20213206D01*
X22403247Y-20290882D01*
X22248744Y-20403135D01*
X22120965Y-20545048D01*
X22120958Y-20545058D01*
X22025476Y-20710438D01*
X22025473Y-20710445D01*
X21966457Y-20892072D01*
X21946496Y-21082000D01*
X500Y-21082000D01*
X500Y-20066000D01*
X11278496Y-20066000D01*
X11298457Y-20255927D01*
X11328526Y-20348470D01*
X11357473Y-20437556D01*
X11376229Y-20470042D01*
X11452958Y-20602941D01*
X11452965Y-20602951D01*
X11580744Y-20744864D01*
X11580747Y-20744866D01*
X11735248Y-20857118D01*
X11909712Y-20934794D01*
X12096513Y-20974500D01*
X12287487Y-20974500D01*
X12474288Y-20934794D01*
X12648752Y-20857118D01*
X12803253Y-20744866D01*
X12834252Y-20710438D01*
X12931034Y-20602951D01*
X12931035Y-20602949D01*
X12931040Y-20602944D01*
X13026527Y-20437556D01*
X13085542Y-20255928D01*
X13105504Y-20066000D01*
X13085542Y-19876072D01*
X13026527Y-19694444D01*
X12931040Y-19529056D01*
X12931038Y-19529054D01*
X12931034Y-19529048D01*
X12803255Y-19387135D01*
X12648752Y-19274882D01*
X12474288Y-19197206D01*
X12287487Y-19157500D01*
X12096513Y-19157500D01*
X11909711Y-19197206D01*
X11735247Y-19274882D01*
X11580744Y-19387135D01*
X11452965Y-19529048D01*
X11452958Y-19529058D01*
X11357476Y-19694438D01*
X11357473Y-19694445D01*
X11298457Y-19876072D01*
X11278496Y-20066000D01*
X500Y-20066000D01*
X500Y-2540000D01*
X3716844Y-2540000D01*
X3734966Y-2758698D01*
X3735437Y-2764375D01*
X3790702Y-2982612D01*
X3790703Y-2982613D01*
X3790704Y-2982616D01*
X3809155Y-3024680D01*
X3881141Y-3188793D01*
X4004275Y-3377265D01*
X4004279Y-3377270D01*
X4156762Y-3542908D01*
X4211331Y-3585381D01*
X4334424Y-3681189D01*
X4532426Y-3788342D01*
X4532427Y-3788342D01*
X4532428Y-3788343D01*
X4602324Y-3812338D01*
X4745365Y-3861444D01*
X4967431Y-3898500D01*
X4967435Y-3898500D01*
X5192565Y-3898500D01*
X5192569Y-3898500D01*
X5414635Y-3861444D01*
X5627574Y-3788342D01*
X5825576Y-3681189D01*
X6003240Y-3542906D01*
X6155722Y-3377268D01*
X6244518Y-3241354D01*
X6298520Y-3195268D01*
X6368868Y-3185692D01*
X6433225Y-3215669D01*
X6455480Y-3241353D01*
X6488607Y-3292058D01*
X6544275Y-3377265D01*
X6544279Y-3377270D01*
X6696762Y-3542908D01*
X6751331Y-3585381D01*
X6874424Y-3681189D01*
X7072426Y-3788342D01*
X7072427Y-3788342D01*
X7072428Y-3788343D01*
X7142324Y-3812338D01*
X7285365Y-3861444D01*
X7507431Y-3898500D01*
X7507435Y-3898500D01*
X7732565Y-3898500D01*
X7732569Y-3898500D01*
X7954635Y-3861444D01*
X8167574Y-3788342D01*
X8365576Y-3681189D01*
X8543240Y-3542906D01*
X8695722Y-3377268D01*
X8784518Y-3241354D01*
X8838520Y-3195268D01*
X8908868Y-3185692D01*
X8973225Y-3215669D01*
X8995480Y-3241353D01*
X9028607Y-3292058D01*
X9084275Y-3377265D01*
X9084279Y-3377270D01*
X9236762Y-3542908D01*
X9291331Y-3585381D01*
X9414424Y-3681189D01*
X9612426Y-3788342D01*
X9612427Y-3788342D01*
X9612428Y-3788343D01*
X9682324Y-3812338D01*
X9825365Y-3861444D01*
X10047431Y-3898500D01*
X10047435Y-3898500D01*
X10272565Y-3898500D01*
X10272569Y-3898500D01*
X10494635Y-3861444D01*
X10707574Y-3788342D01*
X10905576Y-3681189D01*
X11083240Y-3542906D01*
X11235722Y-3377268D01*
X11324816Y-3240898D01*
X11378819Y-3194810D01*
X11449167Y-3185235D01*
X11513524Y-3215212D01*
X11535782Y-3240898D01*
X11624674Y-3376958D01*
X11777097Y-3542534D01*
X11954698Y-3680767D01*
X11954699Y-3680768D01*
X12152628Y-3787882D01*
X12152630Y-3787883D01*
X12365483Y-3860955D01*
X12365492Y-3860957D01*
X12446000Y-3874391D01*
X12446000Y-2973674D01*
X12557685Y-3024680D01*
X12664237Y-3040000D01*
X12735763Y-3040000D01*
X12842315Y-3024680D01*
X12954000Y-2973674D01*
X12954000Y-3874390D01*
X13034507Y-3860957D01*
X13034516Y-3860955D01*
X13247369Y-3787883D01*
X13247369Y-3787882D01*
X13280169Y-3770132D01*
X13349599Y-3755301D01*
X13416026Y-3780360D01*
X13458360Y-3837354D01*
X13464857Y-3898875D01*
X13461887Y-3919543D01*
X13456500Y-3957009D01*
X13456500Y-5202500D01*
X13436498Y-5270621D01*
X13382842Y-5317114D01*
X13330500Y-5328500D01*
X7745990Y-5328500D01*
X7657267Y-5338039D01*
X7636851Y-5340234D01*
X7636848Y-5340234D01*
X7636844Y-5340235D01*
X7636840Y-5340235D01*
X7584519Y-5351617D01*
X7584498Y-5351623D01*
X7480345Y-5386288D01*
X7357385Y-5465310D01*
X7305019Y-5510685D01*
X7303904Y-5511599D01*
X7208019Y-5622258D01*
X7208017Y-5622261D01*
X7147301Y-5755210D01*
X7127302Y-5823322D01*
X7127300Y-5823329D01*
X7106500Y-5968003D01*
X7106500Y-9638331D01*
X7086498Y-9706452D01*
X7032842Y-9752945D01*
X6962568Y-9763049D01*
X6897988Y-9733555D01*
X6859604Y-9673829D01*
X6854954Y-9649017D01*
X6854044Y-9638331D01*
X6853259Y-9629102D01*
X6835838Y-9562199D01*
X6792846Y-9397082D01*
X6792844Y-9397079D01*
X6792844Y-9397076D01*
X6694086Y-9178598D01*
X6559825Y-8979953D01*
X6559821Y-8979949D01*
X6559819Y-8979946D01*
X6393927Y-8806858D01*
X6393926Y-8806857D01*
X6393925Y-8806856D01*
X6201157Y-8664285D01*
X6201156Y-8664284D01*
X6201154Y-8664283D01*
X6130997Y-8628911D01*
X5987067Y-8556343D01*
X5987060Y-8556340D01*
X5987056Y-8556339D01*
X5757815Y-8486136D01*
X5519995Y-8455682D01*
X5519991Y-8455682D01*
X5519983Y-8455681D01*
X5280448Y-8465856D01*
X5046065Y-8516370D01*
X4854751Y-8593247D01*
X4823596Y-8605767D01*
X4704098Y-8679345D01*
X4619425Y-8731480D01*
X4619423Y-8731482D01*
X4439453Y-8889876D01*
X4439445Y-8889885D01*
X4288827Y-9076419D01*
X4288823Y-9076426D01*
X4171895Y-9285738D01*
X4171895Y-9285739D01*
X4092021Y-9511800D01*
X4092020Y-9511806D01*
X4053998Y-9733555D01*
X4051500Y-9748121D01*
X4051500Y-11527827D01*
X4066741Y-11706898D01*
X4066742Y-11706904D01*
X4127153Y-11938917D01*
X4127155Y-11938923D01*
X4127156Y-11938924D01*
X4146856Y-11982506D01*
X4193278Y-12085204D01*
X4225914Y-12157402D01*
X4360175Y-12356047D01*
X4360177Y-12356049D01*
X4360180Y-12356053D01*
X4474135Y-12474951D01*
X4526075Y-12529144D01*
X4718843Y-12671715D01*
X4932933Y-12779657D01*
X5162185Y-12849864D01*
X5400005Y-12880318D01*
X5639551Y-12870143D01*
X5873932Y-12819630D01*
X6096404Y-12730233D01*
X6300569Y-12604524D01*
X6480551Y-12446119D01*
X6631175Y-12259576D01*
X6748105Y-12050260D01*
X6827980Y-11824194D01*
X6856312Y-11658956D01*
X6887539Y-11595197D01*
X6948280Y-11558441D01*
X7019251Y-11560359D01*
X7077918Y-11600342D01*
X7105656Y-11665696D01*
X7106500Y-11680252D01*
X7106500Y-17399425D01*
X7118483Y-17509710D01*
X7118484Y-17509717D01*
X7130109Y-17562580D01*
X7165506Y-17667731D01*
X7165508Y-17667735D01*
X7245080Y-17790318D01*
X7245087Y-17790328D01*
X7291815Y-17843760D01*
X7291822Y-17843768D01*
X7402705Y-17938969D01*
X7535928Y-17999082D01*
X7604139Y-18018775D01*
X7604144Y-18018776D01*
X7748907Y-18038919D01*
X62878006Y-17788332D01*
X63376911Y-17786065D01*
X63430886Y-17780075D01*
X63484866Y-17774085D01*
X63536635Y-17762700D01*
X63639657Y-17728281D01*
X63762612Y-17649263D01*
X63815011Y-17603859D01*
X63816101Y-17602964D01*
X63828264Y-17588927D01*
X63911982Y-17492310D01*
X63954595Y-17399000D01*
X67920496Y-17399000D01*
X67940457Y-17588927D01*
X67945317Y-17603883D01*
X67999473Y-17770556D01*
X68008427Y-17786065D01*
X68094958Y-17935941D01*
X68094965Y-17935951D01*
X68222744Y-18077864D01*
X68222747Y-18077866D01*
X68377248Y-18190118D01*
X68551712Y-18267794D01*
X68738513Y-18307500D01*
X68929487Y-18307500D01*
X69116288Y-18267794D01*
X69227253Y-18218388D01*
X69297618Y-18208955D01*
X69329744Y-18218387D01*
X69440712Y-18267794D01*
X69627513Y-18307500D01*
X69818487Y-18307500D01*
X70005288Y-18267794D01*
X70179752Y-18190118D01*
X70334253Y-18077866D01*
X70405189Y-17999084D01*
X70462034Y-17935951D01*
X70462035Y-17935949D01*
X70462040Y-17935944D01*
X70557527Y-17770556D01*
X70616542Y-17588928D01*
X70636504Y-17399000D01*
X70616542Y-17209072D01*
X70557527Y-17027444D01*
X70462040Y-16862056D01*
X70462038Y-16862054D01*
X70462034Y-16862048D01*
X70334255Y-16720135D01*
X70179752Y-16607882D01*
X70005288Y-16530206D01*
X69818487Y-16490500D01*
X69627513Y-16490500D01*
X69440709Y-16530206D01*
X69329748Y-16579609D01*
X69259381Y-16589043D01*
X69227252Y-16579609D01*
X69116290Y-16530206D01*
X68929487Y-16490500D01*
X68738513Y-16490500D01*
X68551711Y-16530206D01*
X68377247Y-16607882D01*
X68222744Y-16720135D01*
X68094965Y-16862048D01*
X68094958Y-16862058D01*
X67999476Y-17027438D01*
X67999473Y-17027445D01*
X67940457Y-17209072D01*
X67920496Y-17399000D01*
X63954595Y-17399000D01*
X63972698Y-17359361D01*
X63992700Y-17291240D01*
X64013500Y-17146571D01*
X64013500Y-15494000D01*
X85446496Y-15494000D01*
X85466457Y-15683927D01*
X85496526Y-15776470D01*
X85525473Y-15865556D01*
X85525476Y-15865561D01*
X85620958Y-16030941D01*
X85620965Y-16030951D01*
X85748744Y-16172864D01*
X85757005Y-16178866D01*
X85903248Y-16285118D01*
X86077712Y-16362794D01*
X86264513Y-16402500D01*
X86455487Y-16402500D01*
X86642288Y-16362794D01*
X86816752Y-16285118D01*
X86944749Y-16192122D01*
X87011614Y-16168265D01*
X87080766Y-16184345D01*
X87130246Y-16235258D01*
X87138640Y-16255121D01*
X87176473Y-16371556D01*
X87176476Y-16371561D01*
X87271958Y-16536941D01*
X87271965Y-16536951D01*
X87399744Y-16678864D01*
X87399747Y-16678866D01*
X87554248Y-16791118D01*
X87728712Y-16868794D01*
X87915513Y-16908500D01*
X88106487Y-16908500D01*
X88293288Y-16868794D01*
X88467752Y-16791118D01*
X88622253Y-16678866D01*
X88703130Y-16589043D01*
X88750034Y-16536951D01*
X88750035Y-16536949D01*
X88750040Y-16536944D01*
X88845527Y-16371556D01*
X88904542Y-16189928D01*
X88924504Y-16000000D01*
X88904542Y-15810072D01*
X88845527Y-15628444D01*
X88771370Y-15500000D01*
X90086496Y-15500000D01*
X90106457Y-15689927D01*
X90136526Y-15782470D01*
X90165473Y-15871556D01*
X90165476Y-15871561D01*
X90260958Y-16036941D01*
X90260965Y-16036951D01*
X90388744Y-16178864D01*
X90449999Y-16223368D01*
X90543248Y-16291118D01*
X90717712Y-16368794D01*
X90904513Y-16408500D01*
X91095487Y-16408500D01*
X91282288Y-16368794D01*
X91456752Y-16291118D01*
X91611253Y-16178866D01*
X91611255Y-16178864D01*
X91739034Y-16036951D01*
X91739035Y-16036949D01*
X91739040Y-16036944D01*
X91834527Y-15871556D01*
X91893542Y-15689928D01*
X91913504Y-15500000D01*
X91893542Y-15310072D01*
X91834527Y-15128444D01*
X91739040Y-14963056D01*
X91739038Y-14963054D01*
X91739034Y-14963048D01*
X91611255Y-14821135D01*
X91456752Y-14708882D01*
X91282288Y-14631206D01*
X91095487Y-14591500D01*
X90904513Y-14591500D01*
X90717711Y-14631206D01*
X90543247Y-14708882D01*
X90388744Y-14821135D01*
X90260965Y-14963048D01*
X90260958Y-14963058D01*
X90165476Y-15128438D01*
X90165473Y-15128444D01*
X90164576Y-15131206D01*
X90106457Y-15310072D01*
X90086496Y-15500000D01*
X88771370Y-15500000D01*
X88750040Y-15463056D01*
X88750038Y-15463054D01*
X88750034Y-15463048D01*
X88622255Y-15321135D01*
X88467752Y-15208882D01*
X88293284Y-15131204D01*
X88244370Y-15120807D01*
X88181897Y-15087079D01*
X88147576Y-15024929D01*
X88152304Y-14954090D01*
X88161449Y-14934561D01*
X88210527Y-14849556D01*
X88269542Y-14667928D01*
X88289504Y-14478000D01*
X88269542Y-14288072D01*
X88210527Y-14106444D01*
X88115040Y-13941056D01*
X88115038Y-13941054D01*
X88115034Y-13941048D01*
X87987255Y-13799135D01*
X87856411Y-13704071D01*
X87813057Y-13647848D01*
X87806982Y-13577112D01*
X87836835Y-13517825D01*
X87861040Y-13490944D01*
X87956527Y-13325556D01*
X88015542Y-13143928D01*
X88035504Y-12954000D01*
X88015542Y-12764072D01*
X87956527Y-12582444D01*
X87861040Y-12417056D01*
X87861038Y-12417054D01*
X87861034Y-12417048D01*
X87733255Y-12275135D01*
X87578752Y-12162882D01*
X87404284Y-12085204D01*
X87372198Y-12078384D01*
X87309725Y-12044656D01*
X87275404Y-11982506D01*
X87273087Y-11941964D01*
X87273504Y-11938000D01*
X87253542Y-11748072D01*
X87194527Y-11566444D01*
X87115751Y-11430000D01*
X101366884Y-11430000D01*
X101385314Y-11640655D01*
X101414096Y-11748072D01*
X101440043Y-11844908D01*
X101440045Y-11844912D01*
X101529412Y-12036561D01*
X101650692Y-12209767D01*
X101650696Y-12209772D01*
X101650699Y-12209776D01*
X101800224Y-12359301D01*
X101800228Y-12359304D01*
X101800232Y-12359307D01*
X101973438Y-12480587D01*
X101973441Y-12480588D01*
X101973442Y-12480589D01*
X102165090Y-12569956D01*
X102369345Y-12624686D01*
X102580000Y-12643116D01*
X102790655Y-12624686D01*
X102994910Y-12569956D01*
X103186558Y-12480589D01*
X103359776Y-12359301D01*
X103509301Y-12209776D01*
X103630589Y-12036558D01*
X103719956Y-11844910D01*
X103774686Y-11640655D01*
X103793116Y-11430000D01*
X103774686Y-11219345D01*
X103719956Y-11015090D01*
X103630589Y-10823442D01*
X103630588Y-10823441D01*
X103630587Y-10823438D01*
X103509307Y-10650232D01*
X103509304Y-10650228D01*
X103509301Y-10650224D01*
X103359776Y-10500699D01*
X103359772Y-10500696D01*
X103359767Y-10500692D01*
X103186561Y-10379412D01*
X102994912Y-10290045D01*
X102994905Y-10290042D01*
X102972211Y-10283961D01*
X102963794Y-10281706D01*
X102903172Y-10244756D01*
X102872150Y-10180896D01*
X102880578Y-10110401D01*
X102925780Y-10055654D01*
X102963793Y-10038293D01*
X102994910Y-10029956D01*
X103186558Y-9940589D01*
X103359776Y-9819301D01*
X103509301Y-9669776D01*
X103619912Y-9511806D01*
X103630587Y-9496561D01*
X103630587Y-9496560D01*
X103630589Y-9496558D01*
X103719956Y-9304910D01*
X103774686Y-9100655D01*
X103793116Y-8890000D01*
X103774686Y-8679345D01*
X103719956Y-8475090D01*
X103630589Y-8283442D01*
X103630588Y-8283441D01*
X103630587Y-8283438D01*
X103509307Y-8110232D01*
X103509304Y-8110228D01*
X103509301Y-8110224D01*
X103359776Y-7960699D01*
X103359772Y-7960696D01*
X103359767Y-7960692D01*
X103186561Y-7839412D01*
X102994912Y-7750045D01*
X102994908Y-7750043D01*
X102900113Y-7724643D01*
X102790655Y-7695314D01*
X102580000Y-7676884D01*
X102369345Y-7695314D01*
X102314616Y-7709978D01*
X102165091Y-7750043D01*
X102165087Y-7750045D01*
X101973438Y-7839412D01*
X101800232Y-7960692D01*
X101800221Y-7960701D01*
X101650701Y-8110221D01*
X101650692Y-8110232D01*
X101529412Y-8283438D01*
X101440045Y-8475087D01*
X101440043Y-8475091D01*
X101437084Y-8486136D01*
X101385314Y-8679345D01*
X101366884Y-8890000D01*
X101385314Y-9100655D01*
X101406199Y-9178597D01*
X101440043Y-9304908D01*
X101440045Y-9304912D01*
X101529412Y-9496561D01*
X101650692Y-9669767D01*
X101650696Y-9669772D01*
X101650699Y-9669776D01*
X101800224Y-9819301D01*
X101800228Y-9819304D01*
X101800232Y-9819307D01*
X101973438Y-9940587D01*
X101973441Y-9940588D01*
X101973442Y-9940589D01*
X102165090Y-10029956D01*
X102196205Y-10038293D01*
X102256828Y-10075245D01*
X102287849Y-10139105D01*
X102279421Y-10209600D01*
X102234218Y-10264347D01*
X102196206Y-10281706D01*
X102188406Y-10283796D01*
X102165091Y-10290043D01*
X102165087Y-10290045D01*
X101973438Y-10379412D01*
X101800232Y-10500692D01*
X101800221Y-10500701D01*
X101650701Y-10650221D01*
X101650692Y-10650232D01*
X101529412Y-10823438D01*
X101440045Y-11015087D01*
X101440043Y-11015091D01*
X101404730Y-11146882D01*
X101385314Y-11219345D01*
X101366884Y-11430000D01*
X87115751Y-11430000D01*
X87099040Y-11401056D01*
X87099038Y-11401054D01*
X87099034Y-11401048D01*
X86971255Y-11259135D01*
X86816752Y-11146882D01*
X86642288Y-11069206D01*
X86455487Y-11029500D01*
X86264513Y-11029500D01*
X86077711Y-11069206D01*
X85903247Y-11146882D01*
X85748744Y-11259135D01*
X85620965Y-11401048D01*
X85620958Y-11401058D01*
X85525476Y-11566438D01*
X85525473Y-11566445D01*
X85466457Y-11748072D01*
X85446496Y-11938000D01*
X85466457Y-12127927D01*
X85477815Y-12162882D01*
X85525473Y-12309556D01*
X85525476Y-12309561D01*
X85620958Y-12474941D01*
X85620965Y-12474951D01*
X85748744Y-12616864D01*
X85784877Y-12643116D01*
X85903248Y-12729118D01*
X86077712Y-12806794D01*
X86109799Y-12813614D01*
X86172272Y-12847342D01*
X86206594Y-12909491D01*
X86208913Y-12950027D01*
X86208496Y-12953995D01*
X86208496Y-12953999D01*
X86228457Y-13143927D01*
X86258526Y-13236470D01*
X86287473Y-13325556D01*
X86287476Y-13325561D01*
X86382958Y-13490941D01*
X86382965Y-13490951D01*
X86510744Y-13632864D01*
X86641588Y-13727928D01*
X86684942Y-13784150D01*
X86691017Y-13854887D01*
X86661165Y-13914173D01*
X86636961Y-13941054D01*
X86636958Y-13941058D01*
X86541476Y-14106438D01*
X86541473Y-14106445D01*
X86482457Y-14288072D01*
X86463056Y-14472670D01*
X86436043Y-14538327D01*
X86377821Y-14578957D01*
X86337746Y-14585500D01*
X86264513Y-14585500D01*
X86077711Y-14625206D01*
X85903247Y-14702882D01*
X85748744Y-14815135D01*
X85620965Y-14957048D01*
X85620958Y-14957058D01*
X85526418Y-15120807D01*
X85525473Y-15122444D01*
X85523523Y-15128445D01*
X85466457Y-15304072D01*
X85446496Y-15494000D01*
X64013500Y-15494000D01*
X64013500Y-12954000D01*
X74651496Y-12954000D01*
X74671457Y-13143927D01*
X74701526Y-13236470D01*
X74730473Y-13325556D01*
X74730476Y-13325561D01*
X74825958Y-13490941D01*
X74825965Y-13490951D01*
X74953744Y-13632864D01*
X74953747Y-13632866D01*
X75108248Y-13745118D01*
X75282712Y-13822794D01*
X75469513Y-13862500D01*
X75660487Y-13862500D01*
X75847288Y-13822794D01*
X76021752Y-13745118D01*
X76176253Y-13632866D01*
X76304040Y-13490944D01*
X76399527Y-13325556D01*
X76458542Y-13143928D01*
X76478504Y-12954000D01*
X76458542Y-12764072D01*
X76399527Y-12582444D01*
X76304040Y-12417056D01*
X76304038Y-12417054D01*
X76304034Y-12417048D01*
X76176255Y-12275135D01*
X76021752Y-12162882D01*
X75847288Y-12085206D01*
X75660487Y-12045500D01*
X75469513Y-12045500D01*
X75282711Y-12085206D01*
X75108247Y-12162882D01*
X74953744Y-12275135D01*
X74825965Y-12417048D01*
X74825958Y-12417058D01*
X74730476Y-12582438D01*
X74730473Y-12582444D01*
X74723299Y-12604524D01*
X74671457Y-12764072D01*
X74651496Y-12954000D01*
X64013500Y-12954000D01*
X64013500Y-3978750D01*
X84937996Y-3978750D01*
X84957957Y-4168677D01*
X84988026Y-4261220D01*
X85016973Y-4350306D01*
X85016976Y-4350311D01*
X85112458Y-4515691D01*
X85112465Y-4515701D01*
X85240244Y-4657614D01*
X85240247Y-4657616D01*
X85394748Y-4769868D01*
X85569212Y-4847544D01*
X85756013Y-4887250D01*
X85946987Y-4887250D01*
X86133788Y-4847544D01*
X86308252Y-4769868D01*
X86462753Y-4657616D01*
X86590540Y-4515694D01*
X86686027Y-4350306D01*
X86745042Y-4168678D01*
X86765004Y-3978750D01*
X86745042Y-3788822D01*
X86686027Y-3607194D01*
X86590540Y-3441806D01*
X86590538Y-3441804D01*
X86590534Y-3441798D01*
X86462755Y-3299885D01*
X86308252Y-3187632D01*
X86133788Y-3109956D01*
X85946987Y-3070250D01*
X85756013Y-3070250D01*
X85569211Y-3109956D01*
X85394747Y-3187632D01*
X85240244Y-3299885D01*
X85112465Y-3441798D01*
X85112458Y-3441808D01*
X85028233Y-3587691D01*
X85016973Y-3607194D01*
X85002499Y-3651736D01*
X84957957Y-3788822D01*
X84937996Y-3978750D01*
X64013500Y-3978750D01*
X64013500Y-3050750D01*
X90952496Y-3050750D01*
X90972457Y-3240677D01*
X91002526Y-3333220D01*
X91031473Y-3422306D01*
X91031476Y-3422311D01*
X91126958Y-3587691D01*
X91126965Y-3587701D01*
X91254744Y-3729614D01*
X91254747Y-3729616D01*
X91409248Y-3841868D01*
X91583712Y-3919544D01*
X91770513Y-3959250D01*
X91961487Y-3959250D01*
X92148288Y-3919544D01*
X92322752Y-3841868D01*
X92477253Y-3729616D01*
X92583814Y-3611268D01*
X92605034Y-3587701D01*
X92605035Y-3587699D01*
X92605040Y-3587694D01*
X92700527Y-3422306D01*
X92759542Y-3240678D01*
X92779504Y-3050750D01*
X92759542Y-2860822D01*
X92700527Y-2679194D01*
X92605040Y-2513806D01*
X92605038Y-2513804D01*
X92605034Y-2513798D01*
X92477255Y-2371885D01*
X92322752Y-2259632D01*
X92148288Y-2181956D01*
X91961487Y-2142250D01*
X91770513Y-2142250D01*
X91583711Y-2181956D01*
X91409247Y-2259632D01*
X91254744Y-2371885D01*
X91126965Y-2513798D01*
X91126958Y-2513808D01*
X91050179Y-2646794D01*
X91031473Y-2679194D01*
X91024785Y-2699778D01*
X90972457Y-2860822D01*
X90952496Y-3050750D01*
X64013500Y-3050750D01*
X64013500Y-2267000D01*
X71347701Y-2267000D01*
X71366837Y-2436848D01*
X71423290Y-2598182D01*
X71514231Y-2742912D01*
X71635087Y-2863768D01*
X71635089Y-2863769D01*
X71635091Y-2863771D01*
X71779817Y-2954709D01*
X71941150Y-3011162D01*
X71941149Y-3011162D01*
X71958348Y-3013099D01*
X72111000Y-3030299D01*
X72280850Y-3011162D01*
X72442183Y-2954709D01*
X72543965Y-2890754D01*
X72612284Y-2871449D01*
X72678034Y-2890754D01*
X72779817Y-2954709D01*
X72941150Y-3011162D01*
X72941149Y-3011162D01*
X72958348Y-3013099D01*
X73111000Y-3030299D01*
X73280850Y-3011162D01*
X73442183Y-2954709D01*
X73543965Y-2890754D01*
X73612284Y-2871449D01*
X73678034Y-2890754D01*
X73779817Y-2954709D01*
X73941150Y-3011162D01*
X73941149Y-3011162D01*
X73958348Y-3013099D01*
X74111000Y-3030299D01*
X74280850Y-3011162D01*
X74442183Y-2954709D01*
X74586909Y-2863771D01*
X74707771Y-2742909D01*
X74798709Y-2598183D01*
X74855162Y-2436850D01*
X74874299Y-2267000D01*
X74855162Y-2097150D01*
X74798709Y-1935817D01*
X74707771Y-1791091D01*
X74707769Y-1791089D01*
X74707768Y-1791087D01*
X74672776Y-1756095D01*
X74638750Y-1693783D01*
X74643815Y-1622968D01*
X74672776Y-1577905D01*
X74707767Y-1542913D01*
X74707768Y-1542912D01*
X74707771Y-1542909D01*
X74798709Y-1398183D01*
X74855162Y-1236850D01*
X74874299Y-1067000D01*
X74855162Y-897150D01*
X74798709Y-735817D01*
X74707771Y-591091D01*
X74707769Y-591089D01*
X74707768Y-591087D01*
X74672776Y-556095D01*
X74638750Y-493783D01*
X74643815Y-422968D01*
X74672776Y-377905D01*
X74707767Y-342913D01*
X74707768Y-342912D01*
X74707771Y-342909D01*
X74798709Y-198183D01*
X74855162Y-36850D01*
X74874299Y133000D01*
X74855162Y302850D01*
X74798709Y464183D01*
X74707771Y608909D01*
X74707769Y608911D01*
X74707768Y608913D01*
X74672776Y643905D01*
X74638750Y706217D01*
X74643815Y777032D01*
X74672776Y822095D01*
X74707767Y857087D01*
X74707768Y857088D01*
X74707771Y857091D01*
X74798709Y1001817D01*
X74855162Y1163150D01*
X74874299Y1333000D01*
X74855162Y1502850D01*
X74798709Y1664183D01*
X74707771Y1808909D01*
X74707769Y1808911D01*
X74707768Y1808913D01*
X74586912Y1929769D01*
X74442182Y2020710D01*
X74342270Y2055670D01*
X74280850Y2077162D01*
X74280848Y2077163D01*
X74280850Y2077163D01*
X74111000Y2096299D01*
X73941151Y2077163D01*
X73779816Y2020709D01*
X73779814Y2020708D01*
X73678036Y1956756D01*
X73609715Y1937450D01*
X73543964Y1956756D01*
X73442185Y2020708D01*
X73442183Y2020709D01*
X73416262Y2029779D01*
X73280850Y2077162D01*
X73280848Y2077163D01*
X73280850Y2077163D01*
X73111000Y2096299D01*
X72941151Y2077163D01*
X72779816Y2020709D01*
X72779814Y2020708D01*
X72678036Y1956756D01*
X72609715Y1937450D01*
X72543964Y1956756D01*
X72442185Y2020708D01*
X72442183Y2020709D01*
X72416262Y2029779D01*
X72280850Y2077162D01*
X72280848Y2077163D01*
X72280850Y2077163D01*
X72111000Y2096299D01*
X71941151Y2077163D01*
X71779817Y2020710D01*
X71635087Y1929769D01*
X71514231Y1808913D01*
X71423290Y1664183D01*
X71366837Y1502849D01*
X71347701Y1333000D01*
X71366837Y1163152D01*
X71423290Y1001818D01*
X71514231Y857088D01*
X71549224Y822095D01*
X71583250Y759783D01*
X71578185Y688968D01*
X71549224Y643905D01*
X71514232Y608914D01*
X71514231Y608913D01*
X71423290Y464183D01*
X71366837Y302849D01*
X71347701Y133000D01*
X71366837Y-36848D01*
X71423290Y-198182D01*
X71514231Y-342912D01*
X71549224Y-377905D01*
X71583250Y-440217D01*
X71578185Y-511032D01*
X71549224Y-556095D01*
X71514232Y-591086D01*
X71514231Y-591087D01*
X71423290Y-735817D01*
X71366837Y-897151D01*
X71347701Y-1067000D01*
X71366837Y-1236848D01*
X71423290Y-1398182D01*
X71514231Y-1542912D01*
X71549224Y-1577905D01*
X71583250Y-1640217D01*
X71578185Y-1711032D01*
X71549224Y-1756095D01*
X71514232Y-1791086D01*
X71514231Y-1791087D01*
X71423290Y-1935817D01*
X71366837Y-2097151D01*
X71347701Y-2267000D01*
X64013500Y-2267000D01*
X64013500Y8255000D01*
X69698496Y8255000D01*
X69718457Y8065073D01*
X69748526Y7972530D01*
X69777473Y7883444D01*
X69777476Y7883439D01*
X69872958Y7718059D01*
X69872965Y7718049D01*
X70000744Y7576136D01*
X70000747Y7576134D01*
X70155248Y7463882D01*
X70329712Y7386206D01*
X70516513Y7346500D01*
X70707487Y7346500D01*
X70894288Y7386206D01*
X71068752Y7463882D01*
X71223253Y7576134D01*
X71330564Y7695315D01*
X71351034Y7718049D01*
X71351035Y7718051D01*
X71351040Y7718056D01*
X71441074Y7874000D01*
X75794496Y7874000D01*
X75814457Y7684073D01*
X75825240Y7650888D01*
X75873473Y7502444D01*
X75873476Y7502439D01*
X75968958Y7337059D01*
X75968965Y7337049D01*
X76096744Y7195136D01*
X76096747Y7195134D01*
X76251248Y7082882D01*
X76425712Y7005206D01*
X76612513Y6965500D01*
X76803487Y6965500D01*
X76990288Y7005206D01*
X77164752Y7082882D01*
X77164752Y7082883D01*
X77235118Y7092316D01*
X77267247Y7082883D01*
X77267248Y7082882D01*
X77441712Y7005206D01*
X77628513Y6965500D01*
X77819487Y6965500D01*
X78006288Y7005206D01*
X78180752Y7082882D01*
X78180752Y7082883D01*
X78251118Y7092316D01*
X78283247Y7082883D01*
X78283248Y7082882D01*
X78457712Y7005206D01*
X78644513Y6965500D01*
X78835487Y6965500D01*
X79022288Y7005206D01*
X79196752Y7082882D01*
X79196752Y7082883D01*
X79267118Y7092316D01*
X79299247Y7082883D01*
X79299248Y7082882D01*
X79473712Y7005206D01*
X79660513Y6965500D01*
X79851487Y6965500D01*
X80038288Y7005206D01*
X80212752Y7082882D01*
X80212752Y7082883D01*
X80283118Y7092316D01*
X80315247Y7082883D01*
X80315248Y7082882D01*
X80489712Y7005206D01*
X80676513Y6965500D01*
X80867487Y6965500D01*
X81054288Y7005206D01*
X81228752Y7082882D01*
X81383253Y7195134D01*
X81485956Y7309197D01*
X81511034Y7337049D01*
X81511035Y7337051D01*
X81511040Y7337056D01*
X81606527Y7502444D01*
X81665542Y7684072D01*
X81685504Y7874000D01*
X81665542Y8063928D01*
X81606527Y8245556D01*
X81564123Y8319000D01*
X81547386Y8387994D01*
X81564124Y8445001D01*
X81581497Y8475092D01*
X81606527Y8518444D01*
X81665542Y8700072D01*
X81685504Y8890000D01*
X81665542Y9079928D01*
X81606527Y9261556D01*
X81511040Y9426944D01*
X81511038Y9426946D01*
X81511034Y9426952D01*
X81383255Y9568865D01*
X81228752Y9681118D01*
X81054288Y9758794D01*
X80867487Y9798500D01*
X80676513Y9798500D01*
X80489709Y9758794D01*
X80315248Y9681119D01*
X80244881Y9671685D01*
X80212752Y9681119D01*
X80038290Y9758794D01*
X79851487Y9798500D01*
X79660513Y9798500D01*
X79473709Y9758794D01*
X79299248Y9681119D01*
X79228881Y9671685D01*
X79196752Y9681119D01*
X79022290Y9758794D01*
X78835487Y9798500D01*
X78644513Y9798500D01*
X78457709Y9758794D01*
X78283248Y9681119D01*
X78212881Y9671685D01*
X78180752Y9681119D01*
X78006290Y9758794D01*
X77819487Y9798500D01*
X77628513Y9798500D01*
X77441709Y9758794D01*
X77267248Y9681119D01*
X77196881Y9671685D01*
X77164752Y9681119D01*
X76990290Y9758794D01*
X76803487Y9798500D01*
X76612513Y9798500D01*
X76425711Y9758794D01*
X76251247Y9681118D01*
X76096744Y9568865D01*
X75968965Y9426952D01*
X75968958Y9426942D01*
X75873476Y9261562D01*
X75873473Y9261555D01*
X75814457Y9079928D01*
X75794496Y8890000D01*
X75814457Y8700073D01*
X75838343Y8626562D01*
X75873473Y8518444D01*
X75873473Y8518443D01*
X75873474Y8518442D01*
X75915876Y8444999D01*
X75932613Y8376004D01*
X75915876Y8319001D01*
X75873474Y8245559D01*
X75873473Y8245555D01*
X75814457Y8063928D01*
X75794496Y7874000D01*
X71441074Y7874000D01*
X71446527Y7883444D01*
X71505542Y8065072D01*
X71525504Y8255000D01*
X71505542Y8444928D01*
X71446527Y8626556D01*
X71351040Y8791944D01*
X71351038Y8791946D01*
X71351034Y8791952D01*
X71223255Y8933865D01*
X71068752Y9046118D01*
X70894288Y9123794D01*
X70707487Y9163500D01*
X70516513Y9163500D01*
X70329711Y9123794D01*
X70155247Y9046118D01*
X70000744Y8933865D01*
X69872965Y8791952D01*
X69872958Y8791942D01*
X69777476Y8626562D01*
X69777473Y8626555D01*
X69718457Y8444928D01*
X69698496Y8255000D01*
X64013500Y8255000D01*
X64013500Y16510000D01*
X71984496Y16510000D01*
X72004457Y16320073D01*
X72034526Y16227530D01*
X72063473Y16138444D01*
X72063476Y16138439D01*
X72158958Y15973059D01*
X72158965Y15973049D01*
X72286744Y15831136D01*
X72286747Y15831134D01*
X72441248Y15718882D01*
X72615712Y15641206D01*
X72802513Y15601500D01*
X72993487Y15601500D01*
X73180288Y15641206D01*
X73354752Y15718882D01*
X73458940Y15794580D01*
X73525806Y15818437D01*
X73594958Y15802357D01*
X73607056Y15794583D01*
X73711248Y15718882D01*
X73885712Y15641206D01*
X74072513Y15601500D01*
X74263491Y15601500D01*
X74386305Y15627606D01*
X74411714Y15633007D01*
X74482505Y15627606D01*
X74539138Y15584790D01*
X74563632Y15518152D01*
X74557746Y15470827D01*
X74544457Y15429928D01*
X74524496Y15240000D01*
X74544457Y15050073D01*
X74574526Y14957530D01*
X74603473Y14868444D01*
X74603476Y14868439D01*
X74698958Y14703059D01*
X74698965Y14703049D01*
X74826744Y14561136D01*
X74826747Y14561134D01*
X74981248Y14448882D01*
X75155712Y14371206D01*
X75342513Y14331500D01*
X75533487Y14331500D01*
X75720288Y14371206D01*
X75894752Y14448882D01*
X75998940Y14524580D01*
X76065806Y14548437D01*
X76134958Y14532357D01*
X76147056Y14524583D01*
X76251248Y14448882D01*
X76425712Y14371206D01*
X76612513Y14331500D01*
X76803487Y14331500D01*
X76990288Y14371206D01*
X77164752Y14448882D01*
X77319253Y14561134D01*
X77447040Y14703056D01*
X77487881Y14773796D01*
X77539263Y14822788D01*
X77608977Y14836224D01*
X77674888Y14809838D01*
X77706119Y14773795D01*
X77746958Y14703059D01*
X77746965Y14703049D01*
X77874744Y14561136D01*
X77874747Y14561134D01*
X78029248Y14448882D01*
X78203712Y14371206D01*
X78390513Y14331500D01*
X78581487Y14331500D01*
X78768288Y14371206D01*
X78942752Y14448882D01*
X79097253Y14561134D01*
X79225040Y14703056D01*
X79320527Y14868444D01*
X79379542Y15050072D01*
X79399504Y15240000D01*
X79379542Y15429928D01*
X79320527Y15611556D01*
X79225040Y15776944D01*
X79212664Y15790689D01*
X79181946Y15854694D01*
X79190708Y15925148D01*
X79212663Y15959311D01*
X79225040Y15973056D01*
X79320527Y16138444D01*
X79379542Y16320072D01*
X79399504Y16510000D01*
X79379542Y16699928D01*
X79320527Y16881556D01*
X79225040Y17046944D01*
X79225038Y17046946D01*
X79225034Y17046952D01*
X79097255Y17188865D01*
X78942752Y17301118D01*
X78768288Y17378794D01*
X78581487Y17418500D01*
X78390513Y17418500D01*
X78203711Y17378794D01*
X78029247Y17301118D01*
X77874744Y17188865D01*
X77746965Y17046952D01*
X77746961Y17046945D01*
X77706119Y16976205D01*
X77654736Y16927212D01*
X77585022Y16913777D01*
X77519111Y16940164D01*
X77487881Y16976205D01*
X77447040Y17046944D01*
X77447036Y17046949D01*
X77447034Y17046952D01*
X77319255Y17188865D01*
X77164752Y17301118D01*
X76990288Y17378794D01*
X76803487Y17418500D01*
X76612513Y17418500D01*
X76425711Y17378794D01*
X76251247Y17301118D01*
X76147061Y17225422D01*
X76080193Y17201563D01*
X76011041Y17217644D01*
X75998939Y17225422D01*
X75894752Y17301118D01*
X75720288Y17378794D01*
X75533487Y17418500D01*
X75342513Y17418500D01*
X75155711Y17378794D01*
X74981247Y17301118D01*
X74877061Y17225422D01*
X74810193Y17201563D01*
X74741041Y17217644D01*
X74728939Y17225422D01*
X74624752Y17301118D01*
X74450288Y17378794D01*
X74263487Y17418500D01*
X74072513Y17418500D01*
X73885711Y17378794D01*
X73711247Y17301118D01*
X73607061Y17225422D01*
X73540193Y17201563D01*
X73471041Y17217644D01*
X73458939Y17225422D01*
X73354752Y17301118D01*
X73180288Y17378794D01*
X72993487Y17418500D01*
X72802513Y17418500D01*
X72615711Y17378794D01*
X72441247Y17301118D01*
X72286744Y17188865D01*
X72158965Y17046952D01*
X72158958Y17046942D01*
X72063476Y16881562D01*
X72063473Y16881555D01*
X72004457Y16699928D01*
X71984496Y16510000D01*
X64013500Y16510000D01*
X64013500Y23368000D01*
X95606496Y23368000D01*
X95626457Y23178073D01*
X95647276Y23114000D01*
X95685473Y22996444D01*
X95685476Y22996439D01*
X95780958Y22831059D01*
X95780965Y22831049D01*
X95908744Y22689136D01*
X95908747Y22689134D01*
X96063248Y22576882D01*
X96237712Y22499206D01*
X96424513Y22459500D01*
X96615487Y22459500D01*
X96802288Y22499206D01*
X96976752Y22576882D01*
X97131253Y22689134D01*
X97131255Y22689136D01*
X97259034Y22831049D01*
X97259035Y22831051D01*
X97259040Y22831056D01*
X97354527Y22996444D01*
X97413542Y23178072D01*
X97433504Y23368000D01*
X97413542Y23557928D01*
X97354527Y23739556D01*
X97259040Y23904944D01*
X97259038Y23904946D01*
X97259034Y23904952D01*
X97131255Y24046865D01*
X96976752Y24159118D01*
X96802288Y24236794D01*
X96615487Y24276500D01*
X96424513Y24276500D01*
X96237711Y24236794D01*
X96063247Y24159118D01*
X95908744Y24046865D01*
X95780965Y23904952D01*
X95780958Y23904942D01*
X95685476Y23739562D01*
X95685473Y23739555D01*
X95626457Y23557928D01*
X95606496Y23368000D01*
X64013500Y23368000D01*
X64013500Y25908000D01*
X89655496Y25908000D01*
X89675457Y25718073D01*
X89705526Y25625530D01*
X89734473Y25536444D01*
X89734476Y25536439D01*
X89829958Y25371059D01*
X89829965Y25371049D01*
X89957744Y25229136D01*
X89957747Y25229134D01*
X90112248Y25116882D01*
X90286712Y25039206D01*
X90473513Y24999500D01*
X90664487Y24999500D01*
X90851288Y25039206D01*
X91025752Y25116882D01*
X91180253Y25229134D01*
X91308040Y25371056D01*
X91403527Y25536444D01*
X91462542Y25718072D01*
X91482504Y25908000D01*
X91462542Y26097928D01*
X91403527Y26279556D01*
X91308040Y26444944D01*
X91308038Y26444946D01*
X91308034Y26444952D01*
X91180255Y26586865D01*
X91025752Y26699118D01*
X90851288Y26776794D01*
X90664487Y26816500D01*
X90473513Y26816500D01*
X90286711Y26776794D01*
X90112247Y26699118D01*
X89957744Y26586865D01*
X89829965Y26444952D01*
X89829958Y26444942D01*
X89734476Y26279562D01*
X89734473Y26279555D01*
X89675457Y26097928D01*
X89655496Y25908000D01*
X64013500Y25908000D01*
X64013500Y28901504D01*
X89510496Y28901504D01*
X89530457Y28711577D01*
X89560526Y28619034D01*
X89589473Y28529948D01*
X89589476Y28529943D01*
X89684958Y28364563D01*
X89684965Y28364553D01*
X89812744Y28222640D01*
X89812747Y28222638D01*
X89967248Y28110386D01*
X90141712Y28032710D01*
X90328513Y27993004D01*
X90519487Y27993004D01*
X90706288Y28032710D01*
X90880752Y28110386D01*
X91035253Y28222638D01*
X91148842Y28348791D01*
X91163034Y28364553D01*
X91163035Y28364555D01*
X91163040Y28364560D01*
X91258527Y28529948D01*
X91317542Y28711576D01*
X91337504Y28901504D01*
X91317542Y29091432D01*
X91258527Y29273060D01*
X91163040Y29438448D01*
X91163038Y29438450D01*
X91163034Y29438456D01*
X91035255Y29580369D01*
X90880752Y29692622D01*
X90706288Y29770298D01*
X90519487Y29810004D01*
X90328513Y29810004D01*
X90141711Y29770298D01*
X89967247Y29692622D01*
X89812744Y29580369D01*
X89684965Y29438456D01*
X89684958Y29438446D01*
X89589476Y29273066D01*
X89589473Y29273059D01*
X89530457Y29091432D01*
X89510496Y28901504D01*
X64013500Y28901504D01*
X64013500Y31242000D01*
X67920496Y31242000D01*
X67940457Y31052073D01*
X67970526Y30959530D01*
X67999473Y30870444D01*
X67999476Y30870439D01*
X68094958Y30705059D01*
X68094965Y30705049D01*
X68222744Y30563136D01*
X68222747Y30563134D01*
X68377248Y30450882D01*
X68551712Y30373206D01*
X68738513Y30333500D01*
X68929487Y30333500D01*
X69116288Y30373206D01*
X69290752Y30450882D01*
X69445253Y30563134D01*
X69573040Y30705056D01*
X69668527Y30870444D01*
X69727542Y31052072D01*
X69747504Y31242000D01*
X69727542Y31431928D01*
X69668527Y31613556D01*
X69573040Y31778944D01*
X69573038Y31778946D01*
X69573034Y31778952D01*
X69445255Y31920865D01*
X69290752Y32033118D01*
X69116288Y32110794D01*
X68929487Y32150500D01*
X68738513Y32150500D01*
X68551711Y32110794D01*
X68377247Y32033118D01*
X68222744Y31920865D01*
X68094965Y31778952D01*
X68094958Y31778942D01*
X67999476Y31613562D01*
X67999473Y31613555D01*
X67940457Y31431928D01*
X67920496Y31242000D01*
X64013500Y31242000D01*
X64013500Y31622609D01*
X64001159Y31734512D01*
X63989191Y31788111D01*
X63952754Y31894647D01*
X63872388Y32016726D01*
X63825308Y32069867D01*
X63825306Y32069869D01*
X63825305Y32069870D01*
X63713808Y32164358D01*
X63580200Y32223608D01*
X63523054Y32239708D01*
X63516412Y32242259D01*
X63366977Y32262070D01*
X63366958Y32262071D01*
X40503785Y32010827D01*
X40503770Y32010826D01*
X40399929Y31999049D01*
X40399911Y31999045D01*
X40350068Y31988167D01*
X40250755Y31955603D01*
X40250753Y31955603D01*
X40250753Y31955602D01*
X40153870Y31894647D01*
X40127041Y31877767D01*
X40072944Y31831795D01*
X39976174Y31722263D01*
X39976170Y31722257D01*
X39914188Y31589915D01*
X39914181Y31589896D01*
X39893527Y31521979D01*
X39871336Y31377519D01*
X39871336Y31377517D01*
X39667122Y10139104D01*
X39629446Y6220768D01*
X39624614Y5718289D01*
X39603958Y5650363D01*
X39549858Y5604388D01*
X39498620Y5593500D01*
X25106500Y5593500D01*
X25038379Y5613502D01*
X24991886Y5667158D01*
X24980500Y5719500D01*
X24980500Y7248633D01*
X24980499Y7248650D01*
X24973990Y7309197D01*
X24973988Y7309205D01*
X24922889Y7446203D01*
X24922887Y7446208D01*
X24835261Y7563262D01*
X24718207Y7650888D01*
X24718202Y7650890D01*
X24581204Y7701989D01*
X24581196Y7701991D01*
X24520649Y7708500D01*
X24520638Y7708500D01*
X22723362Y7708500D01*
X22723350Y7708500D01*
X22662803Y7701991D01*
X22662795Y7701989D01*
X22525797Y7650890D01*
X22525792Y7650888D01*
X22408738Y7563262D01*
X22321112Y7446208D01*
X22321111Y7446205D01*
X22276804Y7327416D01*
X22234257Y7270581D01*
X22167736Y7245771D01*
X22098362Y7260863D01*
X22066047Y7286113D01*
X22004902Y7352535D01*
X21827301Y7490768D01*
X21827300Y7490769D01*
X21629371Y7597883D01*
X21629369Y7597884D01*
X21416512Y7670957D01*
X21416501Y7670960D01*
X21336000Y7684394D01*
X21336000Y6783675D01*
X21224315Y6834680D01*
X21117763Y6850000D01*
X21046237Y6850000D01*
X20939685Y6834680D01*
X20828000Y6783675D01*
X20828000Y7684393D01*
X20827999Y7684394D01*
X20747498Y7670960D01*
X20747487Y7670957D01*
X20534630Y7597884D01*
X20534628Y7597883D01*
X20336699Y7490769D01*
X20336698Y7490768D01*
X20159097Y7352535D01*
X20006674Y7186959D01*
X19883580Y6998549D01*
X19793179Y6792457D01*
X19793176Y6792450D01*
X19745455Y6604001D01*
X19745456Y6604000D01*
X20650884Y6604000D01*
X20622507Y6559844D01*
X20582000Y6421889D01*
X20582000Y6278111D01*
X20622507Y6140156D01*
X20650884Y6096000D01*
X19745455Y6096000D01*
X19793176Y5907551D01*
X19793179Y5907544D01*
X19853462Y5770114D01*
X19862509Y5699696D01*
X19832049Y5635566D01*
X19771753Y5598084D01*
X19738075Y5593500D01*
X19435500Y5593500D01*
X19367379Y5613502D01*
X19320886Y5667158D01*
X19309500Y5719500D01*
X19309500Y5969995D01*
X19309499Y5970010D01*
X19306212Y6000581D01*
X19297766Y6079149D01*
X19297311Y6081239D01*
X19286382Y6131481D01*
X19286380Y6131491D01*
X19256665Y6220769D01*
X19251711Y6235655D01*
X19251710Y6235657D01*
X19172692Y6358612D01*
X19127307Y6410989D01*
X19126396Y6412100D01*
X19015741Y6507981D01*
X19015738Y6507983D01*
X18882789Y6568699D01*
X18814677Y6588698D01*
X18814670Y6588700D01*
X18785735Y6592860D01*
X18670000Y6609500D01*
X16724000Y6609500D01*
X16723990Y6609500D01*
X16639380Y6600403D01*
X16614851Y6597766D01*
X16614848Y6597766D01*
X16614844Y6597765D01*
X16614840Y6597765D01*
X16562519Y6586383D01*
X16562498Y6586377D01*
X16458344Y6551711D01*
X16458342Y6551710D01*
X16450620Y6546747D01*
X16382499Y6526745D01*
X16314379Y6546747D01*
X16267886Y6600403D01*
X16256500Y6652745D01*
X16256500Y11281900D01*
X16276502Y11350021D01*
X16330158Y11396514D01*
X16335499Y11398727D01*
X16336201Y11399111D01*
X16336204Y11399111D01*
X16406399Y11451658D01*
X16453261Y11486739D01*
X16540887Y11603793D01*
X16540887Y11603794D01*
X16540889Y11603796D01*
X16591989Y11740799D01*
X16598500Y11801362D01*
X16598500Y13598638D01*
X16596141Y13620581D01*
X16591990Y13659197D01*
X16591988Y13659205D01*
X16540889Y13796203D01*
X16540887Y13796208D01*
X16453261Y13913262D01*
X16336207Y14000888D01*
X16336202Y14000890D01*
X16199204Y14051989D01*
X16199196Y14051991D01*
X16138649Y14058500D01*
X16138638Y14058500D01*
X14341362Y14058500D01*
X14341350Y14058500D01*
X14280803Y14051991D01*
X14280795Y14051989D01*
X14143797Y14000890D01*
X14143792Y14000888D01*
X14026738Y13913262D01*
X13939112Y13796208D01*
X13939111Y13796205D01*
X13894804Y13677416D01*
X13852257Y13620581D01*
X13785736Y13595771D01*
X13716362Y13610863D01*
X13684047Y13636113D01*
X13622902Y13702535D01*
X13445301Y13840768D01*
X13445300Y13840769D01*
X13247371Y13947883D01*
X13247369Y13947884D01*
X13034512Y14020957D01*
X13034501Y14020960D01*
X12954000Y14034394D01*
X12954000Y13133675D01*
X12842315Y13184680D01*
X12735763Y13200000D01*
X12664237Y13200000D01*
X12557685Y13184680D01*
X12446000Y13133675D01*
X12446000Y14034393D01*
X12445999Y14034394D01*
X12365498Y14020960D01*
X12365487Y14020957D01*
X12152630Y13947884D01*
X12152628Y13947883D01*
X11954699Y13840769D01*
X11954698Y13840768D01*
X11777097Y13702535D01*
X11624670Y13536955D01*
X11535780Y13400899D01*
X11481776Y13354811D01*
X11411428Y13345236D01*
X11347071Y13375214D01*
X11324816Y13400899D01*
X11285884Y13460489D01*
X11235724Y13537266D01*
X11235720Y13537271D01*
X11106705Y13677416D01*
X11083240Y13702906D01*
X11083239Y13702907D01*
X11083237Y13702909D01*
X10963372Y13796204D01*
X10905576Y13841189D01*
X10707574Y13948342D01*
X10707572Y13948343D01*
X10707571Y13948344D01*
X10494639Y14021443D01*
X10494630Y14021445D01*
X10417029Y14034394D01*
X10272569Y14058500D01*
X10047431Y14058500D01*
X9902971Y14034394D01*
X9825369Y14021445D01*
X9825360Y14021443D01*
X9612428Y13948344D01*
X9612426Y13948342D01*
X9414426Y13841190D01*
X9414424Y13841189D01*
X9236762Y13702909D01*
X9084279Y13537271D01*
X8995483Y13401357D01*
X8941479Y13355269D01*
X8871131Y13345694D01*
X8806774Y13375671D01*
X8784517Y13401357D01*
X8695720Y13537271D01*
X8566705Y13677416D01*
X8543240Y13702906D01*
X8543239Y13702907D01*
X8543237Y13702909D01*
X8423372Y13796204D01*
X8365576Y13841189D01*
X8167574Y13948342D01*
X8167572Y13948343D01*
X8167571Y13948344D01*
X7954639Y14021443D01*
X7954630Y14021445D01*
X7877029Y14034394D01*
X7732569Y14058500D01*
X7507431Y14058500D01*
X7362971Y14034394D01*
X7285369Y14021445D01*
X7285360Y14021443D01*
X7072428Y13948344D01*
X7072426Y13948342D01*
X6874426Y13841190D01*
X6874424Y13841189D01*
X6696762Y13702909D01*
X6544279Y13537271D01*
X6455483Y13401357D01*
X6401479Y13355269D01*
X6331131Y13345694D01*
X6266774Y13375671D01*
X6244517Y13401357D01*
X6155720Y13537271D01*
X6026705Y13677416D01*
X6003240Y13702906D01*
X6003239Y13702907D01*
X6003237Y13702909D01*
X5883372Y13796204D01*
X5825576Y13841189D01*
X5627574Y13948342D01*
X5627572Y13948343D01*
X5627571Y13948344D01*
X5414639Y14021443D01*
X5414630Y14021445D01*
X5337029Y14034394D01*
X5192569Y14058500D01*
X4967431Y14058500D01*
X4822971Y14034394D01*
X4745369Y14021445D01*
X4745360Y14021443D01*
X4532428Y13948344D01*
X4532426Y13948342D01*
X4334426Y13841190D01*
X4334424Y13841189D01*
X4156762Y13702909D01*
X4004279Y13537271D01*
X4004275Y13537266D01*
X3881141Y13348794D01*
X3790703Y13142614D01*
X3790702Y13142613D01*
X3735437Y12924376D01*
X3735436Y12924370D01*
X3735436Y12924368D01*
X3716844Y12700000D01*
X3734232Y12490156D01*
X3735437Y12475625D01*
X3790702Y12257388D01*
X3790703Y12257387D01*
X3790704Y12257384D01*
X3879393Y12055192D01*
X3881141Y12051207D01*
X4004275Y11862735D01*
X4004279Y11862730D01*
X4156762Y11697092D01*
X4211331Y11654619D01*
X4334424Y11558811D01*
X4532426Y11451658D01*
X4532427Y11451658D01*
X4532428Y11451657D01*
X4644227Y11413277D01*
X4745365Y11378556D01*
X4967431Y11341500D01*
X4967435Y11341500D01*
X5192565Y11341500D01*
X5192569Y11341500D01*
X5414635Y11378556D01*
X5627574Y11451658D01*
X5825576Y11558811D01*
X6003240Y11697094D01*
X6155722Y11862732D01*
X6244518Y11998646D01*
X6298520Y12044732D01*
X6368868Y12054308D01*
X6433225Y12024331D01*
X6455480Y11998647D01*
X6473754Y11970677D01*
X6544275Y11862735D01*
X6544279Y11862730D01*
X6696762Y11697092D01*
X6751331Y11654619D01*
X6874424Y11558811D01*
X7072426Y11451658D01*
X7072427Y11451658D01*
X7072428Y11451657D01*
X7184227Y11413277D01*
X7285365Y11378556D01*
X7507431Y11341500D01*
X7507435Y11341500D01*
X7732565Y11341500D01*
X7732569Y11341500D01*
X7954635Y11378556D01*
X8167574Y11451658D01*
X8365576Y11558811D01*
X8543240Y11697094D01*
X8695722Y11862732D01*
X8784518Y11998646D01*
X8838520Y12044732D01*
X8908868Y12054308D01*
X8973225Y12024331D01*
X8995480Y11998647D01*
X9013754Y11970677D01*
X9084275Y11862735D01*
X9084279Y11862730D01*
X9236762Y11697092D01*
X9291331Y11654619D01*
X9414424Y11558811D01*
X9612426Y11451658D01*
X9612427Y11451658D01*
X9612428Y11451657D01*
X9724227Y11413277D01*
X9825365Y11378556D01*
X10047431Y11341500D01*
X10047435Y11341500D01*
X10272565Y11341500D01*
X10272569Y11341500D01*
X10494635Y11378556D01*
X10707574Y11451658D01*
X10905576Y11558811D01*
X11083240Y11697094D01*
X11235722Y11862732D01*
X11324816Y11999102D01*
X11378819Y12045190D01*
X11449167Y12054765D01*
X11513524Y12024788D01*
X11535782Y11999102D01*
X11624674Y11863042D01*
X11777097Y11697466D01*
X11954698Y11559233D01*
X11954699Y11559232D01*
X12152628Y11452118D01*
X12152630Y11452117D01*
X12365483Y11379045D01*
X12365492Y11379043D01*
X12446000Y11365609D01*
X12446000Y12266326D01*
X12557685Y12215320D01*
X12664237Y12200000D01*
X12735763Y12200000D01*
X12842315Y12215320D01*
X12954000Y12266326D01*
X12954000Y11365610D01*
X13034507Y11379043D01*
X13034516Y11379045D01*
X13247369Y11452117D01*
X13247371Y11452118D01*
X13445300Y11559232D01*
X13445301Y11559233D01*
X13622905Y11697468D01*
X13684047Y11763887D01*
X13744899Y11800459D01*
X13815863Y11798326D01*
X13874409Y11758165D01*
X13894804Y11722585D01*
X13939111Y11603796D01*
X13939112Y11603793D01*
X14026738Y11486739D01*
X14143792Y11399113D01*
X14151701Y11394795D01*
X14150750Y11393055D01*
X14198368Y11357409D01*
X14223179Y11290889D01*
X14223500Y11281900D01*
X14223500Y6498101D01*
X14203498Y6429980D01*
X14149842Y6383487D01*
X14144501Y6381275D01*
X14143799Y6380892D01*
X14026738Y6293262D01*
X13939112Y6176208D01*
X13939111Y6176205D01*
X13894804Y6057416D01*
X13852257Y6000581D01*
X13785736Y5975771D01*
X13716362Y5990863D01*
X13684047Y6016113D01*
X13622902Y6082535D01*
X13445301Y6220768D01*
X13445300Y6220769D01*
X13247371Y6327883D01*
X13247369Y6327884D01*
X13034512Y6400957D01*
X13034501Y6400960D01*
X12954000Y6414394D01*
X12954000Y5513675D01*
X12842315Y5564680D01*
X12735763Y5580000D01*
X12664237Y5580000D01*
X12557685Y5564680D01*
X12446000Y5513675D01*
X12446000Y6414393D01*
X12445999Y6414394D01*
X12365498Y6400960D01*
X12365487Y6400957D01*
X12152630Y6327884D01*
X12152628Y6327883D01*
X11954699Y6220769D01*
X11954698Y6220768D01*
X11777097Y6082535D01*
X11624670Y5916955D01*
X11535780Y5780899D01*
X11481776Y5734811D01*
X11411428Y5725236D01*
X11347071Y5755214D01*
X11324816Y5780899D01*
X11269661Y5865320D01*
X11235724Y5917266D01*
X11235720Y5917271D01*
X11119570Y6043441D01*
X11083240Y6082906D01*
X11083239Y6082907D01*
X11083237Y6082909D01*
X10963372Y6176204D01*
X10905576Y6221189D01*
X10707574Y6328342D01*
X10707572Y6328343D01*
X10707571Y6328344D01*
X10494639Y6401443D01*
X10494630Y6401445D01*
X10437476Y6410982D01*
X10272569Y6438500D01*
X10047431Y6438500D01*
X9902971Y6414394D01*
X9825369Y6401445D01*
X9825360Y6401443D01*
X9612428Y6328344D01*
X9612426Y6328342D01*
X9414426Y6221190D01*
X9414424Y6221189D01*
X9236762Y6082909D01*
X9084279Y5917271D01*
X8995483Y5781357D01*
X8941479Y5735269D01*
X8871131Y5725694D01*
X8806774Y5755671D01*
X8784517Y5781357D01*
X8695720Y5917271D01*
X8579570Y6043441D01*
X8543240Y6082906D01*
X8543239Y6082907D01*
X8543237Y6082909D01*
X8423372Y6176204D01*
X8365576Y6221189D01*
X8167574Y6328342D01*
X8167572Y6328343D01*
X8167571Y6328344D01*
X7954639Y6401443D01*
X7954630Y6401445D01*
X7897476Y6410982D01*
X7732569Y6438500D01*
X7507431Y6438500D01*
X7362971Y6414394D01*
X7285369Y6401445D01*
X7285360Y6401443D01*
X7072428Y6328344D01*
X7072426Y6328342D01*
X6874426Y6221190D01*
X6874424Y6221189D01*
X6696762Y6082909D01*
X6544279Y5917271D01*
X6455483Y5781357D01*
X6401479Y5735269D01*
X6331131Y5725694D01*
X6266774Y5755671D01*
X6244517Y5781357D01*
X6155720Y5917271D01*
X6039570Y6043441D01*
X6003240Y6082906D01*
X6003239Y6082907D01*
X6003237Y6082909D01*
X5883372Y6176204D01*
X5825576Y6221189D01*
X5627574Y6328342D01*
X5627572Y6328343D01*
X5627571Y6328344D01*
X5414639Y6401443D01*
X5414630Y6401445D01*
X5357476Y6410982D01*
X5192569Y6438500D01*
X4967431Y6438500D01*
X4822971Y6414394D01*
X4745369Y6401445D01*
X4745360Y6401443D01*
X4532428Y6328344D01*
X4532426Y6328342D01*
X4334426Y6221190D01*
X4334424Y6221189D01*
X4156762Y6082909D01*
X4004279Y5917271D01*
X4004275Y5917266D01*
X3881141Y5728794D01*
X3790703Y5522614D01*
X3790702Y5522613D01*
X3735437Y5304376D01*
X3735436Y5304370D01*
X3735436Y5304368D01*
X3716844Y5080000D01*
X3734232Y4870156D01*
X3735437Y4855625D01*
X3790702Y4637388D01*
X3790703Y4637387D01*
X3881141Y4431207D01*
X4004275Y4242735D01*
X4004279Y4242730D01*
X4156762Y4077092D01*
X4211331Y4034619D01*
X4334424Y3938811D01*
X4532426Y3831658D01*
X4532427Y3831658D01*
X4532428Y3831657D01*
X4602324Y3807662D01*
X4745365Y3758556D01*
X4967431Y3721500D01*
X4967435Y3721500D01*
X5192565Y3721500D01*
X5192569Y3721500D01*
X5414635Y3758556D01*
X5627574Y3831658D01*
X5825576Y3938811D01*
X6003240Y4077094D01*
X6155722Y4242732D01*
X6244518Y4378646D01*
X6298520Y4424732D01*
X6368868Y4434308D01*
X6433225Y4404331D01*
X6455480Y4378647D01*
X6488607Y4327942D01*
X6544275Y4242735D01*
X6544279Y4242730D01*
X6696762Y4077092D01*
X6751331Y4034619D01*
X6874424Y3938811D01*
X7072426Y3831658D01*
X7072427Y3831658D01*
X7072428Y3831657D01*
X7142324Y3807662D01*
X7285365Y3758556D01*
X7507431Y3721500D01*
X7507435Y3721500D01*
X7732565Y3721500D01*
X7732569Y3721500D01*
X7954635Y3758556D01*
X8167574Y3831658D01*
X8365576Y3938811D01*
X8543240Y4077094D01*
X8695722Y4242732D01*
X8784518Y4378646D01*
X8838520Y4424732D01*
X8908868Y4434308D01*
X8973225Y4404331D01*
X8995480Y4378647D01*
X9028607Y4327942D01*
X9084275Y4242735D01*
X9084279Y4242730D01*
X9236762Y4077092D01*
X9291331Y4034619D01*
X9414424Y3938811D01*
X9612426Y3831658D01*
X9612427Y3831658D01*
X9612428Y3831657D01*
X9682324Y3807662D01*
X9825365Y3758556D01*
X10047431Y3721500D01*
X10047435Y3721500D01*
X10272565Y3721500D01*
X10272569Y3721500D01*
X10494635Y3758556D01*
X10707574Y3831658D01*
X10905576Y3938811D01*
X11083240Y4077094D01*
X11235722Y4242732D01*
X11324816Y4379102D01*
X11378819Y4425190D01*
X11449167Y4434765D01*
X11513524Y4404788D01*
X11535782Y4379102D01*
X11624674Y4243042D01*
X11777097Y4077466D01*
X11954698Y3939233D01*
X11954699Y3939232D01*
X12152628Y3832118D01*
X12152630Y3832117D01*
X12365483Y3759045D01*
X12365492Y3759043D01*
X12446000Y3745609D01*
X12446000Y4646326D01*
X12557685Y4595320D01*
X12664237Y4580000D01*
X12735763Y4580000D01*
X12842315Y4595320D01*
X12954000Y4646326D01*
X12954000Y3745610D01*
X13034507Y3759043D01*
X13034516Y3759045D01*
X13247369Y3832117D01*
X13247369Y3832118D01*
X13280169Y3849868D01*
X13349599Y3864699D01*
X13416026Y3839640D01*
X13458360Y3782646D01*
X13464857Y3721125D01*
X13456500Y3662993D01*
X13456500Y-1136742D01*
X13457972Y-1164203D01*
X13457973Y-1164212D01*
X13459952Y-1182630D01*
X13447345Y-1252498D01*
X13398966Y-1304459D01*
X13330174Y-1322016D01*
X13274705Y-1306910D01*
X13247371Y-1292118D01*
X13247369Y-1292116D01*
X13034512Y-1219043D01*
X13034501Y-1219040D01*
X12954000Y-1205606D01*
X12954000Y-2106325D01*
X12842315Y-2055320D01*
X12735763Y-2040000D01*
X12664237Y-2040000D01*
X12557685Y-2055320D01*
X12446000Y-2106325D01*
X12446000Y-1205607D01*
X12445999Y-1205606D01*
X12365498Y-1219040D01*
X12365487Y-1219043D01*
X12152630Y-1292116D01*
X12152628Y-1292117D01*
X11954699Y-1399231D01*
X11954698Y-1399232D01*
X11777097Y-1537465D01*
X11624670Y-1703045D01*
X11535780Y-1839101D01*
X11481776Y-1885189D01*
X11411428Y-1894764D01*
X11347071Y-1864786D01*
X11324816Y-1839101D01*
X11259400Y-1738974D01*
X11235724Y-1702734D01*
X11235720Y-1702729D01*
X11088593Y-1542909D01*
X11083240Y-1537094D01*
X11083239Y-1537093D01*
X11083237Y-1537091D01*
X10981855Y-1458182D01*
X10905576Y-1398811D01*
X10707574Y-1291658D01*
X10707572Y-1291657D01*
X10707571Y-1291656D01*
X10494639Y-1218557D01*
X10494630Y-1218555D01*
X10417029Y-1205606D01*
X10272569Y-1181500D01*
X10047431Y-1181500D01*
X9924413Y-1202028D01*
X9825369Y-1218555D01*
X9825360Y-1218557D01*
X9612428Y-1291656D01*
X9612426Y-1291658D01*
X9415585Y-1398183D01*
X9414426Y-1398810D01*
X9414424Y-1398811D01*
X9236762Y-1537091D01*
X9084279Y-1702729D01*
X8995483Y-1838643D01*
X8941479Y-1884731D01*
X8871131Y-1894306D01*
X8806774Y-1864329D01*
X8784517Y-1838643D01*
X8695720Y-1702729D01*
X8548593Y-1542909D01*
X8543240Y-1537094D01*
X8543239Y-1537093D01*
X8543237Y-1537091D01*
X8441855Y-1458182D01*
X8365576Y-1398811D01*
X8167574Y-1291658D01*
X8167572Y-1291657D01*
X8167571Y-1291656D01*
X7954639Y-1218557D01*
X7954630Y-1218555D01*
X7877029Y-1205606D01*
X7732569Y-1181500D01*
X7507431Y-1181500D01*
X7384413Y-1202028D01*
X7285369Y-1218555D01*
X7285360Y-1218557D01*
X7072428Y-1291656D01*
X7072426Y-1291658D01*
X6875585Y-1398183D01*
X6874426Y-1398810D01*
X6874424Y-1398811D01*
X6696762Y-1537091D01*
X6544279Y-1702729D01*
X6455483Y-1838643D01*
X6401479Y-1884731D01*
X6331131Y-1894306D01*
X6266774Y-1864329D01*
X6244517Y-1838643D01*
X6155720Y-1702729D01*
X6008593Y-1542909D01*
X6003240Y-1537094D01*
X6003239Y-1537093D01*
X6003237Y-1537091D01*
X5901855Y-1458182D01*
X5825576Y-1398811D01*
X5627574Y-1291658D01*
X5627572Y-1291657D01*
X5627571Y-1291656D01*
X5414639Y-1218557D01*
X5414630Y-1218555D01*
X5337029Y-1205606D01*
X5192569Y-1181500D01*
X4967431Y-1181500D01*
X4844413Y-1202028D01*
X4745369Y-1218555D01*
X4745360Y-1218557D01*
X4532428Y-1291656D01*
X4532426Y-1291658D01*
X4335585Y-1398183D01*
X4334426Y-1398810D01*
X4334424Y-1398811D01*
X4156762Y-1537091D01*
X4004279Y-1702729D01*
X4004275Y-1702734D01*
X3881141Y-1891206D01*
X3790703Y-2097386D01*
X3790702Y-2097387D01*
X3735437Y-2315624D01*
X3735436Y-2315630D01*
X3735436Y-2315632D01*
X3716844Y-2540000D01*
X500Y-2540000D01*
X500Y21590000D01*
X11532496Y21590000D01*
X11552457Y21400073D01*
X11582526Y21307530D01*
X11611473Y21218444D01*
X11636505Y21175088D01*
X11706958Y21053059D01*
X11706965Y21053049D01*
X11834744Y20911136D01*
X11834747Y20911134D01*
X11989248Y20798882D01*
X12163712Y20721206D01*
X12350513Y20681500D01*
X12541487Y20681500D01*
X12728288Y20721206D01*
X12902752Y20798882D01*
X13057253Y20911134D01*
X13122357Y20983439D01*
X13185034Y21053049D01*
X13185035Y21053051D01*
X13185040Y21053056D01*
X13280527Y21218444D01*
X13339542Y21400072D01*
X13359504Y21590000D01*
X13339542Y21779928D01*
X13280527Y21961556D01*
X13185040Y22126944D01*
X13185038Y22126946D01*
X13185034Y22126952D01*
X13057255Y22268865D01*
X12902752Y22381118D01*
X12728288Y22458794D01*
X12541487Y22498500D01*
X12350513Y22498500D01*
X12163711Y22458794D01*
X11989247Y22381118D01*
X11834744Y22268865D01*
X11706965Y22126952D01*
X11706958Y22126942D01*
X11611476Y21961562D01*
X11611473Y21961555D01*
X11552457Y21779928D01*
X11532496Y21590000D01*
X500Y21590000D01*
X500Y23114000D01*
X17882496Y23114000D01*
X17902457Y22924073D01*
X17932526Y22831530D01*
X17961473Y22742444D01*
X17961476Y22742439D01*
X18056958Y22577059D01*
X18056965Y22577049D01*
X18184744Y22435136D01*
X18184747Y22435134D01*
X18339248Y22322882D01*
X18513712Y22245206D01*
X18700513Y22205500D01*
X18891487Y22205500D01*
X19078288Y22245206D01*
X19252752Y22322882D01*
X19407253Y22435134D01*
X19464945Y22499207D01*
X19535034Y22577049D01*
X19535035Y22577051D01*
X19535040Y22577056D01*
X19630527Y22742444D01*
X19689542Y22924072D01*
X19709504Y23114000D01*
X19689542Y23303928D01*
X19630527Y23485556D01*
X19535040Y23650944D01*
X19535038Y23650946D01*
X19535034Y23650952D01*
X19407255Y23792865D01*
X19252752Y23905118D01*
X19078288Y23982794D01*
X19052604Y23988254D01*
X18990132Y24021981D01*
X18955810Y24084131D01*
X18960538Y24154970D01*
X19002814Y24212008D01*
X19069215Y24237135D01*
X19078802Y24237500D01*
X19145487Y24237500D01*
X19332288Y24277206D01*
X19506752Y24354882D01*
X19661253Y24467134D01*
X19789040Y24609056D01*
X19884527Y24774444D01*
X19943542Y24956072D01*
X19963504Y25146000D01*
X19943542Y25335928D01*
X19884527Y25517556D01*
X19789040Y25682944D01*
X19789038Y25682946D01*
X19789034Y25682952D01*
X19661255Y25824865D01*
X19506752Y25937118D01*
X19332288Y26014794D01*
X19145487Y26054500D01*
X18954513Y26054500D01*
X18767711Y26014794D01*
X18593247Y25937118D01*
X18438744Y25824865D01*
X18310965Y25682952D01*
X18310958Y25682942D01*
X18215476Y25517562D01*
X18215473Y25517555D01*
X18156457Y25335928D01*
X18136496Y25146000D01*
X18156457Y24956073D01*
X18186526Y24863530D01*
X18215473Y24774444D01*
X18215476Y24774439D01*
X18310958Y24609059D01*
X18310965Y24609049D01*
X18438744Y24467136D01*
X18438747Y24467134D01*
X18593248Y24354882D01*
X18767712Y24277206D01*
X18793395Y24271747D01*
X18855868Y24238019D01*
X18890190Y24175869D01*
X18885462Y24105030D01*
X18843186Y24047992D01*
X18776785Y24022865D01*
X18767198Y24022500D01*
X18700513Y24022500D01*
X18513711Y23982794D01*
X18339247Y23905118D01*
X18184744Y23792865D01*
X18056965Y23650952D01*
X18056958Y23650942D01*
X17961476Y23485562D01*
X17961473Y23485555D01*
X17902457Y23303928D01*
X17882496Y23114000D01*
X500Y23114000D01*
X500Y27700000D01*
X8886844Y27700000D01*
X8905437Y27475625D01*
X8960702Y27257388D01*
X8960703Y27257387D01*
X9051141Y27051207D01*
X9174275Y26862735D01*
X9174279Y26862730D01*
X9326762Y26697092D01*
X9381331Y26654619D01*
X9504424Y26558811D01*
X9702426Y26451658D01*
X9702427Y26451658D01*
X9702428Y26451657D01*
X9814227Y26413277D01*
X9915365Y26378556D01*
X10137431Y26341500D01*
X10137435Y26341500D01*
X10362565Y26341500D01*
X10362569Y26341500D01*
X10584635Y26378556D01*
X10797574Y26451658D01*
X10995576Y26558811D01*
X11173240Y26697094D01*
X11325722Y26862732D01*
X11448860Y27051209D01*
X11539296Y27257384D01*
X11594564Y27475632D01*
X11613156Y27700000D01*
X18386844Y27700000D01*
X18405437Y27475625D01*
X18460702Y27257388D01*
X18460703Y27257387D01*
X18551141Y27051207D01*
X18674275Y26862735D01*
X18674279Y26862730D01*
X18826762Y26697092D01*
X18881331Y26654619D01*
X19004424Y26558811D01*
X19202426Y26451658D01*
X19202427Y26451658D01*
X19202428Y26451657D01*
X19314227Y26413277D01*
X19415365Y26378556D01*
X19637431Y26341500D01*
X19637435Y26341500D01*
X19862565Y26341500D01*
X19862569Y26341500D01*
X20084635Y26378556D01*
X20297574Y26451658D01*
X20495576Y26558811D01*
X20673240Y26697094D01*
X20825722Y26862732D01*
X20948860Y27051209D01*
X21039296Y27257384D01*
X21094564Y27475632D01*
X21113156Y27700000D01*
X21094564Y27924368D01*
X21039296Y28142616D01*
X20948860Y28348791D01*
X20830508Y28529943D01*
X20825724Y28537266D01*
X20825720Y28537271D01*
X20673237Y28702909D01*
X20591382Y28766619D01*
X20495576Y28841189D01*
X20297574Y28948342D01*
X20297572Y28948343D01*
X20297571Y28948344D01*
X20084639Y29021443D01*
X20084630Y29021445D01*
X20040476Y29028813D01*
X19862569Y29058500D01*
X19637431Y29058500D01*
X19489211Y29033767D01*
X19415369Y29021445D01*
X19415360Y29021443D01*
X19202428Y28948344D01*
X19202426Y28948342D01*
X19004426Y28841190D01*
X19004424Y28841189D01*
X18826762Y28702909D01*
X18674279Y28537271D01*
X18674275Y28537266D01*
X18551141Y28348794D01*
X18460703Y28142614D01*
X18460702Y28142613D01*
X18405437Y27924376D01*
X18386844Y27700000D01*
X11613156Y27700000D01*
X11594564Y27924368D01*
X11539296Y28142616D01*
X11448860Y28348791D01*
X11330508Y28529943D01*
X11325724Y28537266D01*
X11325720Y28537271D01*
X11173237Y28702909D01*
X11091382Y28766619D01*
X10995576Y28841189D01*
X10797574Y28948342D01*
X10797572Y28948343D01*
X10797571Y28948344D01*
X10584639Y29021443D01*
X10584630Y29021445D01*
X10540476Y29028813D01*
X10362569Y29058500D01*
X10137431Y29058500D01*
X9989211Y29033767D01*
X9915369Y29021445D01*
X9915360Y29021443D01*
X9702428Y28948344D01*
X9702426Y28948342D01*
X9504426Y28841190D01*
X9504424Y28841189D01*
X9326762Y28702909D01*
X9174279Y28537271D01*
X9174275Y28537266D01*
X9051141Y28348794D01*
X8960703Y28142614D01*
X8960702Y28142613D01*
X8905437Y27924376D01*
X8886844Y27700000D01*
X500Y27700000D01*
X500Y32322000D01*
X87560496Y32322000D01*
X87580457Y32132073D01*
X87600669Y32069870D01*
X87639473Y31950444D01*
X87667841Y31901309D01*
X87734958Y31785059D01*
X87734965Y31785049D01*
X87862744Y31643136D01*
X87862747Y31643134D01*
X88017248Y31530882D01*
X88191712Y31453206D01*
X88378513Y31413500D01*
X88569487Y31413500D01*
X88756288Y31453206D01*
X88930752Y31530882D01*
X89085253Y31643134D01*
X89213040Y31785056D01*
X89308527Y31950444D01*
X89367542Y32132072D01*
X89387504Y32322000D01*
X89367542Y32511928D01*
X89308527Y32693556D01*
X89213040Y32858944D01*
X89213038Y32858946D01*
X89213034Y32858952D01*
X89085255Y33000865D01*
X88930752Y33113118D01*
X88756288Y33190794D01*
X88569487Y33230500D01*
X88378513Y33230500D01*
X88191711Y33190794D01*
X88017247Y33113118D01*
X87862744Y33000865D01*
X87734965Y32858952D01*
X87734958Y32858942D01*
X87639476Y32693562D01*
X87639473Y32693555D01*
X87580457Y32511928D01*
X87560496Y32322000D01*
X500Y32322000D01*
X500Y43499997D01*
X1186641Y43499997D01*
X1206064Y43141763D01*
X1264103Y42787731D01*
X1360084Y42442041D01*
X1365920Y42427393D01*
X1492877Y42108757D01*
X1598478Y41909572D01*
X1660922Y41791790D01*
X1660924Y41791786D01*
X1733247Y41685118D01*
X1862258Y41494841D01*
X1950264Y41391232D01*
X2094516Y41221405D01*
X2354962Y40974696D01*
X2354977Y40974683D01*
X2640586Y40757569D01*
X2947995Y40572607D01*
X3273599Y40421967D01*
X3613583Y40307413D01*
X3963958Y40230289D01*
X4320618Y40191500D01*
X4320626Y40191500D01*
X4679374Y40191500D01*
X4679382Y40191500D01*
X5036042Y40230289D01*
X5386417Y40307413D01*
X5726401Y40421967D01*
X6052005Y40572607D01*
X6359414Y40757569D01*
X6645023Y40974683D01*
X6905484Y41221405D01*
X7137742Y41494841D01*
X7339075Y41791785D01*
X7507123Y42108757D01*
X7639915Y42442039D01*
X7735895Y42787726D01*
X7793936Y43141763D01*
X7813359Y43499997D01*
X22186641Y43499997D01*
X22206064Y43141763D01*
X22264103Y42787731D01*
X22360084Y42442041D01*
X22365920Y42427393D01*
X22492877Y42108757D01*
X22598478Y41909572D01*
X22660922Y41791790D01*
X22660924Y41791786D01*
X22733247Y41685118D01*
X22862258Y41494841D01*
X22950264Y41391232D01*
X23094516Y41221405D01*
X23354962Y40974696D01*
X23354977Y40974683D01*
X23640586Y40757569D01*
X23947995Y40572607D01*
X24273599Y40421967D01*
X24613583Y40307413D01*
X24963958Y40230289D01*
X25320618Y40191500D01*
X25320626Y40191500D01*
X25679374Y40191500D01*
X25679382Y40191500D01*
X26036042Y40230289D01*
X26386417Y40307413D01*
X26726401Y40421967D01*
X27052005Y40572607D01*
X27359414Y40757569D01*
X27538886Y40894000D01*
X40742496Y40894000D01*
X40762457Y40704073D01*
X40792526Y40611530D01*
X40821473Y40522444D01*
X40821476Y40522439D01*
X40916958Y40357059D01*
X40916965Y40357049D01*
X41044744Y40215136D01*
X41044747Y40215134D01*
X41199248Y40102882D01*
X41373712Y40025206D01*
X41560513Y39985500D01*
X41751487Y39985500D01*
X41938288Y40025206D01*
X42112752Y40102882D01*
X42267253Y40215134D01*
X42280899Y40230289D01*
X42395034Y40357049D01*
X42395035Y40357051D01*
X42395040Y40357056D01*
X42490527Y40522444D01*
X42549542Y40704072D01*
X42569504Y40894000D01*
X43282496Y40894000D01*
X43302457Y40704073D01*
X43332526Y40611530D01*
X43361473Y40522444D01*
X43361476Y40522439D01*
X43456958Y40357059D01*
X43456965Y40357049D01*
X43584744Y40215136D01*
X43584747Y40215134D01*
X43739248Y40102882D01*
X43913712Y40025206D01*
X44100513Y39985500D01*
X44291487Y39985500D01*
X44478288Y40025206D01*
X44652752Y40102882D01*
X44807253Y40215134D01*
X44820899Y40230289D01*
X44935034Y40357049D01*
X44935035Y40357051D01*
X44935040Y40357056D01*
X45030527Y40522444D01*
X45089542Y40704072D01*
X45109504Y40894000D01*
X46076496Y40894000D01*
X46096457Y40704073D01*
X46126526Y40611530D01*
X46155473Y40522444D01*
X46155476Y40522439D01*
X46250958Y40357059D01*
X46250965Y40357049D01*
X46378744Y40215136D01*
X46378747Y40215134D01*
X46533248Y40102882D01*
X46707712Y40025206D01*
X46894513Y39985500D01*
X47085487Y39985500D01*
X47272288Y40025206D01*
X47446752Y40102882D01*
X47601253Y40215134D01*
X47614899Y40230289D01*
X47729034Y40357049D01*
X47729035Y40357051D01*
X47729040Y40357056D01*
X47824527Y40522444D01*
X47883542Y40704072D01*
X47903504Y40894000D01*
X48870496Y40894000D01*
X48890457Y40704073D01*
X48920526Y40611530D01*
X48949473Y40522444D01*
X48949476Y40522439D01*
X49044958Y40357059D01*
X49044965Y40357049D01*
X49172744Y40215136D01*
X49172747Y40215134D01*
X49327248Y40102882D01*
X49501712Y40025206D01*
X49688513Y39985500D01*
X49879487Y39985500D01*
X50066288Y40025206D01*
X50240752Y40102882D01*
X50395253Y40215134D01*
X50408899Y40230289D01*
X50523034Y40357049D01*
X50523035Y40357051D01*
X50523040Y40357056D01*
X50618527Y40522444D01*
X50677542Y40704072D01*
X50697504Y40894000D01*
X51664496Y40894000D01*
X51684457Y40704073D01*
X51714526Y40611530D01*
X51743473Y40522444D01*
X51743476Y40522439D01*
X51838958Y40357059D01*
X51838965Y40357049D01*
X51966744Y40215136D01*
X51966747Y40215134D01*
X52121248Y40102882D01*
X52295712Y40025206D01*
X52482513Y39985500D01*
X52673487Y39985500D01*
X52741690Y39999997D01*
X89686641Y39999997D01*
X89706064Y39641763D01*
X89764103Y39287731D01*
X89860084Y38942041D01*
X89860085Y38942039D01*
X89992877Y38608757D01*
X90160925Y38291785D01*
X90362258Y37994841D01*
X90534731Y37791790D01*
X90594516Y37721405D01*
X90854962Y37474696D01*
X90854977Y37474683D01*
X91140586Y37257569D01*
X91447995Y37072607D01*
X91773599Y36921967D01*
X92113583Y36807413D01*
X92463958Y36730289D01*
X92820618Y36691500D01*
X92820626Y36691500D01*
X93179374Y36691500D01*
X93179382Y36691500D01*
X93536042Y36730289D01*
X93886417Y36807413D01*
X94226401Y36921967D01*
X94552005Y37072607D01*
X94859414Y37257569D01*
X95145023Y37474683D01*
X95405484Y37721405D01*
X95637742Y37994841D01*
X95839075Y38291785D01*
X96007123Y38608757D01*
X96139915Y38942039D01*
X96235895Y39287726D01*
X96293936Y39641763D01*
X96313359Y40000000D01*
X96311992Y40025206D01*
X96301850Y40212270D01*
X96293936Y40358237D01*
X96237240Y40704072D01*
X96235896Y40712270D01*
X96163037Y40974683D01*
X96139915Y41057961D01*
X96007123Y41391243D01*
X95839075Y41708215D01*
X95637742Y42005159D01*
X95405484Y42278595D01*
X95378161Y42304477D01*
X95145037Y42525305D01*
X95145022Y42525318D01*
X94859418Y42742428D01*
X94859412Y42742432D01*
X94749606Y42808500D01*
X94552005Y42927393D01*
X94226401Y43078033D01*
X93886417Y43192587D01*
X93776036Y43216884D01*
X93536054Y43269709D01*
X93536030Y43269713D01*
X93179389Y43308500D01*
X93179382Y43308500D01*
X92820618Y43308500D01*
X92820610Y43308500D01*
X92463969Y43269713D01*
X92463945Y43269709D01*
X92113587Y43192588D01*
X92113573Y43192584D01*
X91773601Y43078034D01*
X91447989Y42927390D01*
X91140587Y42742432D01*
X91140581Y42742428D01*
X90854977Y42525318D01*
X90854962Y42525305D01*
X90594516Y42278596D01*
X90362256Y42005157D01*
X90160924Y41708215D01*
X90160922Y41708211D01*
X89992876Y41391241D01*
X89992872Y41391232D01*
X89860084Y41057960D01*
X89764103Y40712270D01*
X89706064Y40358238D01*
X89686641Y40000004D01*
X89686641Y39999997D01*
X52741690Y39999997D01*
X52860288Y40025206D01*
X53034752Y40102882D01*
X53189253Y40215134D01*
X53202899Y40230289D01*
X53317034Y40357049D01*
X53317035Y40357051D01*
X53317040Y40357056D01*
X53412527Y40522444D01*
X53471542Y40704072D01*
X53491504Y40894000D01*
X53471542Y41083928D01*
X53412527Y41265556D01*
X53317040Y41430944D01*
X53317038Y41430946D01*
X53317034Y41430952D01*
X53189255Y41572865D01*
X53034752Y41685118D01*
X52860288Y41762794D01*
X52673487Y41802500D01*
X52482513Y41802500D01*
X52295711Y41762794D01*
X52121247Y41685118D01*
X51966744Y41572865D01*
X51838965Y41430952D01*
X51838958Y41430942D01*
X51743476Y41265562D01*
X51743473Y41265555D01*
X51684457Y41083928D01*
X51664496Y40894000D01*
X50697504Y40894000D01*
X50677542Y41083928D01*
X50618527Y41265556D01*
X50523040Y41430944D01*
X50523038Y41430946D01*
X50523034Y41430952D01*
X50395255Y41572865D01*
X50240752Y41685118D01*
X50066288Y41762794D01*
X49879487Y41802500D01*
X49688513Y41802500D01*
X49501711Y41762794D01*
X49327247Y41685118D01*
X49172744Y41572865D01*
X49044965Y41430952D01*
X49044958Y41430942D01*
X48949476Y41265562D01*
X48949473Y41265555D01*
X48890457Y41083928D01*
X48870496Y40894000D01*
X47903504Y40894000D01*
X47883542Y41083928D01*
X47824527Y41265556D01*
X47729040Y41430944D01*
X47729038Y41430946D01*
X47729034Y41430952D01*
X47601255Y41572865D01*
X47446752Y41685118D01*
X47272288Y41762794D01*
X47085487Y41802500D01*
X46894513Y41802500D01*
X46707711Y41762794D01*
X46533247Y41685118D01*
X46378744Y41572865D01*
X46250965Y41430952D01*
X46250958Y41430942D01*
X46155476Y41265562D01*
X46155473Y41265555D01*
X46096457Y41083928D01*
X46076496Y40894000D01*
X45109504Y40894000D01*
X45089542Y41083928D01*
X45030527Y41265556D01*
X44935040Y41430944D01*
X44935038Y41430946D01*
X44935034Y41430952D01*
X44807255Y41572865D01*
X44652752Y41685118D01*
X44478288Y41762794D01*
X44291487Y41802500D01*
X44100513Y41802500D01*
X43913711Y41762794D01*
X43739247Y41685118D01*
X43584744Y41572865D01*
X43456965Y41430952D01*
X43456958Y41430942D01*
X43361476Y41265562D01*
X43361473Y41265555D01*
X43302457Y41083928D01*
X43282496Y40894000D01*
X42569504Y40894000D01*
X42549542Y41083928D01*
X42490527Y41265556D01*
X42395040Y41430944D01*
X42395038Y41430946D01*
X42395034Y41430952D01*
X42267255Y41572865D01*
X42112752Y41685118D01*
X41938288Y41762794D01*
X41751487Y41802500D01*
X41560513Y41802500D01*
X41373711Y41762794D01*
X41199247Y41685118D01*
X41044744Y41572865D01*
X40916965Y41430952D01*
X40916958Y41430942D01*
X40821476Y41265562D01*
X40821473Y41265555D01*
X40762457Y41083928D01*
X40742496Y40894000D01*
X27538886Y40894000D01*
X27645023Y40974683D01*
X27905484Y41221405D01*
X28137742Y41494841D01*
X28339075Y41791785D01*
X28507123Y42108757D01*
X28639915Y42442039D01*
X28735895Y42787726D01*
X28793936Y43141763D01*
X28813359Y43500000D01*
X28813321Y43500693D01*
X28805214Y43650224D01*
X28793936Y43858237D01*
X28736417Y44209092D01*
X28735896Y44212270D01*
X28690789Y44374730D01*
X28639915Y44557961D01*
X28507123Y44891243D01*
X28339075Y45208215D01*
X28336509Y45212000D01*
X69503346Y45212000D01*
X69521932Y44987708D01*
X69577176Y44769551D01*
X69577179Y44769544D01*
X69667580Y44563452D01*
X69742922Y44448134D01*
X70381638Y45086851D01*
X70406507Y45002156D01*
X70484239Y44881202D01*
X70592900Y44787048D01*
X70723685Y44727320D01*
X70738412Y44725203D01*
X70100310Y44087102D01*
X70120694Y44071237D01*
X70120696Y44071235D01*
X70318632Y43964117D01*
X70531483Y43891045D01*
X70531490Y43891043D01*
X70753477Y43854000D01*
X70978523Y43854000D01*
X71200509Y43891043D01*
X71200516Y43891045D01*
X71413369Y43964117D01*
X71413371Y43964118D01*
X71611298Y44071232D01*
X71611302Y44071234D01*
X71631689Y44087102D01*
X70993588Y44725203D01*
X71008315Y44727320D01*
X71139100Y44787048D01*
X71247761Y44881202D01*
X71325493Y45002156D01*
X71350360Y45086849D01*
X71989076Y44448133D01*
X71989077Y44448134D01*
X72030218Y44511102D01*
X72084222Y44557190D01*
X72154570Y44566765D01*
X72218927Y44536787D01*
X72241183Y44511102D01*
X72330279Y44374730D01*
X72482762Y44209092D01*
X72537331Y44166619D01*
X72660424Y44070811D01*
X72858426Y43963658D01*
X72858427Y43963658D01*
X72858428Y43963657D01*
X72970227Y43925277D01*
X73071365Y43890556D01*
X73293431Y43853500D01*
X73293435Y43853500D01*
X73518565Y43853500D01*
X73518569Y43853500D01*
X73740635Y43890556D01*
X73953574Y43963658D01*
X74151576Y44070811D01*
X74329240Y44209094D01*
X74481722Y44374732D01*
X74570518Y44510646D01*
X74624520Y44556732D01*
X74694868Y44566308D01*
X74759225Y44536331D01*
X74781480Y44510647D01*
X74814607Y44459942D01*
X74870275Y44374735D01*
X74870279Y44374730D01*
X75022762Y44209092D01*
X75077331Y44166619D01*
X75200424Y44070811D01*
X75398426Y43963658D01*
X75398427Y43963658D01*
X75398428Y43963657D01*
X75510227Y43925277D01*
X75611365Y43890556D01*
X75833431Y43853500D01*
X75833435Y43853500D01*
X76058565Y43853500D01*
X76058569Y43853500D01*
X76280635Y43890556D01*
X76493574Y43963658D01*
X76691576Y44070811D01*
X76869240Y44209094D01*
X77021722Y44374732D01*
X77110518Y44510646D01*
X77164520Y44556732D01*
X77234868Y44566308D01*
X77299225Y44536331D01*
X77321480Y44510647D01*
X77354607Y44459942D01*
X77410275Y44374735D01*
X77410279Y44374730D01*
X77562762Y44209092D01*
X77617331Y44166619D01*
X77740424Y44070811D01*
X77938426Y43963658D01*
X77938427Y43963658D01*
X77938428Y43963657D01*
X78050227Y43925277D01*
X78151365Y43890556D01*
X78373431Y43853500D01*
X78373435Y43853500D01*
X78598565Y43853500D01*
X78598569Y43853500D01*
X78820635Y43890556D01*
X79033574Y43963658D01*
X79231576Y44070811D01*
X79409240Y44209094D01*
X79561722Y44374732D01*
X79597830Y44430000D01*
X101384884Y44430000D01*
X101403314Y44219345D01*
X101432643Y44109887D01*
X101458043Y44015092D01*
X101458045Y44015088D01*
X101547412Y43823439D01*
X101668692Y43650233D01*
X101668696Y43650228D01*
X101668699Y43650224D01*
X101818224Y43500699D01*
X101818228Y43500696D01*
X101818232Y43500693D01*
X101991438Y43379413D01*
X101991441Y43379412D01*
X101991442Y43379411D01*
X102183090Y43290044D01*
X102387345Y43235314D01*
X102598000Y43216884D01*
X102808655Y43235314D01*
X103012910Y43290044D01*
X103204558Y43379411D01*
X103377776Y43500699D01*
X103527301Y43650224D01*
X103648589Y43823442D01*
X103737956Y44015090D01*
X103792686Y44219345D01*
X103811116Y44430000D01*
X103792686Y44640655D01*
X103737956Y44844910D01*
X103648589Y45036558D01*
X103648588Y45036559D01*
X103648587Y45036562D01*
X103527307Y45209768D01*
X103527304Y45209772D01*
X103527301Y45209776D01*
X103377776Y45359301D01*
X103377772Y45359304D01*
X103377767Y45359308D01*
X103204561Y45480588D01*
X103012912Y45569955D01*
X103012905Y45569958D01*
X102990211Y45576039D01*
X102981794Y45578294D01*
X102921172Y45615244D01*
X102890150Y45679104D01*
X102898578Y45749599D01*
X102943780Y45804346D01*
X102981793Y45821707D01*
X103012910Y45830044D01*
X103204558Y45919411D01*
X103377776Y46040699D01*
X103527301Y46190224D01*
X103618267Y46320138D01*
X103648587Y46363439D01*
X103648587Y46363440D01*
X103648589Y46363442D01*
X103737956Y46555090D01*
X103792686Y46759345D01*
X103811116Y46970000D01*
X103792686Y47180655D01*
X103737956Y47384910D01*
X103648589Y47576558D01*
X103648588Y47576559D01*
X103648587Y47576562D01*
X103527307Y47749768D01*
X103527304Y47749772D01*
X103527301Y47749776D01*
X103377776Y47899301D01*
X103377772Y47899304D01*
X103377767Y47899308D01*
X103204561Y48020588D01*
X103012912Y48109955D01*
X103012908Y48109957D01*
X102918113Y48135357D01*
X102808655Y48164686D01*
X102598000Y48183116D01*
X102387345Y48164686D01*
X102332616Y48150022D01*
X102183091Y48109957D01*
X102183087Y48109955D01*
X101991438Y48020588D01*
X101818232Y47899308D01*
X101818221Y47899299D01*
X101668701Y47749779D01*
X101668692Y47749768D01*
X101547412Y47576562D01*
X101458045Y47384913D01*
X101458043Y47384909D01*
X101417978Y47235384D01*
X101403314Y47180655D01*
X101384884Y46970000D01*
X101403314Y46759345D01*
X101421202Y46692587D01*
X101458043Y46555092D01*
X101458045Y46555088D01*
X101547412Y46363439D01*
X101668692Y46190233D01*
X101668696Y46190228D01*
X101668699Y46190224D01*
X101818224Y46040699D01*
X101818228Y46040696D01*
X101818232Y46040693D01*
X101991438Y45919413D01*
X101991441Y45919412D01*
X101991442Y45919411D01*
X102183090Y45830044D01*
X102214205Y45821707D01*
X102274828Y45784755D01*
X102305849Y45720895D01*
X102297421Y45650400D01*
X102252218Y45595653D01*
X102214206Y45578294D01*
X102206406Y45576204D01*
X102183091Y45569957D01*
X102183087Y45569955D01*
X101991438Y45480588D01*
X101818232Y45359308D01*
X101818221Y45359299D01*
X101668701Y45209779D01*
X101668692Y45209768D01*
X101547412Y45036562D01*
X101458045Y44844913D01*
X101458043Y44844909D01*
X101426536Y44727320D01*
X101403314Y44640655D01*
X101384884Y44430000D01*
X79597830Y44430000D01*
X79684860Y44563209D01*
X79775296Y44769384D01*
X79830564Y44987632D01*
X79849156Y45212000D01*
X79830564Y45436368D01*
X79796735Y45569957D01*
X79775297Y45654613D01*
X79775296Y45654614D01*
X79775296Y45654616D01*
X79746616Y45720000D01*
X96586496Y45720000D01*
X96606457Y45530073D01*
X96614553Y45505157D01*
X96665473Y45348444D01*
X96665476Y45348439D01*
X96760958Y45183059D01*
X96760965Y45183049D01*
X96888744Y45041136D01*
X96888747Y45041134D01*
X97043248Y44928882D01*
X97217712Y44851206D01*
X97404513Y44811500D01*
X97595487Y44811500D01*
X97782288Y44851206D01*
X97956752Y44928882D01*
X98111253Y45041134D01*
X98239040Y45183056D01*
X98334527Y45348444D01*
X98393542Y45530072D01*
X98413504Y45720000D01*
X98393542Y45909928D01*
X98334527Y46091556D01*
X98239040Y46256944D01*
X98239038Y46256946D01*
X98239034Y46256952D01*
X98111255Y46398865D01*
X97956752Y46511118D01*
X97782288Y46588794D01*
X97595487Y46628500D01*
X97404513Y46628500D01*
X97217711Y46588794D01*
X97043247Y46511118D01*
X96888744Y46398865D01*
X96760965Y46256952D01*
X96760958Y46256942D01*
X96665476Y46091562D01*
X96665473Y46091555D01*
X96606457Y45909928D01*
X96586496Y45720000D01*
X79746616Y45720000D01*
X79684860Y45860791D01*
X79667598Y45887212D01*
X79561724Y46049266D01*
X79561720Y46049271D01*
X79409237Y46214909D01*
X79327382Y46278619D01*
X79231576Y46353189D01*
X79033574Y46460342D01*
X79033572Y46460343D01*
X79033571Y46460344D01*
X78820639Y46533443D01*
X78820630Y46533445D01*
X78776476Y46540813D01*
X78598569Y46570500D01*
X78373431Y46570500D01*
X78225211Y46545767D01*
X78151369Y46533445D01*
X78151360Y46533443D01*
X77938428Y46460344D01*
X77938426Y46460342D01*
X77759365Y46363439D01*
X77740426Y46353190D01*
X77740424Y46353189D01*
X77562762Y46214909D01*
X77410279Y46049271D01*
X77321483Y45913357D01*
X77267479Y45867269D01*
X77197131Y45857694D01*
X77132774Y45887671D01*
X77110517Y45913357D01*
X77021720Y46049271D01*
X76869237Y46214909D01*
X76787382Y46278619D01*
X76691576Y46353189D01*
X76493574Y46460342D01*
X76493572Y46460343D01*
X76493571Y46460344D01*
X76280639Y46533443D01*
X76280630Y46533445D01*
X76236476Y46540813D01*
X76058569Y46570500D01*
X75833431Y46570500D01*
X75685211Y46545767D01*
X75611369Y46533445D01*
X75611360Y46533443D01*
X75398428Y46460344D01*
X75398426Y46460342D01*
X75219365Y46363439D01*
X75200426Y46353190D01*
X75200424Y46353189D01*
X75022762Y46214909D01*
X74870279Y46049271D01*
X74781483Y45913357D01*
X74727479Y45867269D01*
X74657131Y45857694D01*
X74592774Y45887671D01*
X74570517Y45913357D01*
X74481720Y46049271D01*
X74329237Y46214909D01*
X74247382Y46278619D01*
X74151576Y46353189D01*
X73953574Y46460342D01*
X73953572Y46460343D01*
X73953571Y46460344D01*
X73740639Y46533443D01*
X73740630Y46533445D01*
X73696476Y46540813D01*
X73518569Y46570500D01*
X73293431Y46570500D01*
X73145211Y46545767D01*
X73071369Y46533445D01*
X73071360Y46533443D01*
X72858428Y46460344D01*
X72858426Y46460342D01*
X72679365Y46363439D01*
X72660426Y46353190D01*
X72660424Y46353189D01*
X72482762Y46214909D01*
X72330279Y46049271D01*
X72241183Y45912898D01*
X72187179Y45866810D01*
X72116831Y45857235D01*
X72052474Y45887212D01*
X72030218Y45912898D01*
X71989076Y45975868D01*
X71350360Y45337152D01*
X71325493Y45421844D01*
X71247761Y45542798D01*
X71139100Y45636952D01*
X71008315Y45696680D01*
X70993587Y45698798D01*
X71631689Y46336900D01*
X71631688Y46336901D01*
X71611306Y46352765D01*
X71611299Y46352770D01*
X71413371Y46459882D01*
X71413369Y46459884D01*
X71200516Y46532956D01*
X71200509Y46532958D01*
X70978523Y46570000D01*
X70753477Y46570000D01*
X70531490Y46532958D01*
X70531483Y46532956D01*
X70318630Y46459884D01*
X70318628Y46459882D01*
X70120700Y46352770D01*
X70100310Y46336901D01*
X70100310Y46336899D01*
X70738411Y45698798D01*
X70723685Y45696680D01*
X70592900Y45636952D01*
X70484239Y45542798D01*
X70406507Y45421844D01*
X70381638Y45337151D01*
X69742921Y45975868D01*
X69667580Y45860549D01*
X69577179Y45654457D01*
X69577176Y45654450D01*
X69521932Y45436293D01*
X69503346Y45212000D01*
X28336509Y45212000D01*
X28137742Y45505159D01*
X27905484Y45778595D01*
X27878299Y45804346D01*
X27645037Y46025305D01*
X27645022Y46025318D01*
X27359418Y46242428D01*
X27359412Y46242432D01*
X27335296Y46256942D01*
X27052005Y46427393D01*
X26726401Y46578033D01*
X26386417Y46692587D01*
X26338915Y46703044D01*
X26036054Y46769709D01*
X26036030Y46769713D01*
X25679389Y46808500D01*
X25679382Y46808500D01*
X25320618Y46808500D01*
X25320610Y46808500D01*
X24963969Y46769713D01*
X24963945Y46769709D01*
X24613587Y46692588D01*
X24613573Y46692584D01*
X24273601Y46578034D01*
X24273599Y46578033D01*
X24018224Y46459884D01*
X23947989Y46427390D01*
X23640587Y46242432D01*
X23640581Y46242428D01*
X23354977Y46025318D01*
X23354962Y46025305D01*
X23094516Y45778596D01*
X22862256Y45505157D01*
X22660924Y45208215D01*
X22660922Y45208211D01*
X22492876Y44891241D01*
X22492872Y44891232D01*
X22360084Y44557960D01*
X22264103Y44212270D01*
X22206064Y43858238D01*
X22186641Y43500004D01*
X22186641Y43499997D01*
X7813359Y43499997D01*
X7813359Y43500000D01*
X7813321Y43500693D01*
X7805214Y43650224D01*
X7793936Y43858237D01*
X7736417Y44209092D01*
X7735896Y44212270D01*
X7690789Y44374730D01*
X7639915Y44557961D01*
X7507123Y44891243D01*
X7339075Y45208215D01*
X7137742Y45505159D01*
X6905484Y45778595D01*
X6878299Y45804346D01*
X6645037Y46025305D01*
X6645022Y46025318D01*
X6359418Y46242428D01*
X6359412Y46242432D01*
X6335296Y46256942D01*
X6052005Y46427393D01*
X5726401Y46578033D01*
X5386417Y46692587D01*
X5338915Y46703044D01*
X5036054Y46769709D01*
X5036030Y46769713D01*
X4679389Y46808500D01*
X4679382Y46808500D01*
X4320618Y46808500D01*
X4320610Y46808500D01*
X3963969Y46769713D01*
X3963945Y46769709D01*
X3613587Y46692588D01*
X3613573Y46692584D01*
X3273601Y46578034D01*
X3273599Y46578033D01*
X3018224Y46459884D01*
X2947989Y46427390D01*
X2640587Y46242432D01*
X2640581Y46242428D01*
X2354977Y46025318D01*
X2354962Y46025305D01*
X2094516Y45778596D01*
X1862256Y45505157D01*
X1660924Y45208215D01*
X1660922Y45208211D01*
X1492876Y44891241D01*
X1492872Y44891232D01*
X1360084Y44557960D01*
X1264103Y44212270D01*
X1206064Y43858238D01*
X1186641Y43500004D01*
X1186641Y43499997D01*
X500Y43499997D01*
X500Y48447603D01*
X20502Y48515724D01*
X37405Y48536698D01*
X963302Y49462595D01*
X1025614Y49496621D01*
X1052397Y49499500D01*
X7474842Y49499500D01*
X7474985Y49499472D01*
X7474986Y49499476D01*
X7499997Y49499461D01*
X7500000Y49499459D01*
X7500383Y49499617D01*
X7500500Y49499901D01*
X7500541Y49500000D01*
X7500540Y49500002D01*
X7500541Y49500002D01*
X7500584Y49524500D01*
X7500500Y49524928D01*
X7500500Y53373500D01*
X7520502Y53441621D01*
X7574158Y53488114D01*
X7626500Y53499500D01*
X22373500Y53499500D01*
X22441621Y53479498D01*
G37*
%TD.AperFunction*%
%TD*%
%TA.AperFunction,Conductor*%
%TO.N,VCC*%
G36*
X63440952Y31729349D02*
G01*
X63488032Y31676208D01*
X63500000Y31622609D01*
X63500000Y-17146571D01*
X63479998Y-17214692D01*
X63426342Y-17261185D01*
X63374573Y-17272570D01*
X7746573Y-17525424D01*
X7678362Y-17505731D01*
X7631625Y-17452288D01*
X7620000Y-17399425D01*
X7620000Y-11527815D01*
X8752000Y-11527815D01*
X8767234Y-11706809D01*
X8767236Y-11706822D01*
X8827625Y-11938750D01*
X8926351Y-12157155D01*
X8926352Y-12157157D01*
X9060564Y-12355730D01*
X9060565Y-12355731D01*
X9226409Y-12528770D01*
X9226408Y-12528770D01*
X9419105Y-12671287D01*
X9633123Y-12779193D01*
X9633129Y-12779195D01*
X9862290Y-12849374D01*
X9906000Y-12854971D01*
X9906000Y-12012224D01*
X10003369Y-12052556D01*
X10160000Y-12073177D01*
X10316631Y-12052556D01*
X10414000Y-12012224D01*
X10414000Y-12853586D01*
X10573789Y-12819149D01*
X10796177Y-12729785D01*
X11000274Y-12604117D01*
X11180186Y-12445776D01*
X11330758Y-12259295D01*
X11447649Y-12050052D01*
X11527493Y-11824075D01*
X11527493Y-11824074D01*
X11568000Y-11587834D01*
X11568000Y-11527827D01*
X13451500Y-11527827D01*
X13466741Y-11706898D01*
X13466742Y-11706904D01*
X13527153Y-11938917D01*
X13527155Y-11938923D01*
X13527156Y-11938924D01*
X13625914Y-12157402D01*
X13760175Y-12356047D01*
X13760177Y-12356049D01*
X13760180Y-12356053D01*
X13926072Y-12529141D01*
X13926075Y-12529144D01*
X14118843Y-12671715D01*
X14332933Y-12779657D01*
X14562185Y-12849864D01*
X14800005Y-12880318D01*
X15039551Y-12870143D01*
X15273932Y-12819630D01*
X15496404Y-12730233D01*
X15700569Y-12604524D01*
X15880551Y-12446119D01*
X16031175Y-12259576D01*
X16148105Y-12050260D01*
X16227980Y-11824194D01*
X16268500Y-11587881D01*
X16268500Y-9808173D01*
X16253259Y-9629102D01*
X16235838Y-9562199D01*
X16192846Y-9397082D01*
X16192844Y-9397079D01*
X16192844Y-9397076D01*
X16094086Y-9178598D01*
X15959825Y-8979953D01*
X15959821Y-8979949D01*
X15959819Y-8979946D01*
X15793927Y-8806858D01*
X15793926Y-8806857D01*
X15793925Y-8806856D01*
X15601157Y-8664285D01*
X15601156Y-8664284D01*
X15601154Y-8664283D01*
X15485980Y-8606214D01*
X15387067Y-8556343D01*
X15387060Y-8556340D01*
X15387056Y-8556339D01*
X15157815Y-8486136D01*
X14919995Y-8455682D01*
X14919991Y-8455682D01*
X14919983Y-8455681D01*
X14680448Y-8465856D01*
X14446065Y-8516370D01*
X14223594Y-8605768D01*
X14019425Y-8731480D01*
X14019423Y-8731482D01*
X13839453Y-8889876D01*
X13839445Y-8889885D01*
X13688827Y-9076419D01*
X13688823Y-9076426D01*
X13571895Y-9285738D01*
X13571895Y-9285739D01*
X13492021Y-9511800D01*
X13492020Y-9511806D01*
X13457802Y-9711369D01*
X13451500Y-9748121D01*
X13451500Y-11527827D01*
X11568000Y-11527827D01*
X11568000Y-10922000D01*
X10760000Y-10922000D01*
X10760000Y-10414000D01*
X11568000Y-10414000D01*
X11568000Y-9808185D01*
X11552765Y-9629190D01*
X11552763Y-9629177D01*
X11492374Y-9397249D01*
X11393648Y-9178844D01*
X11393647Y-9178842D01*
X11259435Y-8980269D01*
X11259434Y-8980268D01*
X11093590Y-8807229D01*
X11093591Y-8807229D01*
X10900894Y-8664712D01*
X10686876Y-8556806D01*
X10686873Y-8556805D01*
X10457709Y-8486625D01*
X10414000Y-8481026D01*
X10414000Y-9323775D01*
X10316631Y-9283444D01*
X10160000Y-9262823D01*
X10003369Y-9283444D01*
X9906000Y-9323775D01*
X9906000Y-8482412D01*
X9746210Y-8516850D01*
X9523822Y-8606214D01*
X9319725Y-8731882D01*
X9139813Y-8890223D01*
X8989241Y-9076704D01*
X8872350Y-9285947D01*
X8792506Y-9511924D01*
X8792506Y-9511925D01*
X8752000Y-9748165D01*
X8752000Y-10414000D01*
X9560000Y-10414000D01*
X9560000Y-10922000D01*
X8752000Y-10922000D01*
X8752000Y-11527815D01*
X7620000Y-11527815D01*
X7620000Y-5968000D01*
X7640002Y-5899879D01*
X7693658Y-5853386D01*
X7746000Y-5842000D01*
X13970000Y-5842000D01*
X13970000Y-3957007D01*
X13990002Y-3888886D01*
X14043658Y-3842393D01*
X14113932Y-3832289D01*
X14140033Y-3838951D01*
X14280907Y-3891494D01*
X14341402Y-3897999D01*
X14341415Y-3898000D01*
X14986000Y-3898000D01*
X14986000Y-2973674D01*
X15097685Y-3024680D01*
X15204237Y-3040000D01*
X15275763Y-3040000D01*
X15382315Y-3024680D01*
X15494000Y-2973674D01*
X15494000Y-3898000D01*
X16138585Y-3898000D01*
X16138597Y-3897999D01*
X16199093Y-3891494D01*
X16335964Y-3840444D01*
X16335965Y-3840444D01*
X16452904Y-3752904D01*
X16540444Y-3635965D01*
X16540444Y-3635964D01*
X16591494Y-3499093D01*
X16597999Y-3438597D01*
X16598000Y-3438585D01*
X16598000Y-2794000D01*
X15671116Y-2794000D01*
X15699493Y-2749844D01*
X15740000Y-2611889D01*
X15740000Y-2468111D01*
X15699493Y-2330156D01*
X15671116Y-2286000D01*
X16598000Y-2286000D01*
X16598000Y-1641414D01*
X16597999Y-1641402D01*
X16591494Y-1580906D01*
X16540444Y-1444035D01*
X16540444Y-1444034D01*
X16452904Y-1327095D01*
X16335965Y-1239555D01*
X16199093Y-1188505D01*
X16138597Y-1182000D01*
X15494000Y-1182000D01*
X15494000Y-2106325D01*
X15382315Y-2055320D01*
X15275763Y-2040000D01*
X15204237Y-2040000D01*
X15097685Y-2055320D01*
X14986000Y-2106325D01*
X14986000Y-1182000D01*
X14341402Y-1182000D01*
X14280905Y-1188505D01*
X14140032Y-1241048D01*
X14069216Y-1246112D01*
X14006904Y-1212087D01*
X13972879Y-1149775D01*
X13970000Y-1122992D01*
X13970000Y3662993D01*
X13990002Y3731114D01*
X14043658Y3777607D01*
X14113932Y3787711D01*
X14140033Y3781049D01*
X14280907Y3728506D01*
X14341402Y3722001D01*
X14341415Y3722000D01*
X14986000Y3722000D01*
X14986000Y4646326D01*
X15097685Y4595320D01*
X15204237Y4580000D01*
X15275763Y4580000D01*
X15382315Y4595320D01*
X15494000Y4646326D01*
X15494000Y3722000D01*
X16138585Y3722000D01*
X16138597Y3722001D01*
X16199093Y3728506D01*
X16335964Y3779556D01*
X16335965Y3779556D01*
X16452904Y3867096D01*
X16540444Y3984035D01*
X16540444Y3984036D01*
X16591494Y4120907D01*
X16597999Y4181403D01*
X16598000Y4181415D01*
X16598000Y4826000D01*
X15671116Y4826000D01*
X15699493Y4870156D01*
X15740000Y5008111D01*
X15740000Y5151889D01*
X15699493Y5289844D01*
X15671116Y5334000D01*
X16598000Y5334000D01*
X16598000Y5970000D01*
X16618002Y6038121D01*
X16671658Y6084614D01*
X16724000Y6096000D01*
X18670000Y6096000D01*
X18738121Y6075998D01*
X18784614Y6022342D01*
X18796000Y5970000D01*
X18796000Y5080000D01*
X20134896Y5080000D01*
X20203017Y5059998D01*
X20249510Y5006342D01*
X20259614Y4936068D01*
X20230120Y4871488D01*
X20212287Y4854568D01*
X20158762Y4812909D01*
X20006279Y4647271D01*
X20006275Y4647266D01*
X19883141Y4458794D01*
X19792703Y4252614D01*
X19792702Y4252613D01*
X19737437Y4034376D01*
X19737436Y4034370D01*
X19737436Y4034368D01*
X19718844Y3810000D01*
X19726177Y3721500D01*
X19737437Y3585625D01*
X19792702Y3367388D01*
X19792703Y3367387D01*
X19883141Y3161207D01*
X20006275Y2972735D01*
X20006279Y2972730D01*
X20158762Y2807092D01*
X20213331Y2764619D01*
X20336424Y2668811D01*
X20369680Y2650814D01*
X20420071Y2600800D01*
X20435423Y2531484D01*
X20410862Y2464871D01*
X20369680Y2429187D01*
X20336426Y2411190D01*
X20336424Y2411189D01*
X20158762Y2272909D01*
X20006279Y2107271D01*
X20006275Y2107266D01*
X19883141Y1918794D01*
X19792703Y1712614D01*
X19792702Y1712613D01*
X19737437Y1494376D01*
X19718844Y1270000D01*
X19737437Y1045625D01*
X19792702Y827388D01*
X19792703Y827387D01*
X19883141Y621207D01*
X20006275Y432735D01*
X20006279Y432730D01*
X20158762Y267092D01*
X20213331Y224619D01*
X20336424Y128811D01*
X20369680Y110814D01*
X20420071Y60800D01*
X20435423Y-8516D01*
X20410862Y-75129D01*
X20369680Y-110813D01*
X20336426Y-128810D01*
X20336424Y-128811D01*
X20158762Y-267091D01*
X20006279Y-432729D01*
X20006275Y-432734D01*
X19883141Y-621206D01*
X19792703Y-827386D01*
X19792702Y-827387D01*
X19737437Y-1045624D01*
X19737436Y-1045630D01*
X19737436Y-1045632D01*
X19718844Y-1270000D01*
X19733265Y-1444035D01*
X19737437Y-1494375D01*
X19792702Y-1712612D01*
X19792703Y-1712613D01*
X19883141Y-1918793D01*
X20006275Y-2107265D01*
X20006279Y-2107270D01*
X20158762Y-2272908D01*
X20175583Y-2286000D01*
X20336424Y-2411189D01*
X20369680Y-2429186D01*
X20420071Y-2479200D01*
X20435423Y-2548516D01*
X20410862Y-2615129D01*
X20369680Y-2650813D01*
X20336426Y-2668810D01*
X20336424Y-2668811D01*
X20158762Y-2807091D01*
X20006279Y-2972729D01*
X20006275Y-2972734D01*
X19883141Y-3161206D01*
X19792703Y-3367386D01*
X19792702Y-3367387D01*
X19737437Y-3585624D01*
X19737436Y-3585630D01*
X19737436Y-3585632D01*
X19718844Y-3810000D01*
X19726177Y-3898500D01*
X19737437Y-4034375D01*
X19792702Y-4252612D01*
X19792703Y-4252613D01*
X19883141Y-4458793D01*
X20006275Y-4647265D01*
X20006279Y-4647270D01*
X20158762Y-4812908D01*
X20213331Y-4855381D01*
X20336424Y-4951189D01*
X20370205Y-4969470D01*
X20420596Y-5019482D01*
X20435949Y-5088799D01*
X20411389Y-5155412D01*
X20370209Y-5191096D01*
X20336704Y-5209228D01*
X20336698Y-5209232D01*
X20159097Y-5347465D01*
X20006674Y-5513041D01*
X19883580Y-5701451D01*
X19793179Y-5907543D01*
X19793176Y-5907550D01*
X19745455Y-6095999D01*
X19745456Y-6096000D01*
X20650884Y-6096000D01*
X20622507Y-6140156D01*
X20582000Y-6278111D01*
X20582000Y-6421889D01*
X20622507Y-6559844D01*
X20650884Y-6604000D01*
X19745455Y-6604000D01*
X19793176Y-6792449D01*
X19793179Y-6792456D01*
X19883580Y-6998548D01*
X20006674Y-7186958D01*
X20159097Y-7352534D01*
X20336698Y-7490767D01*
X20336699Y-7490768D01*
X20534628Y-7597882D01*
X20534630Y-7597883D01*
X20747483Y-7670955D01*
X20747492Y-7670957D01*
X20828000Y-7684391D01*
X20828000Y-6783674D01*
X20939685Y-6834680D01*
X21046237Y-6850000D01*
X21117763Y-6850000D01*
X21224315Y-6834680D01*
X21336000Y-6783674D01*
X21336000Y-7684390D01*
X21416507Y-7670957D01*
X21416516Y-7670955D01*
X21629369Y-7597883D01*
X21629371Y-7597882D01*
X21827300Y-7490768D01*
X21827301Y-7490767D01*
X22004902Y-7352534D01*
X22157327Y-7186955D01*
X22246217Y-7050899D01*
X22300220Y-7004810D01*
X22370568Y-6995235D01*
X22434925Y-7025212D01*
X22457183Y-7050898D01*
X22546279Y-7187270D01*
X22698762Y-7352908D01*
X22753331Y-7395381D01*
X22876424Y-7491189D01*
X23074426Y-7598342D01*
X23074427Y-7598342D01*
X23074428Y-7598343D01*
X23186227Y-7636723D01*
X23287365Y-7671444D01*
X23509431Y-7708500D01*
X23509435Y-7708500D01*
X23734565Y-7708500D01*
X23734569Y-7708500D01*
X23956635Y-7671444D01*
X24169574Y-7598342D01*
X24367576Y-7491189D01*
X24545240Y-7352906D01*
X24697722Y-7187268D01*
X24697927Y-7186955D01*
X24786816Y-7050899D01*
X24820860Y-6998791D01*
X24911296Y-6792616D01*
X24966564Y-6574368D01*
X24985156Y-6350000D01*
X24966564Y-6125632D01*
X24911338Y-5907550D01*
X24911297Y-5907387D01*
X24911296Y-5907386D01*
X24911296Y-5907384D01*
X24820860Y-5701209D01*
X24786816Y-5649100D01*
X24697724Y-5512734D01*
X24697720Y-5512729D01*
X24581570Y-5386559D01*
X24545240Y-5347094D01*
X24545239Y-5347093D01*
X24545237Y-5347091D01*
X24463382Y-5283381D01*
X24367576Y-5208811D01*
X24334319Y-5190813D01*
X24283929Y-5140802D01*
X24268576Y-5071485D01*
X24293136Y-5004872D01*
X24334320Y-4969186D01*
X24367576Y-4951189D01*
X24545240Y-4812906D01*
X24697722Y-4647268D01*
X24820860Y-4458791D01*
X24911296Y-4252616D01*
X24966564Y-4034368D01*
X24985156Y-3810000D01*
X24966564Y-3585632D01*
X24911296Y-3367384D01*
X24820860Y-3161209D01*
X24814140Y-3150924D01*
X24697724Y-2972734D01*
X24697720Y-2972729D01*
X24545237Y-2807091D01*
X24463382Y-2743381D01*
X24367576Y-2668811D01*
X24334319Y-2650813D01*
X24283929Y-2600802D01*
X24268576Y-2531485D01*
X24293136Y-2464872D01*
X24334320Y-2429186D01*
X24367576Y-2411189D01*
X24545240Y-2272906D01*
X24697722Y-2107268D01*
X24820860Y-1918791D01*
X24911296Y-1712616D01*
X24966564Y-1494368D01*
X24985156Y-1270000D01*
X24966564Y-1045632D01*
X24911296Y-827384D01*
X24820860Y-621209D01*
X24814140Y-610924D01*
X24697724Y-432734D01*
X24697720Y-432729D01*
X24545237Y-267091D01*
X24463382Y-203381D01*
X24367576Y-128811D01*
X24334319Y-110813D01*
X24283929Y-60802D01*
X24268576Y8515D01*
X24293136Y75128D01*
X24334320Y110814D01*
X24367576Y128811D01*
X24545240Y267094D01*
X24697722Y432732D01*
X24820860Y621209D01*
X24911296Y827384D01*
X24966564Y1045632D01*
X24985156Y1270000D01*
X24966564Y1494368D01*
X24911296Y1712616D01*
X24820860Y1918791D01*
X24814140Y1929076D01*
X24697724Y2107266D01*
X24697720Y2107271D01*
X24545237Y2272909D01*
X24463382Y2336619D01*
X24367576Y2411189D01*
X24334319Y2429187D01*
X24283929Y2479198D01*
X24268576Y2548515D01*
X24293136Y2615128D01*
X24334320Y2650814D01*
X24367576Y2668811D01*
X24545240Y2807094D01*
X24697722Y2972732D01*
X24820860Y3161209D01*
X24911296Y3367384D01*
X24966564Y3585632D01*
X24985156Y3810000D01*
X24966564Y4034368D01*
X24911296Y4252616D01*
X24820860Y4458791D01*
X24814140Y4469076D01*
X24697724Y4647266D01*
X24697719Y4647271D01*
X24554524Y4802821D01*
X24523103Y4866486D01*
X24531090Y4937032D01*
X24575948Y4992061D01*
X24603183Y5006211D01*
X24718204Y5049111D01*
X24718271Y5049162D01*
X24725894Y5054867D01*
X24792414Y5079679D01*
X24801404Y5080000D01*
X40132000Y5080000D01*
X40384813Y31372577D01*
X40405469Y31440502D01*
X40459569Y31486477D01*
X40509418Y31497357D01*
X63372617Y31748601D01*
X63440952Y31729349D01*
G37*
%TD.AperFunction*%
%TD*%
%TA.AperFunction,Conductor*%
%TO.N,+6V*%
G36*
X97320352Y17759998D02*
G01*
X97326288Y17755939D01*
X97333248Y17750882D01*
X97507712Y17673206D01*
X97694513Y17633500D01*
X97885487Y17633500D01*
X98072288Y17673206D01*
X98246752Y17750882D01*
X98253708Y17755937D01*
X98320576Y17779795D01*
X98327769Y17780000D01*
X104648000Y17780000D01*
X108204000Y17780000D01*
X108204000Y12700000D01*
X104648000Y12588875D01*
X103090699Y12540211D01*
X103033516Y12551954D01*
X102994908Y12569957D01*
X102900113Y12595357D01*
X102790655Y12624686D01*
X102580000Y12643116D01*
X102369345Y12624686D01*
X102314616Y12610022D01*
X102165091Y12569957D01*
X102165086Y12569955D01*
X102053682Y12518006D01*
X102004368Y12506262D01*
X100075998Y12446000D01*
X84836006Y762006D01*
X84835991Y761993D01*
X81824905Y-2249095D01*
X81762593Y-2283121D01*
X81735810Y-2286000D01*
X76834000Y-2286000D01*
X76765879Y-2265998D01*
X76719386Y-2212342D01*
X76708000Y-2160000D01*
X76708000Y1652000D01*
X76728002Y1720121D01*
X76781658Y1766614D01*
X76834000Y1778000D01*
X78485998Y1778000D01*
X78486000Y1778000D01*
X78773500Y2008000D01*
X80952871Y2008000D01*
X80972832Y1818073D01*
X80985853Y1778000D01*
X81031848Y1636444D01*
X81031851Y1636439D01*
X81127333Y1471059D01*
X81127340Y1471049D01*
X81255119Y1329136D01*
X81255122Y1329134D01*
X81409623Y1216882D01*
X81584087Y1139206D01*
X81770888Y1099500D01*
X81961862Y1099500D01*
X82148663Y1139206D01*
X82323127Y1216882D01*
X82477628Y1329134D01*
X82605415Y1471056D01*
X82700902Y1636444D01*
X82759917Y1818072D01*
X82779879Y2008000D01*
X82759917Y2197928D01*
X82700902Y2379556D01*
X82605415Y2544944D01*
X82605413Y2544946D01*
X82605409Y2544952D01*
X82477630Y2686865D01*
X82323127Y2799118D01*
X82148663Y2876794D01*
X81961862Y2916500D01*
X81770888Y2916500D01*
X81584086Y2876794D01*
X81409622Y2799118D01*
X81255119Y2686865D01*
X81127340Y2544952D01*
X81127333Y2544942D01*
X81031851Y2379562D01*
X81031848Y2379555D01*
X80972832Y2197928D01*
X80952871Y2008000D01*
X78773500Y2008000D01*
X83566000Y5842000D01*
X83566000Y13006000D01*
X84583496Y13006000D01*
X84603457Y12816073D01*
X84633526Y12723530D01*
X84662473Y12634444D01*
X84662476Y12634439D01*
X84757958Y12469059D01*
X84757965Y12469049D01*
X84885744Y12327136D01*
X84885747Y12327134D01*
X85040248Y12214882D01*
X85214712Y12137206D01*
X85401513Y12097500D01*
X85592487Y12097500D01*
X85779288Y12137206D01*
X85953752Y12214882D01*
X86108253Y12327134D01*
X86137216Y12359301D01*
X86236034Y12469049D01*
X86236035Y12469051D01*
X86236040Y12469056D01*
X86331527Y12634444D01*
X86390542Y12816072D01*
X86410504Y13006000D01*
X86390542Y13195928D01*
X86331527Y13377556D01*
X86236040Y13542944D01*
X86236038Y13542946D01*
X86236034Y13542952D01*
X86108255Y13684865D01*
X85953752Y13797118D01*
X85779288Y13874794D01*
X85592487Y13914500D01*
X85401513Y13914500D01*
X85214711Y13874794D01*
X85040247Y13797118D01*
X84885744Y13684865D01*
X84757965Y13542952D01*
X84757958Y13542942D01*
X84662476Y13377562D01*
X84662473Y13377555D01*
X84603457Y13195928D01*
X84583496Y13006000D01*
X83566000Y13006000D01*
X83566000Y15546000D01*
X84583496Y15546000D01*
X84603457Y15356073D01*
X84633526Y15263530D01*
X84662473Y15174444D01*
X84662476Y15174439D01*
X84757958Y15009059D01*
X84757965Y15009049D01*
X84885744Y14867136D01*
X84885747Y14867134D01*
X85040248Y14754882D01*
X85214712Y14677206D01*
X85401513Y14637500D01*
X85592487Y14637500D01*
X85779288Y14677206D01*
X85953752Y14754882D01*
X86108253Y14867134D01*
X86236040Y15009056D01*
X86331527Y15174444D01*
X86390542Y15356072D01*
X86410504Y15546000D01*
X86390542Y15735928D01*
X86331527Y15917556D01*
X86236040Y16082944D01*
X86236038Y16082946D01*
X86236034Y16082952D01*
X86108255Y16224865D01*
X85953752Y16337118D01*
X85779288Y16414794D01*
X85592487Y16454500D01*
X85401513Y16454500D01*
X85214711Y16414794D01*
X85040247Y16337118D01*
X84885744Y16224865D01*
X84757965Y16082952D01*
X84757958Y16082942D01*
X84662476Y15917562D01*
X84662473Y15917555D01*
X84603457Y15735928D01*
X84583496Y15546000D01*
X83566000Y15546000D01*
X83566000Y17654000D01*
X83586002Y17722121D01*
X83639658Y17768614D01*
X83692000Y17780000D01*
X97252231Y17780000D01*
X97320352Y17759998D01*
G37*
%TD.AperFunction*%
%TD*%
%TA.AperFunction,Conductor*%
%TO.N,+6V*%
G36*
X113003703Y49479498D02*
G01*
X113037483Y49447610D01*
X116975401Y44032974D01*
X116999291Y43966118D01*
X116999500Y43958865D01*
X116999500Y-43958863D01*
X116979498Y-44026984D01*
X116975401Y-44032973D01*
X113037483Y-49447610D01*
X112981240Y-49490937D01*
X112935582Y-49499500D01*
X104774000Y-49499500D01*
X104705879Y-49479498D01*
X104659386Y-49425842D01*
X104648000Y-49373500D01*
X104648000Y-47010000D01*
X105484884Y-47010000D01*
X105503314Y-47220655D01*
X105532643Y-47330113D01*
X105558043Y-47424908D01*
X105558045Y-47424912D01*
X105647412Y-47616561D01*
X105768692Y-47789767D01*
X105768696Y-47789772D01*
X105768699Y-47789776D01*
X105918224Y-47939301D01*
X105918228Y-47939304D01*
X105918232Y-47939307D01*
X106091438Y-48060587D01*
X106091441Y-48060588D01*
X106091442Y-48060589D01*
X106283090Y-48149956D01*
X106487345Y-48204686D01*
X106698000Y-48223116D01*
X106908655Y-48204686D01*
X107112910Y-48149956D01*
X107304558Y-48060589D01*
X107477776Y-47939301D01*
X107627301Y-47789776D01*
X107748589Y-47616558D01*
X107837956Y-47424910D01*
X107892686Y-47220655D01*
X107911116Y-47010000D01*
X107892686Y-46799345D01*
X107837956Y-46595090D01*
X107748589Y-46403442D01*
X107748588Y-46403441D01*
X107748587Y-46403438D01*
X107627307Y-46230232D01*
X107627304Y-46230228D01*
X107627301Y-46230224D01*
X107477776Y-46080699D01*
X107477772Y-46080696D01*
X107477767Y-46080692D01*
X107304561Y-45959412D01*
X107112912Y-45870045D01*
X107112905Y-45870042D01*
X107090211Y-45863961D01*
X107081794Y-45861706D01*
X107021172Y-45824756D01*
X106990150Y-45760896D01*
X106998578Y-45690401D01*
X107043780Y-45635654D01*
X107081793Y-45618293D01*
X107112910Y-45609956D01*
X107304558Y-45520589D01*
X107477776Y-45399301D01*
X107627301Y-45249776D01*
X107748589Y-45076558D01*
X107837956Y-44884910D01*
X107892686Y-44680655D01*
X107911116Y-44470000D01*
X107892686Y-44259345D01*
X107837956Y-44055090D01*
X107748589Y-43863442D01*
X107748588Y-43863441D01*
X107748587Y-43863438D01*
X107627307Y-43690232D01*
X107627304Y-43690228D01*
X107627301Y-43690224D01*
X107477776Y-43540699D01*
X107477772Y-43540696D01*
X107477767Y-43540692D01*
X107304561Y-43419412D01*
X107112912Y-43330045D01*
X107112908Y-43330043D01*
X107018113Y-43304643D01*
X106908655Y-43275314D01*
X106698000Y-43256884D01*
X106487345Y-43275314D01*
X106432616Y-43289978D01*
X106283091Y-43330043D01*
X106283087Y-43330045D01*
X106091438Y-43419412D01*
X105918232Y-43540692D01*
X105918221Y-43540701D01*
X105768701Y-43690221D01*
X105768692Y-43690232D01*
X105647412Y-43863438D01*
X105558045Y-44055087D01*
X105558043Y-44055091D01*
X105517978Y-44204616D01*
X105503314Y-44259345D01*
X105484884Y-44470000D01*
X105503314Y-44680655D01*
X105532643Y-44790113D01*
X105558043Y-44884908D01*
X105558045Y-44884912D01*
X105647412Y-45076561D01*
X105768692Y-45249767D01*
X105768696Y-45249772D01*
X105768699Y-45249776D01*
X105918224Y-45399301D01*
X105918228Y-45399304D01*
X105918232Y-45399307D01*
X106091438Y-45520587D01*
X106091441Y-45520588D01*
X106091442Y-45520589D01*
X106283090Y-45609956D01*
X106314205Y-45618293D01*
X106374828Y-45655245D01*
X106405849Y-45719105D01*
X106397421Y-45789600D01*
X106352218Y-45844347D01*
X106314206Y-45861706D01*
X106306406Y-45863796D01*
X106283091Y-45870043D01*
X106283087Y-45870045D01*
X106091438Y-45959412D01*
X105918232Y-46080692D01*
X105918221Y-46080701D01*
X105768701Y-46230221D01*
X105768692Y-46230232D01*
X105647412Y-46403438D01*
X105558045Y-46595087D01*
X105558043Y-46595091D01*
X105517978Y-46744616D01*
X105503314Y-46799345D01*
X105484884Y-47010000D01*
X104648000Y-47010000D01*
X104648000Y-42711127D01*
X104668002Y-42643006D01*
X104721658Y-42596513D01*
X104791932Y-42586409D01*
X104814223Y-42591720D01*
X105113583Y-42692587D01*
X105463958Y-42769711D01*
X105820618Y-42808500D01*
X105820626Y-42808500D01*
X106179374Y-42808500D01*
X106179382Y-42808500D01*
X106536042Y-42769711D01*
X106886417Y-42692587D01*
X107226401Y-42578033D01*
X107552005Y-42427393D01*
X107859414Y-42242431D01*
X108145023Y-42025317D01*
X108405484Y-41778595D01*
X108637742Y-41505159D01*
X108839075Y-41208215D01*
X109007123Y-40891243D01*
X109139915Y-40557961D01*
X109235895Y-40212274D01*
X109293936Y-39858237D01*
X109313359Y-39500000D01*
X109293936Y-39141763D01*
X109235895Y-38787726D01*
X109139915Y-38442039D01*
X109007123Y-38108757D01*
X108839075Y-37791785D01*
X108637742Y-37494841D01*
X108405484Y-37221405D01*
X108405483Y-37221404D01*
X108145037Y-36974695D01*
X108145022Y-36974682D01*
X107954696Y-36830000D01*
X111158844Y-36830000D01*
X111177437Y-37054375D01*
X111232702Y-37272612D01*
X111232703Y-37272613D01*
X111323141Y-37478793D01*
X111446275Y-37667265D01*
X111446279Y-37667270D01*
X111598762Y-37832908D01*
X111653331Y-37875381D01*
X111776424Y-37971189D01*
X111810205Y-37989470D01*
X111860596Y-38039482D01*
X111875949Y-38108799D01*
X111851389Y-38175412D01*
X111810209Y-38211096D01*
X111776704Y-38229228D01*
X111776698Y-38229232D01*
X111599097Y-38367465D01*
X111446674Y-38533041D01*
X111323580Y-38721451D01*
X111233179Y-38927543D01*
X111233176Y-38927550D01*
X111185455Y-39115999D01*
X111185456Y-39116000D01*
X112090884Y-39116000D01*
X112062507Y-39160156D01*
X112022000Y-39298111D01*
X112022000Y-39441889D01*
X112062507Y-39579844D01*
X112090884Y-39624000D01*
X111185455Y-39624000D01*
X111233176Y-39812449D01*
X111233179Y-39812456D01*
X111323580Y-40018548D01*
X111446674Y-40206958D01*
X111589981Y-40362632D01*
X111621401Y-40426297D01*
X111613414Y-40496843D01*
X111568555Y-40551872D01*
X111541313Y-40566024D01*
X111425795Y-40609111D01*
X111425792Y-40609112D01*
X111308738Y-40696738D01*
X111221112Y-40813792D01*
X111221110Y-40813797D01*
X111170011Y-40950795D01*
X111170009Y-40950803D01*
X111163500Y-41011350D01*
X111163500Y-42808649D01*
X111170009Y-42869196D01*
X111170011Y-42869204D01*
X111221110Y-43006202D01*
X111221112Y-43006207D01*
X111308738Y-43123261D01*
X111425792Y-43210887D01*
X111425794Y-43210888D01*
X111425796Y-43210889D01*
X111484875Y-43232924D01*
X111562795Y-43261988D01*
X111562803Y-43261990D01*
X111623350Y-43268499D01*
X111623355Y-43268499D01*
X111623362Y-43268500D01*
X111623368Y-43268500D01*
X113420632Y-43268500D01*
X113420638Y-43268500D01*
X113420645Y-43268499D01*
X113420649Y-43268499D01*
X113481196Y-43261990D01*
X113481199Y-43261989D01*
X113481201Y-43261989D01*
X113618204Y-43210889D01*
X113735261Y-43123261D01*
X113822889Y-43006204D01*
X113873989Y-42869201D01*
X113880500Y-42808638D01*
X113880500Y-41011362D01*
X113880499Y-41011350D01*
X113873990Y-40950803D01*
X113873988Y-40950795D01*
X113822889Y-40813797D01*
X113822887Y-40813792D01*
X113735261Y-40696738D01*
X113618207Y-40609112D01*
X113618204Y-40609111D01*
X113502686Y-40566024D01*
X113445851Y-40523477D01*
X113421041Y-40456957D01*
X113436133Y-40387583D01*
X113454019Y-40362632D01*
X113597323Y-40206961D01*
X113720419Y-40018548D01*
X113810820Y-39812456D01*
X113810823Y-39812449D01*
X113858544Y-39624000D01*
X112953116Y-39624000D01*
X112981493Y-39579844D01*
X113022000Y-39441889D01*
X113022000Y-39298111D01*
X112981493Y-39160156D01*
X112953116Y-39116000D01*
X113858544Y-39116000D01*
X113858544Y-39115999D01*
X113810823Y-38927550D01*
X113810820Y-38927543D01*
X113720419Y-38721451D01*
X113597325Y-38533041D01*
X113444902Y-38367465D01*
X113267301Y-38229232D01*
X113267300Y-38229231D01*
X113233791Y-38211097D01*
X113183401Y-38161083D01*
X113168050Y-38091766D01*
X113192612Y-38025153D01*
X113233790Y-37989472D01*
X113267576Y-37971189D01*
X113445240Y-37832906D01*
X113597722Y-37667268D01*
X113720860Y-37478791D01*
X113811296Y-37272616D01*
X113866564Y-37054368D01*
X113885156Y-36830000D01*
X113866564Y-36605632D01*
X113820054Y-36421967D01*
X113811297Y-36387387D01*
X113811296Y-36387386D01*
X113811296Y-36387384D01*
X113720860Y-36181209D01*
X113714140Y-36170924D01*
X113597724Y-35992734D01*
X113597720Y-35992729D01*
X113445237Y-35827091D01*
X113363382Y-35763381D01*
X113267576Y-35688811D01*
X113069574Y-35581658D01*
X113069572Y-35581657D01*
X113069571Y-35581656D01*
X112856639Y-35508557D01*
X112856630Y-35508555D01*
X112812476Y-35501187D01*
X112634569Y-35471500D01*
X112409431Y-35471500D01*
X112261211Y-35496233D01*
X112187369Y-35508555D01*
X112187360Y-35508557D01*
X111974428Y-35581656D01*
X111974426Y-35581658D01*
X111776426Y-35688810D01*
X111776424Y-35688811D01*
X111598762Y-35827091D01*
X111446279Y-35992729D01*
X111446275Y-35992734D01*
X111323141Y-36181206D01*
X111232703Y-36387386D01*
X111232702Y-36387387D01*
X111177437Y-36605624D01*
X111158844Y-36830000D01*
X107954696Y-36830000D01*
X107859418Y-36757572D01*
X107859412Y-36757568D01*
X107552010Y-36572610D01*
X107552009Y-36572609D01*
X107552005Y-36572607D01*
X107226401Y-36421967D01*
X106886417Y-36307413D01*
X106802185Y-36288872D01*
X106536054Y-36230291D01*
X106536030Y-36230287D01*
X106179389Y-36191500D01*
X106179382Y-36191500D01*
X105820618Y-36191500D01*
X105820610Y-36191500D01*
X105463969Y-36230287D01*
X105463945Y-36230291D01*
X105113587Y-36307412D01*
X105113573Y-36307416D01*
X104814232Y-36408276D01*
X104743290Y-36411072D01*
X104682099Y-36375071D01*
X104650085Y-36311701D01*
X104648000Y-36288872D01*
X104648000Y-27000003D01*
X105686641Y-27000003D01*
X105706064Y-27358237D01*
X105764103Y-27712269D01*
X105860084Y-28057959D01*
X105860085Y-28057961D01*
X105992877Y-28391243D01*
X106160925Y-28708215D01*
X106362258Y-29005159D01*
X106594516Y-29278595D01*
X106854962Y-29525304D01*
X106854977Y-29525317D01*
X107140586Y-29742431D01*
X107447995Y-29927393D01*
X107773599Y-30078033D01*
X108113583Y-30192587D01*
X108463958Y-30269711D01*
X108820618Y-30308500D01*
X108820626Y-30308500D01*
X109179374Y-30308500D01*
X109179382Y-30308500D01*
X109536042Y-30269711D01*
X109886417Y-30192587D01*
X110226401Y-30078033D01*
X110552005Y-29927393D01*
X110859414Y-29742431D01*
X111145023Y-29525317D01*
X111405484Y-29278595D01*
X111637742Y-29005159D01*
X111839075Y-28708215D01*
X112007123Y-28391243D01*
X112139915Y-28057961D01*
X112235895Y-27712274D01*
X112293936Y-27358237D01*
X112313359Y-27000000D01*
X112293936Y-26641763D01*
X112235895Y-26287726D01*
X112139915Y-25942039D01*
X112007123Y-25608757D01*
X111839075Y-25291785D01*
X111637742Y-24994841D01*
X111405484Y-24721405D01*
X111405483Y-24721404D01*
X111145037Y-24474695D01*
X111145022Y-24474682D01*
X110859418Y-24257572D01*
X110859412Y-24257568D01*
X110552010Y-24072610D01*
X110552009Y-24072609D01*
X110552005Y-24072607D01*
X110226401Y-23921967D01*
X109886417Y-23807413D01*
X109838915Y-23796956D01*
X109536054Y-23730291D01*
X109536030Y-23730287D01*
X109179389Y-23691500D01*
X109179382Y-23691500D01*
X108820618Y-23691500D01*
X108820610Y-23691500D01*
X108463969Y-23730287D01*
X108463945Y-23730291D01*
X108113587Y-23807412D01*
X108113573Y-23807416D01*
X107773601Y-23921966D01*
X107447989Y-24072610D01*
X107140587Y-24257568D01*
X107140581Y-24257572D01*
X106854977Y-24474682D01*
X106854962Y-24474695D01*
X106594516Y-24721404D01*
X106362256Y-24994843D01*
X106160924Y-25291785D01*
X106160922Y-25291789D01*
X105992876Y-25608759D01*
X105992872Y-25608768D01*
X105860084Y-25942040D01*
X105764103Y-26287730D01*
X105706064Y-26641762D01*
X105686641Y-26999996D01*
X105686641Y-27000003D01*
X104648000Y-27000003D01*
X104648000Y-21610000D01*
X105484884Y-21610000D01*
X105503314Y-21820655D01*
X105532643Y-21930113D01*
X105558043Y-22024908D01*
X105558045Y-22024912D01*
X105647412Y-22216561D01*
X105768692Y-22389767D01*
X105768696Y-22389772D01*
X105768699Y-22389776D01*
X105918224Y-22539301D01*
X105918228Y-22539304D01*
X105918232Y-22539307D01*
X106091438Y-22660587D01*
X106091441Y-22660588D01*
X106091442Y-22660589D01*
X106283090Y-22749956D01*
X106487345Y-22804686D01*
X106698000Y-22823116D01*
X106908655Y-22804686D01*
X107112910Y-22749956D01*
X107304558Y-22660589D01*
X107477776Y-22539301D01*
X107627301Y-22389776D01*
X107748589Y-22216558D01*
X107837956Y-22024910D01*
X107892686Y-21820655D01*
X107911116Y-21610000D01*
X107892686Y-21399345D01*
X107837956Y-21195090D01*
X107748589Y-21003442D01*
X107748588Y-21003441D01*
X107748587Y-21003438D01*
X107627307Y-20830232D01*
X107627304Y-20830228D01*
X107627301Y-20830224D01*
X107477776Y-20680699D01*
X107477772Y-20680696D01*
X107477767Y-20680692D01*
X107304561Y-20559412D01*
X107112912Y-20470045D01*
X107112905Y-20470042D01*
X107090211Y-20463961D01*
X107081794Y-20461706D01*
X107021172Y-20424756D01*
X106990150Y-20360896D01*
X106998578Y-20290401D01*
X107043780Y-20235654D01*
X107081793Y-20218293D01*
X107112910Y-20209956D01*
X107304558Y-20120589D01*
X107477776Y-19999301D01*
X107627301Y-19849776D01*
X107748589Y-19676558D01*
X107837956Y-19484910D01*
X107892686Y-19280655D01*
X107911116Y-19070000D01*
X107892686Y-18859345D01*
X107837956Y-18655090D01*
X107748589Y-18463442D01*
X107748588Y-18463441D01*
X107748587Y-18463438D01*
X107627307Y-18290232D01*
X107627304Y-18290228D01*
X107627301Y-18290224D01*
X107477776Y-18140699D01*
X107477772Y-18140696D01*
X107477767Y-18140692D01*
X107304561Y-18019412D01*
X107112912Y-17930045D01*
X107112908Y-17930043D01*
X107018113Y-17904643D01*
X106908655Y-17875314D01*
X106698000Y-17856884D01*
X106487345Y-17875314D01*
X106432616Y-17889978D01*
X106283091Y-17930043D01*
X106283087Y-17930045D01*
X106091438Y-18019412D01*
X105918232Y-18140692D01*
X105918221Y-18140701D01*
X105768701Y-18290221D01*
X105768692Y-18290232D01*
X105647412Y-18463438D01*
X105558045Y-18655087D01*
X105558043Y-18655091D01*
X105517978Y-18804616D01*
X105503314Y-18859345D01*
X105484884Y-19070000D01*
X105503314Y-19280655D01*
X105532643Y-19390113D01*
X105558043Y-19484908D01*
X105558045Y-19484912D01*
X105647412Y-19676561D01*
X105768692Y-19849767D01*
X105768696Y-19849772D01*
X105768699Y-19849776D01*
X105918224Y-19999301D01*
X105918228Y-19999304D01*
X105918232Y-19999307D01*
X106091438Y-20120587D01*
X106091441Y-20120588D01*
X106091442Y-20120589D01*
X106283090Y-20209956D01*
X106314205Y-20218293D01*
X106374828Y-20255245D01*
X106405849Y-20319105D01*
X106397421Y-20389600D01*
X106352218Y-20444347D01*
X106314206Y-20461706D01*
X106306406Y-20463796D01*
X106283091Y-20470043D01*
X106283087Y-20470045D01*
X106091438Y-20559412D01*
X105918232Y-20680692D01*
X105918221Y-20680701D01*
X105768701Y-20830221D01*
X105768692Y-20830232D01*
X105647412Y-21003438D01*
X105558045Y-21195087D01*
X105558043Y-21195091D01*
X105517978Y-21344616D01*
X105503314Y-21399345D01*
X105484884Y-21610000D01*
X104648000Y-21610000D01*
X104648000Y-11430000D01*
X105466884Y-11430000D01*
X105485314Y-11640655D01*
X105514643Y-11750113D01*
X105540043Y-11844908D01*
X105540045Y-11844912D01*
X105629412Y-12036561D01*
X105750692Y-12209767D01*
X105750696Y-12209772D01*
X105750699Y-12209776D01*
X105900224Y-12359301D01*
X105900228Y-12359304D01*
X105900232Y-12359307D01*
X106073438Y-12480587D01*
X106073441Y-12480588D01*
X106073442Y-12480589D01*
X106265090Y-12569956D01*
X106469345Y-12624686D01*
X106680000Y-12643116D01*
X106890655Y-12624686D01*
X107094910Y-12569956D01*
X107286558Y-12480589D01*
X107459776Y-12359301D01*
X107609301Y-12209776D01*
X107730589Y-12036558D01*
X107819956Y-11844910D01*
X107874686Y-11640655D01*
X107893116Y-11430000D01*
X107874686Y-11219345D01*
X107819956Y-11015090D01*
X107730589Y-10823442D01*
X107730588Y-10823441D01*
X107730587Y-10823438D01*
X107609307Y-10650232D01*
X107609304Y-10650228D01*
X107609301Y-10650224D01*
X107459776Y-10500699D01*
X107459772Y-10500696D01*
X107459767Y-10500692D01*
X107286561Y-10379412D01*
X107094912Y-10290045D01*
X107094905Y-10290042D01*
X107072211Y-10283961D01*
X107063794Y-10281706D01*
X107003172Y-10244756D01*
X106972150Y-10180896D01*
X106980578Y-10110401D01*
X107025780Y-10055654D01*
X107063793Y-10038293D01*
X107094910Y-10029956D01*
X107286558Y-9940589D01*
X107459776Y-9819301D01*
X107609301Y-9669776D01*
X107730589Y-9496558D01*
X107819956Y-9304910D01*
X107874686Y-9100655D01*
X107893116Y-8890000D01*
X107874686Y-8679345D01*
X107819956Y-8475090D01*
X107730589Y-8283442D01*
X107730588Y-8283441D01*
X107730587Y-8283438D01*
X107609307Y-8110232D01*
X107609304Y-8110228D01*
X107609301Y-8110224D01*
X107459776Y-7960699D01*
X107459772Y-7960696D01*
X107459767Y-7960692D01*
X107286561Y-7839412D01*
X107094912Y-7750045D01*
X107094908Y-7750043D01*
X107000113Y-7724643D01*
X106890655Y-7695314D01*
X106680000Y-7676884D01*
X106469345Y-7695314D01*
X106414616Y-7709978D01*
X106265091Y-7750043D01*
X106265087Y-7750045D01*
X106073438Y-7839412D01*
X105900232Y-7960692D01*
X105900221Y-7960701D01*
X105750701Y-8110221D01*
X105750692Y-8110232D01*
X105629412Y-8283438D01*
X105540045Y-8475087D01*
X105540043Y-8475091D01*
X105499978Y-8624616D01*
X105485314Y-8679345D01*
X105466884Y-8890000D01*
X105485314Y-9100655D01*
X105514643Y-9210113D01*
X105540043Y-9304908D01*
X105540045Y-9304912D01*
X105629412Y-9496561D01*
X105750692Y-9669767D01*
X105750696Y-9669772D01*
X105750699Y-9669776D01*
X105900224Y-9819301D01*
X105900228Y-9819304D01*
X105900232Y-9819307D01*
X106073438Y-9940587D01*
X106073441Y-9940588D01*
X106073442Y-9940589D01*
X106265090Y-10029956D01*
X106296205Y-10038293D01*
X106356828Y-10075245D01*
X106387849Y-10139105D01*
X106379421Y-10209600D01*
X106334218Y-10264347D01*
X106296206Y-10281706D01*
X106288406Y-10283796D01*
X106265091Y-10290043D01*
X106265087Y-10290045D01*
X106073438Y-10379412D01*
X105900232Y-10500692D01*
X105900221Y-10500701D01*
X105750701Y-10650221D01*
X105750692Y-10650232D01*
X105629412Y-10823438D01*
X105540045Y-11015087D01*
X105540043Y-11015091D01*
X105499978Y-11164616D01*
X105485314Y-11219345D01*
X105466884Y-11430000D01*
X104648000Y-11430000D01*
X104648000Y-1290000D01*
X105484884Y-1290000D01*
X105503314Y-1500655D01*
X105532643Y-1610113D01*
X105558043Y-1704908D01*
X105558045Y-1704912D01*
X105647412Y-1896561D01*
X105768692Y-2069767D01*
X105768696Y-2069772D01*
X105768699Y-2069776D01*
X105918224Y-2219301D01*
X105918228Y-2219304D01*
X105918232Y-2219307D01*
X106091438Y-2340587D01*
X106091441Y-2340588D01*
X106091442Y-2340589D01*
X106283090Y-2429956D01*
X106487345Y-2484686D01*
X106698000Y-2503116D01*
X106908655Y-2484686D01*
X107112910Y-2429956D01*
X107304558Y-2340589D01*
X107477776Y-2219301D01*
X107627301Y-2069776D01*
X107748589Y-1896558D01*
X107837956Y-1704910D01*
X107892686Y-1500655D01*
X107911116Y-1290000D01*
X107892686Y-1079345D01*
X107837956Y-875090D01*
X107748589Y-683442D01*
X107748588Y-683441D01*
X107748587Y-683438D01*
X107627307Y-510232D01*
X107627304Y-510228D01*
X107627301Y-510224D01*
X107477776Y-360699D01*
X107477772Y-360696D01*
X107477767Y-360692D01*
X107304561Y-239412D01*
X107112912Y-150045D01*
X107112905Y-150042D01*
X107090211Y-143961D01*
X107081794Y-141706D01*
X107021172Y-104756D01*
X106990150Y-40896D01*
X106998578Y29599D01*
X107043780Y84346D01*
X107081793Y101707D01*
X107112910Y110044D01*
X107304558Y199411D01*
X107477776Y320699D01*
X107627301Y470224D01*
X107748589Y643442D01*
X107837956Y835090D01*
X107892686Y1039345D01*
X107911116Y1250000D01*
X107892686Y1460655D01*
X107837956Y1664910D01*
X107748589Y1856558D01*
X107748588Y1856559D01*
X107748587Y1856562D01*
X107627307Y2029768D01*
X107627304Y2029772D01*
X107627301Y2029776D01*
X107477776Y2179301D01*
X107477772Y2179304D01*
X107477767Y2179308D01*
X107304561Y2300588D01*
X107112912Y2389955D01*
X107112908Y2389957D01*
X107018113Y2415357D01*
X106908655Y2444686D01*
X106698000Y2463116D01*
X106487345Y2444686D01*
X106432616Y2430022D01*
X106283091Y2389957D01*
X106283087Y2389955D01*
X106091438Y2300588D01*
X105918232Y2179308D01*
X105918221Y2179299D01*
X105768701Y2029779D01*
X105768692Y2029768D01*
X105647412Y1856562D01*
X105558045Y1664913D01*
X105558043Y1664909D01*
X105517978Y1515384D01*
X105503314Y1460655D01*
X105484884Y1250000D01*
X105503314Y1039345D01*
X105532643Y929887D01*
X105558043Y835092D01*
X105558045Y835088D01*
X105647412Y643439D01*
X105768692Y470233D01*
X105768696Y470228D01*
X105768699Y470224D01*
X105918224Y320699D01*
X105918228Y320696D01*
X105918232Y320693D01*
X106091438Y199413D01*
X106091441Y199412D01*
X106091442Y199411D01*
X106283090Y110044D01*
X106314205Y101707D01*
X106374828Y64755D01*
X106405849Y895D01*
X106397421Y-69600D01*
X106352218Y-124347D01*
X106314206Y-141706D01*
X106306406Y-143796D01*
X106283091Y-150043D01*
X106283087Y-150045D01*
X106091438Y-239412D01*
X105918232Y-360692D01*
X105918221Y-360701D01*
X105768701Y-510221D01*
X105768692Y-510232D01*
X105647412Y-683438D01*
X105558045Y-875087D01*
X105558043Y-875091D01*
X105517978Y-1024616D01*
X105503314Y-1079345D01*
X105484884Y-1290000D01*
X104648000Y-1290000D01*
X104648000Y8890000D01*
X105466884Y8890000D01*
X105485314Y8679345D01*
X105514643Y8569887D01*
X105540043Y8475092D01*
X105540045Y8475088D01*
X105629412Y8283439D01*
X105750692Y8110233D01*
X105750696Y8110228D01*
X105750699Y8110224D01*
X105900224Y7960699D01*
X105900228Y7960696D01*
X105900232Y7960693D01*
X106073438Y7839413D01*
X106073441Y7839412D01*
X106073442Y7839411D01*
X106265090Y7750044D01*
X106469345Y7695314D01*
X106680000Y7676884D01*
X106890655Y7695314D01*
X107094910Y7750044D01*
X107286558Y7839411D01*
X107459776Y7960699D01*
X107609301Y8110224D01*
X107730589Y8283442D01*
X107819956Y8475090D01*
X107874686Y8679345D01*
X107893116Y8890000D01*
X107874686Y9100655D01*
X107819956Y9304910D01*
X107730589Y9496558D01*
X107730588Y9496559D01*
X107730587Y9496562D01*
X107609307Y9669768D01*
X107609304Y9669772D01*
X107609301Y9669776D01*
X107459776Y9819301D01*
X107459772Y9819304D01*
X107459767Y9819308D01*
X107286561Y9940588D01*
X107094912Y10029955D01*
X107094905Y10029958D01*
X107072211Y10036039D01*
X107063794Y10038294D01*
X107003172Y10075244D01*
X106972150Y10139104D01*
X106980578Y10209599D01*
X107025780Y10264346D01*
X107063793Y10281707D01*
X107094910Y10290044D01*
X107286558Y10379411D01*
X107459776Y10500699D01*
X107609301Y10650224D01*
X107730589Y10823442D01*
X107819956Y11015090D01*
X107874686Y11219345D01*
X107893116Y11430000D01*
X107874686Y11640655D01*
X107819956Y11844910D01*
X107730589Y12036558D01*
X107730588Y12036559D01*
X107730587Y12036562D01*
X107609307Y12209768D01*
X107609304Y12209772D01*
X107609301Y12209776D01*
X107459776Y12359301D01*
X107459772Y12359304D01*
X107459767Y12359308D01*
X107286561Y12480588D01*
X107094912Y12569955D01*
X107094908Y12569957D01*
X107000113Y12595357D01*
X106890655Y12624686D01*
X106680000Y12643116D01*
X106469345Y12624686D01*
X106414616Y12610022D01*
X106265091Y12569957D01*
X106265087Y12569955D01*
X106073438Y12480588D01*
X105900232Y12359308D01*
X105900221Y12359299D01*
X105750701Y12209779D01*
X105750692Y12209768D01*
X105629412Y12036562D01*
X105540045Y11844913D01*
X105540043Y11844909D01*
X105499978Y11695384D01*
X105485314Y11640655D01*
X105466884Y11430000D01*
X105485314Y11219345D01*
X105514643Y11109887D01*
X105540043Y11015092D01*
X105540045Y11015088D01*
X105629412Y10823439D01*
X105750692Y10650233D01*
X105750696Y10650228D01*
X105750699Y10650224D01*
X105900224Y10500699D01*
X105900228Y10500696D01*
X105900232Y10500693D01*
X106073438Y10379413D01*
X106073441Y10379412D01*
X106073442Y10379411D01*
X106265090Y10290044D01*
X106296205Y10281707D01*
X106356828Y10244755D01*
X106387849Y10180895D01*
X106379421Y10110400D01*
X106334218Y10055653D01*
X106296206Y10038294D01*
X106288406Y10036204D01*
X106265091Y10029957D01*
X106265087Y10029955D01*
X106073438Y9940588D01*
X105900232Y9819308D01*
X105900221Y9819299D01*
X105750701Y9669779D01*
X105750692Y9669768D01*
X105629412Y9496562D01*
X105540045Y9304913D01*
X105540043Y9304909D01*
X105499978Y9155384D01*
X105485314Y9100655D01*
X105466884Y8890000D01*
X104648000Y8890000D01*
X104648000Y12588875D01*
X108204000Y12700000D01*
X108204000Y17780000D01*
X104648000Y17780000D01*
X104648000Y19050000D01*
X105466884Y19050000D01*
X105485314Y18839345D01*
X105514643Y18729887D01*
X105540043Y18635092D01*
X105540045Y18635088D01*
X105629412Y18443439D01*
X105750692Y18270233D01*
X105750696Y18270228D01*
X105750699Y18270224D01*
X105900224Y18120699D01*
X105900228Y18120696D01*
X105900232Y18120693D01*
X106073438Y17999413D01*
X106073441Y17999412D01*
X106073442Y17999411D01*
X106265090Y17910044D01*
X106469345Y17855314D01*
X106680000Y17836884D01*
X106890655Y17855314D01*
X107094910Y17910044D01*
X107286558Y17999411D01*
X107459776Y18120699D01*
X107609301Y18270224D01*
X107730589Y18443442D01*
X107819956Y18635090D01*
X107874686Y18839345D01*
X107893116Y19050000D01*
X107874686Y19260655D01*
X107819956Y19464910D01*
X107730589Y19656558D01*
X107730588Y19656559D01*
X107730587Y19656562D01*
X107609307Y19829768D01*
X107609304Y19829772D01*
X107609301Y19829776D01*
X107459776Y19979301D01*
X107459772Y19979304D01*
X107459767Y19979308D01*
X107286561Y20100588D01*
X107094912Y20189955D01*
X107094905Y20189958D01*
X107072211Y20196039D01*
X107063794Y20198294D01*
X107003172Y20235244D01*
X106972150Y20299104D01*
X106980578Y20369599D01*
X107025780Y20424346D01*
X107063793Y20441707D01*
X107094910Y20450044D01*
X107286558Y20539411D01*
X107459776Y20660699D01*
X107609301Y20810224D01*
X107730589Y20983442D01*
X107819956Y21175090D01*
X107874686Y21379345D01*
X107893116Y21590000D01*
X107874686Y21800655D01*
X107819956Y22004910D01*
X107730589Y22196558D01*
X107730588Y22196559D01*
X107730587Y22196562D01*
X107609307Y22369768D01*
X107609304Y22369772D01*
X107609301Y22369776D01*
X107459776Y22519301D01*
X107459772Y22519304D01*
X107459767Y22519308D01*
X107286561Y22640588D01*
X107094912Y22729955D01*
X107094908Y22729957D01*
X107000113Y22755357D01*
X106890655Y22784686D01*
X106680000Y22803116D01*
X106469345Y22784686D01*
X106414616Y22770022D01*
X106265091Y22729957D01*
X106265087Y22729955D01*
X106073438Y22640588D01*
X105900232Y22519308D01*
X105900221Y22519299D01*
X105750701Y22369779D01*
X105750692Y22369768D01*
X105629412Y22196562D01*
X105540045Y22004913D01*
X105540043Y22004909D01*
X105499978Y21855384D01*
X105485314Y21800655D01*
X105466884Y21590000D01*
X105485314Y21379345D01*
X105514643Y21269887D01*
X105540043Y21175092D01*
X105540045Y21175088D01*
X105629412Y20983439D01*
X105750692Y20810233D01*
X105750696Y20810228D01*
X105750699Y20810224D01*
X105900224Y20660699D01*
X105900228Y20660696D01*
X105900232Y20660693D01*
X106073438Y20539413D01*
X106073441Y20539412D01*
X106073442Y20539411D01*
X106265090Y20450044D01*
X106296205Y20441707D01*
X106356828Y20404755D01*
X106387849Y20340895D01*
X106379421Y20270400D01*
X106334218Y20215653D01*
X106296206Y20198294D01*
X106288406Y20196204D01*
X106265091Y20189957D01*
X106265087Y20189955D01*
X106073438Y20100588D01*
X105900232Y19979308D01*
X105900221Y19979299D01*
X105750701Y19829779D01*
X105750692Y19829768D01*
X105629412Y19656562D01*
X105540045Y19464913D01*
X105540043Y19464909D01*
X105499978Y19315384D01*
X105485314Y19260655D01*
X105466884Y19050000D01*
X104648000Y19050000D01*
X104648000Y26999997D01*
X105686641Y26999997D01*
X105706064Y26641763D01*
X105764103Y26287731D01*
X105860084Y25942041D01*
X105860085Y25942039D01*
X105992877Y25608757D01*
X106160925Y25291785D01*
X106362258Y24994841D01*
X106594516Y24721405D01*
X106854962Y24474696D01*
X106854977Y24474683D01*
X107140586Y24257569D01*
X107447995Y24072607D01*
X107773599Y23921967D01*
X108113583Y23807413D01*
X108463958Y23730289D01*
X108820618Y23691500D01*
X108820626Y23691500D01*
X109179374Y23691500D01*
X109179382Y23691500D01*
X109536042Y23730289D01*
X109886417Y23807413D01*
X110226401Y23921967D01*
X110552005Y24072607D01*
X110859414Y24257569D01*
X111145023Y24474683D01*
X111405484Y24721405D01*
X111637742Y24994841D01*
X111839075Y25291785D01*
X112007123Y25608757D01*
X112139915Y25942039D01*
X112235895Y26287726D01*
X112293936Y26641763D01*
X112313359Y27000000D01*
X112293936Y27358237D01*
X112235895Y27712274D01*
X112139915Y28057961D01*
X112007123Y28391243D01*
X111839075Y28708215D01*
X111637742Y29005159D01*
X111405484Y29278595D01*
X111405483Y29278596D01*
X111145037Y29525305D01*
X111145022Y29525318D01*
X110859418Y29742428D01*
X110859412Y29742432D01*
X110552010Y29927390D01*
X110552009Y29927391D01*
X110552005Y29927393D01*
X110226401Y30078033D01*
X109886417Y30192587D01*
X109838915Y30203044D01*
X109536054Y30269709D01*
X109536030Y30269713D01*
X109179389Y30308500D01*
X109179382Y30308500D01*
X108820618Y30308500D01*
X108820610Y30308500D01*
X108463969Y30269713D01*
X108463945Y30269709D01*
X108113587Y30192588D01*
X108113573Y30192584D01*
X107773601Y30078034D01*
X107447989Y29927390D01*
X107140587Y29742432D01*
X107140581Y29742428D01*
X106854977Y29525318D01*
X106854962Y29525305D01*
X106594516Y29278596D01*
X106362256Y29005157D01*
X106160924Y28708215D01*
X106160922Y28708211D01*
X105992876Y28391241D01*
X105992872Y28391232D01*
X105860084Y28057960D01*
X105764103Y27712270D01*
X105706064Y27358238D01*
X105686641Y27000004D01*
X105686641Y26999997D01*
X104648000Y26999997D01*
X104648000Y36288873D01*
X104668002Y36356994D01*
X104721658Y36403487D01*
X104791932Y36413591D01*
X104814223Y36408280D01*
X105113583Y36307413D01*
X105463958Y36230289D01*
X105820618Y36191500D01*
X105820626Y36191500D01*
X106179374Y36191500D01*
X106179382Y36191500D01*
X106536042Y36230289D01*
X106886417Y36307413D01*
X107226401Y36421967D01*
X107552005Y36572607D01*
X107859414Y36757569D01*
X107954695Y36830000D01*
X111158844Y36830000D01*
X111177437Y36605625D01*
X111232702Y36387388D01*
X111232703Y36387387D01*
X111232704Y36387384D01*
X111301612Y36230289D01*
X111323141Y36181207D01*
X111446275Y35992735D01*
X111446279Y35992730D01*
X111598762Y35827092D01*
X111653331Y35784619D01*
X111776424Y35688811D01*
X111974426Y35581658D01*
X111974427Y35581658D01*
X111974428Y35581657D01*
X112086227Y35543277D01*
X112187365Y35508556D01*
X112409431Y35471500D01*
X112409435Y35471500D01*
X112634565Y35471500D01*
X112634569Y35471500D01*
X112856635Y35508556D01*
X113069574Y35581658D01*
X113267576Y35688811D01*
X113445240Y35827094D01*
X113597722Y35992732D01*
X113720860Y36181209D01*
X113811296Y36387384D01*
X113866564Y36605632D01*
X113885156Y36830000D01*
X113866564Y37054368D01*
X113866562Y37054376D01*
X113811297Y37272613D01*
X113811296Y37272614D01*
X113811296Y37272616D01*
X113720860Y37478791D01*
X113710372Y37494844D01*
X113597724Y37667266D01*
X113597720Y37667271D01*
X113445237Y37832909D01*
X113363382Y37896619D01*
X113267576Y37971189D01*
X113233792Y37989472D01*
X113183402Y38039484D01*
X113168050Y38108801D01*
X113192610Y38175414D01*
X113233793Y38211099D01*
X113267300Y38229233D01*
X113267301Y38229233D01*
X113444902Y38367466D01*
X113597325Y38533042D01*
X113720419Y38721452D01*
X113810820Y38927544D01*
X113810823Y38927551D01*
X113858544Y39116000D01*
X112953116Y39116000D01*
X112981493Y39160156D01*
X113022000Y39298111D01*
X113022000Y39441889D01*
X112981493Y39579844D01*
X112953116Y39624000D01*
X113858544Y39624000D01*
X113858544Y39624001D01*
X113810823Y39812450D01*
X113810820Y39812457D01*
X113720419Y40018549D01*
X113597325Y40206959D01*
X113454018Y40362633D01*
X113422598Y40426298D01*
X113430585Y40496844D01*
X113475444Y40551873D01*
X113502679Y40566023D01*
X113618204Y40609111D01*
X113735261Y40696739D01*
X113822889Y40813796D01*
X113873989Y40950799D01*
X113880500Y41011362D01*
X113880500Y42808638D01*
X113880499Y42808650D01*
X113873990Y42869197D01*
X113873988Y42869205D01*
X113822889Y43006203D01*
X113822887Y43006208D01*
X113735261Y43123262D01*
X113618207Y43210888D01*
X113618202Y43210890D01*
X113481204Y43261989D01*
X113481196Y43261991D01*
X113420649Y43268500D01*
X113420638Y43268500D01*
X111623362Y43268500D01*
X111623350Y43268500D01*
X111562803Y43261991D01*
X111562795Y43261989D01*
X111425797Y43210890D01*
X111425792Y43210888D01*
X111308738Y43123262D01*
X111221112Y43006208D01*
X111221110Y43006203D01*
X111170011Y42869205D01*
X111170009Y42869197D01*
X111163500Y42808650D01*
X111163500Y41011351D01*
X111170009Y40950804D01*
X111170011Y40950796D01*
X111221110Y40813798D01*
X111221112Y40813793D01*
X111308738Y40696739D01*
X111425792Y40609113D01*
X111425796Y40609111D01*
X111541312Y40566025D01*
X111598148Y40523478D01*
X111622958Y40456958D01*
X111607866Y40387584D01*
X111589981Y40362633D01*
X111446674Y40206959D01*
X111323580Y40018549D01*
X111233179Y39812457D01*
X111233176Y39812450D01*
X111185455Y39624001D01*
X111185456Y39624000D01*
X112090884Y39624000D01*
X112062507Y39579844D01*
X112022000Y39441889D01*
X112022000Y39298111D01*
X112062507Y39160156D01*
X112090884Y39116000D01*
X111185455Y39116000D01*
X111233176Y38927551D01*
X111233179Y38927544D01*
X111323580Y38721452D01*
X111446674Y38533042D01*
X111599097Y38367466D01*
X111776698Y38229233D01*
X111776704Y38229229D01*
X111810207Y38211098D01*
X111860597Y38161085D01*
X111875949Y38091768D01*
X111851388Y38025155D01*
X111810207Y37989472D01*
X111776430Y37971193D01*
X111776424Y37971189D01*
X111598762Y37832909D01*
X111446279Y37667271D01*
X111446275Y37667266D01*
X111323141Y37478794D01*
X111232703Y37272614D01*
X111232702Y37272613D01*
X111177437Y37054376D01*
X111158844Y36830000D01*
X107954695Y36830000D01*
X108145023Y36974683D01*
X108405484Y37221405D01*
X108637742Y37494841D01*
X108839075Y37791785D01*
X109007123Y38108757D01*
X109139915Y38442039D01*
X109235895Y38787726D01*
X109293936Y39141763D01*
X109313359Y39500000D01*
X109293936Y39858237D01*
X109252823Y40109016D01*
X109235896Y40212270D01*
X109139915Y40557960D01*
X109136701Y40566026D01*
X109007123Y40891243D01*
X108839075Y41208215D01*
X108637742Y41505159D01*
X108405484Y41778595D01*
X108405483Y41778596D01*
X108145037Y42025305D01*
X108145022Y42025318D01*
X107859418Y42242428D01*
X107859412Y42242432D01*
X107552010Y42427390D01*
X107552009Y42427391D01*
X107552005Y42427393D01*
X107226401Y42578033D01*
X106886417Y42692587D01*
X106802185Y42711128D01*
X106536054Y42769709D01*
X106536030Y42769713D01*
X106179389Y42808500D01*
X106179382Y42808500D01*
X105820618Y42808500D01*
X105820610Y42808500D01*
X105463969Y42769713D01*
X105463945Y42769709D01*
X105113587Y42692588D01*
X105113573Y42692584D01*
X104814232Y42591724D01*
X104743290Y42588928D01*
X104682099Y42624929D01*
X104650085Y42688299D01*
X104648000Y42711128D01*
X104648000Y44430000D01*
X105484884Y44430000D01*
X105503314Y44219345D01*
X105532643Y44109887D01*
X105558043Y44015092D01*
X105558045Y44015088D01*
X105647412Y43823439D01*
X105768692Y43650233D01*
X105768696Y43650228D01*
X105768699Y43650224D01*
X105918224Y43500699D01*
X105918228Y43500696D01*
X105918232Y43500693D01*
X106091438Y43379413D01*
X106091441Y43379412D01*
X106091442Y43379411D01*
X106283090Y43290044D01*
X106487345Y43235314D01*
X106698000Y43216884D01*
X106908655Y43235314D01*
X107112910Y43290044D01*
X107304558Y43379411D01*
X107477776Y43500699D01*
X107627301Y43650224D01*
X107748589Y43823442D01*
X107837956Y44015090D01*
X107892686Y44219345D01*
X107911116Y44430000D01*
X107892686Y44640655D01*
X107837956Y44844910D01*
X107748589Y45036558D01*
X107748588Y45036559D01*
X107748587Y45036562D01*
X107627307Y45209768D01*
X107627304Y45209772D01*
X107627301Y45209776D01*
X107477776Y45359301D01*
X107477772Y45359304D01*
X107477767Y45359308D01*
X107304561Y45480588D01*
X107112912Y45569955D01*
X107112905Y45569958D01*
X107090211Y45576039D01*
X107081794Y45578294D01*
X107021172Y45615244D01*
X106990150Y45679104D01*
X106998578Y45749599D01*
X107043780Y45804346D01*
X107081793Y45821707D01*
X107112910Y45830044D01*
X107304558Y45919411D01*
X107477776Y46040699D01*
X107627301Y46190224D01*
X107748589Y46363442D01*
X107837956Y46555090D01*
X107892686Y46759345D01*
X107911116Y46970000D01*
X107892686Y47180655D01*
X107837956Y47384910D01*
X107748589Y47576558D01*
X107748588Y47576559D01*
X107748587Y47576562D01*
X107627307Y47749768D01*
X107627304Y47749772D01*
X107627301Y47749776D01*
X107477776Y47899301D01*
X107477772Y47899304D01*
X107477767Y47899308D01*
X107304561Y48020588D01*
X107112912Y48109955D01*
X107112908Y48109957D01*
X107018113Y48135357D01*
X106908655Y48164686D01*
X106698000Y48183116D01*
X106487345Y48164686D01*
X106432616Y48150022D01*
X106283091Y48109957D01*
X106283087Y48109955D01*
X106091438Y48020588D01*
X105918232Y47899308D01*
X105918221Y47899299D01*
X105768701Y47749779D01*
X105768692Y47749768D01*
X105647412Y47576562D01*
X105558045Y47384913D01*
X105558043Y47384909D01*
X105517978Y47235384D01*
X105503314Y47180655D01*
X105484884Y46970000D01*
X105503314Y46759345D01*
X105532643Y46649887D01*
X105558043Y46555092D01*
X105558045Y46555088D01*
X105647412Y46363439D01*
X105768692Y46190233D01*
X105768696Y46190228D01*
X105768699Y46190224D01*
X105918224Y46040699D01*
X105918228Y46040696D01*
X105918232Y46040693D01*
X106091438Y45919413D01*
X106091441Y45919412D01*
X106091442Y45919411D01*
X106283090Y45830044D01*
X106314205Y45821707D01*
X106374828Y45784755D01*
X106405849Y45720895D01*
X106397421Y45650400D01*
X106352218Y45595653D01*
X106314206Y45578294D01*
X106306406Y45576204D01*
X106283091Y45569957D01*
X106283087Y45569955D01*
X106091438Y45480588D01*
X105918232Y45359308D01*
X105918221Y45359299D01*
X105768701Y45209779D01*
X105768692Y45209768D01*
X105647412Y45036562D01*
X105558045Y44844913D01*
X105558043Y44844909D01*
X105517978Y44695384D01*
X105503314Y44640655D01*
X105484884Y44430000D01*
X104648000Y44430000D01*
X104648000Y49373500D01*
X104668002Y49441621D01*
X104721658Y49488114D01*
X104774000Y49499500D01*
X112935582Y49499500D01*
X113003703Y49479498D01*
G37*
%TD.AperFunction*%
%TD*%
M02*
