%TF.GenerationSoftware,KiCad,Pcbnew,7.0.8*%
%TF.CreationDate,2023-10-27T12:05:37-04:00*%
%TF.ProjectId,mainboard_dual_battery,6d61696e-626f-4617-9264-5f6475616c5f,rev?*%
%TF.SameCoordinates,PX1312d00PY5f5e100*%
%TF.FileFunction,Legend,Top*%
%TF.FilePolarity,Positive*%
%FSLAX46Y46*%
G04 Gerber Fmt 4.6, Leading zero omitted, Abs format (unit mm)*
G04 Created by KiCad (PCBNEW 7.0.8) date 2023-10-27 12:05:37*
%MOMM*%
%LPD*%
G01*
G04 APERTURE LIST*
G04 Aperture macros list*
%AMRoundRect*
0 Rectangle with rounded corners*
0 $1 Rounding radius*
0 $2 $3 $4 $5 $6 $7 $8 $9 X,Y pos of 4 corners*
0 Add a 4 corners polygon primitive as box body*
4,1,4,$2,$3,$4,$5,$6,$7,$8,$9,$2,$3,0*
0 Add four circle primitives for the rounded corners*
1,1,$1+$1,$2,$3*
1,1,$1+$1,$4,$5*
1,1,$1+$1,$6,$7*
1,1,$1+$1,$8,$9*
0 Add four rect primitives between the rounded corners*
20,1,$1+$1,$2,$3,$4,$5,0*
20,1,$1+$1,$4,$5,$6,$7,0*
20,1,$1+$1,$6,$7,$8,$9,0*
20,1,$1+$1,$8,$9,$2,$3,0*%
G04 Aperture macros list end*
%ADD10C,0.150000*%
%ADD11C,0.202000*%
%ADD12C,0.120000*%
%ADD13C,0.700000*%
%ADD14C,0.220000*%
%ADD15C,0.100000*%
%ADD16C,5.600000*%
%ADD17R,1.700000X1.700000*%
%ADD18O,1.700000X1.700000*%
%ADD19RoundRect,0.250000X1.500000X0.550000X-1.500000X0.550000X-1.500000X-0.550000X1.500000X-0.550000X0*%
%ADD20R,0.950000X1.200000*%
%ADD21RoundRect,0.225000X-0.250000X0.225000X-0.250000X-0.225000X0.250000X-0.225000X0.250000X0.225000X0*%
%ADD22RoundRect,0.225000X-0.225000X-0.250000X0.225000X-0.250000X0.225000X0.250000X-0.225000X0.250000X0*%
%ADD23RoundRect,0.150000X-0.512500X-0.150000X0.512500X-0.150000X0.512500X0.150000X-0.512500X0.150000X0*%
%ADD24RoundRect,0.250000X0.250000X0.475000X-0.250000X0.475000X-0.250000X-0.475000X0.250000X-0.475000X0*%
%ADD25RoundRect,0.225000X0.225000X0.250000X-0.225000X0.250000X-0.225000X-0.250000X0.225000X-0.250000X0*%
%ADD26C,1.700000*%
%ADD27R,2.460000X2.310000*%
%ADD28RoundRect,0.097500X-0.690000X-0.097500X0.690000X-0.097500X0.690000X0.097500X-0.690000X0.097500X0*%
%ADD29RoundRect,0.225000X0.250000X-0.225000X0.250000X0.225000X-0.250000X0.225000X-0.250000X-0.225000X0*%
%ADD30C,3.200000*%
%ADD31R,5.320000X7.350000*%
%ADD32RoundRect,0.200000X-0.200000X-0.275000X0.200000X-0.275000X0.200000X0.275000X-0.200000X0.275000X0*%
%ADD33RoundRect,0.200000X0.200000X0.275000X-0.200000X0.275000X-0.200000X-0.275000X0.200000X-0.275000X0*%
%ADD34RoundRect,0.250000X-0.475000X0.250000X-0.475000X-0.250000X0.475000X-0.250000X0.475000X0.250000X0*%
%ADD35R,3.700000X1.200000*%
%ADD36R,0.400000X1.350000*%
%ADD37O,0.890000X1.550000*%
%ADD38R,1.200000X1.550000*%
%ADD39O,1.250000X0.950000*%
%ADD40R,1.500000X1.550000*%
%ADD41RoundRect,0.200000X0.275000X-0.200000X0.275000X0.200000X-0.275000X0.200000X-0.275000X-0.200000X0*%
%ADD42O,1.200000X0.240000*%
%ADD43O,0.240000X1.200000*%
%ADD44RoundRect,0.250000X0.475000X-0.250000X0.475000X0.250000X-0.475000X0.250000X-0.475000X-0.250000X0*%
%ADD45RoundRect,0.250000X0.550000X-1.500000X0.550000X1.500000X-0.550000X1.500000X-0.550000X-1.500000X0*%
%ADD46RoundRect,0.150000X-0.150000X0.512500X-0.150000X-0.512500X0.150000X-0.512500X0.150000X0.512500X0*%
%ADD47RoundRect,0.200000X-0.550000X-0.200000X0.550000X-0.200000X0.550000X0.200000X-0.550000X0.200000X0*%
%ADD48R,2.620000X3.510000*%
%ADD49RoundRect,0.218750X-0.218750X-0.256250X0.218750X-0.256250X0.218750X0.256250X-0.218750X0.256250X0*%
%ADD50R,0.250000X0.675000*%
%ADD51R,0.675000X0.250000*%
%ADD52R,1.870000X2.800000*%
%ADD53RoundRect,0.218750X-0.256250X0.218750X-0.256250X-0.218750X0.256250X-0.218750X0.256250X0.218750X0*%
%ADD54RoundRect,0.250000X1.000000X0.650000X-1.000000X0.650000X-1.000000X-0.650000X1.000000X-0.650000X0*%
%ADD55O,1.800000X3.400000*%
%ADD56RoundRect,0.200000X-0.275000X0.200000X-0.275000X-0.200000X0.275000X-0.200000X0.275000X0.200000X0*%
%ADD57C,1.400000*%
G04 APERTURE END LIST*
D10*
X8500000Y53000000D02*
X8500000Y32500000D01*
D11*
X92303000Y-25908000D02*
G75*
G03*
X92303000Y-25908000I-101000J0D01*
G01*
D10*
X8500000Y32500000D02*
X21500000Y32500000D01*
X8500000Y-53000000D02*
X8500000Y-32500000D01*
X21500000Y32500000D02*
X21500000Y53000000D01*
X8500000Y-32500000D02*
X21500000Y-32500000D01*
X21500000Y-32500000D02*
X21500000Y-53000000D01*
X85078609Y-36880476D02*
X85116704Y-36804286D01*
X85116704Y-36804286D02*
X85116704Y-36690000D01*
X85116704Y-36690000D02*
X85078609Y-36575714D01*
X85078609Y-36575714D02*
X85002419Y-36499524D01*
X85002419Y-36499524D02*
X84926228Y-36461429D01*
X84926228Y-36461429D02*
X84773847Y-36423333D01*
X84773847Y-36423333D02*
X84659561Y-36423333D01*
X84659561Y-36423333D02*
X84507180Y-36461429D01*
X84507180Y-36461429D02*
X84430990Y-36499524D01*
X84430990Y-36499524D02*
X84354800Y-36575714D01*
X84354800Y-36575714D02*
X84316704Y-36690000D01*
X84316704Y-36690000D02*
X84316704Y-36766191D01*
X84316704Y-36766191D02*
X84354800Y-36880476D01*
X84354800Y-36880476D02*
X84392895Y-36918572D01*
X84392895Y-36918572D02*
X84659561Y-36918572D01*
X84659561Y-36918572D02*
X84659561Y-36766191D01*
X84316704Y-37261429D02*
X85116704Y-37261429D01*
X85116704Y-37261429D02*
X84316704Y-37718572D01*
X84316704Y-37718572D02*
X85116704Y-37718572D01*
X84316704Y-38099524D02*
X85116704Y-38099524D01*
X85116704Y-38099524D02*
X85116704Y-38290000D01*
X85116704Y-38290000D02*
X85078609Y-38404286D01*
X85078609Y-38404286D02*
X85002419Y-38480476D01*
X85002419Y-38480476D02*
X84926228Y-38518571D01*
X84926228Y-38518571D02*
X84773847Y-38556667D01*
X84773847Y-38556667D02*
X84659561Y-38556667D01*
X84659561Y-38556667D02*
X84507180Y-38518571D01*
X84507180Y-38518571D02*
X84430990Y-38480476D01*
X84430990Y-38480476D02*
X84354800Y-38404286D01*
X84354800Y-38404286D02*
X84316704Y-38290000D01*
X84316704Y-38290000D02*
X84316704Y-38099524D01*
X112929200Y33750287D02*
X112976819Y33893144D01*
X112976819Y33893144D02*
X112976819Y34131239D01*
X112976819Y34131239D02*
X112929200Y34226477D01*
X112929200Y34226477D02*
X112881580Y34274096D01*
X112881580Y34274096D02*
X112786342Y34321715D01*
X112786342Y34321715D02*
X112691104Y34321715D01*
X112691104Y34321715D02*
X112595866Y34274096D01*
X112595866Y34274096D02*
X112548247Y34226477D01*
X112548247Y34226477D02*
X112500628Y34131239D01*
X112500628Y34131239D02*
X112453009Y33940763D01*
X112453009Y33940763D02*
X112405390Y33845525D01*
X112405390Y33845525D02*
X112357771Y33797906D01*
X112357771Y33797906D02*
X112262533Y33750287D01*
X112262533Y33750287D02*
X112167295Y33750287D01*
X112167295Y33750287D02*
X112072057Y33797906D01*
X112072057Y33797906D02*
X112024438Y33845525D01*
X112024438Y33845525D02*
X111976819Y33940763D01*
X111976819Y33940763D02*
X111976819Y34178858D01*
X111976819Y34178858D02*
X112024438Y34321715D01*
X48730819Y-4619048D02*
X49445104Y-4619048D01*
X49445104Y-4619048D02*
X49587961Y-4666667D01*
X49587961Y-4666667D02*
X49683200Y-4761905D01*
X49683200Y-4761905D02*
X49730819Y-4904762D01*
X49730819Y-4904762D02*
X49730819Y-5000000D01*
X49730819Y-3666667D02*
X49730819Y-4142857D01*
X49730819Y-4142857D02*
X48730819Y-4142857D01*
X49635580Y-2761905D02*
X49683200Y-2809524D01*
X49683200Y-2809524D02*
X49730819Y-2952381D01*
X49730819Y-2952381D02*
X49730819Y-3047619D01*
X49730819Y-3047619D02*
X49683200Y-3190476D01*
X49683200Y-3190476D02*
X49587961Y-3285714D01*
X49587961Y-3285714D02*
X49492723Y-3333333D01*
X49492723Y-3333333D02*
X49302247Y-3380952D01*
X49302247Y-3380952D02*
X49159390Y-3380952D01*
X49159390Y-3380952D02*
X48968914Y-3333333D01*
X48968914Y-3333333D02*
X48873676Y-3285714D01*
X48873676Y-3285714D02*
X48778438Y-3190476D01*
X48778438Y-3190476D02*
X48730819Y-3047619D01*
X48730819Y-3047619D02*
X48730819Y-2952381D01*
X48730819Y-2952381D02*
X48778438Y-2809524D01*
X48778438Y-2809524D02*
X48826057Y-2761905D01*
X48730819Y-2047619D02*
X49445104Y-2047619D01*
X49445104Y-2047619D02*
X49587961Y-2095238D01*
X49587961Y-2095238D02*
X49683200Y-2190476D01*
X49683200Y-2190476D02*
X49730819Y-2333333D01*
X49730819Y-2333333D02*
X49730819Y-2428571D01*
X49730819Y-1095238D02*
X49730819Y-1571428D01*
X49730819Y-1571428D02*
X48730819Y-1571428D01*
X49635580Y-190476D02*
X49683200Y-238095D01*
X49683200Y-238095D02*
X49730819Y-380952D01*
X49730819Y-380952D02*
X49730819Y-476190D01*
X49730819Y-476190D02*
X49683200Y-619047D01*
X49683200Y-619047D02*
X49587961Y-714285D01*
X49587961Y-714285D02*
X49492723Y-761904D01*
X49492723Y-761904D02*
X49302247Y-809523D01*
X49302247Y-809523D02*
X49159390Y-809523D01*
X49159390Y-809523D02*
X48968914Y-761904D01*
X48968914Y-761904D02*
X48873676Y-714285D01*
X48873676Y-714285D02*
X48778438Y-619047D01*
X48778438Y-619047D02*
X48730819Y-476190D01*
X48730819Y-476190D02*
X48730819Y-380952D01*
X48730819Y-380952D02*
X48778438Y-238095D01*
X48778438Y-238095D02*
X48826057Y-190476D01*
X48730819Y523810D02*
X49445104Y523810D01*
X49445104Y523810D02*
X49587961Y476191D01*
X49587961Y476191D02*
X49683200Y380953D01*
X49683200Y380953D02*
X49730819Y238096D01*
X49730819Y238096D02*
X49730819Y142858D01*
X49730819Y1476191D02*
X49730819Y1000001D01*
X49730819Y1000001D02*
X48730819Y1000001D01*
X49635580Y2380953D02*
X49683200Y2333334D01*
X49683200Y2333334D02*
X49730819Y2190477D01*
X49730819Y2190477D02*
X49730819Y2095239D01*
X49730819Y2095239D02*
X49683200Y1952382D01*
X49683200Y1952382D02*
X49587961Y1857144D01*
X49587961Y1857144D02*
X49492723Y1809525D01*
X49492723Y1809525D02*
X49302247Y1761906D01*
X49302247Y1761906D02*
X49159390Y1761906D01*
X49159390Y1761906D02*
X48968914Y1809525D01*
X48968914Y1809525D02*
X48873676Y1857144D01*
X48873676Y1857144D02*
X48778438Y1952382D01*
X48778438Y1952382D02*
X48730819Y2095239D01*
X48730819Y2095239D02*
X48730819Y2190477D01*
X48730819Y2190477D02*
X48778438Y2333334D01*
X48778438Y2333334D02*
X48826057Y2380953D01*
X48730819Y3095239D02*
X49445104Y3095239D01*
X49445104Y3095239D02*
X49587961Y3047620D01*
X49587961Y3047620D02*
X49683200Y2952382D01*
X49683200Y2952382D02*
X49730819Y2809525D01*
X49730819Y2809525D02*
X49730819Y2714287D01*
X49730819Y4047620D02*
X49730819Y3571430D01*
X49730819Y3571430D02*
X48730819Y3571430D01*
X49635580Y4952382D02*
X49683200Y4904763D01*
X49683200Y4904763D02*
X49730819Y4761906D01*
X49730819Y4761906D02*
X49730819Y4666668D01*
X49730819Y4666668D02*
X49683200Y4523811D01*
X49683200Y4523811D02*
X49587961Y4428573D01*
X49587961Y4428573D02*
X49492723Y4380954D01*
X49492723Y4380954D02*
X49302247Y4333335D01*
X49302247Y4333335D02*
X49159390Y4333335D01*
X49159390Y4333335D02*
X48968914Y4380954D01*
X48968914Y4380954D02*
X48873676Y4428573D01*
X48873676Y4428573D02*
X48778438Y4523811D01*
X48778438Y4523811D02*
X48730819Y4666668D01*
X48730819Y4666668D02*
X48730819Y4761906D01*
X48730819Y4761906D02*
X48778438Y4904763D01*
X48778438Y4904763D02*
X48826057Y4952382D01*
D12*
X72969855Y41145530D02*
X73769855Y41412197D01*
X73769855Y41412197D02*
X72969855Y41678863D01*
X73693664Y42402673D02*
X73731760Y42364577D01*
X73731760Y42364577D02*
X73769855Y42250292D01*
X73769855Y42250292D02*
X73769855Y42174101D01*
X73769855Y42174101D02*
X73731760Y42059815D01*
X73731760Y42059815D02*
X73655569Y41983625D01*
X73655569Y41983625D02*
X73579379Y41945530D01*
X73579379Y41945530D02*
X73426998Y41907434D01*
X73426998Y41907434D02*
X73312712Y41907434D01*
X73312712Y41907434D02*
X73160331Y41945530D01*
X73160331Y41945530D02*
X73084140Y41983625D01*
X73084140Y41983625D02*
X73007950Y42059815D01*
X73007950Y42059815D02*
X72969855Y42174101D01*
X72969855Y42174101D02*
X72969855Y42250292D01*
X72969855Y42250292D02*
X73007950Y42364577D01*
X73007950Y42364577D02*
X73046045Y42402673D01*
X73693664Y43202673D02*
X73731760Y43164577D01*
X73731760Y43164577D02*
X73769855Y43050292D01*
X73769855Y43050292D02*
X73769855Y42974101D01*
X73769855Y42974101D02*
X73731760Y42859815D01*
X73731760Y42859815D02*
X73655569Y42783625D01*
X73655569Y42783625D02*
X73579379Y42745530D01*
X73579379Y42745530D02*
X73426998Y42707434D01*
X73426998Y42707434D02*
X73312712Y42707434D01*
X73312712Y42707434D02*
X73160331Y42745530D01*
X73160331Y42745530D02*
X73084140Y42783625D01*
X73084140Y42783625D02*
X73007950Y42859815D01*
X73007950Y42859815D02*
X72969855Y42974101D01*
X72969855Y42974101D02*
X72969855Y43050292D01*
X72969855Y43050292D02*
X73007950Y43164577D01*
X73007950Y43164577D02*
X73046045Y43202673D01*
D10*
X76696704Y-35566095D02*
X77077657Y-35299428D01*
X76696704Y-35108952D02*
X77496704Y-35108952D01*
X77496704Y-35108952D02*
X77496704Y-35413714D01*
X77496704Y-35413714D02*
X77458609Y-35489904D01*
X77458609Y-35489904D02*
X77420514Y-35527999D01*
X77420514Y-35527999D02*
X77344323Y-35566095D01*
X77344323Y-35566095D02*
X77230038Y-35566095D01*
X77230038Y-35566095D02*
X77153847Y-35527999D01*
X77153847Y-35527999D02*
X77115752Y-35489904D01*
X77115752Y-35489904D02*
X77077657Y-35413714D01*
X77077657Y-35413714D02*
X77077657Y-35108952D01*
X77115752Y-35908952D02*
X77115752Y-36175618D01*
X76696704Y-36289904D02*
X76696704Y-35908952D01*
X76696704Y-35908952D02*
X77496704Y-35908952D01*
X77496704Y-35908952D02*
X77496704Y-36289904D01*
X76734800Y-36594666D02*
X76696704Y-36708952D01*
X76696704Y-36708952D02*
X76696704Y-36899428D01*
X76696704Y-36899428D02*
X76734800Y-36975619D01*
X76734800Y-36975619D02*
X76772895Y-37013714D01*
X76772895Y-37013714D02*
X76849085Y-37051809D01*
X76849085Y-37051809D02*
X76925276Y-37051809D01*
X76925276Y-37051809D02*
X77001466Y-37013714D01*
X77001466Y-37013714D02*
X77039561Y-36975619D01*
X77039561Y-36975619D02*
X77077657Y-36899428D01*
X77077657Y-36899428D02*
X77115752Y-36747047D01*
X77115752Y-36747047D02*
X77153847Y-36670857D01*
X77153847Y-36670857D02*
X77191942Y-36632762D01*
X77191942Y-36632762D02*
X77268133Y-36594666D01*
X77268133Y-36594666D02*
X77344323Y-36594666D01*
X77344323Y-36594666D02*
X77420514Y-36632762D01*
X77420514Y-36632762D02*
X77458609Y-36670857D01*
X77458609Y-36670857D02*
X77496704Y-36747047D01*
X77496704Y-36747047D02*
X77496704Y-36937524D01*
X77496704Y-36937524D02*
X77458609Y-37051809D01*
X77115752Y-37394667D02*
X77115752Y-37661333D01*
X76696704Y-37775619D02*
X76696704Y-37394667D01*
X76696704Y-37394667D02*
X77496704Y-37394667D01*
X77496704Y-37394667D02*
X77496704Y-37775619D01*
X77496704Y-38004191D02*
X77496704Y-38461334D01*
X76696704Y-38232762D02*
X77496704Y-38232762D01*
D12*
X70429855Y40878863D02*
X70429855Y41374101D01*
X70429855Y41374101D02*
X70734617Y41107435D01*
X70734617Y41107435D02*
X70734617Y41221720D01*
X70734617Y41221720D02*
X70772712Y41297911D01*
X70772712Y41297911D02*
X70810807Y41336006D01*
X70810807Y41336006D02*
X70886998Y41374101D01*
X70886998Y41374101D02*
X71077474Y41374101D01*
X71077474Y41374101D02*
X71153664Y41336006D01*
X71153664Y41336006D02*
X71191760Y41297911D01*
X71191760Y41297911D02*
X71229855Y41221720D01*
X71229855Y41221720D02*
X71229855Y40993149D01*
X71229855Y40993149D02*
X71191760Y40916958D01*
X71191760Y40916958D02*
X71153664Y40878863D01*
X71153664Y41716959D02*
X71191760Y41755054D01*
X71191760Y41755054D02*
X71229855Y41716959D01*
X71229855Y41716959D02*
X71191760Y41678863D01*
X71191760Y41678863D02*
X71153664Y41716959D01*
X71153664Y41716959D02*
X71229855Y41716959D01*
X70429855Y42021720D02*
X70429855Y42516958D01*
X70429855Y42516958D02*
X70734617Y42250292D01*
X70734617Y42250292D02*
X70734617Y42364577D01*
X70734617Y42364577D02*
X70772712Y42440768D01*
X70772712Y42440768D02*
X70810807Y42478863D01*
X70810807Y42478863D02*
X70886998Y42516958D01*
X70886998Y42516958D02*
X71077474Y42516958D01*
X71077474Y42516958D02*
X71153664Y42478863D01*
X71153664Y42478863D02*
X71191760Y42440768D01*
X71191760Y42440768D02*
X71229855Y42364577D01*
X71229855Y42364577D02*
X71229855Y42136006D01*
X71229855Y42136006D02*
X71191760Y42059815D01*
X71191760Y42059815D02*
X71153664Y42021720D01*
X70429855Y42745530D02*
X71229855Y43012197D01*
X71229855Y43012197D02*
X70429855Y43278863D01*
X75509855Y42440768D02*
X75509855Y42288387D01*
X75509855Y42288387D02*
X75547950Y42212196D01*
X75547950Y42212196D02*
X75586045Y42174101D01*
X75586045Y42174101D02*
X75700331Y42097911D01*
X75700331Y42097911D02*
X75852712Y42059815D01*
X75852712Y42059815D02*
X76157474Y42059815D01*
X76157474Y42059815D02*
X76233664Y42097911D01*
X76233664Y42097911D02*
X76271760Y42136006D01*
X76271760Y42136006D02*
X76309855Y42212196D01*
X76309855Y42212196D02*
X76309855Y42364577D01*
X76309855Y42364577D02*
X76271760Y42440768D01*
X76271760Y42440768D02*
X76233664Y42478863D01*
X76233664Y42478863D02*
X76157474Y42516958D01*
X76157474Y42516958D02*
X75966998Y42516958D01*
X75966998Y42516958D02*
X75890807Y42478863D01*
X75890807Y42478863D02*
X75852712Y42440768D01*
X75852712Y42440768D02*
X75814617Y42364577D01*
X75814617Y42364577D02*
X75814617Y42212196D01*
X75814617Y42212196D02*
X75852712Y42136006D01*
X75852712Y42136006D02*
X75890807Y42097911D01*
X75890807Y42097911D02*
X75966998Y42059815D01*
X75509855Y42745530D02*
X76309855Y43012197D01*
X76309855Y43012197D02*
X75509855Y43278863D01*
D13*
X30597933Y-43904761D02*
X30597933Y-40095238D01*
X32502695Y-41999999D02*
X28693171Y-41999999D01*
D10*
X79274800Y-34664475D02*
X79236704Y-34778761D01*
X79236704Y-34778761D02*
X79236704Y-34969237D01*
X79236704Y-34969237D02*
X79274800Y-35045428D01*
X79274800Y-35045428D02*
X79312895Y-35083523D01*
X79312895Y-35083523D02*
X79389085Y-35121618D01*
X79389085Y-35121618D02*
X79465276Y-35121618D01*
X79465276Y-35121618D02*
X79541466Y-35083523D01*
X79541466Y-35083523D02*
X79579561Y-35045428D01*
X79579561Y-35045428D02*
X79617657Y-34969237D01*
X79617657Y-34969237D02*
X79655752Y-34816856D01*
X79655752Y-34816856D02*
X79693847Y-34740666D01*
X79693847Y-34740666D02*
X79731942Y-34702571D01*
X79731942Y-34702571D02*
X79808133Y-34664475D01*
X79808133Y-34664475D02*
X79884323Y-34664475D01*
X79884323Y-34664475D02*
X79960514Y-34702571D01*
X79960514Y-34702571D02*
X79998609Y-34740666D01*
X79998609Y-34740666D02*
X80036704Y-34816856D01*
X80036704Y-34816856D02*
X80036704Y-35007333D01*
X80036704Y-35007333D02*
X79998609Y-35121618D01*
X80036704Y-35388285D02*
X79236704Y-35578761D01*
X79236704Y-35578761D02*
X79808133Y-35731142D01*
X79808133Y-35731142D02*
X79236704Y-35883523D01*
X79236704Y-35883523D02*
X80036704Y-36074000D01*
X79312895Y-36835905D02*
X79274800Y-36797809D01*
X79274800Y-36797809D02*
X79236704Y-36683524D01*
X79236704Y-36683524D02*
X79236704Y-36607333D01*
X79236704Y-36607333D02*
X79274800Y-36493047D01*
X79274800Y-36493047D02*
X79350990Y-36416857D01*
X79350990Y-36416857D02*
X79427180Y-36378762D01*
X79427180Y-36378762D02*
X79579561Y-36340666D01*
X79579561Y-36340666D02*
X79693847Y-36340666D01*
X79693847Y-36340666D02*
X79846228Y-36378762D01*
X79846228Y-36378762D02*
X79922419Y-36416857D01*
X79922419Y-36416857D02*
X79998609Y-36493047D01*
X79998609Y-36493047D02*
X80036704Y-36607333D01*
X80036704Y-36607333D02*
X80036704Y-36683524D01*
X80036704Y-36683524D02*
X79998609Y-36797809D01*
X79998609Y-36797809D02*
X79960514Y-36835905D01*
X79236704Y-37559714D02*
X79236704Y-37178762D01*
X79236704Y-37178762D02*
X80036704Y-37178762D01*
X79236704Y-37826381D02*
X80036704Y-37826381D01*
X79236704Y-38283524D02*
X79693847Y-37940666D01*
X80036704Y-38283524D02*
X79579561Y-37826381D01*
X112278438Y44203905D02*
X112230819Y44108667D01*
X112230819Y44108667D02*
X112230819Y43965810D01*
X112230819Y43965810D02*
X112278438Y43822953D01*
X112278438Y43822953D02*
X112373676Y43727715D01*
X112373676Y43727715D02*
X112468914Y43680096D01*
X112468914Y43680096D02*
X112659390Y43632477D01*
X112659390Y43632477D02*
X112802247Y43632477D01*
X112802247Y43632477D02*
X112992723Y43680096D01*
X112992723Y43680096D02*
X113087961Y43727715D01*
X113087961Y43727715D02*
X113183200Y43822953D01*
X113183200Y43822953D02*
X113230819Y43965810D01*
X113230819Y43965810D02*
X113230819Y44061048D01*
X113230819Y44061048D02*
X113183200Y44203905D01*
X113183200Y44203905D02*
X113135580Y44251524D01*
X113135580Y44251524D02*
X112802247Y44251524D01*
X112802247Y44251524D02*
X112802247Y44061048D01*
X81814800Y-35032761D02*
X81776704Y-35147047D01*
X81776704Y-35147047D02*
X81776704Y-35337523D01*
X81776704Y-35337523D02*
X81814800Y-35413714D01*
X81814800Y-35413714D02*
X81852895Y-35451809D01*
X81852895Y-35451809D02*
X81929085Y-35489904D01*
X81929085Y-35489904D02*
X82005276Y-35489904D01*
X82005276Y-35489904D02*
X82081466Y-35451809D01*
X82081466Y-35451809D02*
X82119561Y-35413714D01*
X82119561Y-35413714D02*
X82157657Y-35337523D01*
X82157657Y-35337523D02*
X82195752Y-35185142D01*
X82195752Y-35185142D02*
X82233847Y-35108952D01*
X82233847Y-35108952D02*
X82271942Y-35070857D01*
X82271942Y-35070857D02*
X82348133Y-35032761D01*
X82348133Y-35032761D02*
X82424323Y-35032761D01*
X82424323Y-35032761D02*
X82500514Y-35070857D01*
X82500514Y-35070857D02*
X82538609Y-35108952D01*
X82538609Y-35108952D02*
X82576704Y-35185142D01*
X82576704Y-35185142D02*
X82576704Y-35375619D01*
X82576704Y-35375619D02*
X82538609Y-35489904D01*
X82576704Y-35756571D02*
X81776704Y-35947047D01*
X81776704Y-35947047D02*
X82348133Y-36099428D01*
X82348133Y-36099428D02*
X81776704Y-36251809D01*
X81776704Y-36251809D02*
X82576704Y-36442286D01*
X81776704Y-36747048D02*
X82576704Y-36747048D01*
X82576704Y-36747048D02*
X82576704Y-36937524D01*
X82576704Y-36937524D02*
X82538609Y-37051810D01*
X82538609Y-37051810D02*
X82462419Y-37128000D01*
X82462419Y-37128000D02*
X82386228Y-37166095D01*
X82386228Y-37166095D02*
X82233847Y-37204191D01*
X82233847Y-37204191D02*
X82119561Y-37204191D01*
X82119561Y-37204191D02*
X81967180Y-37166095D01*
X81967180Y-37166095D02*
X81890990Y-37128000D01*
X81890990Y-37128000D02*
X81814800Y-37051810D01*
X81814800Y-37051810D02*
X81776704Y-36937524D01*
X81776704Y-36937524D02*
X81776704Y-36747048D01*
X81776704Y-37547048D02*
X82576704Y-37547048D01*
X82576704Y-38080381D02*
X82576704Y-38232762D01*
X82576704Y-38232762D02*
X82538609Y-38308952D01*
X82538609Y-38308952D02*
X82462419Y-38385143D01*
X82462419Y-38385143D02*
X82310038Y-38423238D01*
X82310038Y-38423238D02*
X82043371Y-38423238D01*
X82043371Y-38423238D02*
X81890990Y-38385143D01*
X81890990Y-38385143D02*
X81814800Y-38308952D01*
X81814800Y-38308952D02*
X81776704Y-38232762D01*
X81776704Y-38232762D02*
X81776704Y-38080381D01*
X81776704Y-38080381D02*
X81814800Y-38004190D01*
X81814800Y-38004190D02*
X81890990Y-37928000D01*
X81890990Y-37928000D02*
X82043371Y-37889904D01*
X82043371Y-37889904D02*
X82310038Y-37889904D01*
X82310038Y-37889904D02*
X82462419Y-37928000D01*
X82462419Y-37928000D02*
X82538609Y-38004190D01*
X82538609Y-38004190D02*
X82576704Y-38080381D01*
X112929200Y-34829713D02*
X112976819Y-34686856D01*
X112976819Y-34686856D02*
X112976819Y-34448761D01*
X112976819Y-34448761D02*
X112929200Y-34353523D01*
X112929200Y-34353523D02*
X112881580Y-34305904D01*
X112881580Y-34305904D02*
X112786342Y-34258285D01*
X112786342Y-34258285D02*
X112691104Y-34258285D01*
X112691104Y-34258285D02*
X112595866Y-34305904D01*
X112595866Y-34305904D02*
X112548247Y-34353523D01*
X112548247Y-34353523D02*
X112500628Y-34448761D01*
X112500628Y-34448761D02*
X112453009Y-34639237D01*
X112453009Y-34639237D02*
X112405390Y-34734475D01*
X112405390Y-34734475D02*
X112357771Y-34782094D01*
X112357771Y-34782094D02*
X112262533Y-34829713D01*
X112262533Y-34829713D02*
X112167295Y-34829713D01*
X112167295Y-34829713D02*
X112072057Y-34782094D01*
X112072057Y-34782094D02*
X112024438Y-34734475D01*
X112024438Y-34734475D02*
X111976819Y-34639237D01*
X111976819Y-34639237D02*
X111976819Y-34401142D01*
X111976819Y-34401142D02*
X112024438Y-34258285D01*
X112024438Y-43934095D02*
X111976819Y-44029333D01*
X111976819Y-44029333D02*
X111976819Y-44172190D01*
X111976819Y-44172190D02*
X112024438Y-44315047D01*
X112024438Y-44315047D02*
X112119676Y-44410285D01*
X112119676Y-44410285D02*
X112214914Y-44457904D01*
X112214914Y-44457904D02*
X112405390Y-44505523D01*
X112405390Y-44505523D02*
X112548247Y-44505523D01*
X112548247Y-44505523D02*
X112738723Y-44457904D01*
X112738723Y-44457904D02*
X112833961Y-44410285D01*
X112833961Y-44410285D02*
X112929200Y-44315047D01*
X112929200Y-44315047D02*
X112976819Y-44172190D01*
X112976819Y-44172190D02*
X112976819Y-44076952D01*
X112976819Y-44076952D02*
X112929200Y-43934095D01*
X112929200Y-43934095D02*
X112881580Y-43886476D01*
X112881580Y-43886476D02*
X112548247Y-43886476D01*
X112548247Y-43886476D02*
X112548247Y-44076952D01*
D13*
X30597933Y40595239D02*
X30597933Y44404762D01*
D12*
X78087950Y41526482D02*
X78049855Y41450292D01*
X78049855Y41450292D02*
X78049855Y41336006D01*
X78049855Y41336006D02*
X78087950Y41221720D01*
X78087950Y41221720D02*
X78164140Y41145530D01*
X78164140Y41145530D02*
X78240331Y41107435D01*
X78240331Y41107435D02*
X78392712Y41069339D01*
X78392712Y41069339D02*
X78506998Y41069339D01*
X78506998Y41069339D02*
X78659379Y41107435D01*
X78659379Y41107435D02*
X78735569Y41145530D01*
X78735569Y41145530D02*
X78811760Y41221720D01*
X78811760Y41221720D02*
X78849855Y41336006D01*
X78849855Y41336006D02*
X78849855Y41412197D01*
X78849855Y41412197D02*
X78811760Y41526482D01*
X78811760Y41526482D02*
X78773664Y41564578D01*
X78773664Y41564578D02*
X78506998Y41564578D01*
X78506998Y41564578D02*
X78506998Y41412197D01*
X78849855Y41907435D02*
X78049855Y41907435D01*
X78049855Y41907435D02*
X78849855Y42364578D01*
X78849855Y42364578D02*
X78049855Y42364578D01*
X78849855Y42745530D02*
X78049855Y42745530D01*
X78049855Y42745530D02*
X78049855Y42936006D01*
X78049855Y42936006D02*
X78087950Y43050292D01*
X78087950Y43050292D02*
X78164140Y43126482D01*
X78164140Y43126482D02*
X78240331Y43164577D01*
X78240331Y43164577D02*
X78392712Y43202673D01*
X78392712Y43202673D02*
X78506998Y43202673D01*
X78506998Y43202673D02*
X78659379Y43164577D01*
X78659379Y43164577D02*
X78735569Y43126482D01*
X78735569Y43126482D02*
X78811760Y43050292D01*
X78811760Y43050292D02*
X78849855Y42936006D01*
X78849855Y42936006D02*
X78849855Y42745530D01*
D10*
X87148704Y-36309047D02*
X87148704Y-36804285D01*
X87148704Y-36804285D02*
X86843942Y-36537619D01*
X86843942Y-36537619D02*
X86843942Y-36651904D01*
X86843942Y-36651904D02*
X86805847Y-36728095D01*
X86805847Y-36728095D02*
X86767752Y-36766190D01*
X86767752Y-36766190D02*
X86691561Y-36804285D01*
X86691561Y-36804285D02*
X86501085Y-36804285D01*
X86501085Y-36804285D02*
X86424895Y-36766190D01*
X86424895Y-36766190D02*
X86386800Y-36728095D01*
X86386800Y-36728095D02*
X86348704Y-36651904D01*
X86348704Y-36651904D02*
X86348704Y-36423333D01*
X86348704Y-36423333D02*
X86386800Y-36347142D01*
X86386800Y-36347142D02*
X86424895Y-36309047D01*
X86424895Y-37147143D02*
X86386800Y-37185238D01*
X86386800Y-37185238D02*
X86348704Y-37147143D01*
X86348704Y-37147143D02*
X86386800Y-37109047D01*
X86386800Y-37109047D02*
X86424895Y-37147143D01*
X86424895Y-37147143D02*
X86348704Y-37147143D01*
X87148704Y-37451904D02*
X87148704Y-37947142D01*
X87148704Y-37947142D02*
X86843942Y-37680476D01*
X86843942Y-37680476D02*
X86843942Y-37794761D01*
X86843942Y-37794761D02*
X86805847Y-37870952D01*
X86805847Y-37870952D02*
X86767752Y-37909047D01*
X86767752Y-37909047D02*
X86691561Y-37947142D01*
X86691561Y-37947142D02*
X86501085Y-37947142D01*
X86501085Y-37947142D02*
X86424895Y-37909047D01*
X86424895Y-37909047D02*
X86386800Y-37870952D01*
X86386800Y-37870952D02*
X86348704Y-37794761D01*
X86348704Y-37794761D02*
X86348704Y-37566190D01*
X86348704Y-37566190D02*
X86386800Y-37489999D01*
X86386800Y-37489999D02*
X86424895Y-37451904D01*
X87148704Y-38175714D02*
X86348704Y-38442381D01*
X86348704Y-38442381D02*
X87148704Y-38709047D01*
D14*
X112044702Y-8607141D02*
X112758988Y-8607141D01*
X111258988Y-9107141D02*
X112044702Y-8607141D01*
X112044702Y-8607141D02*
X111258988Y-8107141D01*
X112758988Y-7392856D02*
X112687560Y-7535713D01*
X112687560Y-7535713D02*
X112616131Y-7607142D01*
X112616131Y-7607142D02*
X112473274Y-7678570D01*
X112473274Y-7678570D02*
X112044702Y-7678570D01*
X112044702Y-7678570D02*
X111901845Y-7607142D01*
X111901845Y-7607142D02*
X111830417Y-7535713D01*
X111830417Y-7535713D02*
X111758988Y-7392856D01*
X111758988Y-7392856D02*
X111758988Y-7178570D01*
X111758988Y-7178570D02*
X111830417Y-7035713D01*
X111830417Y-7035713D02*
X111901845Y-6964285D01*
X111901845Y-6964285D02*
X112044702Y-6892856D01*
X112044702Y-6892856D02*
X112473274Y-6892856D01*
X112473274Y-6892856D02*
X112616131Y-6964285D01*
X112616131Y-6964285D02*
X112687560Y-7035713D01*
X112687560Y-7035713D02*
X112758988Y-7178570D01*
X112758988Y-7178570D02*
X112758988Y-7392856D01*
X111758988Y-6392856D02*
X111758988Y-5607142D01*
X111758988Y-5607142D02*
X112758988Y-6392856D01*
X112758988Y-6392856D02*
X112758988Y-5607142D01*
X112758988Y-5035713D02*
X111258988Y-5035713D01*
X112758988Y-4392856D02*
X111973274Y-4392856D01*
X111973274Y-4392856D02*
X111830417Y-4464284D01*
X111830417Y-4464284D02*
X111758988Y-4607141D01*
X111758988Y-4607141D02*
X111758988Y-4821427D01*
X111758988Y-4821427D02*
X111830417Y-4964284D01*
X111830417Y-4964284D02*
X111901845Y-5035713D01*
X111973274Y-2035713D02*
X112044702Y-1821427D01*
X112044702Y-1821427D02*
X112116131Y-1749998D01*
X112116131Y-1749998D02*
X112258988Y-1678570D01*
X112258988Y-1678570D02*
X112473274Y-1678570D01*
X112473274Y-1678570D02*
X112616131Y-1749998D01*
X112616131Y-1749998D02*
X112687560Y-1821427D01*
X112687560Y-1821427D02*
X112758988Y-1964284D01*
X112758988Y-1964284D02*
X112758988Y-2535713D01*
X112758988Y-2535713D02*
X111258988Y-2535713D01*
X111258988Y-2535713D02*
X111258988Y-2035713D01*
X111258988Y-2035713D02*
X111330417Y-1892856D01*
X111330417Y-1892856D02*
X111401845Y-1821427D01*
X111401845Y-1821427D02*
X111544702Y-1749998D01*
X111544702Y-1749998D02*
X111687560Y-1749998D01*
X111687560Y-1749998D02*
X111830417Y-1821427D01*
X111830417Y-1821427D02*
X111901845Y-1892856D01*
X111901845Y-1892856D02*
X111973274Y-2035713D01*
X111973274Y-2035713D02*
X111973274Y-2535713D01*
X112758988Y-821427D02*
X112687560Y-964284D01*
X112687560Y-964284D02*
X112616131Y-1035713D01*
X112616131Y-1035713D02*
X112473274Y-1107141D01*
X112473274Y-1107141D02*
X112044702Y-1107141D01*
X112044702Y-1107141D02*
X111901845Y-1035713D01*
X111901845Y-1035713D02*
X111830417Y-964284D01*
X111830417Y-964284D02*
X111758988Y-821427D01*
X111758988Y-821427D02*
X111758988Y-607141D01*
X111758988Y-607141D02*
X111830417Y-464284D01*
X111830417Y-464284D02*
X111901845Y-392856D01*
X111901845Y-392856D02*
X112044702Y-321427D01*
X112044702Y-321427D02*
X112473274Y-321427D01*
X112473274Y-321427D02*
X112616131Y-392856D01*
X112616131Y-392856D02*
X112687560Y-464284D01*
X112687560Y-464284D02*
X112758988Y-607141D01*
X112758988Y-607141D02*
X112758988Y-821427D01*
X111758988Y107145D02*
X111758988Y678573D01*
X111258988Y321430D02*
X112544702Y321430D01*
X112544702Y321430D02*
X112687560Y392859D01*
X112687560Y392859D02*
X112758988Y535716D01*
X112758988Y535716D02*
X112758988Y678573D01*
X111758988Y2178573D02*
X112758988Y2535716D01*
X112758988Y2535716D02*
X111758988Y2892859D01*
X111758988Y5250001D02*
X112758988Y5250001D01*
X111187560Y4892859D02*
X112258988Y4535716D01*
X112258988Y4535716D02*
X112258988Y5464287D01*
X112616131Y6035715D02*
X112687560Y6107144D01*
X112687560Y6107144D02*
X112758988Y6035715D01*
X112758988Y6035715D02*
X112687560Y5964287D01*
X112687560Y5964287D02*
X112616131Y6035715D01*
X112616131Y6035715D02*
X112758988Y6035715D01*
X111258988Y7035716D02*
X111258988Y7178573D01*
X111258988Y7178573D02*
X111330417Y7321430D01*
X111330417Y7321430D02*
X111401845Y7392858D01*
X111401845Y7392858D02*
X111544702Y7464287D01*
X111544702Y7464287D02*
X111830417Y7535716D01*
X111830417Y7535716D02*
X112187560Y7535716D01*
X112187560Y7535716D02*
X112473274Y7464287D01*
X112473274Y7464287D02*
X112616131Y7392858D01*
X112616131Y7392858D02*
X112687560Y7321430D01*
X112687560Y7321430D02*
X112758988Y7178573D01*
X112758988Y7178573D02*
X112758988Y7035716D01*
X112758988Y7035716D02*
X112687560Y6892858D01*
X112687560Y6892858D02*
X112616131Y6821430D01*
X112616131Y6821430D02*
X112473274Y6750001D01*
X112473274Y6750001D02*
X112187560Y6678573D01*
X112187560Y6678573D02*
X111830417Y6678573D01*
X111830417Y6678573D02*
X111544702Y6750001D01*
X111544702Y6750001D02*
X111401845Y6821430D01*
X111401845Y6821430D02*
X111330417Y6892858D01*
X111330417Y6892858D02*
X111258988Y7035716D01*
X111401845Y8107144D02*
X111330417Y8178572D01*
X111330417Y8178572D02*
X111258988Y8321429D01*
X111258988Y8321429D02*
X111258988Y8678572D01*
X111258988Y8678572D02*
X111330417Y8821429D01*
X111330417Y8821429D02*
X111401845Y8892858D01*
X111401845Y8892858D02*
X111544702Y8964287D01*
X111544702Y8964287D02*
X111687560Y8964287D01*
X111687560Y8964287D02*
X111901845Y8892858D01*
X111901845Y8892858D02*
X112758988Y8035715D01*
X112758988Y8035715D02*
X112758988Y8964287D01*
X114173988Y-6071429D02*
X115173988Y-5714286D01*
X114173988Y-5357143D02*
X115173988Y-5714286D01*
X115173988Y-5714286D02*
X115531131Y-5857143D01*
X115531131Y-5857143D02*
X115602560Y-5928572D01*
X115602560Y-5928572D02*
X115673988Y-6071429D01*
X115173988Y-4571429D02*
X115102560Y-4714286D01*
X115102560Y-4714286D02*
X115031131Y-4785715D01*
X115031131Y-4785715D02*
X114888274Y-4857143D01*
X114888274Y-4857143D02*
X114459702Y-4857143D01*
X114459702Y-4857143D02*
X114316845Y-4785715D01*
X114316845Y-4785715D02*
X114245417Y-4714286D01*
X114245417Y-4714286D02*
X114173988Y-4571429D01*
X114173988Y-4571429D02*
X114173988Y-4357143D01*
X114173988Y-4357143D02*
X114245417Y-4214286D01*
X114245417Y-4214286D02*
X114316845Y-4142858D01*
X114316845Y-4142858D02*
X114459702Y-4071429D01*
X114459702Y-4071429D02*
X114888274Y-4071429D01*
X114888274Y-4071429D02*
X115031131Y-4142858D01*
X115031131Y-4142858D02*
X115102560Y-4214286D01*
X115102560Y-4214286D02*
X115173988Y-4357143D01*
X115173988Y-4357143D02*
X115173988Y-4571429D01*
X114173988Y-3571429D02*
X114173988Y-2785715D01*
X114173988Y-2785715D02*
X115173988Y-3571429D01*
X115173988Y-3571429D02*
X115173988Y-2785715D01*
X115173988Y-2214286D02*
X113673988Y-2214286D01*
X115173988Y-1571429D02*
X114388274Y-1571429D01*
X114388274Y-1571429D02*
X114245417Y-1642857D01*
X114245417Y-1642857D02*
X114173988Y-1785714D01*
X114173988Y-1785714D02*
X114173988Y-2000000D01*
X114173988Y-2000000D02*
X114245417Y-2142857D01*
X114245417Y-2142857D02*
X114316845Y-2214286D01*
X115031131Y-857143D02*
X115102560Y-785714D01*
X115102560Y-785714D02*
X115173988Y-857143D01*
X115173988Y-857143D02*
X115102560Y-928571D01*
X115102560Y-928571D02*
X115031131Y-857143D01*
X115031131Y-857143D02*
X115173988Y-857143D01*
X115173988Y-142857D02*
X114173988Y-142857D01*
X114459702Y-142857D02*
X114316845Y-71428D01*
X114316845Y-71428D02*
X114245417Y0D01*
X114245417Y0D02*
X114173988Y142858D01*
X114173988Y142858D02*
X114173988Y285715D01*
X114173988Y571429D02*
X114173988Y1142857D01*
X113673988Y785714D02*
X114959702Y785714D01*
X114959702Y785714D02*
X115102560Y857143D01*
X115102560Y857143D02*
X115173988Y1000000D01*
X115173988Y1000000D02*
X115173988Y1142857D01*
X114173988Y1428572D02*
X114173988Y2000000D01*
X115173988Y1642857D02*
X113888274Y1642857D01*
X113888274Y1642857D02*
X113745417Y1714286D01*
X113745417Y1714286D02*
X113673988Y1857143D01*
X113673988Y1857143D02*
X113673988Y2000000D01*
X115173988Y3142857D02*
X113673988Y3142857D01*
X115102560Y3142857D02*
X115173988Y3000000D01*
X115173988Y3000000D02*
X115173988Y2714286D01*
X115173988Y2714286D02*
X115102560Y2571429D01*
X115102560Y2571429D02*
X115031131Y2500000D01*
X115031131Y2500000D02*
X114888274Y2428572D01*
X114888274Y2428572D02*
X114459702Y2428572D01*
X114459702Y2428572D02*
X114316845Y2500000D01*
X114316845Y2500000D02*
X114245417Y2571429D01*
X114245417Y2571429D02*
X114173988Y2714286D01*
X114173988Y2714286D02*
X114173988Y3000000D01*
X114173988Y3000000D02*
X114245417Y3142857D01*
X115031131Y3857143D02*
X115102560Y3928572D01*
X115102560Y3928572D02*
X115173988Y3857143D01*
X115173988Y3857143D02*
X115102560Y3785715D01*
X115102560Y3785715D02*
X115031131Y3857143D01*
X115031131Y3857143D02*
X115173988Y3857143D01*
X115173988Y4571429D02*
X114173988Y4571429D01*
X113673988Y4571429D02*
X113745417Y4500001D01*
X113745417Y4500001D02*
X113816845Y4571429D01*
X113816845Y4571429D02*
X113745417Y4642858D01*
X113745417Y4642858D02*
X113673988Y4571429D01*
X113673988Y4571429D02*
X113816845Y4571429D01*
X115173988Y5500001D02*
X115102560Y5357144D01*
X115102560Y5357144D02*
X115031131Y5285715D01*
X115031131Y5285715D02*
X114888274Y5214287D01*
X114888274Y5214287D02*
X114459702Y5214287D01*
X114459702Y5214287D02*
X114316845Y5285715D01*
X114316845Y5285715D02*
X114245417Y5357144D01*
X114245417Y5357144D02*
X114173988Y5500001D01*
X114173988Y5500001D02*
X114173988Y5714287D01*
X114173988Y5714287D02*
X114245417Y5857144D01*
X114245417Y5857144D02*
X114316845Y5928572D01*
X114316845Y5928572D02*
X114459702Y6000001D01*
X114459702Y6000001D02*
X114888274Y6000001D01*
X114888274Y6000001D02*
X115031131Y5928572D01*
X115031131Y5928572D02*
X115102560Y5857144D01*
X115102560Y5857144D02*
X115173988Y5714287D01*
X115173988Y5714287D02*
X115173988Y5500001D01*
D10*
X46175476Y-45936819D02*
X46175476Y-46651104D01*
X46175476Y-46651104D02*
X46127857Y-46793961D01*
X46127857Y-46793961D02*
X46032619Y-46889200D01*
X46032619Y-46889200D02*
X45889762Y-46936819D01*
X45889762Y-46936819D02*
X45794524Y-46936819D01*
X47175476Y-46936819D02*
X46604048Y-46936819D01*
X46889762Y-46936819D02*
X46889762Y-45936819D01*
X46889762Y-45936819D02*
X46794524Y-46079676D01*
X46794524Y-46079676D02*
X46699286Y-46174914D01*
X46699286Y-46174914D02*
X46604048Y-46222533D01*
X48032619Y-46270152D02*
X48032619Y-46936819D01*
X47794524Y-45889200D02*
X47556429Y-46603485D01*
X47556429Y-46603485D02*
X48175476Y-46603485D01*
X85560819Y-24606094D02*
X86370342Y-24606094D01*
X86370342Y-24606094D02*
X86465580Y-24558475D01*
X86465580Y-24558475D02*
X86513200Y-24510856D01*
X86513200Y-24510856D02*
X86560819Y-24415618D01*
X86560819Y-24415618D02*
X86560819Y-24225142D01*
X86560819Y-24225142D02*
X86513200Y-24129904D01*
X86513200Y-24129904D02*
X86465580Y-24082285D01*
X86465580Y-24082285D02*
X86370342Y-24034666D01*
X86370342Y-24034666D02*
X85560819Y-24034666D01*
X86560819Y-23034666D02*
X86560819Y-23606094D01*
X86560819Y-23320380D02*
X85560819Y-23320380D01*
X85560819Y-23320380D02*
X85703676Y-23415618D01*
X85703676Y-23415618D02*
X85798914Y-23510856D01*
X85798914Y-23510856D02*
X85846533Y-23606094D01*
X85560819Y-22129904D02*
X85560819Y-22606094D01*
X85560819Y-22606094D02*
X86037009Y-22653713D01*
X86037009Y-22653713D02*
X85989390Y-22606094D01*
X85989390Y-22606094D02*
X85941771Y-22510856D01*
X85941771Y-22510856D02*
X85941771Y-22272761D01*
X85941771Y-22272761D02*
X85989390Y-22177523D01*
X85989390Y-22177523D02*
X86037009Y-22129904D01*
X86037009Y-22129904D02*
X86132247Y-22082285D01*
X86132247Y-22082285D02*
X86370342Y-22082285D01*
X86370342Y-22082285D02*
X86465580Y-22129904D01*
X86465580Y-22129904D02*
X86513200Y-22177523D01*
X86513200Y-22177523D02*
X86560819Y-22272761D01*
X86560819Y-22272761D02*
X86560819Y-22510856D01*
X86560819Y-22510856D02*
X86513200Y-22606094D01*
X86513200Y-22606094D02*
X86465580Y-22653713D01*
X7332667Y-8281200D02*
X7475524Y-8328819D01*
X7475524Y-8328819D02*
X7713619Y-8328819D01*
X7713619Y-8328819D02*
X7808857Y-8281200D01*
X7808857Y-8281200D02*
X7856476Y-8233580D01*
X7856476Y-8233580D02*
X7904095Y-8138342D01*
X7904095Y-8138342D02*
X7904095Y-8043104D01*
X7904095Y-8043104D02*
X7856476Y-7947866D01*
X7856476Y-7947866D02*
X7808857Y-7900247D01*
X7808857Y-7900247D02*
X7713619Y-7852628D01*
X7713619Y-7852628D02*
X7523143Y-7805009D01*
X7523143Y-7805009D02*
X7427905Y-7757390D01*
X7427905Y-7757390D02*
X7380286Y-7709771D01*
X7380286Y-7709771D02*
X7332667Y-7614533D01*
X7332667Y-7614533D02*
X7332667Y-7519295D01*
X7332667Y-7519295D02*
X7380286Y-7424057D01*
X7380286Y-7424057D02*
X7427905Y-7376438D01*
X7427905Y-7376438D02*
X7523143Y-7328819D01*
X7523143Y-7328819D02*
X7761238Y-7328819D01*
X7761238Y-7328819D02*
X7904095Y-7376438D01*
X8237429Y-7328819D02*
X8475524Y-8328819D01*
X8475524Y-8328819D02*
X8666000Y-7614533D01*
X8666000Y-7614533D02*
X8856476Y-8328819D01*
X8856476Y-8328819D02*
X9094572Y-7328819D01*
X9999333Y-8328819D02*
X9427905Y-8328819D01*
X9713619Y-8328819D02*
X9713619Y-7328819D01*
X9713619Y-7328819D02*
X9618381Y-7471676D01*
X9618381Y-7471676D02*
X9523143Y-7566914D01*
X9523143Y-7566914D02*
X9427905Y-7614533D01*
%TO.C,kibuzzard-653BD666*%
G36*
X115499356Y-39697025D02*
G01*
X115528527Y-39755366D01*
X115538250Y-39841487D01*
X115538250Y-39884350D01*
X115242975Y-39884350D01*
X115239006Y-39852600D01*
X115238212Y-39825612D01*
X115247341Y-39755366D01*
X115274725Y-39700200D01*
X115321556Y-39664481D01*
X115389025Y-39652575D01*
X115499356Y-39697025D01*
G37*
G36*
X115639056Y-38026777D02*
G01*
X115703350Y-38030944D01*
X115812094Y-38053169D01*
X115885912Y-38100794D01*
X115912900Y-38180962D01*
X115885912Y-38261925D01*
X115812887Y-38308756D01*
X115704144Y-38330981D01*
X115639255Y-38335148D01*
X115570000Y-38336537D01*
X115500944Y-38335148D01*
X115436650Y-38330981D01*
X115327906Y-38308756D01*
X115254087Y-38261925D01*
X115227100Y-38180962D01*
X115254087Y-38100000D01*
X115327112Y-38053169D01*
X115435856Y-38030944D01*
X115500745Y-38026777D01*
X115570000Y-38025387D01*
X115639056Y-38026777D01*
G37*
G36*
X116413492Y-38179375D02*
G01*
X116413492Y-39076312D01*
X116413492Y-39389050D01*
X116413492Y-40859075D01*
X116413492Y-41384537D01*
X116413492Y-41689337D01*
X116413492Y-41689470D01*
X116409430Y-41772146D01*
X116397284Y-41854027D01*
X116377171Y-41934322D01*
X116349285Y-42012260D01*
X116313893Y-42087089D01*
X116271338Y-42158089D01*
X116222028Y-42224575D01*
X116166439Y-42285908D01*
X116105105Y-42341498D01*
X116038619Y-42390807D01*
X115967619Y-42433363D01*
X115892790Y-42468754D01*
X115814853Y-42496641D01*
X115734557Y-42516754D01*
X115652677Y-42528900D01*
X115570000Y-42532961D01*
X115487323Y-42528900D01*
X115405443Y-42516754D01*
X115325147Y-42496641D01*
X115247210Y-42468754D01*
X115172381Y-42433363D01*
X115101381Y-42390807D01*
X115034895Y-42341498D01*
X114973561Y-42285908D01*
X114917972Y-42224575D01*
X114868662Y-42158089D01*
X114826107Y-42087089D01*
X114790715Y-42012260D01*
X114762829Y-41934322D01*
X114742716Y-41854027D01*
X114730570Y-41772146D01*
X114726508Y-41689470D01*
X114726508Y-41689338D01*
X114726508Y-41338500D01*
X115057237Y-41338500D01*
X115065881Y-41435778D01*
X115091810Y-41518064D01*
X115135025Y-41585356D01*
X115227894Y-41652627D01*
X115350925Y-41675050D01*
X115467606Y-41649650D01*
X115546187Y-41585356D01*
X115598575Y-41498838D01*
X115635087Y-41406762D01*
X115662869Y-41340087D01*
X115696206Y-41279762D01*
X115738275Y-41235312D01*
X115792250Y-41217850D01*
X115839081Y-41224994D01*
X115880356Y-41251187D01*
X115908931Y-41302781D01*
X115919250Y-41384537D01*
X115913694Y-41463714D01*
X115897025Y-41529794D01*
X115849400Y-41632187D01*
X116008150Y-41689337D01*
X116056569Y-41579800D01*
X116076214Y-41494472D01*
X116082762Y-41384537D01*
X116074384Y-41273148D01*
X116049249Y-41182396D01*
X116007356Y-41112281D01*
X115916273Y-41045011D01*
X115793837Y-41022587D01*
X115719820Y-41029334D01*
X115659694Y-41049575D01*
X115570794Y-41118631D01*
X115513644Y-41210706D01*
X115474750Y-41306750D01*
X115450937Y-41367869D01*
X115421569Y-41423431D01*
X115383469Y-41463912D01*
X115333462Y-41479787D01*
X115270844Y-41462501D01*
X115233274Y-41410643D01*
X115220750Y-41324212D01*
X115236625Y-41212294D01*
X115274725Y-41124187D01*
X115123912Y-41067037D01*
X115077875Y-41180544D01*
X115062397Y-41253767D01*
X115057237Y-41338500D01*
X114726508Y-41338500D01*
X114726508Y-40859075D01*
X115079462Y-40859075D01*
X116062125Y-40859075D01*
X116062125Y-40228837D01*
X115900200Y-40228837D01*
X115900200Y-40663812D01*
X115623975Y-40663812D01*
X115623975Y-40316150D01*
X115462050Y-40316150D01*
X115462050Y-40663812D01*
X115241387Y-40663812D01*
X115241387Y-40263762D01*
X115079462Y-40263762D01*
X115079462Y-40859075D01*
X114726508Y-40859075D01*
X114726508Y-39825612D01*
X115068350Y-39825612D01*
X115069937Y-39881175D01*
X115073906Y-39947850D01*
X115081844Y-40016906D01*
X115093750Y-40079612D01*
X116062125Y-40079612D01*
X116062125Y-39884350D01*
X115700175Y-39884350D01*
X115700175Y-39782750D01*
X115790067Y-39728973D01*
X115878769Y-39678769D01*
X115968661Y-39633327D01*
X116062125Y-39593837D01*
X116062125Y-39389050D01*
X115958144Y-39434294D01*
X115848606Y-39489062D01*
X115743831Y-39547800D01*
X115652550Y-39604950D01*
X115607703Y-39535497D01*
X115546187Y-39489062D01*
X115472369Y-39462869D01*
X115390612Y-39454137D01*
X115313420Y-39460686D01*
X115246944Y-39480331D01*
X115146137Y-39555737D01*
X115111609Y-39609712D01*
X115087400Y-39673212D01*
X115073112Y-39745444D01*
X115068350Y-39825612D01*
X114726508Y-39825612D01*
X114726508Y-39350950D01*
X115079462Y-39350950D01*
X115168362Y-39332694D01*
X115279487Y-39306500D01*
X115362655Y-39285510D01*
X115449174Y-39262756D01*
X115539044Y-39238237D01*
X115630678Y-39212308D01*
X115722488Y-39185321D01*
X115814475Y-39157275D01*
X115945444Y-39115603D01*
X116062125Y-39076312D01*
X116062125Y-38874700D01*
X115977547Y-38844361D01*
X115891028Y-38814728D01*
X115802569Y-38785800D01*
X115713669Y-38758019D01*
X115625827Y-38731825D01*
X115539044Y-38707219D01*
X115412639Y-38673484D01*
X115292187Y-38643719D01*
X115180269Y-38618120D01*
X115079462Y-38596887D01*
X115079462Y-38801675D01*
X115162012Y-38815962D01*
X115257262Y-38833425D01*
X115360252Y-38853269D01*
X115466019Y-38874700D01*
X115572381Y-38897719D01*
X115677156Y-38922325D01*
X115775383Y-38947725D01*
X115862100Y-38973125D01*
X115774192Y-38998723D01*
X115675569Y-39024719D01*
X115570794Y-39050119D01*
X115464431Y-39073931D01*
X115358862Y-39095958D01*
X115256469Y-39116000D01*
X115161814Y-39132669D01*
X115079462Y-39144575D01*
X115079462Y-39350950D01*
X114726508Y-39350950D01*
X114726508Y-38180962D01*
X115057237Y-38180962D01*
X115071613Y-38283974D01*
X115114740Y-38370757D01*
X115186619Y-38441312D01*
X115259098Y-38482290D01*
X115347155Y-38511559D01*
X115450789Y-38529121D01*
X115570000Y-38534975D01*
X115689211Y-38529270D01*
X115792845Y-38512155D01*
X115880902Y-38483629D01*
X115953381Y-38443694D01*
X116025260Y-38373756D01*
X116068387Y-38285649D01*
X116082762Y-38179375D01*
X116068387Y-38075658D01*
X116025260Y-37988875D01*
X115953381Y-37919025D01*
X115880902Y-37878742D01*
X115792845Y-37849969D01*
X115689211Y-37832705D01*
X115570000Y-37826950D01*
X115450789Y-37832605D01*
X115347155Y-37849572D01*
X115259098Y-37877849D01*
X115186619Y-37917437D01*
X115114740Y-37986935D01*
X115071613Y-38074776D01*
X115057237Y-38180962D01*
X114726508Y-38180962D01*
X114726508Y-37403087D01*
X115057237Y-37403087D01*
X115065175Y-37485836D01*
X115088987Y-37568981D01*
X115129469Y-37647364D01*
X115187412Y-37715825D01*
X115323937Y-37618987D01*
X115249325Y-37518975D01*
X115227100Y-37422137D01*
X115259644Y-37330062D01*
X115352512Y-37293550D01*
X115436650Y-37322919D01*
X115522375Y-37397531D01*
X115567817Y-37444362D01*
X115615244Y-37494369D01*
X115665647Y-37544375D01*
X115720019Y-37591206D01*
X115778955Y-37632481D01*
X115843050Y-37665819D01*
X115912900Y-37687845D01*
X115989100Y-37695187D01*
X116022437Y-37695981D01*
X116062125Y-37692012D01*
X116062125Y-37050662D01*
X115900200Y-37050662D01*
X115900200Y-37472937D01*
X115847812Y-37456269D01*
X115791456Y-37415787D01*
X115737481Y-37364987D01*
X115692237Y-37317362D01*
X115612862Y-37236400D01*
X115527137Y-37164962D01*
X115435856Y-37114162D01*
X115338225Y-37095112D01*
X115215194Y-37120512D01*
X115127087Y-37188775D01*
X115074700Y-37287200D01*
X115057237Y-37403087D01*
X114726508Y-37403087D01*
X114726508Y-37050662D01*
X114726508Y-37050530D01*
X114730570Y-36967854D01*
X114742716Y-36885973D01*
X114762829Y-36805678D01*
X114790715Y-36727740D01*
X114826107Y-36652911D01*
X114868662Y-36581911D01*
X114917972Y-36515425D01*
X114973561Y-36454092D01*
X115034895Y-36398502D01*
X115101381Y-36349193D01*
X115172381Y-36306637D01*
X115247210Y-36271246D01*
X115325147Y-36243359D01*
X115405443Y-36223246D01*
X115487323Y-36211100D01*
X115570000Y-36207039D01*
X115652677Y-36211100D01*
X115734557Y-36223246D01*
X115814853Y-36243359D01*
X115892790Y-36271246D01*
X115967619Y-36306637D01*
X116038619Y-36349193D01*
X116105105Y-36398502D01*
X116166439Y-36454092D01*
X116222028Y-36515425D01*
X116271338Y-36581911D01*
X116313893Y-36652911D01*
X116349285Y-36727740D01*
X116377171Y-36805678D01*
X116397284Y-36885973D01*
X116409430Y-36967854D01*
X116413492Y-37050530D01*
X116413492Y-37050662D01*
X116413492Y-38179375D01*
G37*
D12*
%TO.C,J14*%
X49590000Y-42358000D02*
X49590000Y-43688000D01*
X48260000Y-42358000D02*
X49590000Y-42358000D01*
X46990000Y-42358000D02*
X44390000Y-42358000D01*
X46990000Y-42358000D02*
X46990000Y-45018000D01*
X44390000Y-42358000D02*
X44390000Y-45018000D01*
X46990000Y-45018000D02*
X44390000Y-45018000D01*
%TO.C,J2*%
X16570000Y14030000D02*
X16570000Y12700000D01*
X15240000Y14030000D02*
X16570000Y14030000D01*
X13970000Y14030000D02*
X3750000Y14030000D01*
X13970000Y14030000D02*
X13970000Y11370000D01*
X3750000Y14030000D02*
X3750000Y11370000D01*
X13970000Y11370000D02*
X3750000Y11370000D01*
%TO.C,kibuzzard-653BDB0C*%
G36*
X7628572Y8879423D02*
G01*
X7716441Y8859421D01*
X7805023Y8836561D01*
X7900035Y8810129D01*
X7805023Y8783697D01*
X7716441Y8760837D01*
X7628572Y8741549D01*
X7537132Y8724404D01*
X7537132Y8897283D01*
X7628572Y8879423D01*
G37*
G36*
X8369141Y9833501D02*
G01*
X8369141Y7132389D01*
X8369141Y7132270D01*
X7620000Y6632843D01*
X6870859Y7132270D01*
X6870859Y7132389D01*
X6870859Y8162905D01*
X7168515Y8162905D01*
X7173873Y8081109D01*
X7189946Y8010029D01*
X7215664Y7949664D01*
X7249954Y7900015D01*
X7340679Y7834293D01*
X7454265Y7812861D01*
X7537132Y7822545D01*
X7606665Y7851596D01*
X7662862Y7900015D01*
X7705407Y7968119D01*
X7733982Y8056225D01*
X7748587Y8164334D01*
X7830026Y8157190D01*
X7925752Y8150046D01*
X7925752Y7845723D01*
X8071485Y7845723D01*
X8071485Y8297208D01*
X7962364Y8302565D01*
X7849314Y8310066D01*
X7733050Y8320068D01*
X7614285Y8332926D01*
X7611249Y8234700D01*
X7602141Y8157190D01*
X7567851Y8053606D01*
X7514987Y8005028D01*
X7447121Y7992884D01*
X7399972Y8000028D01*
X7359253Y8026460D01*
X7329964Y8079323D01*
X7318534Y8164334D01*
X7321748Y8231128D01*
X7331392Y8285778D01*
X7359967Y8365788D01*
X7214235Y8401506D01*
X7198519Y8360787D01*
X7183517Y8301494D01*
X7172801Y8232914D01*
X7168515Y8162905D01*
X6870859Y8162905D01*
X6870859Y8652966D01*
X7187089Y8652966D01*
X7187089Y8464371D01*
X7287358Y8487946D01*
X7384713Y8511806D01*
X7479154Y8535952D01*
X7570680Y8560383D01*
X7659291Y8585101D01*
X7766759Y8616221D01*
X7871281Y8647430D01*
X7972857Y8678729D01*
X8071485Y8710116D01*
X8071485Y8901569D01*
X7973660Y8931841D01*
X7873067Y8962648D01*
X7769706Y8993991D01*
X7663577Y9025870D01*
X7575709Y9051531D01*
X7484126Y9077077D01*
X7388828Y9102508D01*
X7289816Y9127826D01*
X7187089Y9153029D01*
X7187089Y8970149D01*
X7391400Y8930144D01*
X7391400Y8694400D01*
X7187089Y8652966D01*
X6870859Y8652966D01*
X6870859Y9833501D01*
X6870859Y10131157D01*
X8369141Y10131157D01*
X8369141Y9833501D01*
G37*
%TO.C,kibuzzard-653BD15F*%
G36*
X104750156Y-10585053D02*
G01*
X104658716Y-10567194D01*
X104570848Y-10547191D01*
X104482265Y-10524331D01*
X104387253Y-10497899D01*
X104482265Y-10471467D01*
X104570848Y-10448607D01*
X104658716Y-10429319D01*
X104750156Y-10412174D01*
X104750156Y-10585053D01*
G37*
G36*
X105397856Y-10340737D02*
G01*
X105397856Y-10840799D01*
X105397856Y-10840918D01*
X105394245Y-10914417D01*
X105383447Y-10987208D01*
X105365567Y-11058590D01*
X105340776Y-11127876D01*
X105309314Y-11194398D01*
X105271482Y-11257516D01*
X105227646Y-11316622D01*
X105178228Y-11371146D01*
X105123703Y-11420565D01*
X105064597Y-11464401D01*
X105001479Y-11502232D01*
X104934957Y-11533695D01*
X104865672Y-11558486D01*
X104794290Y-11576366D01*
X104721499Y-11587163D01*
X104648000Y-11590774D01*
X104574501Y-11587163D01*
X104501710Y-11576366D01*
X104430328Y-11558486D01*
X104361043Y-11533695D01*
X104294521Y-11502232D01*
X104231403Y-11464401D01*
X104172297Y-11420565D01*
X104117772Y-11371146D01*
X104068354Y-11316622D01*
X104024518Y-11257516D01*
X103986686Y-11194398D01*
X103955224Y-11127876D01*
X103930433Y-11058590D01*
X103912553Y-10987208D01*
X103901755Y-10914417D01*
X103898144Y-10840918D01*
X103898144Y-10840799D01*
X103898144Y-10589339D01*
X104215803Y-10589339D01*
X104313628Y-10619611D01*
X104414221Y-10650418D01*
X104517582Y-10681762D01*
X104623711Y-10713641D01*
X104711579Y-10739301D01*
X104803162Y-10764847D01*
X104898460Y-10790279D01*
X104997472Y-10815596D01*
X105100199Y-10840799D01*
X105100199Y-10657919D01*
X104895888Y-10617914D01*
X104895888Y-10382171D01*
X105100199Y-10340737D01*
X105100199Y-10152142D01*
X104999930Y-10175716D01*
X104902575Y-10199576D01*
X104808134Y-10223722D01*
X104716609Y-10248154D01*
X104627997Y-10272871D01*
X104520529Y-10303991D01*
X104416007Y-10335200D01*
X104314432Y-10366499D01*
X104215803Y-10397887D01*
X104215803Y-10589339D01*
X103898144Y-10589339D01*
X103898144Y-9796383D01*
X104195801Y-9796383D01*
X104202944Y-9870857D01*
X104224376Y-9945687D01*
X104260809Y-10016232D01*
X104312958Y-10077847D01*
X104435831Y-9990693D01*
X104368679Y-9900682D01*
X104348677Y-9813528D01*
X104377966Y-9730661D01*
X104461548Y-9697799D01*
X104537272Y-9724231D01*
X104614424Y-9791382D01*
X104655322Y-9833531D01*
X104698006Y-9878536D01*
X104743369Y-9923542D01*
X104792304Y-9965690D01*
X104845346Y-10002837D01*
X104903032Y-10032841D01*
X104965897Y-10052665D01*
X105034477Y-10059273D01*
X105064481Y-10059987D01*
X105100199Y-10056416D01*
X105100199Y-9479201D01*
X104954467Y-9479201D01*
X104954467Y-9859248D01*
X104907318Y-9844246D01*
X104856598Y-9807813D01*
X104808020Y-9762093D01*
X104767301Y-9719231D01*
X104695863Y-9646364D01*
X104618711Y-9582071D01*
X104536557Y-9536351D01*
X104448689Y-9519206D01*
X104337961Y-9542066D01*
X104258666Y-9603502D01*
X104211517Y-9692084D01*
X104195801Y-9796383D01*
X103898144Y-9796383D01*
X103898144Y-9479201D01*
X103898144Y-9479082D01*
X103901755Y-9405583D01*
X103912553Y-9332792D01*
X103930433Y-9261410D01*
X103955224Y-9192124D01*
X103986686Y-9125602D01*
X104024518Y-9062484D01*
X104068354Y-9003378D01*
X104117772Y-8948854D01*
X104172297Y-8899435D01*
X104231403Y-8855599D01*
X104294521Y-8817768D01*
X104361043Y-8786305D01*
X104430328Y-8761514D01*
X104501710Y-8743634D01*
X104574501Y-8732837D01*
X104648000Y-8729226D01*
X104721499Y-8732837D01*
X104794290Y-8743634D01*
X104865672Y-8761514D01*
X104934957Y-8786305D01*
X105001479Y-8817768D01*
X105064597Y-8855599D01*
X105123703Y-8899435D01*
X105178228Y-8948854D01*
X105227646Y-9003378D01*
X105271482Y-9062484D01*
X105309314Y-9125602D01*
X105340776Y-9192124D01*
X105365567Y-9261410D01*
X105383447Y-9332792D01*
X105394245Y-9405583D01*
X105397856Y-9479082D01*
X105397856Y-9479201D01*
X105397856Y-10340737D01*
G37*
%TO.C,C19*%
X78437500Y29394500D02*
X77650000Y29394500D01*
X78043750Y29000750D02*
X78043750Y29788250D01*
X77410000Y28896437D02*
X77410000Y30182000D01*
X77410000Y28896437D02*
X76345563Y27832000D01*
X77410000Y33587563D02*
X77410000Y32302000D01*
X77410000Y33587563D02*
X76345563Y34652000D01*
X76345563Y27832000D02*
X70590000Y27832000D01*
X76345563Y34652000D02*
X70590000Y34652000D01*
X70590000Y27832000D02*
X70590000Y30182000D01*
X70590000Y34652000D02*
X70590000Y32302000D01*
%TO.C,X1*%
X88946000Y-7844750D02*
X92246000Y-7844750D01*
X92246000Y-7844750D02*
X92246000Y-3844750D01*
%TO.C,C7*%
X79179625Y2030580D02*
X79179625Y1749420D01*
X78159625Y2030580D02*
X78159625Y1749420D01*
%TO.C,kibuzzard-653BD166*%
G36*
X104740869Y-417195D02*
G01*
X104649429Y-399336D01*
X104561561Y-379333D01*
X104472978Y-356473D01*
X104377966Y-330041D01*
X104472978Y-303609D01*
X104561561Y-280749D01*
X104649429Y-261461D01*
X104740869Y-244316D01*
X104740869Y-417195D01*
G37*
G36*
X105407143Y-172879D02*
G01*
X105407143Y-672941D01*
X105407143Y-673060D01*
X105403487Y-747469D01*
X105392556Y-821162D01*
X105374454Y-893428D01*
X105349356Y-963572D01*
X105317504Y-1030918D01*
X105279204Y-1094817D01*
X105234825Y-1154655D01*
X105184795Y-1209855D01*
X105129595Y-1259885D01*
X105069757Y-1304264D01*
X105005857Y-1342564D01*
X104938511Y-1374417D01*
X104868367Y-1399514D01*
X104796101Y-1417616D01*
X104722409Y-1428547D01*
X104648000Y-1432203D01*
X104573591Y-1428547D01*
X104499899Y-1417616D01*
X104427633Y-1399514D01*
X104357489Y-1374417D01*
X104290143Y-1342564D01*
X104226243Y-1304264D01*
X104166405Y-1259885D01*
X104111205Y-1209855D01*
X104061175Y-1154655D01*
X104016796Y-1094817D01*
X103978496Y-1030918D01*
X103946644Y-963572D01*
X103921546Y-893428D01*
X103903444Y-821162D01*
X103892513Y-747469D01*
X103888857Y-673060D01*
X103888857Y-672941D01*
X103888857Y-421481D01*
X104206516Y-421481D01*
X104304341Y-451753D01*
X104404934Y-482560D01*
X104508295Y-513904D01*
X104614424Y-545783D01*
X104702292Y-571443D01*
X104793875Y-596989D01*
X104889173Y-622421D01*
X104988185Y-647738D01*
X105090912Y-672941D01*
X105090912Y-490061D01*
X104886601Y-450056D01*
X104886601Y-214313D01*
X105090912Y-172879D01*
X105090912Y15716D01*
X104990643Y-7858D01*
X104893288Y-31718D01*
X104798847Y-55864D01*
X104707322Y-80296D01*
X104618711Y-105013D01*
X104511242Y-136133D01*
X104406720Y-167342D01*
X104305145Y-198641D01*
X104206516Y-230029D01*
X104206516Y-421481D01*
X103888857Y-421481D01*
X103888857Y348615D01*
X104186514Y348615D01*
X104193122Y272713D01*
X104212946Y205026D01*
X104265095Y102870D01*
X104393682Y165735D01*
X104352963Y250746D01*
X104336532Y350044D01*
X104364393Y430768D01*
X104440831Y460058D01*
X104495124Y446484D01*
X104529414Y411480D01*
X104547987Y362903D01*
X104553702Y308610D01*
X104553702Y242888D01*
X104699435Y242888D01*
X104699435Y297180D01*
X104706400Y375404D01*
X104727296Y438626D01*
X104765693Y480417D01*
X104825165Y494347D01*
X104920891Y457914D01*
X104949823Y408087D01*
X104959467Y331470D01*
X104955538Y263783D01*
X104943751Y206454D01*
X104913747Y121444D01*
X105060909Y87154D01*
X105076625Y131445D01*
X105092341Y193596D01*
X105104486Y263604D01*
X105109486Y332899D01*
X105104307Y415409D01*
X105088769Y485775D01*
X105063766Y544354D01*
X105030191Y591503D01*
X104940894Y652939D01*
X104828022Y672941D01*
X104756228Y663476D01*
X104695149Y635079D01*
X104646214Y589538D01*
X104610852Y528638D01*
X104536557Y608648D01*
X104435116Y638651D01*
X104336532Y621506D01*
X104257237Y568643D01*
X104205087Y477917D01*
X104191157Y418088D01*
X104186514Y348615D01*
X103888857Y348615D01*
X103888857Y672941D01*
X103888857Y673060D01*
X103892513Y747469D01*
X103903444Y821162D01*
X103921546Y893428D01*
X103946644Y963572D01*
X103978496Y1030918D01*
X104016796Y1094817D01*
X104061175Y1154655D01*
X104111205Y1209855D01*
X104166405Y1259885D01*
X104226243Y1304264D01*
X104290143Y1342564D01*
X104357489Y1374417D01*
X104427633Y1399514D01*
X104499899Y1417616D01*
X104573591Y1428547D01*
X104648000Y1432203D01*
X104722409Y1428547D01*
X104796101Y1417616D01*
X104868367Y1399514D01*
X104938511Y1374417D01*
X105005857Y1342564D01*
X105069757Y1304264D01*
X105129595Y1259885D01*
X105184795Y1209855D01*
X105234825Y1154655D01*
X105279204Y1094817D01*
X105317504Y1030918D01*
X105349356Y963572D01*
X105374454Y893428D01*
X105392556Y821162D01*
X105403487Y747469D01*
X105407142Y673060D01*
X105407143Y673060D01*
X105407143Y672941D01*
X105407143Y332899D01*
X105407143Y-172879D01*
G37*
%TO.C,kibuzzard-653BDB46*%
G36*
X13459143Y3019351D02*
G01*
X13459143Y3019232D01*
X13459143Y-479232D01*
X13459143Y-479351D01*
X12700000Y-985446D01*
X11940857Y-479351D01*
X11940857Y-479232D01*
X11940857Y310594D01*
X12257088Y310594D01*
X12257088Y129143D01*
X12333208Y101838D01*
X12411075Y75168D01*
X12490688Y49133D01*
X12570698Y24130D01*
X12649756Y556D01*
X12727861Y-21590D01*
X12841625Y-51951D01*
X12950031Y-78740D01*
X13050758Y-101779D01*
X13141484Y-120888D01*
X13141484Y63421D01*
X13067189Y76279D01*
X12981464Y91996D01*
X12888774Y109855D01*
X12793583Y129143D01*
X12697857Y149860D01*
X12603559Y172006D01*
X12515155Y194866D01*
X12437110Y217726D01*
X12516227Y240764D01*
X12604988Y264160D01*
X12699286Y287020D01*
X12795012Y308451D01*
X12890024Y328275D01*
X12982178Y346313D01*
X13067367Y361315D01*
X13141484Y372031D01*
X13141484Y557768D01*
X13061474Y541338D01*
X12961461Y517763D01*
X12886611Y498872D01*
X12808744Y478393D01*
X12727861Y456327D01*
X12645390Y432991D01*
X12562761Y408702D01*
X12479973Y383461D01*
X12362101Y345956D01*
X12257088Y310594D01*
X11940857Y310594D01*
X11940857Y986393D01*
X12238514Y986393D01*
X12243693Y903883D01*
X12259231Y833517D01*
X12284234Y774938D01*
X12317809Y727789D01*
X12407106Y666353D01*
X12519978Y646351D01*
X12591772Y655816D01*
X12652851Y684212D01*
X12701786Y729754D01*
X12737148Y790654D01*
X12811443Y710644D01*
X12912884Y680641D01*
X13011468Y697786D01*
X13090763Y750649D01*
X13142913Y841375D01*
X13156843Y901204D01*
X13161486Y970677D01*
X13154878Y1046579D01*
X13135054Y1114266D01*
X13082905Y1216422D01*
X12954318Y1153557D01*
X12995037Y1068546D01*
X13011468Y969248D01*
X12983607Y888524D01*
X12907169Y859234D01*
X12852876Y872808D01*
X12818586Y907812D01*
X12800013Y956389D01*
X12794298Y1010682D01*
X12794298Y1076404D01*
X12648565Y1076404D01*
X12648565Y1022112D01*
X12641600Y943888D01*
X12620704Y880666D01*
X12582307Y838875D01*
X12522835Y824944D01*
X12427109Y861378D01*
X12398177Y911205D01*
X12388533Y987822D01*
X12392462Y1055509D01*
X12404249Y1112838D01*
X12434253Y1197848D01*
X12287091Y1232138D01*
X12271375Y1187847D01*
X12255659Y1125696D01*
X12243514Y1055688D01*
X12238514Y986393D01*
X11940857Y986393D01*
X11940857Y1646476D01*
X12241371Y1646476D01*
X12274233Y1557893D01*
X12369959Y1519317D01*
X12462828Y1557893D01*
X12495689Y1646476D01*
X12487116Y1695053D01*
X12462828Y1735773D01*
X12423537Y1764348D01*
X12369959Y1775063D01*
X12314952Y1764348D01*
X12274947Y1735773D01*
X12249944Y1695053D01*
X12241371Y1646476D01*
X11940857Y1646476D01*
X11940857Y2415143D01*
X12238514Y2415143D01*
X12243693Y2332633D01*
X12259231Y2262267D01*
X12284234Y2203688D01*
X12317809Y2156539D01*
X12407106Y2095103D01*
X12519978Y2075101D01*
X12591772Y2084566D01*
X12652851Y2112963D01*
X12701786Y2158504D01*
X12737148Y2219404D01*
X12811443Y2139394D01*
X12912884Y2109391D01*
X13011468Y2126536D01*
X13090763Y2179399D01*
X13142913Y2270125D01*
X13156843Y2329954D01*
X13161486Y2399427D01*
X13154878Y2475329D01*
X13135054Y2543016D01*
X13082905Y2645172D01*
X12954318Y2582307D01*
X12995037Y2497296D01*
X13011468Y2397998D01*
X12983607Y2317274D01*
X12907169Y2287984D01*
X12852876Y2301558D01*
X12818586Y2336562D01*
X12800013Y2385139D01*
X12794298Y2439432D01*
X12794298Y2505154D01*
X12648565Y2505154D01*
X12648565Y2450862D01*
X12641600Y2372638D01*
X12620704Y2309416D01*
X12582307Y2267625D01*
X12522835Y2253694D01*
X12427109Y2290128D01*
X12398177Y2339955D01*
X12388533Y2416572D01*
X12392462Y2484259D01*
X12404249Y2541588D01*
X12434253Y2626598D01*
X12287091Y2660888D01*
X12271375Y2616597D01*
X12255659Y2554446D01*
X12243514Y2484438D01*
X12238514Y2415143D01*
X11940857Y2415143D01*
X11940857Y3019232D01*
X11940857Y3019351D01*
X12700000Y3525446D01*
X13459143Y3019351D01*
G37*
%TO.C,C18*%
X14845420Y-18794000D02*
X15126580Y-18794000D01*
X14845420Y-19814000D02*
X15126580Y-19814000D01*
%TO.C,U13*%
X15000000Y-22580000D02*
X13200000Y-22580000D01*
X15000000Y-22580000D02*
X15800000Y-22580000D01*
X15000000Y-25700000D02*
X14200000Y-25700000D01*
X15000000Y-25700000D02*
X15800000Y-25700000D01*
%TO.C,kibuzzard-653BDB31*%
G36*
X15999143Y10639351D02*
G01*
X15999143Y10639232D01*
X15999143Y7140768D01*
X15999143Y7140649D01*
X15240000Y6634554D01*
X14480857Y7140649D01*
X14480857Y7140768D01*
X14480857Y8097044D01*
X14778514Y8097044D01*
X14783336Y8018998D01*
X14797802Y7950597D01*
X14839950Y7849870D01*
X14978539Y7894161D01*
X14947106Y7966313D01*
X14931390Y8079899D01*
X14951571Y8181876D01*
X15012114Y8250634D01*
X15073789Y8279606D01*
X15151179Y8296989D01*
X15244286Y8302784D01*
X15324296Y8297962D01*
X15390019Y8283496D01*
X15483602Y8233489D01*
X15533608Y8163481D01*
X15548610Y8082756D01*
X15533608Y7976314D01*
X15497175Y7897019D01*
X15637193Y7851299D01*
X15654338Y7880588D01*
X15675769Y7928451D01*
X15693628Y7994888D01*
X15701486Y8079899D01*
X15693807Y8163659D01*
X15670768Y8240633D01*
X15632906Y8309213D01*
X15580757Y8367792D01*
X15514856Y8415476D01*
X15435739Y8451374D01*
X15343942Y8473877D01*
X15240000Y8481377D01*
X15135612Y8475216D01*
X15043904Y8456732D01*
X14964876Y8425924D01*
X14898529Y8382794D01*
X14831854Y8307229D01*
X14791849Y8211979D01*
X14778514Y8097044D01*
X14480857Y8097044D01*
X14480857Y8811419D01*
X14778514Y8811419D01*
X14783336Y8733373D01*
X14797802Y8664972D01*
X14839950Y8564245D01*
X14978539Y8608536D01*
X14947106Y8680688D01*
X14931390Y8794274D01*
X14951571Y8896251D01*
X15012114Y8965009D01*
X15073789Y8993981D01*
X15151179Y9011364D01*
X15244286Y9017159D01*
X15324296Y9012337D01*
X15390019Y8997871D01*
X15483602Y8947864D01*
X15533608Y8877856D01*
X15548610Y8797131D01*
X15533608Y8690689D01*
X15497175Y8611394D01*
X15637193Y8565674D01*
X15654338Y8594963D01*
X15675769Y8642826D01*
X15693628Y8709263D01*
X15701486Y8794274D01*
X15693807Y8878034D01*
X15670768Y8955008D01*
X15632906Y9023588D01*
X15580757Y9082167D01*
X15514856Y9129851D01*
X15435739Y9165749D01*
X15343942Y9188252D01*
X15240000Y9195753D01*
X15135612Y9189591D01*
X15043904Y9171107D01*
X14964876Y9140299D01*
X14898529Y9097169D01*
X14831854Y9021604D01*
X14791849Y8926354D01*
X14778514Y8811419D01*
X14480857Y8811419D01*
X14480857Y9682956D01*
X14797088Y9682956D01*
X14797088Y9501505D01*
X14873208Y9474200D01*
X14951075Y9447530D01*
X15030688Y9421495D01*
X15110698Y9396492D01*
X15189756Y9372917D01*
X15267861Y9350772D01*
X15381625Y9320411D01*
X15490031Y9293622D01*
X15590758Y9270583D01*
X15681484Y9251474D01*
X15681484Y9435783D01*
X15607189Y9448641D01*
X15521464Y9464357D01*
X15428774Y9482217D01*
X15333583Y9501505D01*
X15237857Y9522222D01*
X15143559Y9544368D01*
X15055155Y9567228D01*
X14977110Y9590087D01*
X15056227Y9613126D01*
X15144988Y9636522D01*
X15239286Y9659382D01*
X15335012Y9680813D01*
X15430024Y9700637D01*
X15522178Y9718675D01*
X15607367Y9733677D01*
X15681484Y9744392D01*
X15681484Y9930130D01*
X15601474Y9913699D01*
X15501461Y9890125D01*
X15426611Y9871234D01*
X15348744Y9850755D01*
X15267861Y9828689D01*
X15185390Y9805352D01*
X15102761Y9781064D01*
X15019973Y9755822D01*
X14902101Y9718318D01*
X14797088Y9682956D01*
X14480857Y9682956D01*
X14480857Y10639232D01*
X14480857Y10639351D01*
X15240000Y11145446D01*
X15999143Y10639351D01*
G37*
%TO.C,C1*%
X71889252Y9298000D02*
X71366748Y9298000D01*
X71889252Y10768000D02*
X71366748Y10768000D01*
%TO.C,kibuzzard-653BDB3F*%
G36*
X5377894Y634206D02*
G01*
X5378609Y608489D01*
X5353606Y512763D01*
X5287169Y454184D01*
X5191443Y424180D01*
X5080000Y415607D01*
X5016956Y418286D01*
X4959271Y426323D01*
X4864259Y462042D01*
X4801394Y527764D01*
X4778534Y628491D01*
X4778534Y644207D01*
X4779963Y659924D01*
X5374323Y659924D01*
X5377894Y634206D01*
G37*
G36*
X5839143Y3019351D02*
G01*
X5839143Y3019232D01*
X5839143Y-479232D01*
X5839143Y-479351D01*
X5080000Y-985446D01*
X4320857Y-479351D01*
X4320857Y-479232D01*
X4320857Y647065D01*
X4625658Y647065D01*
X4631908Y560804D01*
X4650661Y482044D01*
X4682986Y412214D01*
X4729956Y352742D01*
X4792285Y304344D01*
X4870688Y267732D01*
X4966236Y244693D01*
X5080000Y237014D01*
X5191264Y243979D01*
X5285026Y264874D01*
X5362535Y298271D01*
X5425043Y342741D01*
X5472728Y398284D01*
X5505768Y464899D01*
X5525056Y540802D01*
X5531485Y624205D01*
X5527199Y722789D01*
X5510054Y835660D01*
X4647089Y835660D01*
X4630658Y739219D01*
X4625658Y647065D01*
X4320857Y647065D01*
X4320857Y1119981D01*
X4637088Y1119981D01*
X4637088Y978535D01*
X5521484Y978535D01*
X5521484Y1137126D01*
X4977130Y1137126D01*
X5032851Y1162308D01*
X5097145Y1192133D01*
X5166797Y1225709D01*
X5238591Y1262142D01*
X5311636Y1300540D01*
X5385038Y1340009D01*
X5455940Y1380014D01*
X5521484Y1420019D01*
X5521484Y1561465D01*
X4637088Y1561465D01*
X4637088Y1402874D01*
X5224304Y1402874D01*
X5126276Y1349772D01*
X5028406Y1299051D01*
X4930696Y1250712D01*
X4832985Y1204754D01*
X4735116Y1161177D01*
X4637088Y1119981D01*
X4320857Y1119981D01*
X4320857Y1941513D01*
X4618514Y1941513D01*
X4622086Y1854180D01*
X4632801Y1780778D01*
X4658519Y1682909D01*
X5100003Y1682909D01*
X5100003Y1858645D01*
X4777105Y1858645D01*
X4772819Y1892935D01*
X4771390Y1927225D01*
X4790142Y2012593D01*
X4846399Y2074386D01*
X4905693Y2102168D01*
X4983559Y2118836D01*
X5080000Y2124393D01*
X5145544Y2121356D01*
X5205016Y2112248D01*
X5302171Y2072243D01*
X5365750Y2001520D01*
X5388610Y1895793D01*
X5372894Y1801495D01*
X5337175Y1724343D01*
X5477193Y1678622D01*
X5494338Y1707912D01*
X5515769Y1757204D01*
X5533628Y1827927D01*
X5541486Y1920081D01*
X5534164Y1997591D01*
X5512197Y2070100D01*
X5475585Y2135465D01*
X5424329Y2191544D01*
X5358785Y2237621D01*
X5279311Y2272982D01*
X5186263Y2295485D01*
X5080000Y2302986D01*
X4972665Y2296557D01*
X4879261Y2277269D01*
X4799965Y2246193D01*
X4734957Y2204403D01*
X4684236Y2152432D01*
X4647803Y2090817D01*
X4625836Y2020272D01*
X4618514Y1941513D01*
X4320857Y1941513D01*
X4320857Y3019232D01*
X4320857Y3019351D01*
X5080000Y3525446D01*
X5839143Y3019351D01*
G37*
%TO.C,C27*%
X82690580Y-31752000D02*
X82409420Y-31752000D01*
X82690580Y-30732000D02*
X82409420Y-30732000D01*
%TO.C,kibuzzard-653BD252*%
G36*
X7682151Y16580803D02*
G01*
X7740015Y16577052D01*
X7837884Y16557050D01*
X7904321Y16514901D01*
X7928610Y16442035D01*
X7904321Y16369169D01*
X7838599Y16327021D01*
X7740729Y16307018D01*
X7682329Y16303268D01*
X7620000Y16302018D01*
X7557849Y16303268D01*
X7499985Y16307018D01*
X7402116Y16327021D01*
X7335679Y16369883D01*
X7311390Y16442035D01*
X7335679Y16514901D01*
X7401401Y16557050D01*
X7499271Y16577052D01*
X7557671Y16580803D01*
X7620000Y16582053D01*
X7682151Y16580803D01*
G37*
G36*
X8379143Y17480736D02*
G01*
X8379143Y14731821D01*
X8379143Y14731702D01*
X7620000Y14225607D01*
X6860857Y14731702D01*
X6860857Y14731821D01*
X6860857Y15293320D01*
X7177088Y15293320D01*
X7177088Y14731821D01*
X7322820Y14731821D01*
X7322820Y14923274D01*
X7915751Y14923274D01*
X7915751Y14731821D01*
X8061484Y14731821D01*
X8061484Y15293320D01*
X7915751Y15293320D01*
X7915751Y15100439D01*
X7322820Y15100439D01*
X7322820Y15293320D01*
X7177088Y15293320D01*
X6860857Y15293320D01*
X6860857Y15753378D01*
X7158514Y15753378D01*
X7166054Y15653127D01*
X7188676Y15571450D01*
X7226379Y15508347D01*
X7308354Y15447804D01*
X7418546Y15427623D01*
X7485162Y15433695D01*
X7539276Y15451911D01*
X7619286Y15514062D01*
X7670721Y15596930D01*
X7705725Y15683369D01*
X7727156Y15738376D01*
X7753588Y15788382D01*
X7787878Y15824815D01*
X7832884Y15839103D01*
X7889240Y15823545D01*
X7923054Y15776873D01*
X7934325Y15699085D01*
X7920038Y15598358D01*
X7885748Y15519063D01*
X8021479Y15467628D01*
X8062913Y15569783D01*
X8076843Y15635684D01*
X8081486Y15711944D01*
X8073708Y15799495D01*
X8050371Y15873551D01*
X8011478Y15934115D01*
X7927896Y15994658D01*
X7817168Y16014839D01*
X7712154Y15991979D01*
X7641431Y15934115D01*
X7594283Y15856248D01*
X7561421Y15773380D01*
X7536418Y15713373D01*
X7506414Y15659080D01*
X7468553Y15619075D01*
X7419975Y15603359D01*
X7377827Y15609788D01*
X7340679Y15633363D01*
X7314962Y15679797D01*
X7305675Y15753378D01*
X7310676Y15824637D01*
X7325678Y15884108D01*
X7368540Y15976263D01*
X7225665Y16027698D01*
X7182088Y15929114D01*
X7164407Y15852319D01*
X7158514Y15753378D01*
X6860857Y15753378D01*
X6860857Y16440606D01*
X7158514Y16440606D01*
X7171452Y16347261D01*
X7210266Y16269156D01*
X7274957Y16206291D01*
X7340188Y16170037D01*
X7419439Y16144141D01*
X7512710Y16128603D01*
X7620000Y16123424D01*
X7727290Y16128514D01*
X7820561Y16143784D01*
X7899812Y16169233D01*
X7965043Y16204863D01*
X8029734Y16267410D01*
X8068548Y16346468D01*
X8081486Y16442035D01*
X8068548Y16534745D01*
X8029734Y16612850D01*
X7965043Y16676350D01*
X7899812Y16713230D01*
X7820561Y16739572D01*
X7727290Y16755378D01*
X7620000Y16760646D01*
X7512710Y16755512D01*
X7419439Y16740108D01*
X7340188Y16714435D01*
X7274957Y16678493D01*
X7210266Y16615549D01*
X7171452Y16536253D01*
X7158514Y16440606D01*
X6860857Y16440606D01*
X6860857Y16832084D01*
X7177088Y16832084D01*
X7290137Y16835299D01*
X7400687Y16839228D01*
X7509629Y16844050D01*
X7617857Y16849943D01*
X7726263Y16857087D01*
X7835741Y16865660D01*
X7947184Y16875125D01*
X8061484Y16884948D01*
X8061484Y17030680D01*
X7985760Y17056398D01*
X7887891Y17087830D01*
X7779306Y17123549D01*
X7670006Y17159268D01*
X7772876Y17192129D01*
X7882890Y17226419D01*
X7984331Y17258566D01*
X8061484Y17283569D01*
X8061484Y17429301D01*
X7964686Y17438767D01*
X7860030Y17447161D01*
X7749659Y17454483D01*
X7635716Y17460734D01*
X7519630Y17466270D01*
X7402830Y17471450D01*
X7287816Y17476272D01*
X7177088Y17480736D01*
X7177088Y17319288D01*
X7864316Y17326431D01*
X7489984Y17222133D01*
X7489984Y17093545D01*
X7864316Y16984960D01*
X7177088Y16993533D01*
X7177088Y16832084D01*
X6860857Y16832084D01*
X6860857Y17480736D01*
X6860857Y17778393D01*
X8379143Y17778393D01*
X8379143Y17480736D01*
G37*
%TO.C,C8*%
X88396420Y26418000D02*
X88677580Y26418000D01*
X88396420Y25398000D02*
X88677580Y25398000D01*
%TO.C,kibuzzard-653BD3E9*%
G36*
X39625663Y-29135856D02*
G01*
X39625663Y-29136253D01*
X39615427Y-29344604D01*
X39584818Y-29550949D01*
X39534132Y-29753300D01*
X39463856Y-29949709D01*
X39374667Y-30138283D01*
X39267424Y-30317208D01*
X39143159Y-30484759D01*
X39003070Y-30639323D01*
X38848506Y-30779412D01*
X38680955Y-30903677D01*
X38502030Y-31010920D01*
X38313456Y-31100109D01*
X38117047Y-31170385D01*
X37914696Y-31221072D01*
X37708351Y-31251680D01*
X37500000Y-31261916D01*
X37291649Y-31251680D01*
X37085304Y-31221072D01*
X36882953Y-31170385D01*
X36686544Y-31100109D01*
X36497970Y-31010920D01*
X36319045Y-30903677D01*
X36151494Y-30779412D01*
X35996930Y-30639323D01*
X35856841Y-30484759D01*
X35732576Y-30317208D01*
X35625333Y-30138283D01*
X35536144Y-29949709D01*
X35465868Y-29753300D01*
X35415182Y-29550949D01*
X35384573Y-29344604D01*
X35374337Y-29136253D01*
X35374337Y-29135856D01*
X35374337Y-27997619D01*
X36366525Y-27997619D01*
X36392719Y-28214313D01*
X36495113Y-28335756D01*
X36738000Y-28373856D01*
X37123763Y-28373856D01*
X37123763Y-28754856D01*
X37166625Y-29016794D01*
X37283306Y-29109662D01*
X37500000Y-29135856D01*
X37716694Y-29112044D01*
X37838138Y-29016794D01*
X37876238Y-28788194D01*
X37876238Y-28373856D01*
X38257237Y-28373856D01*
X38519175Y-28330994D01*
X38607281Y-28216694D01*
X38633475Y-28000000D01*
X38607281Y-27783306D01*
X38504887Y-27661862D01*
X38262000Y-27621381D01*
X37876238Y-27621381D01*
X37876238Y-27211806D01*
X37833375Y-26968919D01*
X37719075Y-26887956D01*
X37502381Y-26864144D01*
X37285688Y-26890337D01*
X37164244Y-26992731D01*
X37123763Y-27235619D01*
X37123763Y-27621381D01*
X36742763Y-27621381D01*
X36480825Y-27664244D01*
X36392719Y-27780925D01*
X36366525Y-27997619D01*
X35374337Y-27997619D01*
X35374337Y-26864144D01*
X35374337Y-26863747D01*
X35384573Y-26655396D01*
X35415182Y-26449051D01*
X35465868Y-26246700D01*
X35536144Y-26050291D01*
X35625333Y-25861717D01*
X35732576Y-25682792D01*
X35856841Y-25515241D01*
X35996930Y-25360677D01*
X36151494Y-25220588D01*
X36319045Y-25096323D01*
X36497970Y-24989080D01*
X36686544Y-24899891D01*
X36882953Y-24829615D01*
X37085304Y-24778928D01*
X37291649Y-24748320D01*
X37500000Y-24738084D01*
X37708351Y-24748320D01*
X37914696Y-24778928D01*
X38117047Y-24829615D01*
X38313456Y-24899891D01*
X38502030Y-24989080D01*
X38680955Y-25096323D01*
X38848506Y-25220588D01*
X39003070Y-25360677D01*
X39143159Y-25515241D01*
X39267424Y-25682792D01*
X39374667Y-25861717D01*
X39463856Y-26050291D01*
X39534132Y-26246700D01*
X39584818Y-26449051D01*
X39615427Y-26655396D01*
X39625663Y-26863747D01*
X39625663Y-26864144D01*
X39625663Y-28000000D01*
X39625663Y-29135856D01*
G37*
%TO.C,U11*%
X73111000Y2293000D02*
X69461000Y2293000D01*
X73111000Y2293000D02*
X75311000Y2293000D01*
X73111000Y-3227000D02*
X70911000Y-3227000D01*
X73111000Y-3227000D02*
X75311000Y-3227000D01*
%TO.C,C10*%
X89279000Y-29748580D02*
X89279000Y-29467420D01*
X90299000Y-29748580D02*
X90299000Y-29467420D01*
%TO.C,BT1*%
X30480000Y-43250000D02*
X30480000Y-40750000D01*
X63500000Y-43250000D02*
X63500000Y-40750000D01*
X31730000Y-42000000D02*
X29230000Y-42000000D01*
X64750000Y-42000000D02*
X62250000Y-42000000D01*
X27040000Y-38500000D02*
X34490000Y-38500000D01*
X40990000Y-38500000D02*
X53490000Y-38500000D01*
X59490000Y-38500000D02*
X59490000Y-43000000D01*
X66940000Y-38500000D02*
X59490000Y-38500000D01*
X27040000Y38500000D02*
X27040000Y-38500000D01*
X27040000Y38500000D02*
X34490000Y38500000D01*
X40490000Y38500000D02*
X53490000Y38500000D01*
X66940000Y38500000D02*
X66940000Y-38500000D01*
X66940000Y38500000D02*
X59490000Y38500000D01*
X30480000Y43750000D02*
X30480000Y41250000D01*
X63500000Y44000000D02*
X63500000Y41500000D01*
%TO.C,kibuzzard-653BDB91*%
G36*
X10152142Y90388D02*
G01*
X10234295Y39668D01*
X10312162Y-13910D01*
X10382171Y-66774D01*
X10070703Y-66774D01*
X10070703Y133251D01*
X10152142Y90388D01*
G37*
G36*
X10159286Y768330D02*
G01*
X10247154Y748328D01*
X10335736Y725468D01*
X10430748Y699036D01*
X10335736Y672604D01*
X10247154Y649744D01*
X10159286Y630456D01*
X10067846Y613311D01*
X10067846Y786190D01*
X10159286Y768330D01*
G37*
G36*
X10899854Y1202591D02*
G01*
X10899854Y-498892D01*
X10899854Y-499011D01*
X10160000Y-992247D01*
X9420146Y-499011D01*
X9420146Y-498892D01*
X9420146Y-242510D01*
X9717802Y-242510D01*
X9926399Y-242510D01*
X9926399Y-338237D01*
X10070703Y-338237D01*
X10070703Y-242510D01*
X10602198Y-242510D01*
X10602198Y-85348D01*
X10541298Y-28198D01*
X10472896Y28952D01*
X10400209Y84673D01*
X10326449Y137537D01*
X10253047Y186829D01*
X10181431Y231835D01*
X10114459Y270768D01*
X10054987Y301843D01*
X9926399Y301843D01*
X9926399Y-66774D01*
X9717802Y-66774D01*
X9717802Y-242510D01*
X9420146Y-242510D01*
X9420146Y541873D01*
X9717802Y541873D01*
X9717802Y353278D01*
X9818072Y376853D01*
X9915427Y400713D01*
X10009867Y424859D01*
X10101393Y449290D01*
X10190004Y474008D01*
X10297473Y505128D01*
X10401995Y536337D01*
X10503570Y567635D01*
X10602198Y599023D01*
X10602198Y790476D01*
X10504373Y820747D01*
X10403780Y851555D01*
X10300419Y882898D01*
X10194290Y914777D01*
X10106422Y940437D01*
X10014839Y965983D01*
X9919541Y991415D01*
X9820529Y1016733D01*
X9717802Y1041936D01*
X9717802Y859056D01*
X9922113Y819051D01*
X9922113Y583307D01*
X9717802Y541873D01*
X9420146Y541873D01*
X9420146Y1202591D01*
X9420146Y1500247D01*
X10899854Y1500247D01*
X10899854Y1202591D01*
G37*
%TO.C,C6*%
X82806000Y-25767420D02*
X82806000Y-26048580D01*
X81786000Y-25767420D02*
X81786000Y-26048580D01*
%TO.C,R15*%
X86521742Y32780500D02*
X86996258Y32780500D01*
X86521742Y31735500D02*
X86996258Y31735500D01*
%TO.C,kibuzzard-653BD3E9*%
G36*
X58875663Y-29075856D02*
G01*
X58875663Y-29076253D01*
X58865427Y-29284604D01*
X58834818Y-29490949D01*
X58784132Y-29693300D01*
X58713856Y-29889709D01*
X58624667Y-30078283D01*
X58517424Y-30257208D01*
X58393159Y-30424759D01*
X58253070Y-30579323D01*
X58098506Y-30719412D01*
X57930955Y-30843677D01*
X57752030Y-30950920D01*
X57563456Y-31040109D01*
X57367047Y-31110385D01*
X57164696Y-31161072D01*
X56958351Y-31191680D01*
X56750000Y-31201916D01*
X56541649Y-31191680D01*
X56335304Y-31161072D01*
X56132953Y-31110385D01*
X55936544Y-31040109D01*
X55747970Y-30950920D01*
X55569045Y-30843677D01*
X55401494Y-30719412D01*
X55246930Y-30579323D01*
X55106841Y-30424759D01*
X54982576Y-30257208D01*
X54875333Y-30078283D01*
X54786144Y-29889709D01*
X54715868Y-29693300D01*
X54665182Y-29490949D01*
X54634573Y-29284604D01*
X54624337Y-29076253D01*
X54624337Y-29075856D01*
X54624337Y-27937619D01*
X55616525Y-27937619D01*
X55642719Y-28154313D01*
X55745113Y-28275756D01*
X55988000Y-28313856D01*
X56373763Y-28313856D01*
X56373763Y-28694856D01*
X56416625Y-28956794D01*
X56533306Y-29049662D01*
X56750000Y-29075856D01*
X56966694Y-29052044D01*
X57088138Y-28956794D01*
X57126238Y-28728194D01*
X57126238Y-28313856D01*
X57507237Y-28313856D01*
X57769175Y-28270994D01*
X57857281Y-28156694D01*
X57883475Y-27940000D01*
X57857281Y-27723306D01*
X57754887Y-27601862D01*
X57512000Y-27561381D01*
X57126238Y-27561381D01*
X57126238Y-27151806D01*
X57083375Y-26908919D01*
X56969075Y-26827956D01*
X56752381Y-26804144D01*
X56535688Y-26830337D01*
X56414244Y-26932731D01*
X56373763Y-27175619D01*
X56373763Y-27561381D01*
X55992763Y-27561381D01*
X55730825Y-27604244D01*
X55642719Y-27720925D01*
X55616525Y-27937619D01*
X54624337Y-27937619D01*
X54624337Y-26804144D01*
X54624337Y-26803747D01*
X54634573Y-26595396D01*
X54665182Y-26389051D01*
X54715868Y-26186700D01*
X54786144Y-25990291D01*
X54875333Y-25801717D01*
X54982576Y-25622792D01*
X55106841Y-25455241D01*
X55246930Y-25300677D01*
X55401494Y-25160588D01*
X55569045Y-25036323D01*
X55747970Y-24929080D01*
X55936544Y-24839891D01*
X56132953Y-24769615D01*
X56335304Y-24718928D01*
X56541649Y-24688320D01*
X56750000Y-24678084D01*
X56958351Y-24688320D01*
X57164696Y-24718928D01*
X57367047Y-24769615D01*
X57563456Y-24839891D01*
X57752030Y-24929080D01*
X57930955Y-25036323D01*
X58098506Y-25160588D01*
X58253070Y-25300677D01*
X58393159Y-25455241D01*
X58517424Y-25622792D01*
X58624667Y-25801717D01*
X58713856Y-25990291D01*
X58784132Y-26186700D01*
X58834818Y-26389051D01*
X58865427Y-26595396D01*
X58875663Y-26803747D01*
X58875663Y-26804144D01*
X58875663Y-27940000D01*
X58875663Y-29075856D01*
G37*
%TO.C,R20*%
X72881258Y7478500D02*
X72406742Y7478500D01*
X72881258Y8523500D02*
X72406742Y8523500D01*
%TO.C,C2*%
X71474000Y-12438748D02*
X71474000Y-12961252D01*
X70004000Y-12438748D02*
X70004000Y-12961252D01*
%TO.C,J11*%
X113852000Y-43240000D02*
X112522000Y-43240000D01*
X113852000Y-41910000D02*
X113852000Y-43240000D01*
X113852000Y-40640000D02*
X113852000Y-35500000D01*
X113852000Y-40640000D02*
X111192000Y-40640000D01*
X113852000Y-35500000D02*
X111192000Y-35500000D01*
X111192000Y-40640000D02*
X111192000Y-35500000D01*
%TO.C,C3*%
X74014000Y-12438748D02*
X74014000Y-12961252D01*
X72544000Y-12438748D02*
X72544000Y-12961252D01*
%TO.C,R21*%
X82312742Y-32370500D02*
X82787258Y-32370500D01*
X82312742Y-33415500D02*
X82787258Y-33415500D01*
%TO.C,L1*%
X89993000Y27210000D02*
X89993000Y31210000D01*
X94193000Y27210000D02*
X94193000Y31210000D01*
%TO.C,U9*%
X15000000Y25700000D02*
X13200000Y25700000D01*
X15000000Y25700000D02*
X15800000Y25700000D01*
X15000000Y22580000D02*
X14200000Y22580000D01*
X15000000Y22580000D02*
X15800000Y22580000D01*
%TO.C,J3*%
X70408000Y-45076000D02*
X70828000Y-45076000D01*
X70408000Y-47056000D02*
X70408000Y-45076000D01*
X70408000Y-49426000D02*
X70408000Y-49026000D01*
X72408000Y-44846000D02*
X72408000Y-44396000D01*
X72858000Y-44396000D02*
X72408000Y-44396000D01*
X77928000Y-45076000D02*
X77508000Y-45076000D01*
X77928000Y-47056000D02*
X77928000Y-45076000D01*
X77928000Y-49026000D02*
X77928000Y-49426000D01*
%TO.C,C14*%
X80053045Y-2172000D02*
X80334205Y-2172000D01*
X80053045Y-3192000D02*
X80334205Y-3192000D01*
%TO.C,R5*%
X97267500Y9922742D02*
X97267500Y10397258D01*
X98312500Y9922742D02*
X98312500Y10397258D01*
%TO.C,C24*%
X83060000Y12332580D02*
X83060000Y12051420D01*
X82040000Y12332580D02*
X82040000Y12051420D01*
%TO.C,J1*%
X78232000Y-41716000D02*
X88452000Y-41716000D01*
X78232000Y-41716000D02*
X78232000Y-39056000D01*
X88452000Y-41716000D02*
X88452000Y-39056000D01*
X75632000Y-40386000D02*
X75632000Y-39056000D01*
X75632000Y-39056000D02*
X76962000Y-39056000D01*
X78232000Y-39056000D02*
X88452000Y-39056000D01*
%TO.C,C16*%
X88396420Y24894000D02*
X88677580Y24894000D01*
X88396420Y23874000D02*
X88677580Y23874000D01*
%TO.C,kibuzzard-653BD0CB*%
G36*
X104730867Y19651662D02*
G01*
X104639427Y19669522D01*
X104551559Y19689524D01*
X104462977Y19712384D01*
X104367965Y19738816D01*
X104462977Y19765248D01*
X104551559Y19788108D01*
X104639427Y19807396D01*
X104730867Y19824541D01*
X104730867Y19651662D01*
G37*
G36*
X105397141Y19895979D02*
G01*
X105397141Y19395916D01*
X105397141Y19395797D01*
X105393534Y19322369D01*
X105382747Y19249647D01*
X105364883Y19178333D01*
X105340116Y19109113D01*
X105308684Y19042654D01*
X105270888Y18979597D01*
X105227094Y18920547D01*
X105177723Y18866074D01*
X105123250Y18816703D01*
X105064201Y18772909D01*
X105001143Y18735114D01*
X104934684Y18703681D01*
X104865464Y18678914D01*
X104794150Y18661050D01*
X104721429Y18650263D01*
X104648000Y18646656D01*
X104574571Y18650263D01*
X104501850Y18661050D01*
X104430536Y18678914D01*
X104361316Y18703681D01*
X104294857Y18735114D01*
X104231799Y18772909D01*
X104172750Y18816703D01*
X104118277Y18866074D01*
X104068906Y18920547D01*
X104025112Y18979597D01*
X103987316Y19042654D01*
X103955884Y19109113D01*
X103931117Y19178333D01*
X103913253Y19249647D01*
X103902466Y19322369D01*
X103898859Y19395797D01*
X103898859Y19395916D01*
X103898859Y19647376D01*
X104196515Y19647376D01*
X104294340Y19617105D01*
X104394933Y19586297D01*
X104498294Y19554954D01*
X104604423Y19523075D01*
X104692291Y19497415D01*
X104783874Y19471869D01*
X104879172Y19446437D01*
X104978184Y19421119D01*
X105080911Y19395916D01*
X105080911Y19578796D01*
X104876600Y19618801D01*
X104876600Y19854545D01*
X105080911Y19895979D01*
X105080911Y20084574D01*
X104980642Y20060999D01*
X104883287Y20037139D01*
X104788846Y20012993D01*
X104697320Y19988562D01*
X104608709Y19963844D01*
X104501241Y19932724D01*
X104396719Y19901515D01*
X104295143Y19870217D01*
X104196515Y19838829D01*
X104196515Y19647376D01*
X103898859Y19647376D01*
X103898859Y20251737D01*
X104196515Y20251737D01*
X104305636Y20246380D01*
X104418686Y20238879D01*
X104534950Y20228877D01*
X104653715Y20216019D01*
X104656751Y20314245D01*
X104665859Y20391755D01*
X104700149Y20495339D01*
X104753013Y20543917D01*
X104820879Y20556061D01*
X104868027Y20548917D01*
X104908747Y20522486D01*
X104938036Y20469622D01*
X104949466Y20384611D01*
X104946252Y20317817D01*
X104936607Y20263167D01*
X104908032Y20183157D01*
X105053765Y20147439D01*
X105069481Y20188158D01*
X105084483Y20247451D01*
X105095199Y20316031D01*
X105099485Y20386040D01*
X105094127Y20467836D01*
X105078054Y20538916D01*
X105052336Y20599281D01*
X105018046Y20648930D01*
X104927321Y20714653D01*
X104813735Y20736084D01*
X104730867Y20726400D01*
X104661335Y20697349D01*
X104605137Y20648930D01*
X104562592Y20580826D01*
X104534017Y20492720D01*
X104519412Y20384611D01*
X104437974Y20391755D01*
X104342247Y20398899D01*
X104342247Y20703223D01*
X104196515Y20703223D01*
X104196515Y20251737D01*
X103898859Y20251737D01*
X103898859Y20736084D01*
X103898859Y20736203D01*
X103902466Y20809631D01*
X103913253Y20882353D01*
X103931117Y20953667D01*
X103955884Y21022887D01*
X103987316Y21089346D01*
X104025112Y21152403D01*
X104068906Y21211453D01*
X104118277Y21265926D01*
X104172750Y21315297D01*
X104231799Y21359091D01*
X104294857Y21396886D01*
X104361316Y21428319D01*
X104430536Y21453086D01*
X104501850Y21470950D01*
X104574571Y21481737D01*
X104648000Y21485344D01*
X104721429Y21481737D01*
X104794150Y21470950D01*
X104865464Y21453086D01*
X104934684Y21428319D01*
X105001143Y21396886D01*
X105064201Y21359091D01*
X105123250Y21315297D01*
X105177723Y21265926D01*
X105227094Y21211453D01*
X105270888Y21152403D01*
X105308684Y21089346D01*
X105340116Y21022887D01*
X105364883Y20953667D01*
X105382747Y20882353D01*
X105393534Y20809631D01*
X105397141Y20736203D01*
X105397141Y20736084D01*
X105397141Y20386040D01*
X105397141Y19895979D01*
G37*
%TO.C,J13*%
X19752000Y7680000D02*
X19752000Y-7680000D01*
X19752000Y7680000D02*
X22352000Y7680000D01*
X19752000Y-7680000D02*
X24952000Y-7680000D01*
X22352000Y7680000D02*
X22352000Y5080000D01*
X22352000Y5080000D02*
X24952000Y5080000D01*
X23622000Y7680000D02*
X24952000Y7680000D01*
X24952000Y7680000D02*
X24952000Y6350000D01*
X24952000Y5080000D02*
X24952000Y-7680000D01*
%TO.C,C11*%
X86280000Y-2402170D02*
X86280000Y-2683330D01*
X85260000Y-2402170D02*
X85260000Y-2683330D01*
%TO.C,C26*%
X75440000Y7379580D02*
X75440000Y7098420D01*
X74420000Y7379580D02*
X74420000Y7098420D01*
%TO.C,kibuzzard-653BD134*%
G36*
X112353725Y46823948D02*
G01*
X112262285Y46841807D01*
X112174417Y46861809D01*
X112085834Y46884669D01*
X111990822Y46911101D01*
X112085834Y46937533D01*
X112174417Y46960393D01*
X112262285Y46979681D01*
X112353725Y46996826D01*
X112353725Y46823948D01*
G37*
G36*
X112473740Y47741919D02*
G01*
X112520889Y47721917D01*
X112556607Y47686913D01*
X112570895Y47635478D01*
X112553036Y47573327D01*
X112505173Y47534036D01*
X112437307Y47514034D01*
X112358011Y47508319D01*
X112330865Y47509033D01*
X112305148Y47511176D01*
X112289431Y47558325D01*
X112283716Y47614046D01*
X112292825Y47677268D01*
X112320149Y47718345D01*
X112423734Y47748349D01*
X112473740Y47741919D01*
G37*
G36*
X113019999Y47068264D02*
G01*
X113019999Y46568201D01*
X113019999Y46568082D01*
X113016378Y46494373D01*
X113005549Y46421375D01*
X112987618Y46349788D01*
X112962756Y46280305D01*
X112931204Y46213592D01*
X112893264Y46150294D01*
X112849303Y46091019D01*
X112799743Y46036339D01*
X112745063Y45986779D01*
X112685788Y45942818D01*
X112622490Y45904879D01*
X112555777Y45873326D01*
X112486294Y45848464D01*
X112414708Y45830533D01*
X112341709Y45819705D01*
X112268000Y45816083D01*
X112194291Y45819705D01*
X112121292Y45830533D01*
X112049706Y45848464D01*
X111980223Y45873326D01*
X111913510Y45904879D01*
X111850212Y45942818D01*
X111790937Y45986779D01*
X111736257Y46036339D01*
X111686697Y46091019D01*
X111642736Y46150294D01*
X111604796Y46213592D01*
X111573244Y46280305D01*
X111548382Y46349788D01*
X111530451Y46421375D01*
X111519622Y46494373D01*
X111516001Y46568082D01*
X111516001Y46568201D01*
X111516001Y46819661D01*
X111819373Y46819661D01*
X111917197Y46789390D01*
X112017790Y46758582D01*
X112121151Y46727239D01*
X112227281Y46695360D01*
X112315149Y46669700D01*
X112406732Y46644154D01*
X112502029Y46618722D01*
X112601042Y46593404D01*
X112703769Y46568201D01*
X112703769Y46751081D01*
X112499458Y46791086D01*
X112499458Y47026830D01*
X112703769Y47068264D01*
X112703769Y47256859D01*
X112603499Y47233284D01*
X112506144Y47209424D01*
X112411704Y47185278D01*
X112320178Y47160847D01*
X112231567Y47136129D01*
X112124098Y47105009D01*
X112019576Y47073800D01*
X111918001Y47042502D01*
X111819373Y47011114D01*
X111819373Y46819661D01*
X111516001Y46819661D01*
X111516001Y47868364D01*
X111813657Y47868364D01*
X111822230Y47753707D01*
X111847948Y47649765D01*
X111890453Y47558325D01*
X111949389Y47481173D01*
X112024398Y47419200D01*
X112115124Y47373302D01*
X112221208Y47344905D01*
X112342295Y47335440D01*
X112461278Y47344092D01*
X112557243Y47370048D01*
X112630188Y47413307D01*
X112681385Y47473076D01*
X112712103Y47548562D01*
X112722343Y47639764D01*
X112715377Y47707629D01*
X112694482Y47765494D01*
X112622330Y47852648D01*
X112525175Y47903368D01*
X112420876Y47919799D01*
X112312291Y47904797D01*
X112222280Y47855505D01*
X112160844Y47767637D01*
X112143699Y47708165D01*
X112137984Y47636906D01*
X112144413Y47591186D01*
X112162273Y47538323D01*
X112069404Y47587614D01*
X112008682Y47666910D01*
X111975106Y47766923D01*
X111963676Y47878365D01*
X111813657Y47868364D01*
X111516001Y47868364D01*
X111516001Y47919799D01*
X111516001Y47919918D01*
X111519622Y47993627D01*
X111530451Y48066625D01*
X111548382Y48138212D01*
X111573244Y48207695D01*
X111604796Y48274408D01*
X111642736Y48337706D01*
X111686697Y48396981D01*
X111736257Y48451661D01*
X111790937Y48501221D01*
X111850212Y48545182D01*
X111913510Y48583121D01*
X111980223Y48614674D01*
X112049706Y48639536D01*
X112121292Y48657467D01*
X112194291Y48668295D01*
X112268000Y48671917D01*
X112341709Y48668295D01*
X112414708Y48657467D01*
X112486294Y48639536D01*
X112555777Y48614674D01*
X112622490Y48583121D01*
X112685788Y48545182D01*
X112745063Y48501221D01*
X112799743Y48451661D01*
X112849303Y48396981D01*
X112893264Y48337706D01*
X112931204Y48274408D01*
X112962756Y48207695D01*
X112987618Y48138212D01*
X113005549Y48066625D01*
X113016378Y47993627D01*
X113019999Y47919918D01*
X113019999Y47919799D01*
X113019999Y47639764D01*
X113019999Y47068264D01*
G37*
%TO.C,R3*%
X97267500Y-10397258D02*
X97267500Y-9922742D01*
X98312500Y-10397258D02*
X98312500Y-9922742D01*
%TO.C,U15*%
X91788000Y-25494000D02*
X91788000Y-25094000D01*
X91788000Y-25094000D02*
X92938000Y-25094000D01*
X91788000Y-18194000D02*
X91788000Y-18594000D01*
X91388000Y-25494000D02*
X91788000Y-25494000D01*
X91388000Y-18194000D02*
X91788000Y-18194000D01*
X84888000Y-25494000D02*
X84488000Y-25494000D01*
X84888000Y-18194000D02*
X84488000Y-18194000D01*
X84488000Y-25494000D02*
X84488000Y-25094000D01*
X84488000Y-18194000D02*
X84488000Y-18594000D01*
%TO.C,R19*%
X83549258Y7859500D02*
X83074742Y7859500D01*
X83549258Y8904500D02*
X83074742Y8904500D01*
%TO.C,C21*%
X86621252Y13273000D02*
X86098748Y13273000D01*
X86621252Y14743000D02*
X86098748Y14743000D01*
%TO.C,kibuzzard-653BD170*%
G36*
X104737297Y10378599D02*
G01*
X104655858Y10421461D01*
X104573705Y10472182D01*
X104495838Y10525760D01*
X104425829Y10578624D01*
X104737297Y10578624D01*
X104737297Y10378599D01*
G37*
G36*
X104740154Y9725660D02*
G01*
X104648714Y9743519D01*
X104560846Y9763522D01*
X104472264Y9786382D01*
X104377252Y9812814D01*
X104472264Y9839246D01*
X104560846Y9862106D01*
X104648714Y9881394D01*
X104740154Y9898539D01*
X104740154Y9725660D01*
G37*
G36*
X105387854Y9969976D02*
G01*
X105387854Y9469914D01*
X105387854Y9469795D01*
X105384292Y9397276D01*
X105373638Y9325456D01*
X105355996Y9255026D01*
X105331536Y9186665D01*
X105300493Y9121030D01*
X105263166Y9058754D01*
X105219915Y9000436D01*
X105171156Y8946639D01*
X105117359Y8897880D01*
X105059041Y8854628D01*
X104996765Y8817301D01*
X104931130Y8786258D01*
X104862768Y8761798D01*
X104792338Y8744156D01*
X104720518Y8733503D01*
X104648000Y8729940D01*
X104575482Y8733503D01*
X104503662Y8744156D01*
X104433232Y8761798D01*
X104364870Y8786258D01*
X104299235Y8817301D01*
X104236959Y8854628D01*
X104178641Y8897880D01*
X104124844Y8946639D01*
X104076085Y9000436D01*
X104032834Y9058754D01*
X103995507Y9121030D01*
X103964464Y9186665D01*
X103940004Y9255026D01*
X103922362Y9325456D01*
X103911708Y9397276D01*
X103908146Y9469795D01*
X103908146Y9469914D01*
X103908146Y9721374D01*
X104205802Y9721374D01*
X104303627Y9691102D01*
X104404220Y9660295D01*
X104507581Y9628951D01*
X104613710Y9597073D01*
X104701578Y9571412D01*
X104793161Y9545866D01*
X104888459Y9520434D01*
X104987471Y9495117D01*
X105090198Y9469914D01*
X105090198Y9652794D01*
X104885887Y9692799D01*
X104885887Y9928543D01*
X105090198Y9969976D01*
X105090198Y10158571D01*
X104989928Y10134997D01*
X104892573Y10111137D01*
X104798133Y10086991D01*
X104706607Y10062559D01*
X104617996Y10037842D01*
X104510527Y10006722D01*
X104406005Y9975513D01*
X104304430Y9944214D01*
X104205802Y9912826D01*
X104205802Y9721374D01*
X103908146Y9721374D01*
X103908146Y10597198D01*
X104205802Y10597198D01*
X104266702Y10540048D01*
X104335104Y10482898D01*
X104407791Y10427176D01*
X104481551Y10374313D01*
X104554953Y10325021D01*
X104626569Y10280015D01*
X104693541Y10241082D01*
X104753013Y10210006D01*
X104881601Y10210006D01*
X104881601Y10578624D01*
X105090198Y10578624D01*
X105090198Y10754360D01*
X104881601Y10754360D01*
X104881601Y10850086D01*
X104737297Y10850086D01*
X104737297Y10754360D01*
X104205802Y10754360D01*
X104205802Y10597198D01*
X103908146Y10597198D01*
X103908146Y10850086D01*
X103908146Y10850205D01*
X103911708Y10922724D01*
X103922362Y10994544D01*
X103940004Y11064974D01*
X103964464Y11133335D01*
X103995507Y11198970D01*
X104032834Y11261246D01*
X104076085Y11319564D01*
X104124844Y11373361D01*
X104178641Y11422120D01*
X104236959Y11465372D01*
X104299235Y11502699D01*
X104364870Y11533742D01*
X104433232Y11558202D01*
X104503662Y11575844D01*
X104575482Y11586497D01*
X104648000Y11590060D01*
X104720518Y11586497D01*
X104792338Y11575844D01*
X104862768Y11558202D01*
X104931130Y11533742D01*
X104996765Y11502699D01*
X105059041Y11465372D01*
X105117359Y11422120D01*
X105171156Y11373361D01*
X105219915Y11319564D01*
X105263166Y11261246D01*
X105300493Y11198970D01*
X105331536Y11133335D01*
X105355996Y11064974D01*
X105373638Y10994544D01*
X105384292Y10922724D01*
X105387854Y10850205D01*
X105387854Y10850086D01*
X105387854Y10754360D01*
X105387854Y9969976D01*
G37*
%TO.C,R12*%
X20305500Y19066742D02*
X20305500Y19541258D01*
X21350500Y19066742D02*
X21350500Y19541258D01*
%TO.C,C12*%
X14845420Y19814000D02*
X15126580Y19814000D01*
X14845420Y18794000D02*
X15126580Y18794000D01*
%TO.C,kibuzzard-653BDAE1*%
G36*
X10919143Y9836835D02*
G01*
X10919143Y7135723D01*
X10919143Y7135604D01*
X10160000Y6629509D01*
X9400857Y7135604D01*
X9400857Y7135723D01*
X9400857Y7649746D01*
X9717088Y7649746D01*
X9717088Y7451150D01*
X9780845Y7474367D01*
X9846389Y7504013D01*
X9912112Y7538839D01*
X9976406Y7577594D01*
X10038020Y7619563D01*
X10095706Y7664033D01*
X10148213Y7709396D01*
X10194290Y7754045D01*
X10246797Y7710646D01*
X10301446Y7669034D01*
X10356632Y7629565D01*
X10410746Y7592596D01*
X10463252Y7558842D01*
X10513616Y7529016D01*
X10601484Y7481153D01*
X10601484Y7679750D01*
X10515759Y7722612D01*
X10420033Y7779048D01*
X10322878Y7844056D01*
X10234295Y7909778D01*
X10601484Y7909778D01*
X10601484Y8085515D01*
X9717088Y8085515D01*
X9717088Y7909778D01*
X10121424Y7909778D01*
X10040699Y7834769D01*
X9991050Y7796371D01*
X9937829Y7759760D01*
X9882108Y7725648D01*
X9824958Y7694751D01*
X9717088Y7649746D01*
X9400857Y7649746D01*
X9400857Y8441273D01*
X9698514Y8441273D01*
X9703336Y8363228D01*
X9717802Y8294826D01*
X9759950Y8194100D01*
X9898539Y8238391D01*
X9867106Y8310543D01*
X9851390Y8424128D01*
X9871571Y8526105D01*
X9932114Y8594864D01*
X9993789Y8623836D01*
X10071179Y8641219D01*
X10164286Y8647013D01*
X10244296Y8642191D01*
X10310019Y8627725D01*
X10403602Y8577719D01*
X10453608Y8507710D01*
X10468610Y8426986D01*
X10453608Y8320544D01*
X10417175Y8241248D01*
X10557193Y8195528D01*
X10574338Y8224818D01*
X10595769Y8272681D01*
X10613628Y8339118D01*
X10621486Y8424128D01*
X10613807Y8507889D01*
X10590768Y8584863D01*
X10552906Y8653443D01*
X10500757Y8712021D01*
X10434856Y8759706D01*
X10355739Y8795603D01*
X10263942Y8818106D01*
X10160000Y8825607D01*
X10055612Y8819446D01*
X9963904Y8800961D01*
X9884876Y8770154D01*
X9818529Y8727023D01*
X9751854Y8651458D01*
X9711849Y8556208D01*
X9698514Y8441273D01*
X9400857Y8441273D01*
X9400857Y9247088D01*
X9698514Y9247088D01*
X9706054Y9146838D01*
X9728676Y9065161D01*
X9766379Y9002058D01*
X9848354Y8941514D01*
X9958546Y8921333D01*
X10025162Y8927405D01*
X10079276Y8945622D01*
X10159286Y9007773D01*
X10210721Y9090640D01*
X10245725Y9177080D01*
X10267156Y9232086D01*
X10293588Y9282093D01*
X10327878Y9318526D01*
X10372884Y9332813D01*
X10429240Y9317256D01*
X10463054Y9270583D01*
X10474325Y9192796D01*
X10460038Y9092069D01*
X10425748Y9012773D01*
X10561479Y8961338D01*
X10602913Y9063494D01*
X10616843Y9129395D01*
X10621486Y9205655D01*
X10613708Y9293205D01*
X10590371Y9367262D01*
X10551478Y9427825D01*
X10467896Y9488368D01*
X10357168Y9508550D01*
X10252154Y9485690D01*
X10181431Y9427825D01*
X10134283Y9349958D01*
X10101421Y9267091D01*
X10076418Y9207083D01*
X10046414Y9152791D01*
X10008553Y9112786D01*
X9959975Y9097070D01*
X9917827Y9103499D01*
X9880679Y9127073D01*
X9854962Y9173508D01*
X9845675Y9247088D01*
X9850676Y9318347D01*
X9865678Y9377819D01*
X9908540Y9469973D01*
X9765665Y9521408D01*
X9722088Y9422825D01*
X9704407Y9346029D01*
X9698514Y9247088D01*
X9400857Y9247088D01*
X9400857Y9836835D01*
X9400857Y10134491D01*
X10919143Y10134491D01*
X10919143Y9836835D01*
G37*
%TO.C,kibuzzard-653BDB20*%
G36*
X5377894Y8254206D02*
G01*
X5378609Y8228489D01*
X5353606Y8132763D01*
X5287169Y8074184D01*
X5191443Y8044180D01*
X5080000Y8035607D01*
X5016956Y8038286D01*
X4959271Y8046323D01*
X4864259Y8082042D01*
X4801394Y8147764D01*
X4778534Y8248491D01*
X4778534Y8264207D01*
X4779963Y8279924D01*
X5374323Y8279924D01*
X5377894Y8254206D01*
G37*
G36*
X5839143Y10639351D02*
G01*
X5839143Y10639232D01*
X5839143Y7140768D01*
X5839143Y7140649D01*
X5080000Y6634554D01*
X4320857Y7140649D01*
X4320857Y7140768D01*
X4320857Y8267065D01*
X4625658Y8267065D01*
X4631908Y8180804D01*
X4650661Y8102044D01*
X4682986Y8032214D01*
X4729956Y7972742D01*
X4792285Y7924344D01*
X4870688Y7887732D01*
X4966236Y7864693D01*
X5080000Y7857014D01*
X5191264Y7863979D01*
X5285026Y7884874D01*
X5362535Y7918271D01*
X5425043Y7962741D01*
X5472728Y8018284D01*
X5505768Y8084899D01*
X5525056Y8160802D01*
X5531485Y8244205D01*
X5527199Y8342789D01*
X5510054Y8455660D01*
X4647089Y8455660D01*
X4630658Y8359219D01*
X4625658Y8267065D01*
X4320857Y8267065D01*
X4320857Y8739981D01*
X4637088Y8739981D01*
X4637088Y8598535D01*
X5521484Y8598535D01*
X5521484Y8757126D01*
X4977130Y8757126D01*
X5032851Y8782308D01*
X5097145Y8812133D01*
X5166797Y8845709D01*
X5238591Y8882142D01*
X5311636Y8920540D01*
X5385038Y8960009D01*
X5455940Y9000014D01*
X5521484Y9040019D01*
X5521484Y9181465D01*
X4637088Y9181465D01*
X4637088Y9022874D01*
X5224304Y9022874D01*
X5126276Y8969772D01*
X5028406Y8919051D01*
X4930696Y8870712D01*
X4832985Y8824754D01*
X4735116Y8781177D01*
X4637088Y8739981D01*
X4320857Y8739981D01*
X4320857Y9561513D01*
X4618514Y9561513D01*
X4622086Y9474180D01*
X4632801Y9400778D01*
X4658519Y9302909D01*
X5100003Y9302909D01*
X5100003Y9478645D01*
X4777105Y9478645D01*
X4772819Y9512935D01*
X4771390Y9547225D01*
X4790142Y9632593D01*
X4846399Y9694386D01*
X4905693Y9722168D01*
X4983559Y9738836D01*
X5080000Y9744393D01*
X5145544Y9741356D01*
X5205016Y9732248D01*
X5302171Y9692243D01*
X5365750Y9621520D01*
X5388610Y9515793D01*
X5372894Y9421495D01*
X5337175Y9344343D01*
X5477193Y9298622D01*
X5494338Y9327912D01*
X5515769Y9377204D01*
X5533628Y9447927D01*
X5541486Y9540081D01*
X5534164Y9617591D01*
X5512197Y9690100D01*
X5475585Y9755465D01*
X5424329Y9811544D01*
X5358785Y9857621D01*
X5279311Y9892982D01*
X5186263Y9915485D01*
X5080000Y9922986D01*
X4972665Y9916557D01*
X4879261Y9897269D01*
X4799965Y9866193D01*
X4734957Y9824403D01*
X4684236Y9772432D01*
X4647803Y9710817D01*
X4625836Y9640272D01*
X4618514Y9561513D01*
X4320857Y9561513D01*
X4320857Y10639232D01*
X4320857Y10639351D01*
X5080000Y11145446D01*
X5839143Y10639351D01*
G37*
%TO.C,C5*%
X79712625Y1628748D02*
X79712625Y2151252D01*
X81182625Y1628748D02*
X81182625Y2151252D01*
%TO.C,C22*%
X86621252Y10695000D02*
X86098748Y10695000D01*
X86621252Y12165000D02*
X86098748Y12165000D01*
%TO.C,kibuzzard-653BDB7B*%
G36*
X7618571Y757615D02*
G01*
X7706439Y737612D01*
X7795022Y714752D01*
X7890034Y688320D01*
X7795022Y661888D01*
X7706439Y639028D01*
X7618571Y619740D01*
X7527131Y602595D01*
X7527131Y775474D01*
X7618571Y757615D01*
G37*
G36*
X8379143Y1209020D02*
G01*
X8379143Y-492462D01*
X8379143Y-492581D01*
X7620000Y-998676D01*
X6860857Y-492581D01*
X6860857Y-492462D01*
X6860857Y25380D01*
X7158514Y25380D01*
X7163693Y-57130D01*
X7179231Y-127496D01*
X7204234Y-186075D01*
X7237809Y-233224D01*
X7327106Y-294660D01*
X7439978Y-314662D01*
X7511772Y-305197D01*
X7572851Y-276800D01*
X7621786Y-231259D01*
X7657148Y-170359D01*
X7731443Y-250369D01*
X7832884Y-280372D01*
X7931468Y-263227D01*
X8010763Y-210364D01*
X8062913Y-119638D01*
X8076843Y-59809D01*
X8081486Y9664D01*
X8074878Y85566D01*
X8055054Y153253D01*
X8002905Y255409D01*
X7874318Y192544D01*
X7915037Y107533D01*
X7931468Y8235D01*
X7903607Y-72489D01*
X7827169Y-101779D01*
X7772876Y-88205D01*
X7738586Y-53201D01*
X7720013Y-4624D01*
X7714298Y49669D01*
X7714298Y115391D01*
X7568565Y115391D01*
X7568565Y61099D01*
X7561600Y-17125D01*
X7540704Y-80347D01*
X7502307Y-122138D01*
X7442835Y-136069D01*
X7347109Y-99635D01*
X7318177Y-49808D01*
X7308533Y26809D01*
X7312462Y94496D01*
X7324249Y151825D01*
X7354253Y236835D01*
X7207091Y271125D01*
X7191375Y226834D01*
X7175659Y164683D01*
X7163514Y94675D01*
X7158514Y25380D01*
X6860857Y25380D01*
X6860857Y531158D01*
X7177088Y531158D01*
X7177088Y342563D01*
X7277357Y366137D01*
X7374712Y389997D01*
X7469153Y414143D01*
X7560678Y438575D01*
X7649289Y463292D01*
X7756758Y494412D01*
X7861280Y525621D01*
X7962855Y556920D01*
X8061484Y588308D01*
X8061484Y779760D01*
X7963659Y810032D01*
X7863066Y840839D01*
X7759705Y872182D01*
X7653576Y904061D01*
X7565708Y929722D01*
X7474125Y955268D01*
X7378827Y980700D01*
X7279815Y1006017D01*
X7177088Y1031220D01*
X7177088Y848340D01*
X7381399Y808335D01*
X7381399Y572591D01*
X7177088Y531158D01*
X6860857Y531158D01*
X6860857Y1209020D01*
X6860857Y1506676D01*
X8379143Y1506676D01*
X8379143Y1209020D01*
G37*
%TO.C,R2*%
X97267500Y-20557258D02*
X97267500Y-20082742D01*
X98312500Y-20557258D02*
X98312500Y-20082742D01*
%TO.C,kibuzzard-653BD1D9*%
G36*
X2128679Y-9917628D02*
G01*
X2218690Y-9923463D01*
X2370931Y-9954578D01*
X2474278Y-10020141D01*
X2512060Y-10133489D01*
X2474278Y-10246836D01*
X2372043Y-10312400D01*
X2219801Y-10343515D01*
X2128957Y-10349349D01*
X2032000Y-10351294D01*
X1935321Y-10349349D01*
X1845310Y-10343515D01*
X1693069Y-10312400D01*
X1589723Y-10245725D01*
X1551940Y-10133489D01*
X1589723Y-10020141D01*
X1691958Y-9954578D01*
X1844199Y-9923463D01*
X1935043Y-9917628D01*
X2032000Y-9915684D01*
X2128679Y-9917628D01*
G37*
G36*
X2147747Y-8462484D02*
G01*
X2262380Y-8479488D01*
X2374794Y-8507646D01*
X2483906Y-8546687D01*
X2588667Y-8596236D01*
X2688066Y-8655813D01*
X2781148Y-8724847D01*
X2867014Y-8802672D01*
X2944839Y-8888538D01*
X3013873Y-8981620D01*
X3073451Y-9081019D01*
X3122999Y-9185780D01*
X3162040Y-9294892D01*
X3190198Y-9407306D01*
X3207202Y-9521939D01*
X3212888Y-9637686D01*
X3212888Y-9637871D01*
X3212888Y-11698129D01*
X3212888Y-11698314D01*
X3207202Y-11814061D01*
X3190198Y-11928694D01*
X3162040Y-12041108D01*
X3122999Y-12150220D01*
X3073451Y-12254981D01*
X3013873Y-12354380D01*
X2944839Y-12447462D01*
X2867014Y-12533328D01*
X2781148Y-12611153D01*
X2688066Y-12680187D01*
X2588667Y-12739764D01*
X2483906Y-12789313D01*
X2374794Y-12828354D01*
X2262380Y-12856512D01*
X2147747Y-12873516D01*
X2032000Y-12879202D01*
X1916253Y-12873516D01*
X1801620Y-12856512D01*
X1689206Y-12828354D01*
X1580094Y-12789313D01*
X1475333Y-12739764D01*
X1375934Y-12680187D01*
X1282852Y-12611153D01*
X1196986Y-12533328D01*
X1119161Y-12447462D01*
X1050127Y-12354380D01*
X990549Y-12254981D01*
X941001Y-12150220D01*
X901960Y-12041108D01*
X873802Y-11928694D01*
X856798Y-11814061D01*
X851112Y-11698314D01*
X851112Y-11698129D01*
X851112Y-11478101D01*
X1343025Y-11478101D01*
X1343025Y-11698129D01*
X2718753Y-11698129D01*
X2718753Y-11451431D01*
X1871980Y-11451431D01*
X1958658Y-11412260D01*
X2058670Y-11365865D01*
X2167017Y-11313636D01*
X2278698Y-11256963D01*
X2392323Y-11197233D01*
X2506504Y-11135836D01*
X2616795Y-11073606D01*
X2718753Y-11011376D01*
X2718753Y-10791349D01*
X1343025Y-10791349D01*
X1343025Y-11038046D01*
X2256473Y-11038046D01*
X2103984Y-11120649D01*
X1951743Y-11199548D01*
X1799749Y-11274743D01*
X1647754Y-11346233D01*
X1495513Y-11414019D01*
X1343025Y-11478101D01*
X851112Y-11478101D01*
X851112Y-10135711D01*
X1314133Y-10135711D01*
X1334258Y-10280915D01*
X1394636Y-10402411D01*
X1495266Y-10500201D01*
X1596737Y-10556597D01*
X1720017Y-10596880D01*
X1865104Y-10621050D01*
X2032000Y-10629106D01*
X2198896Y-10621189D01*
X2343983Y-10597436D01*
X2467263Y-10557847D01*
X2568734Y-10502424D01*
X2669364Y-10405128D01*
X2729742Y-10282149D01*
X2749868Y-10133489D01*
X2729742Y-9989273D01*
X2669364Y-9867777D01*
X2568734Y-9768999D01*
X2467263Y-9711630D01*
X2343983Y-9670653D01*
X2198896Y-9646067D01*
X2032000Y-9637871D01*
X1865104Y-9645858D01*
X1720017Y-9669820D01*
X1596737Y-9709755D01*
X1495266Y-9765665D01*
X1394636Y-9863578D01*
X1334258Y-9986927D01*
X1314133Y-10135711D01*
X851112Y-10135711D01*
X851112Y-9637871D01*
X851112Y-9637686D01*
X856798Y-9521939D01*
X873802Y-9407306D01*
X901960Y-9294892D01*
X941001Y-9185780D01*
X990549Y-9081019D01*
X1050127Y-8981620D01*
X1119161Y-8888538D01*
X1196986Y-8802672D01*
X1282852Y-8724847D01*
X1375934Y-8655813D01*
X1475333Y-8596236D01*
X1580094Y-8546687D01*
X1689206Y-8507646D01*
X1801620Y-8479488D01*
X1916253Y-8462484D01*
X2032000Y-8456798D01*
X2147747Y-8462484D01*
G37*
%TO.C,R10*%
X5096742Y-18400500D02*
X5571258Y-18400500D01*
X5096742Y-19445500D02*
X5571258Y-19445500D01*
%TO.C,C4*%
X71939500Y-31869500D02*
X71939500Y-31082000D01*
X71545750Y-31475750D02*
X72333250Y-31475750D01*
X71441437Y-30842000D02*
X72727000Y-30842000D01*
X71441437Y-30842000D02*
X70377000Y-29777563D01*
X76132563Y-30842000D02*
X74847000Y-30842000D01*
X76132563Y-30842000D02*
X77197000Y-29777563D01*
X70377000Y-29777563D02*
X70377000Y-24022000D01*
X77197000Y-29777563D02*
X77197000Y-24022000D01*
X70377000Y-24022000D02*
X72727000Y-24022000D01*
X77197000Y-24022000D02*
X74847000Y-24022000D01*
%TO.C,U10*%
X88319000Y29210000D02*
X88319000Y31010000D01*
X88319000Y29210000D02*
X88319000Y28410000D01*
X85199000Y29210000D02*
X85199000Y30010000D01*
X85199000Y29210000D02*
X85199000Y28410000D01*
%TO.C,R22*%
X47227258Y-41670500D02*
X46752742Y-41670500D01*
X47227258Y-40625500D02*
X46752742Y-40625500D01*
%TO.C,U14*%
X77470000Y14498000D02*
X74020000Y14498000D01*
X77470000Y14498000D02*
X79420000Y14498000D01*
X77470000Y9378000D02*
X75520000Y9378000D01*
X77470000Y9378000D02*
X79420000Y9378000D01*
%TO.C,D1*%
X3849000Y-15902000D02*
X3849000Y-17372000D01*
X3849000Y-17372000D02*
X6134000Y-17372000D01*
X6134000Y-15902000D02*
X3849000Y-15902000D01*
%TO.C,C17*%
X87755000Y-29735580D02*
X87755000Y-29454420D01*
X88775000Y-29735580D02*
X88775000Y-29454420D01*
%TO.C,R14*%
X73008258Y2906500D02*
X72533742Y2906500D01*
X73008258Y3951500D02*
X72533742Y3951500D01*
%TO.C,R7*%
X97267500Y31512742D02*
X97267500Y31987258D01*
X98312500Y31512742D02*
X98312500Y31987258D01*
%TO.C,R6*%
X97267500Y20082742D02*
X97267500Y20557258D01*
X98312500Y20082742D02*
X98312500Y20557258D01*
%TO.C,C20*%
X86621252Y16283000D02*
X86098748Y16283000D01*
X86621252Y17753000D02*
X86098748Y17753000D01*
%TO.C,R18*%
X86597258Y7859500D02*
X86122742Y7859500D01*
X86597258Y8904500D02*
X86122742Y8904500D01*
%TO.C,R8*%
X88662742Y-10780500D02*
X89137258Y-10780500D01*
X88662742Y-11825500D02*
X89137258Y-11825500D01*
%TO.C,kibuzzard-653BD22E*%
G36*
X10222151Y15170626D02*
G01*
X10280015Y15166876D01*
X10377884Y15146873D01*
X10444321Y15104725D01*
X10468610Y15031859D01*
X10444321Y14958993D01*
X10378599Y14916845D01*
X10280729Y14896842D01*
X10222329Y14893092D01*
X10160000Y14891841D01*
X10097849Y14893092D01*
X10039985Y14896842D01*
X9942116Y14916845D01*
X9875679Y14959707D01*
X9851390Y15031859D01*
X9875679Y15104725D01*
X9941401Y15146873D01*
X10039271Y15166876D01*
X10097671Y15170626D01*
X10160000Y15171876D01*
X10222151Y15170626D01*
G37*
G36*
X10919143Y17499310D02*
G01*
X10919143Y14713248D01*
X10919143Y14713129D01*
X10160000Y14207034D01*
X9400857Y14713129D01*
X9400857Y14713248D01*
X9400857Y15030430D01*
X9698514Y15030430D01*
X9711452Y14937085D01*
X9750266Y14858980D01*
X9814957Y14796115D01*
X9880188Y14759861D01*
X9959439Y14733965D01*
X10052710Y14718427D01*
X10160000Y14713248D01*
X10267290Y14718338D01*
X10360561Y14733607D01*
X10439812Y14759057D01*
X10505043Y14794686D01*
X10569734Y14857234D01*
X10608548Y14936291D01*
X10621486Y15031859D01*
X10608548Y15124569D01*
X10569734Y15202674D01*
X10505043Y15266174D01*
X10439812Y15303054D01*
X10360561Y15329396D01*
X10267290Y15345202D01*
X10160000Y15350470D01*
X10052710Y15345336D01*
X9959439Y15329932D01*
X9880188Y15304259D01*
X9814957Y15268317D01*
X9750266Y15205373D01*
X9711452Y15126077D01*
X9698514Y15030430D01*
X9400857Y15030430D01*
X9400857Y15771951D01*
X9698514Y15771951D01*
X9706054Y15671701D01*
X9728676Y15590024D01*
X9766379Y15526921D01*
X9848354Y15466378D01*
X9958546Y15446196D01*
X10025162Y15452269D01*
X10079276Y15470485D01*
X10159286Y15532636D01*
X10210721Y15615503D01*
X10245725Y15701943D01*
X10267156Y15756950D01*
X10293588Y15806956D01*
X10327878Y15843389D01*
X10372884Y15857676D01*
X10429240Y15842119D01*
X10463054Y15795446D01*
X10474325Y15717659D01*
X10460038Y15616932D01*
X10425748Y15537636D01*
X10561479Y15486201D01*
X10602913Y15588357D01*
X10616843Y15654258D01*
X10621486Y15730518D01*
X10613708Y15818068D01*
X10590371Y15892125D01*
X10551478Y15952688D01*
X10467896Y16013232D01*
X10357168Y16033413D01*
X10252154Y16010553D01*
X10181431Y15952688D01*
X10134283Y15874821D01*
X10101421Y15791954D01*
X10076418Y15731946D01*
X10046414Y15677654D01*
X10008553Y15637649D01*
X9959975Y15621933D01*
X9917827Y15628362D01*
X9880679Y15651936D01*
X9854962Y15698371D01*
X9845675Y15771951D01*
X9850676Y15843210D01*
X9865678Y15902682D01*
X9908540Y15994836D01*
X9765665Y16046271D01*
X9722088Y15947688D01*
X9704407Y15870892D01*
X9698514Y15771951D01*
X9400857Y15771951D01*
X9400857Y16740644D01*
X9717088Y16740644D01*
X9717088Y16179145D01*
X9862820Y16179145D01*
X9862820Y16370598D01*
X10455751Y16370598D01*
X10455751Y16179145D01*
X10601484Y16179145D01*
X10601484Y16740644D01*
X10455751Y16740644D01*
X10455751Y16547763D01*
X9862820Y16547763D01*
X9862820Y16740644D01*
X9717088Y16740644D01*
X9400857Y16740644D01*
X9400857Y16850658D01*
X9717088Y16850658D01*
X9830137Y16853872D01*
X9940687Y16857801D01*
X10049629Y16862623D01*
X10157857Y16868517D01*
X10266263Y16875661D01*
X10375741Y16884233D01*
X10487184Y16893699D01*
X10601484Y16903521D01*
X10601484Y17049254D01*
X10525760Y17074971D01*
X10427891Y17106404D01*
X10319306Y17142123D01*
X10210006Y17177841D01*
X10312876Y17210703D01*
X10422890Y17244993D01*
X10524331Y17277140D01*
X10601484Y17302143D01*
X10601484Y17447875D01*
X10504686Y17457341D01*
X10400030Y17465735D01*
X10289659Y17473057D01*
X10175716Y17479308D01*
X10059630Y17484844D01*
X9942830Y17490023D01*
X9827816Y17494845D01*
X9717088Y17499310D01*
X9717088Y17337861D01*
X10404316Y17345005D01*
X10029984Y17240706D01*
X10029984Y17112119D01*
X10404316Y17003534D01*
X9717088Y17012106D01*
X9717088Y16850658D01*
X9400857Y16850658D01*
X9400857Y17499310D01*
X9400857Y17796966D01*
X10919143Y17796966D01*
X10919143Y17499310D01*
G37*
%TO.C,J12*%
X111192000Y43240000D02*
X112522000Y43240000D01*
X111192000Y41910000D02*
X111192000Y43240000D01*
X111192000Y40640000D02*
X111192000Y35500000D01*
X111192000Y40640000D02*
X113852000Y40640000D01*
X111192000Y35500000D02*
X113852000Y35500000D01*
X113852000Y40640000D02*
X113852000Y35500000D01*
D15*
%TO.C,U12*%
X91008000Y1273250D02*
X91008000Y453250D01*
X88308000Y1173250D02*
X88528000Y1173250D01*
X88308000Y1173250D02*
X88308000Y453250D01*
X91008000Y-1306750D02*
X91008000Y-2026750D01*
X91008000Y-2026750D02*
X90788000Y-2026750D01*
X88528000Y-2026750D02*
X88308000Y-2026750D01*
X88308000Y-2026750D02*
X88308000Y-1306750D01*
%TO.C,kibuzzard-653BD153*%
G36*
X112360869Y-47925196D02*
G01*
X112269429Y-47907337D01*
X112181561Y-47887334D01*
X112092978Y-47864474D01*
X111997966Y-47838042D01*
X112092978Y-47811611D01*
X112181561Y-47788751D01*
X112269429Y-47769462D01*
X112360869Y-47752317D01*
X112360869Y-47925196D01*
G37*
G36*
X112578039Y-47122239D02*
G01*
X112558215Y-47185461D01*
X112498743Y-47232252D01*
X112437704Y-47253684D01*
X112360313Y-47266542D01*
X112266571Y-47270829D01*
X112173623Y-47266542D01*
X112096709Y-47253684D01*
X112035828Y-47232252D01*
X111976356Y-47185461D01*
X111956532Y-47122239D01*
X111956974Y-47120810D01*
X112156557Y-47120810D01*
X112185132Y-47179389D01*
X112252284Y-47200820D01*
X112318721Y-47179389D01*
X112346581Y-47120810D01*
X112318721Y-47064374D01*
X112252284Y-47042229D01*
X112185132Y-47064374D01*
X112156557Y-47120810D01*
X111956974Y-47120810D01*
X111976356Y-47058124D01*
X112035828Y-47011511D01*
X112096709Y-46990476D01*
X112173623Y-46977856D01*
X112266571Y-46973649D01*
X112360313Y-46977856D01*
X112437704Y-46990476D01*
X112498743Y-47011511D01*
X112558215Y-47058124D01*
X112577597Y-47120810D01*
X112578039Y-47122239D01*
G37*
G36*
X113027143Y-47680880D02*
G01*
X113027143Y-48180943D01*
X113027143Y-48181062D01*
X113023487Y-48255471D01*
X113012556Y-48329163D01*
X112994454Y-48401429D01*
X112969356Y-48471573D01*
X112937504Y-48538919D01*
X112899204Y-48602819D01*
X112854825Y-48662656D01*
X112804795Y-48717856D01*
X112749595Y-48767887D01*
X112689757Y-48812265D01*
X112625857Y-48850565D01*
X112558511Y-48882418D01*
X112488367Y-48907516D01*
X112416101Y-48925617D01*
X112342409Y-48936549D01*
X112268000Y-48940204D01*
X112193591Y-48936549D01*
X112119899Y-48925617D01*
X112047633Y-48907516D01*
X111977489Y-48882418D01*
X111910143Y-48850565D01*
X111846243Y-48812265D01*
X111786405Y-48767887D01*
X111731205Y-48717856D01*
X111681175Y-48662656D01*
X111636796Y-48602819D01*
X111598496Y-48538919D01*
X111566644Y-48471573D01*
X111541546Y-48401429D01*
X111523444Y-48329163D01*
X111512513Y-48255471D01*
X111508857Y-48181062D01*
X111508857Y-48180943D01*
X111508857Y-48180942D01*
X111508857Y-47929482D01*
X111826516Y-47929482D01*
X111924341Y-47959754D01*
X112024934Y-47990562D01*
X112128295Y-48021905D01*
X112234424Y-48053784D01*
X112322292Y-48079444D01*
X112413875Y-48104990D01*
X112509173Y-48130422D01*
X112608185Y-48155739D01*
X112710912Y-48180943D01*
X112710912Y-47998062D01*
X112506601Y-47958057D01*
X112506601Y-47722314D01*
X112710912Y-47680880D01*
X112710912Y-47492285D01*
X112610643Y-47515859D01*
X112513288Y-47539719D01*
X112418847Y-47563865D01*
X112327322Y-47588297D01*
X112238711Y-47613014D01*
X112131242Y-47644134D01*
X112026720Y-47675344D01*
X111925145Y-47706642D01*
X111826516Y-47738030D01*
X111826516Y-47929482D01*
X111508857Y-47929482D01*
X111508857Y-47122239D01*
X111806514Y-47122239D01*
X111819214Y-47212885D01*
X111857314Y-47288609D01*
X111920814Y-47349410D01*
X111985286Y-47384414D01*
X112064403Y-47409417D01*
X112158165Y-47424419D01*
X112266571Y-47429420D01*
X112376228Y-47424509D01*
X112470883Y-47409775D01*
X112550535Y-47385218D01*
X112615186Y-47350839D01*
X112678686Y-47290514D01*
X112716786Y-47214314D01*
X112729486Y-47122239D01*
X112716786Y-47030164D01*
X112678686Y-46953964D01*
X112615186Y-46893639D01*
X112550535Y-46859259D01*
X112470883Y-46834703D01*
X112376228Y-46819969D01*
X112266571Y-46815057D01*
X112157584Y-46819969D01*
X112063510Y-46834703D01*
X111984348Y-46859259D01*
X111920099Y-46893639D01*
X111856996Y-46953964D01*
X111819134Y-47030164D01*
X111806514Y-47122239D01*
X111508857Y-47122239D01*
X111508857Y-46815057D01*
X111508857Y-46814938D01*
X111512513Y-46740529D01*
X111523444Y-46666837D01*
X111541546Y-46594571D01*
X111566644Y-46524427D01*
X111598496Y-46457081D01*
X111636796Y-46393181D01*
X111681175Y-46333344D01*
X111731205Y-46278144D01*
X111786405Y-46228113D01*
X111846243Y-46183735D01*
X111910143Y-46145435D01*
X111977489Y-46113582D01*
X112047633Y-46088484D01*
X112119899Y-46070383D01*
X112193591Y-46059451D01*
X112268000Y-46055796D01*
X112342409Y-46059451D01*
X112416101Y-46070383D01*
X112488367Y-46088484D01*
X112558511Y-46113582D01*
X112625857Y-46145435D01*
X112689757Y-46183735D01*
X112749595Y-46228113D01*
X112804795Y-46278144D01*
X112854825Y-46333344D01*
X112899204Y-46393181D01*
X112937504Y-46457081D01*
X112969356Y-46524427D01*
X112994454Y-46594571D01*
X113012556Y-46666837D01*
X113023487Y-46740529D01*
X113027142Y-46814938D01*
X113027143Y-46814938D01*
X113027143Y-46815057D01*
X113027143Y-47122239D01*
X113027143Y-47680880D01*
G37*
D12*
%TO.C,J9*%
X16570000Y6410000D02*
X16570000Y5080000D01*
X15240000Y6410000D02*
X16570000Y6410000D01*
X13970000Y6410000D02*
X3750000Y6410000D01*
X13970000Y6410000D02*
X13970000Y3750000D01*
X3750000Y6410000D02*
X3750000Y3750000D01*
X13970000Y3750000D02*
X3750000Y3750000D01*
%TO.C,kibuzzard-653BD5EB*%
G36*
X115499356Y39045356D02*
G01*
X115528527Y38987016D01*
X115538250Y38900894D01*
X115538250Y38858031D01*
X115242975Y38858031D01*
X115239006Y38889781D01*
X115238212Y38916769D01*
X115247341Y38987016D01*
X115274725Y39042181D01*
X115321556Y39077900D01*
X115389025Y39089806D01*
X115499356Y39045356D01*
G37*
G36*
X115639056Y40715605D02*
G01*
X115703350Y40711438D01*
X115812094Y40689213D01*
X115885912Y40641588D01*
X115912900Y40561419D01*
X115885912Y40480456D01*
X115812887Y40433625D01*
X115704144Y40411400D01*
X115639255Y40407233D01*
X115570000Y40405844D01*
X115500944Y40407233D01*
X115436650Y40411400D01*
X115327906Y40433625D01*
X115254087Y40480456D01*
X115227100Y40561419D01*
X115254087Y40642381D01*
X115327112Y40689213D01*
X115435856Y40711438D01*
X115500745Y40715605D01*
X115570000Y40716994D01*
X115639056Y40715605D01*
G37*
G36*
X116413492Y40563006D02*
G01*
X116413492Y39666069D01*
X116413492Y39353331D01*
X116413492Y37883306D01*
X116413492Y37357844D01*
X116413492Y37053044D01*
X116413492Y37052911D01*
X116409430Y36970235D01*
X116397284Y36888354D01*
X116377171Y36808059D01*
X116349285Y36730121D01*
X116313893Y36655292D01*
X116271338Y36584293D01*
X116222028Y36517806D01*
X116166439Y36456473D01*
X116105105Y36400884D01*
X116038619Y36351574D01*
X115967619Y36309018D01*
X115892790Y36273627D01*
X115814853Y36245740D01*
X115734557Y36225627D01*
X115652677Y36213481D01*
X115570000Y36209420D01*
X115487323Y36213481D01*
X115405443Y36225627D01*
X115325147Y36245740D01*
X115247210Y36273627D01*
X115172381Y36309018D01*
X115101381Y36351574D01*
X115034895Y36400884D01*
X114973561Y36456473D01*
X114917972Y36517806D01*
X114868662Y36584293D01*
X114826107Y36655292D01*
X114790715Y36730121D01*
X114762829Y36808059D01*
X114742716Y36888354D01*
X114730570Y36970235D01*
X114726508Y37052911D01*
X114726508Y37053044D01*
X114726508Y37403881D01*
X115057237Y37403881D01*
X115065881Y37306603D01*
X115091810Y37224317D01*
X115135025Y37157025D01*
X115227894Y37089755D01*
X115350925Y37067331D01*
X115467606Y37092731D01*
X115546187Y37157025D01*
X115598575Y37243544D01*
X115635087Y37335619D01*
X115662869Y37402294D01*
X115696206Y37462619D01*
X115738275Y37507069D01*
X115792250Y37524531D01*
X115839081Y37517388D01*
X115880356Y37491194D01*
X115908931Y37439600D01*
X115919250Y37357844D01*
X115913694Y37278667D01*
X115897025Y37212588D01*
X115849400Y37110194D01*
X116008150Y37053044D01*
X116056569Y37162581D01*
X116076214Y37247909D01*
X116082762Y37357844D01*
X116074384Y37469233D01*
X116049249Y37559985D01*
X116007356Y37630100D01*
X115916273Y37697370D01*
X115793837Y37719794D01*
X115719820Y37713047D01*
X115659694Y37692806D01*
X115570794Y37623750D01*
X115513644Y37531675D01*
X115474750Y37435631D01*
X115450937Y37374513D01*
X115421569Y37318950D01*
X115383469Y37278469D01*
X115333462Y37262594D01*
X115270844Y37279880D01*
X115233274Y37331738D01*
X115220750Y37418169D01*
X115236625Y37530088D01*
X115274725Y37618194D01*
X115123912Y37675344D01*
X115077875Y37561838D01*
X115062397Y37488614D01*
X115057237Y37403881D01*
X114726508Y37403881D01*
X114726508Y37883306D01*
X115079462Y37883306D01*
X116062125Y37883306D01*
X116062125Y38513544D01*
X115900200Y38513544D01*
X115900200Y38078569D01*
X115623975Y38078569D01*
X115623975Y38426231D01*
X115462050Y38426231D01*
X115462050Y38078569D01*
X115241387Y38078569D01*
X115241387Y38478619D01*
X115079462Y38478619D01*
X115079462Y37883306D01*
X114726508Y37883306D01*
X114726508Y38916769D01*
X115068350Y38916769D01*
X115069937Y38861206D01*
X115073906Y38794531D01*
X115081844Y38725475D01*
X115093750Y38662769D01*
X116062125Y38662769D01*
X116062125Y38858031D01*
X115700175Y38858031D01*
X115700175Y38959631D01*
X115790067Y39013408D01*
X115878769Y39063613D01*
X115968661Y39109055D01*
X116062125Y39148544D01*
X116062125Y39353331D01*
X115958144Y39308088D01*
X115848606Y39253319D01*
X115743831Y39194581D01*
X115652550Y39137431D01*
X115607703Y39206884D01*
X115546187Y39253319D01*
X115472369Y39279513D01*
X115390612Y39288244D01*
X115313420Y39281695D01*
X115246944Y39262050D01*
X115146137Y39186644D01*
X115111609Y39132669D01*
X115087400Y39069169D01*
X115073112Y38996938D01*
X115068350Y38916769D01*
X114726508Y38916769D01*
X114726508Y39391431D01*
X115079462Y39391431D01*
X115168362Y39409688D01*
X115279487Y39435881D01*
X115362655Y39456872D01*
X115449174Y39479626D01*
X115539044Y39504144D01*
X115630678Y39530073D01*
X115722488Y39557060D01*
X115814475Y39585106D01*
X115945444Y39626778D01*
X116062125Y39666069D01*
X116062125Y39867681D01*
X115977547Y39898020D01*
X115891028Y39927653D01*
X115802569Y39956581D01*
X115713669Y39984363D01*
X115625827Y40010556D01*
X115539044Y40035163D01*
X115412639Y40068897D01*
X115292187Y40098663D01*
X115180269Y40124261D01*
X115079462Y40145494D01*
X115079462Y39940706D01*
X115162012Y39926419D01*
X115257262Y39908956D01*
X115360252Y39889113D01*
X115466019Y39867681D01*
X115572381Y39844663D01*
X115677156Y39820056D01*
X115775383Y39794656D01*
X115862100Y39769256D01*
X115774192Y39743658D01*
X115675569Y39717663D01*
X115570794Y39692263D01*
X115464431Y39668450D01*
X115358862Y39646423D01*
X115256469Y39626381D01*
X115161814Y39609713D01*
X115079462Y39597806D01*
X115079462Y39391431D01*
X114726508Y39391431D01*
X114726508Y40561419D01*
X115057237Y40561419D01*
X115071613Y40458408D01*
X115114740Y40371624D01*
X115186619Y40301069D01*
X115259098Y40260091D01*
X115347155Y40230822D01*
X115450789Y40213260D01*
X115570000Y40207406D01*
X115689211Y40213111D01*
X115792845Y40230227D01*
X115880902Y40258752D01*
X115953381Y40298688D01*
X116025260Y40368626D01*
X116068387Y40456732D01*
X116082762Y40563006D01*
X116068387Y40666723D01*
X116025260Y40753506D01*
X115953381Y40823356D01*
X115880902Y40863639D01*
X115792845Y40892413D01*
X115689211Y40909677D01*
X115570000Y40915431D01*
X115450789Y40909776D01*
X115347155Y40892809D01*
X115259098Y40864532D01*
X115186619Y40824944D01*
X115114740Y40755447D01*
X115071613Y40667605D01*
X115057237Y40561419D01*
X114726508Y40561419D01*
X114726508Y41358344D01*
X115079462Y41358344D01*
X115141375Y41290081D01*
X115198525Y41205944D01*
X115247737Y41117044D01*
X115284250Y41034494D01*
X115446175Y41097994D01*
X115407281Y41194831D01*
X115350925Y41296431D01*
X115900200Y41296431D01*
X115900200Y41090056D01*
X116062125Y41090056D01*
X116062125Y41686956D01*
X115900200Y41686956D01*
X115900200Y41491694D01*
X115079462Y41491694D01*
X115079462Y41358344D01*
X114726508Y41358344D01*
X114726508Y41686956D01*
X114726508Y41687089D01*
X114730570Y41769765D01*
X114742716Y41851646D01*
X114762829Y41931941D01*
X114790715Y42009879D01*
X114826107Y42084708D01*
X114868662Y42155707D01*
X114917972Y42222194D01*
X114973561Y42283527D01*
X115034895Y42339116D01*
X115101381Y42388426D01*
X115172381Y42430982D01*
X115247210Y42466373D01*
X115325147Y42494260D01*
X115405443Y42514373D01*
X115487323Y42526519D01*
X115570000Y42530580D01*
X115652677Y42526519D01*
X115734557Y42514373D01*
X115814853Y42494260D01*
X115892790Y42466373D01*
X115967619Y42430982D01*
X116038619Y42388426D01*
X116105105Y42339116D01*
X116166439Y42283527D01*
X116222028Y42222194D01*
X116271338Y42155707D01*
X116313893Y42084708D01*
X116349285Y42009879D01*
X116377171Y41931941D01*
X116397284Y41851646D01*
X116409430Y41769765D01*
X116413492Y41687089D01*
X116413492Y41686956D01*
X116413492Y40563006D01*
G37*
%TO.C,C9*%
X87804000Y-2402170D02*
X87804000Y-2683330D01*
X86784000Y-2402170D02*
X86784000Y-2683330D01*
%TO.C,L2*%
X73662000Y23774000D02*
X80262000Y23774000D01*
X73662000Y22074000D02*
X73662000Y23774000D01*
X73662000Y17374000D02*
X73662000Y19074000D01*
X80262000Y23774000D02*
X80262000Y22074000D01*
X80262000Y19074000D02*
X80262000Y17374000D01*
X80262000Y17374000D02*
X73662000Y17374000D01*
%TO.C,D2*%
X84809000Y1485000D02*
X83339000Y1485000D01*
X83339000Y1485000D02*
X83339000Y-800000D01*
X84809000Y-800000D02*
X84809000Y1485000D01*
%TO.C,C25*%
X72503420Y6987000D02*
X72784580Y6987000D01*
X72503420Y5967000D02*
X72784580Y5967000D01*
%TO.C,kibuzzard-653BD1F8*%
G36*
X18638679Y-9375338D02*
G01*
X18728690Y-9381172D01*
X18880931Y-9412287D01*
X18984278Y-9477851D01*
X19022060Y-9591199D01*
X18984278Y-9704546D01*
X18882043Y-9770110D01*
X18729801Y-9801225D01*
X18638957Y-9807059D01*
X18542000Y-9809004D01*
X18445321Y-9807059D01*
X18355310Y-9801225D01*
X18203069Y-9770110D01*
X18099723Y-9703435D01*
X18061940Y-9591199D01*
X18099723Y-9477851D01*
X18201958Y-9412287D01*
X18354199Y-9381172D01*
X18445043Y-9375338D01*
X18542000Y-9373394D01*
X18638679Y-9375338D01*
G37*
G36*
X18657747Y-7920194D02*
G01*
X18772380Y-7937198D01*
X18884794Y-7965356D01*
X18993906Y-8004397D01*
X19098667Y-8053946D01*
X19198066Y-8113523D01*
X19291148Y-8182557D01*
X19377014Y-8260382D01*
X19454839Y-8346248D01*
X19523873Y-8439330D01*
X19583451Y-8538729D01*
X19632999Y-8643490D01*
X19672040Y-8752602D01*
X19700198Y-8865016D01*
X19717202Y-8979649D01*
X19722888Y-9095396D01*
X19722888Y-9095581D01*
X19722888Y-12240419D01*
X19722888Y-12240604D01*
X19717202Y-12356351D01*
X19700198Y-12470984D01*
X19672040Y-12583398D01*
X19632999Y-12692510D01*
X19583451Y-12797271D01*
X19523873Y-12896670D01*
X19454839Y-12989752D01*
X19377014Y-13075618D01*
X19291148Y-13153443D01*
X19198066Y-13222477D01*
X19098667Y-13282054D01*
X18993906Y-13331603D01*
X18884794Y-13370644D01*
X18772380Y-13398802D01*
X18657747Y-13415806D01*
X18542000Y-13421492D01*
X18426253Y-13415806D01*
X18311620Y-13398802D01*
X18199206Y-13370644D01*
X18090094Y-13331603D01*
X17985333Y-13282054D01*
X17885934Y-13222477D01*
X17792852Y-13153443D01*
X17706986Y-13075618D01*
X17629161Y-12989752D01*
X17560127Y-12896670D01*
X17500549Y-12797271D01*
X17451001Y-12692510D01*
X17411960Y-12583398D01*
X17383802Y-12470984D01*
X17366798Y-12356351D01*
X17361112Y-12240604D01*
X17361112Y-12240419D01*
X17361112Y-11398091D01*
X17853025Y-11398091D01*
X17853025Y-11671459D01*
X18441988Y-11671459D01*
X18441988Y-12169299D01*
X18668683Y-12169299D01*
X18668683Y-11671459D01*
X19002058Y-11671459D01*
X19002058Y-12240419D01*
X19228753Y-12240419D01*
X19228753Y-11398091D01*
X17853025Y-11398091D01*
X17361112Y-11398091D01*
X17361112Y-10286841D01*
X17853025Y-10286841D01*
X17853025Y-10560209D01*
X18441988Y-10560209D01*
X18441988Y-11058049D01*
X18668683Y-11058049D01*
X18668683Y-10560209D01*
X19002058Y-10560209D01*
X19002058Y-11129169D01*
X19228753Y-11129169D01*
X19228753Y-10286841D01*
X17853025Y-10286841D01*
X17361112Y-10286841D01*
X17361112Y-9593421D01*
X17824133Y-9593421D01*
X17844258Y-9738625D01*
X17904636Y-9860121D01*
X18005266Y-9957911D01*
X18106737Y-10014307D01*
X18230017Y-10054590D01*
X18375104Y-10078760D01*
X18542000Y-10086816D01*
X18708896Y-10078899D01*
X18853983Y-10055146D01*
X18977263Y-10015557D01*
X19078734Y-9960134D01*
X19179364Y-9862838D01*
X19239742Y-9739859D01*
X19259868Y-9591199D01*
X19239742Y-9446983D01*
X19179364Y-9325487D01*
X19078734Y-9226709D01*
X18977263Y-9169340D01*
X18853983Y-9128363D01*
X18708896Y-9103777D01*
X18542000Y-9095581D01*
X18375104Y-9103568D01*
X18230017Y-9127530D01*
X18106737Y-9167465D01*
X18005266Y-9223375D01*
X17904636Y-9321288D01*
X17844258Y-9444637D01*
X17824133Y-9593421D01*
X17361112Y-9593421D01*
X17361112Y-9095581D01*
X17361112Y-9095396D01*
X17366798Y-8979649D01*
X17383802Y-8865016D01*
X17411960Y-8752602D01*
X17451001Y-8643490D01*
X17500549Y-8538729D01*
X17560127Y-8439330D01*
X17629161Y-8346248D01*
X17706986Y-8260382D01*
X17792852Y-8182557D01*
X17885934Y-8113523D01*
X17985333Y-8053946D01*
X18090094Y-8004397D01*
X18199206Y-7965356D01*
X18311620Y-7937198D01*
X18426253Y-7920194D01*
X18542000Y-7914508D01*
X18657747Y-7920194D01*
G37*
%TO.C,C15*%
X87042000Y1153830D02*
X87042000Y872670D01*
X86022000Y1153830D02*
X86022000Y872670D01*
%TO.C,J10*%
X16570000Y-1210000D02*
X16570000Y-2540000D01*
X15240000Y-1210000D02*
X16570000Y-1210000D01*
X13970000Y-1210000D02*
X3750000Y-1210000D01*
X13970000Y-1210000D02*
X13970000Y-3870000D01*
X3750000Y-1210000D02*
X3750000Y-3870000D01*
X13970000Y-3870000D02*
X3750000Y-3870000D01*
%TO.C,D3*%
X88092000Y18924000D02*
X88092000Y22224000D01*
X88092000Y18924000D02*
X82582000Y18924000D01*
X88092000Y22224000D02*
X82582000Y22224000D01*
%TO.C,C23*%
X86754080Y-5504750D02*
X86472920Y-5504750D01*
X86754080Y-4484750D02*
X86472920Y-4484750D01*
%TO.C,kibuzzard-653BDB2A*%
G36*
X13459143Y10639351D02*
G01*
X13459143Y10639232D01*
X13459143Y7140768D01*
X13459143Y7140649D01*
X12700000Y6634554D01*
X11940857Y7140649D01*
X11940857Y7140768D01*
X11940857Y7930594D01*
X12257088Y7930594D01*
X12257088Y7749143D01*
X12333208Y7721838D01*
X12411075Y7695168D01*
X12490688Y7669133D01*
X12570698Y7644130D01*
X12649756Y7620556D01*
X12727861Y7598410D01*
X12841625Y7568049D01*
X12950031Y7541260D01*
X13050758Y7518221D01*
X13141484Y7499112D01*
X13141484Y7683421D01*
X13067189Y7696279D01*
X12981464Y7711996D01*
X12888774Y7729855D01*
X12793583Y7749143D01*
X12697857Y7769860D01*
X12603559Y7792006D01*
X12515155Y7814866D01*
X12437110Y7837726D01*
X12516227Y7860764D01*
X12604988Y7884160D01*
X12699286Y7907020D01*
X12795012Y7928451D01*
X12890024Y7948275D01*
X12982178Y7966313D01*
X13067367Y7981315D01*
X13141484Y7992031D01*
X13141484Y8177768D01*
X13061474Y8161338D01*
X12961461Y8137763D01*
X12886611Y8118872D01*
X12808744Y8098393D01*
X12727861Y8076327D01*
X12645390Y8052991D01*
X12562761Y8028702D01*
X12479973Y8003461D01*
X12362101Y7965956D01*
X12257088Y7930594D01*
X11940857Y7930594D01*
X11940857Y8606393D01*
X12238514Y8606393D01*
X12243693Y8523883D01*
X12259231Y8453517D01*
X12284234Y8394938D01*
X12317809Y8347789D01*
X12407106Y8286353D01*
X12519978Y8266351D01*
X12591772Y8275816D01*
X12652851Y8304212D01*
X12701786Y8349754D01*
X12737148Y8410654D01*
X12811443Y8330644D01*
X12912884Y8300641D01*
X13011468Y8317786D01*
X13090763Y8370649D01*
X13142913Y8461375D01*
X13156843Y8521204D01*
X13161486Y8590677D01*
X13154878Y8666579D01*
X13135054Y8734266D01*
X13082905Y8836422D01*
X12954318Y8773557D01*
X12995037Y8688546D01*
X13011468Y8589248D01*
X12983607Y8508524D01*
X12907169Y8479234D01*
X12852876Y8492808D01*
X12818586Y8527812D01*
X12800013Y8576389D01*
X12794298Y8630682D01*
X12794298Y8696404D01*
X12648565Y8696404D01*
X12648565Y8642112D01*
X12641600Y8563888D01*
X12620704Y8500666D01*
X12582307Y8458875D01*
X12522835Y8444944D01*
X12427109Y8481378D01*
X12398177Y8531205D01*
X12388533Y8607822D01*
X12392462Y8675509D01*
X12404249Y8732838D01*
X12434253Y8817848D01*
X12287091Y8852138D01*
X12271375Y8807847D01*
X12255659Y8745696D01*
X12243514Y8675688D01*
X12238514Y8606393D01*
X11940857Y8606393D01*
X11940857Y9266476D01*
X12241371Y9266476D01*
X12274233Y9177893D01*
X12369959Y9139317D01*
X12462828Y9177893D01*
X12495689Y9266476D01*
X12487116Y9315053D01*
X12462828Y9355773D01*
X12423537Y9384348D01*
X12369959Y9395063D01*
X12314952Y9384348D01*
X12274947Y9355773D01*
X12249944Y9315053D01*
X12241371Y9266476D01*
X11940857Y9266476D01*
X11940857Y10035143D01*
X12238514Y10035143D01*
X12243693Y9952633D01*
X12259231Y9882267D01*
X12284234Y9823688D01*
X12317809Y9776539D01*
X12407106Y9715103D01*
X12519978Y9695101D01*
X12591772Y9704566D01*
X12652851Y9732963D01*
X12701786Y9778504D01*
X12737148Y9839404D01*
X12811443Y9759394D01*
X12912884Y9729391D01*
X13011468Y9746536D01*
X13090763Y9799399D01*
X13142913Y9890125D01*
X13156843Y9949954D01*
X13161486Y10019427D01*
X13154878Y10095329D01*
X13135054Y10163016D01*
X13082905Y10265172D01*
X12954318Y10202307D01*
X12995037Y10117296D01*
X13011468Y10017998D01*
X12983607Y9937274D01*
X12907169Y9907984D01*
X12852876Y9921558D01*
X12818586Y9956562D01*
X12800013Y10005139D01*
X12794298Y10059432D01*
X12794298Y10125154D01*
X12648565Y10125154D01*
X12648565Y10070862D01*
X12641600Y9992638D01*
X12620704Y9929416D01*
X12582307Y9887625D01*
X12522835Y9873694D01*
X12427109Y9910128D01*
X12398177Y9959955D01*
X12388533Y10036572D01*
X12392462Y10104259D01*
X12404249Y10161588D01*
X12434253Y10246598D01*
X12287091Y10280888D01*
X12271375Y10236597D01*
X12255659Y10174446D01*
X12243514Y10104438D01*
X12238514Y10035143D01*
X11940857Y10035143D01*
X11940857Y10639232D01*
X11940857Y10639351D01*
X12700000Y11145446D01*
X13459143Y10639351D01*
G37*
%TO.C,SW1*%
X3660000Y-7168000D02*
X16660000Y-7168000D01*
X3660000Y-14168000D02*
X3660000Y-7168000D01*
X16660000Y-7168000D02*
X16660000Y-14168000D01*
X16660000Y-14168000D02*
X3660000Y-14168000D01*
%TO.C,R17*%
X25160500Y-17796742D02*
X25160500Y-18271258D01*
X24115500Y-17796742D02*
X24115500Y-18271258D01*
%TO.C,R16*%
X23382500Y-17796742D02*
X23382500Y-18271258D01*
X22337500Y-17796742D02*
X22337500Y-18271258D01*
%TO.C,R1*%
X98312500Y-31766742D02*
X98312500Y-32241258D01*
X97267500Y-31766742D02*
X97267500Y-32241258D01*
%TO.C,kibuzzard-653BD101*%
G36*
X104740154Y-20742910D02*
G01*
X104648714Y-20725051D01*
X104560846Y-20705048D01*
X104472264Y-20682188D01*
X104377252Y-20655756D01*
X104472264Y-20629324D01*
X104560846Y-20606464D01*
X104648714Y-20587176D01*
X104740154Y-20570031D01*
X104740154Y-20742910D01*
G37*
G36*
X105387854Y-20498594D02*
G01*
X105387854Y-20998656D01*
X105387854Y-20998775D01*
X105384292Y-21071294D01*
X105373638Y-21143114D01*
X105355996Y-21213544D01*
X105331536Y-21281905D01*
X105300493Y-21347540D01*
X105263166Y-21409816D01*
X105219915Y-21468134D01*
X105171156Y-21521931D01*
X105117359Y-21570690D01*
X105059041Y-21613942D01*
X104996765Y-21651269D01*
X104931130Y-21682312D01*
X104862768Y-21706772D01*
X104792338Y-21724414D01*
X104720518Y-21735067D01*
X104648000Y-21738630D01*
X104575482Y-21735067D01*
X104503662Y-21724414D01*
X104433232Y-21706772D01*
X104364870Y-21682312D01*
X104299235Y-21651269D01*
X104236959Y-21613942D01*
X104178641Y-21570690D01*
X104124844Y-21521931D01*
X104076085Y-21468134D01*
X104032834Y-21409816D01*
X103995507Y-21347540D01*
X103964464Y-21281905D01*
X103940004Y-21213544D01*
X103922362Y-21143114D01*
X103911708Y-21071294D01*
X103908146Y-20998775D01*
X103908146Y-20998656D01*
X103908146Y-20747196D01*
X104205802Y-20747196D01*
X104303627Y-20777468D01*
X104404220Y-20808275D01*
X104507581Y-20839619D01*
X104613710Y-20871497D01*
X104701578Y-20897158D01*
X104793161Y-20922704D01*
X104888459Y-20948136D01*
X104987471Y-20973453D01*
X105090198Y-20998656D01*
X105090198Y-20815776D01*
X104885887Y-20775771D01*
X104885887Y-20540027D01*
X105090198Y-20498594D01*
X105090198Y-20309999D01*
X104989928Y-20333573D01*
X104892573Y-20357433D01*
X104798133Y-20381579D01*
X104706607Y-20406011D01*
X104617996Y-20430728D01*
X104510527Y-20461848D01*
X104406005Y-20493057D01*
X104304430Y-20524356D01*
X104205802Y-20555744D01*
X104205802Y-20747196D01*
X103908146Y-20747196D01*
X103908146Y-19937095D01*
X104205802Y-19937095D01*
X104261523Y-19998531D01*
X104312958Y-20074255D01*
X104357249Y-20154265D01*
X104390111Y-20228560D01*
X104535843Y-20171410D01*
X104500839Y-20084256D01*
X104450118Y-19992816D01*
X104944466Y-19992816D01*
X104944466Y-20178554D01*
X105090198Y-20178554D01*
X105090198Y-19641344D01*
X104944466Y-19641344D01*
X104944466Y-19817080D01*
X104205802Y-19817080D01*
X104205802Y-19937095D01*
X103908146Y-19937095D01*
X103908146Y-19641344D01*
X103908146Y-19641225D01*
X103911708Y-19568706D01*
X103922362Y-19496886D01*
X103940004Y-19426456D01*
X103964464Y-19358095D01*
X103995507Y-19292460D01*
X104032834Y-19230184D01*
X104076085Y-19171866D01*
X104124844Y-19118069D01*
X104178641Y-19069310D01*
X104236959Y-19026058D01*
X104299235Y-18988731D01*
X104364870Y-18957688D01*
X104433232Y-18933228D01*
X104503662Y-18915586D01*
X104575482Y-18904933D01*
X104648000Y-18901370D01*
X104720518Y-18904933D01*
X104792338Y-18915586D01*
X104862768Y-18933228D01*
X104931130Y-18957688D01*
X104996765Y-18988731D01*
X105059041Y-19026058D01*
X105117359Y-19069310D01*
X105171156Y-19118069D01*
X105219915Y-19171866D01*
X105263166Y-19230184D01*
X105300493Y-19292460D01*
X105331536Y-19358095D01*
X105355996Y-19426456D01*
X105373638Y-19496886D01*
X105384292Y-19568706D01*
X105387854Y-19641225D01*
X105387854Y-19641344D01*
X105387854Y-20498594D01*
G37*
%TO.C,R13*%
X18273500Y19066742D02*
X18273500Y19541258D01*
X19318500Y19066742D02*
X19318500Y19541258D01*
%TO.C,kibuzzard-653BDB4D*%
G36*
X15999143Y3019351D02*
G01*
X15999143Y3019232D01*
X15999143Y-479232D01*
X15999143Y-479351D01*
X15240000Y-985446D01*
X14480857Y-479351D01*
X14480857Y-479232D01*
X14480857Y477044D01*
X14778514Y477044D01*
X14783336Y398998D01*
X14797802Y330597D01*
X14839950Y229870D01*
X14978539Y274161D01*
X14947106Y346313D01*
X14931390Y459899D01*
X14951571Y561876D01*
X15012114Y630634D01*
X15073789Y659606D01*
X15151179Y676989D01*
X15244286Y682784D01*
X15324296Y677962D01*
X15390019Y663496D01*
X15483602Y613489D01*
X15533608Y543481D01*
X15548610Y462756D01*
X15533608Y356314D01*
X15497175Y277019D01*
X15637193Y231299D01*
X15654338Y260588D01*
X15675769Y308451D01*
X15693628Y374888D01*
X15701486Y459899D01*
X15693807Y543659D01*
X15670768Y620633D01*
X15632906Y689213D01*
X15580757Y747792D01*
X15514856Y795476D01*
X15435739Y831374D01*
X15343942Y853877D01*
X15240000Y861377D01*
X15135612Y855216D01*
X15043904Y836732D01*
X14964876Y805924D01*
X14898529Y762794D01*
X14831854Y687229D01*
X14791849Y591979D01*
X14778514Y477044D01*
X14480857Y477044D01*
X14480857Y1191419D01*
X14778514Y1191419D01*
X14783336Y1113373D01*
X14797802Y1044972D01*
X14839950Y944245D01*
X14978539Y988536D01*
X14947106Y1060688D01*
X14931390Y1174274D01*
X14951571Y1276251D01*
X15012114Y1345009D01*
X15073789Y1373981D01*
X15151179Y1391364D01*
X15244286Y1397159D01*
X15324296Y1392337D01*
X15390019Y1377871D01*
X15483602Y1327864D01*
X15533608Y1257856D01*
X15548610Y1177131D01*
X15533608Y1070689D01*
X15497175Y991394D01*
X15637193Y945674D01*
X15654338Y974963D01*
X15675769Y1022826D01*
X15693628Y1089263D01*
X15701486Y1174274D01*
X15693807Y1258034D01*
X15670768Y1335008D01*
X15632906Y1403588D01*
X15580757Y1462167D01*
X15514856Y1509851D01*
X15435739Y1545749D01*
X15343942Y1568252D01*
X15240000Y1575753D01*
X15135612Y1569591D01*
X15043904Y1551107D01*
X14964876Y1520299D01*
X14898529Y1477169D01*
X14831854Y1401604D01*
X14791849Y1306354D01*
X14778514Y1191419D01*
X14480857Y1191419D01*
X14480857Y2062956D01*
X14797088Y2062956D01*
X14797088Y1881505D01*
X14873208Y1854200D01*
X14951075Y1827530D01*
X15030688Y1801495D01*
X15110698Y1776492D01*
X15189756Y1752917D01*
X15267861Y1730772D01*
X15381625Y1700411D01*
X15490031Y1673622D01*
X15590758Y1650583D01*
X15681484Y1631474D01*
X15681484Y1815783D01*
X15607189Y1828641D01*
X15521464Y1844357D01*
X15428774Y1862217D01*
X15333583Y1881505D01*
X15237857Y1902222D01*
X15143559Y1924368D01*
X15055155Y1947228D01*
X14977110Y1970087D01*
X15056227Y1993126D01*
X15144988Y2016522D01*
X15239286Y2039382D01*
X15335012Y2060813D01*
X15430024Y2080637D01*
X15522178Y2098675D01*
X15607367Y2113677D01*
X15681484Y2124392D01*
X15681484Y2310130D01*
X15601474Y2293699D01*
X15501461Y2270125D01*
X15426611Y2251234D01*
X15348744Y2230755D01*
X15267861Y2208689D01*
X15185390Y2185352D01*
X15102761Y2161064D01*
X15019973Y2135822D01*
X14902101Y2098318D01*
X14797088Y2062956D01*
X14480857Y2062956D01*
X14480857Y3019232D01*
X14480857Y3019351D01*
X15240000Y3525446D01*
X15999143Y3019351D01*
G37*
%TO.C,R4*%
X97267500Y-237258D02*
X97267500Y237258D01*
X98312500Y-237258D02*
X98312500Y237258D01*
%TO.C,R11*%
X83551500Y3318742D02*
X83551500Y3793258D01*
X84596500Y3318742D02*
X84596500Y3793258D01*
%TO.C,U1*%
X72517000Y-15204000D02*
X70717000Y-15204000D01*
X72517000Y-15204000D02*
X73317000Y-15204000D01*
X72517000Y-18324000D02*
X71717000Y-18324000D01*
X72517000Y-18324000D02*
X73317000Y-18324000D01*
%TO.C,R9*%
X89264258Y-9285500D02*
X88789742Y-9285500D01*
X89264258Y-8240500D02*
X88789742Y-8240500D01*
%TO.C,C13*%
X95379000Y-22863420D02*
X95379000Y-23144580D01*
X94359000Y-22863420D02*
X94359000Y-23144580D01*
%TD*%
%LPC*%
D16*
%TO.C,REF\u002A\u002A*%
X4500000Y-43500000D03*
%TD*%
D17*
%TO.C,J14*%
X48260000Y-43688000D03*
D18*
X45720000Y-43688000D03*
%TD*%
D17*
%TO.C,J2*%
X15240000Y12700000D03*
D18*
X12700000Y12700000D03*
X10160000Y12700000D03*
X7620000Y12700000D03*
X5080000Y12700000D03*
%TD*%
D19*
%TO.C,C19*%
X76700000Y31242000D03*
X71300000Y31242000D03*
%TD*%
D20*
%TO.C,X1*%
X91446000Y-6944750D03*
X91446000Y-4744750D03*
X89746000Y-4744750D03*
X89746000Y-6944750D03*
%TD*%
D21*
%TO.C,C7*%
X78669625Y2665000D03*
X78669625Y1115000D03*
%TD*%
D22*
%TO.C,C18*%
X14211000Y-19304000D03*
X15761000Y-19304000D03*
%TD*%
D23*
%TO.C,U13*%
X13862500Y-23190000D03*
X13862500Y-24140000D03*
X13862500Y-25090000D03*
X16137500Y-25090000D03*
X16137500Y-23190000D03*
%TD*%
D24*
%TO.C,C1*%
X72578000Y10033000D03*
X70678000Y10033000D03*
%TD*%
D25*
%TO.C,C27*%
X83325000Y-31242000D03*
X81775000Y-31242000D03*
%TD*%
D26*
%TO.C,J6*%
X10250000Y27700000D03*
%TD*%
D22*
%TO.C,C8*%
X87762000Y25908000D03*
X89312000Y25908000D03*
%TD*%
D27*
%TO.C,U11*%
X73111000Y-467000D03*
D28*
X70248500Y1808000D03*
X70248500Y1158000D03*
X70248500Y508000D03*
X70248500Y-142000D03*
X70248500Y-792000D03*
X70248500Y-1442000D03*
X70248500Y-2092000D03*
X70248500Y-2742000D03*
X75973500Y-2742000D03*
X75973500Y-2092000D03*
X75973500Y-1442000D03*
X75973500Y-792000D03*
X75973500Y-142000D03*
X75973500Y508000D03*
X75973500Y1158000D03*
X75973500Y1808000D03*
%TD*%
D16*
%TO.C,REF\u002A\u002A*%
X109000000Y-27000000D03*
%TD*%
D29*
%TO.C,C10*%
X89789000Y-30383000D03*
X89789000Y-28833000D03*
%TD*%
D30*
%TO.C,BT1*%
X46990000Y-27700000D03*
X46990000Y27700000D03*
D26*
X64390000Y35930000D03*
D31*
X56540000Y-40860000D03*
X56540000Y40860000D03*
X37440000Y-40860000D03*
X37440000Y40860000D03*
%TD*%
D21*
%TO.C,C6*%
X82296000Y-25133000D03*
X82296000Y-26683000D03*
%TD*%
D32*
%TO.C,R15*%
X85934000Y32258000D03*
X87584000Y32258000D03*
%TD*%
D33*
%TO.C,R20*%
X73469000Y8001000D03*
X71819000Y8001000D03*
%TD*%
D34*
%TO.C,C2*%
X70739000Y-11750000D03*
X70739000Y-13650000D03*
%TD*%
D17*
%TO.C,J11*%
X112522000Y-41910000D03*
D18*
X112522000Y-39370000D03*
X112522000Y-36830000D03*
%TD*%
D34*
%TO.C,C3*%
X73279000Y-11750000D03*
X73279000Y-13650000D03*
%TD*%
D32*
%TO.C,R21*%
X81725000Y-32893000D03*
X83375000Y-32893000D03*
%TD*%
D35*
%TO.C,L1*%
X92093000Y27810000D03*
X92093000Y30610000D03*
%TD*%
D23*
%TO.C,U9*%
X13862500Y25090000D03*
X13862500Y24140000D03*
X13862500Y23190000D03*
X16137500Y23190000D03*
X16137500Y25090000D03*
%TD*%
D36*
%TO.C,J3*%
X72868000Y-45336000D03*
X73518000Y-45336000D03*
X74168000Y-45336000D03*
X74818000Y-45336000D03*
X75468000Y-45336000D03*
D37*
X70668000Y-48036000D03*
D38*
X71268000Y-48036000D03*
D39*
X71668000Y-45336000D03*
D40*
X73168000Y-48036000D03*
X75168000Y-48036000D03*
D39*
X76668000Y-45336000D03*
D38*
X77068000Y-48036000D03*
D37*
X77668000Y-48036000D03*
%TD*%
D26*
%TO.C,J4*%
X19750000Y27700000D03*
%TD*%
D22*
%TO.C,C14*%
X79418625Y-2682000D03*
X80968625Y-2682000D03*
%TD*%
D41*
%TO.C,R5*%
X97790000Y9335000D03*
X97790000Y10985000D03*
%TD*%
D21*
%TO.C,C24*%
X82550000Y12967000D03*
X82550000Y11417000D03*
%TD*%
D17*
%TO.C,J1*%
X76962000Y-40386000D03*
D18*
X79502000Y-40767000D03*
X82042000Y-40386000D03*
X84582000Y-40767000D03*
X87122000Y-40386000D03*
%TD*%
D22*
%TO.C,C16*%
X87762000Y24384000D03*
X89312000Y24384000D03*
%TD*%
D17*
%TO.C,J13*%
X23622000Y6350000D03*
D18*
X21082000Y6350000D03*
X23622000Y3810000D03*
X21082000Y3810000D03*
X23622000Y1270000D03*
X21082000Y1270000D03*
X23622000Y-1270000D03*
X21082000Y-1270000D03*
X23622000Y-3810000D03*
X21082000Y-3810000D03*
X23622000Y-6350000D03*
X21082000Y-6350000D03*
%TD*%
D21*
%TO.C,C11*%
X85770000Y-1767750D03*
X85770000Y-3317750D03*
%TD*%
%TO.C,C26*%
X74930000Y8014000D03*
X74930000Y6464000D03*
%TD*%
D41*
%TO.C,R3*%
X97790000Y-10985000D03*
X97790000Y-9335000D03*
%TD*%
D42*
%TO.C,U15*%
X92338000Y-24594000D03*
X92338000Y-24094000D03*
X92338000Y-23594000D03*
X92338000Y-23094000D03*
X92338000Y-22594000D03*
X92338000Y-22094000D03*
X92338000Y-21594000D03*
X92338000Y-21094000D03*
X92338000Y-20594000D03*
X92338000Y-20094000D03*
X92338000Y-19594000D03*
X92338000Y-19094000D03*
D43*
X90888000Y-17644000D03*
X90388000Y-17644000D03*
X89888000Y-17644000D03*
X89388000Y-17644000D03*
X88888000Y-17644000D03*
X88388000Y-17644000D03*
X87888000Y-17644000D03*
X87388000Y-17644000D03*
X86888000Y-17644000D03*
X86388000Y-17644000D03*
X85888000Y-17644000D03*
X85388000Y-17644000D03*
D42*
X83938000Y-19094000D03*
X83938000Y-19594000D03*
X83938000Y-20094000D03*
X83938000Y-20594000D03*
X83938000Y-21094000D03*
X83938000Y-21594000D03*
X83938000Y-22094000D03*
X83938000Y-22594000D03*
X83938000Y-23094000D03*
X83938000Y-23594000D03*
X83938000Y-24094000D03*
X83938000Y-24594000D03*
D43*
X85388000Y-26044000D03*
X85888000Y-26044000D03*
X86388000Y-26044000D03*
X86888000Y-26044000D03*
X87388000Y-26044000D03*
X87888000Y-26044000D03*
X88388000Y-26044000D03*
X88888000Y-26044000D03*
X89388000Y-26044000D03*
X89888000Y-26044000D03*
X90388000Y-26044000D03*
X90888000Y-26044000D03*
%TD*%
D33*
%TO.C,R19*%
X84137000Y8382000D03*
X82487000Y8382000D03*
%TD*%
D24*
%TO.C,C21*%
X87310000Y14008000D03*
X85410000Y14008000D03*
%TD*%
D16*
%TO.C,REF\u002A\u002A*%
X109000000Y27000000D03*
%TD*%
D41*
%TO.C,R12*%
X20828000Y18479000D03*
X20828000Y20129000D03*
%TD*%
D22*
%TO.C,C12*%
X14211000Y19304000D03*
X15761000Y19304000D03*
%TD*%
D16*
%TO.C,REF\u002A\u002A*%
X93000000Y40000000D03*
%TD*%
%TO.C,REF\u002A\u002A*%
X106000000Y-39500000D03*
%TD*%
D44*
%TO.C,C5*%
X80447625Y940000D03*
X80447625Y2840000D03*
%TD*%
D24*
%TO.C,C22*%
X87310000Y11430000D03*
X85410000Y11430000D03*
%TD*%
D41*
%TO.C,R2*%
X97790000Y-21145000D03*
X97790000Y-19495000D03*
%TD*%
D32*
%TO.C,R10*%
X4509000Y-18923000D03*
X6159000Y-18923000D03*
%TD*%
D45*
%TO.C,C4*%
X73787000Y-30132000D03*
X73787000Y-24732000D03*
%TD*%
D46*
%TO.C,U10*%
X87709000Y30347500D03*
X86759000Y30347500D03*
X85809000Y30347500D03*
X85809000Y28072500D03*
X86759000Y28072500D03*
X87709000Y28072500D03*
%TD*%
D33*
%TO.C,R22*%
X47815000Y-41148000D03*
X46165000Y-41148000D03*
%TD*%
D16*
%TO.C,REF\u002A\u002A*%
X106000000Y39500000D03*
%TD*%
D47*
%TO.C,U14*%
X74990000Y13843000D03*
X74990000Y12573000D03*
X74990000Y11303000D03*
X74990000Y10033000D03*
X79950000Y10033000D03*
X79950000Y11303000D03*
X79950000Y12573000D03*
X79950000Y13843000D03*
D48*
X77470000Y11938000D03*
%TD*%
D16*
%TO.C,REF\u002A\u002A*%
X93000000Y-40000000D03*
%TD*%
D26*
%TO.C,J5*%
X19750000Y-27700000D03*
%TD*%
D49*
%TO.C,D1*%
X4546500Y-16637000D03*
X6121500Y-16637000D03*
%TD*%
D16*
%TO.C,REF\u002A\u002A*%
X25500000Y43500000D03*
%TD*%
D29*
%TO.C,C17*%
X88265000Y-30370000D03*
X88265000Y-28820000D03*
%TD*%
D33*
%TO.C,R14*%
X73596000Y3429000D03*
X71946000Y3429000D03*
%TD*%
D41*
%TO.C,R7*%
X97790000Y30925000D03*
X97790000Y32575000D03*
%TD*%
%TO.C,R6*%
X97790000Y19495000D03*
X97790000Y21145000D03*
%TD*%
D24*
%TO.C,C20*%
X87310000Y17018000D03*
X85410000Y17018000D03*
%TD*%
D33*
%TO.C,R18*%
X87185000Y8382000D03*
X85535000Y8382000D03*
%TD*%
D32*
%TO.C,R8*%
X88075000Y-11303000D03*
X89725000Y-11303000D03*
%TD*%
D17*
%TO.C,J12*%
X112522000Y41910000D03*
D18*
X112522000Y39370000D03*
X112522000Y36830000D03*
%TD*%
D50*
%TO.C,U12*%
X90408000Y835750D03*
X89908000Y835750D03*
X89408000Y835750D03*
X88908000Y835750D03*
D51*
X88645500Y73250D03*
X88645500Y-426750D03*
X88645500Y-926750D03*
D50*
X88908000Y-1689250D03*
X89408000Y-1689250D03*
X89908000Y-1689250D03*
X90408000Y-1689250D03*
D51*
X90670500Y-926750D03*
X90670500Y-426750D03*
X90670500Y73250D03*
%TD*%
D17*
%TO.C,J9*%
X15240000Y5080000D03*
D18*
X12700000Y5080000D03*
X10160000Y5080000D03*
X7620000Y5080000D03*
X5080000Y5080000D03*
%TD*%
D21*
%TO.C,C9*%
X87294000Y-1767750D03*
X87294000Y-3317750D03*
%TD*%
D52*
%TO.C,L2*%
X74542000Y20574000D03*
X79382000Y20574000D03*
%TD*%
D53*
%TO.C,D2*%
X84074000Y787500D03*
X84074000Y-787500D03*
%TD*%
D22*
%TO.C,C25*%
X71869000Y6477000D03*
X73419000Y6477000D03*
%TD*%
D21*
%TO.C,C15*%
X86532000Y1788250D03*
X86532000Y238250D03*
%TD*%
D26*
%TO.C,J8*%
X70866000Y45212000D03*
D18*
X73406000Y45212000D03*
X75946000Y45212000D03*
X78486000Y45212000D03*
%TD*%
D16*
%TO.C,REF\u002A\u002A*%
X4500000Y43500000D03*
%TD*%
D17*
%TO.C,J10*%
X15240000Y-2540000D03*
D18*
X12700000Y-2540000D03*
X10160000Y-2540000D03*
X7620000Y-2540000D03*
X5080000Y-2540000D03*
%TD*%
D54*
%TO.C,D3*%
X86582000Y20574000D03*
X82582000Y20574000D03*
%TD*%
D25*
%TO.C,C23*%
X87388500Y-4994750D03*
X85838500Y-4994750D03*
%TD*%
D55*
%TO.C,SW1*%
X5460000Y-10668000D03*
X10160000Y-10668000D03*
X14860000Y-10668000D03*
%TD*%
D56*
%TO.C,R17*%
X24638000Y-17209000D03*
X24638000Y-18859000D03*
%TD*%
%TO.C,R16*%
X22860000Y-17209000D03*
X22860000Y-18859000D03*
%TD*%
%TO.C,R1*%
X97790000Y-31179000D03*
X97790000Y-32829000D03*
%TD*%
D16*
%TO.C,REF\u002A\u002A*%
X25500000Y-43500000D03*
%TD*%
D41*
%TO.C,R13*%
X18796000Y18479000D03*
X18796000Y20129000D03*
%TD*%
D26*
%TO.C,J7*%
X10250000Y-27700000D03*
%TD*%
D41*
%TO.C,R4*%
X97790000Y-825000D03*
X97790000Y825000D03*
%TD*%
%TO.C,R11*%
X84074000Y2731000D03*
X84074000Y4381000D03*
%TD*%
D23*
%TO.C,U1*%
X71379500Y-15814000D03*
X71379500Y-16764000D03*
X71379500Y-17714000D03*
X73654500Y-17714000D03*
X73654500Y-15814000D03*
%TD*%
D33*
%TO.C,R9*%
X89852000Y-8763000D03*
X88202000Y-8763000D03*
%TD*%
D21*
%TO.C,C13*%
X94869000Y-22229000D03*
X94869000Y-23779000D03*
%TD*%
D57*
%TO.C,U3*%
X106698000Y-19070000D03*
X106698000Y-21610000D03*
X102598000Y-21610000D03*
X102598000Y-19070000D03*
%TD*%
%TO.C,U5*%
X106698000Y1250000D03*
X106698000Y-1290000D03*
X102598000Y-1290000D03*
X102598000Y1250000D03*
%TD*%
%TO.C,U2*%
X106698000Y-44470000D03*
X106698000Y-47010000D03*
X102598000Y-47010000D03*
X102598000Y-44470000D03*
%TD*%
%TO.C,U4*%
X106680000Y-8890000D03*
X106680000Y-11430000D03*
X102580000Y-11430000D03*
X102580000Y-8890000D03*
%TD*%
%TO.C,U7*%
X106680000Y21590000D03*
X106680000Y19050000D03*
X102580000Y19050000D03*
X102580000Y21590000D03*
%TD*%
%TO.C,U6*%
X106680000Y11430000D03*
X106680000Y8890000D03*
X102580000Y8890000D03*
X102580000Y11430000D03*
%TD*%
%TO.C,U8*%
X106698000Y46970000D03*
X106698000Y44430000D03*
X102598000Y44430000D03*
X102598000Y46970000D03*
%TD*%
%LPD*%
M02*
