M48
; DRILL file {KiCad 7.0.8} date 2023 October 27, Friday 12:05:37
; FORMAT={-:-/ absolute / inch / decimal}
; #@! TF.CreationDate,2023-10-27T12:05:37-04:00
; #@! TF.GenerationSoftware,Kicad,Pcbnew,7.0.8
; #@! TF.FileFunction,Plated,1,4,PTH
FMAT,2
INCH
; #@! TA.AperFunction,Plated,PTH,ComponentDrill
T1C0.0079
; #@! TA.AperFunction,Plated,PTH,ViaDrill
T2C0.0157
; #@! TA.AperFunction,Plated,PTH,ComponentDrill
T3C0.0197
; #@! TA.AperFunction,Plated,PTH,ComponentDrill
T4C0.0217
; #@! TA.AperFunction,Plated,PTH,ComponentDrill
T5C0.0315
; #@! TA.AperFunction,Plated,PTH,ComponentDrill
T6C0.0394
; #@! TA.AperFunction,Plated,PTH,ComponentDrill
T7C0.0472
; #@! TA.AperFunction,Plated,PTH,ComponentDrill
T8C0.1260
%
G90
G05
T1
X2.839Y0.0525
X2.839Y0.0052
X2.839Y-0.042
X2.839Y-0.0893
X2.8784Y0.0525
X2.8784Y0.0052
X2.8784Y-0.042
X2.8784Y-0.0893
X2.9178Y0.0525
X2.9178Y0.0052
X2.9178Y-0.042
X2.9178Y-0.0893
T2
X0.42Y0.85
X0.48Y-0.79
X0.49Y0.85
X0.585Y-0.835
X0.74Y0.91
X0.75Y0.99
X0.9Y-0.83
X0.97Y-0.86
X1.41Y-1.39
X1.46Y-1.39
X1.51Y-1.39
X1.56Y-1.39
X1.64Y1.61
X1.74Y1.61
X1.85Y1.61
X1.96Y1.61
X2.07Y1.61
X2.34Y0.8
X2.38Y1.1379
X2.395Y-0.6179
X2.4Y0.8
X2.43Y1.1379
X2.46Y0.8
X2.465Y-0.62
X2.71Y1.23
X2.71Y-0.685
X2.745Y-0.685
X2.78Y0.325
X2.84Y-0.995
X2.87Y0.65
X2.92Y0.65
X2.955Y0.135
X2.97Y0.65
X2.97Y0.6
X2.975Y-0.51
X2.995Y-0.62
X2.995Y-0.67
X2.995Y-0.725
X3.02Y0.65
X3.02Y0.6
X3.02Y0.35
X3.02Y0.31
X3.06Y0.35
X3.06Y0.31
X3.07Y-0.0312
X3.09Y0.65
X3.09Y0.6
X3.1Y0.35
X3.1Y0.31
X3.11Y-0.03
X3.14Y0.35
X3.14Y0.31
X3.16Y-0.03
X3.17Y-0.84
X3.176Y-1.294
X3.18Y0.35
X3.18Y0.31
X3.19Y-0.99
X3.19Y-1.05
X3.2231Y0.0791
X3.23Y-0.82
X3.31Y-0.07
X3.366Y0.612
X3.366Y0.512
X3.38Y-0.1566
X3.4Y-0.47
X3.4Y-0.61
X3.4042Y-0.0327
X3.425Y-1.105
X3.43Y-0.51
X3.44Y-0.57
X3.465Y-0.6299
X3.47Y0.61
X3.47Y0.5
X3.47Y0.39
X3.47Y0.33
X3.4832Y1.2725
X3.4995Y-1.0905
X3.5Y-0.5512
X3.52Y0.0834
X3.56Y1.1379
X3.5657Y1.02
X3.58Y-0.345
X3.5827Y-0.6102
X3.5964Y0.1191
X3.6168Y-0.1201
X3.79Y-0.93
X3.8Y1.22
X3.8Y0.92
X3.8148Y-0.8752
X3.8386Y1.8
X3.85Y0.73
X3.85Y0.33
X3.85Y-0.09
X3.85Y-0.47
X3.85Y-1.18
T5
X4.0386Y0.85
X4.0386Y0.75
X4.0386Y0.45
X4.0386Y0.35
X4.0386Y-0.35
X4.0386Y-0.45
X4.0393Y1.8492
X4.0393Y1.7492
X4.0393Y0.0492
X4.0393Y-0.0508
X4.0393Y-0.7508
X4.0393Y-0.8508
X4.0393Y-1.7508
X4.0393Y-1.8508
X4.2Y0.85
X4.2Y0.75
X4.2Y0.45
X4.2Y0.35
X4.2Y-0.35
X4.2Y-0.45
X4.2007Y1.8492
X4.2007Y1.7492
X4.2007Y0.0492
X4.2007Y-0.0508
X4.2007Y-0.7508
X4.2007Y-0.8508
X4.2007Y-1.7508
X4.2007Y-1.8508
T6
X0.2Y0.5
X0.2Y0.2
X0.2Y-0.1
X0.3Y0.5
X0.3Y0.2
X0.3Y-0.1
X0.4Y0.5
X0.4Y0.2
X0.4Y-0.1
X0.4035Y1.0906
X0.4035Y-1.0906
X0.5Y0.5
X0.5Y0.2
X0.5Y-0.1
X0.6Y0.5
X0.6Y0.2
X0.6Y-0.1
X0.7776Y1.0906
X0.7776Y-1.0906
X0.83Y0.25
X0.83Y0.15
X0.83Y0.05
X0.83Y-0.05
X0.83Y-0.15
X0.83Y-0.25
X0.93Y0.25
X0.93Y0.15
X0.93Y0.05
X0.93Y-0.05
X0.93Y-0.15
X0.93Y-0.25
X1.8Y-1.72
X1.9Y-1.72
X2.79Y1.78
X2.89Y1.78
X2.99Y1.78
X3.03Y-1.59
X3.09Y1.78
X3.13Y-1.605
X3.23Y-1.59
X3.33Y-1.605
X3.43Y-1.59
X4.43Y1.65
X4.43Y1.55
X4.43Y1.45
X4.43Y-1.45
X4.43Y-1.55
X4.43Y-1.65
T8
X0.1772Y1.7126
X0.1772Y-1.7126
X1.0039Y1.7126
X1.0039Y-1.7126
X3.6614Y1.5748
X3.6614Y-1.5748
X4.1732Y1.5551
X4.1732Y-1.5551
X4.2913Y1.063
X4.2913Y-1.063
T3
G00X2.7822Y-1.8784
M15
G01X2.7822Y-1.904
M16
G05
G00X3.0578Y-1.8784
M15
G01X3.0578Y-1.904
M16
G05
T4
G00X2.8157Y-1.7849
M15
G01X2.8275Y-1.7849
M16
G05
G00X3.0125Y-1.7849
M15
G01X3.0243Y-1.7849
M16
G05
T7
G00X0.215Y-0.3885
M15
G01X0.215Y-0.4515
M16
G05
G00X0.4Y-0.3885
M15
G01X0.4Y-0.4515
M16
G05
G00X0.585Y-0.3885
M15
G01X0.585Y-0.4515
M16
G05
T0
M30
