%TF.GenerationSoftware,KiCad,Pcbnew,7.0.8*%
%TF.CreationDate,2023-10-27T12:05:37-04:00*%
%TF.ProjectId,mainboard_dual_battery,6d61696e-626f-4617-9264-5f6475616c5f,rev?*%
%TF.SameCoordinates,PX1312d00PY5f5e100*%
%TF.FileFunction,Soldermask,Bot*%
%TF.FilePolarity,Negative*%
%FSLAX46Y46*%
G04 Gerber Fmt 4.6, Leading zero omitted, Abs format (unit mm)*
G04 Created by KiCad (PCBNEW 7.0.8) date 2023-10-27 12:05:37*
%MOMM*%
%LPD*%
G01*
G04 APERTURE LIST*
%ADD10C,5.600000*%
%ADD11R,1.700000X1.700000*%
%ADD12O,1.700000X1.700000*%
%ADD13C,1.700000*%
%ADD14C,3.200000*%
%ADD15O,0.890000X1.550000*%
%ADD16O,1.250000X0.950000*%
%ADD17O,1.800000X3.400000*%
%ADD18C,1.400000*%
G04 APERTURE END LIST*
D10*
%TO.C,REF\u002A\u002A*%
X4500000Y-43500000D03*
%TD*%
D11*
%TO.C,J14*%
X48260000Y-43688000D03*
D12*
X45720000Y-43688000D03*
%TD*%
D11*
%TO.C,J2*%
X15240000Y12700000D03*
D12*
X12700000Y12700000D03*
X10160000Y12700000D03*
X7620000Y12700000D03*
X5080000Y12700000D03*
%TD*%
D13*
%TO.C,J6*%
X10250000Y27700000D03*
%TD*%
D10*
%TO.C,REF\u002A\u002A*%
X109000000Y-27000000D03*
%TD*%
D14*
%TO.C,BT1*%
X46990000Y-27700000D03*
X46990000Y27700000D03*
D13*
X64390000Y35930000D03*
%TD*%
D11*
%TO.C,J11*%
X112522000Y-41910000D03*
D12*
X112522000Y-39370000D03*
X112522000Y-36830000D03*
%TD*%
D15*
%TO.C,J3*%
X70668000Y-48036000D03*
D16*
X71668000Y-45336000D03*
X76668000Y-45336000D03*
D15*
X77668000Y-48036000D03*
%TD*%
D13*
%TO.C,J4*%
X19750000Y27700000D03*
%TD*%
D11*
%TO.C,J1*%
X76962000Y-40386000D03*
D12*
X79502000Y-40767000D03*
X82042000Y-40386000D03*
X84582000Y-40767000D03*
X87122000Y-40386000D03*
%TD*%
D11*
%TO.C,J13*%
X23622000Y6350000D03*
D12*
X21082000Y6350000D03*
X23622000Y3810000D03*
X21082000Y3810000D03*
X23622000Y1270000D03*
X21082000Y1270000D03*
X23622000Y-1270000D03*
X21082000Y-1270000D03*
X23622000Y-3810000D03*
X21082000Y-3810000D03*
X23622000Y-6350000D03*
X21082000Y-6350000D03*
%TD*%
D10*
%TO.C,REF\u002A\u002A*%
X109000000Y27000000D03*
%TD*%
%TO.C,REF\u002A\u002A*%
X93000000Y40000000D03*
%TD*%
%TO.C,REF\u002A\u002A*%
X106000000Y-39500000D03*
%TD*%
%TO.C,REF\u002A\u002A*%
X106000000Y39500000D03*
%TD*%
%TO.C,REF\u002A\u002A*%
X93000000Y-40000000D03*
%TD*%
D13*
%TO.C,J5*%
X19750000Y-27700000D03*
%TD*%
D10*
%TO.C,REF\u002A\u002A*%
X25500000Y43500000D03*
%TD*%
D11*
%TO.C,J12*%
X112522000Y41910000D03*
D12*
X112522000Y39370000D03*
X112522000Y36830000D03*
%TD*%
D11*
%TO.C,J9*%
X15240000Y5080000D03*
D12*
X12700000Y5080000D03*
X10160000Y5080000D03*
X7620000Y5080000D03*
X5080000Y5080000D03*
%TD*%
D13*
%TO.C,J8*%
X70866000Y45212000D03*
D12*
X73406000Y45212000D03*
X75946000Y45212000D03*
X78486000Y45212000D03*
%TD*%
D10*
%TO.C,REF\u002A\u002A*%
X4500000Y43500000D03*
%TD*%
D11*
%TO.C,J10*%
X15240000Y-2540000D03*
D12*
X12700000Y-2540000D03*
X10160000Y-2540000D03*
X7620000Y-2540000D03*
X5080000Y-2540000D03*
%TD*%
D17*
%TO.C,SW1*%
X5460000Y-10668000D03*
X10160000Y-10668000D03*
X14860000Y-10668000D03*
%TD*%
D10*
%TO.C,REF\u002A\u002A*%
X25500000Y-43500000D03*
%TD*%
D13*
%TO.C,J7*%
X10250000Y-27700000D03*
%TD*%
D18*
%TO.C,U3*%
X106698000Y-19070000D03*
X106698000Y-21610000D03*
X102598000Y-21610000D03*
X102598000Y-19070000D03*
%TD*%
%TO.C,U5*%
X106698000Y1250000D03*
X106698000Y-1290000D03*
X102598000Y-1290000D03*
X102598000Y1250000D03*
%TD*%
%TO.C,U2*%
X106698000Y-44470000D03*
X106698000Y-47010000D03*
X102598000Y-47010000D03*
X102598000Y-44470000D03*
%TD*%
%TO.C,U4*%
X106680000Y-8890000D03*
X106680000Y-11430000D03*
X102580000Y-11430000D03*
X102580000Y-8890000D03*
%TD*%
%TO.C,U7*%
X106680000Y21590000D03*
X106680000Y19050000D03*
X102580000Y19050000D03*
X102580000Y21590000D03*
%TD*%
%TO.C,U6*%
X106680000Y11430000D03*
X106680000Y8890000D03*
X102580000Y8890000D03*
X102580000Y11430000D03*
%TD*%
%TO.C,U8*%
X106698000Y46970000D03*
X106698000Y44430000D03*
X102598000Y44430000D03*
X102598000Y46970000D03*
%TD*%
M02*
