%TF.GenerationSoftware,KiCad,Pcbnew,7.0.8*%
%TF.CreationDate,2023-10-27T12:05:37-04:00*%
%TF.ProjectId,mainboard_dual_battery,6d61696e-626f-4617-9264-5f6475616c5f,rev?*%
%TF.SameCoordinates,PX1312d00PY5f5e100*%
%TF.FileFunction,Soldermask,Top*%
%TF.FilePolarity,Negative*%
%FSLAX46Y46*%
G04 Gerber Fmt 4.6, Leading zero omitted, Abs format (unit mm)*
G04 Created by KiCad (PCBNEW 7.0.8) date 2023-10-27 12:05:37*
%MOMM*%
%LPD*%
G01*
G04 APERTURE LIST*
G04 Aperture macros list*
%AMRoundRect*
0 Rectangle with rounded corners*
0 $1 Rounding radius*
0 $2 $3 $4 $5 $6 $7 $8 $9 X,Y pos of 4 corners*
0 Add a 4 corners polygon primitive as box body*
4,1,4,$2,$3,$4,$5,$6,$7,$8,$9,$2,$3,0*
0 Add four circle primitives for the rounded corners*
1,1,$1+$1,$2,$3*
1,1,$1+$1,$4,$5*
1,1,$1+$1,$6,$7*
1,1,$1+$1,$8,$9*
0 Add four rect primitives between the rounded corners*
20,1,$1+$1,$2,$3,$4,$5,0*
20,1,$1+$1,$4,$5,$6,$7,0*
20,1,$1+$1,$6,$7,$8,$9,0*
20,1,$1+$1,$8,$9,$2,$3,0*%
G04 Aperture macros list end*
%ADD10C,5.600000*%
%ADD11R,1.700000X1.700000*%
%ADD12O,1.700000X1.700000*%
%ADD13RoundRect,0.250000X1.500000X0.550000X-1.500000X0.550000X-1.500000X-0.550000X1.500000X-0.550000X0*%
%ADD14R,0.950000X1.200000*%
%ADD15RoundRect,0.225000X-0.250000X0.225000X-0.250000X-0.225000X0.250000X-0.225000X0.250000X0.225000X0*%
%ADD16RoundRect,0.225000X-0.225000X-0.250000X0.225000X-0.250000X0.225000X0.250000X-0.225000X0.250000X0*%
%ADD17RoundRect,0.150000X-0.512500X-0.150000X0.512500X-0.150000X0.512500X0.150000X-0.512500X0.150000X0*%
%ADD18RoundRect,0.250000X0.250000X0.475000X-0.250000X0.475000X-0.250000X-0.475000X0.250000X-0.475000X0*%
%ADD19RoundRect,0.225000X0.225000X0.250000X-0.225000X0.250000X-0.225000X-0.250000X0.225000X-0.250000X0*%
%ADD20C,1.700000*%
%ADD21R,2.460000X2.310000*%
%ADD22RoundRect,0.097500X-0.690000X-0.097500X0.690000X-0.097500X0.690000X0.097500X-0.690000X0.097500X0*%
%ADD23RoundRect,0.225000X0.250000X-0.225000X0.250000X0.225000X-0.250000X0.225000X-0.250000X-0.225000X0*%
%ADD24C,3.200000*%
%ADD25R,5.320000X7.350000*%
%ADD26RoundRect,0.200000X-0.200000X-0.275000X0.200000X-0.275000X0.200000X0.275000X-0.200000X0.275000X0*%
%ADD27RoundRect,0.200000X0.200000X0.275000X-0.200000X0.275000X-0.200000X-0.275000X0.200000X-0.275000X0*%
%ADD28RoundRect,0.250000X-0.475000X0.250000X-0.475000X-0.250000X0.475000X-0.250000X0.475000X0.250000X0*%
%ADD29R,3.700000X1.200000*%
%ADD30R,0.400000X1.350000*%
%ADD31O,0.890000X1.550000*%
%ADD32R,1.200000X1.550000*%
%ADD33O,1.250000X0.950000*%
%ADD34R,1.500000X1.550000*%
%ADD35RoundRect,0.200000X0.275000X-0.200000X0.275000X0.200000X-0.275000X0.200000X-0.275000X-0.200000X0*%
%ADD36O,1.200000X0.240000*%
%ADD37O,0.240000X1.200000*%
%ADD38RoundRect,0.250000X0.475000X-0.250000X0.475000X0.250000X-0.475000X0.250000X-0.475000X-0.250000X0*%
%ADD39RoundRect,0.250000X0.550000X-1.500000X0.550000X1.500000X-0.550000X1.500000X-0.550000X-1.500000X0*%
%ADD40RoundRect,0.150000X-0.150000X0.512500X-0.150000X-0.512500X0.150000X-0.512500X0.150000X0.512500X0*%
%ADD41RoundRect,0.200000X-0.550000X-0.200000X0.550000X-0.200000X0.550000X0.200000X-0.550000X0.200000X0*%
%ADD42R,2.620000X3.510000*%
%ADD43RoundRect,0.218750X-0.218750X-0.256250X0.218750X-0.256250X0.218750X0.256250X-0.218750X0.256250X0*%
%ADD44R,0.250000X0.675000*%
%ADD45R,0.675000X0.250000*%
%ADD46R,1.870000X2.800000*%
%ADD47RoundRect,0.218750X-0.256250X0.218750X-0.256250X-0.218750X0.256250X-0.218750X0.256250X0.218750X0*%
%ADD48RoundRect,0.250000X1.000000X0.650000X-1.000000X0.650000X-1.000000X-0.650000X1.000000X-0.650000X0*%
%ADD49O,1.800000X3.400000*%
%ADD50RoundRect,0.200000X-0.275000X0.200000X-0.275000X-0.200000X0.275000X-0.200000X0.275000X0.200000X0*%
%ADD51C,1.400000*%
G04 APERTURE END LIST*
D10*
%TO.C,REF\u002A\u002A*%
X4500000Y-43500000D03*
%TD*%
D11*
%TO.C,J14*%
X48260000Y-43688000D03*
D12*
X45720000Y-43688000D03*
%TD*%
D11*
%TO.C,J2*%
X15240000Y12700000D03*
D12*
X12700000Y12700000D03*
X10160000Y12700000D03*
X7620000Y12700000D03*
X5080000Y12700000D03*
%TD*%
D13*
%TO.C,C19*%
X76700000Y31242000D03*
X71300000Y31242000D03*
%TD*%
D14*
%TO.C,X1*%
X91446000Y-6944750D03*
X91446000Y-4744750D03*
X89746000Y-4744750D03*
X89746000Y-6944750D03*
%TD*%
D15*
%TO.C,C7*%
X78669625Y2665000D03*
X78669625Y1115000D03*
%TD*%
D16*
%TO.C,C18*%
X14211000Y-19304000D03*
X15761000Y-19304000D03*
%TD*%
D17*
%TO.C,U13*%
X13862500Y-23190000D03*
X13862500Y-24140000D03*
X13862500Y-25090000D03*
X16137500Y-25090000D03*
X16137500Y-23190000D03*
%TD*%
D18*
%TO.C,C1*%
X72578000Y10033000D03*
X70678000Y10033000D03*
%TD*%
D19*
%TO.C,C27*%
X83325000Y-31242000D03*
X81775000Y-31242000D03*
%TD*%
D20*
%TO.C,J6*%
X10250000Y27700000D03*
%TD*%
D16*
%TO.C,C8*%
X87762000Y25908000D03*
X89312000Y25908000D03*
%TD*%
D21*
%TO.C,U11*%
X73111000Y-467000D03*
D22*
X70248500Y1808000D03*
X70248500Y1158000D03*
X70248500Y508000D03*
X70248500Y-142000D03*
X70248500Y-792000D03*
X70248500Y-1442000D03*
X70248500Y-2092000D03*
X70248500Y-2742000D03*
X75973500Y-2742000D03*
X75973500Y-2092000D03*
X75973500Y-1442000D03*
X75973500Y-792000D03*
X75973500Y-142000D03*
X75973500Y508000D03*
X75973500Y1158000D03*
X75973500Y1808000D03*
%TD*%
D10*
%TO.C,REF\u002A\u002A*%
X109000000Y-27000000D03*
%TD*%
D23*
%TO.C,C10*%
X89789000Y-30383000D03*
X89789000Y-28833000D03*
%TD*%
D24*
%TO.C,BT1*%
X46990000Y-27700000D03*
X46990000Y27700000D03*
D20*
X64390000Y35930000D03*
D25*
X56540000Y-40860000D03*
X56540000Y40860000D03*
X37440000Y-40860000D03*
X37440000Y40860000D03*
%TD*%
D15*
%TO.C,C6*%
X82296000Y-25133000D03*
X82296000Y-26683000D03*
%TD*%
D26*
%TO.C,R15*%
X85934000Y32258000D03*
X87584000Y32258000D03*
%TD*%
D27*
%TO.C,R20*%
X73469000Y8001000D03*
X71819000Y8001000D03*
%TD*%
D28*
%TO.C,C2*%
X70739000Y-11750000D03*
X70739000Y-13650000D03*
%TD*%
D11*
%TO.C,J11*%
X112522000Y-41910000D03*
D12*
X112522000Y-39370000D03*
X112522000Y-36830000D03*
%TD*%
D28*
%TO.C,C3*%
X73279000Y-11750000D03*
X73279000Y-13650000D03*
%TD*%
D26*
%TO.C,R21*%
X81725000Y-32893000D03*
X83375000Y-32893000D03*
%TD*%
D29*
%TO.C,L1*%
X92093000Y27810000D03*
X92093000Y30610000D03*
%TD*%
D17*
%TO.C,U9*%
X13862500Y25090000D03*
X13862500Y24140000D03*
X13862500Y23190000D03*
X16137500Y23190000D03*
X16137500Y25090000D03*
%TD*%
D30*
%TO.C,J3*%
X72868000Y-45336000D03*
X73518000Y-45336000D03*
X74168000Y-45336000D03*
X74818000Y-45336000D03*
X75468000Y-45336000D03*
D31*
X70668000Y-48036000D03*
D32*
X71268000Y-48036000D03*
D33*
X71668000Y-45336000D03*
D34*
X73168000Y-48036000D03*
X75168000Y-48036000D03*
D33*
X76668000Y-45336000D03*
D32*
X77068000Y-48036000D03*
D31*
X77668000Y-48036000D03*
%TD*%
D20*
%TO.C,J4*%
X19750000Y27700000D03*
%TD*%
D16*
%TO.C,C14*%
X79418625Y-2682000D03*
X80968625Y-2682000D03*
%TD*%
D35*
%TO.C,R5*%
X97790000Y9335000D03*
X97790000Y10985000D03*
%TD*%
D15*
%TO.C,C24*%
X82550000Y12967000D03*
X82550000Y11417000D03*
%TD*%
D11*
%TO.C,J1*%
X76962000Y-40386000D03*
D12*
X79502000Y-40767000D03*
X82042000Y-40386000D03*
X84582000Y-40767000D03*
X87122000Y-40386000D03*
%TD*%
D16*
%TO.C,C16*%
X87762000Y24384000D03*
X89312000Y24384000D03*
%TD*%
D11*
%TO.C,J13*%
X23622000Y6350000D03*
D12*
X21082000Y6350000D03*
X23622000Y3810000D03*
X21082000Y3810000D03*
X23622000Y1270000D03*
X21082000Y1270000D03*
X23622000Y-1270000D03*
X21082000Y-1270000D03*
X23622000Y-3810000D03*
X21082000Y-3810000D03*
X23622000Y-6350000D03*
X21082000Y-6350000D03*
%TD*%
D15*
%TO.C,C11*%
X85770000Y-1767750D03*
X85770000Y-3317750D03*
%TD*%
%TO.C,C26*%
X74930000Y8014000D03*
X74930000Y6464000D03*
%TD*%
D35*
%TO.C,R3*%
X97790000Y-10985000D03*
X97790000Y-9335000D03*
%TD*%
D36*
%TO.C,U15*%
X92338000Y-24594000D03*
X92338000Y-24094000D03*
X92338000Y-23594000D03*
X92338000Y-23094000D03*
X92338000Y-22594000D03*
X92338000Y-22094000D03*
X92338000Y-21594000D03*
X92338000Y-21094000D03*
X92338000Y-20594000D03*
X92338000Y-20094000D03*
X92338000Y-19594000D03*
X92338000Y-19094000D03*
D37*
X90888000Y-17644000D03*
X90388000Y-17644000D03*
X89888000Y-17644000D03*
X89388000Y-17644000D03*
X88888000Y-17644000D03*
X88388000Y-17644000D03*
X87888000Y-17644000D03*
X87388000Y-17644000D03*
X86888000Y-17644000D03*
X86388000Y-17644000D03*
X85888000Y-17644000D03*
X85388000Y-17644000D03*
D36*
X83938000Y-19094000D03*
X83938000Y-19594000D03*
X83938000Y-20094000D03*
X83938000Y-20594000D03*
X83938000Y-21094000D03*
X83938000Y-21594000D03*
X83938000Y-22094000D03*
X83938000Y-22594000D03*
X83938000Y-23094000D03*
X83938000Y-23594000D03*
X83938000Y-24094000D03*
X83938000Y-24594000D03*
D37*
X85388000Y-26044000D03*
X85888000Y-26044000D03*
X86388000Y-26044000D03*
X86888000Y-26044000D03*
X87388000Y-26044000D03*
X87888000Y-26044000D03*
X88388000Y-26044000D03*
X88888000Y-26044000D03*
X89388000Y-26044000D03*
X89888000Y-26044000D03*
X90388000Y-26044000D03*
X90888000Y-26044000D03*
%TD*%
D27*
%TO.C,R19*%
X84137000Y8382000D03*
X82487000Y8382000D03*
%TD*%
D18*
%TO.C,C21*%
X87310000Y14008000D03*
X85410000Y14008000D03*
%TD*%
D10*
%TO.C,REF\u002A\u002A*%
X109000000Y27000000D03*
%TD*%
D35*
%TO.C,R12*%
X20828000Y18479000D03*
X20828000Y20129000D03*
%TD*%
D16*
%TO.C,C12*%
X14211000Y19304000D03*
X15761000Y19304000D03*
%TD*%
D10*
%TO.C,REF\u002A\u002A*%
X93000000Y40000000D03*
%TD*%
%TO.C,REF\u002A\u002A*%
X106000000Y-39500000D03*
%TD*%
D38*
%TO.C,C5*%
X80447625Y940000D03*
X80447625Y2840000D03*
%TD*%
D18*
%TO.C,C22*%
X87310000Y11430000D03*
X85410000Y11430000D03*
%TD*%
D35*
%TO.C,R2*%
X97790000Y-21145000D03*
X97790000Y-19495000D03*
%TD*%
D26*
%TO.C,R10*%
X4509000Y-18923000D03*
X6159000Y-18923000D03*
%TD*%
D39*
%TO.C,C4*%
X73787000Y-30132000D03*
X73787000Y-24732000D03*
%TD*%
D40*
%TO.C,U10*%
X87709000Y30347500D03*
X86759000Y30347500D03*
X85809000Y30347500D03*
X85809000Y28072500D03*
X86759000Y28072500D03*
X87709000Y28072500D03*
%TD*%
D27*
%TO.C,R22*%
X47815000Y-41148000D03*
X46165000Y-41148000D03*
%TD*%
D10*
%TO.C,REF\u002A\u002A*%
X106000000Y39500000D03*
%TD*%
D41*
%TO.C,U14*%
X74990000Y13843000D03*
X74990000Y12573000D03*
X74990000Y11303000D03*
X74990000Y10033000D03*
X79950000Y10033000D03*
X79950000Y11303000D03*
X79950000Y12573000D03*
X79950000Y13843000D03*
D42*
X77470000Y11938000D03*
%TD*%
D10*
%TO.C,REF\u002A\u002A*%
X93000000Y-40000000D03*
%TD*%
D20*
%TO.C,J5*%
X19750000Y-27700000D03*
%TD*%
D43*
%TO.C,D1*%
X4546500Y-16637000D03*
X6121500Y-16637000D03*
%TD*%
D10*
%TO.C,REF\u002A\u002A*%
X25500000Y43500000D03*
%TD*%
D23*
%TO.C,C17*%
X88265000Y-30370000D03*
X88265000Y-28820000D03*
%TD*%
D27*
%TO.C,R14*%
X73596000Y3429000D03*
X71946000Y3429000D03*
%TD*%
D35*
%TO.C,R7*%
X97790000Y30925000D03*
X97790000Y32575000D03*
%TD*%
%TO.C,R6*%
X97790000Y19495000D03*
X97790000Y21145000D03*
%TD*%
D18*
%TO.C,C20*%
X87310000Y17018000D03*
X85410000Y17018000D03*
%TD*%
D27*
%TO.C,R18*%
X87185000Y8382000D03*
X85535000Y8382000D03*
%TD*%
D26*
%TO.C,R8*%
X88075000Y-11303000D03*
X89725000Y-11303000D03*
%TD*%
D11*
%TO.C,J12*%
X112522000Y41910000D03*
D12*
X112522000Y39370000D03*
X112522000Y36830000D03*
%TD*%
D44*
%TO.C,U12*%
X90408000Y835750D03*
X89908000Y835750D03*
X89408000Y835750D03*
X88908000Y835750D03*
D45*
X88645500Y73250D03*
X88645500Y-426750D03*
X88645500Y-926750D03*
D44*
X88908000Y-1689250D03*
X89408000Y-1689250D03*
X89908000Y-1689250D03*
X90408000Y-1689250D03*
D45*
X90670500Y-926750D03*
X90670500Y-426750D03*
X90670500Y73250D03*
%TD*%
D11*
%TO.C,J9*%
X15240000Y5080000D03*
D12*
X12700000Y5080000D03*
X10160000Y5080000D03*
X7620000Y5080000D03*
X5080000Y5080000D03*
%TD*%
D15*
%TO.C,C9*%
X87294000Y-1767750D03*
X87294000Y-3317750D03*
%TD*%
D46*
%TO.C,L2*%
X74542000Y20574000D03*
X79382000Y20574000D03*
%TD*%
D47*
%TO.C,D2*%
X84074000Y787500D03*
X84074000Y-787500D03*
%TD*%
D16*
%TO.C,C25*%
X71869000Y6477000D03*
X73419000Y6477000D03*
%TD*%
D15*
%TO.C,C15*%
X86532000Y1788250D03*
X86532000Y238250D03*
%TD*%
D20*
%TO.C,J8*%
X70866000Y45212000D03*
D12*
X73406000Y45212000D03*
X75946000Y45212000D03*
X78486000Y45212000D03*
%TD*%
D10*
%TO.C,REF\u002A\u002A*%
X4500000Y43500000D03*
%TD*%
D11*
%TO.C,J10*%
X15240000Y-2540000D03*
D12*
X12700000Y-2540000D03*
X10160000Y-2540000D03*
X7620000Y-2540000D03*
X5080000Y-2540000D03*
%TD*%
D48*
%TO.C,D3*%
X86582000Y20574000D03*
X82582000Y20574000D03*
%TD*%
D19*
%TO.C,C23*%
X87388500Y-4994750D03*
X85838500Y-4994750D03*
%TD*%
D49*
%TO.C,SW1*%
X5460000Y-10668000D03*
X10160000Y-10668000D03*
X14860000Y-10668000D03*
%TD*%
D50*
%TO.C,R17*%
X24638000Y-17209000D03*
X24638000Y-18859000D03*
%TD*%
%TO.C,R16*%
X22860000Y-17209000D03*
X22860000Y-18859000D03*
%TD*%
%TO.C,R1*%
X97790000Y-31179000D03*
X97790000Y-32829000D03*
%TD*%
D10*
%TO.C,REF\u002A\u002A*%
X25500000Y-43500000D03*
%TD*%
D35*
%TO.C,R13*%
X18796000Y18479000D03*
X18796000Y20129000D03*
%TD*%
D20*
%TO.C,J7*%
X10250000Y-27700000D03*
%TD*%
D35*
%TO.C,R4*%
X97790000Y-825000D03*
X97790000Y825000D03*
%TD*%
%TO.C,R11*%
X84074000Y2731000D03*
X84074000Y4381000D03*
%TD*%
D17*
%TO.C,U1*%
X71379500Y-15814000D03*
X71379500Y-16764000D03*
X71379500Y-17714000D03*
X73654500Y-17714000D03*
X73654500Y-15814000D03*
%TD*%
D27*
%TO.C,R9*%
X89852000Y-8763000D03*
X88202000Y-8763000D03*
%TD*%
D15*
%TO.C,C13*%
X94869000Y-22229000D03*
X94869000Y-23779000D03*
%TD*%
D51*
%TO.C,U3*%
X106698000Y-19070000D03*
X106698000Y-21610000D03*
X102598000Y-21610000D03*
X102598000Y-19070000D03*
%TD*%
%TO.C,U5*%
X106698000Y1250000D03*
X106698000Y-1290000D03*
X102598000Y-1290000D03*
X102598000Y1250000D03*
%TD*%
%TO.C,U2*%
X106698000Y-44470000D03*
X106698000Y-47010000D03*
X102598000Y-47010000D03*
X102598000Y-44470000D03*
%TD*%
%TO.C,U4*%
X106680000Y-8890000D03*
X106680000Y-11430000D03*
X102580000Y-11430000D03*
X102580000Y-8890000D03*
%TD*%
%TO.C,U7*%
X106680000Y21590000D03*
X106680000Y19050000D03*
X102580000Y19050000D03*
X102580000Y21590000D03*
%TD*%
%TO.C,U6*%
X106680000Y11430000D03*
X106680000Y8890000D03*
X102580000Y8890000D03*
X102580000Y11430000D03*
%TD*%
%TO.C,U8*%
X106698000Y46970000D03*
X106698000Y44430000D03*
X102598000Y44430000D03*
X102598000Y46970000D03*
%TD*%
M02*
