%TF.GenerationSoftware,KiCad,Pcbnew,7.0.8*%
%TF.CreationDate,2023-10-27T12:05:37-04:00*%
%TF.ProjectId,mainboard_dual_battery,6d61696e-626f-4617-9264-5f6475616c5f,rev?*%
%TF.SameCoordinates,PX1312d00PY5f5e100*%
%TF.FileFunction,Copper,L1,Top*%
%TF.FilePolarity,Positive*%
%FSLAX46Y46*%
G04 Gerber Fmt 4.6, Leading zero omitted, Abs format (unit mm)*
G04 Created by KiCad (PCBNEW 7.0.8) date 2023-10-27 12:05:37*
%MOMM*%
%LPD*%
G01*
G04 APERTURE LIST*
G04 Aperture macros list*
%AMRoundRect*
0 Rectangle with rounded corners*
0 $1 Rounding radius*
0 $2 $3 $4 $5 $6 $7 $8 $9 X,Y pos of 4 corners*
0 Add a 4 corners polygon primitive as box body*
4,1,4,$2,$3,$4,$5,$6,$7,$8,$9,$2,$3,0*
0 Add four circle primitives for the rounded corners*
1,1,$1+$1,$2,$3*
1,1,$1+$1,$4,$5*
1,1,$1+$1,$6,$7*
1,1,$1+$1,$8,$9*
0 Add four rect primitives between the rounded corners*
20,1,$1+$1,$2,$3,$4,$5,0*
20,1,$1+$1,$4,$5,$6,$7,0*
20,1,$1+$1,$6,$7,$8,$9,0*
20,1,$1+$1,$8,$9,$2,$3,0*%
G04 Aperture macros list end*
%TA.AperFunction,ComponentPad*%
%ADD10C,5.600000*%
%TD*%
%TA.AperFunction,ComponentPad*%
%ADD11R,1.700000X1.700000*%
%TD*%
%TA.AperFunction,ComponentPad*%
%ADD12O,1.700000X1.700000*%
%TD*%
%TA.AperFunction,SMDPad,CuDef*%
%ADD13RoundRect,0.250000X1.500000X0.550000X-1.500000X0.550000X-1.500000X-0.550000X1.500000X-0.550000X0*%
%TD*%
%TA.AperFunction,SMDPad,CuDef*%
%ADD14R,0.950000X1.200000*%
%TD*%
%TA.AperFunction,SMDPad,CuDef*%
%ADD15RoundRect,0.225000X-0.250000X0.225000X-0.250000X-0.225000X0.250000X-0.225000X0.250000X0.225000X0*%
%TD*%
%TA.AperFunction,SMDPad,CuDef*%
%ADD16RoundRect,0.225000X-0.225000X-0.250000X0.225000X-0.250000X0.225000X0.250000X-0.225000X0.250000X0*%
%TD*%
%TA.AperFunction,SMDPad,CuDef*%
%ADD17RoundRect,0.150000X-0.512500X-0.150000X0.512500X-0.150000X0.512500X0.150000X-0.512500X0.150000X0*%
%TD*%
%TA.AperFunction,SMDPad,CuDef*%
%ADD18RoundRect,0.250000X0.250000X0.475000X-0.250000X0.475000X-0.250000X-0.475000X0.250000X-0.475000X0*%
%TD*%
%TA.AperFunction,SMDPad,CuDef*%
%ADD19RoundRect,0.225000X0.225000X0.250000X-0.225000X0.250000X-0.225000X-0.250000X0.225000X-0.250000X0*%
%TD*%
%TA.AperFunction,ComponentPad*%
%ADD20C,1.700000*%
%TD*%
%TA.AperFunction,SMDPad,CuDef*%
%ADD21RoundRect,0.097500X-0.690000X-0.097500X0.690000X-0.097500X0.690000X0.097500X-0.690000X0.097500X0*%
%TD*%
%TA.AperFunction,ComponentPad*%
%ADD22C,0.500000*%
%TD*%
%TA.AperFunction,SMDPad,CuDef*%
%ADD23R,3.400000X5.000000*%
%TD*%
%TA.AperFunction,SMDPad,CuDef*%
%ADD24RoundRect,0.225000X0.250000X-0.225000X0.250000X0.225000X-0.250000X0.225000X-0.250000X-0.225000X0*%
%TD*%
%TA.AperFunction,SMDPad,CuDef*%
%ADD25R,5.320000X7.350000*%
%TD*%
%TA.AperFunction,SMDPad,CuDef*%
%ADD26RoundRect,0.200000X-0.200000X-0.275000X0.200000X-0.275000X0.200000X0.275000X-0.200000X0.275000X0*%
%TD*%
%TA.AperFunction,SMDPad,CuDef*%
%ADD27RoundRect,0.200000X0.200000X0.275000X-0.200000X0.275000X-0.200000X-0.275000X0.200000X-0.275000X0*%
%TD*%
%TA.AperFunction,SMDPad,CuDef*%
%ADD28RoundRect,0.250000X-0.475000X0.250000X-0.475000X-0.250000X0.475000X-0.250000X0.475000X0.250000X0*%
%TD*%
%TA.AperFunction,SMDPad,CuDef*%
%ADD29R,3.700000X1.200000*%
%TD*%
%TA.AperFunction,SMDPad,CuDef*%
%ADD30R,0.400000X1.350000*%
%TD*%
%TA.AperFunction,ComponentPad*%
%ADD31O,0.890000X1.550000*%
%TD*%
%TA.AperFunction,SMDPad,CuDef*%
%ADD32R,1.200000X1.550000*%
%TD*%
%TA.AperFunction,ComponentPad*%
%ADD33O,1.250000X0.950000*%
%TD*%
%TA.AperFunction,SMDPad,CuDef*%
%ADD34R,1.500000X1.550000*%
%TD*%
%TA.AperFunction,SMDPad,CuDef*%
%ADD35RoundRect,0.200000X0.275000X-0.200000X0.275000X0.200000X-0.275000X0.200000X-0.275000X-0.200000X0*%
%TD*%
%TA.AperFunction,SMDPad,CuDef*%
%ADD36O,1.200000X0.240000*%
%TD*%
%TA.AperFunction,SMDPad,CuDef*%
%ADD37O,0.240000X1.200000*%
%TD*%
%TA.AperFunction,SMDPad,CuDef*%
%ADD38RoundRect,0.250000X0.475000X-0.250000X0.475000X0.250000X-0.475000X0.250000X-0.475000X-0.250000X0*%
%TD*%
%TA.AperFunction,SMDPad,CuDef*%
%ADD39RoundRect,0.250000X0.550000X-1.500000X0.550000X1.500000X-0.550000X1.500000X-0.550000X-1.500000X0*%
%TD*%
%TA.AperFunction,SMDPad,CuDef*%
%ADD40RoundRect,0.150000X-0.150000X0.512500X-0.150000X-0.512500X0.150000X-0.512500X0.150000X0.512500X0*%
%TD*%
%TA.AperFunction,SMDPad,CuDef*%
%ADD41RoundRect,0.200000X-0.550000X-0.200000X0.550000X-0.200000X0.550000X0.200000X-0.550000X0.200000X0*%
%TD*%
%TA.AperFunction,SMDPad,CuDef*%
%ADD42R,2.620000X3.510000*%
%TD*%
%TA.AperFunction,SMDPad,CuDef*%
%ADD43RoundRect,0.218750X-0.218750X-0.256250X0.218750X-0.256250X0.218750X0.256250X-0.218750X0.256250X0*%
%TD*%
%TA.AperFunction,SMDPad,CuDef*%
%ADD44R,0.250000X0.675000*%
%TD*%
%TA.AperFunction,SMDPad,CuDef*%
%ADD45R,0.675000X0.250000*%
%TD*%
%TA.AperFunction,SMDPad,CuDef*%
%ADD46R,1.870000X2.800000*%
%TD*%
%TA.AperFunction,SMDPad,CuDef*%
%ADD47RoundRect,0.218750X-0.256250X0.218750X-0.256250X-0.218750X0.256250X-0.218750X0.256250X0.218750X0*%
%TD*%
%TA.AperFunction,SMDPad,CuDef*%
%ADD48RoundRect,0.250000X1.000000X0.650000X-1.000000X0.650000X-1.000000X-0.650000X1.000000X-0.650000X0*%
%TD*%
%TA.AperFunction,ComponentPad*%
%ADD49O,1.800000X3.400000*%
%TD*%
%TA.AperFunction,SMDPad,CuDef*%
%ADD50RoundRect,0.200000X-0.275000X0.200000X-0.275000X-0.200000X0.275000X-0.200000X0.275000X0.200000X0*%
%TD*%
%TA.AperFunction,ComponentPad*%
%ADD51C,1.400000*%
%TD*%
%TA.AperFunction,ViaPad*%
%ADD52C,0.800000*%
%TD*%
%TA.AperFunction,Conductor*%
%ADD53C,0.203200*%
%TD*%
%TA.AperFunction,Conductor*%
%ADD54C,0.254000*%
%TD*%
%TA.AperFunction,Conductor*%
%ADD55C,1.016000*%
%TD*%
%TA.AperFunction,Conductor*%
%ADD56C,0.406400*%
%TD*%
%TA.AperFunction,Conductor*%
%ADD57C,1.524000*%
%TD*%
%TA.AperFunction,Conductor*%
%ADD58C,0.609600*%
%TD*%
G04 APERTURE END LIST*
D10*
%TO.P,REF\u002A\u002A,1*%
%TO.N,N/C*%
X4500000Y-43500000D03*
%TD*%
D11*
%TO.P,J14,1,Pin_1*%
%TO.N,Net-(J14-Pin_1)*%
X48260000Y-43688000D03*
D12*
%TO.P,J14,2,Pin_2*%
%TO.N,/VBAT*%
X45720000Y-43688000D03*
%TD*%
D11*
%TO.P,J2,1,Pin_1*%
%TO.N,VCC*%
X15240000Y12700000D03*
D12*
%TO.P,J2,2,Pin_2*%
%TO.N,+3V3*%
X12700000Y12700000D03*
%TO.P,J2,3,Pin_3*%
%TO.N,/MISO*%
X10160000Y12700000D03*
%TO.P,J2,4,Pin_4*%
%TO.N,/MOSI*%
X7620000Y12700000D03*
%TO.P,J2,5,Pin_5*%
%TO.N,GNDREF*%
X5080000Y12700000D03*
%TD*%
D13*
%TO.P,C19,1*%
%TO.N,+6V*%
X76700000Y31242000D03*
%TO.P,C19,2*%
%TO.N,GNDREF*%
X71300000Y31242000D03*
%TD*%
D14*
%TO.P,X1,1,EN*%
%TO.N,+3V3*%
X91446000Y-6944750D03*
%TO.P,X1,2,GND*%
%TO.N,GNDREF*%
X91446000Y-4744750D03*
%TO.P,X1,3,OUT*%
%TO.N,/EXT_CLK*%
X89746000Y-4744750D03*
%TO.P,X1,4,Vdd*%
%TO.N,+3V3*%
X89746000Y-6944750D03*
%TD*%
D15*
%TO.P,C7,1*%
%TO.N,GNDREF*%
X78669625Y2665000D03*
%TO.P,C7,2*%
%TO.N,Net-(U11-VINT)*%
X78669625Y1115000D03*
%TD*%
D16*
%TO.P,C18,1*%
%TO.N,GNDREF*%
X14211000Y-19304000D03*
%TO.P,C18,2*%
%TO.N,+3V3*%
X15761000Y-19304000D03*
%TD*%
D17*
%TO.P,U13,1,VCC*%
%TO.N,+3V3*%
X13862500Y-23190000D03*
%TO.P,U13,2,GND*%
%TO.N,GNDREF*%
X13862500Y-24140000D03*
%TO.P,U13,3*%
%TO.N,unconnected-(U13-Pad3)*%
X13862500Y-25090000D03*
%TO.P,U13,4,OUT1*%
%TO.N,/ENC2_SPEED*%
X16137500Y-25090000D03*
%TO.P,U13,5,OUT2*%
%TO.N,/ENC2_DIR*%
X16137500Y-23190000D03*
%TD*%
D18*
%TO.P,C1,1*%
%TO.N,VCC*%
X72578000Y10033000D03*
%TO.P,C1,2*%
%TO.N,GNDREF*%
X70678000Y10033000D03*
%TD*%
D19*
%TO.P,C27,1*%
%TO.N,GNDREF*%
X83325000Y-31242000D03*
%TO.P,C27,2*%
%TO.N,/nRESET*%
X81775000Y-31242000D03*
%TD*%
D20*
%TO.P,J6,1,Pin_1*%
%TO.N,/Motor1A_out*%
X10250000Y27700000D03*
%TD*%
D16*
%TO.P,C8,1*%
%TO.N,VCC*%
X87762000Y25908000D03*
%TO.P,C8,2*%
%TO.N,GNDREF*%
X89312000Y25908000D03*
%TD*%
D21*
%TO.P,U11,1,nSLEEP*%
%TO.N,Net-(U11-nSLEEP)*%
X70248500Y1808000D03*
%TO.P,U11,2,AOUT1*%
%TO.N,/Motor1A_out*%
X70248500Y1158000D03*
%TO.P,U11,3,AISEN*%
%TO.N,GNDREF*%
X70248500Y508000D03*
%TO.P,U11,4,AOUT2*%
%TO.N,/Motor1B_out*%
X70248500Y-142000D03*
%TO.P,U11,5,BOUT2*%
%TO.N,/Motor2B_out*%
X70248500Y-792000D03*
%TO.P,U11,6,BISEN*%
%TO.N,GNDREF*%
X70248500Y-1442000D03*
%TO.P,U11,7,BOUT1*%
%TO.N,/Motor2A_out*%
X70248500Y-2092000D03*
%TO.P,U11,8,nFAULT*%
%TO.N,unconnected-(U11-nFAULT-Pad8)*%
X70248500Y-2742000D03*
%TO.P,U11,9,BIN1*%
%TO.N,/MOTOR2A*%
X75973500Y-2742000D03*
%TO.P,U11,10,BIN2*%
%TO.N,/MOTOR2B*%
X75973500Y-2092000D03*
%TO.P,U11,11,VCP*%
%TO.N,Net-(U11-VCP)*%
X75973500Y-1442000D03*
%TO.P,U11,12,VM*%
%TO.N,+6V*%
X75973500Y-792000D03*
%TO.P,U11,13,GND*%
%TO.N,GNDREF*%
X75973500Y-142000D03*
%TO.P,U11,14,VINT*%
%TO.N,Net-(U11-VINT)*%
X75973500Y508000D03*
%TO.P,U11,15,AIN2*%
%TO.N,/MOTOR1B*%
X75973500Y1158000D03*
%TO.P,U11,16,AIN1*%
%TO.N,/MOTOR1A*%
X75973500Y1808000D03*
D22*
%TO.P,U11,17,GND(PPAD)*%
%TO.N,GNDREF*%
X72111000Y1333000D03*
X72111000Y133000D03*
X72111000Y-1067000D03*
X72111000Y-2267000D03*
X73111000Y1333000D03*
X73111000Y133000D03*
D23*
X73111000Y-467000D03*
D22*
X73111000Y-1067000D03*
X73111000Y-2267000D03*
X74111000Y1333000D03*
X74111000Y133000D03*
X74111000Y-1067000D03*
X74111000Y-2267000D03*
%TD*%
D10*
%TO.P,REF\u002A\u002A,1*%
%TO.N,N/C*%
X109000000Y-27000000D03*
%TD*%
D24*
%TO.P,C10,1*%
%TO.N,GNDREF*%
X89789000Y-30383000D03*
%TO.P,C10,2*%
%TO.N,+3V3*%
X89789000Y-28833000D03*
%TD*%
D25*
%TO.P,BT1,1,+*%
%TO.N,Net-(J14-Pin_1)*%
X56540000Y-40860000D03*
%TO.P,BT1,2,-*%
%TO.N,GNDREF*%
X56540000Y40860000D03*
%TO.P,BT1,3,+*%
%TO.N,/VBAT*%
X37440000Y-40860000D03*
%TO.P,BT1,4,-*%
%TO.N,GNDREF*%
X37440000Y40860000D03*
%TD*%
D15*
%TO.P,C6,1*%
%TO.N,GNDREF*%
X82296000Y-25133000D03*
%TO.P,C6,2*%
%TO.N,+3V3*%
X82296000Y-26683000D03*
%TD*%
D26*
%TO.P,R15,1*%
%TO.N,/Reflectance sensor array/FB*%
X85934000Y32258000D03*
%TO.P,R15,2*%
%TO.N,GNDREF*%
X87584000Y32258000D03*
%TD*%
D27*
%TO.P,R20,1*%
%TO.N,Net-(U14-COMP)*%
X73469000Y8001000D03*
%TO.P,R20,2*%
%TO.N,Net-(C25-Pad1)*%
X71819000Y8001000D03*
%TD*%
D28*
%TO.P,C2,1*%
%TO.N,GNDREF*%
X70739000Y-11750000D03*
%TO.P,C2,2*%
%TO.N,VCC*%
X70739000Y-13650000D03*
%TD*%
D11*
%TO.P,J11,1,Pin_1*%
%TO.N,GNDREF*%
X112522000Y-41910000D03*
D12*
%TO.P,J11,2,Pin_2*%
%TO.N,+6V*%
X112522000Y-39370000D03*
%TO.P,J11,3,Pin_3*%
%TO.N,/SERVO2*%
X112522000Y-36830000D03*
%TD*%
D28*
%TO.P,C3,1*%
%TO.N,GNDREF*%
X73279000Y-11750000D03*
%TO.P,C3,2*%
%TO.N,+3V3*%
X73279000Y-13650000D03*
%TD*%
D26*
%TO.P,R21,1*%
%TO.N,+3V3*%
X81725000Y-32893000D03*
%TO.P,R21,2*%
%TO.N,/SWCLK*%
X83375000Y-32893000D03*
%TD*%
D29*
%TO.P,L1,1,1*%
%TO.N,VCC*%
X92093000Y27810000D03*
%TO.P,L1,2,2*%
%TO.N,Net-(U10-SW)*%
X92093000Y30610000D03*
%TD*%
D17*
%TO.P,U9,1,VCC*%
%TO.N,+3V3*%
X13862500Y25090000D03*
%TO.P,U9,2,GND*%
%TO.N,GNDREF*%
X13862500Y24140000D03*
%TO.P,U9,3*%
%TO.N,unconnected-(U9-Pad3)*%
X13862500Y23190000D03*
%TO.P,U9,4,OUT1*%
%TO.N,/ENC1_SPEED*%
X16137500Y23190000D03*
%TO.P,U9,5,OUT2*%
%TO.N,/ENC1_DIR*%
X16137500Y25090000D03*
%TD*%
D30*
%TO.P,J3,1,VBUS*%
%TO.N,VCC*%
X72868000Y-45336000D03*
%TO.P,J3,2,D-*%
%TO.N,/D-*%
X73518000Y-45336000D03*
%TO.P,J3,3,D+*%
%TO.N,/D+*%
X74168000Y-45336000D03*
%TO.P,J3,4,ID*%
%TO.N,unconnected-(J3-ID-Pad4)*%
X74818000Y-45336000D03*
%TO.P,J3,5,GND*%
%TO.N,GNDREF*%
X75468000Y-45336000D03*
D31*
%TO.P,J3,6,Shield*%
X70668000Y-48036000D03*
D32*
X71268000Y-48036000D03*
D33*
X71668000Y-45336000D03*
D34*
X73168000Y-48036000D03*
X75168000Y-48036000D03*
D33*
X76668000Y-45336000D03*
D32*
X77068000Y-48036000D03*
D31*
X77668000Y-48036000D03*
%TD*%
D20*
%TO.P,J4,1,Pin_1*%
%TO.N,/Motor1B_out*%
X19750000Y27700000D03*
%TD*%
D16*
%TO.P,C14,1*%
%TO.N,Net-(U11-VCP)*%
X79418625Y-2682000D03*
%TO.P,C14,2*%
%TO.N,+6V*%
X80968625Y-2682000D03*
%TD*%
D35*
%TO.P,R5,1*%
%TO.N,+3V3*%
X97790000Y9335000D03*
%TO.P,R5,2*%
%TO.N,/A4*%
X97790000Y10985000D03*
%TD*%
D15*
%TO.P,C24,1*%
%TO.N,Net-(U14-SS)*%
X82550000Y12967000D03*
%TO.P,C24,2*%
%TO.N,GNDREF*%
X82550000Y11417000D03*
%TD*%
D11*
%TO.P,J1,1,Pin_1*%
%TO.N,/nRESET*%
X76962000Y-40386000D03*
D12*
%TO.P,J1,2,Pin_2*%
%TO.N,/SWCLK*%
X79502000Y-40767000D03*
%TO.P,J1,3,Pin_3*%
%TO.N,/SWDIO*%
X82042000Y-40386000D03*
%TO.P,J1,4,Pin_4*%
%TO.N,GNDREF*%
X84582000Y-40767000D03*
%TO.P,J1,5,Pin_5*%
%TO.N,+3V3*%
X87122000Y-40386000D03*
%TD*%
D16*
%TO.P,C16,1*%
%TO.N,/Reflectance sensor array/VCC_LED*%
X87762000Y24384000D03*
%TO.P,C16,2*%
%TO.N,GNDREF*%
X89312000Y24384000D03*
%TD*%
D11*
%TO.P,J13,1,Pin_1*%
%TO.N,/SDA*%
X23622000Y6350000D03*
D12*
%TO.P,J13,2,Pin_2*%
%TO.N,+3V3*%
X21082000Y6350000D03*
%TO.P,J13,3,Pin_3*%
%TO.N,/SCL*%
X23622000Y3810000D03*
%TO.P,J13,4,Pin_4*%
%TO.N,/MISO*%
X21082000Y3810000D03*
%TO.P,J13,5,Pin_5*%
%TO.N,/SCK*%
X23622000Y1270000D03*
%TO.P,J13,6,Pin_6*%
%TO.N,/MOSI*%
X21082000Y1270000D03*
%TO.P,J13,7,Pin_7*%
%TO.N,/TOP_A4*%
X23622000Y-1270000D03*
%TO.P,J13,8,Pin_8*%
%TO.N,/TOP_A5*%
X21082000Y-1270000D03*
%TO.P,J13,9,Pin_9*%
%TO.N,/nRESET*%
X23622000Y-3810000D03*
%TO.P,J13,10,Pin_10*%
%TO.N,/TOP_A3*%
X21082000Y-3810000D03*
%TO.P,J13,11,Pin_11*%
%TO.N,GNDREF*%
X23622000Y-6350000D03*
%TO.P,J13,12,Pin_12*%
%TO.N,VCC*%
X21082000Y-6350000D03*
%TD*%
D15*
%TO.P,C11,1*%
%TO.N,+3V3*%
X85770000Y-1767750D03*
%TO.P,C11,2*%
%TO.N,GNDREF*%
X85770000Y-3317750D03*
%TD*%
%TO.P,C26,1*%
%TO.N,Net-(U14-COMP)*%
X74930000Y8014000D03*
%TO.P,C26,2*%
%TO.N,GNDREF*%
X74930000Y6464000D03*
%TD*%
D35*
%TO.P,R3,1*%
%TO.N,+3V3*%
X97790000Y-10985000D03*
%TO.P,R3,2*%
%TO.N,/A2*%
X97790000Y-9335000D03*
%TD*%
D36*
%TO.P,U15,1,PA00*%
%TO.N,/SERVO2*%
X92338000Y-24594000D03*
%TO.P,U15,2,PA01*%
%TO.N,/SERVO1*%
X92338000Y-24094000D03*
%TO.P,U15,3,PA02*%
%TO.N,unconnected-(U15-PA02-Pad3)*%
X92338000Y-23594000D03*
%TO.P,U15,4,PA03*%
%TO.N,unconnected-(U15-PA03-Pad4)*%
X92338000Y-23094000D03*
%TO.P,U15,5,GNDANA*%
%TO.N,GNDREF*%
X92338000Y-22594000D03*
%TO.P,U15,6,VDDANA*%
%TO.N,+3V3*%
X92338000Y-22094000D03*
%TO.P,U15,7,PB08*%
%TO.N,/A1*%
X92338000Y-21594000D03*
%TO.P,U15,8,PB09*%
%TO.N,/A2*%
X92338000Y-21094000D03*
%TO.P,U15,9,PA04*%
%TO.N,/A3*%
X92338000Y-20594000D03*
%TO.P,U15,10,PA05*%
%TO.N,/A4*%
X92338000Y-20094000D03*
%TO.P,U15,11,PA06*%
%TO.N,/A5*%
X92338000Y-19594000D03*
%TO.P,U15,12,PA07*%
%TO.N,/A6*%
X92338000Y-19094000D03*
D37*
%TO.P,U15,13,PA08*%
%TO.N,unconnected-(U15-PA08-Pad13)*%
X90888000Y-17644000D03*
%TO.P,U15,14,PA09*%
%TO.N,/HEARTBEAT*%
X90388000Y-17644000D03*
%TO.P,U15,15,PA10*%
%TO.N,/ANALOG_CTRL*%
X89888000Y-17644000D03*
%TO.P,U15,16,PA11*%
%TO.N,unconnected-(U15-PA11-Pad16)*%
X89388000Y-17644000D03*
%TO.P,U15,17,VDDIO*%
%TO.N,+3V3*%
X88888000Y-17644000D03*
%TO.P,U15,18,GND*%
%TO.N,GNDREF*%
X88388000Y-17644000D03*
%TO.P,U15,19,PB10*%
%TO.N,unconnected-(U15-PB10-Pad19)*%
X87888000Y-17644000D03*
%TO.P,U15,20,PB11*%
%TO.N,unconnected-(U15-PB11-Pad20)*%
X87388000Y-17644000D03*
%TO.P,U15,21,PA12*%
%TO.N,/SDA*%
X86888000Y-17644000D03*
%TO.P,U15,22,PA13*%
%TO.N,/SCL*%
X86388000Y-17644000D03*
%TO.P,U15,23,PA14*%
%TO.N,/ENC1_SPEED*%
X85888000Y-17644000D03*
%TO.P,U15,24,PA15*%
%TO.N,/ENC1_DIR*%
X85388000Y-17644000D03*
D36*
%TO.P,U15,25,PA16*%
%TO.N,/SDA1*%
X83938000Y-19094000D03*
%TO.P,U15,26,PA17*%
%TO.N,/SCL1*%
X83938000Y-19594000D03*
%TO.P,U15,27,PA18*%
%TO.N,/MOTOR1A*%
X83938000Y-20094000D03*
%TO.P,U15,28,PA19*%
%TO.N,/MOTOR1B*%
X83938000Y-20594000D03*
%TO.P,U15,29,PA20*%
%TO.N,/ENC2_DIR*%
X83938000Y-21094000D03*
%TO.P,U15,30,PA21*%
%TO.N,/ENC2_SPEED*%
X83938000Y-21594000D03*
%TO.P,U15,31,PA22*%
%TO.N,/MOTOR2B*%
X83938000Y-22094000D03*
%TO.P,U15,32,PA23*%
%TO.N,/MOTOR2A*%
X83938000Y-22594000D03*
%TO.P,U15,33,PA24*%
%TO.N,/D-*%
X83938000Y-23094000D03*
%TO.P,U15,34,PA25*%
%TO.N,/D+*%
X83938000Y-23594000D03*
%TO.P,U15,35,GND*%
%TO.N,GNDREF*%
X83938000Y-24094000D03*
%TO.P,U15,36,VDDIO*%
%TO.N,+3V3*%
X83938000Y-24594000D03*
D37*
%TO.P,U15,37,PB22*%
%TO.N,unconnected-(U15-PB22-Pad37)*%
X85388000Y-26044000D03*
%TO.P,U15,38,PB23*%
%TO.N,unconnected-(U15-PB23-Pad38)*%
X85888000Y-26044000D03*
%TO.P,U15,39,PA27*%
%TO.N,unconnected-(U15-PA27-Pad39)*%
X86388000Y-26044000D03*
%TO.P,U15,40,~{RESET}*%
%TO.N,/nRESET*%
X86888000Y-26044000D03*
%TO.P,U15,41,PA28*%
%TO.N,unconnected-(U15-PA28-Pad41)*%
X87388000Y-26044000D03*
%TO.P,U15,42,GND*%
%TO.N,GNDREF*%
X87888000Y-26044000D03*
%TO.P,U15,43,VDDCORE*%
%TO.N,Net-(U15-VDDCORE)*%
X88388000Y-26044000D03*
%TO.P,U15,44,VDDIN*%
%TO.N,+3V3*%
X88888000Y-26044000D03*
%TO.P,U15,45,PA30*%
%TO.N,/SWCLK*%
X89388000Y-26044000D03*
%TO.P,U15,46,PA31*%
%TO.N,/SWDIO*%
X89888000Y-26044000D03*
%TO.P,U15,47,PB02*%
%TO.N,/A0*%
X90388000Y-26044000D03*
%TO.P,U15,48,PB03*%
%TO.N,unconnected-(U15-PB03-Pad48)*%
X90888000Y-26044000D03*
%TD*%
D27*
%TO.P,R19,1*%
%TO.N,Net-(U14-FB)*%
X84137000Y8382000D03*
%TO.P,R19,2*%
%TO.N,GNDREF*%
X82487000Y8382000D03*
%TD*%
D18*
%TO.P,C21,1*%
%TO.N,+6V*%
X87310000Y14008000D03*
%TO.P,C21,2*%
%TO.N,GNDREF*%
X85410000Y14008000D03*
%TD*%
D10*
%TO.P,REF\u002A\u002A,1*%
%TO.N,N/C*%
X109000000Y27000000D03*
%TD*%
D35*
%TO.P,R12,1*%
%TO.N,+3V3*%
X20828000Y18479000D03*
%TO.P,R12,2*%
%TO.N,/ENC1_DIR*%
X20828000Y20129000D03*
%TD*%
D16*
%TO.P,C12,1*%
%TO.N,GNDREF*%
X14211000Y19304000D03*
%TO.P,C12,2*%
%TO.N,+3V3*%
X15761000Y19304000D03*
%TD*%
D10*
%TO.P,REF\u002A\u002A,1*%
%TO.N,N/C*%
X93000000Y40000000D03*
%TD*%
%TO.P,REF\u002A\u002A,1*%
%TO.N,N/C*%
X106000000Y-39500000D03*
%TD*%
D38*
%TO.P,C5,1*%
%TO.N,+6V*%
X80447625Y940000D03*
%TO.P,C5,2*%
%TO.N,GNDREF*%
X80447625Y2840000D03*
%TD*%
D18*
%TO.P,C22,1*%
%TO.N,+6V*%
X87310000Y11430000D03*
%TO.P,C22,2*%
%TO.N,GNDREF*%
X85410000Y11430000D03*
%TD*%
D35*
%TO.P,R2,1*%
%TO.N,+3V3*%
X97790000Y-21145000D03*
%TO.P,R2,2*%
%TO.N,/A1*%
X97790000Y-19495000D03*
%TD*%
D26*
%TO.P,R10,1*%
%TO.N,Net-(D1-K)*%
X4509000Y-18923000D03*
%TO.P,R10,2*%
%TO.N,GNDREF*%
X6159000Y-18923000D03*
%TD*%
D39*
%TO.P,C4,1*%
%TO.N,/VBAT*%
X73787000Y-30132000D03*
%TO.P,C4,2*%
%TO.N,GNDREF*%
X73787000Y-24732000D03*
%TD*%
D40*
%TO.P,U10,1,SW*%
%TO.N,Net-(U10-SW)*%
X87709000Y30347500D03*
%TO.P,U10,2,GND*%
%TO.N,GNDREF*%
X86759000Y30347500D03*
%TO.P,U10,3,FB*%
%TO.N,/Reflectance sensor array/FB*%
X85809000Y30347500D03*
%TO.P,U10,4,CTRL*%
%TO.N,/ANALOG_CTRL*%
X85809000Y28072500D03*
%TO.P,U10,5,VOUT*%
%TO.N,/Reflectance sensor array/VCC_LED*%
X86759000Y28072500D03*
%TO.P,U10,6,VIN*%
%TO.N,VCC*%
X87709000Y28072500D03*
%TD*%
D27*
%TO.P,R22,1*%
%TO.N,Net-(J14-Pin_1)*%
X47815000Y-41148000D03*
%TO.P,R22,2*%
%TO.N,/VBAT*%
X46165000Y-41148000D03*
%TD*%
D10*
%TO.P,REF\u002A\u002A,1*%
%TO.N,N/C*%
X106000000Y39500000D03*
%TD*%
D41*
%TO.P,U14,1,PGND*%
%TO.N,GNDREF*%
X74990000Y13843000D03*
%TO.P,U14,2,VIN*%
%TO.N,VCC*%
X74990000Y12573000D03*
%TO.P,U14,3,EN*%
X74990000Y11303000D03*
%TO.P,U14,4,COMP*%
%TO.N,Net-(U14-COMP)*%
X74990000Y10033000D03*
%TO.P,U14,5,AGND*%
%TO.N,GNDREF*%
X79950000Y10033000D03*
%TO.P,U14,6,FB*%
%TO.N,Net-(U14-FB)*%
X79950000Y11303000D03*
%TO.P,U14,7,SS*%
%TO.N,Net-(U14-SS)*%
X79950000Y12573000D03*
%TO.P,U14,8,SW*%
%TO.N,Net-(D3-A)*%
X79950000Y13843000D03*
D42*
%TO.P,U14,9*%
%TO.N,N/C*%
X77470000Y11938000D03*
%TD*%
D10*
%TO.P,REF\u002A\u002A,1*%
%TO.N,N/C*%
X93000000Y-40000000D03*
%TD*%
D20*
%TO.P,J5,1,Pin_1*%
%TO.N,/Motor2B_out*%
X19750000Y-27700000D03*
%TD*%
D43*
%TO.P,D1,1,K*%
%TO.N,Net-(D1-K)*%
X4546500Y-16637000D03*
%TO.P,D1,2,A*%
%TO.N,VCC*%
X6121500Y-16637000D03*
%TD*%
D10*
%TO.P,REF\u002A\u002A,1*%
%TO.N,N/C*%
X25500000Y43500000D03*
%TD*%
D24*
%TO.P,C17,1*%
%TO.N,GNDREF*%
X88265000Y-30370000D03*
%TO.P,C17,2*%
%TO.N,Net-(U15-VDDCORE)*%
X88265000Y-28820000D03*
%TD*%
D27*
%TO.P,R14,1*%
%TO.N,+3V3*%
X73596000Y3429000D03*
%TO.P,R14,2*%
%TO.N,Net-(U11-nSLEEP)*%
X71946000Y3429000D03*
%TD*%
D35*
%TO.P,R7,1*%
%TO.N,+3V3*%
X97790000Y30925000D03*
%TO.P,R7,2*%
%TO.N,/A6*%
X97790000Y32575000D03*
%TD*%
%TO.P,R6,1*%
%TO.N,+3V3*%
X97790000Y19495000D03*
%TO.P,R6,2*%
%TO.N,/A5*%
X97790000Y21145000D03*
%TD*%
D18*
%TO.P,C20,1*%
%TO.N,+6V*%
X87310000Y17018000D03*
%TO.P,C20,2*%
%TO.N,GNDREF*%
X85410000Y17018000D03*
%TD*%
D27*
%TO.P,R18,1*%
%TO.N,+6V*%
X87185000Y8382000D03*
%TO.P,R18,2*%
%TO.N,Net-(U14-FB)*%
X85535000Y8382000D03*
%TD*%
D26*
%TO.P,R8,1*%
%TO.N,+3V3*%
X88075000Y-11303000D03*
%TO.P,R8,2*%
%TO.N,/SDA1*%
X89725000Y-11303000D03*
%TD*%
D11*
%TO.P,J12,1,Pin_1*%
%TO.N,GNDREF*%
X112522000Y41910000D03*
D12*
%TO.P,J12,2,Pin_2*%
%TO.N,+6V*%
X112522000Y39370000D03*
%TO.P,J12,3,Pin_3*%
%TO.N,/SERVO1*%
X112522000Y36830000D03*
%TD*%
D44*
%TO.P,U12,1,SDO/AD0*%
%TO.N,GNDREF*%
X90408000Y835750D03*
%TO.P,U12,2,RESV*%
%TO.N,unconnected-(U12-RESV-Pad2)*%
X89908000Y835750D03*
%TO.P,U12,3,RESV*%
%TO.N,unconnected-(U12-RESV-Pad3)*%
X89408000Y835750D03*
%TO.P,U12,4,INT1*%
%TO.N,unconnected-(U12-INT1-Pad4)*%
X88908000Y835750D03*
D45*
%TO.P,U12,5,VDDIO*%
%TO.N,+3V3*%
X88645500Y73250D03*
%TO.P,U12,6,GND*%
%TO.N,GNDREF*%
X88645500Y-426750D03*
%TO.P,U12,7,GND*%
X88645500Y-926750D03*
D44*
%TO.P,U12,8,VDD*%
%TO.N,+3V3*%
X88908000Y-1689250D03*
%TO.P,U12,9,INT2*%
%TO.N,/EXT_CLK*%
X89408000Y-1689250D03*
%TO.P,U12,10,RESV*%
%TO.N,unconnected-(U12-RESV-Pad10)*%
X89908000Y-1689250D03*
%TO.P,U12,11,GND*%
%TO.N,unconnected-(U12-GND-Pad11)*%
X90408000Y-1689250D03*
D45*
%TO.P,U12,12,CS*%
%TO.N,+3V3*%
X90670500Y-926750D03*
%TO.P,U12,13,SCL*%
%TO.N,/SCL1*%
X90670500Y-426750D03*
%TO.P,U12,14,SDA*%
%TO.N,/SDA1*%
X90670500Y73250D03*
%TD*%
D11*
%TO.P,J9,1,Pin_1*%
%TO.N,VCC*%
X15240000Y5080000D03*
D12*
%TO.P,J9,2,Pin_2*%
%TO.N,+3V3*%
X12700000Y5080000D03*
%TO.P,J9,3,Pin_3*%
%TO.N,/SCK*%
X10160000Y5080000D03*
%TO.P,J9,4,Pin_4*%
%TO.N,/TOP_A5*%
X7620000Y5080000D03*
%TO.P,J9,5,Pin_5*%
%TO.N,GNDREF*%
X5080000Y5080000D03*
%TD*%
D15*
%TO.P,C9,1*%
%TO.N,+3V3*%
X87294000Y-1767750D03*
%TO.P,C9,2*%
%TO.N,GNDREF*%
X87294000Y-3317750D03*
%TD*%
D46*
%TO.P,L2,1,1*%
%TO.N,VCC*%
X74542000Y20574000D03*
%TO.P,L2,2,2*%
%TO.N,Net-(D3-A)*%
X79382000Y20574000D03*
%TD*%
D47*
%TO.P,D2,1,K*%
%TO.N,Net-(D2-K)*%
X84074000Y787500D03*
%TO.P,D2,2,A*%
%TO.N,/HEARTBEAT*%
X84074000Y-787500D03*
%TD*%
D16*
%TO.P,C25,1*%
%TO.N,Net-(C25-Pad1)*%
X71869000Y6477000D03*
%TO.P,C25,2*%
%TO.N,GNDREF*%
X73419000Y6477000D03*
%TD*%
D15*
%TO.P,C15,1*%
%TO.N,+3V3*%
X86532000Y1788250D03*
%TO.P,C15,2*%
%TO.N,GNDREF*%
X86532000Y238250D03*
%TD*%
D20*
%TO.P,J8,1,Pin_1*%
%TO.N,+3V3*%
X70866000Y45212000D03*
D12*
%TO.P,J8,2,Pin_2*%
%TO.N,VCC*%
X73406000Y45212000D03*
%TO.P,J8,3,Pin_3*%
%TO.N,+6V*%
X75946000Y45212000D03*
%TO.P,J8,4,Pin_4*%
%TO.N,GNDREF*%
X78486000Y45212000D03*
%TD*%
D10*
%TO.P,REF\u002A\u002A,1*%
%TO.N,N/C*%
X4500000Y43500000D03*
%TD*%
D11*
%TO.P,J10,1,Pin_1*%
%TO.N,VCC*%
X15240000Y-2540000D03*
D12*
%TO.P,J10,2,Pin_2*%
%TO.N,+3V3*%
X12700000Y-2540000D03*
%TO.P,J10,3,Pin_3*%
%TO.N,/TOP_A4*%
X10160000Y-2540000D03*
%TO.P,J10,4,Pin_4*%
%TO.N,/TOP_A3*%
X7620000Y-2540000D03*
%TO.P,J10,5,Pin_5*%
%TO.N,GNDREF*%
X5080000Y-2540000D03*
%TD*%
D48*
%TO.P,D3,1,K*%
%TO.N,+6V*%
X86582000Y20574000D03*
%TO.P,D3,2,A*%
%TO.N,Net-(D3-A)*%
X82582000Y20574000D03*
%TD*%
D19*
%TO.P,C23,1*%
%TO.N,+3V3*%
X87388500Y-4994750D03*
%TO.P,C23,2*%
%TO.N,GNDREF*%
X85838500Y-4994750D03*
%TD*%
D49*
%TO.P,SW1,1,A*%
%TO.N,/VBAT*%
X5460000Y-10668000D03*
%TO.P,SW1,2,B*%
%TO.N,VCC*%
X10160000Y-10668000D03*
%TO.P,SW1,3,C*%
%TO.N,unconnected-(SW1-C-Pad3)*%
X14860000Y-10668000D03*
%TD*%
D50*
%TO.P,R17,1*%
%TO.N,+3V3*%
X24638000Y-17209000D03*
%TO.P,R17,2*%
%TO.N,/ENC2_SPEED*%
X24638000Y-18859000D03*
%TD*%
%TO.P,R16,1*%
%TO.N,+3V3*%
X22860000Y-17209000D03*
%TO.P,R16,2*%
%TO.N,/ENC2_DIR*%
X22860000Y-18859000D03*
%TD*%
%TO.P,R1,1*%
%TO.N,+3V3*%
X97790000Y-31179000D03*
%TO.P,R1,2*%
%TO.N,/A0*%
X97790000Y-32829000D03*
%TD*%
D10*
%TO.P,REF\u002A\u002A,1*%
%TO.N,N/C*%
X25500000Y-43500000D03*
%TD*%
D35*
%TO.P,R13,1*%
%TO.N,+3V3*%
X18796000Y18479000D03*
%TO.P,R13,2*%
%TO.N,/ENC1_SPEED*%
X18796000Y20129000D03*
%TD*%
D20*
%TO.P,J7,1,Pin_1*%
%TO.N,/Motor2A_out*%
X10250000Y-27700000D03*
%TD*%
D35*
%TO.P,R4,1*%
%TO.N,+3V3*%
X97790000Y-825000D03*
%TO.P,R4,2*%
%TO.N,/A3*%
X97790000Y825000D03*
%TD*%
%TO.P,R11,1*%
%TO.N,Net-(D2-K)*%
X84074000Y2731000D03*
%TO.P,R11,2*%
%TO.N,GNDREF*%
X84074000Y4381000D03*
%TD*%
D17*
%TO.P,U1,1,VIN*%
%TO.N,VCC*%
X71379500Y-15814000D03*
%TO.P,U1,2,GND*%
%TO.N,GNDREF*%
X71379500Y-16764000D03*
%TO.P,U1,3,EN*%
%TO.N,VCC*%
X71379500Y-17714000D03*
%TO.P,U1,4,NC*%
%TO.N,unconnected-(U1-NC-Pad4)*%
X73654500Y-17714000D03*
%TO.P,U1,5,VOUT*%
%TO.N,+3V3*%
X73654500Y-15814000D03*
%TD*%
D27*
%TO.P,R9,1*%
%TO.N,+3V3*%
X89852000Y-8763000D03*
%TO.P,R9,2*%
%TO.N,/SCL1*%
X88202000Y-8763000D03*
%TD*%
D15*
%TO.P,C13,1*%
%TO.N,+3V3*%
X94869000Y-22229000D03*
%TO.P,C13,2*%
%TO.N,GNDREF*%
X94869000Y-23779000D03*
%TD*%
D51*
%TO.P,U3,1,K*%
%TO.N,Net-(U3-K)*%
X106698000Y-19070000D03*
%TO.P,U3,2,A*%
%TO.N,Net-(U2-K)*%
X106698000Y-21610000D03*
%TO.P,U3,3,E*%
%TO.N,GNDREF*%
X102598000Y-21610000D03*
%TO.P,U3,4,C*%
%TO.N,/A1*%
X102598000Y-19070000D03*
%TD*%
%TO.P,U5,1,K*%
%TO.N,Net-(U5-K)*%
X106698000Y1250000D03*
%TO.P,U5,2,A*%
%TO.N,Net-(U4-K)*%
X106698000Y-1290000D03*
%TO.P,U5,3,E*%
%TO.N,GNDREF*%
X102598000Y-1290000D03*
%TO.P,U5,4,C*%
%TO.N,/A3*%
X102598000Y1250000D03*
%TD*%
%TO.P,U2,1,K*%
%TO.N,Net-(U2-K)*%
X106698000Y-44470000D03*
%TO.P,U2,2,A*%
%TO.N,/Reflectance sensor array/VCC_LED*%
X106698000Y-47010000D03*
%TO.P,U2,3,E*%
%TO.N,GNDREF*%
X102598000Y-47010000D03*
%TO.P,U2,4,C*%
%TO.N,/A0*%
X102598000Y-44470000D03*
%TD*%
%TO.P,U4,1,K*%
%TO.N,Net-(U4-K)*%
X106680000Y-8890000D03*
%TO.P,U4,2,A*%
%TO.N,Net-(U3-K)*%
X106680000Y-11430000D03*
%TO.P,U4,3,E*%
%TO.N,GNDREF*%
X102580000Y-11430000D03*
%TO.P,U4,4,C*%
%TO.N,/A2*%
X102580000Y-8890000D03*
%TD*%
%TO.P,U7,1,K*%
%TO.N,Net-(U7-K)*%
X106680000Y21590000D03*
%TO.P,U7,2,A*%
%TO.N,Net-(U6-K)*%
X106680000Y19050000D03*
%TO.P,U7,3,E*%
%TO.N,GNDREF*%
X102580000Y19050000D03*
%TO.P,U7,4,C*%
%TO.N,/A5*%
X102580000Y21590000D03*
%TD*%
%TO.P,U6,1,K*%
%TO.N,Net-(U6-K)*%
X106680000Y11430000D03*
%TO.P,U6,2,A*%
%TO.N,Net-(U5-K)*%
X106680000Y8890000D03*
%TO.P,U6,3,E*%
%TO.N,GNDREF*%
X102580000Y8890000D03*
%TO.P,U6,4,C*%
%TO.N,/A4*%
X102580000Y11430000D03*
%TD*%
%TO.P,U8,1,K*%
%TO.N,/Reflectance sensor array/FB*%
X106698000Y46970000D03*
%TO.P,U8,2,A*%
%TO.N,Net-(U7-K)*%
X106698000Y44430000D03*
%TO.P,U8,3,E*%
%TO.N,GNDREF*%
X102598000Y44430000D03*
%TO.P,U8,4,C*%
%TO.N,/A6*%
X102598000Y46970000D03*
%TD*%
D52*
%TO.N,+3V3*%
X90932000Y-8763000D03*
X88888000Y-27698000D03*
X97790000Y8382000D03*
X97790000Y18542000D03*
X97790000Y-11938000D03*
X91348000Y3024000D03*
X97790000Y-29972000D03*
X76073000Y-15748000D03*
X76073000Y-18415000D03*
X96897000Y-22229000D03*
X76073000Y-17018000D03*
X80670400Y-32867600D03*
X96520000Y30988000D03*
X14859000Y-21209000D03*
X10668000Y21590000D03*
X81026000Y-26670000D03*
X75057000Y3429000D03*
X88900000Y-14000000D03*
X97790000Y-2286000D03*
%TO.N,/VBAT*%
X39624000Y-35306000D03*
X38354000Y-35306000D03*
X35814000Y-35306000D03*
X37084000Y-35306000D03*
%TO.N,/SDA*%
X87376000Y-14478000D03*
%TO.N,/SCL*%
X86360000Y-15494000D03*
%TO.N,/ENC1_DIR*%
X19050000Y25146000D03*
X86360000Y-11938000D03*
%TO.N,/ENC1_SPEED*%
X87122000Y-12954000D03*
X18796000Y23114000D03*
%TO.N,/ENC2_DIR*%
X22860000Y-21082000D03*
X82042000Y-20828000D03*
%TO.N,/ENC2_SPEED*%
X80518000Y-21336000D03*
X24638000Y-21844000D03*
%TO.N,+6V*%
X80264000Y-762000D03*
X88138000Y8382000D03*
X88138000Y15494000D03*
X78994000Y-762000D03*
X88138000Y12700000D03*
X77978000Y-792000D03*
X88138000Y9906000D03*
%TO.N,GNDREF*%
X81026000Y-25146000D03*
X41656000Y40894000D03*
X78486000Y15240000D03*
X76708000Y15240000D03*
X69723000Y-17399000D03*
X68834000Y-17399000D03*
X12192000Y-20066000D03*
X81866375Y2008000D03*
X72898000Y16510000D03*
X44196000Y40894000D03*
X76708000Y16510000D03*
X88474000Y32322000D03*
X75438000Y15240000D03*
X76708000Y7874000D03*
X79756000Y7874000D03*
X49784000Y40894000D03*
X90569000Y25908000D03*
X78486000Y16510000D03*
X85497000Y15546000D03*
X96266000Y-23622000D03*
X80772000Y8890000D03*
X88011000Y-16000000D03*
X75565000Y-12954000D03*
X52578000Y40894000D03*
X85851500Y-3978750D03*
X86995000Y-28067000D03*
X86467782Y-830474D03*
X78740000Y7874000D03*
X74168000Y16510000D03*
X70612000Y8255000D03*
X68834000Y31242000D03*
X78740000Y8890000D03*
X79756000Y8890000D03*
X12446000Y21590000D03*
X72136000Y-25273000D03*
X85497000Y13006000D03*
X46990000Y40894000D03*
X91866000Y-3050750D03*
X89407500Y2117250D03*
X77724000Y8890000D03*
X77724000Y7874000D03*
X76708000Y8890000D03*
X80772000Y7874000D03*
X75438000Y16510000D03*
%TO.N,VCC*%
X60833000Y-15694500D03*
X62611000Y-15748000D03*
X61722000Y28901504D03*
X90424000Y28901504D03*
X62484000Y20320000D03*
X60960000Y20320000D03*
X59436000Y20320000D03*
X60452000Y28901504D03*
%TO.N,/Reflectance sensor array/VCC_LED*%
X96520000Y23368000D03*
%TO.N,/Reflectance sensor array/FB*%
X97500000Y45720000D03*
%TO.N,/HEARTBEAT*%
X91000000Y-15500000D03*
X84074000Y-1778000D03*
%TD*%
D53*
%TO.N,/MOTOR1A*%
X82611532Y-19561322D02*
X82611532Y-19562000D01*
X76693000Y4430000D02*
X82150125Y4430000D01*
X82235207Y-5447668D02*
X82235207Y-19184997D01*
X75973500Y1808000D02*
X75973500Y3710500D01*
X82611532Y-19562000D02*
X83143532Y-20094000D01*
X75973500Y3710500D02*
X76693000Y4430000D01*
X82235207Y-19184997D02*
X82611532Y-19561322D01*
X83143532Y-20094000D02*
X83938000Y-20094000D01*
X83166125Y-4516750D02*
X82235207Y-5447668D01*
X83166125Y3414000D02*
X83166125Y-4516750D01*
X82150125Y4430000D02*
X83166125Y3414000D01*
%TO.N,/MOTOR1B*%
X82578875Y-4342000D02*
X81562875Y-5358000D01*
X75973500Y1158000D02*
X76977000Y1158000D01*
X77343000Y1524000D02*
X77343000Y3048000D01*
X76977000Y1158000D02*
X77343000Y1524000D01*
X81562875Y-19082875D02*
X83074000Y-20594000D01*
X82578875Y3239250D02*
X82578875Y-4342000D01*
X77343000Y3048000D02*
X78217000Y3922000D01*
X81562875Y-5358000D02*
X81562875Y-19082875D01*
X83074000Y-20594000D02*
X83938000Y-20594000D01*
X81896125Y3922000D02*
X82578875Y3239250D01*
X78217000Y3922000D02*
X81896125Y3922000D01*
%TO.N,/MOTOR2A*%
X75973500Y-3357375D02*
X77597000Y-4980875D01*
X77597000Y-20574000D02*
X79617000Y-22594000D01*
X75973500Y-2742000D02*
X75973500Y-3357375D01*
X79617000Y-22594000D02*
X83938000Y-22594000D01*
X77597000Y-4980875D02*
X77597000Y-20574000D01*
%TO.N,/MOTOR2B*%
X78232000Y-20320000D02*
X80006000Y-22094000D01*
X76768000Y-2092000D02*
X78232000Y-3556000D01*
X78232000Y-3556000D02*
X78232000Y-20320000D01*
X80006000Y-22094000D02*
X83938000Y-22094000D01*
X76493415Y-2092000D02*
X76768000Y-2092000D01*
%TO.N,+3V3*%
X96897000Y-22229000D02*
X97981000Y-21145000D01*
X88888000Y-27932000D02*
X89789000Y-28833000D01*
D54*
X10668000Y21590000D02*
X10668000Y23876000D01*
D53*
X96897000Y-22229000D02*
X94869000Y-22229000D01*
X97790000Y-31179000D02*
X97790000Y-29972000D01*
X89852000Y-8763000D02*
X90932000Y-8763000D01*
X88645500Y73250D02*
X89250000Y73250D01*
X87294000Y-1767750D02*
X85770000Y-1767750D01*
X82296000Y-26683000D02*
X81039000Y-26683000D01*
X88888000Y-27698000D02*
X88888000Y-27932000D01*
D54*
X90614000Y-7007750D02*
X90614000Y-7811000D01*
D53*
X96520000Y30988000D02*
X97727000Y30988000D01*
X83938000Y-25790000D02*
X83938000Y-24594000D01*
X87980000Y73250D02*
X87802000Y251250D01*
X75057000Y3429000D02*
X73596000Y3429000D01*
X83045000Y-26683000D02*
X83938000Y-25790000D01*
D54*
X10668000Y20066000D02*
X10668000Y21590000D01*
D53*
X22860000Y-17209000D02*
X16827000Y-17209000D01*
X18796000Y18479000D02*
X15685000Y18479000D01*
D54*
X87388500Y-4994750D02*
X88908000Y-4994750D01*
D55*
X73279000Y-15748000D02*
X76073000Y-15748000D01*
D54*
X15761000Y18555000D02*
X15621000Y18415000D01*
X10668000Y23876000D02*
X11882000Y25090000D01*
X90551000Y-6944750D02*
X89746000Y-6944750D01*
X90932000Y-8763000D02*
X90932000Y-8255000D01*
D53*
X15761000Y-20307000D02*
X15761000Y-19304000D01*
X97790000Y18542000D02*
X97790000Y19495000D01*
X87802000Y1182750D02*
X87196500Y1788250D01*
X88645500Y73250D02*
X87980000Y73250D01*
D54*
X14986000Y17780000D02*
X12954000Y17780000D01*
D53*
X97727000Y30988000D02*
X97790000Y30925000D01*
X97790000Y9335000D02*
X97790000Y8382000D01*
D54*
X88908000Y-4994750D02*
X88908000Y-1689250D01*
D56*
X73279000Y-13650000D02*
X73279000Y-15438500D01*
D53*
X88075000Y-13175000D02*
X88900000Y-14000000D01*
X88888000Y-14012000D02*
X88888000Y-17644000D01*
X87802000Y251250D02*
X87802000Y1182750D01*
D54*
X15621000Y18415000D02*
X14986000Y17780000D01*
X90932000Y-8255000D02*
X90614000Y-7937000D01*
D53*
X88888000Y-26044000D02*
X88888000Y-27698000D01*
X88908000Y-1689250D02*
X87372500Y-1689250D01*
X82296000Y-26683000D02*
X83045000Y-26683000D01*
X81725000Y-32893000D02*
X80695800Y-32893000D01*
X88900000Y-14000000D02*
X88888000Y-14012000D01*
D54*
X89746000Y-6944750D02*
X88908000Y-6106750D01*
D53*
X16827000Y-17209000D02*
X15761000Y-18275000D01*
X15685000Y18479000D02*
X15621000Y18415000D01*
X80695800Y-32893000D02*
X80670400Y-32867600D01*
X90250000Y-926750D02*
X90670500Y-926750D01*
X24638000Y-17209000D02*
X22860000Y-17209000D01*
X97790000Y-10985000D02*
X97790000Y-11938000D01*
X13862500Y-23190000D02*
X13862500Y-22205500D01*
X86522000Y2516000D02*
X87030000Y3024000D01*
X88075000Y-11303000D02*
X88075000Y-13175000D01*
X92338000Y-22094000D02*
X94734000Y-22094000D01*
X97790000Y-825000D02*
X97790000Y-2286000D01*
D54*
X88908000Y-6106750D02*
X88908000Y-4994750D01*
D53*
X85794250Y1788250D02*
X86532000Y1788250D01*
X20828000Y18479000D02*
X18796000Y18479000D01*
D54*
X12954000Y17780000D02*
X10668000Y20066000D01*
X91446000Y-6944750D02*
X90551000Y-6944750D01*
X15761000Y19304000D02*
X15761000Y18555000D01*
D53*
X15761000Y-18275000D02*
X15761000Y-19304000D01*
D54*
X90551000Y-6944750D02*
X90614000Y-7007750D01*
D53*
X86532000Y2506000D02*
X86522000Y2516000D01*
D54*
X11882000Y25090000D02*
X13862500Y25090000D01*
D53*
X89250000Y73250D02*
X90250000Y-926750D01*
X14859000Y-21209000D02*
X15761000Y-20307000D01*
X85770000Y-1767750D02*
X85252000Y-1249750D01*
X85252000Y1246000D02*
X85794250Y1788250D01*
X13862500Y-22205500D02*
X14859000Y-21209000D01*
D56*
X73279000Y-15438500D02*
X73654500Y-15814000D01*
D53*
X81039000Y-26683000D02*
X81026000Y-26670000D01*
X85252000Y-1249750D02*
X85252000Y1246000D01*
D55*
X76073000Y-18415000D02*
X76073000Y-15748000D01*
D53*
X86532000Y1788250D02*
X86532000Y2506000D01*
X87030000Y3024000D02*
X91348000Y3024000D01*
X87196500Y1788250D02*
X86532000Y1788250D01*
%TO.N,/A0*%
X97727000Y-32829000D02*
X97162223Y-33393777D01*
X90388000Y-26619553D02*
X97162223Y-33393777D01*
X97162223Y-33393777D02*
X97790000Y-34021553D01*
X97790000Y-32829000D02*
X97727000Y-32829000D01*
X90388000Y-26044000D02*
X90388000Y-26619553D01*
X97790000Y-39660000D02*
X102580000Y-44450000D01*
X97790000Y-34021553D02*
X97790000Y-39660000D01*
%TO.N,/SERVO1*%
X93980000Y-24892000D02*
X93182000Y-24094000D01*
X93182000Y-24094000D02*
X92338000Y-24094000D01*
X112522000Y-18034000D02*
X105664000Y-24892000D01*
X105664000Y-24892000D02*
X93980000Y-24892000D01*
X112522000Y36830000D02*
X112522000Y-18034000D01*
%TO.N,/SERVO2*%
X93218000Y-25908000D02*
X101600000Y-25908000D01*
X101600000Y-25908000D02*
X112522000Y-36830000D01*
X92338000Y-24594000D02*
X92338000Y-25028000D01*
X92338000Y-25028000D02*
X93218000Y-25908000D01*
D54*
%TO.N,/D-*%
X80828310Y-23115400D02*
X83016599Y-23115400D01*
X78511400Y-25432310D02*
X80828310Y-23115400D01*
X78511400Y-30079946D02*
X78511400Y-25432310D01*
X73614400Y-34976946D02*
X78511400Y-30079946D01*
X73518000Y-44323499D02*
X73614400Y-44227099D01*
X73614400Y-44227099D02*
X73614400Y-34976946D01*
X83037999Y-23094000D02*
X83938000Y-23094000D01*
X73518000Y-45336000D02*
X73518000Y-44323499D01*
X83016599Y-23115400D02*
X83037999Y-23094000D01*
%TO.N,/D+*%
X81017690Y-23572600D02*
X83016599Y-23572600D01*
X78968600Y-30269326D02*
X78968600Y-25621690D01*
X74168000Y-45336000D02*
X74168000Y-44323499D01*
X83037999Y-23594000D02*
X83938000Y-23594000D01*
X74168000Y-44323499D02*
X74071600Y-44227099D01*
X83016599Y-23572600D02*
X83037999Y-23594000D01*
X78968600Y-25621690D02*
X81017690Y-23572600D01*
X74071600Y-35166326D02*
X78968600Y-30269326D01*
X74071600Y-44227099D02*
X74071600Y-35166326D01*
D56*
%TO.N,/Motor1A_out*%
X70248500Y1158000D02*
X69213750Y1158000D01*
D55*
X19812000Y30480000D02*
X12954000Y30480000D01*
D56*
X68989750Y1382000D02*
X68354750Y1382000D01*
D55*
X48704500Y1587500D02*
X19812000Y30480000D01*
D56*
X69213750Y1158000D02*
X68989750Y1382000D01*
D55*
X48910000Y1382000D02*
X48704500Y1587500D01*
X68354750Y1382000D02*
X48910000Y1382000D01*
X12954000Y30480000D02*
X10250000Y27776000D01*
D56*
%TO.N,/Motor1B_out*%
X69393539Y-142000D02*
X69139539Y112000D01*
D55*
X47386000Y112000D02*
X47053500Y444500D01*
D56*
X69139539Y112000D02*
X68354750Y112000D01*
D55*
X68354750Y112000D02*
X47386000Y112000D01*
D56*
X70248500Y-142000D02*
X69393539Y-142000D01*
D55*
X47053500Y444500D02*
X19798000Y27700000D01*
D56*
%TO.N,/Motor2B_out*%
X69403583Y-792000D02*
X69037583Y-1158000D01*
D55*
X68354750Y-1158000D02*
X49134000Y-1158000D01*
D56*
X70248500Y-792000D02*
X69403583Y-792000D01*
D55*
X22606000Y-27686000D02*
X19764000Y-27686000D01*
X49134000Y-1158000D02*
X22606000Y-27686000D01*
D56*
X69037583Y-1158000D02*
X68354750Y-1158000D01*
%TO.N,/Motor2A_out*%
X69198750Y-2092000D02*
X68862750Y-2428000D01*
D55*
X68354750Y-2428000D02*
X50658000Y-2428000D01*
D56*
X68862750Y-2428000D02*
X68354750Y-2428000D01*
D55*
X22860000Y-30226000D02*
X12700000Y-30226000D01*
X50658000Y-2428000D02*
X22860000Y-30226000D01*
D56*
X70248500Y-2092000D02*
X69198750Y-2092000D01*
D55*
X12700000Y-30226000D02*
X10250000Y-27776000D01*
D56*
%TO.N,/VBAT*%
X56896000Y-35306000D02*
X39624000Y-35306000D01*
D57*
X37440000Y-40860000D02*
X41368000Y-40860000D01*
X41368000Y-40860000D02*
X44196000Y-43688000D01*
D56*
X62103000Y-30099000D02*
X56896000Y-35306000D01*
X73754000Y-30099000D02*
X62103000Y-30099000D01*
X46165000Y-41148000D02*
X46165000Y-43243000D01*
D57*
X44196000Y-43688000D02*
X45720000Y-43688000D01*
D53*
%TO.N,Net-(U11-VINT)*%
X75973500Y508000D02*
X77216000Y508000D01*
X77216000Y508000D02*
X77823000Y1115000D01*
X77823000Y1115000D02*
X78669625Y1115000D01*
%TO.N,/SWCLK*%
X79502000Y-40767000D02*
X79502000Y-37973000D01*
X83375000Y-32893000D02*
X83375000Y-34133000D01*
X79502000Y-37973000D02*
X83185000Y-34290000D01*
X90565120Y-28081120D02*
X90565120Y-31369000D01*
X83375000Y-32893000D02*
X89041120Y-32893000D01*
X83185000Y-34290000D02*
X83218000Y-34290000D01*
X89388000Y-26904000D02*
X90565120Y-28081120D01*
X89041120Y-32893000D02*
X90565120Y-31369000D01*
X83375000Y-34133000D02*
X83218000Y-34290000D01*
X89388000Y-26044000D02*
X89388000Y-26904000D01*
%TO.N,/SWDIO*%
X89888000Y-26834468D02*
X90967840Y-27914308D01*
X89888000Y-26044000D02*
X89888000Y-26834468D01*
X90967840Y-27914308D02*
X90967840Y-31587160D01*
X90967840Y-31587160D02*
X82169000Y-40386000D01*
%TO.N,/SDA1*%
X93345000Y-8571210D02*
X93345000Y-1578250D01*
X89789000Y-10287000D02*
X91629210Y-10287000D01*
X91629210Y-10287000D02*
X93345000Y-8571210D01*
X83938000Y-19094000D02*
X83938000Y-11439000D01*
X83938000Y-11439000D02*
X85090000Y-10287000D01*
X85090000Y-10287000D02*
X89789000Y-10287000D01*
X89725000Y-10351000D02*
X89789000Y-10287000D01*
X91693500Y73250D02*
X90670500Y73250D01*
X89725000Y-11303000D02*
X89725000Y-10351000D01*
X93345000Y-1578250D02*
X91693500Y73250D01*
%TO.N,/SCL1*%
X83213064Y-19594000D02*
X83938000Y-19594000D01*
X82931000Y-11557000D02*
X82931000Y-19311936D01*
X88202000Y-9715000D02*
X88138000Y-9779000D01*
X82931000Y-19311936D02*
X83213064Y-19594000D01*
X92692000Y-8654000D02*
X91567000Y-9779000D01*
X88202000Y-8763000D02*
X88202000Y-9715000D01*
X88138000Y-9779000D02*
X91567000Y-9779000D01*
X90670500Y-426750D02*
X91235222Y-426750D01*
X88138000Y-9779000D02*
X84709000Y-9779000D01*
X84709000Y-9779000D02*
X82931000Y-11557000D01*
X91235222Y-426750D02*
X92692000Y-1883528D01*
X92692000Y-1883528D02*
X92692000Y-8654000D01*
%TO.N,/SDA*%
X87122000Y-14732000D02*
X87122000Y-16510000D01*
X87122000Y-16510000D02*
X86888000Y-16744000D01*
X87376000Y-14478000D02*
X87122000Y-14732000D01*
X86888000Y-16744000D02*
X86888000Y-17644000D01*
%TO.N,/SCL*%
X86388000Y-15522000D02*
X86388000Y-17644000D01*
X86360000Y-15494000D02*
X86388000Y-15522000D01*
%TO.N,/nRESET*%
X83820000Y-29972000D02*
X81788000Y-29972000D01*
X81788000Y-29972000D02*
X81775000Y-29985000D01*
X81788000Y-29972000D02*
X81432400Y-29972000D01*
X81432400Y-29972000D02*
X76949000Y-34455400D01*
X86888000Y-26904000D02*
X83820000Y-29972000D01*
X86888000Y-26044000D02*
X86888000Y-26904000D01*
X81775000Y-29985000D02*
X81775000Y-31242000D01*
X76949000Y-34455400D02*
X76949000Y-40373000D01*
%TO.N,Net-(U11-VCP)*%
X78120000Y-2682000D02*
X79418625Y-2682000D01*
X75973500Y-1442000D02*
X76880000Y-1442000D01*
X76880000Y-1442000D02*
X78120000Y-2682000D01*
%TO.N,/ENC1_DIR*%
X84582000Y-17272000D02*
X84582000Y-13716000D01*
X84954000Y-17644000D02*
X84582000Y-17272000D01*
X19050000Y25146000D02*
X16193500Y25146000D01*
X20828000Y23622000D02*
X20828000Y20129000D01*
X85388000Y-17644000D02*
X84954000Y-17644000D01*
X19050000Y25146000D02*
X19304000Y25146000D01*
X84582000Y-13716000D02*
X86360000Y-11938000D01*
X19304000Y25146000D02*
X20828000Y23622000D01*
%TO.N,/ENC1_SPEED*%
X85344000Y-14732000D02*
X85344000Y-16002000D01*
X18796000Y23114000D02*
X18796000Y20129000D01*
X87122000Y-12954000D02*
X85344000Y-14732000D01*
X85344000Y-16002000D02*
X85888000Y-16546000D01*
X18872000Y23190000D02*
X16137500Y23190000D01*
X85888000Y-16546000D02*
X85888000Y-17644000D01*
%TO.N,/ENC2_DIR*%
X83938000Y-21094000D02*
X82308000Y-21094000D01*
X22860000Y-18859000D02*
X22860000Y-21082000D01*
X82308000Y-21094000D02*
X82042000Y-20828000D01*
X22860000Y-21082000D02*
X20752000Y-23190000D01*
X20752000Y-23190000D02*
X16137500Y-23190000D01*
%TO.N,/ENC2_SPEED*%
X21392000Y-25090000D02*
X16137500Y-25090000D01*
X83938000Y-21594000D02*
X80776000Y-21594000D01*
X24638000Y-21844000D02*
X21392000Y-25090000D01*
X24638000Y-21844000D02*
X24638000Y-18859000D01*
X80776000Y-21594000D02*
X80518000Y-21336000D01*
D57*
%TO.N,+6V*%
X86582000Y20574000D02*
X88138000Y19018000D01*
D53*
X80955625Y-1453625D02*
X80955625Y-2669000D01*
D56*
X80234000Y-792000D02*
X80264000Y-762000D01*
D57*
X88138000Y19018000D02*
X88138000Y8382000D01*
D56*
X76700000Y44458000D02*
X75946000Y45212000D01*
X78148750Y-792000D02*
X75973500Y-792000D01*
D57*
X77978000Y-792000D02*
X80234000Y-792000D01*
D56*
X76700000Y31242000D02*
X76700000Y29980000D01*
X76700000Y29980000D02*
X86106000Y20574000D01*
D53*
X80264000Y-762000D02*
X80955625Y-1453625D01*
X80264000Y-762000D02*
X80447625Y-578375D01*
D56*
X76700000Y31242000D02*
X76700000Y44458000D01*
D53*
X80447625Y-578375D02*
X80447625Y940000D01*
%TO.N,GNDREF*%
X70668000Y-48036000D02*
X73168000Y-48036000D01*
X80264000Y8382000D02*
X79756000Y7874000D01*
X88265000Y-30370000D02*
X89776000Y-30370000D01*
X82296000Y-24261000D02*
X82296000Y-25133000D01*
X75168000Y-48036000D02*
X77668000Y-48036000D01*
D54*
X14211000Y19304000D02*
X13716000Y19304000D01*
D53*
X86995000Y-27813000D02*
X86995000Y-28067000D01*
X74361000Y-11750000D02*
X73279000Y-11750000D01*
D56*
X85497000Y16750000D02*
X85497000Y15546000D01*
D53*
X86696000Y30798000D02*
X87458000Y31560000D01*
X70739000Y-11750000D02*
X74361000Y-11750000D01*
D54*
X85851500Y-3978750D02*
X85770000Y-4060250D01*
D53*
X82383000Y11403000D02*
X85230000Y11403000D01*
X93460000Y-22594000D02*
X94645000Y-23779000D01*
X76060000Y6464000D02*
X76708000Y7112000D01*
X74930000Y6464000D02*
X76060000Y6464000D01*
D54*
X13716000Y19304000D02*
X12446000Y20574000D01*
D53*
X81866375Y2008000D02*
X81866375Y2757250D01*
X92338000Y-22594000D02*
X93460000Y-22594000D01*
D57*
X52612000Y40860000D02*
X56540000Y40860000D01*
D53*
X81783625Y2840000D02*
X80447625Y2840000D01*
X86532000Y238250D02*
X86532000Y-766256D01*
D56*
X68834000Y-17399000D02*
X69723000Y-17399000D01*
X74502000Y14652000D02*
X75184000Y13970000D01*
D53*
X86467782Y-828968D02*
X86467782Y-830474D01*
X89915500Y2117250D02*
X90408000Y1624750D01*
D56*
X69723000Y-17399000D02*
X70104000Y-17399000D01*
D53*
X73168000Y-48036000D02*
X75168000Y-48036000D01*
X88645500Y-926750D02*
X86694000Y-926750D01*
D56*
X72731000Y14652000D02*
X74502000Y14652000D01*
D53*
X6159000Y-18923000D02*
X11049000Y-18923000D01*
X72136000Y-25273000D02*
X72677000Y-24732000D01*
D54*
X12192000Y-20066000D02*
X12954000Y-19304000D01*
D53*
X75973500Y-142000D02*
X73436000Y-142000D01*
X89407500Y2117250D02*
X89915500Y2117250D01*
X87458000Y31560000D02*
X87458000Y32322000D01*
X91446000Y-4744750D02*
X91446000Y-3470750D01*
D57*
X49818000Y40860000D02*
X52544000Y40860000D01*
D54*
X89312000Y25908000D02*
X90569000Y25908000D01*
D53*
X82487000Y8382000D02*
X80264000Y8382000D01*
D54*
X12446000Y21590000D02*
X12446000Y23876000D01*
D53*
X86694000Y-926750D02*
X86532000Y-764750D01*
X11049000Y-18923000D02*
X12192000Y-20066000D01*
X86532000Y-766256D02*
X86467782Y-830474D01*
X88011000Y-16000000D02*
X88388000Y-16377000D01*
D57*
X37440000Y40860000D02*
X41622000Y40860000D01*
D53*
X87888000Y-26920000D02*
X86995000Y-27813000D01*
D57*
X47024000Y40860000D02*
X49750000Y40860000D01*
D54*
X13862500Y-24140000D02*
X12710000Y-24140000D01*
X12710000Y-24140000D02*
X12192000Y-23622000D01*
D53*
X96266000Y-23622000D02*
X96109000Y-23779000D01*
D54*
X12710000Y24140000D02*
X12446000Y23876000D01*
D53*
X86123000Y-31242000D02*
X86995000Y-30370000D01*
X71300000Y31242000D02*
X68834000Y31242000D01*
D54*
X85770000Y-4060250D02*
X85770000Y-4926250D01*
D56*
X70104000Y-17399000D02*
X70739000Y-16764000D01*
D53*
X75565000Y-12954000D02*
X74361000Y-11750000D01*
X70678000Y8321000D02*
X70612000Y8255000D01*
X73419000Y6477000D02*
X74917000Y6477000D01*
X82487000Y5905000D02*
X82487000Y8382000D01*
X82296000Y-25133000D02*
X81039000Y-25133000D01*
X91446000Y-3470750D02*
X91866000Y-3050750D01*
D54*
X85770000Y-3897250D02*
X85851500Y-3978750D01*
D53*
X72677000Y-24732000D02*
X73787000Y-24732000D01*
X86532000Y-764750D02*
X86467782Y-828968D01*
D54*
X12954000Y-19304000D02*
X14211000Y-19304000D01*
X85770000Y-3317750D02*
X85770000Y-3897250D01*
D56*
X85497000Y15546000D02*
X85497000Y14210000D01*
D53*
X83325000Y-31242000D02*
X86123000Y-31242000D01*
D56*
X79662000Y7780000D02*
X79756000Y7874000D01*
D57*
X44230000Y40860000D02*
X46956000Y40860000D01*
X41690000Y40860000D02*
X44162000Y40860000D01*
D54*
X13862500Y24140000D02*
X12710000Y24140000D01*
D53*
X81039000Y-25133000D02*
X81026000Y-25146000D01*
X88388000Y-16377000D02*
X88388000Y-17644000D01*
X78844625Y2840000D02*
X80447625Y2840000D01*
X70678000Y10033000D02*
X70678000Y8321000D01*
X76668000Y-45336000D02*
X75468000Y-45336000D01*
D56*
X85497000Y13006000D02*
X85497000Y14210000D01*
D53*
X87888000Y-26044000D02*
X87888000Y-26920000D01*
X87458000Y32322000D02*
X88474000Y32322000D01*
X81866375Y2757250D02*
X81783625Y2840000D01*
X90408000Y1624750D02*
X90408000Y835750D01*
X70248500Y508000D02*
X72136000Y508000D01*
D56*
X85497000Y11670000D02*
X85497000Y13006000D01*
D53*
X96109000Y-23779000D02*
X95149000Y-23779000D01*
X83938000Y-24094000D02*
X82463000Y-24094000D01*
X86995000Y-30370000D02*
X88265000Y-30370000D01*
D56*
X70739000Y-16764000D02*
X71379500Y-16764000D01*
D54*
X12192000Y-23622000D02*
X12192000Y-20066000D01*
D53*
X87294000Y-3317750D02*
X85770000Y-3317750D01*
D54*
X12446000Y20574000D02*
X12446000Y21590000D01*
D53*
X76708000Y7112000D02*
X76708000Y7874000D01*
X88645500Y-426750D02*
X88645500Y-926750D01*
X84011000Y4381000D02*
X82487000Y5905000D01*
X82463000Y-24094000D02*
X82296000Y-24261000D01*
X70248500Y-1442000D02*
X72136000Y-1442000D01*
X86995000Y-30370000D02*
X86995000Y-28067000D01*
X89312000Y24384000D02*
X89312000Y25908000D01*
%TO.N,/ANALOG_CTRL*%
X93980000Y21082000D02*
X92710000Y22352000D01*
X89888000Y-17644000D02*
X89888000Y-15612000D01*
X85809000Y23876000D02*
X85809000Y28072500D01*
X92710000Y22352000D02*
X87333000Y22352000D01*
X93980000Y-11520000D02*
X93980000Y21082000D01*
X87333000Y22352000D02*
X85809000Y23876000D01*
X89888000Y-15612000D02*
X93980000Y-11520000D01*
D54*
%TO.N,VCC*%
X76454000Y-30734000D02*
X72868000Y-34320000D01*
D55*
X66929000Y-15748000D02*
X70612000Y-15748000D01*
D57*
X69951000Y20306000D02*
X70090000Y20306000D01*
D56*
X87709000Y28072500D02*
X88923500Y28072500D01*
D53*
X71379500Y-17714000D02*
X70551500Y-18542000D01*
X6121500Y-16637000D02*
X7366000Y-16637000D01*
D57*
X69937000Y20320000D02*
X69951000Y20306000D01*
X70090000Y20306000D02*
X70104000Y20320000D01*
D54*
X75311000Y-21717000D02*
X76454000Y-22860000D01*
D57*
X71628000Y12065000D02*
X72644000Y12065000D01*
D56*
X70993000Y-15814000D02*
X70993000Y-14224000D01*
D53*
X10160000Y-13843000D02*
X10160000Y-10668000D01*
X72578000Y11999000D02*
X72644000Y12065000D01*
D56*
X89752504Y28901504D02*
X90424000Y28901504D01*
D57*
X69937000Y20320000D02*
X69937000Y13756000D01*
D53*
X72578000Y10033000D02*
X72578000Y11999000D01*
D54*
X72868000Y-34320000D02*
X72868000Y-45336000D01*
D56*
X90953000Y27810000D02*
X90424000Y28339000D01*
D53*
X75184000Y12700000D02*
X75184000Y11430000D01*
D54*
X76454000Y-22860000D02*
X76454000Y-30734000D01*
D57*
X69937000Y13756000D02*
X71628000Y12065000D01*
X69937000Y20320000D02*
X58420000Y20320000D01*
X72644000Y12065000D02*
X74676000Y12065000D01*
D55*
X60886500Y-15748000D02*
X66929000Y-15748000D01*
D54*
X66929000Y-15748000D02*
X66929000Y-19177000D01*
X66929000Y-19177000D02*
X69469000Y-21717000D01*
D56*
X90424000Y28339000D02*
X90424000Y28901504D01*
D53*
X7366000Y-16637000D02*
X10160000Y-13843000D01*
D56*
X88923500Y28072500D02*
X89752504Y28901504D01*
D54*
X69469000Y-21717000D02*
X75311000Y-21717000D01*
D57*
X74542000Y20574000D02*
X74288000Y20320000D01*
D56*
X70993000Y-14224000D02*
X70928000Y-14159000D01*
D53*
X70551500Y-18542000D02*
X66929000Y-18542000D01*
D57*
X74288000Y20320000D02*
X70104000Y20320000D01*
D54*
X87709000Y28072500D02*
X87709000Y25961000D01*
D55*
X60833000Y-15694500D02*
X60886500Y-15748000D01*
D53*
%TO.N,/A1*%
X96075000Y-19495000D02*
X101409000Y-19495000D01*
X101409000Y-19495000D02*
X101854000Y-19050000D01*
X92338000Y-21594000D02*
X93976000Y-21594000D01*
X93976000Y-21594000D02*
X96075000Y-19495000D01*
X101854000Y-19050000D02*
X102580000Y-19050000D01*
%TO.N,/A2*%
X101409000Y-9335000D02*
X101854000Y-8890000D01*
X96266000Y-18734468D02*
X96266000Y-10160000D01*
X92338000Y-21094000D02*
X93906468Y-21094000D01*
X93906468Y-21094000D02*
X96266000Y-18734468D01*
X101854000Y-8890000D02*
X102580000Y-8890000D01*
X96266000Y-10160000D02*
X97091000Y-9335000D01*
X97091000Y-9335000D02*
X101409000Y-9335000D01*
D58*
%TO.N,/Reflectance sensor array/VCC_LED*%
X87140000Y23749000D02*
X87140000Y23762000D01*
X87521000Y23368000D02*
X87140000Y23749000D01*
X87140000Y23749000D02*
X86759000Y24130000D01*
X86759000Y24130000D02*
X86759000Y28072500D01*
D53*
X87140000Y23762000D02*
X87762000Y24384000D01*
D58*
X96520000Y23368000D02*
X87521000Y23368000D01*
D53*
%TO.N,Net-(U15-VDDCORE)*%
X88138000Y-27432000D02*
X88138000Y-28693000D01*
X88388000Y-27182000D02*
X88138000Y-27432000D01*
X88388000Y-26044000D02*
X88388000Y-27182000D01*
%TO.N,/A3*%
X95758000Y254000D02*
X95758000Y-18672936D01*
X101917000Y825000D02*
X96329000Y825000D01*
X95758000Y-18672936D02*
X93836936Y-20594000D01*
X102362000Y1270000D02*
X101917000Y825000D01*
X93836936Y-20594000D02*
X92338000Y-20594000D01*
X96329000Y825000D02*
X95758000Y254000D01*
%TO.N,/A5*%
X94786400Y19348400D02*
X96583000Y21145000D01*
X93182000Y-19594000D02*
X94786400Y-17989600D01*
X92338000Y-19594000D02*
X93182000Y-19594000D01*
X94786400Y-17989600D02*
X94786400Y19348400D01*
X100775000Y21590000D02*
X102580000Y21590000D01*
X96583000Y21145000D02*
X100330000Y21145000D01*
X100330000Y21145000D02*
X100775000Y21590000D01*
%TO.N,Net-(U14-SS)*%
X81547000Y12967000D02*
X82550000Y12967000D01*
X81153000Y12573000D02*
X81547000Y12967000D01*
X79950000Y12573000D02*
X81153000Y12573000D01*
%TO.N,/A6*%
X94383200Y19961200D02*
X94383200Y-17052800D01*
X97790000Y29147000D02*
X97790000Y23368000D01*
X99060000Y30417000D02*
X97790000Y29147000D01*
X97790000Y32575000D02*
X98997000Y32575000D01*
X98997000Y32575000D02*
X99060000Y32512000D01*
X99060000Y32512000D02*
X99060000Y30417000D01*
X97790000Y23368000D02*
X94383200Y19961200D01*
X102580000Y46990000D02*
X99060000Y43470000D01*
X99060000Y43470000D02*
X99060000Y32512000D01*
X94383200Y-17052800D02*
X92465000Y-18971000D01*
D54*
%TO.N,Net-(U14-COMP)*%
X74930000Y8014000D02*
X73482000Y8014000D01*
D53*
X74990000Y10033000D02*
X74990000Y8074000D01*
%TO.N,Net-(D1-K)*%
X4546500Y-16637000D02*
X4546500Y-18885500D01*
%TO.N,Net-(D2-K)*%
X84074000Y787500D02*
X84074000Y2731000D01*
D57*
%TO.N,Net-(D3-A)*%
X79469000Y20560000D02*
X80859000Y20560000D01*
D56*
X80365000Y13970000D02*
X80859000Y14464000D01*
D57*
X80859000Y20560000D02*
X80859000Y14464000D01*
X80859000Y20560000D02*
X82383000Y20560000D01*
D54*
%TO.N,Net-(U10-SW)*%
X87709000Y30347500D02*
X89420500Y30347500D01*
X89420500Y30347500D02*
X89683000Y30610000D01*
X89683000Y30610000D02*
X92093000Y30610000D01*
D53*
%TO.N,Net-(U11-nSLEEP)*%
X70248500Y1808000D02*
X70248500Y2557500D01*
X70248500Y2557500D02*
X71120000Y3429000D01*
X71120000Y3429000D02*
X71946000Y3429000D01*
%TO.N,/Reflectance sensor array/FB*%
X85808000Y32322000D02*
X85808000Y30219500D01*
X85807991Y41910000D02*
X89617991Y45720000D01*
X89617991Y45720000D02*
X97500000Y45720000D01*
X85807991Y41910000D02*
X85807991Y32322008D01*
%TO.N,Net-(U14-FB)*%
X84137000Y9335000D02*
X84137000Y8382000D01*
X81153000Y11303000D02*
X82804000Y9652000D01*
X84137000Y8382000D02*
X85535000Y8382000D01*
X82804000Y9652000D02*
X83820000Y9652000D01*
X79950000Y11303000D02*
X81153000Y11303000D01*
X83820000Y9652000D02*
X84137000Y9335000D01*
%TO.N,/EXT_CLK*%
X89408000Y-1689250D02*
X89408000Y-4406750D01*
%TO.N,/HEARTBEAT*%
X91000000Y-15500000D02*
X90388000Y-16112000D01*
X90388000Y-16112000D02*
X90388000Y-17644000D01*
X84074000Y-787500D02*
X84074000Y-1778000D01*
D54*
%TO.N,Net-(C25-Pad1)*%
X71819000Y8001000D02*
X71819000Y6527000D01*
D53*
%TO.N,Net-(U7-K)*%
X102108000Y26162000D02*
X106680000Y21590000D01*
X105136000Y44430000D02*
X102108000Y41402000D01*
X106698000Y44430000D02*
X105136000Y44430000D01*
X102108000Y41402000D02*
X102108000Y26162000D01*
%TO.N,/SCK*%
X15748000Y3302000D02*
X10414000Y3302000D01*
X10414000Y3302000D02*
X10160000Y3556000D01*
X22352000Y0D02*
X19050000Y0D01*
X10160000Y3556000D02*
X10160000Y5080000D01*
X19050000Y0D02*
X15748000Y3302000D01*
X23622000Y1270000D02*
X22352000Y0D01*
%TO.N,/MOSI*%
X10033000Y10287000D02*
X7620000Y12700000D01*
X17018000Y5969000D02*
X12700000Y10287000D01*
X12700000Y10287000D02*
X10033000Y10287000D01*
X17018000Y5334000D02*
X17018000Y5969000D01*
X21082000Y1270000D02*
X17018000Y5334000D01*
%TO.N,/TOP_A4*%
X17272000Y-762000D02*
X10922000Y-762000D01*
X22352000Y-2540000D02*
X19050000Y-2540000D01*
X23622000Y-1270000D02*
X22352000Y-2540000D01*
X19050000Y-2540000D02*
X17272000Y-762000D01*
X10922000Y-762000D02*
X10160000Y-1524000D01*
X10160000Y-1524000D02*
X10160000Y-2540000D01*
%TO.N,/TOP_A5*%
X7620000Y3048000D02*
X7620000Y5080000D01*
X21082000Y-1270000D02*
X19304000Y-1270000D01*
X15748000Y2286000D02*
X8382000Y2286000D01*
X8382000Y2286000D02*
X7620000Y3048000D01*
X19304000Y-1270000D02*
X15748000Y2286000D01*
%TO.N,/TOP_A3*%
X8890000Y-3810000D02*
X7620000Y-2540000D01*
X21082000Y-3810000D02*
X8890000Y-3810000D01*
%TO.N,/A4*%
X95250000Y-18096210D02*
X95250000Y9906000D01*
X95250000Y9906000D02*
X96329000Y10985000D01*
X93252210Y-20094000D02*
X95250000Y-18096210D01*
X101663000Y10985000D02*
X97790000Y10985000D01*
X96329000Y10985000D02*
X97790000Y10985000D01*
X102108000Y11430000D02*
X101663000Y10985000D01*
X92338000Y-20094000D02*
X93252210Y-20094000D01*
%TO.N,/MISO*%
X11938000Y10922000D02*
X10160000Y12700000D01*
X21082000Y3810000D02*
X20066000Y3810000D01*
X20066000Y3810000D02*
X12954000Y10922000D01*
X12954000Y10922000D02*
X11938000Y10922000D01*
D57*
%TO.N,Net-(J14-Pin_1)*%
X53882000Y-40860000D02*
X56540000Y-40860000D01*
X51054000Y-43688000D02*
X53882000Y-40860000D01*
D56*
X48260000Y-42926000D02*
X48260000Y-43688000D01*
X47815000Y-42481000D02*
X48260000Y-42926000D01*
X47815000Y-41148000D02*
X47815000Y-42481000D01*
D57*
X48260000Y-43688000D02*
X51054000Y-43688000D01*
%TD*%
%TA.AperFunction,Conductor*%
%TO.N,GNDREF*%
G36*
X80968121Y10393998D02*
G01*
X81014614Y10340342D01*
X81026000Y10288000D01*
X81026000Y7746000D01*
X81005998Y7677879D01*
X80952342Y7631386D01*
X80900000Y7620000D01*
X76326000Y7620000D01*
X76257879Y7640002D01*
X76211386Y7693658D01*
X76200000Y7746000D01*
X76200000Y9548500D01*
X76220002Y9616621D01*
X76273658Y9663114D01*
X76326000Y9674500D01*
X78828632Y9674500D01*
X78828638Y9674500D01*
X78828645Y9674501D01*
X78828649Y9674501D01*
X78889196Y9681010D01*
X78889199Y9681011D01*
X78889201Y9681011D01*
X79026204Y9732111D01*
X79143261Y9819739D01*
X79230889Y9936796D01*
X79281989Y10073799D01*
X79288500Y10134362D01*
X79288500Y10268501D01*
X79308502Y10336622D01*
X79362158Y10383115D01*
X79414495Y10394501D01*
X80557264Y10394501D01*
X80628649Y10400987D01*
X80652102Y10408295D01*
X80689587Y10414000D01*
X80900000Y10414000D01*
X80968121Y10393998D01*
G37*
%TD.AperFunction*%
%TD*%
%TA.AperFunction,Conductor*%
%TO.N,/VBAT*%
G36*
X40329039Y-33801685D02*
G01*
X40374794Y-33854489D01*
X40386000Y-33906000D01*
X40386000Y-37722000D01*
X40366315Y-37789039D01*
X40313511Y-37834794D01*
X40262000Y-37846000D01*
X34668000Y-37846000D01*
X34600961Y-37826315D01*
X34555206Y-37773511D01*
X34544000Y-37722000D01*
X34544000Y-33906000D01*
X34563685Y-33838961D01*
X34616489Y-33793206D01*
X34668000Y-33782000D01*
X40262000Y-33782000D01*
X40329039Y-33801685D01*
G37*
%TD.AperFunction*%
%TD*%
%TA.AperFunction,Conductor*%
%TO.N,VCC*%
G36*
X75594539Y12680315D02*
G01*
X75640294Y12627511D01*
X75651500Y12576000D01*
X75651500Y11300000D01*
X75631815Y11232961D01*
X75579011Y11187206D01*
X75527500Y11176000D01*
X74546000Y11176000D01*
X74478961Y11195685D01*
X74433206Y11248489D01*
X74422000Y11300000D01*
X74422000Y12576000D01*
X74441685Y12643039D01*
X74494489Y12688794D01*
X74546000Y12700000D01*
X75527500Y12700000D01*
X75594539Y12680315D01*
G37*
%TD.AperFunction*%
%TD*%
%TA.AperFunction,Conductor*%
%TO.N,GNDREF*%
G36*
X78936121Y16997998D02*
G01*
X78982614Y16944342D01*
X78994000Y16892000D01*
X78994000Y14691162D01*
X78973998Y14623041D01*
X78957095Y14602067D01*
X78838188Y14483161D01*
X78838184Y14483156D01*
X78749172Y14335911D01*
X78749171Y14335910D01*
X78734871Y14290016D01*
X78695509Y14230930D01*
X78630452Y14202504D01*
X78614576Y14201500D01*
X76111350Y14201500D01*
X76050803Y14194991D01*
X76050795Y14194989D01*
X75913797Y14143890D01*
X75913792Y14143888D01*
X75796738Y14056262D01*
X75709112Y13939208D01*
X75709110Y13939203D01*
X75658011Y13802205D01*
X75658009Y13802197D01*
X75651500Y13741650D01*
X75651500Y13607500D01*
X75631498Y13539379D01*
X75577842Y13492886D01*
X75525500Y13481500D01*
X74760316Y13481500D01*
X74692195Y13501502D01*
X74645702Y13555158D01*
X74640782Y13567655D01*
X74422000Y14224000D01*
X72262000Y14224000D01*
X72193879Y14244002D01*
X72147386Y14297658D01*
X72136000Y14350000D01*
X72136000Y16892000D01*
X72156002Y16960121D01*
X72209658Y17006614D01*
X72262000Y17018000D01*
X78868000Y17018000D01*
X78936121Y16997998D01*
G37*
%TD.AperFunction*%
%TD*%
M02*
