STARTFONT 2.1
FONT -FontForge-battery-Book-R-Normal--16-150-75-75-C-210-ISO10646-1
SIZE 15 75 75
FONTBOUNDINGBOX 21 11 0 0
COMMENT "Generated by fontforge, http://fontforge.sourceforge.net"
COMMENT "Copyright (C) 2023 by original authors @ fontello.com"
STARTPROPERTIES 36
FOUNDRY "FontForge"
FAMILY_NAME "battery"
WEIGHT_NAME "Book"
SLANT "R"
SETWIDTH_NAME "Normal"
ADD_STYLE_NAME ""
PIXEL_SIZE 16
POINT_SIZE 150
RESOLUTION_X 75
RESOLUTION_Y 75
SPACING "C"
AVERAGE_WIDTH 210
CHARSET_REGISTRY "ISO10646"
CHARSET_ENCODING "1"
FONTNAME_REGISTRY ""
CHARSET_COLLECTIONS "ISO10646-1"
FONT_NAME "battery"
FACE_NAME "battery"
COPYRIGHT "Copyright (C) 2023 by original authors @ fontello.com"
FONT_VERSION "1.0"
FONT_ASCENT 14
FONT_DESCENT 2
UNDERLINE_POSITION 0
UNDERLINE_THICKNESS 0
RAW_ASCENT 850
RAW_DESCENT 150
RELATIVE_WEIGHT 40
RELATIVE_SETWIDTH 50
SUPERSCRIPT_X 0
SUPERSCRIPT_Y 7
SUPERSCRIPT_SIZE 11
SUBSCRIPT_X 0
SUBSCRIPT_Y 2
SUBSCRIPT_SIZE 11
FIGURE_WIDTH -1
AVG_UPPERCASE_WIDTH 210
ENDPROPERTIES
CHARS 6
STARTCHAR battery-4
ENCODING 77
SWIDTH 1285 0
DWIDTH 21 0
BBX 21 11 0 0
BITMAP
FFFFE0
800020
BFFFB0
BFFF98
BFFF98
BFFF98
BFFF98
BFFFB0
BFFFA0
800020
FFFFE0
ENDCHAR
STARTCHAR battery-3
ENCODING 78
SWIDTH 1285 0
DWIDTH 21 0
BBX 21 11 0 0
BITMAP
FFFFE0
800020
BFFC30
BFFC18
BFFC18
BFFC18
BFFC18
BFFC30
BFFC20
800020
FFFFE0
ENDCHAR
STARTCHAR battery-2
ENCODING 79
SWIDTH 1285 0
DWIDTH 21 0
BBX 21 11 0 0
BITMAP
FFFFE0
800020
BFC030
BFC018
BFC018
BFC018
BFC018
BFC030
BFC020
800020
FFFFE0
ENDCHAR
STARTCHAR battery-1
ENCODING 80
SWIDTH 1285 0
DWIDTH 21 0
BBX 21 11 0 0
BITMAP
FFFFE0
800020
BE0030
BE0018
BE0018
BE0018
BE0018
BE0030
BE0020
800020
FFFFE0
ENDCHAR
STARTCHAR battery-0
ENCODING 81
SWIDTH 1285 0
DWIDTH 21 0
BBX 21 11 0 0
BITMAP
FFFFE0
800020
800030
800018
800018
800018
800018
800030
800020
800020
FFFFE0
ENDCHAR
STARTCHAR .notdef
ENCODING -1
SWIDTH 1000 0
DWIDTH 21 0
BBX 5 11 1 0
BITMAP
F8
88
88
88
88
88
88
88
88
88
F8
ENDCHAR
ENDFONT
