0
SECTION
2
ENTITIES
0
POLYLINE
8
OUTLINE
70
1
66
1
0
VERTEX
8
OUTLINE
10
11.506
20
50.191
0
VERTEX
8
OUTLINE
10
5.306
20
50.191
0
VERTEX
8
OUTLINE
10
5.306
20
12.691
0
VERTEX
8
OUTLINE
10
4.106
20
12.691
0
VERTEX
8
OUTLINE
10
4.106
20
11.591
0
VERTEX
8
OUTLINE
10
2.806
20
11.591
0
VERTEX
8
OUTLINE
10
2.806
20
7.991
0
VERTEX
8
OUTLINE
10
4.106
20
7.991
0
VERTEX
8
OUTLINE
10
4.106
20
6.891
0
VERTEX
8
OUTLINE
10
5.306
20
6.891
0
VERTEX
8
OUTLINE
10
5.306
20
-9.309
42
-0.183
0
VERTEX
8
OUTLINE
10
3.983
20
-9.809
0
VERTEX
8
OUTLINE
10
-58.371
20
-9.809
42
-0.183
0
VERTEX
8
OUTLINE
10
-59.694
20
-9.309
0
VERTEX
8
OUTLINE
10
-59.694
20
6.891
0
VERTEX
8
OUTLINE
10
-58.494
20
6.891
0
VERTEX
8
OUTLINE
10
-58.494
20
7.991
0
VERTEX
8
OUTLINE
10
-57.194
20
7.991
0
VERTEX
8
OUTLINE
10
-57.194
20
11.591
0
VERTEX
8
OUTLINE
10
-58.494
20
11.591
0
VERTEX
8
OUTLINE
10
-58.494
20
12.691
0
VERTEX
8
OUTLINE
10
-59.694
20
12.691
0
VERTEX
8
OUTLINE
10
-59.694
20
50.191
0
VERTEX
8
OUTLINE
10
-65.894
20
50.191
0
VERTEX
8
OUTLINE
10
-65.894
20
65.391
0
VERTEX
8
OUTLINE
10
-57.944
20
65.391
42
0.414
0
VERTEX
8
OUTLINE
10
-56.444
20
66.891
42
-0.414
0
VERTEX
8
OUTLINE
10
-52.194
20
71.141
42
-0.414
0
VERTEX
8
OUTLINE
10
-47.944
20
66.891
42
0.414
0
VERTEX
8
OUTLINE
10
-46.444
20
65.391
0
VERTEX
8
OUTLINE
10
-43.394
20
65.391
0
VERTEX
8
OUTLINE
10
-43.394
20
54.191
42
1.0
0
VERTEX
8
OUTLINE
10
-38.394
20
54.191
0
VERTEX
8
OUTLINE
10
-38.394
20
65.391
0
VERTEX
8
OUTLINE
10
-33.194
20
65.391
0
VERTEX
8
OUTLINE
10
-33.194
20
60.891
42
0.412
0
VERTEX
8
OUTLINE
10
-30.694
20
58.391
0
VERTEX
8
OUTLINE
10
-23.694
20
58.391
42
0.412
0
VERTEX
8
OUTLINE
10
-21.194
20
60.891
0
VERTEX
8
OUTLINE
10
-21.194
20
65.391
0
VERTEX
8
OUTLINE
10
-15.994
20
65.391
0
VERTEX
8
OUTLINE
10
-15.994
20
54.191
42
1.0
0
VERTEX
8
OUTLINE
10
-10.994
20
54.191
0
VERTEX
8
OUTLINE
10
-10.994
20
65.391
0
VERTEX
8
OUTLINE
10
-7.944
20
65.391
42
0.414
0
VERTEX
8
OUTLINE
10
-6.444
20
66.891
42
-0.414
0
VERTEX
8
OUTLINE
10
-2.194
20
71.141
42
-0.414
0
VERTEX
8
OUTLINE
10
2.056
20
66.891
42
0.414
0
VERTEX
8
OUTLINE
10
3.556
20
65.391
0
VERTEX
8
OUTLINE
10
11.506
20
65.391
0
SEQEND
8
HOLES
0
POLYLINE
8
HOLES
70
1
66
1
0
VERTEX
8
HOLES
10
-43.294
20
-6.809
0
VERTEX
8
HOLES
10
-43.294
20
-4.309
0
VERTEX
8
HOLES
10
-46.267
20
-4.309
42
0.729
0
VERTEX
8
HOLES
10
-53.122
20
-4.309
0
VERTEX
8
HOLES
10
-56.094
20
-4.309
0
VERTEX
8
HOLES
10
-56.094
20
-6.809
0
SEQEND
8
HOLES
0
POLYLINE
8
HOLES
70
1
66
1
0
VERTEX
8
HOLES
10
-8.294
20
-4.309
0
VERTEX
8
HOLES
10
-11.094
20
-4.309
0
VERTEX
8
HOLES
10
-11.094
20
-6.809
0
VERTEX
8
HOLES
10
1.706
20
-6.809
0
VERTEX
8
HOLES
10
1.706
20
-4.309
0
VERTEX
8
HOLES
10
-1.094
20
-4.309
0
VERTEX
8
HOLES
10
-1.094
20
-2.109
42
0.414
0
VERTEX
8
HOLES
10
-4.694
20
1.491
42
0.414
0
VERTEX
8
HOLES
10
-8.294
20
-2.109
0
SEQEND
8
HOLES
0
POLYLINE
8
HOLES
70
1
66
1
0
VERTEX
8
HOLES
10
0.306
20
26.691
42
1.0
0
VERTEX
8
HOLES
10
0.306
20
29.091
42
1.0
0
VERTEX
8
HOLES
10
0.306
20
26.691
0
SEQEND
8
HOLES
0
POLYLINE
8
HOLES
70
1
66
1
0
VERTEX
8
HOLES
10
0.306
20
2.691
42
1.0
0
VERTEX
8
HOLES
10
0.306
20
5.091
42
1.0
0
VERTEX
8
HOLES
10
0.306
20
2.691
0
SEQEND
8
HOLES
0
POLYLINE
8
HOLES
70
1
66
1
0
VERTEX
8
HOLES
10
-54.694
20
38.691
42
1.0
0
VERTEX
8
HOLES
10
-54.694
20
41.091
42
1.0
0
VERTEX
8
HOLES
10
-54.694
20
38.691
0
SEQEND
8
HOLES
0
POLYLINE
8
HOLES
70
1
66
1
0
VERTEX
8
HOLES
10
-54.694
20
26.691
42
1.0
0
VERTEX
8
HOLES
10
-54.694
20
29.091
42
1.0
0
VERTEX
8
HOLES
10
-54.694
20
26.691
0
SEQEND
8
HOLES
0
POLYLINE
8
HOLES
70
1
66
1
0
VERTEX
8
HOLES
10
-54.694
20
14.691
42
1.0
0
VERTEX
8
HOLES
10
-54.694
20
17.091
42
1.0
0
VERTEX
8
HOLES
10
-54.694
20
14.691
0
SEQEND
8
HOLES
0
POLYLINE
8
HOLES
70
1
66
1
0
VERTEX
8
HOLES
10
-54.694
20
2.691
42
1.0
0
VERTEX
8
HOLES
10
-54.694
20
5.091
42
1.0
0
VERTEX
8
HOLES
10
-54.694
20
2.691
0
SEQEND
8
HOLES
0
POLYLINE
8
HOLES
70
1
66
1
0
VERTEX
8
HOLES
10
-12.194
20
2.691
42
1.0
0
VERTEX
8
HOLES
10
-12.194
20
5.091
42
1.0
0
VERTEX
8
HOLES
10
-12.194
20
2.691
0
SEQEND
8
HOLES
0
POLYLINE
8
HOLES
70
1
66
1
0
VERTEX
8
HOLES
10
-27.194
20
2.691
42
1.0
0
VERTEX
8
HOLES
10
-27.194
20
5.091
42
1.0
0
VERTEX
8
HOLES
10
-27.194
20
2.691
0
SEQEND
8
HOLES
0
POLYLINE
8
HOLES
70
1
66
1
0
VERTEX
8
HOLES
10
-42.194
20
2.691
42
1.0
0
VERTEX
8
HOLES
10
-42.194
20
5.091
42
1.0
0
VERTEX
8
HOLES
10
-42.194
20
2.691
0
SEQEND
8
HOLES
0
POLYLINE
8
HOLES
70
1
66
1
0
VERTEX
8
HOLES
10
-12.194
20
14.691
42
1.0
0
VERTEX
8
HOLES
10
-12.194
20
17.091
42
1.0
0
VERTEX
8
HOLES
10
-12.194
20
14.691
0
SEQEND
8
HOLES
0
POLYLINE
8
HOLES
70
1
66
1
0
VERTEX
8
HOLES
10
-27.194
20
14.691
42
1.0
0
VERTEX
8
HOLES
10
-27.194
20
17.091
42
1.0
0
VERTEX
8
HOLES
10
-27.194
20
14.691
0
SEQEND
8
HOLES
0
POLYLINE
8
HOLES
70
1
66
1
0
VERTEX
8
HOLES
10
-42.194
20
14.691
42
1.0
0
VERTEX
8
HOLES
10
-42.194
20
17.091
42
1.0
0
VERTEX
8
HOLES
10
-42.194
20
14.691
0
SEQEND
8
HOLES
0
POLYLINE
8
HOLES
70
1
66
1
0
VERTEX
8
HOLES
10
-12.194
20
26.691
42
1.0
0
VERTEX
8
HOLES
10
-12.194
20
29.091
42
1.0
0
VERTEX
8
HOLES
10
-12.194
20
26.691
0
SEQEND
8
HOLES
0
POLYLINE
8
HOLES
70
1
66
1
0
VERTEX
8
HOLES
10
-27.194
20
26.691
42
1.0
0
VERTEX
8
HOLES
10
-27.194
20
29.091
42
1.0
0
VERTEX
8
HOLES
10
-27.194
20
26.691
0
SEQEND
8
HOLES
0
POLYLINE
8
HOLES
70
1
66
1
0
VERTEX
8
HOLES
10
-42.194
20
26.691
42
1.0
0
VERTEX
8
HOLES
10
-42.194
20
29.091
42
1.0
0
VERTEX
8
HOLES
10
-42.194
20
26.691
0
SEQEND
8
HOLES
0
POLYLINE
8
HOLES
70
1
66
1
0
VERTEX
8
HOLES
10
-12.194
20
38.691
42
1.0
0
VERTEX
8
HOLES
10
-12.194
20
41.091
42
1.0
0
VERTEX
8
HOLES
10
-12.194
20
38.691
0
SEQEND
8
HOLES
0
POLYLINE
8
HOLES
70
1
66
1
0
VERTEX
8
HOLES
10
-27.194
20
38.691
42
1.0
0
VERTEX
8
HOLES
10
-27.194
20
41.091
42
1.0
0
VERTEX
8
HOLES
10
-27.194
20
38.691
0
SEQEND
8
HOLES
0
POLYLINE
8
HOLES
70
1
66
1
0
VERTEX
8
HOLES
10
-42.194
20
38.691
42
1.0
0
VERTEX
8
HOLES
10
-42.194
20
41.091
42
1.0
0
VERTEX
8
HOLES
10
-42.194
20
38.691
0
SEQEND
8
HOLES
0
POLYLINE
8
HOLES
70
1
66
1
0
VERTEX
8
HOLES
10
0.306
20
14.691
42
1.0
0
VERTEX
8
HOLES
10
0.306
20
17.091
42
1.0
0
VERTEX
8
HOLES
10
0.306
20
14.691
0
SEQEND
8
HOLES
0
POLYLINE
8
HOLES
70
1
66
1
0
VERTEX
8
HOLES
10
0.306
20
38.691
42
1.0
0
VERTEX
8
HOLES
10
0.306
20
41.091
42
1.0
0
VERTEX
8
HOLES
10
0.306
20
38.691
0
SEQEND
8
HOLES
0
POLYLINE
8
HOLES
70
1
66
1
0
VERTEX
8
HOLES
10
-4.694
20
46.691
42
1.0
0
VERTEX
8
HOLES
10
-4.694
20
49.091
42
1.0
0
VERTEX
8
HOLES
10
-4.694
20
46.691
0
SEQEND
8
HOLES
0
POLYLINE
8
HOLES
70
1
66
1
0
VERTEX
8
HOLES
10
-19.694
20
46.691
42
1.0
0
VERTEX
8
HOLES
10
-19.694
20
49.091
42
1.0
0
VERTEX
8
HOLES
10
-19.694
20
46.691
0
SEQEND
8
HOLES
0
POLYLINE
8
HOLES
70
1
66
1
0
VERTEX
8
HOLES
10
-49.694
20
46.691
42
1.0
0
VERTEX
8
HOLES
10
-49.694
20
49.091
42
1.0
0
VERTEX
8
HOLES
10
-49.694
20
46.691
0
SEQEND
8
HOLES
0
POLYLINE
8
HOLES
70
1
66
1
0
VERTEX
8
HOLES
10
-19.694
20
-6.309
42
1.0
0
VERTEX
8
HOLES
10
-19.694
20
-3.909
42
1.0
0
VERTEX
8
HOLES
10
-19.694
20
-6.309
0
SEQEND
8
HOLES
0
POLYLINE
8
HOLES
70
1
66
1
0
VERTEX
8
HOLES
10
-34.694
20
46.691
42
1.0
0
VERTEX
8
HOLES
10
-34.694
20
49.091
42
1.0
0
VERTEX
8
HOLES
10
-34.694
20
46.691
0
SEQEND
8
HOLES
0
POLYLINE
8
HOLES
70
1
66
1
0
VERTEX
8
HOLES
10
-34.694
20
-6.309
42
1.0
0
VERTEX
8
HOLES
10
-34.694
20
-3.909
42
1.0
0
VERTEX
8
HOLES
10
-34.694
20
-6.309
0
SEQEND
8
HOLES
0
POLYLINE
8
HOLES
70
1
66
1
0
VERTEX
8
HOLES
10
-53.344
20
66.891
42
1.0
0
VERTEX
8
HOLES
10
-51.044
20
66.891
42
1.0
0
SEQEND
8
HOLES
0
POLYLINE
8
HOLES
70
1
66
1
0
VERTEX
8
HOLES
10
-3.344
20
66.891
42
1.0
0
VERTEX
8
HOLES
10
-1.044
20
66.891
42
1.0
0
SEQEND
8
ENGRAVE
0
POLYLINE
8
ENGRAVE
70
0
66
1
0
VERTEX
8
ENGRAVE
10
-54.244
20
-1.947
0
VERTEX
8
ENGRAVE
10
-56.532
20
-1.947
0
SEQEND
8
ENGRAVE
0
POLYLINE
8
ENGRAVE
70
0
66
1
0
VERTEX
8
ENGRAVE
10
-55.388
20
-3.091
0
VERTEX
8
ENGRAVE
10
-55.388
20
-0.803
0
SEQEND
8
ENGRAVE
0
POLYLINE
8
ENGRAVE
70
0
66
1
0
VERTEX
8
ENGRAVE
10
-0.294
20
-2.119
0
VERTEX
8
ENGRAVE
10
2.274
20
-2.119
0
SEQEND
8
ENGRAVE
0
ENDSEC
0
EOF
