<?xml version="1.0" encoding="iso-8859-1"?>
<!-- Generator: Adobe Illustrator 19.0.0, SVG Export Plug-In . SVG Version: 6.00 Build 0)  -->
<svg version="1.1" id="Layer_1" xmlns="http://www.w3.org/2000/svg" xmlns:xlink="http://www.w3.org/1999/xlink" x="0px" y="0px"
	 viewBox="0 0 612 792" style="enable-background:new 0 0 612 792;" xml:space="preserve">
<rect id="XMLID_1_" x="8" y="98.296" style="fill:none;stroke:#000000;stroke-miterlimit:10;" width="596" height="573"/>
<g id="XMLID_16_">
	<path id="XMLID_18_" style="fill-rule:evenodd;clip-rule:evenodd;" d="M274.602,233.397c-5.158-10.008-10.18-19.742-15.264-29.606
		c2.934,0.268,6.104,0.426,9.236,0.863c13.396,1.877,26.324,5.605,39.086,9.986c6.027,2.07,12.088,4.041,18.137,6.049
		c0.25,0.084,0.518,0.115,1.065,0.232c0.613-17.424,3.135-34.768-1.949-52.127c0.861,0.588,1.838,1.063,2.568,1.787
		c6.785,6.744,12.738,14.197,18.574,21.758c5.899,7.643,11.893,15.207,17.854,22.799c0.375,0.477,0.836,0.883,1.314,1.383
		c2.705-5.188,5.277-10.344,8.059-15.391c2.791-5.063,6.084-9.791,10.398-13.963c3.309,7.404,4.803,15.174,5.854,23.018
		c1.049,7.844,1.801,15.729,2.682,23.596c0.145,0.084,0.289,0.166,0.434,0.248c9.111-9.793,18.225-19.588,27.215-29.248
		c-1.049,20.658-4.131,37.771-32.172,58.326c2.67,0.832,5.275,1.463,7.742,2.445c9.672,3.855,19.363,7.678,28.926,11.801
		c6.082,2.621,11.949,2.244,17.935,0.004c1.668-0.623,2.76-1.652,3.709-3.234c3.053-5.084,7.621-7.637,13.643-7.109
		c6.393,0.56,10.416,4.301,12.717,10.031c2.16,5.389,1.357,10.535-1.633,15.439c-0.465,0.76-0.811,1.725-0.828,2.602
		c-0.256,12.258-3.619,23.637-9.721,34.205c-4.932,8.543-11.312,15.973-18.838,22.275c-7.522,6.299-15.514,12.029-23.141,18.209
		c-4.561,3.695-8.904,7.678-13.172,11.715c-2.437,2.307-2.877,5.685-3.621,8.781c-1.627,6.76-1.438,13.668-1.371,20.559
		c0.039,4.102,0.006,8.203,0.006,12.906c2.781-0.898,5.203-1.551,7.531-2.453c5.266-2.041,9.506-5.594,13.68-9.301
		c2.594-2.303,5.361-4.574,8.414-6.158c6.467-3.353,10.723-1.553,15.127,3.881c4.258,5.252,5.455,11.609,5.1,18.195
		c-0.65,12.051-6.262,21.809-14.684,30.078c-9.205,9.039-20.355,14.43-32.935,16.984c-0.154,0.029-0.299,0.102-0.604,0.209
		c0.414,14.904-1.441,29.551-5.936,43.807c-4.5,14.271-11.404,27.258-21.326,38.625c2.41,1.107,4.676,2.107,6.908,3.182
		c4.293,2.066,7.535,5.178,9.553,9.555c2.318,5.029,2.051,11.234-3.863,15.627c-6.301,4.678-13.4,7.324-20.932,8.949
		c-18.289,3.949-36.754,6.621-55.512,5.693c-11.357-0.562-22.727-1.475-33.996-2.943c-11.871-1.545-23.646-3.855-35.435-5.996
		c-6.158-1.115-12.227-2.75-18.397-3.812c-3.082-0.529-6.295-0.328-9.451-0.391c-2.646-0.055-5.295-0.012-8.094-0.012
		c2.781-8.371,0.879-16.488,0.029-24.777c-8.469,3.313-17.15,5.947-23.439,13.234c-1.57-3.031-2.201-6.172-2.475-9.332
		c-0.529-6.141-0.854-12.297-1.201-18.449c-0.064-1.147,0.238-2.311,0.236-3.465c-0.004-3.605-2.563-5.129-5.684-3.359
		c-4.15,2.35-8.168,4.902-11.441,8.473c-0.16-0.064-0.322-0.127-0.482-0.191c1.705-9.434,3.408-18.867,5.197-28.762
		c-7.359,2.945-14.463,5.785-21.775,8.711c0.244-2.291,0.406-4.742,0.781-7.164c1.127-7.279,3.404-14.117,8.068-19.979
		c0.518-0.65,1.086-1.264,1.664-1.861c0.934-0.969,1.342-2.096,0.793-3.346c-0.559-1.275-1.668-1.875-3.057-1.965
		c-7.145-0.463-13.818,0.83-20.004,5.67c4.803-13.164,13.992-22.781,22.303-33.269c-11.012-2.389-21.939-3.926-33.51-4.215
		c2.469-3.039,4.613-5.832,6.916-8.486c10.029-11.563,21.488-21.65,32.852-31.846c3.061-2.748,5.965-5.635,9.629-7.602
		c3.947-2.117,8.178-3.328,12.609-3.924c0.025-0.143,0.053-0.283,0.078-0.424c-3.353-1.059-6.687-2.187-10.066-3.166
		c-8.295-2.404-16.703-1.732-25.135-0.91c-3.752,0.367-7.537,0.397-11.31,0.553c-1.438,0.062-2.18-0.811-1.854-2.096
		c0.357-1.412,0.893-2.894,1.748-4.051c5.965-8.063,13.51-14.473,22.121-19.438c9.457-5.451,19.25-10.318,28.898-15.439
		c1.297-0.689,2.598-1.375,3.832-2.439c-13.658-0.783-27.314-1.565-41.463-2.375c1.615-2.479,2.941-4.84,4.576-6.963
		c4.272-5.547,9.777-9.82,15.209-14.127c11.106-8.807,23.215-16.15,35.143-23.752c3.18-2.027,6.383-4.018,9.564-6.041
		c0.4-0.252,0.736-0.605,1.412-1.174c-0.924-0.461-1.539-0.926-2.227-1.086c-11.922-2.801-23.805-5.789-35.801-8.223
		c-4.447-0.902-9.164-0.494-13.646-0.68c0.281-0.25,0.799-0.773,1.381-1.211c8.77-6.621,18.361-11.769,28.508-15.937
		c9.779-4.016,19.541-8.082,29.316-12.113c1.986-0.818,4.031-1.496,5.982-2.387c1.041-0.477,1.557-1.51,1.184-2.652
		c-0.189-0.59-0.685-1.312-1.221-1.523c-6.605-2.586-13.172-5.293-19.891-7.559c-6.91-2.332-13.973-4.211-20.969-6.293
		c-0.154-0.047-0.293-0.145-0.643-0.324c0.711-0.553,1.34-1.039,1.967-1.527c5.656-4.398,12.217-6.582,19.125-8.062
		c8.809-1.887,17.691-3.234,26.664-3.918c12.565-0.957,25.141-1.777,37.711-2.66C273.673,233.534,273.944,233.483,274.602,233.397z
		 M434.755,418.132c-1.957,1.488-3.721,2.797-5.449,4.156c-3.185,2.502-6.17,5.305-9.551,7.498
		c-9.502,6.158-20.139,7.729-31.238,7.139c-1.092-0.059-1.426-0.5-1.406-1.533c0.033-1.777,0-3.557-0.063-5.334
		c-0.508-14.395-0.564-28.777,1.336-43.092c0.82-6.17,3.098-11.807,7.902-15.904c6.793-5.797,13.803-11.344,20.84-16.85
		c9.713-7.602,19.203-15.385,27.166-24.93c7.369-8.834,10.838-19.033,12.057-30.475c-5.375-0.602-8.902-3.742-11.34-8.18
		c-2.23,0.504-4.318,1.045-6.432,1.441c-5.461,1.018-10.865,0.729-16.018-1.396c-5.066-2.088-9.986-4.539-15.033-6.686
		c-11.361-4.832-23.106-8.449-35.252-10.699c-0.842-0.156-1.895,0.027-2.666,0.414c-4.76,2.402-8.895,5.686-12.334,9.723
		c-11.105,13.039-15.52,28.43-15.41,45.285c0.029,4.881,0.428,9.77,0.834,14.639c0.875,10.516,1.895,21.019,2.799,31.533
		c0.887,10.285,1.918,20.564,2.492,30.869c0.602,10.815,0.885,21.654,1.039,32.486c0.31,21.752-0.625,43.402-5.305,64.77
		c-2.582,11.793-5.885,23.338-11.004,34.269c-6.186,13.207-15.707,23.59-28.01,31.361c-10.451,6.602-21.824,11.039-33.861,13.805
		c-0.801,0.182-1.588,0.428-2.379,0.647c3.256,0.824,6.48,1.316,9.705,1.809c11.32,1.734,22.689,2.865,34.15,3.158
		c9.375,0.24,18.625-0.955,27.893-2.018c12.268-1.404,24.367-3.566,35.84-8.371c1.014-0.424,1.926-1.084,3.041-1.725
		c-3.457-3.656-7.434-5.521-11.797-6.578c-6.236-1.51-12.58-1.166-18.908-0.834c-1.559,0.082-3.113,0.18-4.67,0.271
		c2.709-2.666,5.539-4.893,8.207-7.301c8.27-7.463,15.641-15.693,21.647-25.139c5.416-8.518,9.228-17.664,11.463-27.484
		c2.502-10.992,3.377-22.158,3.387-33.406c0.004-4.094,0-8.188,0-12.266c3.199-0.25,6.199-0.318,9.148-0.748
		c10.322-1.508,19.381-5.826,27.178-12.727c5.955-5.27,10.512-11.467,11.826-19.533
		C437.233,426.193,436.853,422.243,434.755,418.132z"/>
	<path id="XMLID_17_" style="fill-rule:evenodd;clip-rule:evenodd;" d="M379.12,305.005c0.223-5.391,1.521-9.166,5.533-11.096
		c6.139-2.955,11.947,1.086,13.367,7.459c1.187,5.334-2.213,11.07-7.338,12.834c-3.17,1.094-7.977-0.777-9.711-4.076
		C379.97,308.22,379.481,306.042,379.12,305.005z"/>
</g>
<g id="XMLID_2_">
</g>
<g id="XMLID_3_">
</g>
<g id="XMLID_4_">
</g>
<g id="XMLID_5_">
</g>
<g id="XMLID_6_">
</g>
<g id="XMLID_7_">
</g>
</svg>
