  0
SECTION
  2
HEADER
  9
$ACADVER
  1
AC1024
  9
$ACADMAINTVER
 70
     6
  9
$DWGCODEPAGE
  3
ANSI_1252
  9
$INSBASE
 10
0.0
 20
0.0
 30
0.0
  9
$EXTMIN
 10
1.000000000000000E+20
 20
1.000000000000000E+20
 30
1.000000000000000E+20
  9
$EXTMAX
 10
-1.000000000000000E+20
 20
-1.000000000000000E+20
 30
-1.000000000000000E+20
  9
$LIMMIN
 10
0.0
 20
0.0
  9
$LIMMAX
 10
12.0
 20
9.0
  9
$ORTHOMODE
 70
     0
  9
$REGENMODE
 70
     1
  9
$FILLMODE
 70
     1
  9
$QTEXTMODE
 70
     0
  9
$MIRRTEXT
 70
     1
  9
$LTSCALE
 40
1.0
  9
$ATTMODE
 70
     1
  9
$TEXTSIZE
 40
0.2
  9
$TRACEWID
 40
0.05
  9
$TEXTSTYLE
  7
Standard
  9
$CLAYER
  8
0
  9
$CELTYPE
  6
ByLayer
  9
$CECOLOR
 62
   256
  9
$CELTSCALE
 40
1.0
  9
$DISPSILH
 70
     0
  9
$DIMSCALE
 40
1.0
  9
$DIMASZ
 40
0.18
  9
$DIMEXO
 40
0.0625
  9
$DIMDLI
 40
0.38
  9
$DIMRND
 40
0.0
  9
$DIMDLE
 40
0.0
  9
$DIMEXE
 40
0.18
  9
$DIMTP
 40
0.0
  9
$DIMTM
 40
0.0
  9
$DIMTXT
 40
0.18
  9
$DIMCEN
 40
0.09
  9
$DIMTSZ
 40
0.0
  9
$DIMTOL
 70
     0
  9
$DIMLIM
 70
     0
  9
$DIMTIH
 70
     1
  9
$DIMTOH
 70
     1
  9
$DIMSE1
 70
     0
  9
$DIMSE2
 70
     0
  9
$DIMTAD
 70
     0
  9
$DIMZIN
 70
     0
  9
$DIMBLK
  1

  9
$DIMASO
 70
     1
  9
$DIMSHO
 70
     1
  9
$DIMPOST
  1

  9
$DIMAPOST
  1

  9
$DIMALT
 70
     0
  9
$DIMALTD
 70
     2
  9
$DIMALTF
 40
25.4
  9
$DIMLFAC
 40
1.0
  9
$DIMTOFL
 70
     0
  9
$DIMTVP
 40
0.0
  9
$DIMTIX
 70
     0
  9
$DIMSOXD
 70
     0
  9
$DIMSAH
 70
     0
  9
$DIMBLK1
  1

  9
$DIMBLK2
  1

  9
$DIMSTYLE
  2
Standard
  9
$DIMCLRD
 70
     0
  9
$DIMCLRE
 70
     0
  9
$DIMCLRT
 70
     0
  9
$DIMTFAC
 40
1.0
  9
$DIMGAP
 40
0.09
  9
$DIMJUST
 70
     0
  9
$DIMSD1
 70
     0
  9
$DIMSD2
 70
     0
  9
$DIMTOLJ
 70
     1
  9
$DIMTZIN
 70
     0
  9
$DIMALTZ
 70
     0
  9
$DIMALTTZ
 70
     0
  9
$DIMUPT
 70
     0
  9
$DIMDEC
 70
     4
  9
$DIMTDEC
 70
     4
  9
$DIMALTU
 70
     2
  9
$DIMALTTD
 70
     2
  9
$DIMTXSTY
  7
Standard
  9
$DIMAUNIT
 70
     0
  9
$DIMADEC
 70
     0
  9
$DIMALTRND
 40
0.0
  9
$DIMAZIN
 70
     0
  9
$DIMDSEP
 70
    46
  9
$DIMATFIT
 70
     3
  9
$DIMFRAC
 70
     0
  9
$DIMLDRBLK
  1

  9
$DIMLUNIT
 70
     2
  9
$DIMLWD
 70
    -2
  9
$DIMLWE
 70
    -2
  9
$DIMTMOVE
 70
     0
  9
$DIMFXL
 40
1.0
  9
$DIMFXLON
 70
     0
  9
$DIMJOGANG
 40
0.7853981633974483
  9
$DIMTFILL
 70
     0
  9
$DIMTFILLCLR
 70
     0
  9
$DIMARCSYM
 70
     0
  9
$DIMLTYPE
  6

  9
$DIMLTEX1
  6

  9
$DIMLTEX2
  6

  9
$DIMTXTDIRECTION
 70
     0
  9
$LUNITS
 70
     2
  9
$LUPREC
 70
     4
  9
$SKETCHINC
 40
0.1
  9
$FILLETRAD
 40
0.5
  9
$AUNITS
 70
     0
  9
$AUPREC
 70
     0
  9
$MENU
  1
.
  9
$ELEVATION
 40
0.0
  9
$PELEVATION
 40
0.0
  9
$THICKNESS
 40
0.0
  9
$LIMCHECK
 70
     0
  9
$CHAMFERA
 40
0.5
  9
$CHAMFERB
 40
0.5
  9
$CHAMFERC
 40
1.0
  9
$CHAMFERD
 40
0.0
  9
$SKPOLY
 70
     0
  9
$TDCREATE
 40
2458498.802787049
  9
$TDUCREATE
 40
2458499.052787049
  9
$TDUPDATE
 40
2458498.802787234
  9
$TDUUPDATE
 40
2458499.052787234
  9
$TDINDWG
 40
0.0000000116
  9
$TDUSRTIMER
 40
0.0000000116
  9
$USRTIMER
 70
     1
  9
$ANGBASE
 50
0.0
  9
$ANGDIR
 70
     0
  9
$PDMODE
 70
     0
  9
$PDSIZE
 40
0.0
  9
$PLINEWID
 40
0.0
  9
$SPLFRAME
 70
     0
  9
$SPLINETYPE
 70
     6
  9
$SPLINESEGS
 70
     8
  9
$HANDSEED
  5
53
  9
$SURFTAB1
 70
     6
  9
$SURFTAB2
 70
     6
  9
$SURFTYPE
 70
     6
  9
$SURFU
 70
     6
  9
$SURFV
 70
     6
  9
$UCSBASE
  2

  9
$UCSNAME
  2

  9
$UCSORG
 10
0.0
 20
0.0
 30
0.0
  9
$UCSXDIR
 10
1.0
 20
0.0
 30
0.0
  9
$UCSYDIR
 10
0.0
 20
1.0
 30
0.0
  9
$UCSORTHOREF
  2

  9
$UCSORTHOVIEW
 70
     0
  9
$UCSORGTOP
 10
0.0
 20
0.0
 30
0.0
  9
$UCSORGBOTTOM
 10
0.0
 20
0.0
 30
0.0
  9
$UCSORGLEFT
 10
0.0
 20
0.0
 30
0.0
  9
$UCSORGRIGHT
 10
0.0
 20
0.0
 30
0.0
  9
$UCSORGFRONT
 10
0.0
 20
0.0
 30
0.0
  9
$UCSORGBACK
 10
0.0
 20
0.0
 30
0.0
  9
$PUCSBASE
  2

  9
$PUCSNAME
  2

  9
$PUCSORG
 10
0.0
 20
0.0
 30
0.0
  9
$PUCSXDIR
 10
1.0
 20
0.0
 30
0.0
  9
$PUCSYDIR
 10
0.0
 20
1.0
 30
0.0
  9
$PUCSORTHOREF
  2

  9
$PUCSORTHOVIEW
 70
     0
  9
$PUCSORGTOP
 10
0.0
 20
0.0
 30
0.0
  9
$PUCSORGBOTTOM
 10
0.0
 20
0.0
 30
0.0
  9
$PUCSORGLEFT
 10
0.0
 20
0.0
 30
0.0
  9
$PUCSORGRIGHT
 10
0.0
 20
0.0
 30
0.0
  9
$PUCSORGFRONT
 10
0.0
 20
0.0
 30
0.0
  9
$PUCSORGBACK
 10
0.0
 20
0.0
 30
0.0
  9
$USERI1
 70
     0
  9
$USERI2
 70
     0
  9
$USERI3
 70
     0
  9
$USERI4
 70
     0
  9
$USERI5
 70
     0
  9
$USERR1
 40
0.0
  9
$USERR2
 40
0.0
  9
$USERR3
 40
0.0
  9
$USERR4
 40
0.0
  9
$USERR5
 40
0.0
  9
$WORLDVIEW
 70
     1
  9
$SHADEDGE
 70
     3
  9
$SHADEDIF
 70
    70
  9
$TILEMODE
 70
     1
  9
$MAXACTVP
 70
    64
  9
$PINSBASE
 10
0.0
 20
0.0
 30
0.0
  9
$PLIMCHECK
 70
     0
  9
$PEXTMIN
 10
1.000000000000000E+20
 20
1.000000000000000E+20
 30
1.000000000000000E+20
  9
$PEXTMAX
 10
-1.000000000000000E+20
 20
-1.000000000000000E+20
 30
-1.000000000000000E+20
  9
$PLIMMIN
 10
0.0
 20
0.0
  9
$PLIMMAX
 10
12.0
 20
9.0
  9
$UNITMODE
 70
     0
  9
$VISRETAIN
 70
     1
  9
$PLINEGEN
 70
     0
  9
$PSLTSCALE
 70
     1
  9
$TREEDEPTH
 70
  3020
  9
$CMLSTYLE
  2
Standard
  9
$CMLJUST
 70
     0
  9
$CMLSCALE
 40
1.0
  9
$PROXYGRAPHICS
 70
     1
  9
$MEASUREMENT
 70
     0
  9
$CELWEIGHT
370
    -1
  9
$ENDCAPS
280
     0
  9
$JOINSTYLE
280
     0
  9
$LWDISPLAY
290
     1
  9
$INSUNITS
 70
     1
  9
$HYPERLINKBASE
  1

  9
$STYLESHEET
  1

  9
$XEDIT
290
     1
  9
$CEPSNTYPE
380
     0
  9
$PSTYLEMODE
290
     1
  9
$FINGERPRINTGUID
  2
{D16387B5-5A51-4F60-97D9-DFC8D05582EF}
  9
$VERSIONGUID
  2
{FAEB1C32-E019-11D5-929B-00C0DF256EC4}
  9
$EXTNAMES
290
     1
  9
$PSVPSCALE
 40
0.0
  9
$OLESTARTUP
290
     0
  9
$SORTENTS
280
   127
  9
$INDEXCTL
280
     0
  9
$HIDETEXT
280
     1
  9
$XCLIPFRAME
280
     2
  9
$HALOGAP
280
     0
  9
$OBSCOLOR
 70
   257
  9
$OBSLTYPE
280
     0
  9
$INTERSECTIONDISPLAY
280
     0
  9
$INTERSECTIONCOLOR
 70
   257
  9
$DIMASSOC
280
     2
  9
$PROJECTNAME
  1

  9
$CAMERADISPLAY
290
     0
  9
$LENSLENGTH
 40
50.0
  9
$CAMERAHEIGHT
 40
0.0
  9
$STEPSPERSEC
 40
2.0
  9
$STEPSIZE
 40
6.0
  9
$3DDWFPREC
 40
2.0
  9
$PSOLWIDTH
 40
0.25
  9
$PSOLHEIGHT
 40
4.0
  9
$LOFTANG1
 40
1.570796326794897
  9
$LOFTANG2
 40
1.570796326794897
  9
$LOFTMAG1
 40
0.0
  9
$LOFTMAG2
 40
0.0
  9
$LOFTPARAM
 70
     7
  9
$LOFTNORMALS
280
     1
  9
$LATITUDE
 40
37.795
  9
$LONGITUDE
 40
-122.394
  9
$NORTHDIRECTION
 40
0.0
  9
$TIMEZONE
 70
 -8000
  9
$LIGHTGLYPHDISPLAY
280
     1
  9
$TILEMODELIGHTSYNCH
280
     1
  9
$CMATERIAL
347
3C
  9
$SOLIDHIST
280
     1
  9
$SHOWHIST
280
     1
  9
$DWFFRAME
280
     2
  9
$DGNFRAME
280
     2
  9
$REALWORLDSCALE
290
     1
  9
$INTERFERECOLOR
 62
   256
  9
$CSHADOW
280
     0
  9
$SHADOWPLANELOCATION
 40
0.0
  0
ENDSEC
  0
SECTION
  2
CLASSES
  0
CLASS
  1
ACDBDICTIONARYWDFLT
  2
AcDbDictionaryWithDefault
  3
ObjectDBX Classes
 90
        0
 91
        4
280
     0
281
     0
  0
CLASS
  1
VISUALSTYLE
  2
AcDbVisualStyle
  3
ObjectDBX Classes
 90
     4095
 91
        4
280
     0
281
     0
  0
CLASS
  1
MATERIAL
  2
AcDbMaterial
  3
ObjectDBX Classes
 90
     1153
 91
        4
280
     0
281
     0
  0
CLASS
  1
SUN
  2
AcDbSun
  3
SCENEOE
 90
     1024
 91
        4
280
     0
281
     0
  0
ENDSEC
  0
SECTION
  2
TABLES
  0
TABLE
  2
VPORT
  5
8
330
0
100
AcDbSymbolTable
 70
     1
  0
VPORT
  5
29
330
8
100
AcDbSymbolTableRecord
100
AcDbViewportTableRecord
  2
*Active
 70
     0
 10
0.0
 20
0.0
 11
1.0
 21
1.0
 12
0.0
 22
0.0
 13
0.0
 23
0.0
 14
0.5
 24
0.5
 15
0.5
 25
0.5
 16
0.0
 26
0.0
 36
1.0
 17
4.25
 27
-5.5
 37
0.0
 40
11.0
 41
0.7727272727272727
 42
50.0
 43
0.0
 44
0.0
 50
0.0
 51
0.0
 71
     0
 72
   100
 73
     1
 74
     3
 75
     0
 76
     0
 77
     0
 78
     0
281
     0
 65
     1
110
0.0
120
0.0
130
0.0
111
1.0
121
0.0
131
0.0
112
0.0
122
1.0
132
0.0
 79
     0
146
0.0
 60
     3
 61
     5
292
     1
282
     1
141
0.0
142
0.0
 63
   250
361
3F
  0
ENDTAB
  0
TABLE
  2
LTYPE
  5
5
330
0
100
AcDbSymbolTable
 70
     1
  0
LTYPE
  5
14
330
5
100
AcDbSymbolTableRecord
100
AcDbLinetypeTableRecord
  2
ByBlock
 70
     0
  3

 72
    65
 73
     0
 40
0.0
  0
LTYPE
  5
15
330
5
100
AcDbSymbolTableRecord
100
AcDbLinetypeTableRecord
  2
ByLayer
 70
     0
  3

 72
    65
 73
     0
 40
0.0
  0
LTYPE
  5
16
330
5
100
AcDbSymbolTableRecord
100
AcDbLinetypeTableRecord
  2
Continuous
 70
     0
  3
Solid line
 72
    65
 73
     0
 40
0.0
  0
ENDTAB
  0
TABLE
  2
LAYER
  5
2
330
0
100
AcDbSymbolTable
 70
     2
  0
LAYER
  5
10
330
2
100
AcDbSymbolTableRecord
100
AcDbLayerTableRecord
  2
0
 70
     0
 62
     7
  6
Continuous
370
    -3
390
F
347
3E
  0
LAYER
  5
40
330
2
100
AcDbSymbolTableRecord
100
AcDbLayerTableRecord
  2
Layer 1
 70
     0
 62
     7
  6
Continuous
370
    -3
390
F
347
3E
  0
ENDTAB
  0
TABLE
  2
STYLE
  5
3
330
0
100
AcDbSymbolTable
 70
     1
  0
STYLE
  5
11
330
3
100
AcDbSymbolTableRecord
100
AcDbTextStyleTableRecord
  2
Standard
 70
     0
 40
0.0
 41
1.0
 50
0.0
 71
     0
 42
0.2
  3
txt
  4

  0
ENDTAB
  0
TABLE
  2
VIEW
  5
6
330
0
100
AcDbSymbolTable
 70
     0
  0
ENDTAB
  0
TABLE
  2
UCS
  5
7
330
0
100
AcDbSymbolTable
 70
     0
  0
ENDTAB
  0
TABLE
  2
APPID
  5
9
330
0
100
AcDbSymbolTable
 70
     1
  0
APPID
  5
12
330
9
100
AcDbSymbolTableRecord
100
AcDbRegAppTableRecord
  2
ACAD
 70
     0
  0
ENDTAB
  0
TABLE
  2
DIMSTYLE
  5
A
330
0
100
AcDbSymbolTable
 70
     1
100
AcDbDimStyleTable
  0
DIMSTYLE
105
27
330
A
100
AcDbSymbolTableRecord
100
AcDbDimStyleTableRecord
  2
Standard
 70
     0
178
     0
340
11
  0
ENDTAB
  0
TABLE
  2
BLOCK_RECORD
  5
1
330
0
100
AcDbSymbolTable
 70
     2
  0
BLOCK_RECORD
  5
1F
330
1
100
AcDbSymbolTableRecord
100
AcDbBlockTableRecord
  2
*Model_Space
340
22
 70
     0
280
     1
281
     0
  0
BLOCK_RECORD
  5
1B
330
1
100
AcDbSymbolTableRecord
100
AcDbBlockTableRecord
  2
*Paper_Space
340
1E
 70
     0
280
     1
281
     0
  0
BLOCK_RECORD
  5
23
330
1
100
AcDbSymbolTableRecord
100
AcDbBlockTableRecord
  2
*Paper_Space0
340
26
 70
     0
280
     1
281
     0
  0
BLOCK_RECORD
  5
48
330
1
100
AcDbSymbolTableRecord
100
AcDbBlockTableRecord
  2
block 2
340
0
102
{BLKREFS
331
49
102
}
 70
     0
280
     1
281
     0
  0
ENDTAB
  0
ENDSEC
  0
SECTION
  2
BLOCKS
  0
BLOCK
  5
20
330
1F
100
AcDbEntity
  8
0
100
AcDbBlockBegin
  2
*Model_Space
 70
     0
 10
0.0
 20
0.0
 30
0.0
  3
*Model_Space
  1

  0
ENDBLK
  5
21
330
1F
100
AcDbEntity
  8
0
100
AcDbBlockEnd
  0
BLOCK
  5
1C
330
1B
100
AcDbEntity
 67
     1
  8
0
100
AcDbBlockBegin
  2
*Paper_Space
 70
     0
 10
0.0
 20
0.0
 30
0.0
  3
*Paper_Space
  1

  0
ENDBLK
  5
1D
330
1B
100
AcDbEntity
 67
     1
  8
0
100
AcDbBlockEnd
  0
BLOCK
  5
24
330
23
100
AcDbEntity
  8
0
100
AcDbBlockBegin
  2
*Paper_Space0
 70
     0
 10
0.0
 20
0.0
 30
0.0
  3
*Paper_Space0
  1

  0
ENDBLK
  5
25
330
23
100
AcDbEntity
  8
0
100
AcDbBlockEnd
  0
BLOCK
  5
4A
330
48
100
AcDbEntity
  8
0
100
AcDbBlockBegin
  2
block 2
 70
     0
 10
0.0
 20
0.0
 30
0.0
  3
block 2
  1

  0
SPLINE
  5
4C
330
48
100
AcDbEntity
  8
Layer 1
370
     0
100
AcDbSpline
210
0.0
220
0.0
230
1.0
 70
    11
 71
     3
 72
   323
 73
   319
 74
     0
 42
0.0000000001
 43
0.0000000001
 12
1.0
 22
0.0
 32
0.0
 13
1.0
 23
0.0
 33
0.0
 40
0.0
 40
0.0
 40
0.0
 40
0.0
 40
1.0
 40
1.0
 40
1.0
 40
2.0
 40
2.0
 40
2.0
 40
3.0
 40
3.0
 40
3.0
 40
4.0
 40
4.0
 40
4.0
 40
5.0
 40
5.0
 40
5.0
 40
6.0
 40
6.0
 40
6.0
 40
7.0
 40
7.0
 40
7.0
 40
8.0
 40
8.0
 40
8.0
 40
9.0
 40
9.0
 40
9.0
 40
10.0
 40
10.0
 40
10.0
 40
11.0
 40
11.0
 40
11.0
 40
12.0
 40
12.0
 40
12.0
 40
13.0
 40
13.0
 40
13.0
 40
14.0
 40
14.0
 40
14.0
 40
15.0
 40
15.0
 40
15.0
 40
16.0
 40
16.0
 40
16.0
 40
17.0
 40
17.0
 40
17.0
 40
18.0
 40
18.0
 40
18.0
 40
19.0
 40
19.0
 40
19.0
 40
20.0
 40
20.0
 40
20.0
 40
21.0
 40
21.0
 40
21.0
 40
22.0
 40
22.0
 40
22.0
 40
23.0
 40
23.0
 40
23.0
 40
24.0
 40
24.0
 40
24.0
 40
25.0
 40
25.0
 40
25.0
 40
26.0
 40
26.0
 40
26.0
 40
27.0
 40
27.0
 40
27.0
 40
28.0
 40
28.0
 40
28.0
 40
29.0
 40
29.0
 40
29.0
 40
30.0
 40
30.0
 40
30.0
 40
31.0
 40
31.0
 40
31.0
 40
32.0
 40
32.0
 40
32.0
 40
33.0
 40
33.0
 40
33.0
 40
34.0
 40
34.0
 40
34.0
 40
35.0
 40
35.0
 40
35.0
 40
36.0
 40
36.0
 40
36.0
 40
37.0
 40
37.0
 40
37.0
 40
38.0
 40
38.0
 40
38.0
 40
39.0
 40
39.0
 40
39.0
 40
40.0
 40
40.0
 40
40.0
 40
41.0
 40
41.0
 40
41.0
 40
42.0
 40
42.0
 40
42.0
 40
43.0
 40
43.0
 40
43.0
 40
44.0
 40
44.0
 40
44.0
 40
45.0
 40
45.0
 40
45.0
 40
46.0
 40
46.0
 40
46.0
 40
47.0
 40
47.0
 40
47.0
 40
48.0
 40
48.0
 40
48.0
 40
49.0
 40
49.0
 40
49.0
 40
50.0
 40
50.0
 40
50.0
 40
51.0
 40
51.0
 40
51.0
 40
52.0
 40
52.0
 40
52.0
 40
53.0
 40
53.0
 40
53.0
 40
54.0
 40
54.0
 40
54.0
 40
55.0
 40
55.0
 40
55.0
 40
56.0
 40
56.0
 40
56.0
 40
57.0
 40
57.0
 40
57.0
 40
58.0
 40
58.0
 40
58.0
 40
59.0
 40
59.0
 40
59.0
 40
60.0
 40
60.0
 40
60.0
 40
61.0
 40
61.0
 40
61.0
 40
62.0
 40
62.0
 40
62.0
 40
63.0
 40
63.0
 40
63.0
 40
64.0
 40
64.0
 40
64.0
 40
65.0
 40
65.0
 40
65.0
 40
66.0
 40
66.0
 40
66.0
 40
67.0
 40
67.0
 40
67.0
 40
68.0
 40
68.0
 40
68.0
 40
69.0
 40
69.0
 40
69.0
 40
70.0
 40
70.0
 40
70.0
 40
71.0
 40
71.0
 40
71.0
 40
72.0
 40
72.0
 40
72.0
 40
73.0
 40
73.0
 40
73.0
 40
74.0
 40
74.0
 40
74.0
 40
75.0
 40
75.0
 40
75.0
 40
76.0
 40
76.0
 40
76.0
 40
77.0
 40
77.0
 40
77.0
 40
78.0
 40
78.0
 40
78.0
 40
79.0
 40
79.0
 40
79.0
 40
80.0
 40
80.0
 40
80.0
 40
81.0
 40
81.0
 40
81.0
 40
82.0
 40
82.0
 40
82.0
 40
83.0
 40
83.0
 40
83.0
 40
84.0
 40
84.0
 40
84.0
 40
85.0
 40
85.0
 40
85.0
 40
86.0
 40
86.0
 40
86.0
 40
87.0
 40
87.0
 40
87.0
 40
88.0
 40
88.0
 40
88.0
 40
89.0
 40
89.0
 40
89.0
 40
90.0
 40
90.0
 40
90.0
 40
91.0
 40
91.0
 40
91.0
 40
92.0
 40
92.0
 40
92.0
 40
93.0
 40
93.0
 40
93.0
 40
94.0
 40
94.0
 40
94.0
 40
95.0
 40
95.0
 40
95.0
 40
96.0
 40
96.0
 40
96.0
 40
97.0
 40
97.0
 40
97.0
 40
98.0
 40
98.0
 40
98.0
 40
99.0
 40
99.0
 40
99.0
 40
100.0
 40
100.0
 40
100.0
 40
101.0
 40
101.0
 40
101.0
 40
102.0
 40
102.0
 40
102.0
 40
103.0
 40
103.0
 40
103.0
 40
104.0
 40
104.0
 40
104.0
 40
105.0
 40
105.0
 40
105.0
 40
106.0
 40
106.0
 40
106.0
 40
106.0
 10
3.813921081341643
 20
-3.241630628345534
 30
0.0
 10
3.742279259546813
 20
-3.102633105147965
 30
0.0
 10
3.672534664082592
 20
-2.967432812395272
 30
0.0
 10
3.601923400074838
 20
-2.830440849096122
 30
0.0
 10
3.642667932744568
 20
-2.834157523810632
 30
0.0
 10
3.686695805857324
 20
-2.836354750790595
 30
0.0
 10
3.730207011184259
 20
-2.84243254172865
 30
0.0
 10
3.91626852517945
 20
-2.868502042622102
 30
0.0
 10
4.095821691748559
 20
-2.920285488083626
 30
0.0
 10
4.273069297769906
 20
-2.981132842060232
 30
0.0
 10
4.356780590143343
 20
-3.009885682097446
 30
0.0
 10
4.440955772410208
 20
-3.037257963589594
 30
0.0
 10
4.524967065433404
 20
-3.065144135083288
 30
0.0
 10
4.528439295174015
 20
-3.066310804276163
 30
0.0
 10
4.53215596988841
 20
-3.066744138547897
 30
0.0
 10
4.539753208561302
 20
-3.068371919850316
 30
0.0
 10
4.548269893669461
 20
-2.826374173623877
 30
0.0
 10
4.583289413942364
 20
-2.585487540914326
 30
0.0
 10
4.512678149934825
 20
-2.344384241068901
 30
0.0
 10
4.524642064729556
 20
-2.352548147635376
 30
0.0
 10
4.538205982988706
 20
-2.35914260635895
 30
0.0
 10
4.548350449399246
 20
-2.369206517039414
 30
0.0
 10
4.642589542346614
 20
-2.46287338652553
 30
0.0
 10
4.725273054716632
 20
-2.566390277340196
 30
0.0
 10
4.806326008000623
 20
-2.671398838051396
 30
0.0
 10
4.888251185395474
 20
-2.777546290117761
 30
0.0
 10
4.971501365659403
 20
-2.882607628721037
 30
0.0
 10
5.054293211597799
 20
-2.988049523703757
 30
0.0
 10
5.059501556208892
 20
-2.994668982481597
 30
0.0
 10
5.065904347850593
 20
-3.000310661364223
 30
0.0
 10
5.072548806682789
 20
-3.00725512084576
 30
0.0
 10
5.110121110261212
 20
-2.935204964833499
 30
0.0
 10
5.145846187617407
 20
-2.863590920876921
 30
0.0
 10
5.184474049037539
 20
-2.793496324654711
 30
0.0
 10
5.2232380218629
 20
-2.723182283512895
 30
0.0
 10
5.268974232008077
 20
-2.657509919088561
 30
0.0
 10
5.328896583981784
 20
-2.599565349175021
 30
0.0
 10
5.374849461262556
 20
-2.702404460744308
 30
0.0
 10
5.395602283977092
 20
-2.810313027734904
 30
0.0
 10
5.410196760023028
 20
-2.919254930296536
 30
0.0
 10
5.424763458231508
 20
-3.028196832858169
 30
0.0
 10
5.435207925291706
 20
-3.137708181097107
 30
0.0
 10
5.447441285114388
 20
-3.246975084362425
 30
0.0
 10
5.449449622796187
 20
-3.248141753555299
 30
0.0
 10
5.451455182694265
 20
-3.249280644910161
 30
0.0
 10
5.453463520376645
 20
-3.250419536265313
 30
0.0
 10
5.580011016615319
 20
-3.114405352861164
 30
0.0
 10
5.70658351290836
 20
-2.978363391619041
 30
0.0
 10
5.831447672169184
 20
-2.844196434437094
 30
0.0
 10
5.816880973960754
 20
-3.131116500157254
 30
0.0
 10
5.774075325716896
 20
-3.368800348154044
 30
0.0
 10
5.384616149077399
 20
-3.654284299653442
 30
0.0
 10
5.42169956270805
 20
-3.665839880230717
 30
0.0
 10
5.457885752174534
 20
-3.674601010312497
 30
0.0
 10
5.492146937472222
 20
-3.688245484301711
 30
0.0
 10
5.626477783897674
 20
-3.741792822471426
 30
0.0
 10
5.761080853135303
 20
-3.794881826315355
 30
0.0
 10
5.893895029610449
 20
-3.852145839199566
 30
0.0
 10
5.978367434743025
 20
-3.88854869580147
 30
0.0
 10
6.059856500082408
 20
-3.883315351136275
 30
0.0
 10
6.142998346778565
 20
-3.852201394875578
 30
0.0
 10
6.16616506360866
 20
-3.843545820577851
 30
0.0
 10
6.18132898533218
 20
-3.829251345181067
 30
0.0
 10
6.194512347211811
 20
-3.807279075381782
 30
0.0
 10
6.236912439021934
 20
-3.736667811374117
 30
0.0
 10
6.300362576412503
 20
-3.701212179045519
 30
0.0
 10
6.383993313055902
 20
-3.708537194906512
 30
0.0
 10
6.472779616418493
 20
-3.716320545093291
 30
0.0
 10
6.528660292973755
 20
-3.768270657582333
 30
0.0
 10
6.560615917723655
 20
-3.847859718807677
 30
0.0
 10
6.590618760467704
 20
-3.922701547531308
 30
0.0
 10
6.579468736324164
 20
-3.994182257866037
 30
0.0
 10
6.537938090841281
 20
-4.062296294244106
 30
0.0
 10
6.531482521307225
 20
-4.072849094872128
 30
0.0
 10
6.526679733129917
 20
-4.086249123887594
 30
0.0
 10
6.526438065939955
 20
-4.098429705818161
 30
0.0
 10
6.522882502685079
 20
-4.268677296681934
 30
0.0
 10
6.476171290429116
 20
-4.42671930556124
 30
0.0
 10
6.391426662484895
 20
-4.573500178945525
 30
0.0
 10
6.322932069727054
 20
-4.692153213645952
 30
0.0
 10
6.23430965560826
 20
-4.795345103756921
 30
0.0
 10
6.129789984844542
 20
-4.882881404412956
 30
0.0
 10
6.025323091973152
 20
-4.970367704960331
 30
0.0
 10
5.914320073837366
 20
-5.049956766185763
 30
0.0
 10
5.808392066690582
 20
-5.135784729809049
 30
0.0
 10
5.74505026286829
 20
-5.187109840944761
 30
0.0
 10
5.684719576677202
 20
-5.242421071822946
 30
0.0
 10
5.625447226110888
 20
-5.298493415459941
 30
0.0
 10
5.591594375030682
 20
-5.330529595939626
 30
0.0
 10
5.585488806254362
 20
-5.377457475331741
 30
0.0
 10
5.575155450546213
 20
-5.420454790657459
 30
0.0
 10
5.552558179393119
 20
-5.51434110506284
 30
0.0
 10
5.555188740644831
 20
-5.610288535042906
 30
0.0
 10
5.556110964863819
 20
-5.705991520048807
 30
0.0
 10
5.55665541048759
 20
-5.762958310067384
 30
0.0
 10
5.556191520594186
 20
-5.819922322302268
 30
0.0
 10
5.556191520594186
 20
-5.885244685968271
 30
0.0
 10
5.594822159797432
 20
-5.872766881171982
 30
0.0
 10
5.628458343742017
 20
-5.863705750440531
 30
0.0
 10
5.660794524871386
 20
-5.851172389968775
 30
0.0
 10
5.733928016562762
 20
-5.822825106365017
 30
0.0
 10
5.792819810749657
 20
-5.773483332857343
 30
0.0
 10
5.850789380716959
 20
-5.721997110262085
 30
0.0
 10
5.886814458723342
 20
-5.690013707674148
 30
0.0
 10
5.925253430844805
 20
-5.658463639357984
 30
0.0
 10
5.967650744871207
 20
-5.636463591720485
 30
0.0
 10
6.05746760602066
 20
-5.589888490870331
 30
0.0
 10
6.116578845126847
 20
-5.614899656138428
 30
0.0
 10
6.177748422023493
 20
-5.690366486215553
 30
0.0
 10
6.236884661183947
 20
-5.763311088608766
 30
0.0
 10
6.253515252750225
 20
-5.851608502024217
 30
0.0
 10
6.248576353167057
 20
-5.943078144530369
 30
0.0
 10
6.239543000273645
 20
-6.110450729169139
 30
0.0
 10
6.161609498188631
 20
-6.245976022625755
 30
0.0
 10
6.044637022682915
 20
-6.360831826881268
 30
0.0
 10
5.916789523628924
 20
-6.486373765387498
 30
0.0
 10
5.761922521624531
 20
-6.561243371949053
 30
0.0
 10
5.587199921070755
 20
-6.596726782115915
 30
0.0
 10
5.58505547198259
 20
-6.597132338549651
 30
0.0
 10
5.583047134300791
 20
-6.598137896282146
 30
0.0
 10
5.578816569584711
 20
-6.599629566178692
 30
0.0
 10
5.584566582035373
 20
-6.806632792186317
 30
0.0
 10
5.558797081791554
 20
-7.010058232668976
 30
0.0
 10
5.496377502188301
 20
-7.208055883621151
 30
0.0
 10
5.433877366854706
 20
-7.406270201708972
 30
0.0
 10
5.337985492551221
 20
-7.586637258929259
 30
0.0
 10
5.200179638600578
 20
-7.744515378564806
 30
0.0
 10
5.233654711085061
 20
-7.759895967424477
 30
0.0
 10
5.26512144588777
 20
-7.773784886387501
 30
0.0
 10
5.296127068580669
 20
-7.788704363137387
 30
0.0
 10
5.355752197688363
 20
-7.817404425282549
 30
0.0
 10
5.400782850750198
 20
-7.860618407743837
 30
0.0
 10
5.428805133649424
 20
-7.921410206044205
 30
0.0
 10
5.461005203373538
 20
-7.991260357292831
 30
0.0
 10
5.457288528658991
 20
-8.07744109945803
 30
0.0
 10
5.375149461912188
 20
-8.138449564894598
 30
0.0
 10
5.287638161310522
 20
-8.203419150019297
 30
0.0
 10
5.189032392241264
 20
-8.240174785162782
 30
0.0
 10
5.084432165747178
 20
-8.262744278477763
 30
0.0
 10
4.830414949050287
 20
-8.317597175029935
 30
0.0
 10
4.573958838183089
 20
-8.354705588715408
 30
0.0
 10
4.313433274060218
 20
-8.341819449701234
 30
0.0
 10
4.155691265830468
 20
-8.334008321676441
 30
0.0
 10
3.997785368356896
 20
-8.321338849798723
 30
0.0
 10
3.841262807212085
 20
-8.300938805625695
 30
0.0
 10
3.676387450202936
 20
-8.27948320361194
 30
0.0
 10
3.512839873846524
 20
-8.24739146745613
 30
0.0
 10
3.349103408192529
 20
-8.217660847524206
 30
0.0
 10
3.263572667434889
 20
-8.202171925096764
 30
0.0
 10
3.179289151600225
 20
-8.179466320375923
 30
0.0
 10
3.093594521598763
 20
-8.164710732869809
 30
0.0
 10
3.050788873354943
 20
-8.157357939170627
 30
0.0
 10
3.006166554510817
 20
-8.160152389666134
 30
0.0
 10
2.962327570696213
 20
-8.159282943338944
 30
0.0
 10
2.925571935552651
 20
-8.158524608363702
 30
0.0
 10
2.888788522571253
 20
-8.159121831878842
 30
0.0
 10
2.849916216177664
 20
-8.159121831878842
 30
0.0
 10
2.88854407759748
 20
-8.042854913456443
 30
0.0
 10
2.862121798162333
 20
-7.930115780450453
 30
0.0
 10
2.850321772611412
 20
-7.814990531166485
 30
0.0
 10
2.732699295698062
 20
-7.860998964123281
 30
0.0
 10
2.612121256829318
 20
-7.897590710023021
 30
0.0
 10
2.524773845471448
 20
-7.998802040289673
 30
0.0
 10
2.502962687132051
 20
-7.956701949129208
 30
0.0
 10
2.494201557050233
 20
-7.913082410234185
 30
0.0
 10
2.490404326605699
 20
-7.869190648527491
 30
0.0
 10
2.483051532906718
 20
-7.783904352743749
 30
0.0
 10
2.47854874537898
 20
-7.698398612040187
 30
0.0
 10
2.473720957147369
 20
-7.612951204796318
 30
0.0
 10
2.472826510766115
 20
-7.597026170313433
 30
0.0
 10
2.477029297644422
 20
-7.580859468640583
 30
0.0
 10
2.477004297590345
 20
-7.5648261005899
 30
0.0
 10
2.476948741914397
 20
-7.51475099216082
 30
0.0
 10
2.44141255385576
 20
-7.493592613012525
 30
0.0
 10
2.398065237772559
 20
-7.518170444009406
 30
0.0
 10
2.340420668508702
 20
-7.550803848004711
 30
0.0
 10
2.284620547683239
 20
-7.58625670254979
 30
0.0
 10
2.23915656034972
 20
-7.635845698814844
 30
0.0
 10
2.23693155553201
 20
-7.634951252433817
 30
0.0
 10
2.234678772876274
 20
-7.634081806106628
 30
0.0
 10
2.232456545842069
 20
-7.633187359725601
 30
0.0
 10
2.256137152674
 20
-7.502164853796708
 30
0.0
 10
2.279792759451639
 20
-7.371142347867791
 30
0.0
 10
2.304640035476394
 20
-7.233717050297173
 30
0.0
 10
2.202425925260488
 20
-7.274625472210674
 30
0.0
 10
2.103764600515206
 20
-7.314067224281416
 30
0.0
 10
2.002203269490577
 20
-7.354703423383322
 30
0.0
 10
2.005594943501415
 20
-7.322883910039232
 30
0.0
 10
2.007844948373418
 20
-7.288839391877167
 30
0.0
 10
2.01305329298451
 20
-7.255203207932557
 30
0.0
 10
2.028706104655776
 20
-7.154100211233703
 30
0.0
 10
2.060336728701966
 20
-7.059130561149206
 30
0.0
 10
2.125114646745083
 20
-6.977722051539583
 30
0.0
 10
2.132303551200241
 20
-6.968688698646146
 30
0.0
 10
2.140198012738791
 20
-6.960172013537986
 30
0.0
 10
2.148225807899444
 20
-6.951869217781753
 30
0.0
 10
2.161192502643265
 20
-6.938416410874626
 30
0.0
 10
2.166861959363839
 20
-6.922763599203385
 30
0.0
 10
2.159239720637161
 20
-6.905402450499397
 30
0.0
 10
2.151481370504421
 20
-6.887688523254003
 30
0.0
 10
2.136073003806814
 20
-6.879360727443933
 30
0.0
 10
2.116786850935
 20
-6.87811350252102
 30
0.0
 10
2.017556080512211
 20
-6.871682933041281
 30
0.0
 10
1.924864213137413
 20
-6.889641305260309
 30
0.0
 10
1.838952916000102
 20
-6.956860895257225
 30
0.0
 10
1.905658615995435
 20
-6.774027166029049
 30
0.0
 10
2.033289447913552
 20
-6.640454654578737
 30
0.0
 10
2.14871469784695
 20
-6.494784894711579
 30
0.0
 10
1.995772700010826
 20
-6.461607045093008
 30
0.0
 10
1.844000149151346
 20
-6.440259776646548
 30
0.0
 10
1.683299801182481
 20
-6.436243101282419
 30
0.0
 10
1.717588764318192
 20
-6.39403467655413
 30
0.0
 10
1.747374939926127
 20
-6.355242925890782
 30
0.0
 10
1.779355564730117
 20
-6.318378957179422
 30
0.0
 10
1.91865308857723
 20
-6.157786942778102
 30
0.0
 10
2.077806210973525
 20
-6.017678306063999
 30
0.0
 10
2.235628774933287
 20
-5.876075221669073
 30
0.0
 10
2.278137200311246
 20
-5.837908472359307
 30
0.0
 10
2.318473398763457
 20
-5.797813941096946
 30
0.0
 10
2.36936517562746
 20
-5.770497215280531
 30
0.0
 10
2.424187516558075
 20
-5.741094373835671
 30
0.0
 10
2.482943199338883
 20
-5.724274892971809
 30
0.0
 10
2.544496110398869
 20
-5.715999875053537
 30
0.0
 10
2.544846111156656
 20
-5.714019315209776
 30
0.0
 10
2.545226667536301
 20
-5.712066533203445
 30
0.0
 10
2.54557944607801
 20
-5.710113751197089
 30
0.0
 10
2.499004345227616
 20
-5.695410941582799
 30
0.0
 10
2.452698689405123
 20
-5.679733129857797
 30
0.0
 10
2.405768032229338
 20
-5.66614143376066
 30
0.0
 10
2.290559449431751
 20
-5.632749694789632
 30
0.0
 10
2.173778641007389
 20
-5.642080270549008
 30
0.0
 10
2.056672831879534
 20
-5.653499739720498
 30
0.0
 10
2.00456438571435
 20
-5.658599750763793
 30
0.0
 10
1.951992049655701
 20
-5.659008084981224
 30
0.0
 10
1.899583602841113
 20
-5.661177534123175
 30
0.0
 10
1.87961689293997
 20
-5.662044202666114
 30
0.0
 10
1.869308537285633
 20
-5.649919176411786
 30
0.0
 10
1.873839102651333
 20
-5.632069137760582
 30
0.0
 10
1.878803002288552
 20
-5.612457984184857
 30
0.0
 10
1.886236351717609
 20
-5.591869050714118
 30
0.0
 10
1.898116932998581
 20
-5.575810682609068
 30
0.0
 10
1.98096155682875
 20
-5.4638298845789
 30
0.0
 10
2.085753450404127
 20
-5.374799136242599
 30
0.0
 10
2.205356487161553
 20
-5.305843431374948
 30
0.0
 10
2.336703993794167
 20
-5.230132156324165
 30
0.0
 10
2.472718177198292
 20
-5.162532009947881
 30
0.0
 10
2.606724022920364
 20
-5.091406855938835
 30
0.0
 10
2.624735173031442
 20
-5.081831835205876
 30
0.0
 10
2.64280187881852
 20
-5.072309592364667
 30
0.0
 10
2.659946360386382
 20
-5.057526227020591
 30
0.0
 10
2.47024872740672
 20
-5.046648425688671
 30
0.0
 10
2.280578872264969
 20
-5.035795624411043
 30
0.0
 10
2.084072891209644
 20
-5.024540044483325
 30
0.0
 10
2.106506273118637
 20
-4.990114969941866
 30
0.0
 10
2.124925757447222
 20
-4.957317676702738
 30
0.0
 10
2.147628584384077
 20
-4.927831501744397
 30
0.0
 10
2.2069564906262
 20
-4.850792446040916
 30
0.0
 10
2.283426100652365
 20
-4.791439539744841
 30
0.0
 10
2.358865152891503
 20
-4.731622743554681
 30
0.0
 10
2.513109931326325
 20
-4.609308589815757
 30
0.0
 10
2.681296406616222
 20
-4.507311146735977
 30
0.0
 10
2.846957876438586
 20
-4.40173591813113
 30
0.0
 10
2.891121860957077
 20
-4.373577523825563
 30
0.0
 10
2.935608068395406
 20
-4.345935797305211
 30
0.0
 10
2.979797052967759
 20
-4.317830180891936
 30
0.0
 10
2.985358176120523
 20
-4.314332951097236
 30
0.0
 10
2.99002485289207
 20
-4.309421829351663
 30
0.0
 10
2.999410984327382
 20
-4.301527367813277
 30
0.0
 10
2.986580400989422
 20
-4.29512735395527
 30
0.0
 10
2.978035938043263
 20
-4.288669006637519
 30
0.0
 10
2.968485917364319
 20
-4.286446779603263
 30
0.0
 10
2.802905003272018
 20
-4.247546695372029
 30
0.0
 10
2.637865757019098
 20
-4.206041049942971
 30
0.0
 10
2.471251507355797
 20
-4.172240976754653
 30
0.0
 10
2.40948470694386
 20
-4.159710394066451
 30
0.0
 10
2.343973453979389
 20
-4.165379850787278
 30
0.0
 10
2.28171776361992
 20
-4.162802067427492
 30
0.0
 10
2.285623327632291
 20
-4.159329837686983
 30
0.0
 10
2.292812232087499
 20
-4.152060377501735
 30
0.0
 10
2.300895582923911
 20
-4.145982586563504
 30
0.0
 10
2.422695846661289
 20
-4.054024054109719
 30
0.0
 10
2.555915579570132
 20
-3.982518343721065
 30
0.0
 10
2.696838106935729
 20
-3.924629329483524
 30
0.0
 10
2.832663401042004
 20
-3.868856986495846
 30
0.0
 10
2.968241472390686
 20
-3.812379086424875
 30
0.0
 10
3.104011210820949
 20
-3.756387298517641
 30
0.0
 10
3.131600159448958
 20
-3.745023385022149
 30
0.0
 10
3.160002998728171
 20
-3.735609475749028
 30
0.0
 10
3.187100279625004
 20
-3.723240004520764
 30
0.0
 10
3.201558644265383
 20
-3.716620545742949
 30
0.0
 10
3.208722548666489
 20
-3.70227051467057
 30
0.0
 10
3.203539204109448
 20
-3.686401035863456
 30
0.0
 10
3.200908642858002
 20
-3.678209351458981
 30
0.0
 10
3.194019739052212
 20
-3.668173218616503
 30
0.0
 10
3.186586389623193
 20
-3.665242656715185
 30
0.0
 10
3.094844524305421
 20
-3.629325912277106
 30
0.0
 10
3.003641549043487
 20
-3.591728608644366
 30
0.0
 10
2.910327458099068
 20
-3.56026187384196
 30
0.0
 10
2.814352250281281
 20
-3.527872914820275
 30
0.0
 10
2.71626037121358
 20
-3.501775636089064
 30
0.0
 10
2.619093494148829
 20
-3.472858906808066
 30
0.0
 10
2.616949045060955
 20
-3.472208905400685
 30
0.0
 10
2.615024040892624
 20
-3.470850569126191
 30
0.0
 10
2.610168474823215
 20
-3.468356119280353
 30
0.0
 10
2.620043496205843
 20
-3.460678324877689
 30
0.0
 10
2.628776848449661
 20
-3.453925532477923
 30
0.0
 10
2.637485200639528
 20
-3.447142184456298
 30
0.0
 10
2.71604370407772
 20
-3.386053163289741
 30
0.0
 10
2.807163345826085
 20
-3.355725319842223
 30
0.0
 10
2.903110775805885
 20
-3.335164164209484
 30
0.0
 10
3.025452707382846
 20
-3.308958551910223
 30
0.0
 10
3.148825196746871
 20
-3.290241844715764
 30
0.0
 10
3.273444911033809
 20
-3.280747379712807
 30
0.0
 10
3.44795362223566
 20
-3.267455684265074
 30
0.0
 10
3.622623444897347
 20
-3.256061215147888
 30
0.0
 10
3.797209934045289
 20
-3.243800077487448
 30
0.0
 10
3.801007164489887
 20
-3.243527854675828
 30
0.0
 10
3.804779394880143
 20
-3.242825075376357
 30
0.0
 10
3.813921081341643
 20
-3.241630628345534
 30
0.0
  0
SPLINE
  5
4D
330
48
100
AcDbEntity
  8
Layer 1
370
     0
100
AcDbSpline
210
0.0
220
0.0
230
1.0
 70
    11
 71
     3
 72
   137
 73
   133
 74
     0
 42
0.0000000001
 43
0.0000000001
 12
1.0
 22
0.0
 32
0.0
 13
1.0
 23
0.0
 33
0.0
 40
0.0
 40
0.0
 40
0.0
 40
0.0
 40
1.0
 40
1.0
 40
1.0
 40
2.0
 40
2.0
 40
2.0
 40
3.0
 40
3.0
 40
3.0
 40
4.0
 40
4.0
 40
4.0
 40
5.0
 40
5.0
 40
5.0
 40
6.0
 40
6.0
 40
6.0
 40
7.0
 40
7.0
 40
7.0
 40
8.0
 40
8.0
 40
8.0
 40
9.0
 40
9.0
 40
9.0
 40
10.0
 40
10.0
 40
10.0
 40
11.0
 40
11.0
 40
11.0
 40
12.0
 40
12.0
 40
12.0
 40
13.0
 40
13.0
 40
13.0
 40
14.0
 40
14.0
 40
14.0
 40
15.0
 40
15.0
 40
15.0
 40
16.0
 40
16.0
 40
16.0
 40
17.0
 40
17.0
 40
17.0
 40
18.0
 40
18.0
 40
18.0
 40
19.0
 40
19.0
 40
19.0
 40
20.0
 40
20.0
 40
20.0
 40
21.0
 40
21.0
 40
21.0
 40
22.0
 40
22.0
 40
22.0
 40
23.0
 40
23.0
 40
23.0
 40
24.0
 40
24.0
 40
24.0
 40
25.0
 40
25.0
 40
25.0
 40
26.0
 40
26.0
 40
26.0
 40
27.0
 40
27.0
 40
27.0
 40
28.0
 40
28.0
 40
28.0
 40
29.0
 40
29.0
 40
29.0
 40
30.0
 40
30.0
 40
30.0
 40
31.0
 40
31.0
 40
31.0
 40
32.0
 40
32.0
 40
32.0
 40
33.0
 40
33.0
 40
33.0
 40
34.0
 40
34.0
 40
34.0
 40
35.0
 40
35.0
 40
35.0
 40
36.0
 40
36.0
 40
36.0
 40
37.0
 40
37.0
 40
37.0
 40
38.0
 40
38.0
 40
38.0
 40
39.0
 40
39.0
 40
39.0
 40
40.0
 40
40.0
 40
40.0
 40
41.0
 40
41.0
 40
41.0
 40
42.0
 40
42.0
 40
42.0
 40
43.0
 40
43.0
 40
43.0
 40
44.0
 40
44.0
 40
44.0
 40
44.0
 10
6.03826200887867
 20
-5.807391739613599
 30
0.0
 10
6.011081394468596
 20
-5.828061228814122
 30
0.0
 10
5.986586896985222
 20
-5.846236268169301
 30
0.0
 10
5.962578511665924
 20
-5.865116864607317
 30
0.0
 10
5.918336749201544
 20
-5.899866939852775
 30
0.0
 10
5.876886659448423
 20
-5.938792024138264
 30
0.0
 10
5.8299282244346
 20
-5.969255978991618
 30
0.0
 10
5.697958494232353
 20
-6.054786719748941
 30
0.0
 10
5.550224841007346
 20
-6.076597878088301
 30
0.0
 10
5.39606339608632
 20
-6.068406193684116
 30
0.0
 10
5.380899474362852
 20
-6.067592303032925
 30
0.0
 10
5.376260575429316
 20
-6.06146173420287
 30
0.0
 10
5.376532798240961
 20
-6.047111703129985
 30
0.0
 10
5.37699391035014
 20
-6.022425538565307
 30
0.0
 10
5.376532798240961
 20
-5.997711596162591
 30
0.0
 10
5.375663351913746
 20
-5.973028209382189
 30
0.0
 10
5.368610558864121
 20
-5.773102776477925
 30
0.0
 10
5.367824446050943
 20
-5.573341232817508
 30
0.0
 10
5.394218947648343
 20
-5.374529691214648
 30
0.0
 10
5.405613416765542
 20
-5.288835061212922
 30
0.0
 10
5.437241263027797
 20
-5.210546002802781
 30
0.0
 10
5.503974740861117
 20
-5.153634768460253
 30
0.0
 10
5.598322167376333
 20
-5.073123483015832
 30
0.0
 10
5.695677933738933
 20
-4.996081649528681
 30
0.0
 10
5.793417034264672
 20
-4.9196120395022
 30
0.0
 10
5.928317326368263
 20
-4.814034033113658
 30
0.0
 10
6.060128722894029
 20
-4.705933799041254
 30
0.0
 10
6.17072340681236
 20
-4.57336684532341
 30
0.0
 10
6.273073628434101
 20
-4.450672135205068
 30
0.0
 10
6.321248732748674
 20
-4.309016272918281
 30
0.0
 10
6.338176547180915
 20
-4.150107595495456
 30
0.0
 10
6.263523607754955
 20
-4.141752021847386
 30
0.0
 10
6.214531835005017
 20
-4.098132482952362
 30
0.0
 10
6.180678983924761
 20
-4.0364990161623
 30
0.0
 10
6.149701139069874
 20
-4.043499031319596
 30
0.0
 10
6.120701076275105
 20
-4.051012936478616
 30
0.0
 10
6.091351012722649
 20
-4.056518503955456
 30
0.0
 10
6.015503626266005
 20
-4.070651867892189
 30
0.0
 10
5.940445130406816
 20
-4.066637970311868
 30
0.0
 10
5.868883864341797
 20
-4.037124017515717
 30
0.0
 10
5.798517045307941
 20
-4.008123954721112
 30
0.0
 10
5.730183564010253
 20
-3.974079436559072
 30
0.0
 10
5.660088967787993
 20
-3.944268260897097
 30
0.0
 10
5.502291403882787
 20
-3.877157004468169
 30
0.0
 10
5.339177161798134
 20
-3.826918006795318
 30
0.0
 10
5.170476796506642
 20
-3.795667939128773
 30
0.0
 10
5.158785104523505
 20
-3.793498489986582
 30
0.0
 10
5.144162850639582
 20
-3.796048495508229
 30
0.0
 10
5.133448938551459
 20
-3.801417951579411
 30
0.0
 10
5.067340462071696
 20
-3.834784690495869
 30
0.0
 10
5.009912559943359
 20
-3.88038478923497
 30
0.0
 10
4.962143012062016
 20
-3.936457132872306
 30
0.0
 10
4.807901011411205
 20
-4.117554747229986
 30
0.0
 10
4.74659254532508
 20
-4.33131354342125
 30
0.0
 10
4.748111993059663
 20
-4.565416828109114
 30
0.0
 10
4.748520327277093
 20
-4.633208641567282
 30
0.0
 10
4.75405367259216
 20
-4.701106010809578
 30
0.0
 10
4.759695351474445
 20
-4.768733935023925
 30
0.0
 10
4.771848155567366
 20
-4.914784251270526
 30
0.0
 10
4.786009297342085
 20
-5.06067067827386
 30
0.0
 10
4.79856765786816
 20
-5.206695994466145
 30
0.0
 10
4.810884351204322
 20
-5.349543526000338
 30
0.0
 10
4.825206604439194
 20
-5.49231327958786
 30
0.0
 10
4.833181621707809
 20
-5.635433033933698
 30
0.0
 10
4.841537195355841
 20
-5.785636136950264
 30
0.0
 10
4.845470537205958
 20
-5.936189240724565
 30
0.0
 10
4.847614986294123
 20
-6.086634010931069
 30
0.0
 10
4.851926106739989
 20
-6.388745776213277
 30
0.0
 10
4.838934411942116
 20
-6.689446427328676
 30
0.0
 10
4.773937048979506
 20
-6.986213736593426
 30
0.0
 10
4.738075860216895
 20
-7.150005757923458
 30
0.0
 10
4.692203538665908
 20
-7.310350549566894
 30
0.0
 10
4.621106162494899
 20
-7.462178656102196
 30
0.0
 10
4.535194865357576
 20
-7.645612386629611
 30
0.0
 10
4.402950134560013
 20
-7.78981825443821
 30
0.0
 10
4.232080320126594
 20
-7.897754599266868
 30
0.0
 10
4.086924450260969
 20
-7.989443686692361
 30
0.0
 10
3.928965774895346
 20
-8.051074375698665
 30
0.0
 10
3.761782079554753
 20
-8.089485569982646
 30
0.0
 10
3.750659833249188
 20
-8.092010575450178
 30
0.0
 10
3.739729254025178
 20
-8.095427249515069
 30
0.0
 10
3.728743119125713
 20
-8.098466144984235
 30
0.0
 10
3.773962661485118
 20
-8.109913391993258
 30
0.0
 10
3.818748869573028
 20
-8.116749517906731
 30
0.0
 10
3.863535077660938
 20
-8.123585643820281
 30
0.0
 10
4.020763195889142
 20
-8.14767458486982
 30
0.0
 10
4.178666315578741
 20
-8.163380174432884
 30
0.0
 10
4.337847215813276
 20
-8.167449627689317
 30
0.0
 10
4.468055831090674
 20
-8.170785746023915
 30
0.0
 10
4.596528331498019
 20
-8.154182932295674
 30
0.0
 10
4.725245276879201
 20
-8.139427344789585
 30
0.0
 10
4.895628979149074
 20
-8.119921746997989
 30
0.0
 10
5.063679343032618
 20
-8.089893904200101
 30
0.0
 10
5.22302135472728
 20
-8.023160426366783
 30
0.0
 10
5.237099162987962
 20
-8.017274302510259
 30
0.0
 10
5.249768634866111
 20
-8.008107615994732
 30
0.0
 10
5.26525755729358
 20
-7.999207596723434
 30
0.0
 10
5.217243564438604
 20
-7.948426931211012
 30
0.0
 10
5.162012889290231
 20
-7.922521319561333
 30
0.0
 10
5.101412758071192
 20
-7.907846287785105
 30
0.0
 10
5.014795903851058
 20
-7.886876797934923
 30
0.0
 10
4.926687379733746
 20
-7.891651808274294
 30
0.0
 10
4.838798300536306
 20
-7.896262929370247
 30
0.0
 10
4.81715103144082
 20
-7.897401820724932
 30
0.0
 10
4.795556540237031
 20
-7.898757379215693
 30
0.0
 10
4.773937048979506
 20
-7.900032381976593
 30
0.0
 10
4.811562130449702
 20
-7.863004524021435
 30
0.0
 10
4.850867771115215
 20
-7.832079457058803
 30
0.0
 10
4.88792340690841
 20
-7.798632162411877
 30
0.0
 10
5.002779211163948
 20
-7.694981937975298
 30
0.0
 10
5.105154432840057
 20
-7.580670579342571
 30
0.0
 10
5.188571280131504
 20
-7.449484184170236
 30
0.0
 10
5.263793665235021
 20
-7.331183928011265
 30
0.0
 10
5.316743779888863
 20
-7.20415031960849
 30
0.0
 10
5.347777180419775
 20
-7.067755579825163
 30
0.0
 10
5.382527255665233
 20
-6.915085804800709
 30
0.0
 10
5.394680059757572
 20
-6.760002135660139
 30
0.0
 10
5.394816171163383
 20
-6.603779575164985
 30
0.0
 10
5.394868949055737
 20
-6.546921118714762
 30
0.0
 10
5.394816171163383
 20
-6.490062662264007
 30
0.0
 10
5.394816171163383
 20
-6.433423650733099
 30
0.0
 10
5.439249600709596
 20
-6.429951420992211
 30
0.0
 10
5.48091635759887
 20
-6.42900141893521
 30
0.0
 10
5.521877557404196
 20
-6.423034739348926
 30
0.0
 10
5.665241756723617
 20
-6.40209024955253
 30
0.0
 10
5.791055918041416
 20
-6.3421151196871
 30
0.0
 10
5.89934781919515
 20
-6.246276023274807
 30
0.0
 10
5.98205633161951
 20
-6.173086975907987
 30
0.0
 10
6.045342579766283
 20
-6.087014567311067
 30
0.0
 10
6.063600952634943
 20
-5.974980991387938
 30
0.0
 10
6.072687083420178
 20
-5.919341982022691
 30
0.0
 10
6.067398183079275
 20
-5.864491863254291
 30
0.0
 10
6.03826200887867
 20
-5.807391739613599
 30
0.0
  0
HATCH
  5
4E
330
48
100
AcDbEntity
  8
Layer 1
 62
   250
420
  2301728
100
AcDbHatch
 10
0.0
 20
0.0
 30
0.0
210
0.0
220
0.0
230
1.0
  2
SOLID
 70
     1
 71
     0
 91
        2
 92
        1
 93
        1
 72
     4
 94
        3
 73
     0
 74
     1
 95
      323
 96
      319
 40
0.0
 40
0.0
 40
0.0
 40
0.0
 40
1.0
 40
1.0
 40
1.0
 40
2.0
 40
2.0
 40
2.0
 40
3.0
 40
3.0
 40
3.0
 40
4.0
 40
4.0
 40
4.0
 40
5.0
 40
5.0
 40
5.0
 40
6.0
 40
6.0
 40
6.0
 40
7.0
 40
7.0
 40
7.0
 40
8.0
 40
8.0
 40
8.0
 40
9.0
 40
9.0
 40
9.0
 40
10.0
 40
10.0
 40
10.0
 40
11.0
 40
11.0
 40
11.0
 40
12.0
 40
12.0
 40
12.0
 40
13.0
 40
13.0
 40
13.0
 40
14.0
 40
14.0
 40
14.0
 40
15.0
 40
15.0
 40
15.0
 40
16.0
 40
16.0
 40
16.0
 40
17.0
 40
17.0
 40
17.0
 40
18.0
 40
18.0
 40
18.0
 40
19.0
 40
19.0
 40
19.0
 40
20.0
 40
20.0
 40
20.0
 40
21.0
 40
21.0
 40
21.0
 40
22.0
 40
22.0
 40
22.0
 40
23.0
 40
23.0
 40
23.0
 40
24.0
 40
24.0
 40
24.0
 40
25.0
 40
25.0
 40
25.0
 40
26.0
 40
26.0
 40
26.0
 40
27.0
 40
27.0
 40
27.0
 40
28.0
 40
28.0
 40
28.0
 40
29.0
 40
29.0
 40
29.0
 40
30.0
 40
30.0
 40
30.0
 40
31.0
 40
31.0
 40
31.0
 40
32.0
 40
32.0
 40
32.0
 40
33.0
 40
33.0
 40
33.0
 40
34.0
 40
34.0
 40
34.0
 40
35.0
 40
35.0
 40
35.0
 40
36.0
 40
36.0
 40
36.0
 40
37.0
 40
37.0
 40
37.0
 40
38.0
 40
38.0
 40
38.0
 40
39.0
 40
39.0
 40
39.0
 40
40.0
 40
40.0
 40
40.0
 40
41.0
 40
41.0
 40
41.0
 40
42.0
 40
42.0
 40
42.0
 40
43.0
 40
43.0
 40
43.0
 40
44.0
 40
44.0
 40
44.0
 40
45.0
 40
45.0
 40
45.0
 40
46.0
 40
46.0
 40
46.0
 40
47.0
 40
47.0
 40
47.0
 40
48.0
 40
48.0
 40
48.0
 40
49.0
 40
49.0
 40
49.0
 40
50.0
 40
50.0
 40
50.0
 40
51.0
 40
51.0
 40
51.0
 40
52.0
 40
52.0
 40
52.0
 40
53.0
 40
53.0
 40
53.0
 40
54.0
 40
54.0
 40
54.0
 40
55.0
 40
55.0
 40
55.0
 40
56.0
 40
56.0
 40
56.0
 40
57.0
 40
57.0
 40
57.0
 40
58.0
 40
58.0
 40
58.0
 40
59.0
 40
59.0
 40
59.0
 40
60.0
 40
60.0
 40
60.0
 40
61.0
 40
61.0
 40
61.0
 40
62.0
 40
62.0
 40
62.0
 40
63.0
 40
63.0
 40
63.0
 40
64.0
 40
64.0
 40
64.0
 40
65.0
 40
65.0
 40
65.0
 40
66.0
 40
66.0
 40
66.0
 40
67.0
 40
67.0
 40
67.0
 40
68.0
 40
68.0
 40
68.0
 40
69.0
 40
69.0
 40
69.0
 40
70.0
 40
70.0
 40
70.0
 40
71.0
 40
71.0
 40
71.0
 40
72.0
 40
72.0
 40
72.0
 40
73.0
 40
73.0
 40
73.0
 40
74.0
 40
74.0
 40
74.0
 40
75.0
 40
75.0
 40
75.0
 40
76.0
 40
76.0
 40
76.0
 40
77.0
 40
77.0
 40
77.0
 40
78.0
 40
78.0
 40
78.0
 40
79.0
 40
79.0
 40
79.0
 40
80.0
 40
80.0
 40
80.0
 40
81.0
 40
81.0
 40
81.0
 40
82.0
 40
82.0
 40
82.0
 40
83.0
 40
83.0
 40
83.0
 40
84.0
 40
84.0
 40
84.0
 40
85.0
 40
85.0
 40
85.0
 40
86.0
 40
86.0
 40
86.0
 40
87.0
 40
87.0
 40
87.0
 40
88.0
 40
88.0
 40
88.0
 40
89.0
 40
89.0
 40
89.0
 40
90.0
 40
90.0
 40
90.0
 40
91.0
 40
91.0
 40
91.0
 40
92.0
 40
92.0
 40
92.0
 40
93.0
 40
93.0
 40
93.0
 40
94.0
 40
94.0
 40
94.0
 40
95.0
 40
95.0
 40
95.0
 40
96.0
 40
96.0
 40
96.0
 40
97.0
 40
97.0
 40
97.0
 40
98.0
 40
98.0
 40
98.0
 40
99.0
 40
99.0
 40
99.0
 40
100.0
 40
100.0
 40
100.0
 40
101.0
 40
101.0
 40
101.0
 40
102.0
 40
102.0
 40
102.0
 40
103.0
 40
103.0
 40
103.0
 40
104.0
 40
104.0
 40
104.0
 40
105.0
 40
105.0
 40
105.0
 40
106.0
 40
106.0
 40
106.0
 40
106.0
 10
3.813921081341643
 20
-3.241630628345534
 10
3.742279259546813
 20
-3.102633105147965
 10
3.672534664082592
 20
-2.967432812395272
 10
3.601923400074838
 20
-2.830440849096122
 10
3.642667932744568
 20
-2.834157523810632
 10
3.686695805857324
 20
-2.836354750790595
 10
3.730207011184259
 20
-2.84243254172865
 10
3.91626852517945
 20
-2.868502042622102
 10
4.095821691748559
 20
-2.920285488083626
 10
4.273069297769906
 20
-2.981132842060232
 10
4.356780590143343
 20
-3.009885682097446
 10
4.440955772410208
 20
-3.037257963589594
 10
4.524967065433404
 20
-3.065144135083288
 10
4.528439295174015
 20
-3.066310804276163
 10
4.53215596988841
 20
-3.066744138547897
 10
4.539753208561302
 20
-3.068371919850316
 10
4.548269893669461
 20
-2.826374173623877
 10
4.583289413942364
 20
-2.585487540914326
 10
4.512678149934825
 20
-2.344384241068901
 10
4.524642064729556
 20
-2.352548147635376
 10
4.538205982988706
 20
-2.35914260635895
 10
4.548350449399246
 20
-2.369206517039414
 10
4.642589542346614
 20
-2.46287338652553
 10
4.725273054716632
 20
-2.566390277340196
 10
4.806326008000623
 20
-2.671398838051396
 10
4.888251185395474
 20
-2.777546290117761
 10
4.971501365659403
 20
-2.882607628721037
 10
5.054293211597799
 20
-2.988049523703757
 10
5.059501556208892
 20
-2.994668982481597
 10
5.065904347850593
 20
-3.000310661364223
 10
5.072548806682789
 20
-3.00725512084576
 10
5.110121110261212
 20
-2.935204964833499
 10
5.145846187617407
 20
-2.863590920876921
 10
5.184474049037539
 20
-2.793496324654711
 10
5.2232380218629
 20
-2.723182283512895
 10
5.268974232008077
 20
-2.657509919088561
 10
5.328896583981784
 20
-2.599565349175021
 10
5.374849461262556
 20
-2.702404460744308
 10
5.395602283977092
 20
-2.810313027734904
 10
5.410196760023028
 20
-2.919254930296536
 10
5.424763458231508
 20
-3.028196832858169
 10
5.435207925291706
 20
-3.137708181097107
 10
5.447441285114388
 20
-3.246975084362425
 10
5.449449622796187
 20
-3.248141753555299
 10
5.451455182694265
 20
-3.249280644910161
 10
5.453463520376645
 20
-3.250419536265313
 10
5.580011016615319
 20
-3.114405352861164
 10
5.70658351290836
 20
-2.978363391619041
 10
5.831447672169184
 20
-2.844196434437094
 10
5.816880973960754
 20
-3.131116500157254
 10
5.774075325716896
 20
-3.368800348154044
 10
5.384616149077399
 20
-3.654284299653442
 10
5.42169956270805
 20
-3.665839880230717
 10
5.457885752174534
 20
-3.674601010312497
 10
5.492146937472222
 20
-3.688245484301711
 10
5.626477783897674
 20
-3.741792822471426
 10
5.761080853135303
 20
-3.794881826315355
 10
5.893895029610449
 20
-3.852145839199566
 10
5.978367434743025
 20
-3.88854869580147
 10
6.059856500082408
 20
-3.883315351136275
 10
6.142998346778565
 20
-3.852201394875578
 10
6.16616506360866
 20
-3.843545820577851
 10
6.18132898533218
 20
-3.829251345181067
 10
6.194512347211811
 20
-3.807279075381782
 10
6.236912439021934
 20
-3.736667811374117
 10
6.300362576412503
 20
-3.701212179045519
 10
6.383993313055902
 20
-3.708537194906512
 10
6.472779616418493
 20
-3.716320545093291
 10
6.528660292973755
 20
-3.768270657582333
 10
6.560615917723655
 20
-3.847859718807677
 10
6.590618760467704
 20
-3.922701547531308
 10
6.579468736324164
 20
-3.994182257866037
 10
6.537938090841281
 20
-4.062296294244106
 10
6.531482521307225
 20
-4.072849094872128
 10
6.526679733129917
 20
-4.086249123887594
 10
6.526438065939955
 20
-4.098429705818161
 10
6.522882502685079
 20
-4.268677296681934
 10
6.476171290429116
 20
-4.42671930556124
 10
6.391426662484895
 20
-4.573500178945525
 10
6.322932069727054
 20
-4.692153213645952
 10
6.23430965560826
 20
-4.795345103756921
 10
6.129789984844542
 20
-4.882881404412956
 10
6.025323091973152
 20
-4.970367704960331
 10
5.914320073837366
 20
-5.049956766185763
 10
5.808392066690582
 20
-5.135784729809049
 10
5.74505026286829
 20
-5.187109840944761
 10
5.684719576677202
 20
-5.242421071822946
 10
5.625447226110888
 20
-5.298493415459941
 10
5.591594375030682
 20
-5.330529595939626
 10
5.585488806254362
 20
-5.377457475331741
 10
5.575155450546213
 20
-5.420454790657459
 10
5.552558179393119
 20
-5.51434110506284
 10
5.555188740644831
 20
-5.610288535042906
 10
5.556110964863819
 20
-5.705991520048807
 10
5.55665541048759
 20
-5.762958310067384
 10
5.556191520594186
 20
-5.819922322302268
 10
5.556191520594186
 20
-5.885244685968271
 10
5.594822159797432
 20
-5.872766881171982
 10
5.628458343742017
 20
-5.863705750440531
 10
5.660794524871386
 20
-5.851172389968775
 10
5.733928016562762
 20
-5.822825106365017
 10
5.792819810749657
 20
-5.773483332857343
 10
5.850789380716959
 20
-5.721997110262085
 10
5.886814458723342
 20
-5.690013707674148
 10
5.925253430844805
 20
-5.658463639357984
 10
5.967650744871207
 20
-5.636463591720485
 10
6.05746760602066
 20
-5.589888490870331
 10
6.116578845126847
 20
-5.614899656138428
 10
6.177748422023493
 20
-5.690366486215553
 10
6.236884661183947
 20
-5.763311088608766
 10
6.253515252750225
 20
-5.851608502024217
 10
6.248576353167057
 20
-5.943078144530369
 10
6.239543000273645
 20
-6.110450729169139
 10
6.161609498188631
 20
-6.245976022625755
 10
6.044637022682915
 20
-6.360831826881268
 10
5.916789523628924
 20
-6.486373765387498
 10
5.761922521624531
 20
-6.561243371949053
 10
5.587199921070755
 20
-6.596726782115915
 10
5.58505547198259
 20
-6.597132338549651
 10
5.583047134300791
 20
-6.598137896282146
 10
5.578816569584711
 20
-6.599629566178692
 10
5.584566582035373
 20
-6.806632792186317
 10
5.558797081791554
 20
-7.010058232668976
 10
5.496377502188301
 20
-7.208055883621151
 10
5.433877366854706
 20
-7.406270201708972
 10
5.337985492551221
 20
-7.586637258929259
 10
5.200179638600578
 20
-7.744515378564806
 10
5.233654711085061
 20
-7.759895967424477
 10
5.26512144588777
 20
-7.773784886387501
 10
5.296127068580669
 20
-7.788704363137387
 10
5.355752197688363
 20
-7.817404425282549
 10
5.400782850750198
 20
-7.860618407743837
 10
5.428805133649424
 20
-7.921410206044205
 10
5.461005203373538
 20
-7.991260357292831
 10
5.457288528658991
 20
-8.07744109945803
 10
5.375149461912188
 20
-8.138449564894598
 10
5.287638161310522
 20
-8.203419150019297
 10
5.189032392241264
 20
-8.240174785162782
 10
5.084432165747178
 20
-8.262744278477763
 10
4.830414949050287
 20
-8.317597175029935
 10
4.573958838183089
 20
-8.354705588715408
 10
4.313433274060218
 20
-8.341819449701234
 10
4.155691265830468
 20
-8.334008321676441
 10
3.997785368356896
 20
-8.321338849798723
 10
3.841262807212085
 20
-8.300938805625695
 10
3.676387450202936
 20
-8.27948320361194
 10
3.512839873846524
 20
-8.24739146745613
 10
3.349103408192529
 20
-8.217660847524206
 10
3.263572667434889
 20
-8.202171925096764
 10
3.179289151600225
 20
-8.179466320375923
 10
3.093594521598763
 20
-8.164710732869809
 10
3.050788873354943
 20
-8.157357939170627
 10
3.006166554510817
 20
-8.160152389666134
 10
2.962327570696213
 20
-8.159282943338944
 10
2.925571935552651
 20
-8.158524608363702
 10
2.888788522571253
 20
-8.159121831878842
 10
2.849916216177664
 20
-8.159121831878842
 10
2.88854407759748
 20
-8.042854913456443
 10
2.862121798162333
 20
-7.930115780450453
 10
2.850321772611412
 20
-7.814990531166485
 10
2.732699295698062
 20
-7.860998964123281
 10
2.612121256829318
 20
-7.897590710023021
 10
2.524773845471448
 20
-7.998802040289673
 10
2.502962687132051
 20
-7.956701949129208
 10
2.494201557050233
 20
-7.913082410234185
 10
2.490404326605699
 20
-7.869190648527491
 10
2.483051532906718
 20
-7.783904352743749
 10
2.47854874537898
 20
-7.698398612040187
 10
2.473720957147369
 20
-7.612951204796318
 10
2.472826510766115
 20
-7.597026170313433
 10
2.477029297644422
 20
-7.580859468640583
 10
2.477004297590345
 20
-7.5648261005899
 10
2.476948741914397
 20
-7.51475099216082
 10
2.44141255385576
 20
-7.493592613012525
 10
2.398065237772559
 20
-7.518170444009406
 10
2.340420668508702
 20
-7.550803848004711
 10
2.284620547683239
 20
-7.58625670254979
 10
2.23915656034972
 20
-7.635845698814844
 10
2.23693155553201
 20
-7.634951252433817
 10
2.234678772876274
 20
-7.634081806106628
 10
2.232456545842069
 20
-7.633187359725601
 10
2.256137152674
 20
-7.502164853796708
 10
2.279792759451639
 20
-7.371142347867791
 10
2.304640035476394
 20
-7.233717050297173
 10
2.202425925260488
 20
-7.274625472210674
 10
2.103764600515206
 20
-7.314067224281416
 10
2.002203269490577
 20
-7.354703423383322
 10
2.005594943501415
 20
-7.322883910039232
 10
2.007844948373418
 20
-7.288839391877167
 10
2.01305329298451
 20
-7.255203207932557
 10
2.028706104655776
 20
-7.154100211233703
 10
2.060336728701966
 20
-7.059130561149206
 10
2.125114646745083
 20
-6.977722051539583
 10
2.132303551200241
 20
-6.968688698646146
 10
2.140198012738791
 20
-6.960172013537986
 10
2.148225807899444
 20
-6.951869217781753
 10
2.161192502643265
 20
-6.938416410874626
 10
2.166861959363839
 20
-6.922763599203385
 10
2.159239720637161
 20
-6.905402450499397
 10
2.151481370504421
 20
-6.887688523254003
 10
2.136073003806814
 20
-6.879360727443933
 10
2.116786850935
 20
-6.87811350252102
 10
2.017556080512211
 20
-6.871682933041281
 10
1.924864213137413
 20
-6.889641305260309
 10
1.838952916000102
 20
-6.956860895257225
 10
1.905658615995435
 20
-6.774027166029049
 10
2.033289447913552
 20
-6.640454654578737
 10
2.14871469784695
 20
-6.494784894711579
 10
1.995772700010826
 20
-6.461607045093008
 10
1.844000149151346
 20
-6.440259776646548
 10
1.683299801182481
 20
-6.436243101282419
 10
1.717588764318192
 20
-6.39403467655413
 10
1.747374939926127
 20
-6.355242925890782
 10
1.779355564730117
 20
-6.318378957179422
 10
1.91865308857723
 20
-6.157786942778102
 10
2.077806210973525
 20
-6.017678306063999
 10
2.235628774933287
 20
-5.876075221669073
 10
2.278137200311246
 20
-5.837908472359307
 10
2.318473398763457
 20
-5.797813941096946
 10
2.36936517562746
 20
-5.770497215280531
 10
2.424187516558075
 20
-5.741094373835671
 10
2.482943199338883
 20
-5.724274892971809
 10
2.544496110398869
 20
-5.715999875053537
 10
2.544846111156656
 20
-5.714019315209776
 10
2.545226667536301
 20
-5.712066533203445
 10
2.54557944607801
 20
-5.710113751197089
 10
2.499004345227616
 20
-5.695410941582799
 10
2.452698689405123
 20
-5.679733129857797
 10
2.405768032229338
 20
-5.66614143376066
 10
2.290559449431751
 20
-5.632749694789632
 10
2.173778641007389
 20
-5.642080270549008
 10
2.056672831879534
 20
-5.653499739720498
 10
2.00456438571435
 20
-5.658599750763793
 10
1.951992049655701
 20
-5.659008084981224
 10
1.899583602841113
 20
-5.661177534123175
 10
1.87961689293997
 20
-5.662044202666114
 10
1.869308537285633
 20
-5.649919176411786
 10
1.873839102651333
 20
-5.632069137760582
 10
1.878803002288552
 20
-5.612457984184857
 10
1.886236351717609
 20
-5.591869050714118
 10
1.898116932998581
 20
-5.575810682609068
 10
1.98096155682875
 20
-5.4638298845789
 10
2.085753450404127
 20
-5.374799136242599
 10
2.205356487161553
 20
-5.305843431374948
 10
2.336703993794167
 20
-5.230132156324165
 10
2.472718177198292
 20
-5.162532009947881
 10
2.606724022920364
 20
-5.091406855938835
 10
2.624735173031442
 20
-5.081831835205876
 10
2.64280187881852
 20
-5.072309592364667
 10
2.659946360386382
 20
-5.057526227020591
 10
2.47024872740672
 20
-5.046648425688671
 10
2.280578872264969
 20
-5.035795624411043
 10
2.084072891209644
 20
-5.024540044483325
 10
2.106506273118637
 20
-4.990114969941866
 10
2.124925757447222
 20
-4.957317676702738
 10
2.147628584384077
 20
-4.927831501744397
 10
2.2069564906262
 20
-4.850792446040916
 10
2.283426100652365
 20
-4.791439539744841
 10
2.358865152891503
 20
-4.731622743554681
 10
2.513109931326325
 20
-4.609308589815757
 10
2.681296406616222
 20
-4.507311146735977
 10
2.846957876438586
 20
-4.40173591813113
 10
2.891121860957077
 20
-4.373577523825563
 10
2.935608068395406
 20
-4.345935797305211
 10
2.979797052967759
 20
-4.317830180891936
 10
2.985358176120523
 20
-4.314332951097236
 10
2.99002485289207
 20
-4.309421829351663
 10
2.999410984327382
 20
-4.301527367813277
 10
2.986580400989422
 20
-4.29512735395527
 10
2.978035938043263
 20
-4.288669006637519
 10
2.968485917364319
 20
-4.286446779603263
 10
2.802905003272018
 20
-4.247546695372029
 10
2.637865757019098
 20
-4.206041049942971
 10
2.471251507355797
 20
-4.172240976754653
 10
2.40948470694386
 20
-4.159710394066451
 10
2.343973453979389
 20
-4.165379850787278
 10
2.28171776361992
 20
-4.162802067427492
 10
2.285623327632291
 20
-4.159329837686983
 10
2.292812232087499
 20
-4.152060377501735
 10
2.300895582923911
 20
-4.145982586563504
 10
2.422695846661289
 20
-4.054024054109719
 10
2.555915579570132
 20
-3.982518343721065
 10
2.696838106935729
 20
-3.924629329483524
 10
2.832663401042004
 20
-3.868856986495846
 10
2.968241472390686
 20
-3.812379086424875
 10
3.104011210820949
 20
-3.756387298517641
 10
3.131600159448958
 20
-3.745023385022149
 10
3.160002998728171
 20
-3.735609475749028
 10
3.187100279625004
 20
-3.723240004520764
 10
3.201558644265383
 20
-3.716620545742949
 10
3.208722548666489
 20
-3.70227051467057
 10
3.203539204109448
 20
-3.686401035863456
 10
3.200908642858002
 20
-3.678209351458981
 10
3.194019739052212
 20
-3.668173218616503
 10
3.186586389623193
 20
-3.665242656715185
 10
3.094844524305421
 20
-3.629325912277106
 10
3.003641549043487
 20
-3.591728608644366
 10
2.910327458099068
 20
-3.56026187384196
 10
2.814352250281281
 20
-3.527872914820275
 10
2.71626037121358
 20
-3.501775636089064
 10
2.619093494148829
 20
-3.472858906808066
 10
2.616949045060955
 20
-3.472208905400685
 10
2.615024040892624
 20
-3.470850569126191
 10
2.610168474823215
 20
-3.468356119280353
 10
2.620043496205843
 20
-3.460678324877689
 10
2.628776848449661
 20
-3.453925532477923
 10
2.637485200639528
 20
-3.447142184456298
 10
2.71604370407772
 20
-3.386053163289741
 10
2.807163345826085
 20
-3.355725319842223
 10
2.903110775805885
 20
-3.335164164209484
 10
3.025452707382846
 20
-3.308958551910223
 10
3.148825196746871
 20
-3.290241844715764
 10
3.273444911033809
 20
-3.280747379712807
 10
3.44795362223566
 20
-3.267455684265074
 10
3.622623444897347
 20
-3.256061215147888
 10
3.797209934045289
 20
-3.243800077487448
 10
3.801007164489887
 20
-3.243527854675828
 10
3.804779394880143
 20
-3.242825075376357
 10
3.813921081341643
 20
-3.241630628345534
 97
        0
 97
        0
 92
        1
 93
        1
 72
     4
 94
        3
 73
     0
 74
     1
 95
      137
 96
      133
 40
0.0
 40
0.0
 40
0.0
 40
0.0
 40
1.0
 40
1.0
 40
1.0
 40
2.0
 40
2.0
 40
2.0
 40
3.0
 40
3.0
 40
3.0
 40
4.0
 40
4.0
 40
4.0
 40
5.0
 40
5.0
 40
5.0
 40
6.0
 40
6.0
 40
6.0
 40
7.0
 40
7.0
 40
7.0
 40
8.0
 40
8.0
 40
8.0
 40
9.0
 40
9.0
 40
9.0
 40
10.0
 40
10.0
 40
10.0
 40
11.0
 40
11.0
 40
11.0
 40
12.0
 40
12.0
 40
12.0
 40
13.0
 40
13.0
 40
13.0
 40
14.0
 40
14.0
 40
14.0
 40
15.0
 40
15.0
 40
15.0
 40
16.0
 40
16.0
 40
16.0
 40
17.0
 40
17.0
 40
17.0
 40
18.0
 40
18.0
 40
18.0
 40
19.0
 40
19.0
 40
19.0
 40
20.0
 40
20.0
 40
20.0
 40
21.0
 40
21.0
 40
21.0
 40
22.0
 40
22.0
 40
22.0
 40
23.0
 40
23.0
 40
23.0
 40
24.0
 40
24.0
 40
24.0
 40
25.0
 40
25.0
 40
25.0
 40
26.0
 40
26.0
 40
26.0
 40
27.0
 40
27.0
 40
27.0
 40
28.0
 40
28.0
 40
28.0
 40
29.0
 40
29.0
 40
29.0
 40
30.0
 40
30.0
 40
30.0
 40
31.0
 40
31.0
 40
31.0
 40
32.0
 40
32.0
 40
32.0
 40
33.0
 40
33.0
 40
33.0
 40
34.0
 40
34.0
 40
34.0
 40
35.0
 40
35.0
 40
35.0
 40
36.0
 40
36.0
 40
36.0
 40
37.0
 40
37.0
 40
37.0
 40
38.0
 40
38.0
 40
38.0
 40
39.0
 40
39.0
 40
39.0
 40
40.0
 40
40.0
 40
40.0
 40
41.0
 40
41.0
 40
41.0
 40
42.0
 40
42.0
 40
42.0
 40
43.0
 40
43.0
 40
43.0
 40
44.0
 40
44.0
 40
44.0
 40
44.0
 10
6.03826200887867
 20
-5.807391739613599
 10
6.011081394468596
 20
-5.828061228814122
 10
5.986586896985222
 20
-5.846236268169301
 10
5.962578511665924
 20
-5.865116864607317
 10
5.918336749201544
 20
-5.899866939852775
 10
5.876886659448423
 20
-5.938792024138264
 10
5.8299282244346
 20
-5.969255978991618
 10
5.697958494232353
 20
-6.054786719748941
 10
5.550224841007346
 20
-6.076597878088301
 10
5.39606339608632
 20
-6.068406193684116
 10
5.380899474362852
 20
-6.067592303032925
 10
5.376260575429316
 20
-6.06146173420287
 10
5.376532798240961
 20
-6.047111703129985
 10
5.37699391035014
 20
-6.022425538565307
 10
5.376532798240961
 20
-5.997711596162591
 10
5.375663351913746
 20
-5.973028209382189
 10
5.368610558864121
 20
-5.773102776477925
 10
5.367824446050943
 20
-5.573341232817508
 10
5.394218947648343
 20
-5.374529691214648
 10
5.405613416765542
 20
-5.288835061212922
 10
5.437241263027797
 20
-5.210546002802781
 10
5.503974740861117
 20
-5.153634768460253
 10
5.598322167376333
 20
-5.073123483015832
 10
5.695677933738933
 20
-4.996081649528681
 10
5.793417034264672
 20
-4.9196120395022
 10
5.928317326368263
 20
-4.814034033113658
 10
6.060128722894029
 20
-4.705933799041254
 10
6.17072340681236
 20
-4.57336684532341
 10
6.273073628434101
 20
-4.450672135205068
 10
6.321248732748674
 20
-4.309016272918281
 10
6.338176547180915
 20
-4.150107595495456
 10
6.263523607754955
 20
-4.141752021847386
 10
6.214531835005017
 20
-4.098132482952362
 10
6.180678983924761
 20
-4.0364990161623
 10
6.149701139069874
 20
-4.043499031319596
 10
6.120701076275105
 20
-4.051012936478616
 10
6.091351012722649
 20
-4.056518503955456
 10
6.015503626266005
 20
-4.070651867892189
 10
5.940445130406816
 20
-4.066637970311868
 10
5.868883864341797
 20
-4.037124017515717
 10
5.798517045307941
 20
-4.008123954721112
 10
5.730183564010253
 20
-3.974079436559072
 10
5.660088967787993
 20
-3.944268260897097
 10
5.502291403882787
 20
-3.877157004468169
 10
5.339177161798134
 20
-3.826918006795318
 10
5.170476796506642
 20
-3.795667939128773
 10
5.158785104523505
 20
-3.793498489986582
 10
5.144162850639582
 20
-3.796048495508229
 10
5.133448938551459
 20
-3.801417951579411
 10
5.067340462071696
 20
-3.834784690495869
 10
5.009912559943359
 20
-3.88038478923497
 10
4.962143012062016
 20
-3.936457132872306
 10
4.807901011411205
 20
-4.117554747229986
 10
4.74659254532508
 20
-4.33131354342125
 10
4.748111993059663
 20
-4.565416828109114
 10
4.748520327277093
 20
-4.633208641567282
 10
4.75405367259216
 20
-4.701106010809578
 10
4.759695351474445
 20
-4.768733935023925
 10
4.771848155567366
 20
-4.914784251270526
 10
4.786009297342085
 20
-5.06067067827386
 10
4.79856765786816
 20
-5.206695994466145
 10
4.810884351204322
 20
-5.349543526000338
 10
4.825206604439194
 20
-5.49231327958786
 10
4.833181621707809
 20
-5.635433033933698
 10
4.841537195355841
 20
-5.785636136950264
 10
4.845470537205958
 20
-5.936189240724565
 10
4.847614986294123
 20
-6.086634010931069
 10
4.851926106739989
 20
-6.388745776213277
 10
4.838934411942116
 20
-6.689446427328676
 10
4.773937048979506
 20
-6.986213736593426
 10
4.738075860216895
 20
-7.150005757923458
 10
4.692203538665908
 20
-7.310350549566894
 10
4.621106162494899
 20
-7.462178656102196
 10
4.535194865357576
 20
-7.645612386629611
 10
4.402950134560013
 20
-7.78981825443821
 10
4.232080320126594
 20
-7.897754599266868
 10
4.086924450260969
 20
-7.989443686692361
 10
3.928965774895346
 20
-8.051074375698665
 10
3.761782079554753
 20
-8.089485569982646
 10
3.750659833249188
 20
-8.092010575450178
 10
3.739729254025178
 20
-8.095427249515069
 10
3.728743119125713
 20
-8.098466144984235
 10
3.773962661485118
 20
-8.109913391993258
 10
3.818748869573028
 20
-8.116749517906731
 10
3.863535077660938
 20
-8.123585643820281
 10
4.020763195889142
 20
-8.14767458486982
 10
4.178666315578741
 20
-8.163380174432884
 10
4.337847215813276
 20
-8.167449627689317
 10
4.468055831090674
 20
-8.170785746023915
 10
4.596528331498019
 20
-8.154182932295674
 10
4.725245276879201
 20
-8.139427344789585
 10
4.895628979149074
 20
-8.119921746997989
 10
5.063679343032618
 20
-8.089893904200101
 10
5.22302135472728
 20
-8.023160426366783
 10
5.237099162987962
 20
-8.017274302510259
 10
5.249768634866111
 20
-8.008107615994732
 10
5.26525755729358
 20
-7.999207596723434
 10
5.217243564438604
 20
-7.948426931211012
 10
5.162012889290231
 20
-7.922521319561333
 10
5.101412758071192
 20
-7.907846287785105
 10
5.014795903851058
 20
-7.886876797934923
 10
4.926687379733746
 20
-7.891651808274294
 10
4.838798300536306
 20
-7.896262929370247
 10
4.81715103144082
 20
-7.897401820724932
 10
4.795556540237031
 20
-7.898757379215693
 10
4.773937048979506
 20
-7.900032381976593
 10
4.811562130449702
 20
-7.863004524021435
 10
4.850867771115215
 20
-7.832079457058803
 10
4.88792340690841
 20
-7.798632162411877
 10
5.002779211163948
 20
-7.694981937975298
 10
5.105154432840057
 20
-7.580670579342571
 10
5.188571280131504
 20
-7.449484184170236
 10
5.263793665235021
 20
-7.331183928011265
 10
5.316743779888863
 20
-7.20415031960849
 10
5.347777180419775
 20
-7.067755579825163
 10
5.382527255665233
 20
-6.915085804800709
 10
5.394680059757572
 20
-6.760002135660139
 10
5.394816171163383
 20
-6.603779575164985
 10
5.394868949055737
 20
-6.546921118714762
 10
5.394816171163383
 20
-6.490062662264007
 10
5.394816171163383
 20
-6.433423650733099
 10
5.439249600709596
 20
-6.429951420992211
 10
5.48091635759887
 20
-6.42900141893521
 10
5.521877557404196
 20
-6.423034739348926
 10
5.665241756723617
 20
-6.40209024955253
 10
5.791055918041416
 20
-6.3421151196871
 10
5.89934781919515
 20
-6.246276023274807
 10
5.98205633161951
 20
-6.173086975907987
 10
6.045342579766283
 20
-6.087014567311067
 10
6.063600952634943
 20
-5.974980991387938
 10
6.072687083420178
 20
-5.919341982022691
 10
6.067398183079275
 20
-5.864491863254291
 10
6.03826200887867
 20
-5.807391739613599
 97
        0
 97
        0
 75
     0
 76
     1
 98
        0
  0
SPLINE
  5
4F
330
48
100
AcDbEntity
  8
Layer 1
370
     0
100
AcDbSpline
210
0.0
220
0.0
230
1.0
 70
    11
 71
     3
 72
    20
 73
    16
 74
     0
 42
0.0000000001
 43
0.0000000001
 12
1.0
 22
0.0
 32
0.0
 13
1.0
 23
0.0
 33
0.0
 40
0.0
 40
0.0
 40
0.0
 40
0.0
 40
1.0
 40
1.0
 40
1.0
 40
2.0
 40
2.0
 40
2.0
 40
3.0
 40
3.0
 40
3.0
 40
4.0
 40
4.0
 40
4.0
 40
5.0
 40
5.0
 40
5.0
 40
5.0
 10
5.265557557943212
 20
-4.236180004092451
 30
0.0
 10
5.268649231304127
 20
-4.16131039753082
 30
0.0
 10
5.286688159253496
 20
-4.108874172878371
 30
0.0
 10
5.342407724348529
 20
-4.082071337063667
 30
0.0
 10
5.42766624229484
 20
-4.041029581528038
 30
0.0
 10
5.508341416983082
 20
-4.097154703057362
 30
0.0
 10
5.528063681910276
 20
-4.18566878360827
 30
0.0
 10
5.544555384287074
 20
-4.259752277356673
 30
0.0
 10
5.497327504245302
 20
-4.339424672095674
 30
0.0
 10
5.426146794560256
 20
-4.363919169578568
 30
0.0
 10
5.382118921447803
 20
-4.37911086914005
 30
0.0
 10
5.315360443560672
 20
-4.353124701760635
 30
0.0
 10
5.291271502510981
 20
-4.307305158101952
 30
0.0
 10
5.277357583494146
 20
-4.28083010077474
 30
0.0
 10
5.270574235472446
 20
-4.250582813057008
 30
0.0
 10
5.265557557943212
 20
-4.236180004092451
 30
0.0
  0
HATCH
  5
50
330
48
100
AcDbEntity
  8
Layer 1
 62
   250
420
  2301728
100
AcDbHatch
 10
0.0
 20
0.0
 30
0.0
210
0.0
220
0.0
230
1.0
  2
SOLID
 70
     1
 71
     0
 91
        1
 92
        1
 93
        1
 72
     4
 94
        3
 73
     0
 74
     1
 95
       20
 96
       16
 40
0.0
 40
0.0
 40
0.0
 40
0.0
 40
1.0
 40
1.0
 40
1.0
 40
2.0
 40
2.0
 40
2.0
 40
3.0
 40
3.0
 40
3.0
 40
4.0
 40
4.0
 40
4.0
 40
5.0
 40
5.0
 40
5.0
 40
5.0
 10
5.265557557943212
 20
-4.236180004092451
 10
5.268649231304127
 20
-4.16131039753082
 10
5.286688159253496
 20
-4.108874172878371
 10
5.342407724348529
 20
-4.082071337063667
 10
5.42766624229484
 20
-4.041029581528038
 10
5.508341416983082
 20
-4.097154703057362
 10
5.528063681910276
 20
-4.18566878360827
 10
5.544555384287074
 20
-4.259752277356673
 10
5.497327504245302
 20
-4.339424672095674
 10
5.426146794560256
 20
-4.363919169578568
 10
5.382118921447803
 20
-4.37911086914005
 10
5.315360443560672
 20
-4.353124701760635
 10
5.291271502510981
 20
-4.307305158101952
 10
5.277357583494146
 20
-4.28083010077474
 10
5.270574235472446
 20
-4.250582813057008
 10
5.265557557943212
 20
-4.236180004092451
 97
        0
 97
        0
 75
     0
 76
     1
 98
        0
  0
ENDBLK
  5
4B
330
48
100
AcDbEntity
  8
0
100
AcDbBlockEnd
  0
ENDSEC
  0
SECTION
  2
ENTITIES
  0
POLYLINE
  5
41
330
1F
100
AcDbEntity
  8
Layer 1
 62
   250
420
  2301728
370
    35
100
AcDb2dPolyline
 66
     1
 10
0.0
 20
0.0
 30
0.0
  0
VERTEX
  5
42
330
41
100
AcDbEntity
  8
Layer 1
 62
   250
420
  2301728
370
    35
100
AcDbVertex
100
AcDb2dVertex
 10
8.38888888058131
 20
-9.323550907735553
 30
0.0
  0
VERTEX
  5
43
330
41
100
AcDbEntity
  8
Layer 1
 62
   250
420
  2301728
370
    35
100
AcDbVertex
100
AcDb2dVertex
 10
0.1111111028035465
 20
-9.323550907735553
 30
0.0
  0
VERTEX
  5
44
330
41
100
AcDbEntity
  8
Layer 1
 62
   250
420
  2301728
370
    35
100
AcDbVertex
100
AcDb2dVertex
 10
0.1111111028035465
 20
-1.365217574402221
 30
0.0
  0
VERTEX
  5
45
330
41
100
AcDbEntity
  8
Layer 1
 62
   250
420
  2301728
370
    35
100
AcDbVertex
100
AcDb2dVertex
 10
8.38888888058131
 20
-1.365217574402221
 30
0.0
  0
VERTEX
  5
46
330
41
100
AcDbEntity
  8
Layer 1
 62
   250
420
  2301728
370
    35
100
AcDbVertex
100
AcDb2dVertex
 10
8.38888888058131
 20
-9.323550907735553
 30
0.0
  0
SEQEND
  5
47
330
41
100
AcDbEntity
  8
Layer 1
 62
   250
420
  2301728
370
    35
  0
INSERT
  5
49
330
1F
100
AcDbEntity
  8
Layer 1
100
AcDbBlockReference
  2
block 2
 10
0.0
 20
0.0
 30
0.0
  0
ENDSEC
  0
SECTION
  2
OBJECTS
  0
DICTIONARY
  5
C
330
0
100
AcDbDictionary
281
     1
  3
ACAD_GROUP
350
D
  3
ACAD_LAYOUT
350
1A
  3
ACAD_MATERIAL
350
3B
  3
ACAD_MLEADERSTYLE
350
52
  3
ACAD_MLINESTYLE
350
17
  3
ACAD_PLOTSETTINGS
350
19
  3
ACAD_PLOTSTYLENAME
350
E
  3
ACAD_TABLESTYLE
350
51
  3
ACAD_VISUALSTYLE
350
2A
  0
SUN
  5
3F
330
29
100
AcDbSun
 90
        1
290
     0
 63
     7
421
 16777215
 40
1.0
291
     1
 91
  2455826
 92
 54000000
292
     0
 70
     2
 71
   256
280
     1
  0
DICTIONARY
  5
D
102
{ACAD_REACTORS
330
C
102
}
330
C
100
AcDbDictionary
281
     1
  0
DICTIONARY
  5
1A
102
{ACAD_REACTORS
330
C
102
}
330
C
100
AcDbDictionary
281
     1
  3
Layout1
350
1E
  3
Layout2
350
26
  3
Model
350
22
  0
DICTIONARY
  5
3B
102
{ACAD_REACTORS
330
C
102
}
330
C
100
AcDbDictionary
281
     1
  3
ByBlock
350
3D
  3
ByLayer
350
3C
  3
Global
350
3E
  0
DICTIONARY
  5
52
102
{ACAD_REACTORS
330
C
102
}
330
C
100
AcDbDictionary
281
     1
  0
DICTIONARY
  5
17
102
{ACAD_REACTORS
330
C
102
}
330
C
100
AcDbDictionary
281
     1
  3
Standard
350
18
  0
DICTIONARY
  5
19
102
{ACAD_REACTORS
330
C
102
}
330
C
100
AcDbDictionary
281
     1
  0
ACDBDICTIONARYWDFLT
  5
E
102
{ACAD_REACTORS
330
C
102
}
330
C
100
AcDbDictionary
281
     1
  3
Normal
350
F
100
AcDbDictionaryWithDefault
340
F
  0
DICTIONARY
  5
51
102
{ACAD_REACTORS
330
C
102
}
330
C
100
AcDbDictionary
281
     1
  0
DICTIONARY
  5
2A
102
{ACAD_REACTORS
330
C
102
}
330
C
100
AcDbDictionary
281
     1
  3
2dWireframe
350
2F
  3
3D Hidden
350
31
  3
3dWireframe
350
30
  3
Basic
350
32
  3
Brighten
350
36
  3
ColorChange
350
3A
  3
Conceptual
350
34
  3
Dim
350
35
  3
Facepattern
350
39
  3
Flat
350
2B
  3
FlatWithEdges
350
2C
  3
Gouraud
350
2D
  3
GouraudWithEdges
350
2E
  3
Linepattern
350
38
  3
Realistic
350
33
  3
Thicken
350
37
  0
LAYOUT
  5
1E
102
{ACAD_REACTORS
330
1A
102
}
330
1A
100
AcDbPlotSettings
  1

  2
none_device
  4

  6

 40
0.0
 41
0.0
 42
0.0
 43
0.0
 44
0.0
 45
0.0
 46
0.0
 47
0.0
 48
0.0
 49
0.0
140
0.0
141
0.0
142
1.0
143
1.0
 70
   688
 72
     0
 73
     0
 74
     5
  7

 75
    16
 76
     0
 77
     2
 78
   300
147
1.0
148
0.0
149
0.0
100
AcDbLayout
  1
Layout1
 70
     1
 71
     1
 10
0.0
 20
0.0
 11
12.0
 21
9.0
 12
0.0
 22
0.0
 32
0.0
 14
1.000000000000000E+20
 24
1.000000000000000E+20
 34
1.000000000000000E+20
 15
-1.000000000000000E+20
 25
-1.000000000000000E+20
 35
-1.000000000000000E+20
146
0.0
 13
0.0
 23
0.0
 33
0.0
 16
1.0
 26
0.0
 36
0.0
 17
0.0
 27
1.0
 37
0.0
 76
     0
330
1B
  0
LAYOUT
  5
26
102
{ACAD_REACTORS
330
1A
102
}
330
1A
100
AcDbPlotSettings
  1

  2
none_device
  4

  6

 40
0.0
 41
0.0
 42
0.0
 43
0.0
 44
0.0
 45
0.0
 46
0.0
 47
0.0
 48
0.0
 49
0.0
140
0.0
141
0.0
142
1.0
143
1.0
 70
   688
 72
     0
 73
     0
 74
     5
  7

 75
    16
 76
     0
 77
     2
 78
   300
147
1.0
148
0.0
149
0.0
100
AcDbLayout
  1
Layout2
 70
     1
 71
     2
 10
0.0
 20
0.0
 11
0.0
 21
0.0
 12
0.0
 22
0.0
 32
0.0
 14
0.0
 24
0.0
 34
0.0
 15
0.0
 25
0.0
 35
0.0
146
0.0
 13
0.0
 23
0.0
 33
0.0
 16
1.0
 26
0.0
 36
0.0
 17
0.0
 27
1.0
 37
0.0
 76
     0
330
23
  0
LAYOUT
  5
22
102
{ACAD_REACTORS
330
1A
102
}
330
1A
100
AcDbPlotSettings
  1

  2
none_device
  4

  6

 40
0.0
 41
0.0
 42
0.0
 43
0.0
 44
0.0
 45
0.0
 46
0.0
 47
0.0
 48
0.0
 49
0.0
140
0.0
141
0.0
142
1.0
143
1.0
 70
  1712
 72
     0
 73
     0
 74
     0
  7

 75
     0
 76
     0
 77
     2
 78
   300
147
1.0
148
0.0
149
0.0
100
AcDbLayout
  1
Model
 70
     1
 71
     0
 10
0.0
 20
0.0
 11
12.0
 21
9.0
 12
0.0
 22
0.0
 32
0.0
 14
1.000000000000000E+20
 24
1.000000000000000E+20
 34
1.000000000000000E+20
 15
-1.000000000000000E+20
 25
-1.000000000000000E+20
 35
-1.000000000000000E+20
146
0.0
 13
0.0
 23
0.0
 33
0.0
 16
1.0
 26
0.0
 36
0.0
 17
0.0
 27
1.0
 37
0.0
 76
     0
330
1F
331
29
  0
MATERIAL
  5
3D
102
{ACAD_REACTORS
330
3B
102
}
330
3B
100
AcDbMaterial
  1
ByBlock
 72
     1
 94
      127
  0
MATERIAL
  5
3C
102
{ACAD_REACTORS
330
3B
102
}
330
3B
100
AcDbMaterial
  1
ByLayer
 72
     1
 94
      127
  0
MATERIAL
  5
3E
102
{ACAD_REACTORS
330
3B
102
}
330
3B
100
AcDbMaterial
  1
Global
 72
     1
 94
      127
  0
MLINESTYLE
  5
18
102
{ACAD_REACTORS
330
17
102
}
330
17
100
AcDbMlineStyle
  2
Standard
 70
     0
  3

 62
   256
 51
90.0
 52
90.0
 71
     2
 49
0.5
 62
   256
  6
BYLAYER
 49
-0.5
 62
   256
  6
BYLAYER
  0
ACDBPLACEHOLDER
  5
F
102
{ACAD_REACTORS
330
E
102
}
330
E
  0
VISUALSTYLE
  5
2F
102
{ACAD_REACTORS
330
2A
102
}
330
2A
100
AcDbVisualStyle
  2
2dWireframe
 70
     4
177
     2
291
     0
 71
     0
176
     1
 72
     2
176
     1
 73
     0
176
     1
 90
        0
176
     1
 40
-0.6
176
     1
 41
-30.0
176
     1
 62
     5
 63
     7
421
 16777215
176
     1
 74
     1
176
     1
 91
        4
176
     1
 64
     7
176
     1
 65
   257
176
     1
 75
     1
176
     1
175
     1
176
     1
 42
1.0
176
     1
 92
        0
176
     1
 66
   257
176
     1
 43
1.0
176
     1
 76
     1
176
     1
 77
     6
176
     1
 78
     2
176
     1
 67
     7
176
     1
 79
     5
176
     1
170
     0
176
     1
171
     0
176
     1
290
     0
176
     1
 93
        1
176
     1
 44
0.0
176
     1
173
     0
176
     1
  0
VISUALSTYLE
  5
31
102
{ACAD_REACTORS
330
2A
102
}
330
2A
100
AcDbVisualStyle
  2
3D Hidden
 70
     6
177
     2
291
     0
 71
     1
176
     1
 72
     2
176
     1
 73
     2
176
     1
 90
        0
176
     1
 40
-0.6
176
     1
 41
-30.0
176
     1
 62
     5
 63
     7
421
 16777215
176
     1
 74
     2
176
     1
 91
        2
176
     1
 64
     7
176
     1
 65
   257
176
     1
 75
     2
176
     1
175
     1
176
     1
 42
40.0
176
     1
 92
        0
176
     1
 66
   257
176
     1
 43
1.0
176
     1
 76
     1
176
     1
 77
     6
176
     1
 78
     2
176
     1
 67
     7
176
     1
 79
     3
176
     1
170
     0
176
     1
171
     0
176
     1
290
     0
176
     1
 93
        1
176
     1
 44
0.0
176
     1
173
     0
176
     1
  0
VISUALSTYLE
  5
30
102
{ACAD_REACTORS
330
2A
102
}
330
2A
100
AcDbVisualStyle
  2
3dWireframe
 70
     5
177
     2
291
     0
 71
     0
176
     1
 72
     2
176
     1
 73
     0
176
     1
 90
        0
176
     1
 40
-0.6
176
     1
 41
-30.0
176
     1
 62
     5
 63
     7
421
 16777215
176
     1
 74
     1
176
     1
 91
        4
176
     1
 64
     7
176
     1
 65
   257
176
     1
 75
     1
176
     1
175
     1
176
     1
 42
1.0
176
     1
 92
        0
176
     1
 66
   257
176
     1
 43
1.0
176
     1
 76
     1
176
     1
 77
     6
176
     1
 78
     2
176
     1
 67
     7
176
     1
 79
     5
176
     1
170
     0
176
     1
171
     0
176
     1
290
     0
176
     1
 93
        1
176
     1
 44
0.0
176
     1
173
     0
176
     1
  0
VISUALSTYLE
  5
32
102
{ACAD_REACTORS
330
2A
102
}
330
2A
100
AcDbVisualStyle
  2
Basic
 70
     7
177
     2
291
     1
 71
     1
176
     1
 72
     0
176
     1
 73
     1
176
     1
 90
        0
176
     1
 40
-0.6
176
     1
 41
-30.0
176
     1
 62
     5
 63
     7
421
 16777215
176
     1
 74
     0
176
     1
 91
        4
176
     1
 64
     7
176
     1
 65
   257
176
     1
 75
     1
176
     1
175
     1
176
     1
 42
1.0
176
     1
 92
        8
176
     1
 66
     7
176
     1
 43
1.0
176
     1
 76
     1
176
     1
 77
     6
176
     1
 78
     2
176
     1
 67
     7
176
     1
 79
     5
176
     1
170
     0
176
     1
171
     0
176
     1
290
     0
176
     1
 93
        1
176
     1
 44
0.0
176
     1
173
     0
176
     1
  0
VISUALSTYLE
  5
36
102
{ACAD_REACTORS
330
2A
102
}
330
2A
100
AcDbVisualStyle
  2
Brighten
 70
    12
177
     2
291
     1
 71
     2
176
     1
 72
     2
176
     1
 73
     0
176
     1
 90
        0
176
     1
 40
-0.6
176
     1
 41
-30.0
176
     1
 62
     5
 63
     7
421
 16777215
176
     1
 74
     1
176
     1
 91
        4
176
     1
 64
     7
176
     1
 65
   257
176
     1
 75
     1
176
     1
175
     1
176
     1
 42
1.0
176
     1
 92
        8
176
     1
 66
     7
176
     1
 43
1.0
176
     1
 76
     1
176
     1
 77
     6
176
     1
 78
     2
176
     1
 67
     7
176
     1
 79
     5
176
     1
170
     0
176
     1
171
     0
176
     1
290
     0
176
     1
 93
        1
176
     1
 44
50.0
176
     1
173
     0
176
     1
  0
VISUALSTYLE
  5
3A
102
{ACAD_REACTORS
330
2A
102
}
330
2A
100
AcDbVisualStyle
  2
ColorChange
 70
    16
177
     2
291
     1
 71
     2
176
     1
 72
     2
176
     1
 73
     3
176
     1
 90
        0
176
     1
 40
-0.6
176
     1
 41
-30.0
176
     1
 62
     5
 63
     8
421
  8421504
176
     1
 74
     1
176
     1
 91
        4
176
     1
 64
     7
176
     1
 65
   257
176
     1
 75
     1
176
     1
175
     1
176
     1
 42
1.0
176
     1
 92
        8
176
     1
 66
     8
424
  8421504
176
     1
 43
1.0
176
     1
 76
     1
176
     1
 77
     6
176
     1
 78
     2
176
     1
 67
     7
176
     1
 79
     5
176
     1
170
     0
176
     1
171
     0
176
     1
290
     0
176
     1
 93
        1
176
     1
 44
0.0
176
     1
173
     0
176
     1
  0
VISUALSTYLE
  5
34
102
{ACAD_REACTORS
330
2A
102
}
330
2A
100
AcDbVisualStyle
  2
Conceptual
 70
     9
177
     2
291
     0
 71
     3
176
     1
 72
     2
176
     1
 73
     0
176
     1
 90
        0
176
     1
 40
-0.6
176
     1
 41
-30.0
176
     1
 62
     5
 63
     7
421
 16777215
176
     1
 74
     2
176
     1
 91
        2
176
     1
 64
     7
176
     1
 65
   257
176
     1
 75
     1
176
     1
175
     1
176
     1
 42
40.0
176
     1
 92
        8
176
     1
 66
     7
176
     1
 43
1.0
176
     1
 76
     1
176
     1
 77
     6
176
     1
 78
     2
176
     1
 67
     7
176
     1
 79
     3
176
     1
170
     0
176
     1
171
     0
176
     1
290
     0
176
     1
 93
        1
176
     1
 44
0.0
176
     1
173
     0
176
     1
  0
VISUALSTYLE
  5
35
102
{ACAD_REACTORS
330
2A
102
}
330
2A
100
AcDbVisualStyle
  2
Dim
 70
    11
177
     2
291
     1
 71
     2
176
     1
 72
     2
176
     1
 73
     0
176
     1
 90
        0
176
     1
 40
-0.6
176
     1
 41
-30.0
176
     1
 62
     5
 63
     7
421
 16777215
176
     1
 74
     1
176
     1
 91
        4
176
     1
 64
     7
176
     1
 65
   257
176
     1
 75
     1
176
     1
175
     1
176
     1
 42
1.0
176
     1
 92
        8
176
     1
 66
     7
176
     1
 43
1.0
176
     1
 76
     1
176
     1
 77
     6
176
     1
 78
     2
176
     1
 67
     7
176
     1
 79
     5
176
     1
170
     0
176
     1
171
     0
176
     1
290
     0
176
     1
 93
        1
176
     1
 44
-50.0
176
     1
173
     0
176
     1
  0
VISUALSTYLE
  5
39
102
{ACAD_REACTORS
330
2A
102
}
330
2A
100
AcDbVisualStyle
  2
Facepattern
 70
    15
177
     2
291
     1
 71
     2
176
     1
 72
     2
176
     1
 73
     0
176
     1
 90
        0
176
     1
 40
-0.6
176
     1
 41
-30.0
176
     1
 62
     5
 63
     7
421
 16777215
176
     1
 74
     1
176
     1
 91
        4
176
     1
 64
     7
176
     1
 65
   257
176
     1
 75
     1
176
     1
175
     1
176
     1
 42
1.0
176
     1
 92
        8
176
     1
 66
     7
176
     1
 43
1.0
176
     1
 76
     1
176
     1
 77
     6
176
     1
 78
     2
176
     1
 67
     7
176
     1
 79
     5
176
     1
170
     0
176
     1
171
     0
176
     1
290
     0
176
     1
 93
        1
176
     1
 44
0.0
176
     1
173
     0
176
     1
  0
VISUALSTYLE
  5
2B
102
{ACAD_REACTORS
330
2A
102
}
330
2A
100
AcDbVisualStyle
  2
Flat
 70
     0
177
     2
291
     1
 71
     2
176
     1
 72
     1
176
     1
 73
     1
176
     1
 90
        2
176
     1
 40
-0.6
176
     1
 41
30.0
176
     1
 62
     5
 63
     7
421
 16777215
176
     1
 74
     0
176
     1
 91
        4
176
     1
 64
     7
176
     1
 65
   257
176
     1
 75
     1
176
     1
175
     1
176
     1
 42
1.0
176
     1
 92
        8
176
     1
 66
     7
176
     1
 43
1.0
176
     1
 76
     1
176
     1
 77
     6
176
     1
 78
     2
176
     1
 67
     7
176
     1
 79
     5
176
     1
170
     0
176
     1
171
     0
176
     1
290
     0
176
     1
 93
       13
176
     1
 44
0.0
176
     1
173
     0
176
     1
  0
VISUALSTYLE
  5
2C
102
{ACAD_REACTORS
330
2A
102
}
330
2A
100
AcDbVisualStyle
  2
FlatWithEdges
 70
     1
177
     2
291
     1
 71
     2
176
     1
 72
     1
176
     1
 73
     1
176
     1
 90
        2
176
     1
 40
-0.6
176
     1
 41
30.0
176
     1
 62
     5
 63
     7
421
 16777215
176
     1
 74
     1
176
     1
 91
        4
176
     1
 64
     7
176
     1
 65
   257
176
     1
 75
     1
176
     1
175
     1
176
     1
 42
1.0
176
     1
 92
        0
176
     1
 66
   257
176
     1
 43
1.0
176
     1
 76
     1
176
     1
 77
     6
176
     1
 78
     2
176
     1
 67
     7
176
     1
 79
     5
176
     1
170
     0
176
     1
171
     0
176
     1
290
     0
176
     1
 93
       13
176
     1
 44
0.0
176
     1
173
     0
176
     1
  0
VISUALSTYLE
  5
2D
102
{ACAD_REACTORS
330
2A
102
}
330
2A
100
AcDbVisualStyle
  2
Gouraud
 70
     2
177
     2
291
     1
 71
     2
176
     1
 72
     2
176
     1
 73
     1
176
     1
 90
        2
176
     1
 40
-0.6
176
     1
 41
30.0
176
     1
 62
     5
 63
     7
421
 16777215
176
     1
 74
     0
176
     1
 91
        4
176
     1
 64
     7
176
     1
 65
   257
176
     1
 75
     1
176
     1
175
     1
176
     1
 42
1.0
176
     1
 92
        0
176
     1
 66
     7
176
     1
 43
1.0
176
     1
 76
     1
176
     1
 77
     6
176
     1
 78
     2
176
     1
 67
     7
176
     1
 79
     5
176
     1
170
     0
176
     1
171
     0
176
     1
290
     0
176
     1
 93
       13
176
     1
 44
0.0
176
     1
173
     0
176
     1
  0
VISUALSTYLE
  5
2E
102
{ACAD_REACTORS
330
2A
102
}
330
2A
100
AcDbVisualStyle
  2
GouraudWithEdges
 70
     3
177
     2
291
     1
 71
     2
176
     1
 72
     2
176
     1
 73
     1
176
     1
 90
        2
176
     1
 40
-0.6
176
     1
 41
30.0
176
     1
 62
     5
 63
     7
421
 16777215
176
     1
 74
     1
176
     1
 91
        4
176
     1
 64
     7
176
     1
 65
   257
176
     1
 75
     1
176
     1
175
     1
176
     1
 42
1.0
176
     1
 92
        0
176
     1
 66
   257
176
     1
 43
1.0
176
     1
 76
     1
176
     1
 77
     6
176
     1
 78
     2
176
     1
 67
     7
176
     1
 79
     5
176
     1
170
     0
176
     1
171
     0
176
     1
290
     0
176
     1
 93
       13
176
     1
 44
0.0
176
     1
173
     0
176
     1
  0
VISUALSTYLE
  5
38
102
{ACAD_REACTORS
330
2A
102
}
330
2A
100
AcDbVisualStyle
  2
Linepattern
 70
    14
177
     2
291
     1
 71
     2
176
     1
 72
     2
176
     1
 73
     0
176
     1
 90
        0
176
     1
 40
-0.6
176
     1
 41
-30.0
176
     1
 62
     5
 63
     7
421
 16777215
176
     1
 74
     1
176
     1
 91
        4
176
     1
 64
     7
176
     1
 65
   257
176
     1
 75
     7
176
     1
175
     7
176
     1
 42
1.0
176
     1
 92
        8
176
     1
 66
     7
176
     1
 43
1.0
176
     1
 76
     1
176
     1
 77
     6
176
     1
 78
     2
176
     1
 67
     7
176
     1
 79
     5
176
     1
170
     0
176
     1
171
     0
176
     1
290
     0
176
     1
 93
        1
176
     1
 44
0.0
176
     1
173
     0
176
     1
  0
VISUALSTYLE
  5
33
102
{ACAD_REACTORS
330
2A
102
}
330
2A
100
AcDbVisualStyle
  2
Realistic
 70
     8
177
     2
291
     0
 71
     2
176
     1
 72
     2
176
     1
 73
     0
176
     1
 90
        0
176
     1
 40
-0.6
176
     1
 41
-30.0
176
     1
 62
     5
 63
     7
421
 16777215
176
     1
 74
     1
176
     1
 91
        0
176
     1
 64
     7
176
     1
 65
   257
176
     1
 75
     1
176
     1
175
     1
176
     1
 42
1.0
176
     1
 92
        8
176
     1
 66
     8
424
  7895160
176
     1
 43
1.0
176
     1
 76
     1
176
     1
 77
     6
176
     1
 78
     2
176
     1
 67
     7
176
     1
 79
     5
176
     1
170
     0
176
     1
171
     0
176
     1
290
     0
176
     1
 93
       13
176
     1
 44
0.0
176
     1
173
     0
176
     1
  0
VISUALSTYLE
  5
37
102
{ACAD_REACTORS
330
2A
102
}
330
2A
100
AcDbVisualStyle
  2
Thicken
 70
    13
177
     2
291
     1
 71
     2
176
     1
 72
     2
176
     1
 73
     0
176
     1
 90
        0
176
     1
 40
-0.6
176
     1
 41
-30.0
176
     1
 62
     5
 63
     7
421
 16777215
176
     1
 74
     1
176
     1
 91
        4
176
     1
 64
     7
176
     1
 65
   257
176
     1
 75
     1
176
     1
175
     1
176
     1
 42
1.0
176
     1
 92
       12
176
     1
 66
     7
176
     1
 43
1.0
176
     1
 76
     1
176
     1
 77
     6
176
     1
 78
     2
176
     1
 67
     7
176
     1
 79
     5
176
     1
170
     0
176
     1
171
     0
176
     1
290
     0
176
     1
 93
        1
176
     1
 44
0.0
176
     1
173
     0
176
     1
  0
ENDSEC
  0
EOF
