%TF.GenerationSoftware,KiCad,Pcbnew,7.0.8*%
%TF.CreationDate,2023-10-27T09:14:47-04:00*%
%TF.ProjectId,bottom_mid_spacer,626f7474-6f6d-45f6-9d69-645f73706163,rev?*%
%TF.SameCoordinates,Original*%
%TF.FileFunction,Legend,Top*%
%TF.FilePolarity,Positive*%
%FSLAX46Y46*%
G04 Gerber Fmt 4.6, Leading zero omitted, Abs format (unit mm)*
G04 Created by KiCad (PCBNEW 7.0.8) date 2023-10-27 09:14:47*
%MOMM*%
%LPD*%
G01*
G04 APERTURE LIST*
%ADD10C,0.150000*%
%ADD11C,3.200000*%
%ADD12C,2.000000*%
G04 APERTURE END LIST*
D10*
X27215180Y4365049D02*
X26500895Y4365049D01*
X26500895Y4365049D02*
X26358038Y4412668D01*
X26358038Y4412668D02*
X26262800Y4507906D01*
X26262800Y4507906D02*
X26215180Y4650763D01*
X26215180Y4650763D02*
X26215180Y4746001D01*
X26215180Y3412668D02*
X26215180Y3888858D01*
X26215180Y3888858D02*
X27215180Y3888858D01*
X26310419Y2507906D02*
X26262800Y2555525D01*
X26262800Y2555525D02*
X26215180Y2698382D01*
X26215180Y2698382D02*
X26215180Y2793620D01*
X26215180Y2793620D02*
X26262800Y2936477D01*
X26262800Y2936477D02*
X26358038Y3031715D01*
X26358038Y3031715D02*
X26453276Y3079334D01*
X26453276Y3079334D02*
X26643752Y3126953D01*
X26643752Y3126953D02*
X26786609Y3126953D01*
X26786609Y3126953D02*
X26977085Y3079334D01*
X26977085Y3079334D02*
X27072323Y3031715D01*
X27072323Y3031715D02*
X27167561Y2936477D01*
X27167561Y2936477D02*
X27215180Y2793620D01*
X27215180Y2793620D02*
X27215180Y2698382D01*
X27215180Y2698382D02*
X27167561Y2555525D01*
X27167561Y2555525D02*
X27119942Y2507906D01*
X27215180Y1793620D02*
X26500895Y1793620D01*
X26500895Y1793620D02*
X26358038Y1841239D01*
X26358038Y1841239D02*
X26262800Y1936477D01*
X26262800Y1936477D02*
X26215180Y2079334D01*
X26215180Y2079334D02*
X26215180Y2174572D01*
X26215180Y841239D02*
X26215180Y1317429D01*
X26215180Y1317429D02*
X27215180Y1317429D01*
X26310419Y-63523D02*
X26262800Y-15904D01*
X26262800Y-15904D02*
X26215180Y126953D01*
X26215180Y126953D02*
X26215180Y222191D01*
X26215180Y222191D02*
X26262800Y365048D01*
X26262800Y365048D02*
X26358038Y460286D01*
X26358038Y460286D02*
X26453276Y507905D01*
X26453276Y507905D02*
X26643752Y555524D01*
X26643752Y555524D02*
X26786609Y555524D01*
X26786609Y555524D02*
X26977085Y507905D01*
X26977085Y507905D02*
X27072323Y460286D01*
X27072323Y460286D02*
X27167561Y365048D01*
X27167561Y365048D02*
X27215180Y222191D01*
X27215180Y222191D02*
X27215180Y126953D01*
X27215180Y126953D02*
X27167561Y-15904D01*
X27167561Y-15904D02*
X27119942Y-63523D01*
X27215180Y-777809D02*
X26500895Y-777809D01*
X26500895Y-777809D02*
X26358038Y-730190D01*
X26358038Y-730190D02*
X26262800Y-634952D01*
X26262800Y-634952D02*
X26215180Y-492095D01*
X26215180Y-492095D02*
X26215180Y-396857D01*
X26215180Y-1730190D02*
X26215180Y-1254000D01*
X26215180Y-1254000D02*
X27215180Y-1254000D01*
X26310419Y-2634952D02*
X26262800Y-2587333D01*
X26262800Y-2587333D02*
X26215180Y-2444476D01*
X26215180Y-2444476D02*
X26215180Y-2349238D01*
X26215180Y-2349238D02*
X26262800Y-2206381D01*
X26262800Y-2206381D02*
X26358038Y-2111143D01*
X26358038Y-2111143D02*
X26453276Y-2063524D01*
X26453276Y-2063524D02*
X26643752Y-2015905D01*
X26643752Y-2015905D02*
X26786609Y-2015905D01*
X26786609Y-2015905D02*
X26977085Y-2063524D01*
X26977085Y-2063524D02*
X27072323Y-2111143D01*
X27072323Y-2111143D02*
X27167561Y-2206381D01*
X27167561Y-2206381D02*
X27215180Y-2349238D01*
X27215180Y-2349238D02*
X27215180Y-2444476D01*
X27215180Y-2444476D02*
X27167561Y-2587333D01*
X27167561Y-2587333D02*
X27119942Y-2634952D01*
X27215180Y-3349238D02*
X26500895Y-3349238D01*
X26500895Y-3349238D02*
X26358038Y-3301619D01*
X26358038Y-3301619D02*
X26262800Y-3206381D01*
X26262800Y-3206381D02*
X26215180Y-3063524D01*
X26215180Y-3063524D02*
X26215180Y-2968286D01*
X26215180Y-4301619D02*
X26215180Y-3825429D01*
X26215180Y-3825429D02*
X27215180Y-3825429D01*
X26310419Y-5206381D02*
X26262800Y-5158762D01*
X26262800Y-5158762D02*
X26215180Y-5015905D01*
X26215180Y-5015905D02*
X26215180Y-4920667D01*
X26215180Y-4920667D02*
X26262800Y-4777810D01*
X26262800Y-4777810D02*
X26358038Y-4682572D01*
X26358038Y-4682572D02*
X26453276Y-4634953D01*
X26453276Y-4634953D02*
X26643752Y-4587334D01*
X26643752Y-4587334D02*
X26786609Y-4587334D01*
X26786609Y-4587334D02*
X26977085Y-4634953D01*
X26977085Y-4634953D02*
X27072323Y-4682572D01*
X27072323Y-4682572D02*
X27167561Y-4777810D01*
X27167561Y-4777810D02*
X27215180Y-4920667D01*
X27215180Y-4920667D02*
X27215180Y-5015905D01*
X27215180Y-5015905D02*
X27167561Y-5158762D01*
X27167561Y-5158762D02*
X27119942Y-5206381D01*
%LPC*%
D11*
%TO.C,REF\u002A\u002A*%
X46990000Y-27699970D03*
%TD*%
%TO.C,REF\u002A\u002A*%
X25500000Y43500000D03*
%TD*%
D12*
%TO.C,REF\u002A\u002A*%
X10250000Y27700000D03*
%TD*%
D11*
%TO.C,REF\u002A\u002A*%
X25500000Y-43500000D03*
%TD*%
D12*
%TO.C,REF\u002A\u002A*%
X19750000Y-27700000D03*
%TD*%
D11*
%TO.C,REF\u002A\u002A*%
X4500000Y43500000D03*
%TD*%
%TO.C,REF\u002A\u002A*%
X46990000Y27699970D03*
%TD*%
D12*
%TO.C,REF\u002A\u002A*%
X10250000Y-27700000D03*
%TD*%
%TO.C,REF\u002A\u002A*%
X19750000Y27700000D03*
%TD*%
D11*
%TO.C,REF\u002A\u002A*%
X4500000Y-43500000D03*
%TD*%
%LPD*%
M02*
