%TF.GenerationSoftware,KiCad,Pcbnew,7.0.8*%
%TF.CreationDate,2023-10-27T09:19:23-04:00*%
%TF.ProjectId,bottom_plate,626f7474-6f6d-45f7-906c-6174652e6b69,rev?*%
%TF.SameCoordinates,Original*%
%TF.FileFunction,Legend,Bot*%
%TF.FilePolarity,Positive*%
%FSLAX46Y46*%
G04 Gerber Fmt 4.6, Leading zero omitted, Abs format (unit mm)*
G04 Created by KiCad (PCBNEW 7.0.8) date 2023-10-27 09:19:23*
%MOMM*%
%LPD*%
G01*
G04 APERTURE LIST*
%ADD10C,0.150000*%
%ADD11C,3.200000*%
G04 APERTURE END LIST*
D10*
X92672819Y4619049D02*
X93387104Y4619049D01*
X93387104Y4619049D02*
X93529961Y4666668D01*
X93529961Y4666668D02*
X93625200Y4761906D01*
X93625200Y4761906D02*
X93672819Y4904763D01*
X93672819Y4904763D02*
X93672819Y5000001D01*
X93672819Y3666668D02*
X93672819Y4142858D01*
X93672819Y4142858D02*
X92672819Y4142858D01*
X93577580Y2761906D02*
X93625200Y2809525D01*
X93625200Y2809525D02*
X93672819Y2952382D01*
X93672819Y2952382D02*
X93672819Y3047620D01*
X93672819Y3047620D02*
X93625200Y3190477D01*
X93625200Y3190477D02*
X93529961Y3285715D01*
X93529961Y3285715D02*
X93434723Y3333334D01*
X93434723Y3333334D02*
X93244247Y3380953D01*
X93244247Y3380953D02*
X93101390Y3380953D01*
X93101390Y3380953D02*
X92910914Y3333334D01*
X92910914Y3333334D02*
X92815676Y3285715D01*
X92815676Y3285715D02*
X92720438Y3190477D01*
X92720438Y3190477D02*
X92672819Y3047620D01*
X92672819Y3047620D02*
X92672819Y2952382D01*
X92672819Y2952382D02*
X92720438Y2809525D01*
X92720438Y2809525D02*
X92768057Y2761906D01*
X92672819Y2047620D02*
X93387104Y2047620D01*
X93387104Y2047620D02*
X93529961Y2095239D01*
X93529961Y2095239D02*
X93625200Y2190477D01*
X93625200Y2190477D02*
X93672819Y2333334D01*
X93672819Y2333334D02*
X93672819Y2428572D01*
X93672819Y1095239D02*
X93672819Y1571429D01*
X93672819Y1571429D02*
X92672819Y1571429D01*
X93577580Y190477D02*
X93625200Y238096D01*
X93625200Y238096D02*
X93672819Y380953D01*
X93672819Y380953D02*
X93672819Y476191D01*
X93672819Y476191D02*
X93625200Y619048D01*
X93625200Y619048D02*
X93529961Y714286D01*
X93529961Y714286D02*
X93434723Y761905D01*
X93434723Y761905D02*
X93244247Y809524D01*
X93244247Y809524D02*
X93101390Y809524D01*
X93101390Y809524D02*
X92910914Y761905D01*
X92910914Y761905D02*
X92815676Y714286D01*
X92815676Y714286D02*
X92720438Y619048D01*
X92720438Y619048D02*
X92672819Y476191D01*
X92672819Y476191D02*
X92672819Y380953D01*
X92672819Y380953D02*
X92720438Y238096D01*
X92720438Y238096D02*
X92768057Y190477D01*
X92672819Y-523809D02*
X93387104Y-523809D01*
X93387104Y-523809D02*
X93529961Y-476190D01*
X93529961Y-476190D02*
X93625200Y-380952D01*
X93625200Y-380952D02*
X93672819Y-238095D01*
X93672819Y-238095D02*
X93672819Y-142857D01*
X93672819Y-1476190D02*
X93672819Y-1000000D01*
X93672819Y-1000000D02*
X92672819Y-1000000D01*
X93577580Y-2380952D02*
X93625200Y-2333333D01*
X93625200Y-2333333D02*
X93672819Y-2190476D01*
X93672819Y-2190476D02*
X93672819Y-2095238D01*
X93672819Y-2095238D02*
X93625200Y-1952381D01*
X93625200Y-1952381D02*
X93529961Y-1857143D01*
X93529961Y-1857143D02*
X93434723Y-1809524D01*
X93434723Y-1809524D02*
X93244247Y-1761905D01*
X93244247Y-1761905D02*
X93101390Y-1761905D01*
X93101390Y-1761905D02*
X92910914Y-1809524D01*
X92910914Y-1809524D02*
X92815676Y-1857143D01*
X92815676Y-1857143D02*
X92720438Y-1952381D01*
X92720438Y-1952381D02*
X92672819Y-2095238D01*
X92672819Y-2095238D02*
X92672819Y-2190476D01*
X92672819Y-2190476D02*
X92720438Y-2333333D01*
X92720438Y-2333333D02*
X92768057Y-2380952D01*
X92672819Y-3095238D02*
X93387104Y-3095238D01*
X93387104Y-3095238D02*
X93529961Y-3047619D01*
X93529961Y-3047619D02*
X93625200Y-2952381D01*
X93625200Y-2952381D02*
X93672819Y-2809524D01*
X93672819Y-2809524D02*
X93672819Y-2714286D01*
X93672819Y-4047619D02*
X93672819Y-3571429D01*
X93672819Y-3571429D02*
X92672819Y-3571429D01*
X93577580Y-4952381D02*
X93625200Y-4904762D01*
X93625200Y-4904762D02*
X93672819Y-4761905D01*
X93672819Y-4761905D02*
X93672819Y-4666667D01*
X93672819Y-4666667D02*
X93625200Y-4523810D01*
X93625200Y-4523810D02*
X93529961Y-4428572D01*
X93529961Y-4428572D02*
X93434723Y-4380953D01*
X93434723Y-4380953D02*
X93244247Y-4333334D01*
X93244247Y-4333334D02*
X93101390Y-4333334D01*
X93101390Y-4333334D02*
X92910914Y-4380953D01*
X92910914Y-4380953D02*
X92815676Y-4428572D01*
X92815676Y-4428572D02*
X92720438Y-4523810D01*
X92720438Y-4523810D02*
X92672819Y-4666667D01*
X92672819Y-4666667D02*
X92672819Y-4761905D01*
X92672819Y-4761905D02*
X92720438Y-4904762D01*
X92720438Y-4904762D02*
X92768057Y-4952381D01*
%LPC*%
D11*
%TO.C,REF\u002A\u002A*%
X25500000Y43500000D03*
%TD*%
%TO.C,REF\u002A\u002A*%
X46990000Y-27699970D03*
%TD*%
%TO.C,REF\u002A\u002A*%
X25500000Y-43500000D03*
%TD*%
%TO.C,REF\u002A\u002A*%
X93000000Y40000000D03*
%TD*%
%TO.C,REF\u002A\u002A*%
X4500000Y43500000D03*
%TD*%
%TO.C,REF\u002A\u002A*%
X46990000Y27699970D03*
%TD*%
%TO.C,REF\u002A\u002A*%
X4500000Y-43500000D03*
%TD*%
%TO.C,REF\u002A\u002A*%
X93000000Y-40000000D03*
%TD*%
%LPD*%
M02*
